%TF.GenerationSoftware,KiCad,Pcbnew,(7.0.0)*%
%TF.CreationDate,2023-03-16T22:42:38+01:00*%
%TF.ProjectId,iot_diagnostic_tool,696f745f-6469-4616-976e-6f737469635f,rev?*%
%TF.SameCoordinates,Original*%
%TF.FileFunction,Paste,Bot*%
%TF.FilePolarity,Positive*%
%FSLAX46Y46*%
G04 Gerber Fmt 4.6, Leading zero omitted, Abs format (unit mm)*
G04 Created by KiCad (PCBNEW (7.0.0)) date 2023-03-16 22:42:38*
%MOMM*%
%LPD*%
G01*
G04 APERTURE LIST*
G04 Aperture macros list*
%AMRoundRect*
0 Rectangle with rounded corners*
0 $1 Rounding radius*
0 $2 $3 $4 $5 $6 $7 $8 $9 X,Y pos of 4 corners*
0 Add a 4 corners polygon primitive as box body*
4,1,4,$2,$3,$4,$5,$6,$7,$8,$9,$2,$3,0*
0 Add four circle primitives for the rounded corners*
1,1,$1+$1,$2,$3*
1,1,$1+$1,$4,$5*
1,1,$1+$1,$6,$7*
1,1,$1+$1,$8,$9*
0 Add four rect primitives between the rounded corners*
20,1,$1+$1,$2,$3,$4,$5,0*
20,1,$1+$1,$4,$5,$6,$7,0*
20,1,$1+$1,$6,$7,$8,$9,0*
20,1,$1+$1,$8,$9,$2,$3,0*%
G04 Aperture macros list end*
%ADD10R,1.900000X0.800000*%
%ADD11RoundRect,0.100000X-0.637500X-0.100000X0.637500X-0.100000X0.637500X0.100000X-0.637500X0.100000X0*%
%ADD12RoundRect,0.155000X-0.155000X0.212500X-0.155000X-0.212500X0.155000X-0.212500X0.155000X0.212500X0*%
%ADD13RoundRect,0.160000X0.197500X0.160000X-0.197500X0.160000X-0.197500X-0.160000X0.197500X-0.160000X0*%
%ADD14RoundRect,0.155000X-0.212500X-0.155000X0.212500X-0.155000X0.212500X0.155000X-0.212500X0.155000X0*%
%ADD15RoundRect,0.155000X0.155000X-0.212500X0.155000X0.212500X-0.155000X0.212500X-0.155000X-0.212500X0*%
%ADD16RoundRect,0.160000X-0.160000X0.197500X-0.160000X-0.197500X0.160000X-0.197500X0.160000X0.197500X0*%
%ADD17RoundRect,0.160000X-0.197500X-0.160000X0.197500X-0.160000X0.197500X0.160000X-0.197500X0.160000X0*%
%ADD18R,0.400000X0.450000*%
%ADD19R,0.500000X0.450000*%
%ADD20R,0.670000X0.950000*%
%ADD21R,1.350000X2.000000*%
%ADD22R,1.880000X0.500000*%
%ADD23R,1.500000X0.400000*%
G04 APERTURE END LIST*
D10*
%TO.C,Q5*%
X154324999Y-74299999D03*
X154324999Y-72399999D03*
X157324999Y-73349999D03*
%TD*%
D11*
%TO.C,U8*%
X133300000Y-92800000D03*
X133300000Y-92150000D03*
X133300000Y-91500000D03*
X133300000Y-90850000D03*
X133300000Y-90200000D03*
X133300000Y-89550000D03*
X133300000Y-88900000D03*
X133300000Y-88250000D03*
X133300000Y-87600000D03*
X133300000Y-86950000D03*
X133300000Y-86300000D03*
X133300000Y-85650000D03*
X139025000Y-85650000D03*
X139025000Y-86300000D03*
X139025000Y-86950000D03*
X139025000Y-87600000D03*
X139025000Y-88250000D03*
X139025000Y-88900000D03*
X139025000Y-89550000D03*
X139025000Y-90200000D03*
X139025000Y-90850000D03*
X139025000Y-91500000D03*
X139025000Y-92150000D03*
X139025000Y-92800000D03*
%TD*%
D12*
%TO.C,C27*%
X142750000Y-91432500D03*
X142750000Y-92567500D03*
%TD*%
D13*
%TO.C,R41*%
X153472500Y-83900000D03*
X152277500Y-83900000D03*
%TD*%
D14*
%TO.C,C32*%
X139132500Y-98900000D03*
X140267500Y-98900000D03*
%TD*%
D10*
%TO.C,Q3*%
X149949999Y-82399999D03*
X149949999Y-80499999D03*
X152949999Y-81449999D03*
%TD*%
D15*
%TO.C,C33*%
X139850000Y-101617500D03*
X139850000Y-100482500D03*
%TD*%
D16*
%TO.C,R16*%
X141600000Y-91402500D03*
X141600000Y-92597500D03*
%TD*%
D17*
%TO.C,R40*%
X150877500Y-79050000D03*
X152072500Y-79050000D03*
%TD*%
D13*
%TO.C,R45*%
X129897500Y-93300000D03*
X128702500Y-93300000D03*
%TD*%
%TO.C,R43*%
X145347500Y-81350000D03*
X144152500Y-81350000D03*
%TD*%
D18*
%TO.C,Q6*%
X148099999Y-80374999D03*
X147299999Y-80374999D03*
D19*
X147699999Y-79224999D03*
%TD*%
D13*
%TO.C,R42*%
X150497500Y-83900000D03*
X149302500Y-83900000D03*
%TD*%
D17*
%TO.C,R44*%
X128502500Y-95000000D03*
X129697500Y-95000000D03*
%TD*%
D20*
%TO.C,J3*%
X132149999Y-103799999D03*
X135449999Y-103799999D03*
X137649999Y-103799999D03*
X139849999Y-103799999D03*
X133249999Y-103799999D03*
X136549999Y-103799999D03*
X138749999Y-103799999D03*
X140949999Y-103799999D03*
X134349999Y-103799999D03*
D21*
X143354999Y-107674999D03*
X131004999Y-107674999D03*
X131004999Y-115324999D03*
X143354999Y-115324999D03*
D22*
X142789999Y-103574999D03*
%TD*%
D23*
%TO.C,D5*%
X138129999Y-100199999D03*
X138129999Y-100849999D03*
X138129999Y-101499999D03*
X135469999Y-101499999D03*
X135469999Y-100849999D03*
X135469999Y-100199999D03*
%TD*%
M02*
