M48
; DRILL file {KiCad (7.0.0)} date Thu Mar 16 22:42:38 2023
; FORMAT={-:-/ absolute / inch / decimal}
; #@! TF.CreationDate,2023-03-16T22:42:38+01:00
; #@! TF.GenerationSoftware,Kicad,Pcbnew,(7.0.0)
; #@! TF.FileFunction,Plated,1,4,PTH
FMAT,2
INCH
; #@! TA.AperFunction,Plated,PTH,ViaDrill
T1C0.0079
; #@! TA.AperFunction,Plated,PTH,ComponentDrill
T2C0.0394
; #@! TA.AperFunction,Plated,PTH,ComponentDrill
T3C0.0402
%
G90
G05
T1
X4.9921Y-3.0886
X4.9921Y-3.1498
X4.9921Y-3.2111
X4.9921Y-3.2723
X4.9921Y-3.3336
X4.9921Y-3.3948
X4.9921Y-3.4561
X4.9921Y-3.5173
X4.9921Y-3.5786
X4.9921Y-3.6398
X4.9921Y-3.7011
X4.9921Y-3.7623
X4.9921Y-3.8236
X4.9921Y-3.8848
X4.9921Y-3.9461
X4.9921Y-4.0073
X4.9921Y-4.0686
X4.9921Y-4.1298
X4.9921Y-4.1911
X4.9921Y-4.2523
X4.9921Y-4.3136
X4.9921Y-4.3748
X4.9921Y-4.4361
X4.9921Y-4.4973
X4.9921Y-4.5586
X4.9921Y-4.6199
X4.9921Y-4.6793
X5.0576Y-4.6793
X5.0577Y-3.0886
X5.0626Y-3.6398
X5.0709Y-3.9016
X5.0709Y-3.9449
X5.0709Y-3.9882
X5.1063Y-3.6394
X5.1102Y-3.5189
X5.1102Y-3.3819
X5.1102Y-3.4093
X5.1102Y-3.4367
X5.1102Y-3.4641
X5.1102Y-3.5737
X5.1102Y-3.6011
X5.1102Y-3.5463
X5.1102Y-3.4915
X5.1142Y-3.9016
X5.1142Y-3.9882
X5.1161Y-2.7657
X5.1161Y-2.8294
X5.1161Y-2.893
X5.1161Y-2.9567
X5.1231Y-4.6793
X5.1234Y-3.0886
X5.1374Y-3.722
X5.187Y-2.9567
X5.1886Y-4.6793
X5.189Y-3.0226
X5.189Y-3.0886
X5.1896Y-2.7657
X5.2008Y-4.502
X5.2047Y-4.2421
X5.2047Y-4.372
X5.2541Y-4.6793
X5.2618Y-3.2815
X5.2631Y-2.7657
X5.2746Y-3.9961
X5.2874Y-4.124
X5.2933Y-3.1417
X5.2933Y-3.185
X5.2953Y-2.9567
X5.2953Y-3.0226
X5.2953Y-3.0886
X5.3012Y-3.3051
X5.3031Y-4.6043
X5.3196Y-4.6793
X5.3287Y-3.6535
X5.3366Y-2.7657
X5.3366Y-2.8294
X5.3366Y-2.893
X5.3366Y-2.9567
X5.3406Y-3.6122
X5.3406Y-4.0413
X5.3465Y-3.3366
X5.3484Y-3.2953
X5.3491Y-3.1417
X5.3491Y-3.185
X5.351Y-3.0886
X5.376Y-3.9724
X5.378Y-4.0
X5.3799Y-3.3878
X5.3799Y-3.4449
X5.3799Y-3.4961
X5.3799Y-3.5492
X5.3799Y-3.5925
X5.3851Y-4.6793
X5.3957Y-3.3406
X5.4049Y-3.1417
X5.4049Y-3.185
X5.4068Y-3.0886
X5.4134Y-3.9051
X5.4173Y-4.1811
X5.4193Y-3.6358
X5.4252Y-2.7677
X5.4252Y-2.8287
X5.4252Y-2.8898
X5.4252Y-2.9508
X5.4429Y-4.4016
X5.4507Y-4.6793
X5.4587Y-3.313
X5.4606Y-3.1417
X5.4606Y-3.185
X5.4606Y-4.0276
X5.4626Y-2.9508
X5.4626Y-3.0197
X5.4626Y-3.0886
X5.4665Y-4.4016
X5.4803Y-3.9685
X5.4902Y-4.1496
X5.4941Y-4.4843
X5.4941Y-4.5571
X5.4987Y-2.7677
X5.5039Y-4.0374
X5.5162Y-4.6793
X5.5295Y-3.8445
X5.5531Y-3.7618
X5.5689Y-4.1398
X5.5722Y-2.7677
X5.5728Y-2.9508
X5.5728Y-3.0197
X5.5728Y-3.0886
X5.5817Y-4.6793
X5.5866Y-3.7382
X5.5965Y-4.5413
X5.5984Y-3.8773
X5.6004Y-4.2382
X5.6043Y-4.0433
X5.6122Y-3.8169
X5.6299Y-3.9075
X5.6319Y-3.2461
X5.6339Y-3.315
X5.6339Y-3.3898
X5.6386Y-3.0886
X5.6417Y-4.0433
X5.6437Y-3.8471
X5.6457Y-2.7677
X5.6457Y-2.8287
X5.6457Y-2.8898
X5.6457Y-2.9508
X5.6472Y-4.6793
X5.6496Y-3.4469
X5.6496Y-3.5157
X5.6516Y-3.7028
X5.6535Y-3.5689
X5.6791Y-3.2372
X5.6988Y-3.5709
X5.7008Y-3.4469
X5.7043Y-3.0886
X5.7127Y-4.6793
X5.7185Y-3.1604
X5.7224Y-3.6791
X5.7254Y-3.2372
X5.7382Y-3.9547
X5.7657Y-3.2205
X5.7677Y-3.1634
X5.7701Y-3.0886
X5.7736Y-3.8976
X5.7756Y-3.6791
X5.7756Y-3.7303
X5.7776Y-3.4528
X5.7776Y-3.5531
X5.7782Y-4.6793
X5.7795Y-3.8327
X5.813Y-3.2854
X5.8358Y-3.0886
X5.8386Y-3.9705
X5.8437Y-4.6793
X5.8445Y-3.4606
X5.8681Y-3.4055
X5.874Y-3.4646
X5.9006Y-3.2067
X5.9011Y-3.5577
X5.9016Y-2.7736
X5.9016Y-2.8366
X5.9016Y-2.8996
X5.9016Y-2.9626
X5.9016Y-3.0256
X5.9016Y-3.0886
X5.9039Y-3.5928
X5.9055Y-3.6201
X5.9092Y-4.6793
X5.9094Y-3.7224
X5.9154Y-3.6594
X5.9404Y-3.4646
X5.9409Y-3.3504
X5.9547Y-3.2067
X5.9567Y-2.8189
X5.9598Y-2.7736
X5.9626Y-3.6831
X5.9747Y-4.6793
X5.9774Y-3.7352
X5.9862Y-3.5669
X5.9921Y-3.5236
X6.0039Y-3.939
X6.0118Y-3.0531
X6.0138Y-2.8346
X6.0157Y-2.9681
X6.0256Y-2.8878
X6.0264Y-2.7736
X6.0315Y-3.4665
X6.0315Y-3.939
X6.0374Y-3.3465
X6.0402Y-4.6793
X6.0433Y-3.1594
X6.065Y-3.5
X6.065Y-3.5433
X6.065Y-3.7146
X6.0728Y-2.8868
X6.0876Y-3.5846
X6.0929Y-2.7736
X6.0984Y-3.6811
X6.1057Y-4.6793
X6.1063Y-4.1555
X6.1063Y-4.2008
X6.126Y-3.5197
X6.126Y-3.565
X6.126Y-3.6102
X6.128Y-3.1319
X6.128Y-3.9724
X6.128Y-4.0
X6.1437Y-4.0256
X6.1535Y-4.0
X6.1555Y-4.1988
X6.1594Y-3.9409
X6.1595Y-2.7736
X6.1634Y-4.4567
X6.1634Y-4.4862
X6.1634Y-4.5217
X6.1634Y-4.5571
X6.1634Y-4.5984
X6.1693Y-4.0256
X6.1712Y-4.6793
X6.189Y-3.3465
X6.1894Y-3.6973
X6.1909Y-3.5059
X6.1909Y-3.5555
X6.1909Y-3.6051
X6.1969Y-3.2972
X6.1969Y-3.9547
X6.2087Y-3.0846
X6.2261Y-2.7736
X6.2303Y-3.5307
X6.2303Y-3.5803
X6.2303Y-3.6299
X6.2343Y-3.9547
X6.2362Y-4.4409
X6.2362Y-4.4862
X6.2367Y-4.6793
X6.2382Y-3.7185
X6.2579Y-3.315
X6.2598Y-4.0039
X6.2638Y-3.2717
X6.2677Y-2.8868
X6.2866Y-4.3681
X6.2866Y-4.4272
X6.2866Y-4.4862
X6.2926Y-2.7736
X6.3022Y-4.6793
X6.3228Y-4.0768
X6.337Y-4.3681
X6.337Y-4.4272
X6.337Y-4.4862
X6.3445Y-3.685
X6.3563Y-3.3031
X6.3563Y-3.5748
X6.3592Y-2.7736
X6.3677Y-4.6793
X6.3799Y-2.9547
X6.3839Y-3.9862
X6.3874Y-4.3681
X6.3874Y-4.4272
X6.3874Y-4.4862
X6.3878Y-4.0315
X6.3927Y-3.8356
X6.3937Y-3.5098
X6.3976Y-3.4705
X6.4055Y-3.0472
X6.4258Y-2.7736
X6.4291Y-4.3307
X6.4332Y-4.6793
X6.4344Y-4.3681
X6.4344Y-4.4272
X6.4378Y-4.4862
X6.4429Y-4.122
X6.4449Y-3.3858
X6.4646Y-4.2244
X6.4724Y-3.6004
X6.4862Y-4.2618
X6.4862Y-4.311
X6.4862Y-4.3681
X6.4882Y-4.4272
X6.4882Y-4.4862
X6.4921Y-4.2244
X6.4923Y-2.7736
X6.4987Y-4.6793
X6.5197Y-4.2244
X6.5335Y-2.9823
X6.5413Y-3.6319
X6.5492Y-3.1142
X6.5589Y-2.7736
X6.5642Y-4.6793
X6.5709Y-4.2618
X6.5768Y-3.8957
X6.5906Y-4.3504
X6.6004Y-4.2835
X6.6255Y-2.7736
X6.6297Y-4.6793
X6.6299Y-3.6161
X6.6398Y-4.3504
X6.6476Y-3.0807
X6.649Y-4.2835
X6.689Y-4.3504
X6.692Y-2.7736
X6.6952Y-4.6793
X6.6975Y-4.2835
X6.7382Y-4.3504
X6.7461Y-4.2835
X6.7586Y-2.7736
X6.7607Y-4.6793
X6.8252Y-2.7736
X6.8262Y-4.6793
X6.8917Y-2.7736
X6.8917Y-4.2303
X6.8917Y-4.2945
X6.8917Y-4.3586
X6.8917Y-4.4228
X6.8917Y-4.4869
X6.8917Y-4.551
X6.8917Y-4.6152
X6.8917Y-4.6793
T2
X5.7626Y-4.1843
X5.7626Y-4.2843
X5.7626Y-4.3843
X5.7626Y-4.4843
X5.7626Y-4.5843
X5.8626Y-4.1843
X5.8626Y-4.2843
X5.8626Y-4.3843
X5.8626Y-4.4843
X5.8626Y-4.5843
X6.0453Y-4.3551
X6.0453Y-4.4551
X6.0453Y-4.5551
T3
X6.8035Y-3.0728
X6.8035Y-3.1909
X6.8035Y-3.3091
X6.8035Y-3.4272
X6.8035Y-3.5453
X6.8035Y-3.6634
X6.8035Y-3.7815
X6.8035Y-3.8996
T0
M30
