%TF.GenerationSoftware,KiCad,Pcbnew,(7.0.0)*%
%TF.CreationDate,2023-03-16T22:42:37+01:00*%
%TF.ProjectId,iot_diagnostic_tool,696f745f-6469-4616-976e-6f737469635f,rev?*%
%TF.SameCoordinates,Original*%
%TF.FileFunction,Legend,Top*%
%TF.FilePolarity,Positive*%
%FSLAX46Y46*%
G04 Gerber Fmt 4.6, Leading zero omitted, Abs format (unit mm)*
G04 Created by KiCad (PCBNEW (7.0.0)) date 2023-03-16 22:42:37*
%MOMM*%
%LPD*%
G01*
G04 APERTURE LIST*
G04 Aperture macros list*
%AMRoundRect*
0 Rectangle with rounded corners*
0 $1 Rounding radius*
0 $2 $3 $4 $5 $6 $7 $8 $9 X,Y pos of 4 corners*
0 Add a 4 corners polygon primitive as box body*
4,1,4,$2,$3,$4,$5,$6,$7,$8,$9,$2,$3,0*
0 Add four circle primitives for the rounded corners*
1,1,$1+$1,$2,$3*
1,1,$1+$1,$4,$5*
1,1,$1+$1,$6,$7*
1,1,$1+$1,$8,$9*
0 Add four rect primitives between the rounded corners*
20,1,$1+$1,$2,$3,$4,$5,0*
20,1,$1+$1,$4,$5,$6,$7,0*
20,1,$1+$1,$6,$7,$8,$9,0*
20,1,$1+$1,$8,$9,$2,$3,0*%
G04 Aperture macros list end*
%ADD10C,0.275000*%
%ADD11C,0.150000*%
%ADD12C,0.120000*%
%ADD13C,0.127000*%
%ADD14C,0.200000*%
%ADD15C,0.711200*%
%ADD16C,0.836200*%
%ADD17C,0.010000*%
%ADD18RoundRect,0.185000X0.135000X0.185000X-0.135000X0.185000X-0.135000X-0.185000X0.135000X-0.185000X0*%
%ADD19RoundRect,0.185000X0.185000X-0.135000X0.185000X0.135000X-0.185000X0.135000X-0.185000X-0.135000X0*%
%ADD20RoundRect,0.185000X-0.135000X-0.185000X0.135000X-0.185000X0.135000X0.185000X-0.135000X0.185000X0*%
%ADD21RoundRect,0.268750X0.218750X0.256250X-0.218750X0.256250X-0.218750X-0.256250X0.218750X-0.256250X0*%
%ADD22RoundRect,0.190000X-0.140000X-0.170000X0.140000X-0.170000X0.140000X0.170000X-0.140000X0.170000X0*%
%ADD23RoundRect,0.190000X-0.170000X0.140000X-0.170000X-0.140000X0.170000X-0.140000X0.170000X0.140000X0*%
%ADD24RoundRect,0.190000X0.140000X0.170000X-0.140000X0.170000X-0.140000X-0.170000X0.140000X-0.170000X0*%
%ADD25RoundRect,0.050000X-0.400000X0.950000X-0.400000X-0.950000X0.400000X-0.950000X0.400000X0.950000X0*%
%ADD26RoundRect,0.205000X-0.155000X0.212500X-0.155000X-0.212500X0.155000X-0.212500X0.155000X0.212500X0*%
%ADD27RoundRect,0.205000X0.155000X-0.212500X0.155000X0.212500X-0.155000X0.212500X-0.155000X-0.212500X0*%
%ADD28RoundRect,0.275000X0.250000X-0.225000X0.250000X0.225000X-0.250000X0.225000X-0.250000X-0.225000X0*%
%ADD29RoundRect,0.575000X2.025000X-0.525000X2.025000X0.525000X-2.025000X0.525000X-2.025000X-0.525000X0*%
%ADD30RoundRect,0.050000X0.500000X-0.525000X0.500000X0.525000X-0.500000X0.525000X-0.500000X-0.525000X0*%
%ADD31RoundRect,0.050000X0.525000X-1.100000X0.525000X1.100000X-0.525000X1.100000X-0.525000X-1.100000X0*%
%ADD32RoundRect,0.185000X-0.185000X0.135000X-0.185000X-0.135000X0.185000X-0.135000X0.185000X0.135000X0*%
%ADD33RoundRect,0.210000X0.160000X-0.197500X0.160000X0.197500X-0.160000X0.197500X-0.160000X-0.197500X0*%
%ADD34RoundRect,0.190000X0.170000X-0.140000X0.170000X0.140000X-0.170000X0.140000X-0.170000X-0.140000X0*%
%ADD35RoundRect,0.112500X-0.117500X-0.062500X0.117500X-0.062500X0.117500X0.062500X-0.117500X0.062500X0*%
%ADD36RoundRect,0.200000X0.150000X-0.587500X0.150000X0.587500X-0.150000X0.587500X-0.150000X-0.587500X0*%
%ADD37RoundRect,0.050000X-0.500000X1.575000X-0.500000X-1.575000X0.500000X-1.575000X0.500000X1.575000X0*%
%ADD38RoundRect,0.162500X-0.387500X-0.262500X0.387500X-0.262500X0.387500X0.262500X-0.387500X0.262500X0*%
%ADD39C,1.370000*%
%ADD40RoundRect,0.275000X-0.250000X0.225000X-0.250000X-0.225000X0.250000X-0.225000X0.250000X0.225000X0*%
%ADD41RoundRect,0.300000X0.475000X-0.250000X0.475000X0.250000X-0.475000X0.250000X-0.475000X-0.250000X0*%
%ADD42RoundRect,0.050000X-0.850000X-0.850000X0.850000X-0.850000X0.850000X0.850000X-0.850000X0.850000X0*%
%ADD43O,1.800000X1.800000*%
%ADD44RoundRect,0.200000X-0.587500X-0.150000X0.587500X-0.150000X0.587500X0.150000X-0.587500X0.150000X0*%
%ADD45RoundRect,0.287500X0.287500X0.237500X-0.287500X0.237500X-0.287500X-0.237500X0.287500X-0.237500X0*%
%ADD46RoundRect,0.200000X0.587500X0.150000X-0.587500X0.150000X-0.587500X-0.150000X0.587500X-0.150000X0*%
%ADD47RoundRect,0.112500X0.117500X0.062500X-0.117500X0.062500X-0.117500X-0.062500X0.117500X-0.062500X0*%
%ADD48RoundRect,0.300000X0.300000X-0.300000X0.300000X0.300000X-0.300000X0.300000X-0.300000X-0.300000X0*%
%ADD49RoundRect,0.205000X-0.212500X-0.155000X0.212500X-0.155000X0.212500X0.155000X-0.212500X0.155000X0*%
%ADD50RoundRect,0.125000X-0.075000X0.700000X-0.075000X-0.700000X0.075000X-0.700000X0.075000X0.700000X0*%
%ADD51RoundRect,0.125000X-0.700000X0.075000X-0.700000X-0.075000X0.700000X-0.075000X0.700000X0.075000X0*%
%ADD52RoundRect,0.050000X0.700000X0.600000X-0.700000X0.600000X-0.700000X-0.600000X0.700000X-0.600000X0*%
%ADD53RoundRect,0.200000X0.512500X0.150000X-0.512500X0.150000X-0.512500X-0.150000X0.512500X-0.150000X0*%
%ADD54RoundRect,0.200000X0.150000X-0.825000X0.150000X0.825000X-0.150000X0.825000X-0.150000X-0.825000X0*%
%ADD55RoundRect,0.112500X0.062500X-0.117500X0.062500X0.117500X-0.062500X0.117500X-0.062500X-0.117500X0*%
%ADD56RoundRect,0.162500X0.387500X0.262500X-0.387500X0.262500X-0.387500X-0.262500X0.387500X-0.262500X0*%
%ADD57RoundRect,0.275000X-0.225000X-0.250000X0.225000X-0.250000X0.225000X0.250000X-0.225000X0.250000X0*%
%ADD58RoundRect,0.300000X0.925000X-0.412500X0.925000X0.412500X-0.925000X0.412500X-0.925000X-0.412500X0*%
%ADD59RoundRect,0.210000X-0.160000X0.197500X-0.160000X-0.197500X0.160000X-0.197500X0.160000X0.197500X0*%
%ADD60C,0.800000*%
G04 APERTURE END LIST*
D10*
X160087500Y-86700000D02*
G75*
G03*
X160087500Y-86700000I-137500J0D01*
G01*
D11*
X153757142Y-108359142D02*
X153300000Y-108359142D01*
X153528571Y-108130571D02*
X153528571Y-108587714D01*
X129002000Y-71957142D02*
X129030571Y-71900000D01*
X129030571Y-71900000D02*
X129030571Y-71814285D01*
X129030571Y-71814285D02*
X129002000Y-71728571D01*
X129002000Y-71728571D02*
X128944857Y-71671428D01*
X128944857Y-71671428D02*
X128887714Y-71642857D01*
X128887714Y-71642857D02*
X128773428Y-71614285D01*
X128773428Y-71614285D02*
X128687714Y-71614285D01*
X128687714Y-71614285D02*
X128573428Y-71642857D01*
X128573428Y-71642857D02*
X128516285Y-71671428D01*
X128516285Y-71671428D02*
X128459142Y-71728571D01*
X128459142Y-71728571D02*
X128430571Y-71814285D01*
X128430571Y-71814285D02*
X128430571Y-71871428D01*
X128430571Y-71871428D02*
X128459142Y-71957142D01*
X128459142Y-71957142D02*
X128487714Y-71985714D01*
X128487714Y-71985714D02*
X128687714Y-71985714D01*
X128687714Y-71985714D02*
X128687714Y-71871428D01*
X128430571Y-72242857D02*
X129030571Y-72242857D01*
X129030571Y-72242857D02*
X128430571Y-72585714D01*
X128430571Y-72585714D02*
X129030571Y-72585714D01*
X128459142Y-72842856D02*
X128430571Y-72928571D01*
X128430571Y-72928571D02*
X128430571Y-73071428D01*
X128430571Y-73071428D02*
X128459142Y-73128571D01*
X128459142Y-73128571D02*
X128487714Y-73157142D01*
X128487714Y-73157142D02*
X128544857Y-73185713D01*
X128544857Y-73185713D02*
X128602000Y-73185713D01*
X128602000Y-73185713D02*
X128659142Y-73157142D01*
X128659142Y-73157142D02*
X128687714Y-73128571D01*
X128687714Y-73128571D02*
X128716285Y-73071428D01*
X128716285Y-73071428D02*
X128744857Y-72957142D01*
X128744857Y-72957142D02*
X128773428Y-72899999D01*
X128773428Y-72899999D02*
X128802000Y-72871428D01*
X128802000Y-72871428D02*
X128859142Y-72842856D01*
X128859142Y-72842856D02*
X128916285Y-72842856D01*
X128916285Y-72842856D02*
X128973428Y-72871428D01*
X128973428Y-72871428D02*
X129002000Y-72899999D01*
X129002000Y-72899999D02*
X129030571Y-72957142D01*
X129030571Y-72957142D02*
X129030571Y-73099999D01*
X129030571Y-73099999D02*
X129002000Y-73185713D01*
X128459142Y-73414285D02*
X128430571Y-73500000D01*
X128430571Y-73500000D02*
X128430571Y-73642857D01*
X128430571Y-73642857D02*
X128459142Y-73700000D01*
X128459142Y-73700000D02*
X128487714Y-73728571D01*
X128487714Y-73728571D02*
X128544857Y-73757142D01*
X128544857Y-73757142D02*
X128602000Y-73757142D01*
X128602000Y-73757142D02*
X128659142Y-73728571D01*
X128659142Y-73728571D02*
X128687714Y-73700000D01*
X128687714Y-73700000D02*
X128716285Y-73642857D01*
X128716285Y-73642857D02*
X128744857Y-73528571D01*
X128744857Y-73528571D02*
X128773428Y-73471428D01*
X128773428Y-73471428D02*
X128802000Y-73442857D01*
X128802000Y-73442857D02*
X128859142Y-73414285D01*
X128859142Y-73414285D02*
X128916285Y-73414285D01*
X128916285Y-73414285D02*
X128973428Y-73442857D01*
X128973428Y-73442857D02*
X129002000Y-73471428D01*
X129002000Y-73471428D02*
X129030571Y-73528571D01*
X129030571Y-73528571D02*
X129030571Y-73671428D01*
X129030571Y-73671428D02*
X129002000Y-73757142D01*
X144230571Y-72192857D02*
X144830571Y-72192857D01*
X144230571Y-72564285D02*
X144259142Y-72507142D01*
X144259142Y-72507142D02*
X144287714Y-72478571D01*
X144287714Y-72478571D02*
X144344857Y-72449999D01*
X144344857Y-72449999D02*
X144516285Y-72449999D01*
X144516285Y-72449999D02*
X144573428Y-72478571D01*
X144573428Y-72478571D02*
X144602000Y-72507142D01*
X144602000Y-72507142D02*
X144630571Y-72564285D01*
X144630571Y-72564285D02*
X144630571Y-72649999D01*
X144630571Y-72649999D02*
X144602000Y-72707142D01*
X144602000Y-72707142D02*
X144573428Y-72735714D01*
X144573428Y-72735714D02*
X144516285Y-72764285D01*
X144516285Y-72764285D02*
X144344857Y-72764285D01*
X144344857Y-72764285D02*
X144287714Y-72735714D01*
X144287714Y-72735714D02*
X144259142Y-72707142D01*
X144259142Y-72707142D02*
X144230571Y-72649999D01*
X144230571Y-72649999D02*
X144230571Y-72564285D01*
X144830571Y-72935713D02*
X144830571Y-73278571D01*
X144230571Y-73107142D02*
X144830571Y-73107142D01*
X151130571Y-76092857D02*
X151730571Y-76092857D01*
X151130571Y-76464285D02*
X151159142Y-76407142D01*
X151159142Y-76407142D02*
X151187714Y-76378571D01*
X151187714Y-76378571D02*
X151244857Y-76349999D01*
X151244857Y-76349999D02*
X151416285Y-76349999D01*
X151416285Y-76349999D02*
X151473428Y-76378571D01*
X151473428Y-76378571D02*
X151502000Y-76407142D01*
X151502000Y-76407142D02*
X151530571Y-76464285D01*
X151530571Y-76464285D02*
X151530571Y-76549999D01*
X151530571Y-76549999D02*
X151502000Y-76607142D01*
X151502000Y-76607142D02*
X151473428Y-76635714D01*
X151473428Y-76635714D02*
X151416285Y-76664285D01*
X151416285Y-76664285D02*
X151244857Y-76664285D01*
X151244857Y-76664285D02*
X151187714Y-76635714D01*
X151187714Y-76635714D02*
X151159142Y-76607142D01*
X151159142Y-76607142D02*
X151130571Y-76549999D01*
X151130571Y-76549999D02*
X151130571Y-76464285D01*
X151730571Y-76835713D02*
X151730571Y-77178571D01*
X151130571Y-77007142D02*
X151730571Y-77007142D01*
X151130571Y-78081428D02*
X151416285Y-77881428D01*
X151130571Y-77738571D02*
X151730571Y-77738571D01*
X151730571Y-77738571D02*
X151730571Y-77967142D01*
X151730571Y-77967142D02*
X151702000Y-78024285D01*
X151702000Y-78024285D02*
X151673428Y-78052856D01*
X151673428Y-78052856D02*
X151616285Y-78081428D01*
X151616285Y-78081428D02*
X151530571Y-78081428D01*
X151530571Y-78081428D02*
X151473428Y-78052856D01*
X151473428Y-78052856D02*
X151444857Y-78024285D01*
X151444857Y-78024285D02*
X151416285Y-77967142D01*
X151416285Y-77967142D02*
X151416285Y-77738571D01*
X151159142Y-78309999D02*
X151130571Y-78395714D01*
X151130571Y-78395714D02*
X151130571Y-78538571D01*
X151130571Y-78538571D02*
X151159142Y-78595714D01*
X151159142Y-78595714D02*
X151187714Y-78624285D01*
X151187714Y-78624285D02*
X151244857Y-78652856D01*
X151244857Y-78652856D02*
X151302000Y-78652856D01*
X151302000Y-78652856D02*
X151359142Y-78624285D01*
X151359142Y-78624285D02*
X151387714Y-78595714D01*
X151387714Y-78595714D02*
X151416285Y-78538571D01*
X151416285Y-78538571D02*
X151444857Y-78424285D01*
X151444857Y-78424285D02*
X151473428Y-78367142D01*
X151473428Y-78367142D02*
X151502000Y-78338571D01*
X151502000Y-78338571D02*
X151559142Y-78309999D01*
X151559142Y-78309999D02*
X151616285Y-78309999D01*
X151616285Y-78309999D02*
X151673428Y-78338571D01*
X151673428Y-78338571D02*
X151702000Y-78367142D01*
X151702000Y-78367142D02*
X151730571Y-78424285D01*
X151730571Y-78424285D02*
X151730571Y-78567142D01*
X151730571Y-78567142D02*
X151702000Y-78652856D01*
X151730571Y-78824285D02*
X151730571Y-79167143D01*
X151130571Y-78995714D02*
X151730571Y-78995714D01*
X168080571Y-72242857D02*
X168680571Y-72242857D01*
X168680571Y-72242857D02*
X168252000Y-72442857D01*
X168252000Y-72442857D02*
X168680571Y-72642857D01*
X168680571Y-72642857D02*
X168080571Y-72642857D01*
X168137714Y-73271428D02*
X168109142Y-73242856D01*
X168109142Y-73242856D02*
X168080571Y-73157142D01*
X168080571Y-73157142D02*
X168080571Y-73099999D01*
X168080571Y-73099999D02*
X168109142Y-73014285D01*
X168109142Y-73014285D02*
X168166285Y-72957142D01*
X168166285Y-72957142D02*
X168223428Y-72928571D01*
X168223428Y-72928571D02*
X168337714Y-72899999D01*
X168337714Y-72899999D02*
X168423428Y-72899999D01*
X168423428Y-72899999D02*
X168537714Y-72928571D01*
X168537714Y-72928571D02*
X168594857Y-72957142D01*
X168594857Y-72957142D02*
X168652000Y-73014285D01*
X168652000Y-73014285D02*
X168680571Y-73099999D01*
X168680571Y-73099999D02*
X168680571Y-73157142D01*
X168680571Y-73157142D02*
X168652000Y-73242856D01*
X168652000Y-73242856D02*
X168623428Y-73271428D01*
X168680571Y-73528571D02*
X168194857Y-73528571D01*
X168194857Y-73528571D02*
X168137714Y-73557142D01*
X168137714Y-73557142D02*
X168109142Y-73585714D01*
X168109142Y-73585714D02*
X168080571Y-73642856D01*
X168080571Y-73642856D02*
X168080571Y-73757142D01*
X168080571Y-73757142D02*
X168109142Y-73814285D01*
X168109142Y-73814285D02*
X168137714Y-73842856D01*
X168137714Y-73842856D02*
X168194857Y-73871428D01*
X168194857Y-73871428D02*
X168680571Y-73871428D01*
X168080571Y-74859999D02*
X168366285Y-74659999D01*
X168080571Y-74517142D02*
X168680571Y-74517142D01*
X168680571Y-74517142D02*
X168680571Y-74745713D01*
X168680571Y-74745713D02*
X168652000Y-74802856D01*
X168652000Y-74802856D02*
X168623428Y-74831427D01*
X168623428Y-74831427D02*
X168566285Y-74859999D01*
X168566285Y-74859999D02*
X168480571Y-74859999D01*
X168480571Y-74859999D02*
X168423428Y-74831427D01*
X168423428Y-74831427D02*
X168394857Y-74802856D01*
X168394857Y-74802856D02*
X168366285Y-74745713D01*
X168366285Y-74745713D02*
X168366285Y-74517142D01*
X168109142Y-75088570D02*
X168080571Y-75174285D01*
X168080571Y-75174285D02*
X168080571Y-75317142D01*
X168080571Y-75317142D02*
X168109142Y-75374285D01*
X168109142Y-75374285D02*
X168137714Y-75402856D01*
X168137714Y-75402856D02*
X168194857Y-75431427D01*
X168194857Y-75431427D02*
X168252000Y-75431427D01*
X168252000Y-75431427D02*
X168309142Y-75402856D01*
X168309142Y-75402856D02*
X168337714Y-75374285D01*
X168337714Y-75374285D02*
X168366285Y-75317142D01*
X168366285Y-75317142D02*
X168394857Y-75202856D01*
X168394857Y-75202856D02*
X168423428Y-75145713D01*
X168423428Y-75145713D02*
X168452000Y-75117142D01*
X168452000Y-75117142D02*
X168509142Y-75088570D01*
X168509142Y-75088570D02*
X168566285Y-75088570D01*
X168566285Y-75088570D02*
X168623428Y-75117142D01*
X168623428Y-75117142D02*
X168652000Y-75145713D01*
X168652000Y-75145713D02*
X168680571Y-75202856D01*
X168680571Y-75202856D02*
X168680571Y-75345713D01*
X168680571Y-75345713D02*
X168652000Y-75431427D01*
X168680571Y-75602856D02*
X168680571Y-75945714D01*
X168080571Y-75774285D02*
X168680571Y-75774285D01*
X152492857Y-118015142D02*
X152578571Y-118043714D01*
X152578571Y-118043714D02*
X152607142Y-118072285D01*
X152607142Y-118072285D02*
X152635714Y-118129428D01*
X152635714Y-118129428D02*
X152635714Y-118215142D01*
X152635714Y-118215142D02*
X152607142Y-118272285D01*
X152607142Y-118272285D02*
X152578571Y-118300857D01*
X152578571Y-118300857D02*
X152521428Y-118329428D01*
X152521428Y-118329428D02*
X152292857Y-118329428D01*
X152292857Y-118329428D02*
X152292857Y-117729428D01*
X152292857Y-117729428D02*
X152492857Y-117729428D01*
X152492857Y-117729428D02*
X152550000Y-117758000D01*
X152550000Y-117758000D02*
X152578571Y-117786571D01*
X152578571Y-117786571D02*
X152607142Y-117843714D01*
X152607142Y-117843714D02*
X152607142Y-117900857D01*
X152607142Y-117900857D02*
X152578571Y-117958000D01*
X152578571Y-117958000D02*
X152550000Y-117986571D01*
X152550000Y-117986571D02*
X152492857Y-118015142D01*
X152492857Y-118015142D02*
X152292857Y-118015142D01*
X153007142Y-117729428D02*
X153121428Y-117729428D01*
X153121428Y-117729428D02*
X153178571Y-117758000D01*
X153178571Y-117758000D02*
X153235714Y-117815142D01*
X153235714Y-117815142D02*
X153264285Y-117929428D01*
X153264285Y-117929428D02*
X153264285Y-118129428D01*
X153264285Y-118129428D02*
X153235714Y-118243714D01*
X153235714Y-118243714D02*
X153178571Y-118300857D01*
X153178571Y-118300857D02*
X153121428Y-118329428D01*
X153121428Y-118329428D02*
X153007142Y-118329428D01*
X153007142Y-118329428D02*
X152950000Y-118300857D01*
X152950000Y-118300857D02*
X152892857Y-118243714D01*
X152892857Y-118243714D02*
X152864285Y-118129428D01*
X152864285Y-118129428D02*
X152864285Y-117929428D01*
X152864285Y-117929428D02*
X152892857Y-117815142D01*
X152892857Y-117815142D02*
X152950000Y-117758000D01*
X152950000Y-117758000D02*
X153007142Y-117729428D01*
X153635713Y-117729428D02*
X153749999Y-117729428D01*
X153749999Y-117729428D02*
X153807142Y-117758000D01*
X153807142Y-117758000D02*
X153864285Y-117815142D01*
X153864285Y-117815142D02*
X153892856Y-117929428D01*
X153892856Y-117929428D02*
X153892856Y-118129428D01*
X153892856Y-118129428D02*
X153864285Y-118243714D01*
X153864285Y-118243714D02*
X153807142Y-118300857D01*
X153807142Y-118300857D02*
X153749999Y-118329428D01*
X153749999Y-118329428D02*
X153635713Y-118329428D01*
X153635713Y-118329428D02*
X153578571Y-118300857D01*
X153578571Y-118300857D02*
X153521428Y-118243714D01*
X153521428Y-118243714D02*
X153492856Y-118129428D01*
X153492856Y-118129428D02*
X153492856Y-117929428D01*
X153492856Y-117929428D02*
X153521428Y-117815142D01*
X153521428Y-117815142D02*
X153578571Y-117758000D01*
X153578571Y-117758000D02*
X153635713Y-117729428D01*
X154064284Y-117729428D02*
X154407142Y-117729428D01*
X154235713Y-118329428D02*
X154235713Y-117729428D01*
X154721427Y-117729428D02*
X154778570Y-117729428D01*
X154778570Y-117729428D02*
X154835713Y-117758000D01*
X154835713Y-117758000D02*
X154864285Y-117786571D01*
X154864285Y-117786571D02*
X154892856Y-117843714D01*
X154892856Y-117843714D02*
X154921427Y-117958000D01*
X154921427Y-117958000D02*
X154921427Y-118100857D01*
X154921427Y-118100857D02*
X154892856Y-118215142D01*
X154892856Y-118215142D02*
X154864285Y-118272285D01*
X154864285Y-118272285D02*
X154835713Y-118300857D01*
X154835713Y-118300857D02*
X154778570Y-118329428D01*
X154778570Y-118329428D02*
X154721427Y-118329428D01*
X154721427Y-118329428D02*
X154664285Y-118300857D01*
X154664285Y-118300857D02*
X154635713Y-118272285D01*
X154635713Y-118272285D02*
X154607142Y-118215142D01*
X154607142Y-118215142D02*
X154578570Y-118100857D01*
X154578570Y-118100857D02*
X154578570Y-117958000D01*
X154578570Y-117958000D02*
X154607142Y-117843714D01*
X154607142Y-117843714D02*
X154635713Y-117786571D01*
X154635713Y-117786571D02*
X154664285Y-117758000D01*
X154664285Y-117758000D02*
X154721427Y-117729428D01*
X156642857Y-72319428D02*
X156642857Y-71719428D01*
X156642857Y-71719428D02*
X156985714Y-72319428D01*
X156985714Y-72319428D02*
X156985714Y-71719428D01*
X157271428Y-72005142D02*
X157471428Y-72005142D01*
X157557142Y-72319428D02*
X157271428Y-72319428D01*
X157271428Y-72319428D02*
X157271428Y-71719428D01*
X157271428Y-71719428D02*
X157557142Y-71719428D01*
X157728570Y-71719428D02*
X158071428Y-71719428D01*
X157899999Y-72319428D02*
X157899999Y-71719428D01*
X130157142Y-107219428D02*
X130357142Y-107819428D01*
X130357142Y-107819428D02*
X130557142Y-107219428D01*
X131100000Y-107762285D02*
X131071428Y-107790857D01*
X131071428Y-107790857D02*
X130985714Y-107819428D01*
X130985714Y-107819428D02*
X130928571Y-107819428D01*
X130928571Y-107819428D02*
X130842857Y-107790857D01*
X130842857Y-107790857D02*
X130785714Y-107733714D01*
X130785714Y-107733714D02*
X130757143Y-107676571D01*
X130757143Y-107676571D02*
X130728571Y-107562285D01*
X130728571Y-107562285D02*
X130728571Y-107476571D01*
X130728571Y-107476571D02*
X130757143Y-107362285D01*
X130757143Y-107362285D02*
X130785714Y-107305142D01*
X130785714Y-107305142D02*
X130842857Y-107248000D01*
X130842857Y-107248000D02*
X130928571Y-107219428D01*
X130928571Y-107219428D02*
X130985714Y-107219428D01*
X130985714Y-107219428D02*
X131071428Y-107248000D01*
X131071428Y-107248000D02*
X131100000Y-107276571D01*
X131700000Y-107762285D02*
X131671428Y-107790857D01*
X131671428Y-107790857D02*
X131585714Y-107819428D01*
X131585714Y-107819428D02*
X131528571Y-107819428D01*
X131528571Y-107819428D02*
X131442857Y-107790857D01*
X131442857Y-107790857D02*
X131385714Y-107733714D01*
X131385714Y-107733714D02*
X131357143Y-107676571D01*
X131357143Y-107676571D02*
X131328571Y-107562285D01*
X131328571Y-107562285D02*
X131328571Y-107476571D01*
X131328571Y-107476571D02*
X131357143Y-107362285D01*
X131357143Y-107362285D02*
X131385714Y-107305142D01*
X131385714Y-107305142D02*
X131442857Y-107248000D01*
X131442857Y-107248000D02*
X131528571Y-107219428D01*
X131528571Y-107219428D02*
X131585714Y-107219428D01*
X131585714Y-107219428D02*
X131671428Y-107248000D01*
X131671428Y-107248000D02*
X131700000Y-107276571D01*
X150912714Y-108435714D02*
X150884142Y-108407142D01*
X150884142Y-108407142D02*
X150855571Y-108321428D01*
X150855571Y-108321428D02*
X150855571Y-108264285D01*
X150855571Y-108264285D02*
X150884142Y-108178571D01*
X150884142Y-108178571D02*
X150941285Y-108121428D01*
X150941285Y-108121428D02*
X150998428Y-108092857D01*
X150998428Y-108092857D02*
X151112714Y-108064285D01*
X151112714Y-108064285D02*
X151198428Y-108064285D01*
X151198428Y-108064285D02*
X151312714Y-108092857D01*
X151312714Y-108092857D02*
X151369857Y-108121428D01*
X151369857Y-108121428D02*
X151427000Y-108178571D01*
X151427000Y-108178571D02*
X151455571Y-108264285D01*
X151455571Y-108264285D02*
X151455571Y-108321428D01*
X151455571Y-108321428D02*
X151427000Y-108407142D01*
X151427000Y-108407142D02*
X151398428Y-108435714D01*
X150855571Y-108978571D02*
X150855571Y-108692857D01*
X150855571Y-108692857D02*
X151455571Y-108692857D01*
X150855571Y-109178571D02*
X151455571Y-109178571D01*
X150855571Y-109521428D02*
X151198428Y-109264285D01*
X151455571Y-109521428D02*
X151112714Y-109178571D01*
X144430571Y-105407142D02*
X143830571Y-105607142D01*
X143830571Y-105607142D02*
X144430571Y-105807142D01*
X143887714Y-106350000D02*
X143859142Y-106321428D01*
X143859142Y-106321428D02*
X143830571Y-106235714D01*
X143830571Y-106235714D02*
X143830571Y-106178571D01*
X143830571Y-106178571D02*
X143859142Y-106092857D01*
X143859142Y-106092857D02*
X143916285Y-106035714D01*
X143916285Y-106035714D02*
X143973428Y-106007143D01*
X143973428Y-106007143D02*
X144087714Y-105978571D01*
X144087714Y-105978571D02*
X144173428Y-105978571D01*
X144173428Y-105978571D02*
X144287714Y-106007143D01*
X144287714Y-106007143D02*
X144344857Y-106035714D01*
X144344857Y-106035714D02*
X144402000Y-106092857D01*
X144402000Y-106092857D02*
X144430571Y-106178571D01*
X144430571Y-106178571D02*
X144430571Y-106235714D01*
X144430571Y-106235714D02*
X144402000Y-106321428D01*
X144402000Y-106321428D02*
X144373428Y-106350000D01*
X143887714Y-106950000D02*
X143859142Y-106921428D01*
X143859142Y-106921428D02*
X143830571Y-106835714D01*
X143830571Y-106835714D02*
X143830571Y-106778571D01*
X143830571Y-106778571D02*
X143859142Y-106692857D01*
X143859142Y-106692857D02*
X143916285Y-106635714D01*
X143916285Y-106635714D02*
X143973428Y-106607143D01*
X143973428Y-106607143D02*
X144087714Y-106578571D01*
X144087714Y-106578571D02*
X144173428Y-106578571D01*
X144173428Y-106578571D02*
X144287714Y-106607143D01*
X144287714Y-106607143D02*
X144344857Y-106635714D01*
X144344857Y-106635714D02*
X144402000Y-106692857D01*
X144402000Y-106692857D02*
X144430571Y-106778571D01*
X144430571Y-106778571D02*
X144430571Y-106835714D01*
X144430571Y-106835714D02*
X144402000Y-106921428D01*
X144402000Y-106921428D02*
X144373428Y-106950000D01*
X144402000Y-113432142D02*
X144430571Y-113375000D01*
X144430571Y-113375000D02*
X144430571Y-113289285D01*
X144430571Y-113289285D02*
X144402000Y-113203571D01*
X144402000Y-113203571D02*
X144344857Y-113146428D01*
X144344857Y-113146428D02*
X144287714Y-113117857D01*
X144287714Y-113117857D02*
X144173428Y-113089285D01*
X144173428Y-113089285D02*
X144087714Y-113089285D01*
X144087714Y-113089285D02*
X143973428Y-113117857D01*
X143973428Y-113117857D02*
X143916285Y-113146428D01*
X143916285Y-113146428D02*
X143859142Y-113203571D01*
X143859142Y-113203571D02*
X143830571Y-113289285D01*
X143830571Y-113289285D02*
X143830571Y-113346428D01*
X143830571Y-113346428D02*
X143859142Y-113432142D01*
X143859142Y-113432142D02*
X143887714Y-113460714D01*
X143887714Y-113460714D02*
X144087714Y-113460714D01*
X144087714Y-113460714D02*
X144087714Y-113346428D01*
X143830571Y-113717857D02*
X144430571Y-113717857D01*
X144430571Y-113717857D02*
X143830571Y-114060714D01*
X143830571Y-114060714D02*
X144430571Y-114060714D01*
X143830571Y-114346428D02*
X144430571Y-114346428D01*
X144430571Y-114346428D02*
X144430571Y-114489285D01*
X144430571Y-114489285D02*
X144402000Y-114574999D01*
X144402000Y-114574999D02*
X144344857Y-114632142D01*
X144344857Y-114632142D02*
X144287714Y-114660713D01*
X144287714Y-114660713D02*
X144173428Y-114689285D01*
X144173428Y-114689285D02*
X144087714Y-114689285D01*
X144087714Y-114689285D02*
X143973428Y-114660713D01*
X143973428Y-114660713D02*
X143916285Y-114632142D01*
X143916285Y-114632142D02*
X143859142Y-114574999D01*
X143859142Y-114574999D02*
X143830571Y-114489285D01*
X143830571Y-114489285D02*
X143830571Y-114346428D01*
X136157142Y-107509142D02*
X135700000Y-107509142D01*
X135928571Y-107280571D02*
X135928571Y-107737714D01*
X133614285Y-107509142D02*
X133157143Y-107509142D01*
X143830571Y-110242857D02*
X144430571Y-110242857D01*
X144430571Y-110242857D02*
X144430571Y-110385714D01*
X144430571Y-110385714D02*
X144402000Y-110471428D01*
X144402000Y-110471428D02*
X144344857Y-110528571D01*
X144344857Y-110528571D02*
X144287714Y-110557142D01*
X144287714Y-110557142D02*
X144173428Y-110585714D01*
X144173428Y-110585714D02*
X144087714Y-110585714D01*
X144087714Y-110585714D02*
X143973428Y-110557142D01*
X143973428Y-110557142D02*
X143916285Y-110528571D01*
X143916285Y-110528571D02*
X143859142Y-110471428D01*
X143859142Y-110471428D02*
X143830571Y-110385714D01*
X143830571Y-110385714D02*
X143830571Y-110242857D01*
X144059142Y-110842857D02*
X144059142Y-111300000D01*
X144430571Y-111499999D02*
X144430571Y-111842857D01*
X143830571Y-111671428D02*
X144430571Y-111671428D01*
X144430571Y-111985714D02*
X143830571Y-112385714D01*
X144430571Y-112385714D02*
X143830571Y-111985714D01*
X137742857Y-117619428D02*
X137742857Y-117019428D01*
X137742857Y-117019428D02*
X137971428Y-117019428D01*
X137971428Y-117019428D02*
X138028571Y-117048000D01*
X138028571Y-117048000D02*
X138057142Y-117076571D01*
X138057142Y-117076571D02*
X138085714Y-117133714D01*
X138085714Y-117133714D02*
X138085714Y-117219428D01*
X138085714Y-117219428D02*
X138057142Y-117276571D01*
X138057142Y-117276571D02*
X138028571Y-117305142D01*
X138028571Y-117305142D02*
X137971428Y-117333714D01*
X137971428Y-117333714D02*
X137742857Y-117333714D01*
X138342857Y-117619428D02*
X138342857Y-117019428D01*
X138342857Y-117305142D02*
X138685714Y-117305142D01*
X138685714Y-117619428D02*
X138685714Y-117019428D01*
X139085713Y-117333714D02*
X139085713Y-117619428D01*
X138885713Y-117019428D02*
X139085713Y-117333714D01*
X139085713Y-117333714D02*
X139285713Y-117019428D01*
X143830571Y-107542857D02*
X144430571Y-107542857D01*
X144430571Y-107542857D02*
X144430571Y-107685714D01*
X144430571Y-107685714D02*
X144402000Y-107771428D01*
X144402000Y-107771428D02*
X144344857Y-107828571D01*
X144344857Y-107828571D02*
X144287714Y-107857142D01*
X144287714Y-107857142D02*
X144173428Y-107885714D01*
X144173428Y-107885714D02*
X144087714Y-107885714D01*
X144087714Y-107885714D02*
X143973428Y-107857142D01*
X143973428Y-107857142D02*
X143916285Y-107828571D01*
X143916285Y-107828571D02*
X143859142Y-107771428D01*
X143859142Y-107771428D02*
X143830571Y-107685714D01*
X143830571Y-107685714D02*
X143830571Y-107542857D01*
X144059142Y-108142857D02*
X144059142Y-108600000D01*
X143830571Y-109228571D02*
X144116285Y-109028571D01*
X143830571Y-108885714D02*
X144430571Y-108885714D01*
X144430571Y-108885714D02*
X144430571Y-109114285D01*
X144430571Y-109114285D02*
X144402000Y-109171428D01*
X144402000Y-109171428D02*
X144373428Y-109199999D01*
X144373428Y-109199999D02*
X144316285Y-109228571D01*
X144316285Y-109228571D02*
X144230571Y-109228571D01*
X144230571Y-109228571D02*
X144173428Y-109199999D01*
X144173428Y-109199999D02*
X144144857Y-109171428D01*
X144144857Y-109171428D02*
X144116285Y-109114285D01*
X144116285Y-109114285D02*
X144116285Y-108885714D01*
X144430571Y-109428571D02*
X143830571Y-109828571D01*
X144430571Y-109828571D02*
X143830571Y-109428571D01*
X151427000Y-115957142D02*
X151455571Y-115900000D01*
X151455571Y-115900000D02*
X151455571Y-115814285D01*
X151455571Y-115814285D02*
X151427000Y-115728571D01*
X151427000Y-115728571D02*
X151369857Y-115671428D01*
X151369857Y-115671428D02*
X151312714Y-115642857D01*
X151312714Y-115642857D02*
X151198428Y-115614285D01*
X151198428Y-115614285D02*
X151112714Y-115614285D01*
X151112714Y-115614285D02*
X150998428Y-115642857D01*
X150998428Y-115642857D02*
X150941285Y-115671428D01*
X150941285Y-115671428D02*
X150884142Y-115728571D01*
X150884142Y-115728571D02*
X150855571Y-115814285D01*
X150855571Y-115814285D02*
X150855571Y-115871428D01*
X150855571Y-115871428D02*
X150884142Y-115957142D01*
X150884142Y-115957142D02*
X150912714Y-115985714D01*
X150912714Y-115985714D02*
X151112714Y-115985714D01*
X151112714Y-115985714D02*
X151112714Y-115871428D01*
X150855571Y-116242857D02*
X151455571Y-116242857D01*
X151455571Y-116242857D02*
X150855571Y-116585714D01*
X150855571Y-116585714D02*
X151455571Y-116585714D01*
X150855571Y-116871428D02*
X151455571Y-116871428D01*
X151455571Y-116871428D02*
X151455571Y-117014285D01*
X151455571Y-117014285D02*
X151427000Y-117099999D01*
X151427000Y-117099999D02*
X151369857Y-117157142D01*
X151369857Y-117157142D02*
X151312714Y-117185713D01*
X151312714Y-117185713D02*
X151198428Y-117214285D01*
X151198428Y-117214285D02*
X151112714Y-117214285D01*
X151112714Y-117214285D02*
X150998428Y-117185713D01*
X150998428Y-117185713D02*
X150941285Y-117157142D01*
X150941285Y-117157142D02*
X150884142Y-117099999D01*
X150884142Y-117099999D02*
X150855571Y-117014285D01*
X150855571Y-117014285D02*
X150855571Y-116871428D01*
X150855571Y-112892857D02*
X151455571Y-112892857D01*
X151455571Y-112892857D02*
X150855571Y-113235714D01*
X150855571Y-113235714D02*
X151455571Y-113235714D01*
X150855571Y-113864285D02*
X151141285Y-113664285D01*
X150855571Y-113521428D02*
X151455571Y-113521428D01*
X151455571Y-113521428D02*
X151455571Y-113749999D01*
X151455571Y-113749999D02*
X151427000Y-113807142D01*
X151427000Y-113807142D02*
X151398428Y-113835713D01*
X151398428Y-113835713D02*
X151341285Y-113864285D01*
X151341285Y-113864285D02*
X151255571Y-113864285D01*
X151255571Y-113864285D02*
X151198428Y-113835713D01*
X151198428Y-113835713D02*
X151169857Y-113807142D01*
X151169857Y-113807142D02*
X151141285Y-113749999D01*
X151141285Y-113749999D02*
X151141285Y-113521428D01*
X150884142Y-114092856D02*
X150855571Y-114178571D01*
X150855571Y-114178571D02*
X150855571Y-114321428D01*
X150855571Y-114321428D02*
X150884142Y-114378571D01*
X150884142Y-114378571D02*
X150912714Y-114407142D01*
X150912714Y-114407142D02*
X150969857Y-114435713D01*
X150969857Y-114435713D02*
X151027000Y-114435713D01*
X151027000Y-114435713D02*
X151084142Y-114407142D01*
X151084142Y-114407142D02*
X151112714Y-114378571D01*
X151112714Y-114378571D02*
X151141285Y-114321428D01*
X151141285Y-114321428D02*
X151169857Y-114207142D01*
X151169857Y-114207142D02*
X151198428Y-114149999D01*
X151198428Y-114149999D02*
X151227000Y-114121428D01*
X151227000Y-114121428D02*
X151284142Y-114092856D01*
X151284142Y-114092856D02*
X151341285Y-114092856D01*
X151341285Y-114092856D02*
X151398428Y-114121428D01*
X151398428Y-114121428D02*
X151427000Y-114149999D01*
X151427000Y-114149999D02*
X151455571Y-114207142D01*
X151455571Y-114207142D02*
X151455571Y-114349999D01*
X151455571Y-114349999D02*
X151427000Y-114435713D01*
X151455571Y-114607142D02*
X151455571Y-114950000D01*
X150855571Y-114778571D02*
X151455571Y-114778571D01*
X150884142Y-104964285D02*
X150855571Y-105050000D01*
X150855571Y-105050000D02*
X150855571Y-105192857D01*
X150855571Y-105192857D02*
X150884142Y-105250000D01*
X150884142Y-105250000D02*
X150912714Y-105278571D01*
X150912714Y-105278571D02*
X150969857Y-105307142D01*
X150969857Y-105307142D02*
X151027000Y-105307142D01*
X151027000Y-105307142D02*
X151084142Y-105278571D01*
X151084142Y-105278571D02*
X151112714Y-105250000D01*
X151112714Y-105250000D02*
X151141285Y-105192857D01*
X151141285Y-105192857D02*
X151169857Y-105078571D01*
X151169857Y-105078571D02*
X151198428Y-105021428D01*
X151198428Y-105021428D02*
X151227000Y-104992857D01*
X151227000Y-104992857D02*
X151284142Y-104964285D01*
X151284142Y-104964285D02*
X151341285Y-104964285D01*
X151341285Y-104964285D02*
X151398428Y-104992857D01*
X151398428Y-104992857D02*
X151427000Y-105021428D01*
X151427000Y-105021428D02*
X151455571Y-105078571D01*
X151455571Y-105078571D02*
X151455571Y-105221428D01*
X151455571Y-105221428D02*
X151427000Y-105307142D01*
X151455571Y-105507143D02*
X150855571Y-105650000D01*
X150855571Y-105650000D02*
X151284142Y-105764286D01*
X151284142Y-105764286D02*
X150855571Y-105878571D01*
X150855571Y-105878571D02*
X151455571Y-106021429D01*
X150855571Y-106250000D02*
X151455571Y-106250000D01*
X151455571Y-106250000D02*
X151455571Y-106392857D01*
X151455571Y-106392857D02*
X151427000Y-106478571D01*
X151427000Y-106478571D02*
X151369857Y-106535714D01*
X151369857Y-106535714D02*
X151312714Y-106564285D01*
X151312714Y-106564285D02*
X151198428Y-106592857D01*
X151198428Y-106592857D02*
X151112714Y-106592857D01*
X151112714Y-106592857D02*
X150998428Y-106564285D01*
X150998428Y-106564285D02*
X150941285Y-106535714D01*
X150941285Y-106535714D02*
X150884142Y-106478571D01*
X150884142Y-106478571D02*
X150855571Y-106392857D01*
X150855571Y-106392857D02*
X150855571Y-106250000D01*
X150855571Y-106850000D02*
X151455571Y-106850000D01*
X151455571Y-107249999D02*
X151455571Y-107364285D01*
X151455571Y-107364285D02*
X151427000Y-107421428D01*
X151427000Y-107421428D02*
X151369857Y-107478571D01*
X151369857Y-107478571D02*
X151255571Y-107507142D01*
X151255571Y-107507142D02*
X151055571Y-107507142D01*
X151055571Y-107507142D02*
X150941285Y-107478571D01*
X150941285Y-107478571D02*
X150884142Y-107421428D01*
X150884142Y-107421428D02*
X150855571Y-107364285D01*
X150855571Y-107364285D02*
X150855571Y-107249999D01*
X150855571Y-107249999D02*
X150884142Y-107192857D01*
X150884142Y-107192857D02*
X150941285Y-107135714D01*
X150941285Y-107135714D02*
X151055571Y-107107142D01*
X151055571Y-107107142D02*
X151255571Y-107107142D01*
X151255571Y-107107142D02*
X151369857Y-107135714D01*
X151369857Y-107135714D02*
X151427000Y-107192857D01*
X151427000Y-107192857D02*
X151455571Y-107249999D01*
X150884142Y-110514285D02*
X150855571Y-110600000D01*
X150855571Y-110600000D02*
X150855571Y-110742857D01*
X150855571Y-110742857D02*
X150884142Y-110800000D01*
X150884142Y-110800000D02*
X150912714Y-110828571D01*
X150912714Y-110828571D02*
X150969857Y-110857142D01*
X150969857Y-110857142D02*
X151027000Y-110857142D01*
X151027000Y-110857142D02*
X151084142Y-110828571D01*
X151084142Y-110828571D02*
X151112714Y-110800000D01*
X151112714Y-110800000D02*
X151141285Y-110742857D01*
X151141285Y-110742857D02*
X151169857Y-110628571D01*
X151169857Y-110628571D02*
X151198428Y-110571428D01*
X151198428Y-110571428D02*
X151227000Y-110542857D01*
X151227000Y-110542857D02*
X151284142Y-110514285D01*
X151284142Y-110514285D02*
X151341285Y-110514285D01*
X151341285Y-110514285D02*
X151398428Y-110542857D01*
X151398428Y-110542857D02*
X151427000Y-110571428D01*
X151427000Y-110571428D02*
X151455571Y-110628571D01*
X151455571Y-110628571D02*
X151455571Y-110771428D01*
X151455571Y-110771428D02*
X151427000Y-110857142D01*
X151455571Y-111057143D02*
X150855571Y-111200000D01*
X150855571Y-111200000D02*
X151284142Y-111314286D01*
X151284142Y-111314286D02*
X150855571Y-111428571D01*
X150855571Y-111428571D02*
X151455571Y-111571429D01*
X151455571Y-111914285D02*
X151455571Y-112028571D01*
X151455571Y-112028571D02*
X151427000Y-112085714D01*
X151427000Y-112085714D02*
X151369857Y-112142857D01*
X151369857Y-112142857D02*
X151255571Y-112171428D01*
X151255571Y-112171428D02*
X151055571Y-112171428D01*
X151055571Y-112171428D02*
X150941285Y-112142857D01*
X150941285Y-112142857D02*
X150884142Y-112085714D01*
X150884142Y-112085714D02*
X150855571Y-112028571D01*
X150855571Y-112028571D02*
X150855571Y-111914285D01*
X150855571Y-111914285D02*
X150884142Y-111857143D01*
X150884142Y-111857143D02*
X150941285Y-111800000D01*
X150941285Y-111800000D02*
X151055571Y-111771428D01*
X151055571Y-111771428D02*
X151255571Y-111771428D01*
X151255571Y-111771428D02*
X151369857Y-111800000D01*
X151369857Y-111800000D02*
X151427000Y-111857143D01*
X151427000Y-111857143D02*
X151455571Y-111914285D01*
X138032142Y-107248000D02*
X137975000Y-107219428D01*
X137975000Y-107219428D02*
X137889285Y-107219428D01*
X137889285Y-107219428D02*
X137803571Y-107248000D01*
X137803571Y-107248000D02*
X137746428Y-107305142D01*
X137746428Y-107305142D02*
X137717857Y-107362285D01*
X137717857Y-107362285D02*
X137689285Y-107476571D01*
X137689285Y-107476571D02*
X137689285Y-107562285D01*
X137689285Y-107562285D02*
X137717857Y-107676571D01*
X137717857Y-107676571D02*
X137746428Y-107733714D01*
X137746428Y-107733714D02*
X137803571Y-107790857D01*
X137803571Y-107790857D02*
X137889285Y-107819428D01*
X137889285Y-107819428D02*
X137946428Y-107819428D01*
X137946428Y-107819428D02*
X138032142Y-107790857D01*
X138032142Y-107790857D02*
X138060714Y-107762285D01*
X138060714Y-107762285D02*
X138060714Y-107562285D01*
X138060714Y-107562285D02*
X137946428Y-107562285D01*
X138317857Y-107819428D02*
X138317857Y-107219428D01*
X138317857Y-107219428D02*
X138660714Y-107819428D01*
X138660714Y-107819428D02*
X138660714Y-107219428D01*
X138946428Y-107819428D02*
X138946428Y-107219428D01*
X138946428Y-107219428D02*
X139089285Y-107219428D01*
X139089285Y-107219428D02*
X139174999Y-107248000D01*
X139174999Y-107248000D02*
X139232142Y-107305142D01*
X139232142Y-107305142D02*
X139260713Y-107362285D01*
X139260713Y-107362285D02*
X139289285Y-107476571D01*
X139289285Y-107476571D02*
X139289285Y-107562285D01*
X139289285Y-107562285D02*
X139260713Y-107676571D01*
X139260713Y-107676571D02*
X139232142Y-107733714D01*
X139232142Y-107733714D02*
X139174999Y-107790857D01*
X139174999Y-107790857D02*
X139089285Y-107819428D01*
X139089285Y-107819428D02*
X138946428Y-107819428D01*
X144402000Y-115957142D02*
X144430571Y-115900000D01*
X144430571Y-115900000D02*
X144430571Y-115814285D01*
X144430571Y-115814285D02*
X144402000Y-115728571D01*
X144402000Y-115728571D02*
X144344857Y-115671428D01*
X144344857Y-115671428D02*
X144287714Y-115642857D01*
X144287714Y-115642857D02*
X144173428Y-115614285D01*
X144173428Y-115614285D02*
X144087714Y-115614285D01*
X144087714Y-115614285D02*
X143973428Y-115642857D01*
X143973428Y-115642857D02*
X143916285Y-115671428D01*
X143916285Y-115671428D02*
X143859142Y-115728571D01*
X143859142Y-115728571D02*
X143830571Y-115814285D01*
X143830571Y-115814285D02*
X143830571Y-115871428D01*
X143830571Y-115871428D02*
X143859142Y-115957142D01*
X143859142Y-115957142D02*
X143887714Y-115985714D01*
X143887714Y-115985714D02*
X144087714Y-115985714D01*
X144087714Y-115985714D02*
X144087714Y-115871428D01*
X143830571Y-116242857D02*
X144430571Y-116242857D01*
X144430571Y-116242857D02*
X143830571Y-116585714D01*
X143830571Y-116585714D02*
X144430571Y-116585714D01*
X143830571Y-116871428D02*
X144430571Y-116871428D01*
X144430571Y-116871428D02*
X144430571Y-117014285D01*
X144430571Y-117014285D02*
X144402000Y-117099999D01*
X144402000Y-117099999D02*
X144344857Y-117157142D01*
X144344857Y-117157142D02*
X144287714Y-117185713D01*
X144287714Y-117185713D02*
X144173428Y-117214285D01*
X144173428Y-117214285D02*
X144087714Y-117214285D01*
X144087714Y-117214285D02*
X143973428Y-117185713D01*
X143973428Y-117185713D02*
X143916285Y-117157142D01*
X143916285Y-117157142D02*
X143859142Y-117099999D01*
X143859142Y-117099999D02*
X143830571Y-117014285D01*
X143830571Y-117014285D02*
X143830571Y-116871428D01*
X130042857Y-117305142D02*
X130128571Y-117333714D01*
X130128571Y-117333714D02*
X130157142Y-117362285D01*
X130157142Y-117362285D02*
X130185714Y-117419428D01*
X130185714Y-117419428D02*
X130185714Y-117505142D01*
X130185714Y-117505142D02*
X130157142Y-117562285D01*
X130157142Y-117562285D02*
X130128571Y-117590857D01*
X130128571Y-117590857D02*
X130071428Y-117619428D01*
X130071428Y-117619428D02*
X129842857Y-117619428D01*
X129842857Y-117619428D02*
X129842857Y-117019428D01*
X129842857Y-117019428D02*
X130042857Y-117019428D01*
X130042857Y-117019428D02*
X130100000Y-117048000D01*
X130100000Y-117048000D02*
X130128571Y-117076571D01*
X130128571Y-117076571D02*
X130157142Y-117133714D01*
X130157142Y-117133714D02*
X130157142Y-117190857D01*
X130157142Y-117190857D02*
X130128571Y-117248000D01*
X130128571Y-117248000D02*
X130100000Y-117276571D01*
X130100000Y-117276571D02*
X130042857Y-117305142D01*
X130042857Y-117305142D02*
X129842857Y-117305142D01*
X130557142Y-117019428D02*
X130671428Y-117019428D01*
X130671428Y-117019428D02*
X130728571Y-117048000D01*
X130728571Y-117048000D02*
X130785714Y-117105142D01*
X130785714Y-117105142D02*
X130814285Y-117219428D01*
X130814285Y-117219428D02*
X130814285Y-117419428D01*
X130814285Y-117419428D02*
X130785714Y-117533714D01*
X130785714Y-117533714D02*
X130728571Y-117590857D01*
X130728571Y-117590857D02*
X130671428Y-117619428D01*
X130671428Y-117619428D02*
X130557142Y-117619428D01*
X130557142Y-117619428D02*
X130500000Y-117590857D01*
X130500000Y-117590857D02*
X130442857Y-117533714D01*
X130442857Y-117533714D02*
X130414285Y-117419428D01*
X130414285Y-117419428D02*
X130414285Y-117219428D01*
X130414285Y-117219428D02*
X130442857Y-117105142D01*
X130442857Y-117105142D02*
X130500000Y-117048000D01*
X130500000Y-117048000D02*
X130557142Y-117019428D01*
X131185713Y-117019428D02*
X131299999Y-117019428D01*
X131299999Y-117019428D02*
X131357142Y-117048000D01*
X131357142Y-117048000D02*
X131414285Y-117105142D01*
X131414285Y-117105142D02*
X131442856Y-117219428D01*
X131442856Y-117219428D02*
X131442856Y-117419428D01*
X131442856Y-117419428D02*
X131414285Y-117533714D01*
X131414285Y-117533714D02*
X131357142Y-117590857D01*
X131357142Y-117590857D02*
X131299999Y-117619428D01*
X131299999Y-117619428D02*
X131185713Y-117619428D01*
X131185713Y-117619428D02*
X131128571Y-117590857D01*
X131128571Y-117590857D02*
X131071428Y-117533714D01*
X131071428Y-117533714D02*
X131042856Y-117419428D01*
X131042856Y-117419428D02*
X131042856Y-117219428D01*
X131042856Y-117219428D02*
X131071428Y-117105142D01*
X131071428Y-117105142D02*
X131128571Y-117048000D01*
X131128571Y-117048000D02*
X131185713Y-117019428D01*
X131614284Y-117019428D02*
X131957142Y-117019428D01*
X131785713Y-117619428D02*
X131785713Y-117019428D01*
%TO.C,G\u002A\u002A\u002A*%
G36*
X167452634Y-104252496D02*
G01*
X167452634Y-105747642D01*
X165952496Y-105747642D01*
X164452359Y-105747642D01*
X164452359Y-104252496D01*
X164452359Y-103211584D01*
X164936596Y-103211584D01*
X164936596Y-103381342D01*
X164936596Y-103551101D01*
X165398369Y-103551101D01*
X165860142Y-103551101D01*
X165860142Y-104398932D01*
X165860161Y-104490185D01*
X165860219Y-104578741D01*
X165860312Y-104664086D01*
X165860439Y-104745703D01*
X165860598Y-104823076D01*
X165860787Y-104895692D01*
X165861004Y-104963033D01*
X165861245Y-105024584D01*
X165861511Y-105079829D01*
X165861798Y-105128254D01*
X165862104Y-105169342D01*
X165862428Y-105202577D01*
X165862767Y-105227445D01*
X165863120Y-105243429D01*
X165863483Y-105250015D01*
X165863533Y-105250155D01*
X165869152Y-105250914D01*
X165883587Y-105251539D01*
X165905673Y-105252016D01*
X165934242Y-105252332D01*
X165968129Y-105252473D01*
X166006167Y-105252425D01*
X166039506Y-105252235D01*
X166212087Y-105250924D01*
X166214583Y-104636783D01*
X166217079Y-104022643D01*
X166233689Y-103988905D01*
X166246052Y-103967568D01*
X166261587Y-103945832D01*
X166274805Y-103930662D01*
X166299893Y-103910045D01*
X166331067Y-103891053D01*
X166364436Y-103875727D01*
X166396111Y-103866111D01*
X166398726Y-103865599D01*
X166409497Y-103864545D01*
X166429420Y-103863586D01*
X166457664Y-103862736D01*
X166493397Y-103862009D01*
X166535787Y-103861419D01*
X166584004Y-103860981D01*
X166637214Y-103860707D01*
X166694510Y-103860613D01*
X166963404Y-103860613D01*
X166963404Y-103705857D01*
X166963404Y-103551101D01*
X166414335Y-103551101D01*
X165865266Y-103551101D01*
X165863952Y-103382616D01*
X165862638Y-103214131D01*
X165399617Y-103212857D01*
X164936596Y-103211584D01*
X164452359Y-103211584D01*
X164452359Y-102757351D01*
X165952496Y-102757351D01*
X167452634Y-102757351D01*
X167452634Y-104252496D01*
G37*
D12*
%TO.C,R19*%
X151853641Y-73330000D02*
X151546359Y-73330000D01*
X151853641Y-72570000D02*
X151546359Y-72570000D01*
%TO.C,R18*%
X150845000Y-74853641D02*
X150845000Y-74546359D01*
X151605000Y-74853641D02*
X151605000Y-74546359D01*
%TO.C,R17*%
X157296359Y-72945000D02*
X157603641Y-72945000D01*
X157296359Y-73705000D02*
X157603641Y-73705000D01*
%TO.C,D2*%
X153950000Y-72735000D02*
X156235000Y-72735000D01*
X156235000Y-71265000D02*
X153950000Y-71265000D01*
X156235000Y-72735000D02*
X156235000Y-71265000D01*
%TO.C,C4*%
X152027164Y-84615001D02*
X152242836Y-84615001D01*
X152027164Y-85335001D02*
X152242836Y-85335001D01*
%TO.C,C23*%
X146810000Y-91912164D02*
X146810000Y-92127836D01*
X146090000Y-91912164D02*
X146090000Y-92127836D01*
%TO.C,C18*%
X165767836Y-91810001D02*
X165552164Y-91810001D01*
X165767836Y-91090001D02*
X165552164Y-91090001D01*
%TO.C,U6*%
X155530000Y-105210000D02*
X155530000Y-102050000D01*
X155530000Y-105210000D02*
X154600000Y-105210000D01*
X152370000Y-105210000D02*
X152370000Y-103750000D01*
X152370000Y-105210000D02*
X153300000Y-105210000D01*
%TO.C,C9*%
X159545000Y-81509166D02*
X159545000Y-81740836D01*
X158825000Y-81509166D02*
X158825000Y-81740836D01*
%TO.C,R8*%
X161453641Y-100130000D02*
X161146359Y-100130000D01*
X161453641Y-99370000D02*
X161146359Y-99370000D01*
%TO.C,C10*%
X153040000Y-81790837D02*
X153040000Y-81559167D01*
X153760000Y-81790837D02*
X153760000Y-81559167D01*
%TO.C,C1*%
X160990000Y-85890580D02*
X160990000Y-85609420D01*
X162010000Y-85890580D02*
X162010000Y-85609420D01*
%TO.C,L1*%
X165900000Y-118050000D02*
X172600000Y-118050000D01*
X172600000Y-118050000D02*
X172600000Y-111350000D01*
X172600000Y-111350000D02*
X165900000Y-111350000D01*
X165900000Y-111350000D02*
X165900000Y-118050000D01*
%TO.C,C19*%
X167700000Y-78965836D02*
X167700000Y-78734166D01*
X168420000Y-78965836D02*
X168420000Y-78734166D01*
%TO.C,AE1*%
X139160000Y-73910001D02*
X139800000Y-73910001D01*
X139800000Y-73910001D02*
X139800000Y-74540001D01*
X141960000Y-73910001D02*
X141320000Y-73910001D01*
X139210000Y-71190001D02*
X141910000Y-71190001D01*
%TO.C,C2*%
X161895000Y-88542165D02*
X161895000Y-88757837D01*
X161175000Y-88542165D02*
X161175000Y-88757837D01*
%TO.C,R30*%
X138340000Y-97146360D02*
X138340000Y-97453642D01*
X137580000Y-97146360D02*
X137580000Y-97453642D01*
%TO.C,R2*%
X156220000Y-111367621D02*
X156220000Y-111032379D01*
X156980000Y-111367621D02*
X156980000Y-111032379D01*
%TO.C,C7*%
X146425000Y-96182837D02*
X146425000Y-95967165D01*
X147145000Y-96182837D02*
X147145000Y-95967165D01*
%TO.C,D9*%
X136407500Y-118075000D02*
X136407500Y-117275000D01*
X135047500Y-118075000D02*
X136407500Y-118075000D01*
X135047500Y-117275000D02*
X136407500Y-117275000D01*
%TO.C,D1*%
X163850000Y-80250001D02*
X163850000Y-81925001D01*
X163850000Y-80250001D02*
X163850000Y-79600001D01*
X166970000Y-80250001D02*
X166970000Y-80900001D01*
X166970000Y-80250001D02*
X166970000Y-79600001D01*
%TO.C,R35*%
X133140000Y-97146360D02*
X133140000Y-97453642D01*
X132380000Y-97146360D02*
X132380000Y-97453642D01*
%TO.C,C38*%
X140177836Y-80160000D02*
X139962164Y-80160000D01*
X140177836Y-79440000D02*
X139962164Y-79440000D01*
%TO.C,R38*%
X140170000Y-78053641D02*
X140170000Y-77746359D01*
X140930000Y-78053641D02*
X140930000Y-77746359D01*
%TO.C,J2*%
X139270000Y-108310000D02*
X139270000Y-109750000D01*
X139840000Y-109750000D02*
X139270000Y-109750000D01*
X139840000Y-109750000D02*
X139840000Y-114950000D01*
X137750000Y-109750000D02*
X136730000Y-109750000D01*
X135210000Y-109750000D02*
X134190000Y-109750000D01*
X132670000Y-109750000D02*
X131650000Y-109750000D01*
X130130000Y-109750000D02*
X129560000Y-109750000D01*
X129560000Y-109750000D02*
X129560000Y-114950000D01*
X139840000Y-114950000D02*
X139270000Y-114950000D01*
X137750000Y-114950000D02*
X136730000Y-114950000D01*
X135210000Y-114950000D02*
X134190000Y-114950000D01*
X132670000Y-114950000D02*
X131650000Y-114950000D01*
X130130000Y-114950000D02*
X129560000Y-114950000D01*
%TO.C,R36*%
X134440000Y-97146360D02*
X134440000Y-97453642D01*
X133680000Y-97146360D02*
X133680000Y-97453642D01*
%TO.C,SW3*%
X153250000Y-75100000D02*
X153250000Y-77900000D01*
X154400000Y-73950000D02*
X157200000Y-73950000D01*
X154400000Y-79050000D02*
X157200000Y-79050000D01*
X158350000Y-75100000D02*
X158350000Y-77900000D01*
%TO.C,C41*%
X133097164Y-75690001D02*
X133312836Y-75690001D01*
X133097164Y-76410001D02*
X133312836Y-76410001D01*
%TO.C,R39*%
X132370000Y-77953641D02*
X132370000Y-77646359D01*
X133130000Y-77953641D02*
X133130000Y-77646359D01*
D13*
%TO.C,J7*%
X175910000Y-74730000D02*
X171910000Y-74730000D01*
X175910000Y-74730000D02*
X175910000Y-102370000D01*
X170340000Y-101050000D02*
X170340000Y-76050000D01*
X175910000Y-102370000D02*
X171910000Y-102370000D01*
D12*
%TO.C,R7*%
X167406359Y-97780001D02*
X167713641Y-97780001D01*
X167406359Y-98540001D02*
X167713641Y-98540001D01*
%TO.C,R32*%
X137080000Y-99546359D02*
X137080000Y-99853641D01*
X136320000Y-99546359D02*
X136320000Y-99853641D01*
%TO.C,R4*%
X167680000Y-81553642D02*
X167680000Y-81246360D01*
X168440000Y-81553642D02*
X168440000Y-81246360D01*
%TO.C,R34*%
X129156359Y-97610001D02*
X129463641Y-97610001D01*
X129156359Y-98370001D02*
X129463641Y-98370001D01*
%TO.C,C14*%
X162117836Y-110360001D02*
X161902164Y-110360001D01*
X162117836Y-109640001D02*
X161902164Y-109640001D01*
%TO.C,AE2*%
X131335000Y-73915001D02*
X131975000Y-73915001D01*
X131975000Y-73915001D02*
X131975000Y-74545001D01*
X134135000Y-73915001D02*
X133495000Y-73915001D01*
X131385000Y-71195001D02*
X134085000Y-71195001D01*
%TO.C,R9*%
X167430000Y-100046359D02*
X167430000Y-100353641D01*
X166670000Y-100046359D02*
X166670000Y-100353641D01*
%TO.C,C37*%
X129417836Y-97060001D02*
X129202164Y-97060001D01*
X129417836Y-96340001D02*
X129202164Y-96340001D01*
%TO.C,C13*%
X168910000Y-106909420D02*
X168910000Y-107190580D01*
X167890000Y-106909420D02*
X167890000Y-107190580D01*
%TO.C,D7*%
X131990000Y-105150000D02*
X131990000Y-106825000D01*
X131990000Y-105150000D02*
X131990000Y-104500000D01*
X135110000Y-105150000D02*
X135110000Y-105800000D01*
X135110000Y-105150000D02*
X135110000Y-104500000D01*
%TO.C,C16*%
X159915000Y-116261252D02*
X159915000Y-115738748D01*
X161385000Y-116261252D02*
X161385000Y-115738748D01*
%TO.C,R33*%
X131340000Y-98386360D02*
X131340000Y-98693642D01*
X130580000Y-98386360D02*
X130580000Y-98693642D01*
%TO.C,J6*%
X152220000Y-109290000D02*
X153550000Y-109290000D01*
X152220000Y-110620000D02*
X152220000Y-109290000D01*
X152220000Y-111890000D02*
X152220000Y-117030000D01*
X152220000Y-111890000D02*
X154880000Y-111890000D01*
X152220000Y-117030000D02*
X154880000Y-117030000D01*
X154880000Y-111890000D02*
X154880000Y-117030000D01*
%TO.C,Q1*%
X164625000Y-94865000D02*
X162950000Y-94865000D01*
X164625000Y-94865000D02*
X165275000Y-94865000D01*
X164625000Y-97985000D02*
X163975000Y-97985000D01*
X164625000Y-97985000D02*
X165275000Y-97985000D01*
%TO.C,F1*%
X173821267Y-106660000D02*
X173478733Y-106660000D01*
X173821267Y-105640000D02*
X173478733Y-105640000D01*
%TO.C,R1*%
X159390000Y-102796360D02*
X159390000Y-103103642D01*
X158630000Y-102796360D02*
X158630000Y-103103642D01*
%TO.C,C34*%
X136960000Y-102854165D02*
X136960000Y-103085835D01*
X136240000Y-102854165D02*
X136240000Y-103085835D01*
%TO.C,Q2*%
X144550000Y-102060000D02*
X146225000Y-102060000D01*
X144550000Y-102060000D02*
X143900000Y-102060000D01*
X144550000Y-98940000D02*
X145200000Y-98940000D01*
X144550000Y-98940000D02*
X143900000Y-98940000D01*
%TO.C,D8*%
X132840000Y-117275000D02*
X132840000Y-118075000D01*
X134200000Y-117275000D02*
X132840000Y-117275000D01*
X134200000Y-118075000D02*
X132840000Y-118075000D01*
%TO.C,C3*%
X158327164Y-84665001D02*
X158542836Y-84665001D01*
X158327164Y-85385001D02*
X158542836Y-85385001D01*
%TO.C,R10*%
X167680000Y-96063642D02*
X167680000Y-95756360D01*
X168440000Y-96063642D02*
X168440000Y-95756360D01*
%TO.C,C12*%
X170910000Y-106909420D02*
X170910000Y-107190580D01*
X169890000Y-106909420D02*
X169890000Y-107190580D01*
%TO.C,R11*%
X167680000Y-93413642D02*
X167680000Y-93106360D01*
X168440000Y-93413642D02*
X168440000Y-93106360D01*
%TO.C,C25*%
X142460000Y-100942164D02*
X142460000Y-101157836D01*
X141740000Y-100942164D02*
X141740000Y-101157836D01*
%TO.C,C36*%
X130342164Y-99890000D02*
X130557836Y-99890000D01*
X130342164Y-100610000D02*
X130557836Y-100610000D01*
%TO.C,C17*%
X157565000Y-116261252D02*
X157565000Y-115738748D01*
X159035000Y-116261252D02*
X159035000Y-115738748D01*
%TO.C,R15*%
X144896359Y-102320000D02*
X145203641Y-102320000D01*
X144896359Y-103080000D02*
X145203641Y-103080000D01*
%TO.C,D11*%
X147175000Y-85860000D02*
X149175000Y-85860000D01*
X147175000Y-85860000D02*
X147175000Y-82000000D01*
X149175000Y-85860000D02*
X149175000Y-82000000D01*
%TO.C,C6*%
X146375000Y-89057837D02*
X146375000Y-88842165D01*
X147095000Y-89057837D02*
X147095000Y-88842165D01*
%TO.C,C35*%
X139784165Y-99090000D02*
X140015835Y-99090000D01*
X139784165Y-99810000D02*
X140015835Y-99810000D01*
%TO.C,C22*%
X145560000Y-91912164D02*
X145560000Y-92127836D01*
X144840000Y-91912164D02*
X144840000Y-92127836D01*
%TO.C,U1*%
X159245000Y-87240001D02*
X158295000Y-87240001D01*
X158295000Y-87240001D02*
X158295000Y-85900001D01*
X149025000Y-87240001D02*
X149975000Y-87240001D01*
X159245000Y-88190001D02*
X159245000Y-87240001D01*
X149025000Y-88190001D02*
X149025000Y-87240001D01*
X159245000Y-96510001D02*
X159245000Y-97460001D01*
X149025000Y-96510001D02*
X149025000Y-97460001D01*
X159245000Y-97460001D02*
X158295000Y-97460001D01*
X149025000Y-97460001D02*
X149975000Y-97460001D01*
%TO.C,C28*%
X155950000Y-104290581D02*
X155950000Y-104009421D01*
X156970000Y-104290581D02*
X156970000Y-104009421D01*
%TO.C,C5*%
X157992836Y-100035001D02*
X157777164Y-100035001D01*
X157992836Y-99315001D02*
X157777164Y-99315001D01*
%TO.C,R31*%
X138253641Y-105830000D02*
X137946359Y-105830000D01*
X138253641Y-105070000D02*
X137946359Y-105070000D01*
%TO.C,R14*%
X147380000Y-100996359D02*
X147380000Y-101303641D01*
X146620000Y-100996359D02*
X146620000Y-101303641D01*
%TO.C,C11*%
X167260000Y-106892164D02*
X167260000Y-107107836D01*
X166540000Y-106892164D02*
X166540000Y-107107836D01*
%TO.C,Y1*%
X158235000Y-83325001D02*
X158235000Y-80025001D01*
X158235000Y-80025001D02*
X154235000Y-80025001D01*
%TO.C,U2*%
X162047500Y-108860001D02*
X163847500Y-108860001D01*
X162047500Y-108860001D02*
X161247500Y-108860001D01*
X162047500Y-105740001D02*
X162847500Y-105740001D01*
X162047500Y-105740001D02*
X161247500Y-105740001D01*
%TO.C,Q4*%
X164450000Y-99140000D02*
X162775000Y-99140000D01*
X164450000Y-99140000D02*
X165100000Y-99140000D01*
X164450000Y-102260000D02*
X163800000Y-102260000D01*
X164450000Y-102260000D02*
X165100000Y-102260000D01*
%TO.C,C39*%
X140157836Y-76410000D02*
X139942164Y-76410000D01*
X140157836Y-75690000D02*
X139942164Y-75690000D01*
%TO.C,J5*%
X145040000Y-104950001D02*
X146370000Y-104950001D01*
X145040000Y-106280001D02*
X145040000Y-104950001D01*
X145040000Y-107550001D02*
X145040000Y-117770001D01*
X145040000Y-107550001D02*
X147640000Y-107550001D01*
X145040000Y-117770001D02*
X150240000Y-117770001D01*
X147640000Y-104950001D02*
X150240000Y-104950001D01*
X147640000Y-107550001D02*
X147640000Y-104950001D01*
X150240000Y-104950001D02*
X150240000Y-117770001D01*
%TO.C,U3*%
X163050000Y-86950001D02*
X163050000Y-90400001D01*
X163050000Y-86950001D02*
X163050000Y-85000001D01*
X168170000Y-86950001D02*
X168170000Y-88900001D01*
X168170000Y-86950001D02*
X168170000Y-85000001D01*
%TO.C,R37*%
X128930000Y-114196359D02*
X128930000Y-114503641D01*
X128170000Y-114196359D02*
X128170000Y-114503641D01*
%TO.C,D10*%
X159450000Y-75812500D02*
X158650000Y-75812500D01*
X159450000Y-77172500D02*
X159450000Y-75812500D01*
X158650000Y-77172500D02*
X158650000Y-75812500D01*
%TO.C,R12*%
X162113641Y-105130001D02*
X161806359Y-105130001D01*
X162113641Y-104370001D02*
X161806359Y-104370001D01*
%TO.C,R13*%
X161070000Y-103093641D02*
X161070000Y-102786359D01*
X161830000Y-103093641D02*
X161830000Y-102786359D01*
%TO.C,R5*%
X162330000Y-81553642D02*
X162330000Y-81246360D01*
X163090000Y-81553642D02*
X163090000Y-81246360D01*
%TO.C,C8*%
X160810000Y-73792164D02*
X160810000Y-74007836D01*
X160090000Y-73792164D02*
X160090000Y-74007836D01*
%TO.C,D6*%
X127850000Y-106360000D02*
X129850000Y-106360000D01*
X127850000Y-106360000D02*
X127850000Y-102500000D01*
X129850000Y-106360000D02*
X129850000Y-102500000D01*
%TO.C,C20*%
X162350000Y-78965836D02*
X162350000Y-78734166D01*
X163070000Y-78965836D02*
X163070000Y-78734166D01*
%TO.C,C15*%
X162265000Y-116261252D02*
X162265000Y-115738748D01*
X163735000Y-116261252D02*
X163735000Y-115738748D01*
%TO.C,SW1*%
X166600000Y-75250000D02*
X166600000Y-72450000D01*
X165450000Y-76400000D02*
X162650000Y-76400000D01*
X165450000Y-71300000D02*
X162650000Y-71300000D01*
X161500000Y-75250000D02*
X161500000Y-72450000D01*
%TO.C,C29*%
X153669420Y-100440000D02*
X153950580Y-100440000D01*
X153669420Y-101460000D02*
X153950580Y-101460000D01*
%TO.C,C24*%
X143790000Y-87297500D02*
X146810000Y-87297500D01*
X146810000Y-87297500D02*
X146810000Y-83087500D01*
X143790000Y-83087500D02*
X143790000Y-87297500D01*
%TO.C,R3*%
X158740000Y-111032380D02*
X158740000Y-111367622D01*
X157980000Y-111032380D02*
X157980000Y-111367622D01*
%TO.C,C40*%
X133107164Y-79440001D02*
X133322836Y-79440001D01*
X133107164Y-80160001D02*
X133322836Y-80160001D01*
%TO.C,R29*%
X137040000Y-97136361D02*
X137040000Y-97443643D01*
X136280000Y-97136361D02*
X136280000Y-97443643D01*
D13*
%TO.C,U4*%
X130210000Y-80750001D02*
X143110000Y-80750001D01*
X130210000Y-95650001D02*
X130210000Y-80750001D01*
X130210000Y-95650001D02*
X143110000Y-95650001D01*
X143110000Y-80750001D02*
X143110000Y-95650001D01*
D14*
X129760000Y-83000001D02*
G75*
G03*
X129760000Y-83000001I-100000J0D01*
G01*
D12*
%TO.C,R6*%
X161720000Y-94213642D02*
X161720000Y-93906360D01*
X162480000Y-94213642D02*
X162480000Y-93906360D01*
%TO.C,C21*%
X144260000Y-91892164D02*
X144260000Y-92107836D01*
X143540000Y-91892164D02*
X143540000Y-92107836D01*
%TO.C,R28*%
X139746359Y-96370000D02*
X140053641Y-96370000D01*
X139746359Y-97130000D02*
X140053641Y-97130000D01*
%TD*%
%LPC*%
D15*
%TO.C,J7*%
X171205600Y-75050000D02*
G75*
G03*
X171205600Y-75050000I-355600J0D01*
G01*
D16*
X173228100Y-78050000D02*
G75*
G03*
X173228100Y-78050000I-418100J0D01*
G01*
X173228100Y-81050000D02*
G75*
G03*
X173228100Y-81050000I-418100J0D01*
G01*
X173228100Y-84050000D02*
G75*
G03*
X173228100Y-84050000I-418100J0D01*
G01*
X173228100Y-87050000D02*
G75*
G03*
X173228100Y-87050000I-418100J0D01*
G01*
X173228100Y-90050000D02*
G75*
G03*
X173228100Y-90050000I-418100J0D01*
G01*
X173228100Y-93050000D02*
G75*
G03*
X173228100Y-93050000I-418100J0D01*
G01*
X173228100Y-96050000D02*
G75*
G03*
X173228100Y-96050000I-418100J0D01*
G01*
D15*
X171205600Y-102050000D02*
G75*
G03*
X171205600Y-102050000I-355600J0D01*
G01*
G36*
X173646200Y-99886200D02*
G01*
X171973800Y-99886200D01*
X171973800Y-98213800D01*
X173646200Y-98213800D01*
X173646200Y-99886200D01*
G37*
D17*
X173646200Y-99886200D02*
X171973800Y-99886200D01*
X171973800Y-98213800D01*
X173646200Y-98213800D01*
X173646200Y-99886200D01*
%TD*%
D18*
%TO.C,R19*%
X152210000Y-72950000D03*
X151190000Y-72950000D03*
%TD*%
D19*
%TO.C,R18*%
X151225000Y-75210000D03*
X151225000Y-74190000D03*
%TD*%
D20*
%TO.C,R17*%
X156940000Y-73325000D03*
X157960000Y-73325000D03*
%TD*%
D21*
%TO.C,D2*%
X155537500Y-72000000D03*
X153962500Y-72000000D03*
%TD*%
D22*
%TO.C,C4*%
X151655000Y-84975001D03*
X152615000Y-84975001D03*
%TD*%
D23*
%TO.C,C23*%
X146450000Y-91540000D03*
X146450000Y-92500000D03*
%TD*%
D24*
%TO.C,C18*%
X166140000Y-91450001D03*
X165180000Y-91450001D03*
%TD*%
D25*
%TO.C,U6*%
X154900000Y-102950000D03*
X153000000Y-102950000D03*
X153950000Y-105950000D03*
%TD*%
D26*
%TO.C,C9*%
X159185000Y-81057501D03*
X159185000Y-82192501D03*
%TD*%
D18*
%TO.C,R8*%
X161810000Y-99750000D03*
X160790000Y-99750000D03*
%TD*%
D27*
%TO.C,C10*%
X153400000Y-82242502D03*
X153400000Y-81107502D03*
%TD*%
D28*
%TO.C,C1*%
X161500000Y-86525000D03*
X161500000Y-84975000D03*
%TD*%
D29*
%TO.C,L1*%
X169250000Y-112500000D03*
X169250000Y-116900000D03*
%TD*%
D27*
%TO.C,C19*%
X168060000Y-79417501D03*
X168060000Y-78282501D03*
%TD*%
D30*
%TO.C,AE1*%
X140560000Y-74075001D03*
D31*
X139085000Y-72550001D03*
X142035000Y-72550001D03*
%TD*%
D23*
%TO.C,C2*%
X161535000Y-88170001D03*
X161535000Y-89130001D03*
%TD*%
D32*
%TO.C,R30*%
X137960000Y-96790001D03*
X137960000Y-97810001D03*
%TD*%
D33*
%TO.C,R2*%
X156600000Y-111797500D03*
X156600000Y-110602500D03*
%TD*%
D34*
%TO.C,C7*%
X146785000Y-96555001D03*
X146785000Y-95595001D03*
%TD*%
D35*
%TO.C,D9*%
X135967500Y-117675000D03*
X135127500Y-117675000D03*
%TD*%
D36*
%TO.C,D1*%
X164460000Y-81187501D03*
X166360000Y-81187501D03*
X165410000Y-79312501D03*
%TD*%
D32*
%TO.C,R35*%
X132760000Y-96790001D03*
X132760000Y-97810001D03*
%TD*%
D24*
%TO.C,C38*%
X140550000Y-79800000D03*
X139590000Y-79800000D03*
%TD*%
D19*
%TO.C,R38*%
X140550000Y-78410000D03*
X140550000Y-77390000D03*
%TD*%
D37*
%TO.C,J2*%
X138510000Y-109825000D03*
X138510000Y-114875000D03*
X135970000Y-109825000D03*
X135970000Y-114875000D03*
X133430000Y-109825000D03*
X133430000Y-114875000D03*
X130890000Y-109825000D03*
X130890000Y-114875000D03*
%TD*%
D32*
%TO.C,R36*%
X134060000Y-96790001D03*
X134060000Y-97810001D03*
%TD*%
D38*
%TO.C,SW3*%
X152800000Y-74625000D03*
X158800000Y-74625000D03*
X152800000Y-78375000D03*
X158800000Y-78375000D03*
%TD*%
D22*
%TO.C,C41*%
X132725000Y-76050001D03*
X133685000Y-76050001D03*
%TD*%
D19*
%TO.C,R39*%
X132750000Y-78310000D03*
X132750000Y-77290000D03*
%TD*%
D39*
%TO.C,J7*%
X170850000Y-75050000D03*
X170850000Y-102050000D03*
%TD*%
D20*
%TO.C,R7*%
X167050000Y-98160001D03*
X168070000Y-98160001D03*
%TD*%
D32*
%TO.C,R32*%
X136700000Y-99190000D03*
X136700000Y-100210000D03*
%TD*%
D19*
%TO.C,R4*%
X168060000Y-81910001D03*
X168060000Y-80890001D03*
%TD*%
D20*
%TO.C,R34*%
X128800000Y-97990001D03*
X129820000Y-97990001D03*
%TD*%
D24*
%TO.C,C14*%
X162490000Y-110000001D03*
X161530000Y-110000001D03*
%TD*%
D30*
%TO.C,AE2*%
X132735000Y-74080001D03*
D31*
X131260000Y-72555001D03*
X134210000Y-72555001D03*
%TD*%
D32*
%TO.C,R9*%
X167050000Y-99690000D03*
X167050000Y-100710000D03*
%TD*%
D24*
%TO.C,C37*%
X129790000Y-96700001D03*
X128830000Y-96700001D03*
%TD*%
D40*
%TO.C,C13*%
X168400000Y-106275000D03*
X168400000Y-107825000D03*
%TD*%
D36*
%TO.C,D7*%
X132600000Y-106087500D03*
X134500000Y-106087500D03*
X133550000Y-104212500D03*
%TD*%
D41*
%TO.C,C16*%
X160650000Y-116950000D03*
X160650000Y-115050000D03*
%TD*%
D32*
%TO.C,R33*%
X130960000Y-98030001D03*
X130960000Y-99050001D03*
%TD*%
D42*
%TO.C,J6*%
X153550000Y-110620000D03*
D43*
X153549999Y-113159999D03*
X153549999Y-115699999D03*
%TD*%
D44*
%TO.C,Q1*%
X163687500Y-95475000D03*
X163687500Y-97375000D03*
X165562500Y-96425000D03*
%TD*%
D45*
%TO.C,F1*%
X174525000Y-106150000D03*
X172775000Y-106150000D03*
%TD*%
D32*
%TO.C,R1*%
X159010000Y-102440001D03*
X159010000Y-103460001D03*
%TD*%
D26*
%TO.C,C34*%
X136600000Y-102402500D03*
X136600000Y-103537500D03*
%TD*%
D46*
%TO.C,Q2*%
X145487500Y-101450000D03*
X145487500Y-99550000D03*
X143612500Y-100500000D03*
%TD*%
D47*
%TO.C,D8*%
X133280000Y-117675000D03*
X134120000Y-117675000D03*
%TD*%
D22*
%TO.C,C3*%
X157955000Y-85025001D03*
X158915000Y-85025001D03*
%TD*%
D19*
%TO.C,R10*%
X168060000Y-96420001D03*
X168060000Y-95400001D03*
%TD*%
D40*
%TO.C,C12*%
X170400000Y-106275000D03*
X170400000Y-107825000D03*
%TD*%
D19*
%TO.C,R11*%
X168060000Y-93770001D03*
X168060000Y-92750001D03*
%TD*%
D23*
%TO.C,C25*%
X142100000Y-100570000D03*
X142100000Y-101530000D03*
%TD*%
D22*
%TO.C,C36*%
X129970000Y-100250000D03*
X130930000Y-100250000D03*
%TD*%
D41*
%TO.C,C17*%
X158300000Y-116950000D03*
X158300000Y-115050000D03*
%TD*%
D20*
%TO.C,R15*%
X144540000Y-102700000D03*
X145560000Y-102700000D03*
%TD*%
D48*
%TO.C,D11*%
X148175000Y-85050000D03*
X148175000Y-82250000D03*
%TD*%
D34*
%TO.C,C6*%
X146735000Y-89430001D03*
X146735000Y-88470001D03*
%TD*%
D49*
%TO.C,C35*%
X139332500Y-99450000D03*
X140467500Y-99450000D03*
%TD*%
D23*
%TO.C,C22*%
X145200000Y-91540000D03*
X145200000Y-92500000D03*
%TD*%
D50*
%TO.C,U1*%
X157885000Y-86675001D03*
X157385000Y-86675001D03*
X156885000Y-86675001D03*
X156385000Y-86675001D03*
X155885000Y-86675001D03*
X155385000Y-86675001D03*
X154885000Y-86675001D03*
X154385000Y-86675001D03*
X153885000Y-86675001D03*
X153385000Y-86675001D03*
X152885000Y-86675001D03*
X152385000Y-86675001D03*
X151885000Y-86675001D03*
X151385000Y-86675001D03*
X150885000Y-86675001D03*
X150385000Y-86675001D03*
D51*
X148460000Y-88600001D03*
X148460000Y-89100001D03*
X148460000Y-89600001D03*
X148460000Y-90100001D03*
X148460000Y-90600001D03*
X148460000Y-91100001D03*
X148460000Y-91600001D03*
X148460000Y-92100001D03*
X148460000Y-92600001D03*
X148460000Y-93100001D03*
X148460000Y-93600001D03*
X148460000Y-94100001D03*
X148460000Y-94600001D03*
X148460000Y-95100001D03*
X148460000Y-95600001D03*
X148460000Y-96100001D03*
D50*
X150385000Y-98025001D03*
X150885000Y-98025001D03*
X151385000Y-98025001D03*
X151885000Y-98025001D03*
X152385000Y-98025001D03*
X152885000Y-98025001D03*
X153385000Y-98025001D03*
X153885000Y-98025001D03*
X154385000Y-98025001D03*
X154885000Y-98025001D03*
X155385000Y-98025001D03*
X155885000Y-98025001D03*
X156385000Y-98025001D03*
X156885000Y-98025001D03*
X157385000Y-98025001D03*
X157885000Y-98025001D03*
D51*
X159810000Y-96100001D03*
X159810000Y-95600001D03*
X159810000Y-95100001D03*
X159810000Y-94600001D03*
X159810000Y-94100001D03*
X159810000Y-93600001D03*
X159810000Y-93100001D03*
X159810000Y-92600001D03*
X159810000Y-92100001D03*
X159810000Y-91600001D03*
X159810000Y-91100001D03*
X159810000Y-90600001D03*
X159810000Y-90100001D03*
X159810000Y-89600001D03*
X159810000Y-89100001D03*
X159810000Y-88600001D03*
%TD*%
D28*
%TO.C,C28*%
X156460000Y-104925001D03*
X156460000Y-103375001D03*
%TD*%
D24*
%TO.C,C5*%
X158365000Y-99675001D03*
X157405000Y-99675001D03*
%TD*%
D18*
%TO.C,R31*%
X138610000Y-105450000D03*
X137590000Y-105450000D03*
%TD*%
D32*
%TO.C,R14*%
X147000000Y-100640000D03*
X147000000Y-101660000D03*
%TD*%
D23*
%TO.C,C11*%
X166900000Y-106520000D03*
X166900000Y-107480000D03*
%TD*%
D52*
%TO.C,Y1*%
X157335000Y-80825001D03*
X155135000Y-80825001D03*
X155135000Y-82525001D03*
X157335000Y-82525001D03*
%TD*%
D53*
%TO.C,U2*%
X163185000Y-108250001D03*
X163185000Y-107300001D03*
X163185000Y-106350001D03*
X160910000Y-106350001D03*
X160910000Y-107300001D03*
X160910000Y-108250001D03*
%TD*%
D44*
%TO.C,Q4*%
X163512500Y-99750000D03*
X163512500Y-101650000D03*
X165387500Y-100700000D03*
%TD*%
D24*
%TO.C,C39*%
X140530000Y-76050000D03*
X139570000Y-76050000D03*
%TD*%
D42*
%TO.C,J5*%
X146370000Y-106280001D03*
D43*
X148909999Y-106280000D03*
X146369999Y-108820000D03*
X148909999Y-108820000D03*
X146369999Y-111360000D03*
X148909999Y-111360000D03*
X146369999Y-113900000D03*
X148909999Y-113900000D03*
X146369999Y-116440000D03*
X148909999Y-116440000D03*
%TD*%
D54*
%TO.C,U3*%
X163705000Y-89425001D03*
X164975000Y-89425001D03*
X166245000Y-89425001D03*
X167515000Y-89425001D03*
X167515000Y-84475001D03*
X166245000Y-84475001D03*
X164975000Y-84475001D03*
X163705000Y-84475001D03*
%TD*%
D32*
%TO.C,R37*%
X128550000Y-113840000D03*
X128550000Y-114860000D03*
%TD*%
D55*
%TO.C,D10*%
X159050000Y-76252500D03*
X159050000Y-77092500D03*
%TD*%
D18*
%TO.C,R12*%
X162470000Y-104750001D03*
X161450000Y-104750001D03*
%TD*%
D19*
%TO.C,R13*%
X161450000Y-103450000D03*
X161450000Y-102430000D03*
%TD*%
%TO.C,R5*%
X162710000Y-81910001D03*
X162710000Y-80890001D03*
%TD*%
D23*
%TO.C,C8*%
X160450000Y-73420000D03*
X160450000Y-74380000D03*
%TD*%
D48*
%TO.C,D6*%
X128850000Y-105550000D03*
X128850000Y-102750000D03*
%TD*%
D27*
%TO.C,C20*%
X162710000Y-79417501D03*
X162710000Y-78282501D03*
%TD*%
D41*
%TO.C,C15*%
X163000000Y-116950000D03*
X163000000Y-115050000D03*
%TD*%
D56*
%TO.C,SW1*%
X167050000Y-75725000D03*
X161050000Y-75725000D03*
X167050000Y-71975000D03*
X161050000Y-71975000D03*
%TD*%
D57*
%TO.C,C29*%
X153035000Y-100950000D03*
X154585000Y-100950000D03*
%TD*%
D58*
%TO.C,C24*%
X145300000Y-86375000D03*
X145300000Y-83300000D03*
%TD*%
D59*
%TO.C,R3*%
X158360000Y-110602501D03*
X158360000Y-111797501D03*
%TD*%
D22*
%TO.C,C40*%
X132735000Y-79800001D03*
X133695000Y-79800001D03*
%TD*%
D32*
%TO.C,R29*%
X136660000Y-96780002D03*
X136660000Y-97800002D03*
%TD*%
D60*
%TO.C,U4*%
X131210000Y-83000001D03*
X131210000Y-84300001D03*
X131210000Y-85600001D03*
X131210000Y-86900001D03*
X131210000Y-88200001D03*
X131210000Y-89500001D03*
X131210000Y-90800001D03*
X131210000Y-92100001D03*
X131210000Y-93400001D03*
X132760000Y-94650001D03*
X134060000Y-94650001D03*
X135360000Y-94650001D03*
X136660000Y-94650001D03*
X137960000Y-94650001D03*
X139260000Y-94650001D03*
X140560000Y-94650001D03*
X142110000Y-93400001D03*
X142110000Y-92100001D03*
X142110000Y-90800001D03*
X142110000Y-89500001D03*
X142110000Y-88200001D03*
X142110000Y-86900001D03*
X142110000Y-85600001D03*
X142110000Y-84300001D03*
X142110000Y-83000001D03*
X140560000Y-81750001D03*
X139260000Y-81750001D03*
X137960000Y-81750001D03*
X136660000Y-81750001D03*
X135360000Y-81750001D03*
X134060000Y-81750001D03*
X132760000Y-81750001D03*
X132360000Y-83650001D03*
X132360000Y-84950001D03*
X132360000Y-86250001D03*
X132360000Y-87550001D03*
X132360000Y-88850001D03*
X132360000Y-90150001D03*
X132360000Y-91450001D03*
X132360000Y-92750001D03*
X134710000Y-93500001D03*
X136010000Y-93500001D03*
X137310000Y-93500001D03*
X138610000Y-93500001D03*
X140960000Y-92750001D03*
X140960000Y-91450001D03*
X140960000Y-90150001D03*
X140960000Y-88850001D03*
X140960000Y-87550001D03*
X140960000Y-86250001D03*
X140960000Y-84950001D03*
X140960000Y-83650001D03*
X138610000Y-82900001D03*
X137310000Y-82900001D03*
X136010000Y-82900001D03*
X134710000Y-82900001D03*
X133510000Y-84300001D03*
X133510000Y-85600001D03*
X133510000Y-86900001D03*
X133510000Y-88200001D03*
X133510000Y-89500001D03*
X133510000Y-90800001D03*
X133510000Y-92100001D03*
X136660000Y-92350001D03*
X139810000Y-92100001D03*
X139810000Y-90800001D03*
X139810000Y-89500001D03*
X139810000Y-88200001D03*
X139810000Y-86900001D03*
X139810000Y-85600001D03*
X139810000Y-84300001D03*
X136660000Y-84050001D03*
X134660000Y-84950001D03*
X134660000Y-86250001D03*
X134660000Y-87550001D03*
X134660000Y-88850001D03*
X134660000Y-90150001D03*
X134660000Y-91450001D03*
X138660000Y-91450001D03*
X138660000Y-90150001D03*
X138660000Y-88850001D03*
X138660000Y-87550001D03*
X138660000Y-86250001D03*
X138660000Y-84950001D03*
X135810000Y-85600001D03*
X135810000Y-86900001D03*
X135810000Y-88200001D03*
X135810000Y-89500001D03*
X135810000Y-90800001D03*
X137510000Y-90800001D03*
X137510000Y-89500001D03*
X137510000Y-88200001D03*
X137510000Y-86900001D03*
X137510000Y-85600001D03*
%TD*%
D19*
%TO.C,R6*%
X162100000Y-94570001D03*
X162100000Y-93550001D03*
%TD*%
D23*
%TO.C,C21*%
X143900000Y-91520000D03*
X143900000Y-92480000D03*
%TD*%
D20*
%TO.C,R28*%
X139390000Y-96750000D03*
X140410000Y-96750000D03*
%TD*%
M02*
