%TF.GenerationSoftware,KiCad,Pcbnew,(7.0.0)*%
%TF.CreationDate,2023-03-16T22:42:37+01:00*%
%TF.ProjectId,iot_diagnostic_tool,696f745f-6469-4616-976e-6f737469635f,rev?*%
%TF.SameCoordinates,Original*%
%TF.FileFunction,Soldermask,Top*%
%TF.FilePolarity,Negative*%
%FSLAX46Y46*%
G04 Gerber Fmt 4.6, Leading zero omitted, Abs format (unit mm)*
G04 Created by KiCad (PCBNEW (7.0.0)) date 2023-03-16 22:42:37*
%MOMM*%
%LPD*%
G01*
G04 APERTURE LIST*
G04 Aperture macros list*
%AMRoundRect*
0 Rectangle with rounded corners*
0 $1 Rounding radius*
0 $2 $3 $4 $5 $6 $7 $8 $9 X,Y pos of 4 corners*
0 Add a 4 corners polygon primitive as box body*
4,1,4,$2,$3,$4,$5,$6,$7,$8,$9,$2,$3,0*
0 Add four circle primitives for the rounded corners*
1,1,$1+$1,$2,$3*
1,1,$1+$1,$4,$5*
1,1,$1+$1,$6,$7*
1,1,$1+$1,$8,$9*
0 Add four rect primitives between the rounded corners*
20,1,$1+$1,$2,$3,$4,$5,0*
20,1,$1+$1,$4,$5,$6,$7,0*
20,1,$1+$1,$6,$7,$8,$9,0*
20,1,$1+$1,$8,$9,$2,$3,0*%
G04 Aperture macros list end*
%ADD10C,0.711200*%
%ADD11C,0.836200*%
%ADD12C,0.010000*%
%ADD13RoundRect,0.185000X0.135000X0.185000X-0.135000X0.185000X-0.135000X-0.185000X0.135000X-0.185000X0*%
%ADD14RoundRect,0.185000X0.185000X-0.135000X0.185000X0.135000X-0.185000X0.135000X-0.185000X-0.135000X0*%
%ADD15RoundRect,0.185000X-0.135000X-0.185000X0.135000X-0.185000X0.135000X0.185000X-0.135000X0.185000X0*%
%ADD16RoundRect,0.268750X0.218750X0.256250X-0.218750X0.256250X-0.218750X-0.256250X0.218750X-0.256250X0*%
%ADD17RoundRect,0.190000X-0.140000X-0.170000X0.140000X-0.170000X0.140000X0.170000X-0.140000X0.170000X0*%
%ADD18RoundRect,0.190000X-0.170000X0.140000X-0.170000X-0.140000X0.170000X-0.140000X0.170000X0.140000X0*%
%ADD19RoundRect,0.190000X0.140000X0.170000X-0.140000X0.170000X-0.140000X-0.170000X0.140000X-0.170000X0*%
%ADD20RoundRect,0.050000X-0.400000X0.950000X-0.400000X-0.950000X0.400000X-0.950000X0.400000X0.950000X0*%
%ADD21RoundRect,0.205000X-0.155000X0.212500X-0.155000X-0.212500X0.155000X-0.212500X0.155000X0.212500X0*%
%ADD22RoundRect,0.205000X0.155000X-0.212500X0.155000X0.212500X-0.155000X0.212500X-0.155000X-0.212500X0*%
%ADD23RoundRect,0.275000X0.250000X-0.225000X0.250000X0.225000X-0.250000X0.225000X-0.250000X-0.225000X0*%
%ADD24RoundRect,0.575000X2.025000X-0.525000X2.025000X0.525000X-2.025000X0.525000X-2.025000X-0.525000X0*%
%ADD25RoundRect,0.050000X0.500000X-0.525000X0.500000X0.525000X-0.500000X0.525000X-0.500000X-0.525000X0*%
%ADD26RoundRect,0.050000X0.525000X-1.100000X0.525000X1.100000X-0.525000X1.100000X-0.525000X-1.100000X0*%
%ADD27RoundRect,0.185000X-0.185000X0.135000X-0.185000X-0.135000X0.185000X-0.135000X0.185000X0.135000X0*%
%ADD28RoundRect,0.210000X0.160000X-0.197500X0.160000X0.197500X-0.160000X0.197500X-0.160000X-0.197500X0*%
%ADD29RoundRect,0.190000X0.170000X-0.140000X0.170000X0.140000X-0.170000X0.140000X-0.170000X-0.140000X0*%
%ADD30RoundRect,0.112500X-0.117500X-0.062500X0.117500X-0.062500X0.117500X0.062500X-0.117500X0.062500X0*%
%ADD31RoundRect,0.200000X0.150000X-0.587500X0.150000X0.587500X-0.150000X0.587500X-0.150000X-0.587500X0*%
%ADD32RoundRect,0.050000X-0.500000X1.575000X-0.500000X-1.575000X0.500000X-1.575000X0.500000X1.575000X0*%
%ADD33RoundRect,0.162500X-0.387500X-0.262500X0.387500X-0.262500X0.387500X0.262500X-0.387500X0.262500X0*%
%ADD34C,1.370000*%
%ADD35RoundRect,0.275000X-0.250000X0.225000X-0.250000X-0.225000X0.250000X-0.225000X0.250000X0.225000X0*%
%ADD36RoundRect,0.300000X0.475000X-0.250000X0.475000X0.250000X-0.475000X0.250000X-0.475000X-0.250000X0*%
%ADD37RoundRect,0.050000X-0.850000X-0.850000X0.850000X-0.850000X0.850000X0.850000X-0.850000X0.850000X0*%
%ADD38O,1.800000X1.800000*%
%ADD39RoundRect,0.200000X-0.587500X-0.150000X0.587500X-0.150000X0.587500X0.150000X-0.587500X0.150000X0*%
%ADD40RoundRect,0.287500X0.287500X0.237500X-0.287500X0.237500X-0.287500X-0.237500X0.287500X-0.237500X0*%
%ADD41RoundRect,0.200000X0.587500X0.150000X-0.587500X0.150000X-0.587500X-0.150000X0.587500X-0.150000X0*%
%ADD42RoundRect,0.112500X0.117500X0.062500X-0.117500X0.062500X-0.117500X-0.062500X0.117500X-0.062500X0*%
%ADD43RoundRect,0.300000X0.300000X-0.300000X0.300000X0.300000X-0.300000X0.300000X-0.300000X-0.300000X0*%
%ADD44RoundRect,0.205000X-0.212500X-0.155000X0.212500X-0.155000X0.212500X0.155000X-0.212500X0.155000X0*%
%ADD45RoundRect,0.125000X-0.075000X0.700000X-0.075000X-0.700000X0.075000X-0.700000X0.075000X0.700000X0*%
%ADD46RoundRect,0.125000X-0.700000X0.075000X-0.700000X-0.075000X0.700000X-0.075000X0.700000X0.075000X0*%
%ADD47RoundRect,0.050000X0.700000X0.600000X-0.700000X0.600000X-0.700000X-0.600000X0.700000X-0.600000X0*%
%ADD48RoundRect,0.200000X0.512500X0.150000X-0.512500X0.150000X-0.512500X-0.150000X0.512500X-0.150000X0*%
%ADD49RoundRect,0.200000X0.150000X-0.825000X0.150000X0.825000X-0.150000X0.825000X-0.150000X-0.825000X0*%
%ADD50RoundRect,0.112500X0.062500X-0.117500X0.062500X0.117500X-0.062500X0.117500X-0.062500X-0.117500X0*%
%ADD51RoundRect,0.162500X0.387500X0.262500X-0.387500X0.262500X-0.387500X-0.262500X0.387500X-0.262500X0*%
%ADD52RoundRect,0.275000X-0.225000X-0.250000X0.225000X-0.250000X0.225000X0.250000X-0.225000X0.250000X0*%
%ADD53RoundRect,0.300000X0.925000X-0.412500X0.925000X0.412500X-0.925000X0.412500X-0.925000X-0.412500X0*%
%ADD54RoundRect,0.210000X-0.160000X0.197500X-0.160000X-0.197500X0.160000X-0.197500X0.160000X0.197500X0*%
%ADD55C,0.800000*%
G04 APERTURE END LIST*
D10*
%TO.C,J7*%
X171205600Y-75050000D02*
G75*
G03*
X171205600Y-75050000I-355600J0D01*
G01*
D11*
X173228100Y-78050000D02*
G75*
G03*
X173228100Y-78050000I-418100J0D01*
G01*
X173228100Y-81050000D02*
G75*
G03*
X173228100Y-81050000I-418100J0D01*
G01*
X173228100Y-84050000D02*
G75*
G03*
X173228100Y-84050000I-418100J0D01*
G01*
X173228100Y-87050000D02*
G75*
G03*
X173228100Y-87050000I-418100J0D01*
G01*
X173228100Y-90050000D02*
G75*
G03*
X173228100Y-90050000I-418100J0D01*
G01*
X173228100Y-93050000D02*
G75*
G03*
X173228100Y-93050000I-418100J0D01*
G01*
X173228100Y-96050000D02*
G75*
G03*
X173228100Y-96050000I-418100J0D01*
G01*
D10*
X171205600Y-102050000D02*
G75*
G03*
X171205600Y-102050000I-355600J0D01*
G01*
G36*
X173646200Y-99886200D02*
G01*
X171973800Y-99886200D01*
X171973800Y-98213800D01*
X173646200Y-98213800D01*
X173646200Y-99886200D01*
G37*
D12*
X173646200Y-99886200D02*
X171973800Y-99886200D01*
X171973800Y-98213800D01*
X173646200Y-98213800D01*
X173646200Y-99886200D01*
%TD*%
D13*
%TO.C,R19*%
X152210000Y-72950000D03*
X151190000Y-72950000D03*
%TD*%
D14*
%TO.C,R18*%
X151225000Y-75210000D03*
X151225000Y-74190000D03*
%TD*%
D15*
%TO.C,R17*%
X156940000Y-73325000D03*
X157960000Y-73325000D03*
%TD*%
D16*
%TO.C,D2*%
X155537500Y-72000000D03*
X153962500Y-72000000D03*
%TD*%
D17*
%TO.C,C4*%
X151655000Y-84975001D03*
X152615000Y-84975001D03*
%TD*%
D18*
%TO.C,C23*%
X146450000Y-91540000D03*
X146450000Y-92500000D03*
%TD*%
D19*
%TO.C,C18*%
X166140000Y-91450001D03*
X165180000Y-91450001D03*
%TD*%
D20*
%TO.C,U6*%
X154900000Y-102950000D03*
X153000000Y-102950000D03*
X153950000Y-105950000D03*
%TD*%
D21*
%TO.C,C9*%
X159185000Y-81057501D03*
X159185000Y-82192501D03*
%TD*%
D13*
%TO.C,R8*%
X161810000Y-99750000D03*
X160790000Y-99750000D03*
%TD*%
D22*
%TO.C,C10*%
X153400000Y-82242502D03*
X153400000Y-81107502D03*
%TD*%
D23*
%TO.C,C1*%
X161500000Y-86525000D03*
X161500000Y-84975000D03*
%TD*%
D24*
%TO.C,L1*%
X169250000Y-112500000D03*
X169250000Y-116900000D03*
%TD*%
D22*
%TO.C,C19*%
X168060000Y-79417501D03*
X168060000Y-78282501D03*
%TD*%
D25*
%TO.C,AE1*%
X140560000Y-74075001D03*
D26*
X139085000Y-72550001D03*
X142035000Y-72550001D03*
%TD*%
D18*
%TO.C,C2*%
X161535000Y-88170001D03*
X161535000Y-89130001D03*
%TD*%
D27*
%TO.C,R30*%
X137960000Y-96790001D03*
X137960000Y-97810001D03*
%TD*%
D28*
%TO.C,R2*%
X156600000Y-111797500D03*
X156600000Y-110602500D03*
%TD*%
D29*
%TO.C,C7*%
X146785000Y-96555001D03*
X146785000Y-95595001D03*
%TD*%
D30*
%TO.C,D9*%
X135967500Y-117675000D03*
X135127500Y-117675000D03*
%TD*%
D31*
%TO.C,D1*%
X164460000Y-81187501D03*
X166360000Y-81187501D03*
X165410000Y-79312501D03*
%TD*%
D27*
%TO.C,R35*%
X132760000Y-96790001D03*
X132760000Y-97810001D03*
%TD*%
D19*
%TO.C,C38*%
X140550000Y-79800000D03*
X139590000Y-79800000D03*
%TD*%
D14*
%TO.C,R38*%
X140550000Y-78410000D03*
X140550000Y-77390000D03*
%TD*%
D32*
%TO.C,J2*%
X138510000Y-109825000D03*
X138510000Y-114875000D03*
X135970000Y-109825000D03*
X135970000Y-114875000D03*
X133430000Y-109825000D03*
X133430000Y-114875000D03*
X130890000Y-109825000D03*
X130890000Y-114875000D03*
%TD*%
D27*
%TO.C,R36*%
X134060000Y-96790001D03*
X134060000Y-97810001D03*
%TD*%
D33*
%TO.C,SW3*%
X152800000Y-74625000D03*
X158800000Y-74625000D03*
X152800000Y-78375000D03*
X158800000Y-78375000D03*
%TD*%
D17*
%TO.C,C41*%
X132725000Y-76050001D03*
X133685000Y-76050001D03*
%TD*%
D14*
%TO.C,R39*%
X132750000Y-78310000D03*
X132750000Y-77290000D03*
%TD*%
D34*
%TO.C,J7*%
X170850000Y-75050000D03*
X170850000Y-102050000D03*
%TD*%
D15*
%TO.C,R7*%
X167050000Y-98160001D03*
X168070000Y-98160001D03*
%TD*%
D27*
%TO.C,R32*%
X136700000Y-99190000D03*
X136700000Y-100210000D03*
%TD*%
D14*
%TO.C,R4*%
X168060000Y-81910001D03*
X168060000Y-80890001D03*
%TD*%
D15*
%TO.C,R34*%
X128800000Y-97990001D03*
X129820000Y-97990001D03*
%TD*%
D19*
%TO.C,C14*%
X162490000Y-110000001D03*
X161530000Y-110000001D03*
%TD*%
D25*
%TO.C,AE2*%
X132735000Y-74080001D03*
D26*
X131260000Y-72555001D03*
X134210000Y-72555001D03*
%TD*%
D27*
%TO.C,R9*%
X167050000Y-99690000D03*
X167050000Y-100710000D03*
%TD*%
D19*
%TO.C,C37*%
X129790000Y-96700001D03*
X128830000Y-96700001D03*
%TD*%
D35*
%TO.C,C13*%
X168400000Y-106275000D03*
X168400000Y-107825000D03*
%TD*%
D31*
%TO.C,D7*%
X132600000Y-106087500D03*
X134500000Y-106087500D03*
X133550000Y-104212500D03*
%TD*%
D36*
%TO.C,C16*%
X160650000Y-116950000D03*
X160650000Y-115050000D03*
%TD*%
D27*
%TO.C,R33*%
X130960000Y-98030001D03*
X130960000Y-99050001D03*
%TD*%
D37*
%TO.C,J6*%
X153550000Y-110620000D03*
D38*
X153549999Y-113159999D03*
X153549999Y-115699999D03*
%TD*%
D39*
%TO.C,Q1*%
X163687500Y-95475000D03*
X163687500Y-97375000D03*
X165562500Y-96425000D03*
%TD*%
D40*
%TO.C,F1*%
X174525000Y-106150000D03*
X172775000Y-106150000D03*
%TD*%
D27*
%TO.C,R1*%
X159010000Y-102440001D03*
X159010000Y-103460001D03*
%TD*%
D21*
%TO.C,C34*%
X136600000Y-102402500D03*
X136600000Y-103537500D03*
%TD*%
D41*
%TO.C,Q2*%
X145487500Y-101450000D03*
X145487500Y-99550000D03*
X143612500Y-100500000D03*
%TD*%
D42*
%TO.C,D8*%
X133280000Y-117675000D03*
X134120000Y-117675000D03*
%TD*%
D17*
%TO.C,C3*%
X157955000Y-85025001D03*
X158915000Y-85025001D03*
%TD*%
D14*
%TO.C,R10*%
X168060000Y-96420001D03*
X168060000Y-95400001D03*
%TD*%
D35*
%TO.C,C12*%
X170400000Y-106275000D03*
X170400000Y-107825000D03*
%TD*%
D14*
%TO.C,R11*%
X168060000Y-93770001D03*
X168060000Y-92750001D03*
%TD*%
D18*
%TO.C,C25*%
X142100000Y-100570000D03*
X142100000Y-101530000D03*
%TD*%
D17*
%TO.C,C36*%
X129970000Y-100250000D03*
X130930000Y-100250000D03*
%TD*%
D36*
%TO.C,C17*%
X158300000Y-116950000D03*
X158300000Y-115050000D03*
%TD*%
D15*
%TO.C,R15*%
X144540000Y-102700000D03*
X145560000Y-102700000D03*
%TD*%
D43*
%TO.C,D11*%
X148175000Y-85050000D03*
X148175000Y-82250000D03*
%TD*%
D29*
%TO.C,C6*%
X146735000Y-89430001D03*
X146735000Y-88470001D03*
%TD*%
D44*
%TO.C,C35*%
X139332500Y-99450000D03*
X140467500Y-99450000D03*
%TD*%
D18*
%TO.C,C22*%
X145200000Y-91540000D03*
X145200000Y-92500000D03*
%TD*%
D45*
%TO.C,U1*%
X157885000Y-86675001D03*
X157385000Y-86675001D03*
X156885000Y-86675001D03*
X156385000Y-86675001D03*
X155885000Y-86675001D03*
X155385000Y-86675001D03*
X154885000Y-86675001D03*
X154385000Y-86675001D03*
X153885000Y-86675001D03*
X153385000Y-86675001D03*
X152885000Y-86675001D03*
X152385000Y-86675001D03*
X151885000Y-86675001D03*
X151385000Y-86675001D03*
X150885000Y-86675001D03*
X150385000Y-86675001D03*
D46*
X148460000Y-88600001D03*
X148460000Y-89100001D03*
X148460000Y-89600001D03*
X148460000Y-90100001D03*
X148460000Y-90600001D03*
X148460000Y-91100001D03*
X148460000Y-91600001D03*
X148460000Y-92100001D03*
X148460000Y-92600001D03*
X148460000Y-93100001D03*
X148460000Y-93600001D03*
X148460000Y-94100001D03*
X148460000Y-94600001D03*
X148460000Y-95100001D03*
X148460000Y-95600001D03*
X148460000Y-96100001D03*
D45*
X150385000Y-98025001D03*
X150885000Y-98025001D03*
X151385000Y-98025001D03*
X151885000Y-98025001D03*
X152385000Y-98025001D03*
X152885000Y-98025001D03*
X153385000Y-98025001D03*
X153885000Y-98025001D03*
X154385000Y-98025001D03*
X154885000Y-98025001D03*
X155385000Y-98025001D03*
X155885000Y-98025001D03*
X156385000Y-98025001D03*
X156885000Y-98025001D03*
X157385000Y-98025001D03*
X157885000Y-98025001D03*
D46*
X159810000Y-96100001D03*
X159810000Y-95600001D03*
X159810000Y-95100001D03*
X159810000Y-94600001D03*
X159810000Y-94100001D03*
X159810000Y-93600001D03*
X159810000Y-93100001D03*
X159810000Y-92600001D03*
X159810000Y-92100001D03*
X159810000Y-91600001D03*
X159810000Y-91100001D03*
X159810000Y-90600001D03*
X159810000Y-90100001D03*
X159810000Y-89600001D03*
X159810000Y-89100001D03*
X159810000Y-88600001D03*
%TD*%
D23*
%TO.C,C28*%
X156460000Y-104925001D03*
X156460000Y-103375001D03*
%TD*%
D19*
%TO.C,C5*%
X158365000Y-99675001D03*
X157405000Y-99675001D03*
%TD*%
D13*
%TO.C,R31*%
X138610000Y-105450000D03*
X137590000Y-105450000D03*
%TD*%
D27*
%TO.C,R14*%
X147000000Y-100640000D03*
X147000000Y-101660000D03*
%TD*%
D18*
%TO.C,C11*%
X166900000Y-106520000D03*
X166900000Y-107480000D03*
%TD*%
D47*
%TO.C,Y1*%
X157335000Y-80825001D03*
X155135000Y-80825001D03*
X155135000Y-82525001D03*
X157335000Y-82525001D03*
%TD*%
D48*
%TO.C,U2*%
X163185000Y-108250001D03*
X163185000Y-107300001D03*
X163185000Y-106350001D03*
X160910000Y-106350001D03*
X160910000Y-107300001D03*
X160910000Y-108250001D03*
%TD*%
D39*
%TO.C,Q4*%
X163512500Y-99750000D03*
X163512500Y-101650000D03*
X165387500Y-100700000D03*
%TD*%
D19*
%TO.C,C39*%
X140530000Y-76050000D03*
X139570000Y-76050000D03*
%TD*%
D37*
%TO.C,J5*%
X146370000Y-106280001D03*
D38*
X148909999Y-106280000D03*
X146369999Y-108820000D03*
X148909999Y-108820000D03*
X146369999Y-111360000D03*
X148909999Y-111360000D03*
X146369999Y-113900000D03*
X148909999Y-113900000D03*
X146369999Y-116440000D03*
X148909999Y-116440000D03*
%TD*%
D49*
%TO.C,U3*%
X163705000Y-89425001D03*
X164975000Y-89425001D03*
X166245000Y-89425001D03*
X167515000Y-89425001D03*
X167515000Y-84475001D03*
X166245000Y-84475001D03*
X164975000Y-84475001D03*
X163705000Y-84475001D03*
%TD*%
D27*
%TO.C,R37*%
X128550000Y-113840000D03*
X128550000Y-114860000D03*
%TD*%
D50*
%TO.C,D10*%
X159050000Y-76252500D03*
X159050000Y-77092500D03*
%TD*%
D13*
%TO.C,R12*%
X162470000Y-104750001D03*
X161450000Y-104750001D03*
%TD*%
D14*
%TO.C,R13*%
X161450000Y-103450000D03*
X161450000Y-102430000D03*
%TD*%
%TO.C,R5*%
X162710000Y-81910001D03*
X162710000Y-80890001D03*
%TD*%
D18*
%TO.C,C8*%
X160450000Y-73420000D03*
X160450000Y-74380000D03*
%TD*%
D43*
%TO.C,D6*%
X128850000Y-105550000D03*
X128850000Y-102750000D03*
%TD*%
D22*
%TO.C,C20*%
X162710000Y-79417501D03*
X162710000Y-78282501D03*
%TD*%
D36*
%TO.C,C15*%
X163000000Y-116950000D03*
X163000000Y-115050000D03*
%TD*%
D51*
%TO.C,SW1*%
X167050000Y-75725000D03*
X161050000Y-75725000D03*
X167050000Y-71975000D03*
X161050000Y-71975000D03*
%TD*%
D52*
%TO.C,C29*%
X153035000Y-100950000D03*
X154585000Y-100950000D03*
%TD*%
D53*
%TO.C,C24*%
X145300000Y-86375000D03*
X145300000Y-83300000D03*
%TD*%
D54*
%TO.C,R3*%
X158360000Y-110602501D03*
X158360000Y-111797501D03*
%TD*%
D17*
%TO.C,C40*%
X132735000Y-79800001D03*
X133695000Y-79800001D03*
%TD*%
D27*
%TO.C,R29*%
X136660000Y-96780002D03*
X136660000Y-97800002D03*
%TD*%
D55*
%TO.C,U4*%
X131210000Y-83000001D03*
X131210000Y-84300001D03*
X131210000Y-85600001D03*
X131210000Y-86900001D03*
X131210000Y-88200001D03*
X131210000Y-89500001D03*
X131210000Y-90800001D03*
X131210000Y-92100001D03*
X131210000Y-93400001D03*
X132760000Y-94650001D03*
X134060000Y-94650001D03*
X135360000Y-94650001D03*
X136660000Y-94650001D03*
X137960000Y-94650001D03*
X139260000Y-94650001D03*
X140560000Y-94650001D03*
X142110000Y-93400001D03*
X142110000Y-92100001D03*
X142110000Y-90800001D03*
X142110000Y-89500001D03*
X142110000Y-88200001D03*
X142110000Y-86900001D03*
X142110000Y-85600001D03*
X142110000Y-84300001D03*
X142110000Y-83000001D03*
X140560000Y-81750001D03*
X139260000Y-81750001D03*
X137960000Y-81750001D03*
X136660000Y-81750001D03*
X135360000Y-81750001D03*
X134060000Y-81750001D03*
X132760000Y-81750001D03*
X132360000Y-83650001D03*
X132360000Y-84950001D03*
X132360000Y-86250001D03*
X132360000Y-87550001D03*
X132360000Y-88850001D03*
X132360000Y-90150001D03*
X132360000Y-91450001D03*
X132360000Y-92750001D03*
X134710000Y-93500001D03*
X136010000Y-93500001D03*
X137310000Y-93500001D03*
X138610000Y-93500001D03*
X140960000Y-92750001D03*
X140960000Y-91450001D03*
X140960000Y-90150001D03*
X140960000Y-88850001D03*
X140960000Y-87550001D03*
X140960000Y-86250001D03*
X140960000Y-84950001D03*
X140960000Y-83650001D03*
X138610000Y-82900001D03*
X137310000Y-82900001D03*
X136010000Y-82900001D03*
X134710000Y-82900001D03*
X133510000Y-84300001D03*
X133510000Y-85600001D03*
X133510000Y-86900001D03*
X133510000Y-88200001D03*
X133510000Y-89500001D03*
X133510000Y-90800001D03*
X133510000Y-92100001D03*
X136660000Y-92350001D03*
X139810000Y-92100001D03*
X139810000Y-90800001D03*
X139810000Y-89500001D03*
X139810000Y-88200001D03*
X139810000Y-86900001D03*
X139810000Y-85600001D03*
X139810000Y-84300001D03*
X136660000Y-84050001D03*
X134660000Y-84950001D03*
X134660000Y-86250001D03*
X134660000Y-87550001D03*
X134660000Y-88850001D03*
X134660000Y-90150001D03*
X134660000Y-91450001D03*
X138660000Y-91450001D03*
X138660000Y-90150001D03*
X138660000Y-88850001D03*
X138660000Y-87550001D03*
X138660000Y-86250001D03*
X138660000Y-84950001D03*
X135810000Y-85600001D03*
X135810000Y-86900001D03*
X135810000Y-88200001D03*
X135810000Y-89500001D03*
X135810000Y-90800001D03*
X137510000Y-90800001D03*
X137510000Y-89500001D03*
X137510000Y-88200001D03*
X137510000Y-86900001D03*
X137510000Y-85600001D03*
%TD*%
D14*
%TO.C,R6*%
X162100000Y-94570001D03*
X162100000Y-93550001D03*
%TD*%
D18*
%TO.C,C21*%
X143900000Y-91520000D03*
X143900000Y-92480000D03*
%TD*%
D15*
%TO.C,R28*%
X139390000Y-96750000D03*
X140410000Y-96750000D03*
%TD*%
G36*
X157714147Y-97249832D02*
G01*
X157713950Y-97251678D01*
X157696399Y-97277945D01*
X157687000Y-97325200D01*
X157687000Y-98724802D01*
X157696399Y-98772056D01*
X157713949Y-98798321D01*
X157714146Y-98800167D01*
X157712740Y-98801380D01*
X157710943Y-98800914D01*
X157681167Y-98773927D01*
X157635000Y-98762362D01*
X157588832Y-98773927D01*
X157559056Y-98800914D01*
X157557259Y-98801380D01*
X157555853Y-98800167D01*
X157556050Y-98798321D01*
X157573600Y-98772056D01*
X157583000Y-98724802D01*
X157583000Y-97325200D01*
X157573600Y-97277945D01*
X157556049Y-97251678D01*
X157555852Y-97249832D01*
X157557258Y-97248619D01*
X157559055Y-97249085D01*
X157588833Y-97276074D01*
X157634999Y-97287638D01*
X157681166Y-97276074D01*
X157710944Y-97249085D01*
X157712741Y-97248619D01*
X157714147Y-97249832D01*
G37*
G36*
X157214147Y-97249832D02*
G01*
X157213950Y-97251678D01*
X157196399Y-97277945D01*
X157187000Y-97325200D01*
X157187000Y-98724802D01*
X157196399Y-98772056D01*
X157213949Y-98798321D01*
X157214146Y-98800167D01*
X157212740Y-98801380D01*
X157210943Y-98800914D01*
X157181167Y-98773927D01*
X157135000Y-98762362D01*
X157088832Y-98773927D01*
X157059056Y-98800914D01*
X157057259Y-98801380D01*
X157055853Y-98800167D01*
X157056050Y-98798321D01*
X157073600Y-98772056D01*
X157083000Y-98724802D01*
X157083000Y-97325200D01*
X157073600Y-97277945D01*
X157056049Y-97251678D01*
X157055852Y-97249832D01*
X157057258Y-97248619D01*
X157059055Y-97249085D01*
X157088833Y-97276074D01*
X157134999Y-97287638D01*
X157181166Y-97276074D01*
X157210944Y-97249085D01*
X157212741Y-97248619D01*
X157214147Y-97249832D01*
G37*
G36*
X156714147Y-97249832D02*
G01*
X156713950Y-97251678D01*
X156696399Y-97277945D01*
X156687000Y-97325200D01*
X156687000Y-98724802D01*
X156696399Y-98772056D01*
X156713949Y-98798321D01*
X156714146Y-98800167D01*
X156712740Y-98801380D01*
X156710943Y-98800914D01*
X156681167Y-98773927D01*
X156635000Y-98762362D01*
X156588832Y-98773927D01*
X156559056Y-98800914D01*
X156557259Y-98801380D01*
X156555853Y-98800167D01*
X156556050Y-98798321D01*
X156573600Y-98772056D01*
X156583000Y-98724802D01*
X156583000Y-97325200D01*
X156573600Y-97277945D01*
X156556049Y-97251678D01*
X156555852Y-97249832D01*
X156557258Y-97248619D01*
X156559055Y-97249085D01*
X156588833Y-97276074D01*
X156634999Y-97287638D01*
X156681166Y-97276074D01*
X156710944Y-97249085D01*
X156712741Y-97248619D01*
X156714147Y-97249832D01*
G37*
G36*
X156214147Y-97249832D02*
G01*
X156213950Y-97251678D01*
X156196399Y-97277945D01*
X156187000Y-97325200D01*
X156187000Y-98724802D01*
X156196399Y-98772056D01*
X156213949Y-98798321D01*
X156214146Y-98800167D01*
X156212740Y-98801380D01*
X156210943Y-98800914D01*
X156181167Y-98773927D01*
X156135000Y-98762362D01*
X156088832Y-98773927D01*
X156059056Y-98800914D01*
X156057259Y-98801380D01*
X156055853Y-98800167D01*
X156056050Y-98798321D01*
X156073600Y-98772056D01*
X156083000Y-98724802D01*
X156083000Y-97325200D01*
X156073600Y-97277945D01*
X156056049Y-97251678D01*
X156055852Y-97249832D01*
X156057258Y-97248619D01*
X156059055Y-97249085D01*
X156088833Y-97276074D01*
X156134999Y-97287638D01*
X156181166Y-97276074D01*
X156210944Y-97249085D01*
X156212741Y-97248619D01*
X156214147Y-97249832D01*
G37*
G36*
X155714147Y-97249832D02*
G01*
X155713950Y-97251678D01*
X155696399Y-97277945D01*
X155687000Y-97325200D01*
X155687000Y-98724802D01*
X155696399Y-98772056D01*
X155713949Y-98798321D01*
X155714146Y-98800167D01*
X155712740Y-98801380D01*
X155710943Y-98800914D01*
X155681167Y-98773927D01*
X155635000Y-98762362D01*
X155588832Y-98773927D01*
X155559056Y-98800914D01*
X155557259Y-98801380D01*
X155555853Y-98800167D01*
X155556050Y-98798321D01*
X155573600Y-98772056D01*
X155583000Y-98724802D01*
X155583000Y-97325200D01*
X155573600Y-97277945D01*
X155556049Y-97251678D01*
X155555852Y-97249832D01*
X155557258Y-97248619D01*
X155559055Y-97249085D01*
X155588833Y-97276074D01*
X155634999Y-97287638D01*
X155681166Y-97276074D01*
X155710944Y-97249085D01*
X155712741Y-97248619D01*
X155714147Y-97249832D01*
G37*
G36*
X155214147Y-97249832D02*
G01*
X155213950Y-97251678D01*
X155196399Y-97277945D01*
X155187000Y-97325200D01*
X155187000Y-98724802D01*
X155196399Y-98772056D01*
X155213949Y-98798321D01*
X155214146Y-98800167D01*
X155212740Y-98801380D01*
X155210943Y-98800914D01*
X155181167Y-98773927D01*
X155135000Y-98762362D01*
X155088832Y-98773927D01*
X155059056Y-98800914D01*
X155057259Y-98801380D01*
X155055853Y-98800167D01*
X155056050Y-98798321D01*
X155073600Y-98772056D01*
X155083000Y-98724802D01*
X155083000Y-97325200D01*
X155073600Y-97277945D01*
X155056049Y-97251678D01*
X155055852Y-97249832D01*
X155057258Y-97248619D01*
X155059055Y-97249085D01*
X155088833Y-97276074D01*
X155134999Y-97287638D01*
X155181166Y-97276074D01*
X155210944Y-97249085D01*
X155212741Y-97248619D01*
X155214147Y-97249832D01*
G37*
G36*
X154714147Y-97249832D02*
G01*
X154713950Y-97251678D01*
X154696399Y-97277945D01*
X154687000Y-97325200D01*
X154687000Y-98724802D01*
X154696399Y-98772056D01*
X154713949Y-98798321D01*
X154714146Y-98800167D01*
X154712740Y-98801380D01*
X154710943Y-98800914D01*
X154681167Y-98773927D01*
X154635000Y-98762362D01*
X154588832Y-98773927D01*
X154559056Y-98800914D01*
X154557259Y-98801380D01*
X154555853Y-98800167D01*
X154556050Y-98798321D01*
X154573600Y-98772056D01*
X154583000Y-98724802D01*
X154583000Y-97325200D01*
X154573600Y-97277945D01*
X154556049Y-97251678D01*
X154555852Y-97249832D01*
X154557258Y-97248619D01*
X154559055Y-97249085D01*
X154588833Y-97276074D01*
X154634999Y-97287638D01*
X154681166Y-97276074D01*
X154710944Y-97249085D01*
X154712741Y-97248619D01*
X154714147Y-97249832D01*
G37*
G36*
X154214147Y-97249832D02*
G01*
X154213950Y-97251678D01*
X154196399Y-97277945D01*
X154187000Y-97325200D01*
X154187000Y-98724802D01*
X154196399Y-98772056D01*
X154213949Y-98798321D01*
X154214146Y-98800167D01*
X154212740Y-98801380D01*
X154210943Y-98800914D01*
X154181167Y-98773927D01*
X154135000Y-98762362D01*
X154088832Y-98773927D01*
X154059056Y-98800914D01*
X154057259Y-98801380D01*
X154055853Y-98800167D01*
X154056050Y-98798321D01*
X154073600Y-98772056D01*
X154083000Y-98724802D01*
X154083000Y-97325200D01*
X154073600Y-97277945D01*
X154056049Y-97251678D01*
X154055852Y-97249832D01*
X154057258Y-97248619D01*
X154059055Y-97249085D01*
X154088833Y-97276074D01*
X154134999Y-97287638D01*
X154181166Y-97276074D01*
X154210944Y-97249085D01*
X154212741Y-97248619D01*
X154214147Y-97249832D01*
G37*
G36*
X153714147Y-97249832D02*
G01*
X153713950Y-97251678D01*
X153696399Y-97277945D01*
X153687000Y-97325200D01*
X153687000Y-98724802D01*
X153696399Y-98772056D01*
X153713949Y-98798321D01*
X153714146Y-98800167D01*
X153712740Y-98801380D01*
X153710943Y-98800914D01*
X153681167Y-98773927D01*
X153635000Y-98762362D01*
X153588832Y-98773927D01*
X153559056Y-98800914D01*
X153557259Y-98801380D01*
X153555853Y-98800167D01*
X153556050Y-98798321D01*
X153573600Y-98772056D01*
X153583000Y-98724802D01*
X153583000Y-97325200D01*
X153573600Y-97277945D01*
X153556049Y-97251678D01*
X153555852Y-97249832D01*
X153557258Y-97248619D01*
X153559055Y-97249085D01*
X153588833Y-97276074D01*
X153634999Y-97287638D01*
X153681166Y-97276074D01*
X153710944Y-97249085D01*
X153712741Y-97248619D01*
X153714147Y-97249832D01*
G37*
G36*
X153214147Y-97249832D02*
G01*
X153213950Y-97251678D01*
X153196399Y-97277945D01*
X153187000Y-97325200D01*
X153187000Y-98724802D01*
X153196399Y-98772056D01*
X153213949Y-98798321D01*
X153214146Y-98800167D01*
X153212740Y-98801380D01*
X153210943Y-98800914D01*
X153181167Y-98773927D01*
X153135000Y-98762362D01*
X153088832Y-98773927D01*
X153059056Y-98800914D01*
X153057259Y-98801380D01*
X153055853Y-98800167D01*
X153056050Y-98798321D01*
X153073600Y-98772056D01*
X153083000Y-98724802D01*
X153083000Y-97325200D01*
X153073600Y-97277945D01*
X153056049Y-97251678D01*
X153055852Y-97249832D01*
X153057258Y-97248619D01*
X153059055Y-97249085D01*
X153088833Y-97276074D01*
X153134999Y-97287638D01*
X153181166Y-97276074D01*
X153210944Y-97249085D01*
X153212741Y-97248619D01*
X153214147Y-97249832D01*
G37*
G36*
X152714147Y-97249832D02*
G01*
X152713950Y-97251678D01*
X152696399Y-97277945D01*
X152687000Y-97325200D01*
X152687000Y-98724802D01*
X152696399Y-98772056D01*
X152713949Y-98798321D01*
X152714146Y-98800167D01*
X152712740Y-98801380D01*
X152710943Y-98800914D01*
X152681167Y-98773927D01*
X152635000Y-98762362D01*
X152588832Y-98773927D01*
X152559056Y-98800914D01*
X152557259Y-98801380D01*
X152555853Y-98800167D01*
X152556050Y-98798321D01*
X152573600Y-98772056D01*
X152583000Y-98724802D01*
X152583000Y-97325200D01*
X152573600Y-97277945D01*
X152556049Y-97251678D01*
X152555852Y-97249832D01*
X152557258Y-97248619D01*
X152559055Y-97249085D01*
X152588833Y-97276074D01*
X152634999Y-97287638D01*
X152681166Y-97276074D01*
X152710944Y-97249085D01*
X152712741Y-97248619D01*
X152714147Y-97249832D01*
G37*
G36*
X152214147Y-97249832D02*
G01*
X152213950Y-97251678D01*
X152196399Y-97277945D01*
X152187000Y-97325200D01*
X152187000Y-98724802D01*
X152196399Y-98772056D01*
X152213949Y-98798321D01*
X152214146Y-98800167D01*
X152212740Y-98801380D01*
X152210943Y-98800914D01*
X152181167Y-98773927D01*
X152135000Y-98762362D01*
X152088832Y-98773927D01*
X152059056Y-98800914D01*
X152057259Y-98801380D01*
X152055853Y-98800167D01*
X152056050Y-98798321D01*
X152073600Y-98772056D01*
X152083000Y-98724802D01*
X152083000Y-97325200D01*
X152073600Y-97277945D01*
X152056049Y-97251678D01*
X152055852Y-97249832D01*
X152057258Y-97248619D01*
X152059055Y-97249085D01*
X152088833Y-97276074D01*
X152134999Y-97287638D01*
X152181166Y-97276074D01*
X152210944Y-97249085D01*
X152212741Y-97248619D01*
X152214147Y-97249832D01*
G37*
G36*
X151714147Y-97249832D02*
G01*
X151713950Y-97251678D01*
X151696399Y-97277945D01*
X151687000Y-97325200D01*
X151687000Y-98724802D01*
X151696399Y-98772056D01*
X151713949Y-98798321D01*
X151714146Y-98800167D01*
X151712740Y-98801380D01*
X151710943Y-98800914D01*
X151681167Y-98773927D01*
X151635000Y-98762362D01*
X151588832Y-98773927D01*
X151559056Y-98800914D01*
X151557259Y-98801380D01*
X151555853Y-98800167D01*
X151556050Y-98798321D01*
X151573600Y-98772056D01*
X151583000Y-98724802D01*
X151583000Y-97325200D01*
X151573600Y-97277945D01*
X151556049Y-97251678D01*
X151555852Y-97249832D01*
X151557258Y-97248619D01*
X151559055Y-97249085D01*
X151588833Y-97276074D01*
X151634999Y-97287638D01*
X151681166Y-97276074D01*
X151710944Y-97249085D01*
X151712741Y-97248619D01*
X151714147Y-97249832D01*
G37*
G36*
X151214147Y-97249832D02*
G01*
X151213950Y-97251678D01*
X151196399Y-97277945D01*
X151187000Y-97325200D01*
X151187000Y-98724802D01*
X151196399Y-98772056D01*
X151213949Y-98798321D01*
X151214146Y-98800167D01*
X151212740Y-98801380D01*
X151210943Y-98800914D01*
X151181167Y-98773927D01*
X151135000Y-98762362D01*
X151088832Y-98773927D01*
X151059056Y-98800914D01*
X151057259Y-98801380D01*
X151055853Y-98800167D01*
X151056050Y-98798321D01*
X151073600Y-98772056D01*
X151083000Y-98724802D01*
X151083000Y-97325200D01*
X151073600Y-97277945D01*
X151056049Y-97251678D01*
X151055852Y-97249832D01*
X151057258Y-97248619D01*
X151059055Y-97249085D01*
X151088833Y-97276074D01*
X151134999Y-97287638D01*
X151181166Y-97276074D01*
X151210944Y-97249085D01*
X151212741Y-97248619D01*
X151214147Y-97249832D01*
G37*
G36*
X150714147Y-97249832D02*
G01*
X150713950Y-97251678D01*
X150696399Y-97277945D01*
X150687000Y-97325200D01*
X150687000Y-98724802D01*
X150696399Y-98772056D01*
X150713949Y-98798321D01*
X150714146Y-98800167D01*
X150712740Y-98801380D01*
X150710943Y-98800914D01*
X150681167Y-98773927D01*
X150635000Y-98762362D01*
X150588832Y-98773927D01*
X150559056Y-98800914D01*
X150557259Y-98801380D01*
X150555853Y-98800167D01*
X150556050Y-98798321D01*
X150573600Y-98772056D01*
X150583000Y-98724802D01*
X150583000Y-97325200D01*
X150573600Y-97277945D01*
X150556049Y-97251678D01*
X150555852Y-97249832D01*
X150557258Y-97248619D01*
X150559055Y-97249085D01*
X150588833Y-97276074D01*
X150634999Y-97287638D01*
X150681166Y-97276074D01*
X150710944Y-97249085D01*
X150712741Y-97248619D01*
X150714147Y-97249832D01*
G37*
G36*
X159036677Y-95771050D02*
G01*
X159062944Y-95788601D01*
X159110199Y-95798001D01*
X160509801Y-95798001D01*
X160557055Y-95788601D01*
X160583320Y-95771051D01*
X160585166Y-95770854D01*
X160586379Y-95772260D01*
X160585913Y-95774057D01*
X160558926Y-95803833D01*
X160547361Y-95850001D01*
X160558926Y-95896168D01*
X160585913Y-95925944D01*
X160586379Y-95927741D01*
X160585166Y-95929147D01*
X160583320Y-95928950D01*
X160557055Y-95911400D01*
X160509801Y-95902001D01*
X159110199Y-95902001D01*
X159062944Y-95911400D01*
X159036677Y-95928951D01*
X159034831Y-95929148D01*
X159033618Y-95927742D01*
X159034084Y-95925945D01*
X159061073Y-95896167D01*
X159072637Y-95850001D01*
X159061073Y-95803834D01*
X159034084Y-95774056D01*
X159033618Y-95772259D01*
X159034831Y-95770853D01*
X159036677Y-95771050D01*
G37*
G36*
X147686677Y-95771050D02*
G01*
X147712944Y-95788601D01*
X147760199Y-95798001D01*
X149159801Y-95798001D01*
X149207055Y-95788601D01*
X149233320Y-95771051D01*
X149235166Y-95770854D01*
X149236379Y-95772260D01*
X149235913Y-95774057D01*
X149208926Y-95803833D01*
X149197361Y-95850001D01*
X149208926Y-95896168D01*
X149235913Y-95925944D01*
X149236379Y-95927741D01*
X149235166Y-95929147D01*
X149233320Y-95928950D01*
X149207055Y-95911400D01*
X149159801Y-95902001D01*
X147760199Y-95902001D01*
X147712944Y-95911400D01*
X147686677Y-95928951D01*
X147684831Y-95929148D01*
X147683618Y-95927742D01*
X147684084Y-95925945D01*
X147711073Y-95896167D01*
X147722637Y-95850001D01*
X147711073Y-95803834D01*
X147684084Y-95774056D01*
X147683618Y-95772259D01*
X147684831Y-95770853D01*
X147686677Y-95771050D01*
G37*
G36*
X159036677Y-95271050D02*
G01*
X159062944Y-95288601D01*
X159110199Y-95298001D01*
X160509801Y-95298001D01*
X160557055Y-95288601D01*
X160583320Y-95271051D01*
X160585166Y-95270854D01*
X160586379Y-95272260D01*
X160585913Y-95274057D01*
X160558926Y-95303833D01*
X160547361Y-95350001D01*
X160558926Y-95396168D01*
X160585913Y-95425944D01*
X160586379Y-95427741D01*
X160585166Y-95429147D01*
X160583320Y-95428950D01*
X160557055Y-95411400D01*
X160509801Y-95402001D01*
X159110199Y-95402001D01*
X159062944Y-95411400D01*
X159036677Y-95428951D01*
X159034831Y-95429148D01*
X159033618Y-95427742D01*
X159034084Y-95425945D01*
X159061073Y-95396167D01*
X159072637Y-95350001D01*
X159061073Y-95303834D01*
X159034084Y-95274056D01*
X159033618Y-95272259D01*
X159034831Y-95270853D01*
X159036677Y-95271050D01*
G37*
G36*
X147686677Y-95271050D02*
G01*
X147712944Y-95288601D01*
X147760199Y-95298001D01*
X149159801Y-95298001D01*
X149207055Y-95288601D01*
X149233320Y-95271051D01*
X149235166Y-95270854D01*
X149236379Y-95272260D01*
X149235913Y-95274057D01*
X149208926Y-95303833D01*
X149197361Y-95350001D01*
X149208926Y-95396168D01*
X149235913Y-95425944D01*
X149236379Y-95427741D01*
X149235166Y-95429147D01*
X149233320Y-95428950D01*
X149207055Y-95411400D01*
X149159801Y-95402001D01*
X147760199Y-95402001D01*
X147712944Y-95411400D01*
X147686677Y-95428951D01*
X147684831Y-95429148D01*
X147683618Y-95427742D01*
X147684084Y-95425945D01*
X147711073Y-95396167D01*
X147722637Y-95350001D01*
X147711073Y-95303834D01*
X147684084Y-95274056D01*
X147683618Y-95272259D01*
X147684831Y-95270853D01*
X147686677Y-95271050D01*
G37*
G36*
X159036677Y-94771050D02*
G01*
X159062944Y-94788601D01*
X159110199Y-94798001D01*
X160509801Y-94798001D01*
X160557055Y-94788601D01*
X160583320Y-94771051D01*
X160585166Y-94770854D01*
X160586379Y-94772260D01*
X160585913Y-94774057D01*
X160558926Y-94803833D01*
X160547361Y-94850000D01*
X160558926Y-94896168D01*
X160585913Y-94925944D01*
X160586379Y-94927741D01*
X160585166Y-94929147D01*
X160583320Y-94928950D01*
X160557055Y-94911400D01*
X160509801Y-94902001D01*
X159110199Y-94902001D01*
X159062944Y-94911400D01*
X159036677Y-94928951D01*
X159034831Y-94929148D01*
X159033618Y-94927742D01*
X159034084Y-94925945D01*
X159061073Y-94896167D01*
X159072637Y-94850001D01*
X159061073Y-94803834D01*
X159034084Y-94774056D01*
X159033618Y-94772259D01*
X159034831Y-94770853D01*
X159036677Y-94771050D01*
G37*
G36*
X147686677Y-94771050D02*
G01*
X147712944Y-94788601D01*
X147760199Y-94798001D01*
X149159801Y-94798001D01*
X149207055Y-94788601D01*
X149233320Y-94771051D01*
X149235166Y-94770854D01*
X149236379Y-94772260D01*
X149235913Y-94774057D01*
X149208926Y-94803833D01*
X149197361Y-94850001D01*
X149208926Y-94896168D01*
X149235913Y-94925944D01*
X149236379Y-94927741D01*
X149235166Y-94929147D01*
X149233320Y-94928950D01*
X149207055Y-94911400D01*
X149159801Y-94902001D01*
X147760199Y-94902001D01*
X147712944Y-94911400D01*
X147686677Y-94928951D01*
X147684831Y-94929148D01*
X147683618Y-94927742D01*
X147684084Y-94925945D01*
X147711073Y-94896167D01*
X147722637Y-94850001D01*
X147711073Y-94803834D01*
X147684084Y-94774056D01*
X147683618Y-94772259D01*
X147684831Y-94770853D01*
X147686677Y-94771050D01*
G37*
G36*
X160586379Y-94272260D02*
G01*
X160585913Y-94274057D01*
X160558926Y-94303833D01*
X160547361Y-94350001D01*
X160558926Y-94396168D01*
X160585913Y-94425944D01*
X160586379Y-94427741D01*
X160585166Y-94429147D01*
X160583320Y-94428950D01*
X160557055Y-94411400D01*
X160509801Y-94402001D01*
X159110199Y-94402001D01*
X159062944Y-94411400D01*
X159036677Y-94428951D01*
X159034831Y-94429148D01*
X159033618Y-94427742D01*
X159034084Y-94425945D01*
X159061074Y-94396164D01*
X159072637Y-94349997D01*
X159061071Y-94303831D01*
X159034086Y-94274057D01*
X159033620Y-94272260D01*
X159034833Y-94270854D01*
X159036679Y-94271051D01*
X159062944Y-94288601D01*
X159110199Y-94298001D01*
X160509801Y-94298001D01*
X160557055Y-94288601D01*
X160583320Y-94271051D01*
X160585166Y-94270854D01*
X160586379Y-94272260D01*
G37*
G36*
X149236379Y-94272260D02*
G01*
X149235913Y-94274057D01*
X149208926Y-94303833D01*
X149197361Y-94350000D01*
X149208926Y-94396168D01*
X149235913Y-94425944D01*
X149236379Y-94427741D01*
X149235166Y-94429147D01*
X149233320Y-94428950D01*
X149207055Y-94411400D01*
X149159801Y-94402001D01*
X147760199Y-94402001D01*
X147712944Y-94411400D01*
X147686677Y-94428951D01*
X147684831Y-94429148D01*
X147683618Y-94427742D01*
X147684084Y-94425945D01*
X147711074Y-94396164D01*
X147722637Y-94349997D01*
X147711071Y-94303831D01*
X147684086Y-94274057D01*
X147683620Y-94272260D01*
X147684833Y-94270854D01*
X147686679Y-94271051D01*
X147712944Y-94288601D01*
X147760199Y-94298001D01*
X149159801Y-94298001D01*
X149207055Y-94288601D01*
X149233320Y-94271051D01*
X149235166Y-94270854D01*
X149236379Y-94272260D01*
G37*
G36*
X159036677Y-93771050D02*
G01*
X159062944Y-93788601D01*
X159110199Y-93798001D01*
X160509801Y-93798001D01*
X160557055Y-93788601D01*
X160583320Y-93771051D01*
X160585166Y-93770854D01*
X160586379Y-93772260D01*
X160585913Y-93774057D01*
X160558926Y-93803833D01*
X160547361Y-93850001D01*
X160558926Y-93896168D01*
X160585913Y-93925944D01*
X160586379Y-93927741D01*
X160585166Y-93929147D01*
X160583320Y-93928950D01*
X160557055Y-93911400D01*
X160509801Y-93902001D01*
X159110199Y-93902001D01*
X159062944Y-93911400D01*
X159036677Y-93928951D01*
X159034831Y-93929148D01*
X159033618Y-93927742D01*
X159034084Y-93925945D01*
X159061073Y-93896167D01*
X159072637Y-93850001D01*
X159061073Y-93803834D01*
X159034084Y-93774056D01*
X159033618Y-93772259D01*
X159034831Y-93770853D01*
X159036677Y-93771050D01*
G37*
G36*
X147686677Y-93771050D02*
G01*
X147712944Y-93788601D01*
X147760199Y-93798001D01*
X149159801Y-93798001D01*
X149207055Y-93788601D01*
X149233320Y-93771051D01*
X149235166Y-93770854D01*
X149236379Y-93772260D01*
X149235913Y-93774057D01*
X149208926Y-93803833D01*
X149197361Y-93850001D01*
X149208926Y-93896168D01*
X149235913Y-93925944D01*
X149236379Y-93927741D01*
X149235166Y-93929147D01*
X149233320Y-93928950D01*
X149207055Y-93911400D01*
X149159801Y-93902001D01*
X147760199Y-93902001D01*
X147712944Y-93911400D01*
X147686677Y-93928951D01*
X147684831Y-93929148D01*
X147683618Y-93927742D01*
X147684084Y-93925945D01*
X147711073Y-93896167D01*
X147722637Y-93850001D01*
X147711073Y-93803834D01*
X147684084Y-93774056D01*
X147683618Y-93772259D01*
X147684831Y-93770853D01*
X147686677Y-93771050D01*
G37*
G36*
X159036677Y-93271050D02*
G01*
X159062944Y-93288601D01*
X159110199Y-93298001D01*
X160509801Y-93298001D01*
X160557055Y-93288601D01*
X160583320Y-93271051D01*
X160585166Y-93270854D01*
X160586379Y-93272260D01*
X160585913Y-93274057D01*
X160558926Y-93303833D01*
X160547361Y-93350001D01*
X160558926Y-93396168D01*
X160585913Y-93425944D01*
X160586379Y-93427741D01*
X160585166Y-93429147D01*
X160583320Y-93428950D01*
X160557055Y-93411400D01*
X160509801Y-93402001D01*
X159110199Y-93402001D01*
X159062944Y-93411400D01*
X159036677Y-93428951D01*
X159034831Y-93429148D01*
X159033618Y-93427742D01*
X159034084Y-93425945D01*
X159061073Y-93396167D01*
X159072637Y-93350001D01*
X159061073Y-93303834D01*
X159034084Y-93274056D01*
X159033618Y-93272259D01*
X159034831Y-93270853D01*
X159036677Y-93271050D01*
G37*
G36*
X147686677Y-93271050D02*
G01*
X147712944Y-93288601D01*
X147760199Y-93298001D01*
X149159801Y-93298001D01*
X149207055Y-93288601D01*
X149233320Y-93271051D01*
X149235166Y-93270854D01*
X149236379Y-93272260D01*
X149235913Y-93274057D01*
X149208926Y-93303833D01*
X149197361Y-93350001D01*
X149208926Y-93396168D01*
X149235913Y-93425944D01*
X149236379Y-93427741D01*
X149235166Y-93429147D01*
X149233320Y-93428950D01*
X149207055Y-93411400D01*
X149159801Y-93402001D01*
X147760199Y-93402001D01*
X147712944Y-93411400D01*
X147686677Y-93428951D01*
X147684831Y-93429148D01*
X147683618Y-93427742D01*
X147684084Y-93425945D01*
X147711073Y-93396167D01*
X147722637Y-93350001D01*
X147711073Y-93303834D01*
X147684084Y-93274056D01*
X147683618Y-93272259D01*
X147684831Y-93270853D01*
X147686677Y-93271050D01*
G37*
G36*
X159036677Y-92771050D02*
G01*
X159062944Y-92788601D01*
X159110199Y-92798001D01*
X160509801Y-92798001D01*
X160557055Y-92788601D01*
X160583320Y-92771051D01*
X160585166Y-92770854D01*
X160586379Y-92772260D01*
X160585913Y-92774057D01*
X160558926Y-92803833D01*
X160547361Y-92850000D01*
X160558926Y-92896168D01*
X160585913Y-92925944D01*
X160586379Y-92927741D01*
X160585166Y-92929147D01*
X160583320Y-92928950D01*
X160557055Y-92911400D01*
X160509801Y-92902001D01*
X159110199Y-92902001D01*
X159062944Y-92911400D01*
X159036677Y-92928951D01*
X159034831Y-92929148D01*
X159033618Y-92927742D01*
X159034084Y-92925945D01*
X159061073Y-92896167D01*
X159072637Y-92850000D01*
X159061073Y-92803834D01*
X159034084Y-92774056D01*
X159033618Y-92772259D01*
X159034831Y-92770853D01*
X159036677Y-92771050D01*
G37*
G36*
X147686677Y-92771050D02*
G01*
X147712944Y-92788601D01*
X147760199Y-92798001D01*
X149159801Y-92798001D01*
X149207055Y-92788601D01*
X149233320Y-92771051D01*
X149235166Y-92770854D01*
X149236379Y-92772260D01*
X149235913Y-92774057D01*
X149208926Y-92803833D01*
X149197361Y-92850000D01*
X149208926Y-92896168D01*
X149235913Y-92925944D01*
X149236379Y-92927741D01*
X149235166Y-92929147D01*
X149233320Y-92928950D01*
X149207055Y-92911400D01*
X149159801Y-92902001D01*
X147760199Y-92902001D01*
X147712944Y-92911400D01*
X147686677Y-92928951D01*
X147684831Y-92929148D01*
X147683618Y-92927742D01*
X147684084Y-92925945D01*
X147711073Y-92896167D01*
X147722637Y-92850000D01*
X147711073Y-92803834D01*
X147684084Y-92774056D01*
X147683618Y-92772259D01*
X147684831Y-92770853D01*
X147686677Y-92771050D01*
G37*
G36*
X159036677Y-92271050D02*
G01*
X159062944Y-92288601D01*
X159110199Y-92298001D01*
X160509801Y-92298001D01*
X160557055Y-92288601D01*
X160583320Y-92271051D01*
X160585166Y-92270854D01*
X160586379Y-92272260D01*
X160585913Y-92274057D01*
X160558926Y-92303833D01*
X160547361Y-92350000D01*
X160558926Y-92396168D01*
X160585913Y-92425944D01*
X160586379Y-92427741D01*
X160585166Y-92429147D01*
X160583320Y-92428950D01*
X160557055Y-92411400D01*
X160509801Y-92402001D01*
X159110199Y-92402001D01*
X159062944Y-92411400D01*
X159036677Y-92428951D01*
X159034831Y-92429148D01*
X159033618Y-92427742D01*
X159034084Y-92425945D01*
X159061073Y-92396167D01*
X159072637Y-92350000D01*
X159061073Y-92303834D01*
X159034084Y-92274056D01*
X159033618Y-92272259D01*
X159034831Y-92270853D01*
X159036677Y-92271050D01*
G37*
G36*
X147686677Y-92271050D02*
G01*
X147712944Y-92288601D01*
X147760199Y-92298001D01*
X149159801Y-92298001D01*
X149207055Y-92288601D01*
X149233320Y-92271051D01*
X149235166Y-92270854D01*
X149236379Y-92272260D01*
X149235913Y-92274057D01*
X149208926Y-92303833D01*
X149197361Y-92350000D01*
X149208926Y-92396168D01*
X149235913Y-92425944D01*
X149236379Y-92427741D01*
X149235166Y-92429147D01*
X149233320Y-92428950D01*
X149207055Y-92411400D01*
X149159801Y-92402001D01*
X147760199Y-92402001D01*
X147712944Y-92411400D01*
X147686677Y-92428951D01*
X147684831Y-92429148D01*
X147683618Y-92427742D01*
X147684084Y-92425945D01*
X147711073Y-92396167D01*
X147722637Y-92350000D01*
X147711073Y-92303834D01*
X147684084Y-92274056D01*
X147683618Y-92272259D01*
X147684831Y-92270853D01*
X147686677Y-92271050D01*
G37*
G36*
X159036679Y-91771051D02*
G01*
X159062944Y-91788601D01*
X159110199Y-91798001D01*
X160509801Y-91798001D01*
X160557055Y-91788601D01*
X160583319Y-91771052D01*
X160585165Y-91770855D01*
X160586378Y-91772261D01*
X160585912Y-91774058D01*
X160558927Y-91803830D01*
X160547361Y-91849997D01*
X160558924Y-91896165D01*
X160585914Y-91925945D01*
X160586380Y-91927742D01*
X160585167Y-91929148D01*
X160583321Y-91928951D01*
X160557055Y-91911400D01*
X160509801Y-91902001D01*
X159110199Y-91902001D01*
X159062944Y-91911400D01*
X159036677Y-91928951D01*
X159034831Y-91929148D01*
X159033618Y-91927742D01*
X159034084Y-91925945D01*
X159061074Y-91896164D01*
X159072637Y-91849997D01*
X159061071Y-91803831D01*
X159034086Y-91774057D01*
X159033620Y-91772260D01*
X159034833Y-91770854D01*
X159036679Y-91771051D01*
G37*
G36*
X147686679Y-91771051D02*
G01*
X147712944Y-91788601D01*
X147760199Y-91798001D01*
X149159801Y-91798001D01*
X149207055Y-91788601D01*
X149233319Y-91771052D01*
X149235165Y-91770855D01*
X149236378Y-91772261D01*
X149235912Y-91774058D01*
X149208927Y-91803830D01*
X149197361Y-91849997D01*
X149208924Y-91896165D01*
X149235914Y-91925945D01*
X149236380Y-91927742D01*
X149235167Y-91929148D01*
X149233321Y-91928951D01*
X149207055Y-91911400D01*
X149159801Y-91902001D01*
X147760199Y-91902001D01*
X147712944Y-91911400D01*
X147686677Y-91928951D01*
X147684831Y-91929148D01*
X147683618Y-91927742D01*
X147684084Y-91925945D01*
X147711074Y-91896164D01*
X147722637Y-91849997D01*
X147711071Y-91803831D01*
X147684086Y-91774057D01*
X147683620Y-91772260D01*
X147684833Y-91770854D01*
X147686679Y-91771051D01*
G37*
G36*
X159036677Y-91271050D02*
G01*
X159062944Y-91288601D01*
X159110199Y-91298001D01*
X160509801Y-91298001D01*
X160557055Y-91288601D01*
X160583320Y-91271051D01*
X160585166Y-91270854D01*
X160586379Y-91272260D01*
X160585913Y-91274057D01*
X160558926Y-91303833D01*
X160547361Y-91350001D01*
X160558926Y-91396168D01*
X160585913Y-91425944D01*
X160586379Y-91427741D01*
X160585166Y-91429147D01*
X160583320Y-91428950D01*
X160557055Y-91411400D01*
X160509801Y-91402001D01*
X159110199Y-91402001D01*
X159062944Y-91411400D01*
X159036677Y-91428951D01*
X159034831Y-91429148D01*
X159033618Y-91427742D01*
X159034084Y-91425945D01*
X159061073Y-91396167D01*
X159072637Y-91350000D01*
X159061073Y-91303834D01*
X159034084Y-91274056D01*
X159033618Y-91272259D01*
X159034831Y-91270853D01*
X159036677Y-91271050D01*
G37*
G36*
X147686677Y-91271050D02*
G01*
X147712944Y-91288601D01*
X147760199Y-91298001D01*
X149159801Y-91298001D01*
X149207055Y-91288601D01*
X149233320Y-91271051D01*
X149235166Y-91270854D01*
X149236379Y-91272260D01*
X149235913Y-91274057D01*
X149208926Y-91303833D01*
X149197361Y-91350001D01*
X149208926Y-91396168D01*
X149235913Y-91425944D01*
X149236379Y-91427741D01*
X149235166Y-91429147D01*
X149233320Y-91428950D01*
X149207055Y-91411400D01*
X149159801Y-91402001D01*
X147760199Y-91402001D01*
X147712944Y-91411400D01*
X147686677Y-91428951D01*
X147684831Y-91429148D01*
X147683618Y-91427742D01*
X147684084Y-91425945D01*
X147711073Y-91396167D01*
X147722637Y-91350000D01*
X147711073Y-91303834D01*
X147684084Y-91274056D01*
X147683618Y-91272259D01*
X147684831Y-91270853D01*
X147686677Y-91271050D01*
G37*
G36*
X159036677Y-90771050D02*
G01*
X159062944Y-90788601D01*
X159110199Y-90798001D01*
X160509801Y-90798001D01*
X160557055Y-90788601D01*
X160583320Y-90771051D01*
X160585166Y-90770854D01*
X160586379Y-90772260D01*
X160585913Y-90774057D01*
X160558926Y-90803833D01*
X160547361Y-90850000D01*
X160558926Y-90896168D01*
X160585913Y-90925944D01*
X160586379Y-90927741D01*
X160585166Y-90929147D01*
X160583320Y-90928950D01*
X160557055Y-90911400D01*
X160509801Y-90902001D01*
X159110199Y-90902001D01*
X159062944Y-90911400D01*
X159036677Y-90928951D01*
X159034831Y-90929148D01*
X159033618Y-90927742D01*
X159034084Y-90925945D01*
X159061073Y-90896167D01*
X159072637Y-90850000D01*
X159061073Y-90803834D01*
X159034084Y-90774056D01*
X159033618Y-90772259D01*
X159034831Y-90770853D01*
X159036677Y-90771050D01*
G37*
G36*
X147686677Y-90771050D02*
G01*
X147712944Y-90788601D01*
X147760199Y-90798001D01*
X149159801Y-90798001D01*
X149207055Y-90788601D01*
X149233320Y-90771051D01*
X149235166Y-90770854D01*
X149236379Y-90772260D01*
X149235913Y-90774057D01*
X149208926Y-90803833D01*
X149197361Y-90850000D01*
X149208926Y-90896168D01*
X149235913Y-90925944D01*
X149236379Y-90927741D01*
X149235166Y-90929147D01*
X149233320Y-90928950D01*
X149207055Y-90911400D01*
X149159801Y-90902001D01*
X147760199Y-90902001D01*
X147712944Y-90911400D01*
X147686677Y-90928951D01*
X147684831Y-90929148D01*
X147683618Y-90927742D01*
X147684084Y-90925945D01*
X147711073Y-90896167D01*
X147722637Y-90850000D01*
X147711073Y-90803834D01*
X147684084Y-90774056D01*
X147683618Y-90772259D01*
X147684831Y-90770853D01*
X147686677Y-90771050D01*
G37*
G36*
X159036677Y-90271050D02*
G01*
X159062944Y-90288601D01*
X159110199Y-90298001D01*
X160509801Y-90298001D01*
X160557055Y-90288601D01*
X160583320Y-90271051D01*
X160585166Y-90270854D01*
X160586379Y-90272260D01*
X160585913Y-90274057D01*
X160558926Y-90303833D01*
X160547361Y-90350000D01*
X160558926Y-90396168D01*
X160585913Y-90425944D01*
X160586379Y-90427741D01*
X160585166Y-90429147D01*
X160583320Y-90428950D01*
X160557055Y-90411400D01*
X160509801Y-90402001D01*
X159110199Y-90402001D01*
X159062944Y-90411400D01*
X159036677Y-90428951D01*
X159034831Y-90429148D01*
X159033618Y-90427742D01*
X159034084Y-90425945D01*
X159061073Y-90396167D01*
X159072637Y-90350001D01*
X159061073Y-90303834D01*
X159034084Y-90274056D01*
X159033618Y-90272259D01*
X159034831Y-90270853D01*
X159036677Y-90271050D01*
G37*
G36*
X147686677Y-90271050D02*
G01*
X147712944Y-90288601D01*
X147760199Y-90298001D01*
X149159801Y-90298001D01*
X149207055Y-90288601D01*
X149233320Y-90271051D01*
X149235166Y-90270854D01*
X149236379Y-90272260D01*
X149235913Y-90274057D01*
X149208926Y-90303833D01*
X149197361Y-90350001D01*
X149208926Y-90396168D01*
X149235913Y-90425944D01*
X149236379Y-90427741D01*
X149235166Y-90429147D01*
X149233320Y-90428950D01*
X149207055Y-90411400D01*
X149159801Y-90402001D01*
X147760199Y-90402001D01*
X147712944Y-90411400D01*
X147686677Y-90428951D01*
X147684831Y-90429148D01*
X147683618Y-90427742D01*
X147684084Y-90425945D01*
X147711073Y-90396167D01*
X147722637Y-90350001D01*
X147711073Y-90303834D01*
X147684084Y-90274056D01*
X147683618Y-90272259D01*
X147684831Y-90270853D01*
X147686677Y-90271050D01*
G37*
G36*
X160586379Y-89772260D02*
G01*
X160585913Y-89774057D01*
X160558926Y-89803833D01*
X160547361Y-89850001D01*
X160558926Y-89896168D01*
X160585913Y-89925944D01*
X160586379Y-89927741D01*
X160585166Y-89929147D01*
X160583320Y-89928950D01*
X160557055Y-89911400D01*
X160509801Y-89902001D01*
X159110199Y-89902001D01*
X159062944Y-89911400D01*
X159036677Y-89928951D01*
X159034831Y-89929148D01*
X159033618Y-89927742D01*
X159034084Y-89925945D01*
X159061074Y-89896164D01*
X159072637Y-89849997D01*
X159061071Y-89803831D01*
X159034086Y-89774057D01*
X159033620Y-89772260D01*
X159034833Y-89770854D01*
X159036679Y-89771051D01*
X159062944Y-89788601D01*
X159110199Y-89798001D01*
X160509801Y-89798001D01*
X160557055Y-89788601D01*
X160583320Y-89771051D01*
X160585166Y-89770854D01*
X160586379Y-89772260D01*
G37*
G36*
X149236379Y-89772260D02*
G01*
X149235913Y-89774057D01*
X149208926Y-89803833D01*
X149197361Y-89850000D01*
X149208926Y-89896168D01*
X149235913Y-89925944D01*
X149236379Y-89927741D01*
X149235166Y-89929147D01*
X149233320Y-89928950D01*
X149207055Y-89911400D01*
X149159801Y-89902001D01*
X147760199Y-89902001D01*
X147712944Y-89911400D01*
X147686677Y-89928951D01*
X147684831Y-89929148D01*
X147683618Y-89927742D01*
X147684084Y-89925945D01*
X147711074Y-89896164D01*
X147722637Y-89849997D01*
X147711071Y-89803831D01*
X147684086Y-89774057D01*
X147683620Y-89772260D01*
X147684833Y-89770854D01*
X147686679Y-89771051D01*
X147712944Y-89788601D01*
X147760199Y-89798001D01*
X149159801Y-89798001D01*
X149207055Y-89788601D01*
X149233320Y-89771051D01*
X149235166Y-89770854D01*
X149236379Y-89772260D01*
G37*
G36*
X159036677Y-89271050D02*
G01*
X159062944Y-89288601D01*
X159110199Y-89298001D01*
X160509801Y-89298001D01*
X160557055Y-89288601D01*
X160583320Y-89271051D01*
X160585166Y-89270854D01*
X160586379Y-89272260D01*
X160585913Y-89274057D01*
X160558926Y-89303833D01*
X160547361Y-89350001D01*
X160558926Y-89396168D01*
X160585913Y-89425944D01*
X160586379Y-89427741D01*
X160585166Y-89429147D01*
X160583320Y-89428950D01*
X160557055Y-89411400D01*
X160509801Y-89402001D01*
X159110199Y-89402001D01*
X159062944Y-89411400D01*
X159036677Y-89428951D01*
X159034831Y-89429148D01*
X159033618Y-89427742D01*
X159034084Y-89425945D01*
X159061073Y-89396167D01*
X159072637Y-89350000D01*
X159061073Y-89303834D01*
X159034084Y-89274056D01*
X159033618Y-89272259D01*
X159034831Y-89270853D01*
X159036677Y-89271050D01*
G37*
G36*
X147686677Y-89271050D02*
G01*
X147712944Y-89288601D01*
X147760199Y-89298001D01*
X149159801Y-89298001D01*
X149207055Y-89288601D01*
X149233320Y-89271051D01*
X149235166Y-89270854D01*
X149236379Y-89272260D01*
X149235913Y-89274057D01*
X149208926Y-89303833D01*
X149197361Y-89350001D01*
X149208926Y-89396168D01*
X149235913Y-89425944D01*
X149236379Y-89427741D01*
X149235166Y-89429147D01*
X149233320Y-89428950D01*
X149207055Y-89411400D01*
X149159801Y-89402001D01*
X147760199Y-89402001D01*
X147712944Y-89411400D01*
X147686677Y-89428951D01*
X147684831Y-89429148D01*
X147683618Y-89427742D01*
X147684084Y-89425945D01*
X147711073Y-89396167D01*
X147722637Y-89350000D01*
X147711073Y-89303834D01*
X147684084Y-89274056D01*
X147683618Y-89272259D01*
X147684831Y-89270853D01*
X147686677Y-89271050D01*
G37*
G36*
X159036677Y-88771050D02*
G01*
X159062944Y-88788601D01*
X159110199Y-88798001D01*
X160509801Y-88798001D01*
X160557055Y-88788601D01*
X160583319Y-88771052D01*
X160585165Y-88770855D01*
X160586378Y-88772261D01*
X160585912Y-88774058D01*
X160558927Y-88803830D01*
X160547361Y-88849997D01*
X160558924Y-88896165D01*
X160585914Y-88925945D01*
X160586380Y-88927742D01*
X160585167Y-88929148D01*
X160583321Y-88928951D01*
X160557055Y-88911400D01*
X160509801Y-88902001D01*
X159110199Y-88902001D01*
X159062944Y-88911400D01*
X159036677Y-88928951D01*
X159034831Y-88929148D01*
X159033618Y-88927742D01*
X159034084Y-88925945D01*
X159061073Y-88896167D01*
X159072637Y-88850001D01*
X159061073Y-88803834D01*
X159034084Y-88774056D01*
X159033618Y-88772259D01*
X159034831Y-88770853D01*
X159036677Y-88771050D01*
G37*
G36*
X147686677Y-88771050D02*
G01*
X147712944Y-88788601D01*
X147760199Y-88798001D01*
X149159801Y-88798001D01*
X149207055Y-88788601D01*
X149233319Y-88771052D01*
X149235165Y-88770855D01*
X149236378Y-88772261D01*
X149235912Y-88774058D01*
X149208927Y-88803830D01*
X149197361Y-88849997D01*
X149208924Y-88896165D01*
X149235914Y-88925945D01*
X149236380Y-88927742D01*
X149235167Y-88929148D01*
X149233321Y-88928951D01*
X149207055Y-88911400D01*
X149159801Y-88902001D01*
X147760199Y-88902001D01*
X147712944Y-88911400D01*
X147686677Y-88928951D01*
X147684831Y-88929148D01*
X147683618Y-88927742D01*
X147684084Y-88925945D01*
X147711073Y-88896167D01*
X147722637Y-88850001D01*
X147711073Y-88803834D01*
X147684084Y-88774056D01*
X147683618Y-88772259D01*
X147684831Y-88770853D01*
X147686677Y-88771050D01*
G37*
G36*
X157714147Y-85899832D02*
G01*
X157713950Y-85901678D01*
X157696399Y-85927945D01*
X157687000Y-85975200D01*
X157687000Y-87374802D01*
X157696399Y-87422056D01*
X157713949Y-87448321D01*
X157714146Y-87450167D01*
X157712740Y-87451380D01*
X157710943Y-87450914D01*
X157681167Y-87423927D01*
X157635000Y-87412362D01*
X157588832Y-87423927D01*
X157559056Y-87450914D01*
X157557259Y-87451380D01*
X157555853Y-87450167D01*
X157556050Y-87448321D01*
X157573600Y-87422056D01*
X157583000Y-87374802D01*
X157583000Y-85975200D01*
X157573600Y-85927945D01*
X157556049Y-85901678D01*
X157555852Y-85899832D01*
X157557258Y-85898619D01*
X157559055Y-85899085D01*
X157588833Y-85926074D01*
X157635000Y-85937638D01*
X157681166Y-85926074D01*
X157710944Y-85899085D01*
X157712741Y-85898619D01*
X157714147Y-85899832D01*
G37*
G36*
X157214147Y-85899832D02*
G01*
X157213950Y-85901678D01*
X157196399Y-85927945D01*
X157187000Y-85975200D01*
X157187000Y-87374802D01*
X157196399Y-87422056D01*
X157213949Y-87448321D01*
X157214146Y-87450167D01*
X157212740Y-87451380D01*
X157210943Y-87450914D01*
X157181167Y-87423927D01*
X157135000Y-87412362D01*
X157088832Y-87423927D01*
X157059056Y-87450914D01*
X157057259Y-87451380D01*
X157055853Y-87450167D01*
X157056050Y-87448321D01*
X157073600Y-87422056D01*
X157083000Y-87374802D01*
X157083000Y-85975200D01*
X157073600Y-85927945D01*
X157056049Y-85901678D01*
X157055852Y-85899832D01*
X157057258Y-85898619D01*
X157059055Y-85899085D01*
X157088833Y-85926074D01*
X157135000Y-85937638D01*
X157181166Y-85926074D01*
X157210944Y-85899085D01*
X157212741Y-85898619D01*
X157214147Y-85899832D01*
G37*
G36*
X156714147Y-85899832D02*
G01*
X156713950Y-85901678D01*
X156696399Y-85927945D01*
X156687000Y-85975200D01*
X156687000Y-87374802D01*
X156696399Y-87422056D01*
X156713949Y-87448321D01*
X156714146Y-87450167D01*
X156712740Y-87451380D01*
X156710943Y-87450914D01*
X156681167Y-87423927D01*
X156635000Y-87412362D01*
X156588832Y-87423927D01*
X156559056Y-87450914D01*
X156557259Y-87451380D01*
X156555853Y-87450167D01*
X156556050Y-87448321D01*
X156573600Y-87422056D01*
X156583000Y-87374802D01*
X156583000Y-85975200D01*
X156573600Y-85927945D01*
X156556049Y-85901678D01*
X156555852Y-85899832D01*
X156557258Y-85898619D01*
X156559055Y-85899085D01*
X156588833Y-85926074D01*
X156635000Y-85937638D01*
X156681166Y-85926074D01*
X156710944Y-85899085D01*
X156712741Y-85898619D01*
X156714147Y-85899832D01*
G37*
G36*
X156214147Y-85899832D02*
G01*
X156213950Y-85901678D01*
X156196399Y-85927945D01*
X156187000Y-85975200D01*
X156187000Y-87374802D01*
X156196399Y-87422056D01*
X156213949Y-87448321D01*
X156214146Y-87450167D01*
X156212740Y-87451380D01*
X156210943Y-87450914D01*
X156181167Y-87423927D01*
X156135000Y-87412362D01*
X156088832Y-87423927D01*
X156059056Y-87450914D01*
X156057259Y-87451380D01*
X156055853Y-87450167D01*
X156056050Y-87448321D01*
X156073600Y-87422056D01*
X156083000Y-87374802D01*
X156083000Y-85975200D01*
X156073600Y-85927945D01*
X156056049Y-85901678D01*
X156055852Y-85899832D01*
X156057258Y-85898619D01*
X156059055Y-85899085D01*
X156088833Y-85926074D01*
X156135000Y-85937638D01*
X156181166Y-85926074D01*
X156210944Y-85899085D01*
X156212741Y-85898619D01*
X156214147Y-85899832D01*
G37*
G36*
X155714147Y-85899832D02*
G01*
X155713950Y-85901678D01*
X155696399Y-85927945D01*
X155687000Y-85975200D01*
X155687000Y-87374802D01*
X155696399Y-87422056D01*
X155713949Y-87448321D01*
X155714146Y-87450167D01*
X155712740Y-87451380D01*
X155710943Y-87450914D01*
X155681167Y-87423927D01*
X155635000Y-87412362D01*
X155588832Y-87423927D01*
X155559056Y-87450914D01*
X155557259Y-87451380D01*
X155555853Y-87450167D01*
X155556050Y-87448321D01*
X155573600Y-87422056D01*
X155583000Y-87374802D01*
X155583000Y-85975200D01*
X155573600Y-85927945D01*
X155556049Y-85901678D01*
X155555852Y-85899832D01*
X155557258Y-85898619D01*
X155559055Y-85899085D01*
X155588833Y-85926074D01*
X155635000Y-85937638D01*
X155681166Y-85926074D01*
X155710944Y-85899085D01*
X155712741Y-85898619D01*
X155714147Y-85899832D01*
G37*
G36*
X155214147Y-85899832D02*
G01*
X155213950Y-85901678D01*
X155196399Y-85927945D01*
X155187000Y-85975200D01*
X155187000Y-87374802D01*
X155196399Y-87422056D01*
X155213949Y-87448321D01*
X155214146Y-87450167D01*
X155212740Y-87451380D01*
X155210943Y-87450914D01*
X155181167Y-87423927D01*
X155135000Y-87412362D01*
X155088832Y-87423927D01*
X155059056Y-87450914D01*
X155057259Y-87451380D01*
X155055853Y-87450167D01*
X155056050Y-87448321D01*
X155073600Y-87422056D01*
X155083000Y-87374802D01*
X155083000Y-85975200D01*
X155073600Y-85927945D01*
X155056049Y-85901678D01*
X155055852Y-85899832D01*
X155057258Y-85898619D01*
X155059055Y-85899085D01*
X155088833Y-85926074D01*
X155135000Y-85937638D01*
X155181166Y-85926074D01*
X155210944Y-85899085D01*
X155212741Y-85898619D01*
X155214147Y-85899832D01*
G37*
G36*
X154714147Y-85899832D02*
G01*
X154713950Y-85901678D01*
X154696399Y-85927945D01*
X154687000Y-85975200D01*
X154687000Y-87374802D01*
X154696399Y-87422056D01*
X154713949Y-87448321D01*
X154714146Y-87450167D01*
X154712740Y-87451380D01*
X154710943Y-87450914D01*
X154681167Y-87423927D01*
X154635000Y-87412362D01*
X154588832Y-87423927D01*
X154559056Y-87450914D01*
X154557259Y-87451380D01*
X154555853Y-87450167D01*
X154556050Y-87448321D01*
X154573600Y-87422056D01*
X154583000Y-87374802D01*
X154583000Y-85975200D01*
X154573600Y-85927945D01*
X154556049Y-85901678D01*
X154555852Y-85899832D01*
X154557258Y-85898619D01*
X154559055Y-85899085D01*
X154588833Y-85926074D01*
X154635000Y-85937638D01*
X154681166Y-85926074D01*
X154710944Y-85899085D01*
X154712741Y-85898619D01*
X154714147Y-85899832D01*
G37*
G36*
X154214147Y-85899832D02*
G01*
X154213950Y-85901678D01*
X154196399Y-85927945D01*
X154187000Y-85975200D01*
X154187000Y-87374802D01*
X154196399Y-87422056D01*
X154213949Y-87448321D01*
X154214146Y-87450167D01*
X154212740Y-87451380D01*
X154210943Y-87450914D01*
X154181167Y-87423927D01*
X154135000Y-87412362D01*
X154088832Y-87423927D01*
X154059056Y-87450914D01*
X154057259Y-87451380D01*
X154055853Y-87450167D01*
X154056050Y-87448321D01*
X154073600Y-87422056D01*
X154083000Y-87374802D01*
X154083000Y-85975200D01*
X154073600Y-85927945D01*
X154056049Y-85901678D01*
X154055852Y-85899832D01*
X154057258Y-85898619D01*
X154059055Y-85899085D01*
X154088833Y-85926074D01*
X154135000Y-85937638D01*
X154181166Y-85926074D01*
X154210944Y-85899085D01*
X154212741Y-85898619D01*
X154214147Y-85899832D01*
G37*
G36*
X153714147Y-85899832D02*
G01*
X153713950Y-85901678D01*
X153696399Y-85927945D01*
X153687000Y-85975200D01*
X153687000Y-87374802D01*
X153696399Y-87422056D01*
X153713949Y-87448321D01*
X153714146Y-87450167D01*
X153712740Y-87451380D01*
X153710943Y-87450914D01*
X153681167Y-87423927D01*
X153635000Y-87412362D01*
X153588832Y-87423927D01*
X153559056Y-87450914D01*
X153557259Y-87451380D01*
X153555853Y-87450167D01*
X153556050Y-87448321D01*
X153573600Y-87422056D01*
X153583000Y-87374802D01*
X153583000Y-85975200D01*
X153573600Y-85927945D01*
X153556049Y-85901678D01*
X153555852Y-85899832D01*
X153557258Y-85898619D01*
X153559055Y-85899085D01*
X153588833Y-85926074D01*
X153635000Y-85937638D01*
X153681166Y-85926074D01*
X153710944Y-85899085D01*
X153712741Y-85898619D01*
X153714147Y-85899832D01*
G37*
G36*
X153214147Y-85899832D02*
G01*
X153213950Y-85901678D01*
X153196399Y-85927945D01*
X153187000Y-85975200D01*
X153187000Y-87374802D01*
X153196399Y-87422056D01*
X153213949Y-87448321D01*
X153214146Y-87450167D01*
X153212740Y-87451380D01*
X153210943Y-87450914D01*
X153181167Y-87423927D01*
X153135000Y-87412362D01*
X153088832Y-87423927D01*
X153059056Y-87450914D01*
X153057259Y-87451380D01*
X153055853Y-87450167D01*
X153056050Y-87448321D01*
X153073600Y-87422056D01*
X153083000Y-87374802D01*
X153083000Y-85975200D01*
X153073600Y-85927945D01*
X153056049Y-85901678D01*
X153055852Y-85899832D01*
X153057258Y-85898619D01*
X153059055Y-85899085D01*
X153088833Y-85926074D01*
X153135000Y-85937638D01*
X153181166Y-85926074D01*
X153210944Y-85899085D01*
X153212741Y-85898619D01*
X153214147Y-85899832D01*
G37*
G36*
X152714147Y-85899832D02*
G01*
X152713950Y-85901678D01*
X152696399Y-85927945D01*
X152687000Y-85975200D01*
X152687000Y-87374802D01*
X152696399Y-87422056D01*
X152713949Y-87448321D01*
X152714146Y-87450167D01*
X152712740Y-87451380D01*
X152710943Y-87450914D01*
X152681167Y-87423927D01*
X152635000Y-87412362D01*
X152588832Y-87423927D01*
X152559056Y-87450914D01*
X152557259Y-87451380D01*
X152555853Y-87450167D01*
X152556050Y-87448321D01*
X152573600Y-87422056D01*
X152583000Y-87374802D01*
X152583000Y-85975200D01*
X152573600Y-85927945D01*
X152556049Y-85901678D01*
X152555852Y-85899832D01*
X152557258Y-85898619D01*
X152559055Y-85899085D01*
X152588833Y-85926074D01*
X152635000Y-85937638D01*
X152681166Y-85926074D01*
X152710944Y-85899085D01*
X152712741Y-85898619D01*
X152714147Y-85899832D01*
G37*
G36*
X152214147Y-85899832D02*
G01*
X152213950Y-85901678D01*
X152196399Y-85927945D01*
X152187000Y-85975200D01*
X152187000Y-87374802D01*
X152196399Y-87422056D01*
X152213949Y-87448321D01*
X152214146Y-87450167D01*
X152212740Y-87451380D01*
X152210943Y-87450914D01*
X152181167Y-87423927D01*
X152135000Y-87412362D01*
X152088832Y-87423927D01*
X152059056Y-87450914D01*
X152057259Y-87451380D01*
X152055853Y-87450167D01*
X152056050Y-87448321D01*
X152073600Y-87422056D01*
X152083000Y-87374802D01*
X152083000Y-85975200D01*
X152073600Y-85927945D01*
X152056049Y-85901678D01*
X152055852Y-85899832D01*
X152057258Y-85898619D01*
X152059055Y-85899085D01*
X152088833Y-85926074D01*
X152135000Y-85937638D01*
X152181166Y-85926074D01*
X152210944Y-85899085D01*
X152212741Y-85898619D01*
X152214147Y-85899832D01*
G37*
G36*
X151714147Y-85899832D02*
G01*
X151713950Y-85901678D01*
X151696399Y-85927945D01*
X151687000Y-85975200D01*
X151687000Y-87374802D01*
X151696399Y-87422056D01*
X151713949Y-87448321D01*
X151714146Y-87450167D01*
X151712740Y-87451380D01*
X151710943Y-87450914D01*
X151681167Y-87423927D01*
X151635000Y-87412362D01*
X151588832Y-87423927D01*
X151559056Y-87450914D01*
X151557259Y-87451380D01*
X151555853Y-87450167D01*
X151556050Y-87448321D01*
X151573600Y-87422056D01*
X151583000Y-87374802D01*
X151583000Y-85975200D01*
X151573600Y-85927945D01*
X151556049Y-85901678D01*
X151555852Y-85899832D01*
X151557258Y-85898619D01*
X151559055Y-85899085D01*
X151588833Y-85926074D01*
X151635000Y-85937638D01*
X151681166Y-85926074D01*
X151710944Y-85899085D01*
X151712741Y-85898619D01*
X151714147Y-85899832D01*
G37*
G36*
X151214147Y-85899832D02*
G01*
X151213950Y-85901678D01*
X151196399Y-85927945D01*
X151187000Y-85975200D01*
X151187000Y-87374802D01*
X151196399Y-87422056D01*
X151213949Y-87448321D01*
X151214146Y-87450167D01*
X151212740Y-87451380D01*
X151210943Y-87450914D01*
X151181167Y-87423927D01*
X151135000Y-87412362D01*
X151088832Y-87423927D01*
X151059056Y-87450914D01*
X151057259Y-87451380D01*
X151055853Y-87450167D01*
X151056050Y-87448321D01*
X151073600Y-87422056D01*
X151083000Y-87374802D01*
X151083000Y-85975200D01*
X151073600Y-85927945D01*
X151056049Y-85901678D01*
X151055852Y-85899832D01*
X151057258Y-85898619D01*
X151059055Y-85899085D01*
X151088833Y-85926074D01*
X151135000Y-85937638D01*
X151181166Y-85926074D01*
X151210944Y-85899085D01*
X151212741Y-85898619D01*
X151214147Y-85899832D01*
G37*
G36*
X150714147Y-85899832D02*
G01*
X150713950Y-85901678D01*
X150696399Y-85927945D01*
X150687000Y-85975200D01*
X150687000Y-87374802D01*
X150696399Y-87422056D01*
X150713949Y-87448321D01*
X150714146Y-87450167D01*
X150712740Y-87451380D01*
X150710943Y-87450914D01*
X150681167Y-87423927D01*
X150635000Y-87412362D01*
X150588832Y-87423927D01*
X150559056Y-87450914D01*
X150557259Y-87451380D01*
X150555853Y-87450167D01*
X150556050Y-87448321D01*
X150573600Y-87422056D01*
X150583000Y-87374802D01*
X150583000Y-85975200D01*
X150573600Y-85927945D01*
X150556049Y-85901678D01*
X150555852Y-85899832D01*
X150557258Y-85898619D01*
X150559055Y-85899085D01*
X150588833Y-85926074D01*
X150635000Y-85937638D01*
X150681166Y-85926074D01*
X150710944Y-85899085D01*
X150712741Y-85898619D01*
X150714147Y-85899832D01*
G37*
M02*
