%TF.GenerationSoftware,KiCad,Pcbnew,(6.0.8)*%
%TF.CreationDate,2022-10-25T21:38:08+02:00*%
%TF.ProjectId,stm_v3,73746d5f-7633-42e6-9b69-6361645f7063,rev?*%
%TF.SameCoordinates,Original*%
%TF.FileFunction,Copper,L2,Inr*%
%TF.FilePolarity,Positive*%
%FSLAX46Y46*%
G04 Gerber Fmt 4.6, Leading zero omitted, Abs format (unit mm)*
G04 Created by KiCad (PCBNEW (6.0.8)) date 2022-10-25 21:38:08*
%MOMM*%
%LPD*%
G01*
G04 APERTURE LIST*
%TA.AperFunction,ComponentPad*%
%ADD10R,1.700000X1.700000*%
%TD*%
%TA.AperFunction,ComponentPad*%
%ADD11O,1.700000X1.700000*%
%TD*%
%TA.AperFunction,ViaPad*%
%ADD12C,0.800000*%
%TD*%
G04 APERTURE END LIST*
D10*
%TO.N,+3.3V*%
%TO.C,J1*%
X151830000Y-96580000D03*
D11*
%TO.N,/Connectors/SDA*%
X151830000Y-99120000D03*
%TO.N,/Connectors/SCL*%
X151830000Y-101660000D03*
%TO.N,GND*%
X151830000Y-104200000D03*
%TD*%
D10*
%TO.N,+3.3V*%
%TO.C,J2*%
X140005000Y-93895000D03*
D11*
%TO.N,/Connectors/SW_DIO*%
X142545000Y-93895000D03*
%TO.N,GND*%
X140005000Y-96435000D03*
%TO.N,/Connectors/SW_CLK*%
X142545000Y-96435000D03*
%TO.N,GND*%
X140005000Y-98975000D03*
%TO.N,/Connectors/SW_O*%
X142545000Y-98975000D03*
%TO.N,unconnected-(J2-Pad7)*%
X140005000Y-101515000D03*
%TO.N,unconnected-(J2-Pad8)*%
X142545000Y-101515000D03*
%TO.N,GND*%
X140005000Y-104055000D03*
%TO.N,/Connectors/N_RST*%
X142545000Y-104055000D03*
%TD*%
D12*
%TO.N,SWO*%
X154117500Y-75110000D03*
%TO.N,SWCLK*%
X158027500Y-73360000D03*
%TO.N,SWDIO*%
X157537500Y-76560000D03*
X146140000Y-91170000D03*
%TO.N,SWCLK*%
X145290000Y-92570000D03*
%TO.N,SWO*%
X145290000Y-97400000D03*
%TO.N,KLine_RX*%
X168390500Y-87140000D03*
%TO.N,BAT_V*%
X159770000Y-89050000D03*
X153617500Y-83330000D03*
%TO.N,GND*%
X156970000Y-90170000D03*
%TO.N,/Power Supply/SW*%
X169790000Y-96180000D03*
%TO.N,KLine_RX*%
X157367500Y-78060000D03*
%TO.N,+3.3V*%
X154660000Y-92740000D03*
X158817500Y-87060000D03*
X151867500Y-87060000D03*
X161367500Y-74040000D03*
X165500000Y-67710000D03*
X157900000Y-102310000D03*
X145417500Y-82810000D03*
X144847500Y-75560000D03*
X157900000Y-103210000D03*
X157920000Y-101330000D03*
X157920000Y-100430000D03*
X164980000Y-78810000D03*
X146967500Y-70260000D03*
X148467500Y-70460000D03*
X150030000Y-91690000D03*
%TO.N,GND*%
X175520000Y-88950000D03*
X164080000Y-77000000D03*
X175820000Y-79090000D03*
X156220000Y-91400000D03*
X145847500Y-73660000D03*
X161310000Y-81957500D03*
X139157500Y-80660000D03*
X162020000Y-98600000D03*
X164690000Y-95610000D03*
X162530000Y-95260000D03*
X168340000Y-95610000D03*
X146887500Y-85240000D03*
X141267500Y-73760000D03*
X149067500Y-87060000D03*
X162267500Y-76010000D03*
X182210000Y-86300000D03*
X156817500Y-87960000D03*
X141640000Y-89380000D03*
X167390000Y-95610000D03*
X163020000Y-98600000D03*
X159470000Y-98550000D03*
X142917500Y-76460000D03*
X166490000Y-95610000D03*
X178860000Y-86300000D03*
X183860000Y-86300000D03*
X144317500Y-71460000D03*
X170770000Y-67720000D03*
X144517500Y-80910000D03*
X160470000Y-98550000D03*
X180560000Y-86300000D03*
X169220000Y-83950000D03*
X138567500Y-78760000D03*
X150117500Y-70560000D03*
X165780000Y-82167499D03*
X165590000Y-95610000D03*
X171480000Y-85840000D03*
%TO.N,+12V*%
X172290000Y-93730000D03*
X172290000Y-92460000D03*
%TO.N,CAN_L*%
X175260000Y-90570000D03*
%TO.N,ISO_L*%
X161330000Y-88370000D03*
%TO.N,CAN_S*%
X170240000Y-75610000D03*
X157477500Y-80070000D03*
%TO.N,/Power Supply/SW*%
X162480000Y-93660000D03*
X169790000Y-97320000D03*
X160730000Y-96390000D03*
X163380000Y-93660000D03*
X170790000Y-97320000D03*
X170790000Y-96180000D03*
%TD*%
%TA.AperFunction,Conductor*%
%TO.N,GND*%
G36*
X185033621Y-66328502D02*
G01*
X185080114Y-66382158D01*
X185091500Y-66434500D01*
X185091500Y-106165500D01*
X185071498Y-106233621D01*
X185017842Y-106280114D01*
X184965500Y-106291500D01*
X136234500Y-106291500D01*
X136166379Y-106271498D01*
X136119886Y-106217842D01*
X136108500Y-106165500D01*
X136108500Y-104322966D01*
X138673257Y-104322966D01*
X138703565Y-104457446D01*
X138706645Y-104467275D01*
X138786770Y-104664603D01*
X138791413Y-104673794D01*
X138902694Y-104855388D01*
X138908777Y-104863699D01*
X139048213Y-105024667D01*
X139055580Y-105031883D01*
X139219434Y-105167916D01*
X139227881Y-105173831D01*
X139411756Y-105281279D01*
X139421042Y-105285729D01*
X139620001Y-105361703D01*
X139629899Y-105364579D01*
X139733250Y-105385606D01*
X139747299Y-105384410D01*
X139751000Y-105374065D01*
X139751000Y-104327115D01*
X139746525Y-104311876D01*
X139745135Y-104310671D01*
X139737452Y-104309000D01*
X138688225Y-104309000D01*
X138674694Y-104312973D01*
X138673257Y-104322966D01*
X136108500Y-104322966D01*
X136108500Y-101481695D01*
X138642251Y-101481695D01*
X138642548Y-101486848D01*
X138642548Y-101486851D01*
X138650611Y-101626695D01*
X138655110Y-101704715D01*
X138656247Y-101709761D01*
X138656248Y-101709767D01*
X138670796Y-101774319D01*
X138704222Y-101922639D01*
X138742461Y-102016811D01*
X138784391Y-102120072D01*
X138788266Y-102129616D01*
X138839019Y-102212438D01*
X138902291Y-102315688D01*
X138904987Y-102320088D01*
X139051250Y-102488938D01*
X139223126Y-102631632D01*
X139232723Y-102637240D01*
X139296955Y-102674774D01*
X139345679Y-102726412D01*
X139358750Y-102796195D01*
X139332019Y-102861967D01*
X139291562Y-102895327D01*
X139283457Y-102899546D01*
X139274738Y-102905036D01*
X139104433Y-103032905D01*
X139096726Y-103039748D01*
X138949590Y-103193717D01*
X138943104Y-103201727D01*
X138823098Y-103377649D01*
X138818000Y-103386623D01*
X138728338Y-103579783D01*
X138724775Y-103589470D01*
X138669389Y-103789183D01*
X138670912Y-103797607D01*
X138683292Y-103801000D01*
X140133000Y-103801000D01*
X140201121Y-103821002D01*
X140247614Y-103874658D01*
X140259000Y-103927000D01*
X140259000Y-105373517D01*
X140263064Y-105387359D01*
X140276478Y-105389393D01*
X140283184Y-105388534D01*
X140293262Y-105386392D01*
X140497255Y-105325191D01*
X140506842Y-105321433D01*
X140698095Y-105227739D01*
X140706945Y-105222464D01*
X140880328Y-105098792D01*
X140888200Y-105092139D01*
X141039052Y-104941812D01*
X141045730Y-104933965D01*
X141173022Y-104756819D01*
X141174279Y-104757722D01*
X141221373Y-104714362D01*
X141291311Y-104702145D01*
X141356751Y-104729678D01*
X141384579Y-104761511D01*
X141444987Y-104860088D01*
X141591250Y-105028938D01*
X141763126Y-105171632D01*
X141956000Y-105284338D01*
X142164692Y-105364030D01*
X142169760Y-105365061D01*
X142169763Y-105365062D01*
X142264862Y-105384410D01*
X142383597Y-105408567D01*
X142388772Y-105408757D01*
X142388774Y-105408757D01*
X142601673Y-105416564D01*
X142601677Y-105416564D01*
X142606837Y-105416753D01*
X142611957Y-105416097D01*
X142611959Y-105416097D01*
X142823288Y-105389025D01*
X142823289Y-105389025D01*
X142828416Y-105388368D01*
X142833366Y-105386883D01*
X143037429Y-105325661D01*
X143037434Y-105325659D01*
X143042384Y-105324174D01*
X143242994Y-105225896D01*
X143424860Y-105096173D01*
X143583096Y-104938489D01*
X143713453Y-104757077D01*
X143726995Y-104729678D01*
X143810136Y-104561453D01*
X143810137Y-104561451D01*
X143812430Y-104556811D01*
X143839423Y-104467966D01*
X150498257Y-104467966D01*
X150528565Y-104602446D01*
X150531645Y-104612275D01*
X150611770Y-104809603D01*
X150616413Y-104818794D01*
X150727694Y-105000388D01*
X150733777Y-105008699D01*
X150873213Y-105169667D01*
X150880580Y-105176883D01*
X151044434Y-105312916D01*
X151052881Y-105318831D01*
X151236756Y-105426279D01*
X151246042Y-105430729D01*
X151445001Y-105506703D01*
X151454899Y-105509579D01*
X151558250Y-105530606D01*
X151572299Y-105529410D01*
X151576000Y-105519065D01*
X151576000Y-105518517D01*
X152084000Y-105518517D01*
X152088064Y-105532359D01*
X152101478Y-105534393D01*
X152108184Y-105533534D01*
X152118262Y-105531392D01*
X152322255Y-105470191D01*
X152331842Y-105466433D01*
X152523095Y-105372739D01*
X152531945Y-105367464D01*
X152705328Y-105243792D01*
X152713200Y-105237139D01*
X152864052Y-105086812D01*
X152870730Y-105078965D01*
X152995003Y-104906020D01*
X153000313Y-104897183D01*
X153094670Y-104706267D01*
X153098469Y-104696672D01*
X153160377Y-104492910D01*
X153162555Y-104482837D01*
X153163986Y-104471962D01*
X153161775Y-104457778D01*
X153148617Y-104454000D01*
X152102115Y-104454000D01*
X152086876Y-104458475D01*
X152085671Y-104459865D01*
X152084000Y-104467548D01*
X152084000Y-105518517D01*
X151576000Y-105518517D01*
X151576000Y-104472115D01*
X151571525Y-104456876D01*
X151570135Y-104455671D01*
X151562452Y-104454000D01*
X150513225Y-104454000D01*
X150499694Y-104457973D01*
X150498257Y-104467966D01*
X143839423Y-104467966D01*
X143877370Y-104343069D01*
X143906529Y-104121590D01*
X143908156Y-104055000D01*
X143889852Y-103832361D01*
X143835431Y-103615702D01*
X143746354Y-103410840D01*
X143625014Y-103223277D01*
X143474670Y-103058051D01*
X143470619Y-103054852D01*
X143470615Y-103054848D01*
X143303414Y-102922800D01*
X143303410Y-102922798D01*
X143299359Y-102919598D01*
X143258053Y-102896796D01*
X143208084Y-102846364D01*
X143193312Y-102776921D01*
X143218428Y-102710516D01*
X143245780Y-102683909D01*
X143289603Y-102652650D01*
X143424860Y-102556173D01*
X143437589Y-102543489D01*
X143579435Y-102402137D01*
X143583096Y-102398489D01*
X143642594Y-102315689D01*
X143710435Y-102221277D01*
X143713453Y-102217077D01*
X143734320Y-102174857D01*
X143810136Y-102021453D01*
X143810137Y-102021451D01*
X143812430Y-102016811D01*
X143877370Y-101803069D01*
X143900591Y-101626695D01*
X150467251Y-101626695D01*
X150467548Y-101631848D01*
X150467548Y-101631851D01*
X150475763Y-101774319D01*
X150480110Y-101849715D01*
X150481247Y-101854761D01*
X150481248Y-101854767D01*
X150500106Y-101938444D01*
X150529222Y-102067639D01*
X150613266Y-102274616D01*
X150729987Y-102465088D01*
X150876250Y-102633938D01*
X151048126Y-102776632D01*
X151081604Y-102796195D01*
X151121955Y-102819774D01*
X151170679Y-102871412D01*
X151183750Y-102941195D01*
X151157019Y-103006967D01*
X151116562Y-103040327D01*
X151108457Y-103044546D01*
X151099738Y-103050036D01*
X150929433Y-103177905D01*
X150921726Y-103184748D01*
X150774590Y-103338717D01*
X150768104Y-103346727D01*
X150648098Y-103522649D01*
X150643000Y-103531623D01*
X150553338Y-103724783D01*
X150549775Y-103734470D01*
X150494389Y-103934183D01*
X150495912Y-103942607D01*
X150508292Y-103946000D01*
X153148344Y-103946000D01*
X153161875Y-103942027D01*
X153163180Y-103932947D01*
X153121214Y-103765875D01*
X153117894Y-103756124D01*
X153032972Y-103560814D01*
X153028105Y-103551739D01*
X152912426Y-103372926D01*
X152906136Y-103364757D01*
X152765317Y-103210000D01*
X156986496Y-103210000D01*
X156987186Y-103216565D01*
X157005060Y-103386623D01*
X157006458Y-103399928D01*
X157065473Y-103581556D01*
X157160960Y-103746944D01*
X157165378Y-103751851D01*
X157165379Y-103751852D01*
X157237870Y-103832361D01*
X157288747Y-103888866D01*
X157443248Y-104001118D01*
X157449276Y-104003802D01*
X157449278Y-104003803D01*
X157571827Y-104058365D01*
X157617712Y-104078794D01*
X157711113Y-104098647D01*
X157798056Y-104117128D01*
X157798061Y-104117128D01*
X157804513Y-104118500D01*
X157995487Y-104118500D01*
X158001939Y-104117128D01*
X158001944Y-104117128D01*
X158088887Y-104098647D01*
X158182288Y-104078794D01*
X158228173Y-104058365D01*
X158350722Y-104003803D01*
X158350724Y-104003802D01*
X158356752Y-104001118D01*
X158511253Y-103888866D01*
X158562130Y-103832361D01*
X158634621Y-103751852D01*
X158634622Y-103751851D01*
X158639040Y-103746944D01*
X158734527Y-103581556D01*
X158793542Y-103399928D01*
X158794941Y-103386623D01*
X158812814Y-103216565D01*
X158813504Y-103210000D01*
X158798603Y-103068222D01*
X158794232Y-103026635D01*
X158794232Y-103026633D01*
X158793542Y-103020072D01*
X158734527Y-102838444D01*
X158725611Y-102823001D01*
X158708872Y-102754007D01*
X158725611Y-102696998D01*
X158731224Y-102687277D01*
X158734527Y-102681556D01*
X158793542Y-102499928D01*
X158813504Y-102310000D01*
X158804179Y-102221277D01*
X158794232Y-102126635D01*
X158794232Y-102126633D01*
X158793542Y-102120072D01*
X158734527Y-101938444D01*
X158712516Y-101900320D01*
X158695778Y-101831325D01*
X158712515Y-101774322D01*
X158754527Y-101701556D01*
X158813542Y-101519928D01*
X158814413Y-101511646D01*
X158832814Y-101336565D01*
X158833504Y-101330000D01*
X158822544Y-101225720D01*
X158814232Y-101146635D01*
X158814232Y-101146633D01*
X158813542Y-101140072D01*
X158754527Y-100958444D01*
X158745611Y-100943001D01*
X158728872Y-100874007D01*
X158745611Y-100816998D01*
X158746986Y-100814618D01*
X158754527Y-100801556D01*
X158813542Y-100619928D01*
X158823562Y-100524598D01*
X158832814Y-100436565D01*
X158833504Y-100430000D01*
X158828207Y-100379598D01*
X158814232Y-100246635D01*
X158814232Y-100246633D01*
X158813542Y-100240072D01*
X158754527Y-100058444D01*
X158659040Y-99893056D01*
X158631201Y-99862137D01*
X158535675Y-99756045D01*
X158535674Y-99756044D01*
X158531253Y-99751134D01*
X158422938Y-99672438D01*
X158382094Y-99642763D01*
X158382093Y-99642762D01*
X158376752Y-99638882D01*
X158370724Y-99636198D01*
X158370722Y-99636197D01*
X158208319Y-99563891D01*
X158208318Y-99563891D01*
X158202288Y-99561206D01*
X158108887Y-99541353D01*
X158021944Y-99522872D01*
X158021939Y-99522872D01*
X158015487Y-99521500D01*
X157824513Y-99521500D01*
X157818061Y-99522872D01*
X157818056Y-99522872D01*
X157731113Y-99541353D01*
X157637712Y-99561206D01*
X157631682Y-99563891D01*
X157631681Y-99563891D01*
X157469278Y-99636197D01*
X157469276Y-99636198D01*
X157463248Y-99638882D01*
X157457907Y-99642762D01*
X157457906Y-99642763D01*
X157417062Y-99672438D01*
X157308747Y-99751134D01*
X157304326Y-99756044D01*
X157304325Y-99756045D01*
X157208800Y-99862137D01*
X157180960Y-99893056D01*
X157085473Y-100058444D01*
X157026458Y-100240072D01*
X157025768Y-100246633D01*
X157025768Y-100246635D01*
X157011793Y-100379598D01*
X157006496Y-100430000D01*
X157007186Y-100436565D01*
X157016439Y-100524598D01*
X157026458Y-100619928D01*
X157085473Y-100801556D01*
X157093015Y-100814618D01*
X157094389Y-100816998D01*
X157111128Y-100885993D01*
X157094390Y-100943000D01*
X157085473Y-100958444D01*
X157026458Y-101140072D01*
X157025768Y-101146633D01*
X157025768Y-101146635D01*
X157017456Y-101225720D01*
X157006496Y-101330000D01*
X157007186Y-101336565D01*
X157025588Y-101511646D01*
X157026458Y-101519928D01*
X157085473Y-101701556D01*
X157088776Y-101707278D01*
X157088777Y-101707279D01*
X157107484Y-101739680D01*
X157124222Y-101808675D01*
X157107485Y-101865678D01*
X157065473Y-101938444D01*
X157006458Y-102120072D01*
X157005768Y-102126633D01*
X157005768Y-102126635D01*
X156995821Y-102221277D01*
X156986496Y-102310000D01*
X157006458Y-102499928D01*
X157065473Y-102681556D01*
X157068776Y-102687277D01*
X157074389Y-102696998D01*
X157091128Y-102765993D01*
X157074390Y-102823000D01*
X157065473Y-102838444D01*
X157006458Y-103020072D01*
X157005768Y-103026633D01*
X157005768Y-103026635D01*
X157001397Y-103068222D01*
X156986496Y-103210000D01*
X152765317Y-103210000D01*
X152762806Y-103207240D01*
X152755273Y-103200215D01*
X152588139Y-103068222D01*
X152579556Y-103062520D01*
X152542602Y-103042120D01*
X152492631Y-102991687D01*
X152477859Y-102922245D01*
X152502975Y-102855839D01*
X152530327Y-102829232D01*
X152593538Y-102784144D01*
X152709860Y-102701173D01*
X152725191Y-102685896D01*
X152852359Y-102559171D01*
X152868096Y-102543489D01*
X152894887Y-102506206D01*
X152995435Y-102366277D01*
X152998453Y-102362077D01*
X153020947Y-102316565D01*
X153095136Y-102166453D01*
X153095137Y-102166451D01*
X153097430Y-102161811D01*
X153162370Y-101948069D01*
X153191529Y-101726590D01*
X153192001Y-101707274D01*
X153193074Y-101663365D01*
X153193074Y-101663361D01*
X153193156Y-101660000D01*
X153174852Y-101437361D01*
X153120431Y-101220702D01*
X153031354Y-101015840D01*
X152937549Y-100870840D01*
X152912822Y-100832617D01*
X152912820Y-100832614D01*
X152910014Y-100828277D01*
X152759670Y-100663051D01*
X152755619Y-100659852D01*
X152755615Y-100659848D01*
X152588414Y-100527800D01*
X152588410Y-100527798D01*
X152584359Y-100524598D01*
X152543053Y-100501796D01*
X152493084Y-100451364D01*
X152478312Y-100381921D01*
X152503428Y-100315516D01*
X152530780Y-100288909D01*
X152599247Y-100240072D01*
X152709860Y-100161173D01*
X152725191Y-100145896D01*
X152852739Y-100018792D01*
X152868096Y-100003489D01*
X152905179Y-99951883D01*
X152995435Y-99826277D01*
X152998453Y-99822077D01*
X153017421Y-99783699D01*
X153095136Y-99626453D01*
X153095137Y-99626451D01*
X153097430Y-99621811D01*
X153162370Y-99408069D01*
X153191529Y-99186590D01*
X153191907Y-99171121D01*
X153193074Y-99123365D01*
X153193074Y-99123361D01*
X153193156Y-99120000D01*
X153174852Y-98897361D01*
X153120431Y-98680702D01*
X153031354Y-98475840D01*
X152935867Y-98328240D01*
X152912822Y-98292617D01*
X152912820Y-98292614D01*
X152910014Y-98288277D01*
X152895660Y-98272502D01*
X152762798Y-98126488D01*
X152731746Y-98062642D01*
X152740141Y-97992143D01*
X152785317Y-97937375D01*
X152811761Y-97923706D01*
X152918297Y-97883767D01*
X152926705Y-97880615D01*
X153043261Y-97793261D01*
X153130615Y-97676705D01*
X153181745Y-97540316D01*
X153188500Y-97478134D01*
X153188500Y-97320000D01*
X168876496Y-97320000D01*
X168877186Y-97326565D01*
X168893186Y-97478792D01*
X168896458Y-97509928D01*
X168955473Y-97691556D01*
X168958776Y-97697278D01*
X168958777Y-97697279D01*
X168978614Y-97731638D01*
X169050960Y-97856944D01*
X169055378Y-97861851D01*
X169055379Y-97861852D01*
X169174325Y-97993955D01*
X169178747Y-97998866D01*
X169226744Y-98033738D01*
X169294202Y-98082749D01*
X169333248Y-98111118D01*
X169339276Y-98113802D01*
X169339278Y-98113803D01*
X169501681Y-98186109D01*
X169507712Y-98188794D01*
X169601112Y-98208647D01*
X169688056Y-98227128D01*
X169688061Y-98227128D01*
X169694513Y-98228500D01*
X169885487Y-98228500D01*
X169891939Y-98227128D01*
X169891944Y-98227128D01*
X169978888Y-98208647D01*
X170072288Y-98188794D01*
X170238752Y-98114680D01*
X170309118Y-98105246D01*
X170341247Y-98114680D01*
X170507712Y-98188794D01*
X170601112Y-98208647D01*
X170688056Y-98227128D01*
X170688061Y-98227128D01*
X170694513Y-98228500D01*
X170885487Y-98228500D01*
X170891939Y-98227128D01*
X170891944Y-98227128D01*
X170978888Y-98208647D01*
X171072288Y-98188794D01*
X171078319Y-98186109D01*
X171240722Y-98113803D01*
X171240724Y-98113802D01*
X171246752Y-98111118D01*
X171285799Y-98082749D01*
X171353256Y-98033738D01*
X171401253Y-97998866D01*
X171405675Y-97993955D01*
X171524621Y-97861852D01*
X171524622Y-97861851D01*
X171529040Y-97856944D01*
X171601386Y-97731638D01*
X171621223Y-97697279D01*
X171621224Y-97697278D01*
X171624527Y-97691556D01*
X171683542Y-97509928D01*
X171686815Y-97478792D01*
X171702814Y-97326565D01*
X171703504Y-97320000D01*
X171691950Y-97210072D01*
X171684232Y-97136635D01*
X171684232Y-97136633D01*
X171683542Y-97130072D01*
X171624527Y-96948444D01*
X171614951Y-96931857D01*
X171546328Y-96813000D01*
X171529590Y-96744005D01*
X171546328Y-96687000D01*
X171621223Y-96557279D01*
X171621224Y-96557278D01*
X171624527Y-96551556D01*
X171683542Y-96369928D01*
X171703504Y-96180000D01*
X171686524Y-96018444D01*
X171684232Y-95996635D01*
X171684232Y-95996633D01*
X171683542Y-95990072D01*
X171624527Y-95808444D01*
X171529040Y-95643056D01*
X171515070Y-95627540D01*
X171405675Y-95506045D01*
X171405674Y-95506044D01*
X171401253Y-95501134D01*
X171302157Y-95429136D01*
X171252094Y-95392763D01*
X171252093Y-95392762D01*
X171246752Y-95388882D01*
X171240724Y-95386198D01*
X171240722Y-95386197D01*
X171078319Y-95313891D01*
X171078318Y-95313891D01*
X171072288Y-95311206D01*
X170978888Y-95291353D01*
X170891944Y-95272872D01*
X170891939Y-95272872D01*
X170885487Y-95271500D01*
X170694513Y-95271500D01*
X170688061Y-95272872D01*
X170688056Y-95272872D01*
X170601112Y-95291353D01*
X170507712Y-95311206D01*
X170341248Y-95385320D01*
X170270882Y-95394754D01*
X170238753Y-95385320D01*
X170072288Y-95311206D01*
X169978888Y-95291353D01*
X169891944Y-95272872D01*
X169891939Y-95272872D01*
X169885487Y-95271500D01*
X169694513Y-95271500D01*
X169688061Y-95272872D01*
X169688056Y-95272872D01*
X169601112Y-95291353D01*
X169507712Y-95311206D01*
X169501682Y-95313891D01*
X169501681Y-95313891D01*
X169339278Y-95386197D01*
X169339276Y-95386198D01*
X169333248Y-95388882D01*
X169327907Y-95392762D01*
X169327906Y-95392763D01*
X169277843Y-95429136D01*
X169178747Y-95501134D01*
X169174326Y-95506044D01*
X169174325Y-95506045D01*
X169064931Y-95627540D01*
X169050960Y-95643056D01*
X168955473Y-95808444D01*
X168896458Y-95990072D01*
X168895768Y-95996633D01*
X168895768Y-95996635D01*
X168893476Y-96018444D01*
X168876496Y-96180000D01*
X168896458Y-96369928D01*
X168955473Y-96551556D01*
X168958776Y-96557278D01*
X168958777Y-96557279D01*
X169033672Y-96687000D01*
X169050410Y-96755995D01*
X169033672Y-96813000D01*
X168965050Y-96931857D01*
X168955473Y-96948444D01*
X168896458Y-97130072D01*
X168895768Y-97136633D01*
X168895768Y-97136635D01*
X168888050Y-97210072D01*
X168876496Y-97320000D01*
X153188500Y-97320000D01*
X153188500Y-96390000D01*
X159816496Y-96390000D01*
X159817186Y-96396565D01*
X159834078Y-96557279D01*
X159836458Y-96579928D01*
X159895473Y-96761556D01*
X159990960Y-96926944D01*
X159995378Y-96931851D01*
X159995379Y-96931852D01*
X160101414Y-97049616D01*
X160118747Y-97068866D01*
X160273248Y-97181118D01*
X160279276Y-97183802D01*
X160279278Y-97183803D01*
X160441681Y-97256109D01*
X160447712Y-97258794D01*
X160541112Y-97278647D01*
X160628056Y-97297128D01*
X160628061Y-97297128D01*
X160634513Y-97298500D01*
X160825487Y-97298500D01*
X160831939Y-97297128D01*
X160831944Y-97297128D01*
X160918888Y-97278647D01*
X161012288Y-97258794D01*
X161018319Y-97256109D01*
X161180722Y-97183803D01*
X161180724Y-97183802D01*
X161186752Y-97181118D01*
X161341253Y-97068866D01*
X161358586Y-97049616D01*
X161464621Y-96931852D01*
X161464622Y-96931851D01*
X161469040Y-96926944D01*
X161564527Y-96761556D01*
X161623542Y-96579928D01*
X161625923Y-96557279D01*
X161642814Y-96396565D01*
X161643504Y-96390000D01*
X161640705Y-96363365D01*
X161624232Y-96206635D01*
X161624232Y-96206633D01*
X161623542Y-96200072D01*
X161564527Y-96018444D01*
X161469040Y-95853056D01*
X161417298Y-95795590D01*
X161345675Y-95716045D01*
X161345674Y-95716044D01*
X161341253Y-95711134D01*
X161226196Y-95627540D01*
X161192094Y-95602763D01*
X161192093Y-95602762D01*
X161186752Y-95598882D01*
X161180724Y-95596198D01*
X161180722Y-95596197D01*
X161018319Y-95523891D01*
X161018318Y-95523891D01*
X161012288Y-95521206D01*
X160917857Y-95501134D01*
X160831944Y-95482872D01*
X160831939Y-95482872D01*
X160825487Y-95481500D01*
X160634513Y-95481500D01*
X160628061Y-95482872D01*
X160628056Y-95482872D01*
X160542143Y-95501134D01*
X160447712Y-95521206D01*
X160441682Y-95523891D01*
X160441681Y-95523891D01*
X160279278Y-95596197D01*
X160279276Y-95596198D01*
X160273248Y-95598882D01*
X160267907Y-95602762D01*
X160267906Y-95602763D01*
X160233804Y-95627540D01*
X160118747Y-95711134D01*
X160114326Y-95716044D01*
X160114325Y-95716045D01*
X160042703Y-95795590D01*
X159990960Y-95853056D01*
X159895473Y-96018444D01*
X159836458Y-96200072D01*
X159835768Y-96206633D01*
X159835768Y-96206635D01*
X159819295Y-96363365D01*
X159816496Y-96390000D01*
X153188500Y-96390000D01*
X153188500Y-95681866D01*
X153181745Y-95619684D01*
X153130615Y-95483295D01*
X153043261Y-95366739D01*
X152926705Y-95279385D01*
X152790316Y-95228255D01*
X152728134Y-95221500D01*
X150931866Y-95221500D01*
X150869684Y-95228255D01*
X150733295Y-95279385D01*
X150616739Y-95366739D01*
X150529385Y-95483295D01*
X150478255Y-95619684D01*
X150471500Y-95681866D01*
X150471500Y-97478134D01*
X150478255Y-97540316D01*
X150529385Y-97676705D01*
X150616739Y-97793261D01*
X150733295Y-97880615D01*
X150741704Y-97883767D01*
X150741705Y-97883768D01*
X150850451Y-97924535D01*
X150907216Y-97967176D01*
X150931916Y-98033738D01*
X150916709Y-98103087D01*
X150897316Y-98129568D01*
X150835932Y-98193803D01*
X150770629Y-98262138D01*
X150767715Y-98266410D01*
X150767714Y-98266411D01*
X150765153Y-98270166D01*
X150644743Y-98446680D01*
X150550688Y-98649305D01*
X150490989Y-98864570D01*
X150467251Y-99086695D01*
X150467548Y-99091848D01*
X150467548Y-99091851D01*
X150475456Y-99229000D01*
X150480110Y-99309715D01*
X150481247Y-99314761D01*
X150481248Y-99314767D01*
X150495374Y-99377446D01*
X150529222Y-99527639D01*
X150613266Y-99734616D01*
X150615965Y-99739020D01*
X150691212Y-99861812D01*
X150729987Y-99925088D01*
X150876250Y-100093938D01*
X151048126Y-100236632D01*
X151085304Y-100258357D01*
X151121445Y-100279476D01*
X151170169Y-100331114D01*
X151183240Y-100400897D01*
X151156509Y-100466669D01*
X151116055Y-100500027D01*
X151103607Y-100506507D01*
X151099474Y-100509610D01*
X151099471Y-100509612D01*
X150929100Y-100637530D01*
X150924965Y-100640635D01*
X150770629Y-100802138D01*
X150767715Y-100806410D01*
X150767714Y-100806411D01*
X150731417Y-100859621D01*
X150644743Y-100986680D01*
X150603421Y-101075702D01*
X150570495Y-101146635D01*
X150550688Y-101189305D01*
X150490989Y-101404570D01*
X150467251Y-101626695D01*
X143900591Y-101626695D01*
X143906529Y-101581590D01*
X143908156Y-101515000D01*
X143889852Y-101292361D01*
X143835431Y-101075702D01*
X143746354Y-100870840D01*
X143625014Y-100683277D01*
X143474670Y-100518051D01*
X143470619Y-100514852D01*
X143470615Y-100514848D01*
X143303414Y-100382800D01*
X143303410Y-100382798D01*
X143299359Y-100379598D01*
X143258053Y-100356796D01*
X143208084Y-100306364D01*
X143193312Y-100236921D01*
X143218428Y-100170516D01*
X143245780Y-100143909D01*
X143289603Y-100112650D01*
X143424860Y-100016173D01*
X143437589Y-100003489D01*
X143579435Y-99862137D01*
X143583096Y-99858489D01*
X143713453Y-99677077D01*
X143726995Y-99649678D01*
X143810136Y-99481453D01*
X143810137Y-99481451D01*
X143812430Y-99476811D01*
X143877370Y-99263069D01*
X143906529Y-99041590D01*
X143908156Y-98975000D01*
X143889852Y-98752361D01*
X143835431Y-98535702D01*
X143746354Y-98330840D01*
X143625014Y-98143277D01*
X143474670Y-97978051D01*
X143470619Y-97974852D01*
X143470615Y-97974848D01*
X143303414Y-97842800D01*
X143303410Y-97842798D01*
X143299359Y-97839598D01*
X143258053Y-97816796D01*
X143208084Y-97766364D01*
X143193312Y-97696921D01*
X143218428Y-97630516D01*
X143245780Y-97603909D01*
X143289603Y-97572650D01*
X143424860Y-97476173D01*
X143501300Y-97400000D01*
X144376496Y-97400000D01*
X144377186Y-97406565D01*
X144392086Y-97548327D01*
X144396458Y-97589928D01*
X144455473Y-97771556D01*
X144550960Y-97936944D01*
X144555378Y-97941851D01*
X144555379Y-97941852D01*
X144664139Y-98062642D01*
X144678747Y-98078866D01*
X144728041Y-98114680D01*
X144826354Y-98186109D01*
X144833248Y-98191118D01*
X144839276Y-98193802D01*
X144839278Y-98193803D01*
X144992762Y-98262138D01*
X145007712Y-98268794D01*
X145099372Y-98288277D01*
X145188056Y-98307128D01*
X145188061Y-98307128D01*
X145194513Y-98308500D01*
X145385487Y-98308500D01*
X145391939Y-98307128D01*
X145391944Y-98307128D01*
X145480628Y-98288277D01*
X145572288Y-98268794D01*
X145587238Y-98262138D01*
X145740722Y-98193803D01*
X145740724Y-98193802D01*
X145746752Y-98191118D01*
X145753647Y-98186109D01*
X145851959Y-98114680D01*
X145901253Y-98078866D01*
X145915861Y-98062642D01*
X146024621Y-97941852D01*
X146024622Y-97941851D01*
X146029040Y-97936944D01*
X146124527Y-97771556D01*
X146183542Y-97589928D01*
X146187915Y-97548327D01*
X146202814Y-97406565D01*
X146203504Y-97400000D01*
X146194496Y-97314292D01*
X146184232Y-97216635D01*
X146184232Y-97216633D01*
X146183542Y-97210072D01*
X146124527Y-97028444D01*
X146029040Y-96863056D01*
X146010657Y-96842639D01*
X145905675Y-96726045D01*
X145905674Y-96726044D01*
X145901253Y-96721134D01*
X145746752Y-96608882D01*
X145740724Y-96606198D01*
X145740722Y-96606197D01*
X145578319Y-96533891D01*
X145578318Y-96533891D01*
X145572288Y-96531206D01*
X145478887Y-96511353D01*
X145391944Y-96492872D01*
X145391939Y-96492872D01*
X145385487Y-96491500D01*
X145194513Y-96491500D01*
X145188061Y-96492872D01*
X145188056Y-96492872D01*
X145101113Y-96511353D01*
X145007712Y-96531206D01*
X145001682Y-96533891D01*
X145001681Y-96533891D01*
X144839278Y-96606197D01*
X144839276Y-96606198D01*
X144833248Y-96608882D01*
X144678747Y-96721134D01*
X144674326Y-96726044D01*
X144674325Y-96726045D01*
X144569344Y-96842639D01*
X144550960Y-96863056D01*
X144455473Y-97028444D01*
X144396458Y-97210072D01*
X144395768Y-97216633D01*
X144395768Y-97216635D01*
X144385504Y-97314292D01*
X144376496Y-97400000D01*
X143501300Y-97400000D01*
X143583096Y-97318489D01*
X143597460Y-97298500D01*
X143710435Y-97141277D01*
X143713453Y-97137077D01*
X143726995Y-97109678D01*
X143810136Y-96941453D01*
X143810137Y-96941451D01*
X143812430Y-96936811D01*
X143850047Y-96813000D01*
X143875865Y-96728023D01*
X143875865Y-96728021D01*
X143877370Y-96723069D01*
X143906529Y-96501590D01*
X143908156Y-96435000D01*
X143889852Y-96212361D01*
X143835431Y-95995702D01*
X143746354Y-95790840D01*
X143673658Y-95678469D01*
X143627822Y-95607617D01*
X143627820Y-95607614D01*
X143625014Y-95603277D01*
X143474670Y-95438051D01*
X143470619Y-95434852D01*
X143470615Y-95434848D01*
X143303414Y-95302800D01*
X143303410Y-95302798D01*
X143299359Y-95299598D01*
X143258053Y-95276796D01*
X143208084Y-95226364D01*
X143193312Y-95156921D01*
X143218428Y-95090516D01*
X143245780Y-95063909D01*
X143289603Y-95032650D01*
X143424860Y-94936173D01*
X143583096Y-94778489D01*
X143713453Y-94597077D01*
X143746523Y-94530166D01*
X143810136Y-94401453D01*
X143810137Y-94401451D01*
X143812430Y-94396811D01*
X143871663Y-94201852D01*
X143875865Y-94188023D01*
X143875865Y-94188021D01*
X143877370Y-94183069D01*
X143906529Y-93961590D01*
X143908156Y-93895000D01*
X143889852Y-93672361D01*
X143886747Y-93660000D01*
X161566496Y-93660000D01*
X161586458Y-93849928D01*
X161645473Y-94031556D01*
X161740960Y-94196944D01*
X161868747Y-94338866D01*
X162023248Y-94451118D01*
X162029276Y-94453802D01*
X162029278Y-94453803D01*
X162171754Y-94517237D01*
X162197712Y-94528794D01*
X162291113Y-94548647D01*
X162378056Y-94567128D01*
X162378061Y-94567128D01*
X162384513Y-94568500D01*
X162575487Y-94568500D01*
X162581939Y-94567128D01*
X162581944Y-94567128D01*
X162668888Y-94548647D01*
X162762288Y-94528794D01*
X162878752Y-94476941D01*
X162949118Y-94467507D01*
X162981246Y-94476940D01*
X163097712Y-94528794D01*
X163191113Y-94548647D01*
X163278056Y-94567128D01*
X163278061Y-94567128D01*
X163284513Y-94568500D01*
X163475487Y-94568500D01*
X163481939Y-94567128D01*
X163481944Y-94567128D01*
X163568888Y-94548647D01*
X163662288Y-94528794D01*
X163688246Y-94517237D01*
X163830722Y-94453803D01*
X163830724Y-94453802D01*
X163836752Y-94451118D01*
X163991253Y-94338866D01*
X164119040Y-94196944D01*
X164214527Y-94031556D01*
X164273542Y-93849928D01*
X164286147Y-93730000D01*
X171376496Y-93730000D01*
X171377186Y-93736565D01*
X171394192Y-93898365D01*
X171396458Y-93919928D01*
X171455473Y-94101556D01*
X171550960Y-94266944D01*
X171678747Y-94408866D01*
X171833248Y-94521118D01*
X171839276Y-94523802D01*
X171839278Y-94523803D01*
X171939670Y-94568500D01*
X172007712Y-94598794D01*
X172101113Y-94618647D01*
X172188056Y-94637128D01*
X172188061Y-94637128D01*
X172194513Y-94638500D01*
X172385487Y-94638500D01*
X172391939Y-94637128D01*
X172391944Y-94637128D01*
X172478888Y-94618647D01*
X172572288Y-94598794D01*
X172640330Y-94568500D01*
X172740722Y-94523803D01*
X172740724Y-94523802D01*
X172746752Y-94521118D01*
X172901253Y-94408866D01*
X173029040Y-94266944D01*
X173124527Y-94101556D01*
X173183542Y-93919928D01*
X173185809Y-93898365D01*
X173202814Y-93736565D01*
X173203504Y-93730000D01*
X173197446Y-93672361D01*
X173184232Y-93546635D01*
X173184232Y-93546633D01*
X173183542Y-93540072D01*
X173124527Y-93358444D01*
X173029040Y-93193056D01*
X173016662Y-93179309D01*
X172985946Y-93115303D01*
X172994710Y-93044850D01*
X173016661Y-93010693D01*
X173029040Y-92996944D01*
X173124527Y-92831556D01*
X173183542Y-92649928D01*
X173189092Y-92597128D01*
X173202814Y-92466565D01*
X173203504Y-92460000D01*
X173194444Y-92373797D01*
X173184232Y-92276635D01*
X173184232Y-92276633D01*
X173183542Y-92270072D01*
X173124527Y-92088444D01*
X173118474Y-92077959D01*
X173046191Y-91952763D01*
X173029040Y-91923056D01*
X173000298Y-91891134D01*
X172905675Y-91786045D01*
X172905674Y-91786044D01*
X172901253Y-91781134D01*
X172775818Y-91690000D01*
X172752094Y-91672763D01*
X172752093Y-91672762D01*
X172746752Y-91668882D01*
X172740724Y-91666198D01*
X172740722Y-91666197D01*
X172578319Y-91593891D01*
X172578318Y-91593891D01*
X172572288Y-91591206D01*
X172478887Y-91571353D01*
X172391944Y-91552872D01*
X172391939Y-91552872D01*
X172385487Y-91551500D01*
X172194513Y-91551500D01*
X172188061Y-91552872D01*
X172188056Y-91552872D01*
X172101113Y-91571353D01*
X172007712Y-91591206D01*
X172001682Y-91593891D01*
X172001681Y-91593891D01*
X171839278Y-91666197D01*
X171839276Y-91666198D01*
X171833248Y-91668882D01*
X171827907Y-91672762D01*
X171827906Y-91672763D01*
X171804182Y-91690000D01*
X171678747Y-91781134D01*
X171674326Y-91786044D01*
X171674325Y-91786045D01*
X171579703Y-91891134D01*
X171550960Y-91923056D01*
X171533809Y-91952763D01*
X171461527Y-92077959D01*
X171455473Y-92088444D01*
X171396458Y-92270072D01*
X171395768Y-92276633D01*
X171395768Y-92276635D01*
X171385556Y-92373797D01*
X171376496Y-92460000D01*
X171377186Y-92466565D01*
X171390909Y-92597128D01*
X171396458Y-92649928D01*
X171455473Y-92831556D01*
X171550960Y-92996944D01*
X171563338Y-93010691D01*
X171594054Y-93074697D01*
X171585290Y-93145150D01*
X171563339Y-93179307D01*
X171550960Y-93193056D01*
X171455473Y-93358444D01*
X171396458Y-93540072D01*
X171395768Y-93546633D01*
X171395768Y-93546635D01*
X171382554Y-93672361D01*
X171376496Y-93730000D01*
X164286147Y-93730000D01*
X164293504Y-93660000D01*
X164280240Y-93533803D01*
X164274232Y-93476635D01*
X164274232Y-93476633D01*
X164273542Y-93470072D01*
X164214527Y-93288444D01*
X164207888Y-93276944D01*
X164122341Y-93128774D01*
X164119040Y-93123056D01*
X164113839Y-93117279D01*
X163995675Y-92986045D01*
X163995674Y-92986044D01*
X163991253Y-92981134D01*
X163836752Y-92868882D01*
X163830724Y-92866198D01*
X163830722Y-92866197D01*
X163668319Y-92793891D01*
X163668318Y-92793891D01*
X163662288Y-92791206D01*
X163568888Y-92771353D01*
X163481944Y-92752872D01*
X163481939Y-92752872D01*
X163475487Y-92751500D01*
X163284513Y-92751500D01*
X163278061Y-92752872D01*
X163278056Y-92752872D01*
X163191112Y-92771353D01*
X163097712Y-92791206D01*
X162981248Y-92843059D01*
X162910882Y-92852493D01*
X162878754Y-92843060D01*
X162762288Y-92791206D01*
X162668888Y-92771353D01*
X162581944Y-92752872D01*
X162581939Y-92752872D01*
X162575487Y-92751500D01*
X162384513Y-92751500D01*
X162378061Y-92752872D01*
X162378056Y-92752872D01*
X162291112Y-92771353D01*
X162197712Y-92791206D01*
X162191682Y-92793891D01*
X162191681Y-92793891D01*
X162029278Y-92866197D01*
X162029276Y-92866198D01*
X162023248Y-92868882D01*
X161868747Y-92981134D01*
X161864326Y-92986044D01*
X161864325Y-92986045D01*
X161746162Y-93117279D01*
X161740960Y-93123056D01*
X161737659Y-93128774D01*
X161652113Y-93276944D01*
X161645473Y-93288444D01*
X161586458Y-93470072D01*
X161585768Y-93476633D01*
X161585768Y-93476635D01*
X161579760Y-93533803D01*
X161566496Y-93660000D01*
X143886747Y-93660000D01*
X143835431Y-93455702D01*
X143746354Y-93250840D01*
X143660512Y-93118148D01*
X143627822Y-93067617D01*
X143627820Y-93067614D01*
X143625014Y-93063277D01*
X143474670Y-92898051D01*
X143470619Y-92894852D01*
X143470615Y-92894848D01*
X143303414Y-92762800D01*
X143303410Y-92762798D01*
X143299359Y-92759598D01*
X143284690Y-92751500D01*
X143247136Y-92730769D01*
X143103789Y-92651638D01*
X143098920Y-92649914D01*
X143098916Y-92649912D01*
X142898087Y-92578795D01*
X142898083Y-92578794D01*
X142893212Y-92577069D01*
X142888119Y-92576162D01*
X142888116Y-92576161D01*
X142853528Y-92570000D01*
X144376496Y-92570000D01*
X144377186Y-92576565D01*
X144395054Y-92746565D01*
X144396458Y-92759928D01*
X144455473Y-92941556D01*
X144458776Y-92947278D01*
X144458777Y-92947279D01*
X144478323Y-92981134D01*
X144550960Y-93106944D01*
X144555378Y-93111851D01*
X144555379Y-93111852D01*
X144633644Y-93198774D01*
X144678747Y-93248866D01*
X144733221Y-93288444D01*
X144821691Y-93352721D01*
X144833248Y-93361118D01*
X144839276Y-93363802D01*
X144839278Y-93363803D01*
X144971674Y-93422749D01*
X145007712Y-93438794D01*
X145101112Y-93458647D01*
X145188056Y-93477128D01*
X145188061Y-93477128D01*
X145194513Y-93478500D01*
X145385487Y-93478500D01*
X145391939Y-93477128D01*
X145391944Y-93477128D01*
X145478887Y-93458647D01*
X145572288Y-93438794D01*
X145608326Y-93422749D01*
X145740722Y-93363803D01*
X145740724Y-93363802D01*
X145746752Y-93361118D01*
X145758310Y-93352721D01*
X145846779Y-93288444D01*
X145901253Y-93248866D01*
X145946356Y-93198774D01*
X146024621Y-93111852D01*
X146024622Y-93111851D01*
X146029040Y-93106944D01*
X146101677Y-92981134D01*
X146121223Y-92947279D01*
X146121224Y-92947278D01*
X146124527Y-92941556D01*
X146183542Y-92759928D01*
X146184947Y-92746565D01*
X146185637Y-92740000D01*
X153746496Y-92740000D01*
X153747186Y-92746565D01*
X153763108Y-92898051D01*
X153766458Y-92929928D01*
X153825473Y-93111556D01*
X153828776Y-93117278D01*
X153828777Y-93117279D01*
X153862686Y-93176010D01*
X153920960Y-93276944D01*
X153925378Y-93281851D01*
X153925379Y-93281852D01*
X153999168Y-93363803D01*
X154048747Y-93418866D01*
X154203248Y-93531118D01*
X154209276Y-93533802D01*
X154209278Y-93533803D01*
X154371681Y-93606109D01*
X154377712Y-93608794D01*
X154471113Y-93628647D01*
X154558056Y-93647128D01*
X154558061Y-93647128D01*
X154564513Y-93648500D01*
X154755487Y-93648500D01*
X154761939Y-93647128D01*
X154761944Y-93647128D01*
X154848887Y-93628647D01*
X154942288Y-93608794D01*
X154948319Y-93606109D01*
X155110722Y-93533803D01*
X155110724Y-93533802D01*
X155116752Y-93531118D01*
X155271253Y-93418866D01*
X155320832Y-93363803D01*
X155394621Y-93281852D01*
X155394622Y-93281851D01*
X155399040Y-93276944D01*
X155457314Y-93176010D01*
X155491223Y-93117279D01*
X155491224Y-93117278D01*
X155494527Y-93111556D01*
X155553542Y-92929928D01*
X155556893Y-92898051D01*
X155572814Y-92746565D01*
X155573504Y-92740000D01*
X155564037Y-92649928D01*
X155554232Y-92556635D01*
X155554232Y-92556633D01*
X155553542Y-92550072D01*
X155494527Y-92368444D01*
X155399040Y-92203056D01*
X155389735Y-92192721D01*
X155275675Y-92066045D01*
X155275674Y-92066044D01*
X155271253Y-92061134D01*
X155137289Y-91963803D01*
X155122094Y-91952763D01*
X155122093Y-91952762D01*
X155116752Y-91948882D01*
X155110724Y-91946198D01*
X155110722Y-91946197D01*
X154948319Y-91873891D01*
X154948318Y-91873891D01*
X154942288Y-91871206D01*
X154837187Y-91848866D01*
X154761944Y-91832872D01*
X154761939Y-91832872D01*
X154755487Y-91831500D01*
X154564513Y-91831500D01*
X154558061Y-91832872D01*
X154558056Y-91832872D01*
X154482813Y-91848866D01*
X154377712Y-91871206D01*
X154371682Y-91873891D01*
X154371681Y-91873891D01*
X154209278Y-91946197D01*
X154209276Y-91946198D01*
X154203248Y-91948882D01*
X154197907Y-91952762D01*
X154197906Y-91952763D01*
X154182711Y-91963803D01*
X154048747Y-92061134D01*
X154044326Y-92066044D01*
X154044325Y-92066045D01*
X153930266Y-92192721D01*
X153920960Y-92203056D01*
X153825473Y-92368444D01*
X153766458Y-92550072D01*
X153765768Y-92556633D01*
X153765768Y-92556635D01*
X153755963Y-92649928D01*
X153746496Y-92740000D01*
X146185637Y-92740000D01*
X146202814Y-92576565D01*
X146203504Y-92570000D01*
X146199843Y-92535165D01*
X146184232Y-92386635D01*
X146184232Y-92386633D01*
X146183542Y-92380072D01*
X146138370Y-92241048D01*
X146136342Y-92170082D01*
X146173005Y-92109284D01*
X146235499Y-92078558D01*
X146235487Y-92078500D01*
X146422288Y-92038794D01*
X146435176Y-92033056D01*
X146590722Y-91963803D01*
X146590724Y-91963802D01*
X146596752Y-91961118D01*
X146613594Y-91948882D01*
X146717533Y-91873365D01*
X146751253Y-91848866D01*
X146765654Y-91832872D01*
X146874621Y-91711852D01*
X146874622Y-91711851D01*
X146879040Y-91706944D01*
X146888823Y-91690000D01*
X149116496Y-91690000D01*
X149117186Y-91696565D01*
X149125556Y-91776197D01*
X149136458Y-91879928D01*
X149195473Y-92061556D01*
X149198776Y-92067278D01*
X149198777Y-92067279D01*
X149205289Y-92078558D01*
X149290960Y-92226944D01*
X149295378Y-92231851D01*
X149295379Y-92231852D01*
X149335702Y-92276635D01*
X149418747Y-92368866D01*
X149425530Y-92373794D01*
X149553218Y-92466565D01*
X149573248Y-92481118D01*
X149579276Y-92483802D01*
X149579278Y-92483803D01*
X149714021Y-92543794D01*
X149747712Y-92558794D01*
X149829417Y-92576161D01*
X149928056Y-92597128D01*
X149928061Y-92597128D01*
X149934513Y-92598500D01*
X150125487Y-92598500D01*
X150131939Y-92597128D01*
X150131944Y-92597128D01*
X150230583Y-92576161D01*
X150312288Y-92558794D01*
X150345979Y-92543794D01*
X150480722Y-92483803D01*
X150480724Y-92483802D01*
X150486752Y-92481118D01*
X150506783Y-92466565D01*
X150634470Y-92373794D01*
X150641253Y-92368866D01*
X150724298Y-92276635D01*
X150764621Y-92231852D01*
X150764622Y-92231851D01*
X150769040Y-92226944D01*
X150854711Y-92078558D01*
X150861223Y-92067279D01*
X150861224Y-92067278D01*
X150864527Y-92061556D01*
X150923542Y-91879928D01*
X150934445Y-91776197D01*
X150942814Y-91696565D01*
X150943504Y-91690000D01*
X150933403Y-91593891D01*
X150924232Y-91506635D01*
X150924232Y-91506633D01*
X150923542Y-91500072D01*
X150864527Y-91318444D01*
X150769040Y-91153056D01*
X150641253Y-91011134D01*
X150486752Y-90898882D01*
X150480724Y-90896198D01*
X150480722Y-90896197D01*
X150318319Y-90823891D01*
X150318318Y-90823891D01*
X150312288Y-90821206D01*
X150205202Y-90798444D01*
X150131944Y-90782872D01*
X150131939Y-90782872D01*
X150125487Y-90781500D01*
X149934513Y-90781500D01*
X149928061Y-90782872D01*
X149928056Y-90782872D01*
X149854798Y-90798444D01*
X149747712Y-90821206D01*
X149741682Y-90823891D01*
X149741681Y-90823891D01*
X149579278Y-90896197D01*
X149579276Y-90896198D01*
X149573248Y-90898882D01*
X149418747Y-91011134D01*
X149290960Y-91153056D01*
X149195473Y-91318444D01*
X149136458Y-91500072D01*
X149135768Y-91506633D01*
X149135768Y-91506635D01*
X149126597Y-91593891D01*
X149116496Y-91690000D01*
X146888823Y-91690000D01*
X146974527Y-91541556D01*
X147033542Y-91359928D01*
X147053504Y-91170000D01*
X147051207Y-91148148D01*
X147034232Y-90986635D01*
X147034232Y-90986633D01*
X147033542Y-90980072D01*
X146974527Y-90798444D01*
X146965537Y-90782872D01*
X146882341Y-90638774D01*
X146879040Y-90633056D01*
X146822264Y-90570000D01*
X174346496Y-90570000D01*
X174347186Y-90576565D01*
X174352608Y-90628148D01*
X174366458Y-90759928D01*
X174425473Y-90941556D01*
X174520960Y-91106944D01*
X174648747Y-91248866D01*
X174803248Y-91361118D01*
X174809276Y-91363802D01*
X174809278Y-91363803D01*
X174971681Y-91436109D01*
X174977712Y-91438794D01*
X175071112Y-91458647D01*
X175158056Y-91477128D01*
X175158061Y-91477128D01*
X175164513Y-91478500D01*
X175355487Y-91478500D01*
X175361939Y-91477128D01*
X175361944Y-91477128D01*
X175448887Y-91458647D01*
X175542288Y-91438794D01*
X175548319Y-91436109D01*
X175710722Y-91363803D01*
X175710724Y-91363802D01*
X175716752Y-91361118D01*
X175871253Y-91248866D01*
X175999040Y-91106944D01*
X176094527Y-90941556D01*
X176153542Y-90759928D01*
X176167393Y-90628148D01*
X176172814Y-90576565D01*
X176173504Y-90570000D01*
X176153542Y-90380072D01*
X176094527Y-90198444D01*
X175999040Y-90033056D01*
X175871253Y-89891134D01*
X175716752Y-89778882D01*
X175710724Y-89776198D01*
X175710722Y-89776197D01*
X175548319Y-89703891D01*
X175548318Y-89703891D01*
X175542288Y-89701206D01*
X175448888Y-89681353D01*
X175361944Y-89662872D01*
X175361939Y-89662872D01*
X175355487Y-89661500D01*
X175164513Y-89661500D01*
X175158061Y-89662872D01*
X175158056Y-89662872D01*
X175071112Y-89681353D01*
X174977712Y-89701206D01*
X174971682Y-89703891D01*
X174971681Y-89703891D01*
X174809278Y-89776197D01*
X174809276Y-89776198D01*
X174803248Y-89778882D01*
X174648747Y-89891134D01*
X174520960Y-90033056D01*
X174425473Y-90198444D01*
X174366458Y-90380072D01*
X174346496Y-90570000D01*
X146822264Y-90570000D01*
X146751253Y-90491134D01*
X146596752Y-90378882D01*
X146590724Y-90376198D01*
X146590722Y-90376197D01*
X146428319Y-90303891D01*
X146428318Y-90303891D01*
X146422288Y-90301206D01*
X146328887Y-90281353D01*
X146241944Y-90262872D01*
X146241939Y-90262872D01*
X146235487Y-90261500D01*
X146044513Y-90261500D01*
X146038061Y-90262872D01*
X146038056Y-90262872D01*
X145951113Y-90281353D01*
X145857712Y-90301206D01*
X145851682Y-90303891D01*
X145851681Y-90303891D01*
X145689278Y-90376197D01*
X145689276Y-90376198D01*
X145683248Y-90378882D01*
X145528747Y-90491134D01*
X145400960Y-90633056D01*
X145397659Y-90638774D01*
X145314464Y-90782872D01*
X145305473Y-90798444D01*
X145246458Y-90980072D01*
X145245768Y-90986633D01*
X145245768Y-90986635D01*
X145228793Y-91148148D01*
X145226496Y-91170000D01*
X145246458Y-91359928D01*
X145291630Y-91498952D01*
X145293658Y-91569918D01*
X145256995Y-91630716D01*
X145194501Y-91661442D01*
X145194513Y-91661500D01*
X145007712Y-91701206D01*
X145001682Y-91703891D01*
X145001681Y-91703891D01*
X144839278Y-91776197D01*
X144839276Y-91776198D01*
X144833248Y-91778882D01*
X144678747Y-91891134D01*
X144674326Y-91896044D01*
X144674325Y-91896045D01*
X144613316Y-91963803D01*
X144550960Y-92033056D01*
X144455473Y-92198444D01*
X144396458Y-92380072D01*
X144395768Y-92386633D01*
X144395768Y-92386635D01*
X144380157Y-92535165D01*
X144376496Y-92570000D01*
X142853528Y-92570000D01*
X142678373Y-92538800D01*
X142678367Y-92538799D01*
X142673284Y-92537894D01*
X142599452Y-92536992D01*
X142455081Y-92535228D01*
X142455079Y-92535228D01*
X142449911Y-92535165D01*
X142229091Y-92568955D01*
X142016756Y-92638357D01*
X141818607Y-92741507D01*
X141814474Y-92744610D01*
X141814471Y-92744612D01*
X141652535Y-92866197D01*
X141639965Y-92875635D01*
X141571501Y-92947279D01*
X141559283Y-92960064D01*
X141497759Y-92995494D01*
X141426846Y-92992037D01*
X141369060Y-92950791D01*
X141350207Y-92917243D01*
X141308767Y-92806703D01*
X141305615Y-92798295D01*
X141218261Y-92681739D01*
X141101705Y-92594385D01*
X140965316Y-92543255D01*
X140903134Y-92536500D01*
X139106866Y-92536500D01*
X139044684Y-92543255D01*
X138908295Y-92594385D01*
X138791739Y-92681739D01*
X138704385Y-92798295D01*
X138653255Y-92934684D01*
X138646500Y-92996866D01*
X138646500Y-94793134D01*
X138653255Y-94855316D01*
X138704385Y-94991705D01*
X138791739Y-95108261D01*
X138908295Y-95195615D01*
X138916704Y-95198767D01*
X138916705Y-95198768D01*
X139025960Y-95239726D01*
X139082725Y-95282367D01*
X139107425Y-95348929D01*
X139092218Y-95418278D01*
X139072825Y-95444759D01*
X138949590Y-95573717D01*
X138943104Y-95581727D01*
X138823098Y-95757649D01*
X138818000Y-95766623D01*
X138728338Y-95959783D01*
X138724775Y-95969470D01*
X138669389Y-96169183D01*
X138670912Y-96177607D01*
X138683292Y-96181000D01*
X140133000Y-96181000D01*
X140201121Y-96201002D01*
X140247614Y-96254658D01*
X140259000Y-96307000D01*
X140259000Y-99103000D01*
X140238998Y-99171121D01*
X140185342Y-99217614D01*
X140133000Y-99229000D01*
X138688225Y-99229000D01*
X138674694Y-99232973D01*
X138673257Y-99242966D01*
X138703565Y-99377446D01*
X138706645Y-99387275D01*
X138786770Y-99584603D01*
X138791413Y-99593794D01*
X138902694Y-99775388D01*
X138908777Y-99783699D01*
X139048213Y-99944667D01*
X139055580Y-99951883D01*
X139219434Y-100087916D01*
X139227881Y-100093831D01*
X139296969Y-100134203D01*
X139345693Y-100185842D01*
X139358764Y-100255625D01*
X139332033Y-100321396D01*
X139291584Y-100354752D01*
X139278607Y-100361507D01*
X139274474Y-100364610D01*
X139274471Y-100364612D01*
X139138544Y-100466669D01*
X139099965Y-100495635D01*
X139086608Y-100509612D01*
X138957828Y-100644373D01*
X138945629Y-100657138D01*
X138819743Y-100841680D01*
X138804003Y-100875590D01*
X138752437Y-100986680D01*
X138725688Y-101044305D01*
X138665989Y-101259570D01*
X138642251Y-101481695D01*
X136108500Y-101481695D01*
X136108500Y-98709183D01*
X138669389Y-98709183D01*
X138670912Y-98717607D01*
X138683292Y-98721000D01*
X139732885Y-98721000D01*
X139748124Y-98716525D01*
X139749329Y-98715135D01*
X139751000Y-98707452D01*
X139751000Y-96707115D01*
X139746525Y-96691876D01*
X139745135Y-96690671D01*
X139737452Y-96689000D01*
X138688225Y-96689000D01*
X138674694Y-96692973D01*
X138673257Y-96702966D01*
X138703565Y-96837446D01*
X138706645Y-96847275D01*
X138786770Y-97044603D01*
X138791413Y-97053794D01*
X138902694Y-97235388D01*
X138908777Y-97243699D01*
X139048213Y-97404667D01*
X139055580Y-97411883D01*
X139219434Y-97547916D01*
X139227881Y-97553831D01*
X139297479Y-97594501D01*
X139346203Y-97646140D01*
X139359274Y-97715923D01*
X139332543Y-97781694D01*
X139292087Y-97815053D01*
X139283462Y-97819542D01*
X139274738Y-97825036D01*
X139104433Y-97952905D01*
X139096726Y-97959748D01*
X138949590Y-98113717D01*
X138943104Y-98121727D01*
X138823098Y-98297649D01*
X138818000Y-98306623D01*
X138728338Y-98499783D01*
X138724775Y-98509470D01*
X138669389Y-98709183D01*
X136108500Y-98709183D01*
X136108500Y-89050000D01*
X158856496Y-89050000D01*
X158857186Y-89056565D01*
X158868746Y-89166548D01*
X158876458Y-89239928D01*
X158935473Y-89421556D01*
X159030960Y-89586944D01*
X159158747Y-89728866D01*
X159313248Y-89841118D01*
X159319276Y-89843802D01*
X159319278Y-89843803D01*
X159481681Y-89916109D01*
X159487712Y-89918794D01*
X159581113Y-89938647D01*
X159668056Y-89957128D01*
X159668061Y-89957128D01*
X159674513Y-89958500D01*
X159865487Y-89958500D01*
X159871939Y-89957128D01*
X159871944Y-89957128D01*
X159958888Y-89938647D01*
X160052288Y-89918794D01*
X160058319Y-89916109D01*
X160220722Y-89843803D01*
X160220724Y-89843802D01*
X160226752Y-89841118D01*
X160381253Y-89728866D01*
X160509040Y-89586944D01*
X160604527Y-89421556D01*
X160663542Y-89239928D01*
X160664233Y-89233356D01*
X160665154Y-89229022D01*
X160698882Y-89166548D01*
X160761031Y-89132227D01*
X160831871Y-89136954D01*
X160862459Y-89153280D01*
X160867903Y-89157235D01*
X160867906Y-89157236D01*
X160873248Y-89161118D01*
X160879276Y-89163802D01*
X160879278Y-89163803D01*
X161035518Y-89233365D01*
X161047712Y-89238794D01*
X161141112Y-89258647D01*
X161228056Y-89277128D01*
X161228061Y-89277128D01*
X161234513Y-89278500D01*
X161425487Y-89278500D01*
X161431939Y-89277128D01*
X161431944Y-89277128D01*
X161518888Y-89258647D01*
X161612288Y-89238794D01*
X161624482Y-89233365D01*
X161780722Y-89163803D01*
X161780724Y-89163802D01*
X161786752Y-89161118D01*
X161792097Y-89157235D01*
X161930656Y-89056565D01*
X161941253Y-89048866D01*
X162069040Y-88906944D01*
X162164527Y-88741556D01*
X162223542Y-88559928D01*
X162227868Y-88518774D01*
X162242814Y-88376565D01*
X162243504Y-88370000D01*
X162231543Y-88256197D01*
X162224232Y-88186635D01*
X162224232Y-88186633D01*
X162223542Y-88180072D01*
X162164527Y-87998444D01*
X162069040Y-87833056D01*
X162051842Y-87813955D01*
X161945675Y-87696045D01*
X161945674Y-87696044D01*
X161941253Y-87691134D01*
X161786752Y-87578882D01*
X161780724Y-87576198D01*
X161780722Y-87576197D01*
X161618319Y-87503891D01*
X161618318Y-87503891D01*
X161612288Y-87501206D01*
X161518887Y-87481353D01*
X161431944Y-87462872D01*
X161431939Y-87462872D01*
X161425487Y-87461500D01*
X161234513Y-87461500D01*
X161228061Y-87462872D01*
X161228056Y-87462872D01*
X161141112Y-87481353D01*
X161047712Y-87501206D01*
X161041682Y-87503891D01*
X161041681Y-87503891D01*
X160879278Y-87576197D01*
X160879276Y-87576198D01*
X160873248Y-87578882D01*
X160718747Y-87691134D01*
X160714326Y-87696044D01*
X160714325Y-87696045D01*
X160608159Y-87813955D01*
X160590960Y-87833056D01*
X160495473Y-87998444D01*
X160436458Y-88180072D01*
X160435767Y-88186644D01*
X160434846Y-88190978D01*
X160401118Y-88253452D01*
X160338969Y-88287773D01*
X160268129Y-88283046D01*
X160237541Y-88266720D01*
X160232097Y-88262765D01*
X160232094Y-88262763D01*
X160226752Y-88258882D01*
X160220724Y-88256198D01*
X160220722Y-88256197D01*
X160058319Y-88183891D01*
X160058318Y-88183891D01*
X160052288Y-88181206D01*
X159958887Y-88161353D01*
X159871944Y-88142872D01*
X159871939Y-88142872D01*
X159865487Y-88141500D01*
X159674513Y-88141500D01*
X159668061Y-88142872D01*
X159668056Y-88142872D01*
X159581113Y-88161353D01*
X159487712Y-88181206D01*
X159481682Y-88183891D01*
X159481681Y-88183891D01*
X159319278Y-88256197D01*
X159319276Y-88256198D01*
X159313248Y-88258882D01*
X159307907Y-88262762D01*
X159307906Y-88262763D01*
X159302460Y-88266720D01*
X159158747Y-88371134D01*
X159030960Y-88513056D01*
X158935473Y-88678444D01*
X158876458Y-88860072D01*
X158875768Y-88866633D01*
X158875768Y-88866635D01*
X158871016Y-88911852D01*
X158856496Y-89050000D01*
X136108500Y-89050000D01*
X136108500Y-87060000D01*
X150953996Y-87060000D01*
X150973958Y-87249928D01*
X151032973Y-87431556D01*
X151128460Y-87596944D01*
X151256247Y-87738866D01*
X151355343Y-87810864D01*
X151371702Y-87822749D01*
X151410748Y-87851118D01*
X151416776Y-87853802D01*
X151416778Y-87853803D01*
X151579181Y-87926109D01*
X151585212Y-87928794D01*
X151678612Y-87948647D01*
X151765556Y-87967128D01*
X151765561Y-87967128D01*
X151772013Y-87968500D01*
X151962987Y-87968500D01*
X151969439Y-87967128D01*
X151969444Y-87967128D01*
X152056388Y-87948647D01*
X152149788Y-87928794D01*
X152155819Y-87926109D01*
X152318222Y-87853803D01*
X152318224Y-87853802D01*
X152324252Y-87851118D01*
X152363299Y-87822749D01*
X152379657Y-87810864D01*
X152478753Y-87738866D01*
X152606540Y-87596944D01*
X152702027Y-87431556D01*
X152761042Y-87249928D01*
X152781004Y-87060000D01*
X157903996Y-87060000D01*
X157923958Y-87249928D01*
X157982973Y-87431556D01*
X158078460Y-87596944D01*
X158206247Y-87738866D01*
X158305343Y-87810864D01*
X158321702Y-87822749D01*
X158360748Y-87851118D01*
X158366776Y-87853802D01*
X158366778Y-87853803D01*
X158529181Y-87926109D01*
X158535212Y-87928794D01*
X158628612Y-87948647D01*
X158715556Y-87967128D01*
X158715561Y-87967128D01*
X158722013Y-87968500D01*
X158912987Y-87968500D01*
X158919439Y-87967128D01*
X158919444Y-87967128D01*
X159006388Y-87948647D01*
X159099788Y-87928794D01*
X159105819Y-87926109D01*
X159268222Y-87853803D01*
X159268224Y-87853802D01*
X159274252Y-87851118D01*
X159313299Y-87822749D01*
X159329657Y-87810864D01*
X159428753Y-87738866D01*
X159556540Y-87596944D01*
X159652027Y-87431556D01*
X159711042Y-87249928D01*
X159722596Y-87140000D01*
X167476996Y-87140000D01*
X167477686Y-87146565D01*
X167489210Y-87256206D01*
X167496958Y-87329928D01*
X167555973Y-87511556D01*
X167651460Y-87676944D01*
X167655878Y-87681851D01*
X167655879Y-87681852D01*
X167702793Y-87733955D01*
X167779247Y-87818866D01*
X167878343Y-87890864D01*
X167926854Y-87926109D01*
X167933748Y-87931118D01*
X167939776Y-87933802D01*
X167939778Y-87933803D01*
X168102181Y-88006109D01*
X168108212Y-88008794D01*
X168201613Y-88028647D01*
X168288556Y-88047128D01*
X168288561Y-88047128D01*
X168295013Y-88048500D01*
X168485987Y-88048500D01*
X168492439Y-88047128D01*
X168492444Y-88047128D01*
X168579388Y-88028647D01*
X168672788Y-88008794D01*
X168678819Y-88006109D01*
X168841222Y-87933803D01*
X168841224Y-87933802D01*
X168847252Y-87931118D01*
X168854147Y-87926109D01*
X168902657Y-87890864D01*
X169001753Y-87818866D01*
X169078207Y-87733955D01*
X169125121Y-87681852D01*
X169125122Y-87681851D01*
X169129540Y-87676944D01*
X169225027Y-87511556D01*
X169284042Y-87329928D01*
X169291791Y-87256206D01*
X169303314Y-87146565D01*
X169304004Y-87140000D01*
X169284042Y-86950072D01*
X169225027Y-86768444D01*
X169129540Y-86603056D01*
X169001753Y-86461134D01*
X168891643Y-86381134D01*
X168852594Y-86352763D01*
X168852593Y-86352762D01*
X168847252Y-86348882D01*
X168841224Y-86346198D01*
X168841222Y-86346197D01*
X168678819Y-86273891D01*
X168678818Y-86273891D01*
X168672788Y-86271206D01*
X168579388Y-86251353D01*
X168492444Y-86232872D01*
X168492439Y-86232872D01*
X168485987Y-86231500D01*
X168295013Y-86231500D01*
X168288561Y-86232872D01*
X168288556Y-86232872D01*
X168201612Y-86251353D01*
X168108212Y-86271206D01*
X168102182Y-86273891D01*
X168102181Y-86273891D01*
X167939778Y-86346197D01*
X167939776Y-86346198D01*
X167933748Y-86348882D01*
X167928407Y-86352762D01*
X167928406Y-86352763D01*
X167889357Y-86381134D01*
X167779247Y-86461134D01*
X167651460Y-86603056D01*
X167555973Y-86768444D01*
X167496958Y-86950072D01*
X167476996Y-87140000D01*
X159722596Y-87140000D01*
X159731004Y-87060000D01*
X159719450Y-86950072D01*
X159711732Y-86876635D01*
X159711732Y-86876633D01*
X159711042Y-86870072D01*
X159652027Y-86688444D01*
X159556540Y-86523056D01*
X159428753Y-86381134D01*
X159329657Y-86309136D01*
X159279594Y-86272763D01*
X159279593Y-86272762D01*
X159274252Y-86268882D01*
X159268224Y-86266198D01*
X159268222Y-86266197D01*
X159105819Y-86193891D01*
X159105818Y-86193891D01*
X159099788Y-86191206D01*
X159006388Y-86171353D01*
X158919444Y-86152872D01*
X158919439Y-86152872D01*
X158912987Y-86151500D01*
X158722013Y-86151500D01*
X158715561Y-86152872D01*
X158715556Y-86152872D01*
X158628613Y-86171353D01*
X158535212Y-86191206D01*
X158529182Y-86193891D01*
X158529181Y-86193891D01*
X158366778Y-86266197D01*
X158366776Y-86266198D01*
X158360748Y-86268882D01*
X158355407Y-86272762D01*
X158355406Y-86272763D01*
X158305343Y-86309136D01*
X158206247Y-86381134D01*
X158078460Y-86523056D01*
X157982973Y-86688444D01*
X157923958Y-86870072D01*
X157923268Y-86876633D01*
X157923268Y-86876635D01*
X157915550Y-86950072D01*
X157903996Y-87060000D01*
X152781004Y-87060000D01*
X152769450Y-86950072D01*
X152761732Y-86876635D01*
X152761732Y-86876633D01*
X152761042Y-86870072D01*
X152702027Y-86688444D01*
X152606540Y-86523056D01*
X152478753Y-86381134D01*
X152379657Y-86309136D01*
X152329594Y-86272763D01*
X152329593Y-86272762D01*
X152324252Y-86268882D01*
X152318224Y-86266198D01*
X152318222Y-86266197D01*
X152155819Y-86193891D01*
X152155818Y-86193891D01*
X152149788Y-86191206D01*
X152056388Y-86171353D01*
X151969444Y-86152872D01*
X151969439Y-86152872D01*
X151962987Y-86151500D01*
X151772013Y-86151500D01*
X151765561Y-86152872D01*
X151765556Y-86152872D01*
X151678613Y-86171353D01*
X151585212Y-86191206D01*
X151579182Y-86193891D01*
X151579181Y-86193891D01*
X151416778Y-86266197D01*
X151416776Y-86266198D01*
X151410748Y-86268882D01*
X151405407Y-86272762D01*
X151405406Y-86272763D01*
X151355343Y-86309136D01*
X151256247Y-86381134D01*
X151128460Y-86523056D01*
X151032973Y-86688444D01*
X150973958Y-86870072D01*
X150973268Y-86876633D01*
X150973268Y-86876635D01*
X150965550Y-86950072D01*
X150953996Y-87060000D01*
X136108500Y-87060000D01*
X136108500Y-82810000D01*
X144503996Y-82810000D01*
X144523958Y-82999928D01*
X144582973Y-83181556D01*
X144678460Y-83346944D01*
X144806247Y-83488866D01*
X144960748Y-83601118D01*
X144966776Y-83603802D01*
X144966778Y-83603803D01*
X145129181Y-83676109D01*
X145135212Y-83678794D01*
X145212730Y-83695271D01*
X145315556Y-83717128D01*
X145315561Y-83717128D01*
X145322013Y-83718500D01*
X145512987Y-83718500D01*
X145519439Y-83717128D01*
X145519444Y-83717128D01*
X145622270Y-83695271D01*
X145699788Y-83678794D01*
X145705819Y-83676109D01*
X145868222Y-83603803D01*
X145868224Y-83603802D01*
X145874252Y-83601118D01*
X146028753Y-83488866D01*
X146156540Y-83346944D01*
X146166323Y-83330000D01*
X152703996Y-83330000D01*
X152723958Y-83519928D01*
X152782973Y-83701556D01*
X152786276Y-83707278D01*
X152786277Y-83707279D01*
X152820186Y-83766010D01*
X152878460Y-83866944D01*
X153006247Y-84008866D01*
X153160748Y-84121118D01*
X153166776Y-84123802D01*
X153166778Y-84123803D01*
X153329181Y-84196109D01*
X153335212Y-84198794D01*
X153428612Y-84218647D01*
X153515556Y-84237128D01*
X153515561Y-84237128D01*
X153522013Y-84238500D01*
X153712987Y-84238500D01*
X153719439Y-84237128D01*
X153719444Y-84237128D01*
X153806388Y-84218647D01*
X153899788Y-84198794D01*
X153905819Y-84196109D01*
X154068222Y-84123803D01*
X154068224Y-84123802D01*
X154074252Y-84121118D01*
X154228753Y-84008866D01*
X154356540Y-83866944D01*
X154414814Y-83766010D01*
X154448723Y-83707279D01*
X154448724Y-83707278D01*
X154452027Y-83701556D01*
X154511042Y-83519928D01*
X154531004Y-83330000D01*
X154511042Y-83140072D01*
X154452027Y-82958444D01*
X154356540Y-82793056D01*
X154228753Y-82651134D01*
X154074252Y-82538882D01*
X154068224Y-82536198D01*
X154068222Y-82536197D01*
X153905819Y-82463891D01*
X153905818Y-82463891D01*
X153899788Y-82461206D01*
X153792702Y-82438444D01*
X153719444Y-82422872D01*
X153719439Y-82422872D01*
X153712987Y-82421500D01*
X153522013Y-82421500D01*
X153515561Y-82422872D01*
X153515556Y-82422872D01*
X153442298Y-82438444D01*
X153335212Y-82461206D01*
X153329182Y-82463891D01*
X153329181Y-82463891D01*
X153166778Y-82536197D01*
X153166776Y-82536198D01*
X153160748Y-82538882D01*
X153006247Y-82651134D01*
X152878460Y-82793056D01*
X152782973Y-82958444D01*
X152723958Y-83140072D01*
X152703996Y-83330000D01*
X146166323Y-83330000D01*
X146252027Y-83181556D01*
X146311042Y-82999928D01*
X146331004Y-82810000D01*
X146311042Y-82620072D01*
X146252027Y-82438444D01*
X146243037Y-82422872D01*
X146159841Y-82278774D01*
X146156540Y-82273056D01*
X146028753Y-82131134D01*
X145874252Y-82018882D01*
X145868224Y-82016198D01*
X145868222Y-82016197D01*
X145705819Y-81943891D01*
X145705818Y-81943891D01*
X145699788Y-81941206D01*
X145606388Y-81921353D01*
X145519444Y-81902872D01*
X145519439Y-81902872D01*
X145512987Y-81901500D01*
X145322013Y-81901500D01*
X145315561Y-81902872D01*
X145315556Y-81902872D01*
X145228612Y-81921353D01*
X145135212Y-81941206D01*
X145129182Y-81943891D01*
X145129181Y-81943891D01*
X144966778Y-82016197D01*
X144966776Y-82016198D01*
X144960748Y-82018882D01*
X144806247Y-82131134D01*
X144678460Y-82273056D01*
X144675159Y-82278774D01*
X144591964Y-82422872D01*
X144582973Y-82438444D01*
X144523958Y-82620072D01*
X144503996Y-82810000D01*
X136108500Y-82810000D01*
X136108500Y-78060000D01*
X156453996Y-78060000D01*
X156454686Y-78066565D01*
X156461989Y-78136045D01*
X156473958Y-78249928D01*
X156532973Y-78431556D01*
X156628460Y-78596944D01*
X156632878Y-78601851D01*
X156632879Y-78601852D01*
X156655194Y-78626635D01*
X156756247Y-78738866D01*
X156910748Y-78851118D01*
X156916776Y-78853802D01*
X156916778Y-78853803D01*
X157079181Y-78926109D01*
X157085212Y-78928794D01*
X157091673Y-78930167D01*
X157091678Y-78930169D01*
X157201179Y-78953445D01*
X157263653Y-78987173D01*
X157297974Y-79049322D01*
X157293246Y-79120161D01*
X157250970Y-79177199D01*
X157207683Y-79196966D01*
X157207952Y-79197792D01*
X157201668Y-79199834D01*
X157195212Y-79201206D01*
X157189182Y-79203891D01*
X157189181Y-79203891D01*
X157026778Y-79276197D01*
X157026776Y-79276198D01*
X157020748Y-79278882D01*
X156866247Y-79391134D01*
X156861826Y-79396044D01*
X156861825Y-79396045D01*
X156774753Y-79492749D01*
X156738460Y-79533056D01*
X156642973Y-79698444D01*
X156583958Y-79880072D01*
X156563996Y-80070000D01*
X156583958Y-80259928D01*
X156642973Y-80441556D01*
X156738460Y-80606944D01*
X156866247Y-80748866D01*
X157020748Y-80861118D01*
X157026776Y-80863802D01*
X157026778Y-80863803D01*
X157189181Y-80936109D01*
X157195212Y-80938794D01*
X157288613Y-80958647D01*
X157375556Y-80977128D01*
X157375561Y-80977128D01*
X157382013Y-80978500D01*
X157572987Y-80978500D01*
X157579439Y-80977128D01*
X157579444Y-80977128D01*
X157666387Y-80958647D01*
X157759788Y-80938794D01*
X157765819Y-80936109D01*
X157928222Y-80863803D01*
X157928224Y-80863802D01*
X157934252Y-80861118D01*
X158088753Y-80748866D01*
X158216540Y-80606944D01*
X158312027Y-80441556D01*
X158371042Y-80259928D01*
X158391004Y-80070000D01*
X158371042Y-79880072D01*
X158312027Y-79698444D01*
X158216540Y-79533056D01*
X158180248Y-79492749D01*
X158093175Y-79396045D01*
X158093174Y-79396044D01*
X158088753Y-79391134D01*
X157934252Y-79278882D01*
X157928224Y-79276198D01*
X157928222Y-79276197D01*
X157765819Y-79203891D01*
X157765818Y-79203891D01*
X157759788Y-79201206D01*
X157753327Y-79199833D01*
X157753322Y-79199831D01*
X157643821Y-79176555D01*
X157581347Y-79142827D01*
X157547026Y-79080678D01*
X157551754Y-79009839D01*
X157594030Y-78952801D01*
X157637317Y-78933034D01*
X157637048Y-78932208D01*
X157643332Y-78930166D01*
X157649788Y-78928794D01*
X157655819Y-78926109D01*
X157818222Y-78853803D01*
X157818224Y-78853802D01*
X157824252Y-78851118D01*
X157880846Y-78810000D01*
X164066496Y-78810000D01*
X164067186Y-78816565D01*
X164078982Y-78928794D01*
X164086458Y-78999928D01*
X164145473Y-79181556D01*
X164240960Y-79346944D01*
X164245378Y-79351851D01*
X164245379Y-79351852D01*
X164280749Y-79391134D01*
X164368747Y-79488866D01*
X164523248Y-79601118D01*
X164529276Y-79603802D01*
X164529278Y-79603803D01*
X164691681Y-79676109D01*
X164697712Y-79678794D01*
X164790157Y-79698444D01*
X164878056Y-79717128D01*
X164878061Y-79717128D01*
X164884513Y-79718500D01*
X165075487Y-79718500D01*
X165081939Y-79717128D01*
X165081944Y-79717128D01*
X165169843Y-79698444D01*
X165262288Y-79678794D01*
X165268319Y-79676109D01*
X165430722Y-79603803D01*
X165430724Y-79603802D01*
X165436752Y-79601118D01*
X165591253Y-79488866D01*
X165679251Y-79391134D01*
X165714621Y-79351852D01*
X165714622Y-79351851D01*
X165719040Y-79346944D01*
X165814527Y-79181556D01*
X165873542Y-78999928D01*
X165881019Y-78928794D01*
X165892814Y-78816565D01*
X165893504Y-78810000D01*
X165886028Y-78738866D01*
X165874232Y-78626635D01*
X165874232Y-78626633D01*
X165873542Y-78620072D01*
X165814527Y-78438444D01*
X165719040Y-78273056D01*
X165698216Y-78249928D01*
X165595675Y-78136045D01*
X165595674Y-78136044D01*
X165591253Y-78131134D01*
X165436752Y-78018882D01*
X165430724Y-78016198D01*
X165430722Y-78016197D01*
X165268319Y-77943891D01*
X165268318Y-77943891D01*
X165262288Y-77941206D01*
X165168887Y-77921353D01*
X165081944Y-77902872D01*
X165081939Y-77902872D01*
X165075487Y-77901500D01*
X164884513Y-77901500D01*
X164878061Y-77902872D01*
X164878056Y-77902872D01*
X164791113Y-77921353D01*
X164697712Y-77941206D01*
X164691682Y-77943891D01*
X164691681Y-77943891D01*
X164529278Y-78016197D01*
X164529276Y-78016198D01*
X164523248Y-78018882D01*
X164368747Y-78131134D01*
X164364326Y-78136044D01*
X164364325Y-78136045D01*
X164261785Y-78249928D01*
X164240960Y-78273056D01*
X164145473Y-78438444D01*
X164086458Y-78620072D01*
X164085768Y-78626633D01*
X164085768Y-78626635D01*
X164073972Y-78738866D01*
X164066496Y-78810000D01*
X157880846Y-78810000D01*
X157978753Y-78738866D01*
X158079806Y-78626635D01*
X158102121Y-78601852D01*
X158102122Y-78601851D01*
X158106540Y-78596944D01*
X158202027Y-78431556D01*
X158261042Y-78249928D01*
X158273012Y-78136045D01*
X158280314Y-78066565D01*
X158281004Y-78060000D01*
X158268801Y-77943891D01*
X158261732Y-77876635D01*
X158261732Y-77876633D01*
X158261042Y-77870072D01*
X158202027Y-77688444D01*
X158106540Y-77523056D01*
X158062180Y-77473789D01*
X158031462Y-77409782D01*
X158040227Y-77339328D01*
X158081755Y-77287543D01*
X158143409Y-77242749D01*
X158143411Y-77242747D01*
X158148753Y-77238866D01*
X158276540Y-77096944D01*
X158372027Y-76931556D01*
X158431042Y-76749928D01*
X158451004Y-76560000D01*
X158431042Y-76370072D01*
X158372027Y-76188444D01*
X158276540Y-76023056D01*
X158271203Y-76017128D01*
X158153175Y-75886045D01*
X158153174Y-75886044D01*
X158148753Y-75881134D01*
X157994252Y-75768882D01*
X157988224Y-75766198D01*
X157988222Y-75766197D01*
X157825819Y-75693891D01*
X157825818Y-75693891D01*
X157819788Y-75691206D01*
X157726387Y-75671353D01*
X157639444Y-75652872D01*
X157639439Y-75652872D01*
X157632987Y-75651500D01*
X157442013Y-75651500D01*
X157435561Y-75652872D01*
X157435556Y-75652872D01*
X157348613Y-75671353D01*
X157255212Y-75691206D01*
X157249182Y-75693891D01*
X157249181Y-75693891D01*
X157086778Y-75766197D01*
X157086776Y-75766198D01*
X157080748Y-75768882D01*
X156926247Y-75881134D01*
X156921826Y-75886044D01*
X156921825Y-75886045D01*
X156803798Y-76017128D01*
X156798460Y-76023056D01*
X156702973Y-76188444D01*
X156643958Y-76370072D01*
X156623996Y-76560000D01*
X156643958Y-76749928D01*
X156702973Y-76931556D01*
X156798460Y-77096944D01*
X156802878Y-77101851D01*
X156802879Y-77101852D01*
X156842820Y-77146211D01*
X156873538Y-77210218D01*
X156864773Y-77280672D01*
X156823245Y-77332457D01*
X156756247Y-77381134D01*
X156628460Y-77523056D01*
X156532973Y-77688444D01*
X156473958Y-77870072D01*
X156473268Y-77876633D01*
X156473268Y-77876635D01*
X156466199Y-77943891D01*
X156453996Y-78060000D01*
X136108500Y-78060000D01*
X136108500Y-75560000D01*
X143933996Y-75560000D01*
X143953958Y-75749928D01*
X144012973Y-75931556D01*
X144108460Y-76096944D01*
X144112878Y-76101851D01*
X144112879Y-76101852D01*
X144153480Y-76146944D01*
X144236247Y-76238866D01*
X144390748Y-76351118D01*
X144396776Y-76353802D01*
X144396778Y-76353803D01*
X144448060Y-76376635D01*
X144565212Y-76428794D01*
X144658613Y-76448647D01*
X144745556Y-76467128D01*
X144745561Y-76467128D01*
X144752013Y-76468500D01*
X144942987Y-76468500D01*
X144949439Y-76467128D01*
X144949444Y-76467128D01*
X145036387Y-76448647D01*
X145129788Y-76428794D01*
X145246940Y-76376635D01*
X145298222Y-76353803D01*
X145298224Y-76353802D01*
X145304252Y-76351118D01*
X145458753Y-76238866D01*
X145541520Y-76146944D01*
X145582121Y-76101852D01*
X145582122Y-76101851D01*
X145586540Y-76096944D01*
X145682027Y-75931556D01*
X145741042Y-75749928D01*
X145761004Y-75560000D01*
X145741042Y-75370072D01*
X145682027Y-75188444D01*
X145636737Y-75110000D01*
X153203996Y-75110000D01*
X153223958Y-75299928D01*
X153282973Y-75481556D01*
X153378460Y-75646944D01*
X153382878Y-75651851D01*
X153382879Y-75651852D01*
X153420731Y-75693891D01*
X153506247Y-75788866D01*
X153660748Y-75901118D01*
X153666776Y-75903802D01*
X153666778Y-75903803D01*
X153729113Y-75931556D01*
X153835212Y-75978794D01*
X153928613Y-75998647D01*
X154015556Y-76017128D01*
X154015561Y-76017128D01*
X154022013Y-76018500D01*
X154212987Y-76018500D01*
X154219439Y-76017128D01*
X154219444Y-76017128D01*
X154306387Y-75998647D01*
X154399788Y-75978794D01*
X154505887Y-75931556D01*
X154568222Y-75903803D01*
X154568224Y-75903802D01*
X154574252Y-75901118D01*
X154728753Y-75788866D01*
X154814269Y-75693891D01*
X154852121Y-75651852D01*
X154852122Y-75651851D01*
X154856540Y-75646944D01*
X154877870Y-75610000D01*
X169326496Y-75610000D01*
X169346458Y-75799928D01*
X169405473Y-75981556D01*
X169408776Y-75987278D01*
X169408777Y-75987279D01*
X169426599Y-76018148D01*
X169500960Y-76146944D01*
X169628747Y-76288866D01*
X169783248Y-76401118D01*
X169789276Y-76403802D01*
X169789278Y-76403803D01*
X169934591Y-76468500D01*
X169957712Y-76478794D01*
X170051112Y-76498647D01*
X170138056Y-76517128D01*
X170138061Y-76517128D01*
X170144513Y-76518500D01*
X170335487Y-76518500D01*
X170341939Y-76517128D01*
X170341944Y-76517128D01*
X170428888Y-76498647D01*
X170522288Y-76478794D01*
X170545409Y-76468500D01*
X170690722Y-76403803D01*
X170690724Y-76403802D01*
X170696752Y-76401118D01*
X170851253Y-76288866D01*
X170979040Y-76146944D01*
X171053401Y-76018148D01*
X171071223Y-75987279D01*
X171071224Y-75987278D01*
X171074527Y-75981556D01*
X171133542Y-75799928D01*
X171153504Y-75610000D01*
X171133542Y-75420072D01*
X171074527Y-75238444D01*
X170979040Y-75073056D01*
X170939169Y-75028774D01*
X170855675Y-74936045D01*
X170855674Y-74936044D01*
X170851253Y-74931134D01*
X170717289Y-74833803D01*
X170702094Y-74822763D01*
X170702093Y-74822762D01*
X170696752Y-74818882D01*
X170690724Y-74816198D01*
X170690722Y-74816197D01*
X170528319Y-74743891D01*
X170528318Y-74743891D01*
X170522288Y-74741206D01*
X170417187Y-74718866D01*
X170341944Y-74702872D01*
X170341939Y-74702872D01*
X170335487Y-74701500D01*
X170144513Y-74701500D01*
X170138061Y-74702872D01*
X170138056Y-74702872D01*
X170062813Y-74718866D01*
X169957712Y-74741206D01*
X169951682Y-74743891D01*
X169951681Y-74743891D01*
X169789278Y-74816197D01*
X169789276Y-74816198D01*
X169783248Y-74818882D01*
X169777907Y-74822762D01*
X169777906Y-74822763D01*
X169762711Y-74833803D01*
X169628747Y-74931134D01*
X169624326Y-74936044D01*
X169624325Y-74936045D01*
X169540832Y-75028774D01*
X169500960Y-75073056D01*
X169405473Y-75238444D01*
X169346458Y-75420072D01*
X169326496Y-75610000D01*
X154877870Y-75610000D01*
X154952027Y-75481556D01*
X155011042Y-75299928D01*
X155031004Y-75110000D01*
X155011042Y-74920072D01*
X154952027Y-74738444D01*
X154942966Y-74722749D01*
X154859841Y-74578774D01*
X154856540Y-74573056D01*
X154728753Y-74431134D01*
X154574252Y-74318882D01*
X154568224Y-74316198D01*
X154568222Y-74316197D01*
X154405819Y-74243891D01*
X154405818Y-74243891D01*
X154399788Y-74241206D01*
X154306387Y-74221353D01*
X154219444Y-74202872D01*
X154219439Y-74202872D01*
X154212987Y-74201500D01*
X154022013Y-74201500D01*
X154015561Y-74202872D01*
X154015556Y-74202872D01*
X153928613Y-74221353D01*
X153835212Y-74241206D01*
X153829182Y-74243891D01*
X153829181Y-74243891D01*
X153666778Y-74316197D01*
X153666776Y-74316198D01*
X153660748Y-74318882D01*
X153506247Y-74431134D01*
X153378460Y-74573056D01*
X153375159Y-74578774D01*
X153292035Y-74722749D01*
X153282973Y-74738444D01*
X153223958Y-74920072D01*
X153203996Y-75110000D01*
X145636737Y-75110000D01*
X145586540Y-75023056D01*
X145458753Y-74881134D01*
X145304252Y-74768882D01*
X145298224Y-74766198D01*
X145298222Y-74766197D01*
X145135819Y-74693891D01*
X145135818Y-74693891D01*
X145129788Y-74691206D01*
X145036388Y-74671353D01*
X144949444Y-74652872D01*
X144949439Y-74652872D01*
X144942987Y-74651500D01*
X144752013Y-74651500D01*
X144745561Y-74652872D01*
X144745556Y-74652872D01*
X144658612Y-74671353D01*
X144565212Y-74691206D01*
X144559182Y-74693891D01*
X144559181Y-74693891D01*
X144396778Y-74766197D01*
X144396776Y-74766198D01*
X144390748Y-74768882D01*
X144236247Y-74881134D01*
X144108460Y-75023056D01*
X144012973Y-75188444D01*
X143953958Y-75370072D01*
X143933996Y-75560000D01*
X136108500Y-75560000D01*
X136108500Y-73360000D01*
X157113996Y-73360000D01*
X157114686Y-73366565D01*
X157129633Y-73508774D01*
X157133958Y-73549928D01*
X157192973Y-73731556D01*
X157288460Y-73896944D01*
X157416247Y-74038866D01*
X157570748Y-74151118D01*
X157576776Y-74153802D01*
X157576778Y-74153803D01*
X157683908Y-74201500D01*
X157745212Y-74228794D01*
X157838612Y-74248647D01*
X157925556Y-74267128D01*
X157925561Y-74267128D01*
X157932013Y-74268500D01*
X158122987Y-74268500D01*
X158129439Y-74267128D01*
X158129444Y-74267128D01*
X158216388Y-74248647D01*
X158309788Y-74228794D01*
X158371092Y-74201500D01*
X158478222Y-74153803D01*
X158478224Y-74153802D01*
X158484252Y-74151118D01*
X158637192Y-74040000D01*
X160453996Y-74040000D01*
X160473958Y-74229928D01*
X160532973Y-74411556D01*
X160536276Y-74417278D01*
X160536277Y-74417279D01*
X160544276Y-74431134D01*
X160628460Y-74576944D01*
X160632878Y-74581851D01*
X160632879Y-74581852D01*
X160741846Y-74702872D01*
X160756247Y-74718866D01*
X160821392Y-74766197D01*
X160893907Y-74818882D01*
X160910748Y-74831118D01*
X160916776Y-74833802D01*
X160916778Y-74833803D01*
X161079181Y-74906109D01*
X161085212Y-74908794D01*
X161169147Y-74926635D01*
X161265556Y-74947128D01*
X161265561Y-74947128D01*
X161272013Y-74948500D01*
X161462987Y-74948500D01*
X161469439Y-74947128D01*
X161469444Y-74947128D01*
X161565853Y-74926635D01*
X161649788Y-74908794D01*
X161655819Y-74906109D01*
X161818222Y-74833803D01*
X161818224Y-74833802D01*
X161824252Y-74831118D01*
X161841094Y-74818882D01*
X161913608Y-74766197D01*
X161978753Y-74718866D01*
X161993154Y-74702872D01*
X162102121Y-74581852D01*
X162102122Y-74581851D01*
X162106540Y-74576944D01*
X162190724Y-74431134D01*
X162198723Y-74417279D01*
X162198724Y-74417278D01*
X162202027Y-74411556D01*
X162261042Y-74229928D01*
X162281004Y-74040000D01*
X162266484Y-73901852D01*
X162261732Y-73856635D01*
X162261732Y-73856633D01*
X162261042Y-73850072D01*
X162202027Y-73668444D01*
X162106540Y-73503056D01*
X161978753Y-73361134D01*
X161824252Y-73248882D01*
X161818224Y-73246198D01*
X161818222Y-73246197D01*
X161655819Y-73173891D01*
X161655818Y-73173891D01*
X161649788Y-73171206D01*
X161556387Y-73151353D01*
X161469444Y-73132872D01*
X161469439Y-73132872D01*
X161462987Y-73131500D01*
X161272013Y-73131500D01*
X161265561Y-73132872D01*
X161265556Y-73132872D01*
X161178613Y-73151353D01*
X161085212Y-73171206D01*
X161079182Y-73173891D01*
X161079181Y-73173891D01*
X160916778Y-73246197D01*
X160916776Y-73246198D01*
X160910748Y-73248882D01*
X160756247Y-73361134D01*
X160628460Y-73503056D01*
X160532973Y-73668444D01*
X160473958Y-73850072D01*
X160473268Y-73856633D01*
X160473268Y-73856635D01*
X160468516Y-73901852D01*
X160453996Y-74040000D01*
X158637192Y-74040000D01*
X158638753Y-74038866D01*
X158766540Y-73896944D01*
X158862027Y-73731556D01*
X158921042Y-73549928D01*
X158925368Y-73508774D01*
X158940314Y-73366565D01*
X158941004Y-73360000D01*
X158921042Y-73170072D01*
X158862027Y-72988444D01*
X158766540Y-72823056D01*
X158638753Y-72681134D01*
X158484252Y-72568882D01*
X158478224Y-72566198D01*
X158478222Y-72566197D01*
X158315819Y-72493891D01*
X158315818Y-72493891D01*
X158309788Y-72491206D01*
X158216387Y-72471353D01*
X158129444Y-72452872D01*
X158129439Y-72452872D01*
X158122987Y-72451500D01*
X157932013Y-72451500D01*
X157925561Y-72452872D01*
X157925556Y-72452872D01*
X157838613Y-72471353D01*
X157745212Y-72491206D01*
X157739182Y-72493891D01*
X157739181Y-72493891D01*
X157576778Y-72566197D01*
X157576776Y-72566198D01*
X157570748Y-72568882D01*
X157416247Y-72681134D01*
X157288460Y-72823056D01*
X157192973Y-72988444D01*
X157133958Y-73170072D01*
X157113996Y-73360000D01*
X136108500Y-73360000D01*
X136108500Y-70260000D01*
X146053996Y-70260000D01*
X146073958Y-70449928D01*
X146132973Y-70631556D01*
X146228460Y-70796944D01*
X146356247Y-70938866D01*
X146510748Y-71051118D01*
X146516776Y-71053802D01*
X146516778Y-71053803D01*
X146679181Y-71126109D01*
X146685212Y-71128794D01*
X146750865Y-71142749D01*
X146865556Y-71167128D01*
X146865561Y-71167128D01*
X146872013Y-71168500D01*
X147062987Y-71168500D01*
X147069439Y-71167128D01*
X147069444Y-71167128D01*
X147184135Y-71142749D01*
X147249788Y-71128794D01*
X147255819Y-71126109D01*
X147418222Y-71053803D01*
X147418224Y-71053802D01*
X147424252Y-71051118D01*
X147492064Y-71001850D01*
X147547742Y-70961397D01*
X147614610Y-70937539D01*
X147683761Y-70953619D01*
X147723737Y-70989270D01*
X147725161Y-70991230D01*
X147728460Y-70996944D01*
X147732875Y-71001848D01*
X147732877Y-71001850D01*
X147847178Y-71128794D01*
X147856247Y-71138866D01*
X148010748Y-71251118D01*
X148016776Y-71253802D01*
X148016778Y-71253803D01*
X148179181Y-71326109D01*
X148185212Y-71328794D01*
X148278613Y-71348647D01*
X148365556Y-71367128D01*
X148365561Y-71367128D01*
X148372013Y-71368500D01*
X148562987Y-71368500D01*
X148569439Y-71367128D01*
X148569444Y-71367128D01*
X148656387Y-71348647D01*
X148749788Y-71328794D01*
X148755819Y-71326109D01*
X148918222Y-71253803D01*
X148918224Y-71253802D01*
X148924252Y-71251118D01*
X149078753Y-71138866D01*
X149087822Y-71128794D01*
X149202121Y-71001852D01*
X149202122Y-71001851D01*
X149206540Y-70996944D01*
X149264814Y-70896010D01*
X149298723Y-70837279D01*
X149298724Y-70837278D01*
X149302027Y-70831556D01*
X149361042Y-70649928D01*
X149362372Y-70637279D01*
X149380314Y-70466565D01*
X149381004Y-70460000D01*
X149361042Y-70270072D01*
X149302027Y-70088444D01*
X149206540Y-69923056D01*
X149078753Y-69781134D01*
X148924252Y-69668882D01*
X148918224Y-69666198D01*
X148918222Y-69666197D01*
X148755819Y-69593891D01*
X148755818Y-69593891D01*
X148749788Y-69591206D01*
X148656387Y-69571353D01*
X148569444Y-69552872D01*
X148569439Y-69552872D01*
X148562987Y-69551500D01*
X148372013Y-69551500D01*
X148365561Y-69552872D01*
X148365556Y-69552872D01*
X148278613Y-69571353D01*
X148185212Y-69591206D01*
X148179182Y-69593891D01*
X148179181Y-69593891D01*
X148016778Y-69666197D01*
X148016776Y-69666198D01*
X148010748Y-69668882D01*
X148005407Y-69672762D01*
X148005406Y-69672763D01*
X147887258Y-69758603D01*
X147820390Y-69782461D01*
X147751239Y-69766381D01*
X147711263Y-69730730D01*
X147709839Y-69728770D01*
X147706540Y-69723056D01*
X147590240Y-69593891D01*
X147583175Y-69586045D01*
X147583174Y-69586044D01*
X147578753Y-69581134D01*
X147424252Y-69468882D01*
X147418224Y-69466198D01*
X147418222Y-69466197D01*
X147255819Y-69393891D01*
X147255818Y-69393891D01*
X147249788Y-69391206D01*
X147156388Y-69371353D01*
X147069444Y-69352872D01*
X147069439Y-69352872D01*
X147062987Y-69351500D01*
X146872013Y-69351500D01*
X146865561Y-69352872D01*
X146865556Y-69352872D01*
X146778612Y-69371353D01*
X146685212Y-69391206D01*
X146679182Y-69393891D01*
X146679181Y-69393891D01*
X146516778Y-69466197D01*
X146516776Y-69466198D01*
X146510748Y-69468882D01*
X146356247Y-69581134D01*
X146351826Y-69586044D01*
X146351825Y-69586045D01*
X146344761Y-69593891D01*
X146228460Y-69723056D01*
X146192093Y-69786045D01*
X146149540Y-69859750D01*
X146132973Y-69888444D01*
X146073958Y-70070072D01*
X146073268Y-70076633D01*
X146073268Y-70076635D01*
X146072027Y-70088444D01*
X146053996Y-70260000D01*
X136108500Y-70260000D01*
X136108500Y-67710000D01*
X164586496Y-67710000D01*
X164606458Y-67899928D01*
X164665473Y-68081556D01*
X164760960Y-68246944D01*
X164888747Y-68388866D01*
X165043248Y-68501118D01*
X165049276Y-68503802D01*
X165049278Y-68503803D01*
X165211681Y-68576109D01*
X165217712Y-68578794D01*
X165311113Y-68598647D01*
X165398056Y-68617128D01*
X165398061Y-68617128D01*
X165404513Y-68618500D01*
X165595487Y-68618500D01*
X165601939Y-68617128D01*
X165601944Y-68617128D01*
X165688887Y-68598647D01*
X165782288Y-68578794D01*
X165788319Y-68576109D01*
X165950722Y-68503803D01*
X165950724Y-68503802D01*
X165956752Y-68501118D01*
X166111253Y-68388866D01*
X166239040Y-68246944D01*
X166334527Y-68081556D01*
X166393542Y-67899928D01*
X166413504Y-67710000D01*
X166393542Y-67520072D01*
X166334527Y-67338444D01*
X166239040Y-67173056D01*
X166111253Y-67031134D01*
X165956752Y-66918882D01*
X165950724Y-66916198D01*
X165950722Y-66916197D01*
X165788319Y-66843891D01*
X165788318Y-66843891D01*
X165782288Y-66841206D01*
X165688888Y-66821353D01*
X165601944Y-66802872D01*
X165601939Y-66802872D01*
X165595487Y-66801500D01*
X165404513Y-66801500D01*
X165398061Y-66802872D01*
X165398056Y-66802872D01*
X165311112Y-66821353D01*
X165217712Y-66841206D01*
X165211682Y-66843891D01*
X165211681Y-66843891D01*
X165049278Y-66916197D01*
X165049276Y-66916198D01*
X165043248Y-66918882D01*
X164888747Y-67031134D01*
X164760960Y-67173056D01*
X164665473Y-67338444D01*
X164606458Y-67520072D01*
X164586496Y-67710000D01*
X136108500Y-67710000D01*
X136108500Y-66434500D01*
X136128502Y-66366379D01*
X136182158Y-66319886D01*
X136234500Y-66308500D01*
X184965500Y-66308500D01*
X185033621Y-66328502D01*
G37*
%TD.AperFunction*%
%TD*%
M02*
