%TF.GenerationSoftware,KiCad,Pcbnew,(6.0.8)*%
%TF.CreationDate,2022-10-31T19:22:44+01:00*%
%TF.ProjectId,stm_v3,73746d5f-7633-42e6-9b69-6361645f7063,rev?*%
%TF.SameCoordinates,Original*%
%TF.FileFunction,Legend,Top*%
%TF.FilePolarity,Positive*%
%FSLAX46Y46*%
G04 Gerber Fmt 4.6, Leading zero omitted, Abs format (unit mm)*
G04 Created by KiCad (PCBNEW (6.0.8)) date 2022-10-31 19:22:44*
%MOMM*%
%LPD*%
G01*
G04 APERTURE LIST*
G04 Aperture macros list*
%AMRoundRect*
0 Rectangle with rounded corners*
0 $1 Rounding radius*
0 $2 $3 $4 $5 $6 $7 $8 $9 X,Y pos of 4 corners*
0 Add a 4 corners polygon primitive as box body*
4,1,4,$2,$3,$4,$5,$6,$7,$8,$9,$2,$3,0*
0 Add four circle primitives for the rounded corners*
1,1,$1+$1,$2,$3*
1,1,$1+$1,$4,$5*
1,1,$1+$1,$6,$7*
1,1,$1+$1,$8,$9*
0 Add four rect primitives between the rounded corners*
20,1,$1+$1,$2,$3,$4,$5,0*
20,1,$1+$1,$4,$5,$6,$7,0*
20,1,$1+$1,$6,$7,$8,$9,0*
20,1,$1+$1,$8,$9,$2,$3,0*%
%AMFreePoly0*
4,1,31,0.382218,2.049476,0.489351,2.033847,0.504091,2.029292,0.614722,1.975214,0.628088,1.965679,0.715237,1.878682,0.724795,1.865332,0.779065,1.754796,0.783653,1.740021,0.799470,1.632261,0.800000,1.625000,0.800000,-2.000000,0.785355,-2.035355,0.750000,-2.050000,-0.750000,-2.050000,-0.785355,-2.035355,-0.800000,-2.000000,-0.800000,1.625000,-0.799476,1.632218,-0.783847,1.739351,
-0.779292,1.754091,-0.725214,1.864722,-0.715679,1.878088,-0.628682,1.965237,-0.615332,1.974795,-0.504796,2.029065,-0.490021,2.033653,-0.382261,2.049470,-0.375000,2.050000,0.375000,2.050000,0.382218,2.049476,0.382218,2.049476,$1*%
G04 Aperture macros list end*
%ADD10C,0.505116*%
%ADD11C,0.150000*%
%ADD12C,0.120000*%
%ADD13C,0.100000*%
%ADD14RoundRect,0.162500X0.387500X0.262500X-0.387500X0.262500X-0.387500X-0.262500X0.387500X-0.262500X0*%
%ADD15RoundRect,0.190000X0.140000X0.170000X-0.140000X0.170000X-0.140000X-0.170000X0.140000X-0.170000X0*%
%ADD16RoundRect,0.205000X-0.212500X-0.155000X0.212500X-0.155000X0.212500X0.155000X-0.212500X0.155000X0*%
%ADD17RoundRect,0.050000X-0.500000X-0.500000X0.500000X-0.500000X0.500000X0.500000X-0.500000X0.500000X0*%
%ADD18O,1.100000X1.100000*%
%ADD19RoundRect,0.250000X-0.200000X-0.275000X0.200000X-0.275000X0.200000X0.275000X-0.200000X0.275000X0*%
%ADD20RoundRect,0.050000X-0.600000X0.700000X-0.600000X-0.700000X0.600000X-0.700000X0.600000X0.700000X0*%
%ADD21RoundRect,0.205000X0.212500X0.155000X-0.212500X0.155000X-0.212500X-0.155000X0.212500X-0.155000X0*%
%ADD22RoundRect,0.190000X-0.140000X-0.170000X0.140000X-0.170000X0.140000X0.170000X-0.140000X0.170000X0*%
%ADD23RoundRect,0.268750X-0.218750X-0.256250X0.218750X-0.256250X0.218750X0.256250X-0.218750X0.256250X0*%
%ADD24RoundRect,0.185000X0.135000X0.185000X-0.135000X0.185000X-0.135000X-0.185000X0.135000X-0.185000X0*%
%ADD25RoundRect,0.190000X0.170000X-0.140000X0.170000X0.140000X-0.170000X0.140000X-0.170000X-0.140000X0*%
%ADD26RoundRect,0.190000X-0.170000X0.140000X-0.170000X-0.140000X0.170000X-0.140000X0.170000X0.140000X0*%
%ADD27RoundRect,0.275000X0.225000X0.250000X-0.225000X0.250000X-0.225000X-0.250000X0.225000X-0.250000X0*%
%ADD28RoundRect,0.185000X-0.135000X-0.185000X0.135000X-0.185000X0.135000X0.185000X-0.135000X0.185000X0*%
%ADD29FreePoly0,90.000000*%
%ADD30RoundRect,0.250000X0.275000X-0.200000X0.275000X0.200000X-0.275000X0.200000X-0.275000X-0.200000X0*%
%ADD31RoundRect,0.185000X0.185000X-0.135000X0.185000X0.135000X-0.185000X0.135000X-0.185000X-0.135000X0*%
%ADD32RoundRect,0.205000X0.155000X-0.212500X0.155000X0.212500X-0.155000X0.212500X-0.155000X-0.212500X0*%
%ADD33RoundRect,0.300000X0.650000X-0.325000X0.650000X0.325000X-0.650000X0.325000X-0.650000X-0.325000X0*%
%ADD34RoundRect,0.185000X-0.185000X0.135000X-0.185000X-0.135000X0.185000X-0.135000X0.185000X0.135000X0*%
%ADD35RoundRect,0.575000X-0.525000X-2.025000X0.525000X-2.025000X0.525000X2.025000X-0.525000X2.025000X0*%
%ADD36RoundRect,0.125000X-0.700000X-0.075000X0.700000X-0.075000X0.700000X0.075000X-0.700000X0.075000X0*%
%ADD37RoundRect,0.125000X-0.075000X-0.700000X0.075000X-0.700000X0.075000X0.700000X-0.075000X0.700000X0*%
%ADD38C,0.900000*%
%ADD39RoundRect,0.250000X0.200000X0.250000X-0.200000X0.250000X-0.200000X-0.250000X0.200000X-0.250000X0*%
%ADD40RoundRect,0.250000X0.200000X0.375000X-0.200000X0.375000X-0.200000X-0.375000X0.200000X-0.375000X0*%
%ADD41RoundRect,0.050000X-0.850000X-0.850000X0.850000X-0.850000X0.850000X0.850000X-0.850000X0.850000X0*%
%ADD42O,1.800000X1.800000*%
%ADD43RoundRect,0.275000X-0.250000X0.225000X-0.250000X-0.225000X0.250000X-0.225000X0.250000X0.225000X0*%
%ADD44RoundRect,0.200000X-0.150000X0.587500X-0.150000X-0.587500X0.150000X-0.587500X0.150000X0.587500X0*%
%ADD45RoundRect,0.205000X-0.155000X0.212500X-0.155000X-0.212500X0.155000X-0.212500X0.155000X0.212500X0*%
%ADD46RoundRect,0.250000X-0.275000X0.200000X-0.275000X-0.200000X0.275000X-0.200000X0.275000X0.200000X0*%
%ADD47RoundRect,0.200000X0.512500X0.150000X-0.512500X0.150000X-0.512500X-0.150000X0.512500X-0.150000X0*%
%ADD48RoundRect,0.210000X0.160000X-0.197500X0.160000X0.197500X-0.160000X0.197500X-0.160000X-0.197500X0*%
%ADD49RoundRect,0.070000X-0.300000X0.650000X-0.300000X-0.650000X0.300000X-0.650000X0.300000X0.650000X0*%
%ADD50RoundRect,0.200000X-0.825000X-0.150000X0.825000X-0.150000X0.825000X0.150000X-0.825000X0.150000X0*%
G04 APERTURE END LIST*
D10*
X147810058Y-72355000D02*
G75*
G03*
X147810058Y-72355000I-252558J0D01*
G01*
D11*
X146407142Y-96176428D02*
X146378571Y-96262142D01*
X146378571Y-96405000D01*
X146407142Y-96462142D01*
X146435714Y-96490714D01*
X146492857Y-96519285D01*
X146550000Y-96519285D01*
X146607142Y-96490714D01*
X146635714Y-96462142D01*
X146664285Y-96405000D01*
X146692857Y-96290714D01*
X146721428Y-96233571D01*
X146750000Y-96205000D01*
X146807142Y-96176428D01*
X146864285Y-96176428D01*
X146921428Y-96205000D01*
X146950000Y-96233571D01*
X146978571Y-96290714D01*
X146978571Y-96433571D01*
X146950000Y-96519285D01*
X146978571Y-96719285D02*
X146378571Y-96862142D01*
X146807142Y-96976428D01*
X146378571Y-97090714D01*
X146978571Y-97233571D01*
X146978571Y-97576428D02*
X146978571Y-97690714D01*
X146950000Y-97747857D01*
X146892857Y-97805000D01*
X146778571Y-97833571D01*
X146578571Y-97833571D01*
X146464285Y-97805000D01*
X146407142Y-97747857D01*
X146378571Y-97690714D01*
X146378571Y-97576428D01*
X146407142Y-97519285D01*
X146464285Y-97462142D01*
X146578571Y-97433571D01*
X146778571Y-97433571D01*
X146892857Y-97462142D01*
X146950000Y-97519285D01*
X146978571Y-97576428D01*
X154700000Y-101760476D02*
X154738095Y-101684285D01*
X154738095Y-101570000D01*
X154700000Y-101455714D01*
X154623809Y-101379523D01*
X154547619Y-101341428D01*
X154395238Y-101303333D01*
X154280952Y-101303333D01*
X154128571Y-101341428D01*
X154052380Y-101379523D01*
X153976190Y-101455714D01*
X153938095Y-101570000D01*
X153938095Y-101646190D01*
X153976190Y-101760476D01*
X154014285Y-101798571D01*
X154280952Y-101798571D01*
X154280952Y-101646190D01*
X153938095Y-102141428D02*
X154738095Y-102141428D01*
X153938095Y-102598571D01*
X154738095Y-102598571D01*
X153938095Y-102979523D02*
X154738095Y-102979523D01*
X154738095Y-103170000D01*
X154700000Y-103284285D01*
X154623809Y-103360476D01*
X154547619Y-103398571D01*
X154395238Y-103436666D01*
X154280952Y-103436666D01*
X154128571Y-103398571D01*
X154052380Y-103360476D01*
X153976190Y-103284285D01*
X153938095Y-103170000D01*
X153938095Y-102979523D01*
X163515714Y-69341428D02*
X163230000Y-69341428D01*
X163230000Y-68741428D01*
X164058571Y-69284285D02*
X164030000Y-69312857D01*
X163944285Y-69341428D01*
X163887142Y-69341428D01*
X163801428Y-69312857D01*
X163744285Y-69255714D01*
X163715714Y-69198571D01*
X163687142Y-69084285D01*
X163687142Y-68998571D01*
X163715714Y-68884285D01*
X163744285Y-68827142D01*
X163801428Y-68770000D01*
X163887142Y-68741428D01*
X163944285Y-68741428D01*
X164030000Y-68770000D01*
X164058571Y-68798571D01*
X164315714Y-69341428D02*
X164315714Y-68741428D01*
X164458571Y-68741428D01*
X164544285Y-68770000D01*
X164601428Y-68827142D01*
X164630000Y-68884285D01*
X164658571Y-68998571D01*
X164658571Y-69084285D01*
X164630000Y-69198571D01*
X164601428Y-69255714D01*
X164544285Y-69312857D01*
X164458571Y-69341428D01*
X164315714Y-69341428D01*
X146378571Y-101209285D02*
X146978571Y-101209285D01*
X146378571Y-101552142D01*
X146978571Y-101552142D01*
X146378571Y-102180714D02*
X146664285Y-101980714D01*
X146378571Y-101837857D02*
X146978571Y-101837857D01*
X146978571Y-102066428D01*
X146950000Y-102123571D01*
X146921428Y-102152142D01*
X146864285Y-102180714D01*
X146778571Y-102180714D01*
X146721428Y-102152142D01*
X146692857Y-102123571D01*
X146664285Y-102066428D01*
X146664285Y-101837857D01*
X146407142Y-102409285D02*
X146378571Y-102495000D01*
X146378571Y-102637857D01*
X146407142Y-102695000D01*
X146435714Y-102723571D01*
X146492857Y-102752142D01*
X146550000Y-102752142D01*
X146607142Y-102723571D01*
X146635714Y-102695000D01*
X146664285Y-102637857D01*
X146692857Y-102523571D01*
X146721428Y-102466428D01*
X146750000Y-102437857D01*
X146807142Y-102409285D01*
X146864285Y-102409285D01*
X146921428Y-102437857D01*
X146950000Y-102466428D01*
X146978571Y-102523571D01*
X146978571Y-102666428D01*
X146950000Y-102752142D01*
X146978571Y-102923571D02*
X146978571Y-103266428D01*
X146378571Y-103095000D02*
X146978571Y-103095000D01*
X166986050Y-70294285D02*
X166947955Y-70408571D01*
X166909860Y-70446666D01*
X166833669Y-70484761D01*
X166719384Y-70484761D01*
X166643193Y-70446666D01*
X166605098Y-70408571D01*
X166567003Y-70332380D01*
X166567003Y-70027619D01*
X167367003Y-70027619D01*
X167367003Y-70294285D01*
X167328908Y-70370476D01*
X167290812Y-70408571D01*
X167214622Y-70446666D01*
X167138431Y-70446666D01*
X167062241Y-70408571D01*
X167024146Y-70370476D01*
X166986050Y-70294285D01*
X166986050Y-70027619D01*
X167367003Y-70980000D02*
X167367003Y-71132380D01*
X167328908Y-71208571D01*
X167252717Y-71284761D01*
X167100336Y-71322857D01*
X166833669Y-71322857D01*
X166681288Y-71284761D01*
X166605098Y-71208571D01*
X166567003Y-71132380D01*
X166567003Y-70980000D01*
X166605098Y-70903809D01*
X166681288Y-70827619D01*
X166833669Y-70789523D01*
X167100336Y-70789523D01*
X167252717Y-70827619D01*
X167328908Y-70903809D01*
X167367003Y-70980000D01*
X167367003Y-71818095D02*
X167367003Y-71970476D01*
X167328908Y-72046666D01*
X167252717Y-72122857D01*
X167100336Y-72160952D01*
X166833669Y-72160952D01*
X166681288Y-72122857D01*
X166605098Y-72046666D01*
X166567003Y-71970476D01*
X166567003Y-71818095D01*
X166605098Y-71741904D01*
X166681288Y-71665714D01*
X166833669Y-71627619D01*
X167100336Y-71627619D01*
X167252717Y-71665714D01*
X167328908Y-71741904D01*
X167367003Y-71818095D01*
X167367003Y-72389523D02*
X167367003Y-72846666D01*
X166567003Y-72618095D02*
X167367003Y-72618095D01*
X146435714Y-94177857D02*
X146407142Y-94149285D01*
X146378571Y-94063571D01*
X146378571Y-94006428D01*
X146407142Y-93920714D01*
X146464285Y-93863571D01*
X146521428Y-93835000D01*
X146635714Y-93806428D01*
X146721428Y-93806428D01*
X146835714Y-93835000D01*
X146892857Y-93863571D01*
X146950000Y-93920714D01*
X146978571Y-94006428D01*
X146978571Y-94063571D01*
X146950000Y-94149285D01*
X146921428Y-94177857D01*
X146378571Y-94720714D02*
X146378571Y-94435000D01*
X146978571Y-94435000D01*
X146378571Y-94920714D02*
X146978571Y-94920714D01*
X146378571Y-95263571D02*
X146721428Y-95006428D01*
X146978571Y-95263571D02*
X146635714Y-94920714D01*
X149576614Y-80558934D02*
X150081691Y-81064011D01*
X150149034Y-81198698D01*
X150149034Y-81333385D01*
X150081691Y-81468072D01*
X150014347Y-81535415D01*
X150957156Y-80592606D02*
X150620439Y-80929324D01*
X149913332Y-80222217D01*
X151529576Y-79885499D02*
X151529576Y-79952843D01*
X151462233Y-80087530D01*
X151394889Y-80154873D01*
X151260202Y-80222217D01*
X151125515Y-80222217D01*
X151024500Y-80188545D01*
X150856141Y-80087530D01*
X150755126Y-79986514D01*
X150654111Y-79818156D01*
X150620439Y-79717140D01*
X150620439Y-79582453D01*
X150687782Y-79447766D01*
X150755126Y-79380423D01*
X150889813Y-79313079D01*
X150957156Y-79313079D01*
X151394889Y-78740660D02*
X151899965Y-79245736D01*
X151967309Y-79380423D01*
X151967309Y-79515110D01*
X151899965Y-79649797D01*
X151832622Y-79717140D01*
X152775431Y-78774331D02*
X152438713Y-79111049D01*
X151731607Y-78403942D01*
X153347851Y-78067225D02*
X153347851Y-78134568D01*
X153280507Y-78269255D01*
X153213164Y-78336599D01*
X153078477Y-78403942D01*
X152943790Y-78403942D01*
X152842774Y-78370270D01*
X152674416Y-78269255D01*
X152573400Y-78168240D01*
X152472385Y-77999881D01*
X152438713Y-77898866D01*
X152438713Y-77764179D01*
X152506057Y-77629492D01*
X152573400Y-77562148D01*
X152708087Y-77494805D01*
X152775431Y-77494805D01*
X153213164Y-76922385D02*
X153718240Y-77427461D01*
X153785583Y-77562148D01*
X153785583Y-77696835D01*
X153718240Y-77831522D01*
X153650896Y-77898866D01*
X154593705Y-76956057D02*
X154256988Y-77292774D01*
X153549881Y-76585668D01*
X155166125Y-76248950D02*
X155166125Y-76316294D01*
X155098782Y-76450981D01*
X155031438Y-76518324D01*
X154896751Y-76585668D01*
X154762064Y-76585668D01*
X154661049Y-76551996D01*
X154492690Y-76450981D01*
X154391675Y-76349965D01*
X154290660Y-76181607D01*
X154256988Y-76080591D01*
X154256988Y-75945904D01*
X154324331Y-75811217D01*
X154391675Y-75743874D01*
X154526362Y-75676530D01*
X154593705Y-75676530D01*
X155031438Y-75104111D02*
X155536514Y-75609187D01*
X155603858Y-75743874D01*
X155603858Y-75878561D01*
X155536514Y-76013248D01*
X155469171Y-76080591D01*
X156411980Y-75137782D02*
X156075263Y-75474500D01*
X155368156Y-74767393D01*
X156984400Y-74430675D02*
X156984400Y-74498019D01*
X156917056Y-74632706D01*
X156849713Y-74700049D01*
X156715026Y-74767393D01*
X156580339Y-74767393D01*
X156479324Y-74733721D01*
X156310965Y-74632706D01*
X156209950Y-74531691D01*
X156108934Y-74363332D01*
X156075263Y-74262317D01*
X156075263Y-74127630D01*
X156142606Y-73992943D01*
X156209950Y-73925599D01*
X156344637Y-73858256D01*
X156411980Y-73858256D01*
X146407142Y-90593571D02*
X146378571Y-90679285D01*
X146378571Y-90822142D01*
X146407142Y-90879285D01*
X146435714Y-90907857D01*
X146492857Y-90936428D01*
X146550000Y-90936428D01*
X146607142Y-90907857D01*
X146635714Y-90879285D01*
X146664285Y-90822142D01*
X146692857Y-90707857D01*
X146721428Y-90650714D01*
X146750000Y-90622142D01*
X146807142Y-90593571D01*
X146864285Y-90593571D01*
X146921428Y-90622142D01*
X146950000Y-90650714D01*
X146978571Y-90707857D01*
X146978571Y-90850714D01*
X146950000Y-90936428D01*
X146978571Y-91136428D02*
X146378571Y-91279285D01*
X146807142Y-91393571D01*
X146378571Y-91507857D01*
X146978571Y-91650714D01*
X146378571Y-91879285D02*
X146978571Y-91879285D01*
X146978571Y-92022142D01*
X146950000Y-92107857D01*
X146892857Y-92165000D01*
X146835714Y-92193571D01*
X146721428Y-92222142D01*
X146635714Y-92222142D01*
X146521428Y-92193571D01*
X146464285Y-92165000D01*
X146407142Y-92107857D01*
X146378571Y-92022142D01*
X146378571Y-91879285D01*
X146378571Y-92479285D02*
X146978571Y-92479285D01*
X146978571Y-92879285D02*
X146978571Y-92993571D01*
X146950000Y-93050714D01*
X146892857Y-93107857D01*
X146778571Y-93136428D01*
X146578571Y-93136428D01*
X146464285Y-93107857D01*
X146407142Y-93050714D01*
X146378571Y-92993571D01*
X146378571Y-92879285D01*
X146407142Y-92822142D01*
X146464285Y-92765000D01*
X146578571Y-92736428D01*
X146778571Y-92736428D01*
X146892857Y-92765000D01*
X146950000Y-92822142D01*
X146978571Y-92879285D01*
X153976190Y-96138571D02*
X153938095Y-96252857D01*
X153938095Y-96443333D01*
X153976190Y-96519523D01*
X154014285Y-96557619D01*
X154090476Y-96595714D01*
X154166666Y-96595714D01*
X154242857Y-96557619D01*
X154280952Y-96519523D01*
X154319047Y-96443333D01*
X154357142Y-96290952D01*
X154395238Y-96214761D01*
X154433333Y-96176666D01*
X154509523Y-96138571D01*
X154585714Y-96138571D01*
X154661904Y-96176666D01*
X154700000Y-96214761D01*
X154738095Y-96290952D01*
X154738095Y-96481428D01*
X154700000Y-96595714D01*
X153938095Y-96938571D02*
X154738095Y-96938571D01*
X154738095Y-97129047D01*
X154700000Y-97243333D01*
X154623809Y-97319523D01*
X154547619Y-97357619D01*
X154395238Y-97395714D01*
X154280952Y-97395714D01*
X154128571Y-97357619D01*
X154052380Y-97319523D01*
X153976190Y-97243333D01*
X153938095Y-97129047D01*
X153938095Y-96938571D01*
X154166666Y-97700476D02*
X154166666Y-98081428D01*
X153938095Y-97624285D02*
X154738095Y-97890952D01*
X153938095Y-98157619D01*
X139370000Y-72501428D02*
X139370000Y-71901428D01*
X139570000Y-72330000D01*
X139770000Y-71901428D01*
X139770000Y-72501428D01*
X140055714Y-72187142D02*
X140255714Y-72187142D01*
X140341428Y-72501428D02*
X140055714Y-72501428D01*
X140055714Y-71901428D01*
X140341428Y-71901428D01*
X140598571Y-72501428D02*
X140598571Y-71901428D01*
X140941428Y-72501428D01*
X140941428Y-71901428D01*
X141227142Y-71901428D02*
X141227142Y-72387142D01*
X141255714Y-72444285D01*
X141284285Y-72472857D01*
X141341428Y-72501428D01*
X141455714Y-72501428D01*
X141512857Y-72472857D01*
X141541428Y-72444285D01*
X141570000Y-72387142D01*
X141570000Y-71901428D01*
X141518095Y-82171904D02*
X141251428Y-81790952D01*
X141060952Y-82171904D02*
X141060952Y-81371904D01*
X141365714Y-81371904D01*
X141441904Y-81410000D01*
X141480000Y-81448095D01*
X141518095Y-81524285D01*
X141518095Y-81638571D01*
X141480000Y-81714761D01*
X141441904Y-81752857D01*
X141365714Y-81790952D01*
X141060952Y-81790952D01*
X141860952Y-81752857D02*
X142127619Y-81752857D01*
X142241904Y-82171904D02*
X141860952Y-82171904D01*
X141860952Y-81371904D01*
X142241904Y-81371904D01*
X142546666Y-82133809D02*
X142660952Y-82171904D01*
X142851428Y-82171904D01*
X142927619Y-82133809D01*
X142965714Y-82095714D01*
X143003809Y-82019523D01*
X143003809Y-81943333D01*
X142965714Y-81867142D01*
X142927619Y-81829047D01*
X142851428Y-81790952D01*
X142699047Y-81752857D01*
X142622857Y-81714761D01*
X142584761Y-81676666D01*
X142546666Y-81600476D01*
X142546666Y-81524285D01*
X142584761Y-81448095D01*
X142622857Y-81410000D01*
X142699047Y-81371904D01*
X142889523Y-81371904D01*
X143003809Y-81410000D01*
X143346666Y-81752857D02*
X143613333Y-81752857D01*
X143727619Y-82171904D02*
X143346666Y-82171904D01*
X143346666Y-81371904D01*
X143727619Y-81371904D01*
X143956190Y-81371904D02*
X144413333Y-81371904D01*
X144184761Y-82171904D02*
X144184761Y-81371904D01*
X153976190Y-98737618D02*
X153938095Y-98851903D01*
X153938095Y-99042379D01*
X153976190Y-99118570D01*
X154014285Y-99156665D01*
X154090476Y-99194760D01*
X154166666Y-99194760D01*
X154242857Y-99156665D01*
X154280952Y-99118570D01*
X154319047Y-99042379D01*
X154357142Y-98889999D01*
X154395238Y-98813808D01*
X154433333Y-98775713D01*
X154509523Y-98737618D01*
X154585714Y-98737618D01*
X154661904Y-98775713D01*
X154700000Y-98813808D01*
X154738095Y-98889999D01*
X154738095Y-99080475D01*
X154700000Y-99194760D01*
X154014285Y-99994760D02*
X153976190Y-99956665D01*
X153938095Y-99842379D01*
X153938095Y-99766189D01*
X153976190Y-99651903D01*
X154052380Y-99575713D01*
X154128571Y-99537618D01*
X154280952Y-99499522D01*
X154395238Y-99499522D01*
X154547619Y-99537618D01*
X154623809Y-99575713D01*
X154700000Y-99651903D01*
X154738095Y-99766189D01*
X154738095Y-99842379D01*
X154700000Y-99956665D01*
X154661904Y-99994760D01*
X153938095Y-100718570D02*
X153938095Y-100337618D01*
X154738095Y-100337618D01*
X154738095Y-93403333D02*
X153938095Y-93670000D01*
X154738095Y-93936666D01*
X154014285Y-94660476D02*
X153976190Y-94622380D01*
X153938095Y-94508095D01*
X153938095Y-94431904D01*
X153976190Y-94317619D01*
X154052380Y-94241428D01*
X154128571Y-94203333D01*
X154280952Y-94165238D01*
X154395238Y-94165238D01*
X154547619Y-94203333D01*
X154623809Y-94241428D01*
X154700000Y-94317619D01*
X154738095Y-94431904D01*
X154738095Y-94508095D01*
X154700000Y-94622380D01*
X154661904Y-94660476D01*
X154014285Y-95460476D02*
X153976190Y-95422380D01*
X153938095Y-95308095D01*
X153938095Y-95231904D01*
X153976190Y-95117619D01*
X154052380Y-95041428D01*
X154128571Y-95003333D01*
X154280952Y-94965238D01*
X154395238Y-94965238D01*
X154547619Y-95003333D01*
X154623809Y-95041428D01*
X154700000Y-95117619D01*
X154738095Y-95231904D01*
X154738095Y-95308095D01*
X154700000Y-95422380D01*
X154661904Y-95460476D01*
D12*
%TO.C,SW1*%
X146130000Y-86500000D02*
X146130000Y-83700000D01*
X141030000Y-86500000D02*
X141030000Y-83700000D01*
X144980000Y-87650000D02*
X142180000Y-87650000D01*
X144980000Y-82550000D02*
X142180000Y-82550000D01*
%TO.C,C3*%
X157325336Y-85545000D02*
X157109664Y-85545000D01*
X157325336Y-86265000D02*
X157109664Y-86265000D01*
%TO.C,C8*%
X140591665Y-73865000D02*
X140823335Y-73865000D01*
X140591665Y-73145000D02*
X140823335Y-73145000D01*
%TO.C,SW3*%
X164508471Y-71160000D02*
X165055000Y-71160000D01*
X162835000Y-72365000D02*
X163637470Y-72365000D01*
X162835000Y-71160000D02*
X162835000Y-72365000D01*
X162835000Y-70400000D02*
X162835000Y-69640000D01*
X162835000Y-71160000D02*
X163381529Y-71160000D01*
X165055000Y-71160000D02*
X165055000Y-72365000D01*
X162835000Y-69640000D02*
X163945000Y-69640000D01*
X164252530Y-72365000D02*
X165055000Y-72365000D01*
%TO.C,R7*%
X143662742Y-89867500D02*
X144137258Y-89867500D01*
X143662742Y-88822500D02*
X144137258Y-88822500D01*
%TO.C,Y1*%
X142347500Y-74455000D02*
X139047500Y-74455000D01*
X139047500Y-74455000D02*
X139047500Y-78455000D01*
%TO.C,C9*%
X140873335Y-79865000D02*
X140641665Y-79865000D01*
X140873335Y-79145000D02*
X140641665Y-79145000D01*
%TO.C,C5*%
X149479664Y-70645000D02*
X149695336Y-70645000D01*
X149479664Y-69925000D02*
X149695336Y-69925000D01*
%TO.C,D2*%
X151397500Y-87010000D02*
X149112500Y-87010000D01*
X149112500Y-87010000D02*
X149112500Y-88480000D01*
X149112500Y-88480000D02*
X151397500Y-88480000D01*
%TO.C,R22*%
X161183641Y-88635000D02*
X160876359Y-88635000D01*
X161183641Y-89395000D02*
X160876359Y-89395000D01*
%TO.C,C21*%
X138700000Y-70277836D02*
X138700000Y-70062164D01*
X137980000Y-70277836D02*
X137980000Y-70062164D01*
%TO.C,C16*%
X164490000Y-92257164D02*
X164490000Y-92472836D01*
X165210000Y-92257164D02*
X165210000Y-92472836D01*
%TO.C,C1*%
X146450580Y-71080000D02*
X146169420Y-71080000D01*
X146450580Y-70060000D02*
X146169420Y-70060000D01*
%TO.C,R4*%
X166367657Y-74167611D02*
X166674939Y-74167611D01*
X166367657Y-73407611D02*
X166674939Y-73407611D01*
%TO.C,R8*%
X145742500Y-93032258D02*
X145742500Y-92557742D01*
X144697500Y-93032258D02*
X144697500Y-92557742D01*
%TO.C,R2*%
X176120000Y-82018641D02*
X176120000Y-81711359D01*
X175360000Y-82018641D02*
X175360000Y-81711359D01*
%TO.C,C20*%
X162215000Y-71287835D02*
X162215000Y-71072163D01*
X161495000Y-71287835D02*
X161495000Y-71072163D01*
%TO.C,R9*%
X145742500Y-97922258D02*
X145742500Y-97447742D01*
X144697500Y-97922258D02*
X144697500Y-97447742D01*
%TO.C,R11*%
X150326359Y-91220000D02*
X150633641Y-91220000D01*
X150326359Y-90460000D02*
X150633641Y-90460000D01*
%TO.C,R19*%
X164286359Y-80540000D02*
X164593641Y-80540000D01*
X164286359Y-81300000D02*
X164593641Y-81300000D01*
%TO.C,C13*%
X176100000Y-79700835D02*
X176100000Y-79469165D01*
X175380000Y-79700835D02*
X175380000Y-79469165D01*
%TO.C,C18*%
X161660000Y-100926252D02*
X161660000Y-99503748D01*
X163480000Y-100926252D02*
X163480000Y-99503748D01*
%TO.C,R20*%
X168516359Y-87605000D02*
X168823641Y-87605000D01*
X168516359Y-86845000D02*
X168823641Y-86845000D01*
%TO.C,R21*%
X168790000Y-84271359D02*
X168790000Y-84578641D01*
X169550000Y-84271359D02*
X169550000Y-84578641D01*
%TO.C,R17*%
X165996359Y-87605000D02*
X166303641Y-87605000D01*
X165996359Y-86845000D02*
X166303641Y-86845000D01*
%TO.C,R24*%
X161191359Y-69349999D02*
X161498641Y-69349999D01*
X161191359Y-70109999D02*
X161498641Y-70109999D01*
%TO.C,L1*%
X164600000Y-96900000D02*
X171300000Y-96900000D01*
X171300000Y-96900000D02*
X171300000Y-103600000D01*
X171300000Y-103600000D02*
X164600000Y-103600000D01*
X164600000Y-103600000D02*
X164600000Y-96900000D01*
%TO.C,R12*%
X153263641Y-90440000D02*
X152956359Y-90440000D01*
X153263641Y-91200000D02*
X152956359Y-91200000D01*
%TO.C,U1*%
X157477500Y-73045000D02*
X158427500Y-73045000D01*
X148207500Y-73995000D02*
X146867500Y-73995000D01*
X149157500Y-83265000D02*
X148207500Y-83265000D01*
X148207500Y-73045000D02*
X148207500Y-73995000D01*
X149157500Y-73045000D02*
X148207500Y-73045000D01*
X158427500Y-73045000D02*
X158427500Y-73995000D01*
X148207500Y-83265000D02*
X148207500Y-82315000D01*
X158427500Y-83265000D02*
X158427500Y-82315000D01*
X157477500Y-83265000D02*
X158427500Y-83265000D01*
%TO.C,R16*%
X162863641Y-86845000D02*
X162556359Y-86845000D01*
X162863641Y-87605000D02*
X162556359Y-87605000D01*
%TO.C,SW2*%
X175638908Y-72800000D02*
X168838908Y-72800000D01*
X168838908Y-72800000D02*
X168838908Y-69700000D01*
X168838908Y-69700000D02*
X175638908Y-69700000D01*
X175638908Y-69700000D02*
X175638908Y-72800000D01*
%TO.C,J1*%
X150430000Y-94640000D02*
X150430000Y-93310000D01*
X150430000Y-103590000D02*
X153090000Y-103590000D01*
X150430000Y-95910000D02*
X150430000Y-103590000D01*
X150430000Y-95910000D02*
X153090000Y-95910000D01*
X153090000Y-95910000D02*
X153090000Y-103590000D01*
X150430000Y-93310000D02*
X151760000Y-93310000D01*
%TO.C,C19*%
X160840000Y-100936252D02*
X160840000Y-99513748D01*
X159020000Y-100936252D02*
X159020000Y-99513748D01*
%TO.C,C17*%
X158992164Y-95615000D02*
X159207836Y-95615000D01*
X158992164Y-94895000D02*
X159207836Y-94895000D01*
%TO.C,R3*%
X144003859Y-77175000D02*
X144311141Y-77175000D01*
X144003859Y-77935000D02*
X144311141Y-77935000D01*
%TO.C,C11*%
X164950000Y-77477836D02*
X164950000Y-77262164D01*
X165670000Y-77477836D02*
X165670000Y-77262164D01*
%TO.C,C14*%
X165830000Y-92284420D02*
X165830000Y-92565580D01*
X166850000Y-92284420D02*
X166850000Y-92565580D01*
%TO.C,Q2*%
X165120000Y-83522500D02*
X165120000Y-82872500D01*
X165120000Y-83522500D02*
X165120000Y-84172500D01*
X168240000Y-83522500D02*
X168240000Y-81847500D01*
X168240000Y-83522500D02*
X168240000Y-84172500D01*
%TO.C,C12*%
X173017500Y-84019165D02*
X173017500Y-84250835D01*
X172297500Y-84019165D02*
X172297500Y-84250835D01*
%TO.C,R6*%
X148407500Y-98652742D02*
X148407500Y-99127258D01*
X149452500Y-98652742D02*
X149452500Y-99127258D01*
%TO.C,C4*%
X160947500Y-74227164D02*
X160947500Y-74442836D01*
X161667500Y-74227164D02*
X161667500Y-74442836D01*
%TO.C,R18*%
X161597500Y-79161359D02*
X161597500Y-79468641D01*
X160837500Y-79161359D02*
X160837500Y-79468641D01*
%TO.C,Q1*%
X160640000Y-83492500D02*
X160640000Y-82842500D01*
X160640000Y-83492500D02*
X160640000Y-84142500D01*
X163760000Y-83492500D02*
X163760000Y-84142500D01*
X163760000Y-83492500D02*
X163760000Y-81817500D01*
%TO.C,R15*%
X147897500Y-87091359D02*
X147897500Y-87398641D01*
X148657500Y-87091359D02*
X148657500Y-87398641D01*
%TO.C,U3*%
X159870000Y-90915000D02*
X159070000Y-90915000D01*
X159870000Y-94035000D02*
X159070000Y-94035000D01*
X159870000Y-90915000D02*
X160670000Y-90915000D01*
X159870000Y-94035000D02*
X161670000Y-94035000D01*
%TO.C,R25*%
X142580000Y-71693641D02*
X142580000Y-71386359D01*
X143340000Y-71693641D02*
X143340000Y-71386359D01*
%TO.C,G\u002A\u002A\u002A*%
G36*
X177874226Y-95862414D02*
G01*
X177874226Y-100845906D01*
X172874095Y-100845906D01*
X172874095Y-97185244D01*
X173681104Y-97185244D01*
X175220246Y-97185244D01*
X175220246Y-98598204D01*
X175220279Y-98750282D01*
X175220375Y-98897866D01*
X175220530Y-99040098D01*
X175220742Y-99176117D01*
X175221007Y-99305065D01*
X175221322Y-99426082D01*
X175221682Y-99538310D01*
X175222086Y-99640888D01*
X175222528Y-99732958D01*
X175223006Y-99813660D01*
X175223517Y-99882136D01*
X175224057Y-99937525D01*
X175224622Y-99978968D01*
X175225209Y-100005607D01*
X175225815Y-100016582D01*
X175225898Y-100016817D01*
X175235262Y-100018081D01*
X175259319Y-100019122D01*
X175296126Y-100019918D01*
X175343739Y-100020444D01*
X175400213Y-100020679D01*
X175463605Y-100020598D01*
X175519167Y-100020283D01*
X175806784Y-100018097D01*
X175810944Y-98994597D01*
X175815103Y-97971096D01*
X175842785Y-97914871D01*
X175863388Y-97879310D01*
X175889278Y-97843086D01*
X175911307Y-97817805D01*
X175953117Y-97783446D01*
X176005070Y-97751794D01*
X176060682Y-97726254D01*
X176113470Y-97710227D01*
X176117827Y-97709374D01*
X176135778Y-97707617D01*
X176168981Y-97706019D01*
X176216051Y-97704602D01*
X176275602Y-97703390D01*
X176346248Y-97702408D01*
X176426603Y-97701677D01*
X176515282Y-97701221D01*
X176610769Y-97701065D01*
X177058896Y-97701065D01*
X177058896Y-97185244D01*
X175228787Y-97185244D01*
X175226596Y-96904455D01*
X175224406Y-96623665D01*
X173681104Y-96619419D01*
X173681104Y-97185244D01*
X172874095Y-97185244D01*
X172874095Y-95862414D01*
X177874226Y-95862414D01*
G37*
%TO.C,R23*%
X158613641Y-88635000D02*
X158306359Y-88635000D01*
X158613641Y-89395000D02*
X158306359Y-89395000D01*
%TO.C,C10*%
X140210000Y-84932164D02*
X140210000Y-85147836D01*
X139490000Y-84932164D02*
X139490000Y-85147836D01*
%TO.C,R13*%
X155790000Y-95912621D02*
X155790000Y-95577379D01*
X156550000Y-95912621D02*
X156550000Y-95577379D01*
%TO.C,R10*%
X144697500Y-102772258D02*
X144697500Y-102297742D01*
X145742500Y-102772258D02*
X145742500Y-102297742D01*
%TO.C,R1*%
X173323641Y-82715000D02*
X173016359Y-82715000D01*
X173323641Y-81955000D02*
X173016359Y-81955000D01*
%TO.C,J2*%
X141205000Y-93330000D02*
X141205000Y-90730000D01*
X138605000Y-103550000D02*
X143805000Y-103550000D01*
X141205000Y-90730000D02*
X143805000Y-90730000D01*
X138605000Y-90730000D02*
X139935000Y-90730000D01*
X138605000Y-92060000D02*
X138605000Y-90730000D01*
X138605000Y-93330000D02*
X138605000Y-103550000D01*
X138605000Y-93330000D02*
X141205000Y-93330000D01*
X143805000Y-90730000D02*
X143805000Y-103550000D01*
D13*
%TO.C,D1*%
X176785000Y-84620000D02*
X176785000Y-83845000D01*
X176835000Y-84620000D02*
X176785000Y-84620000D01*
X173810000Y-86270000D02*
X173810000Y-85820000D01*
X177110000Y-85270000D02*
X177110000Y-84995000D01*
X174035000Y-86270000D02*
X174160000Y-86270000D01*
X173810000Y-84620000D02*
X174160000Y-84620000D01*
X173810000Y-85095000D02*
X173810000Y-84620000D01*
X174110000Y-86270000D02*
X173810000Y-86270000D01*
X177110000Y-84995000D02*
X176835000Y-84620000D01*
X177110000Y-85895000D02*
X177110000Y-86270000D01*
X177110000Y-86270000D02*
X176810000Y-86270000D01*
D12*
%TO.C,C7*%
X145727500Y-80332836D02*
X145727500Y-80117164D01*
X145007500Y-80332836D02*
X145007500Y-80117164D01*
%TO.C,SW4*%
X139340000Y-70410000D02*
X139886529Y-70410000D01*
X139340000Y-68890000D02*
X140450000Y-68890000D01*
X139340000Y-69650000D02*
X139340000Y-68890000D01*
X141013471Y-70410000D02*
X141560000Y-70410000D01*
X141560000Y-70410000D02*
X141560000Y-71615000D01*
X139340000Y-70410000D02*
X139340000Y-71615000D01*
X139340000Y-71615000D02*
X140142470Y-71615000D01*
X140757530Y-71615000D02*
X141560000Y-71615000D01*
%TO.C,C6*%
X146097500Y-74012836D02*
X146097500Y-73797164D01*
X145377500Y-74012836D02*
X145377500Y-73797164D01*
%TO.C,U2*%
X169760000Y-79950000D02*
X171710000Y-79950000D01*
X169760000Y-79950000D02*
X167810000Y-79950000D01*
X169760000Y-74830000D02*
X171710000Y-74830000D01*
X169760000Y-74830000D02*
X166310000Y-74830000D01*
%TO.C,C15*%
X167650000Y-92294420D02*
X167650000Y-92575580D01*
X168670000Y-92294420D02*
X168670000Y-92575580D01*
%TO.C,R14*%
X155790000Y-91892621D02*
X155790000Y-91557379D01*
X156550000Y-91892621D02*
X156550000Y-91557379D01*
%TO.C,R5*%
X148407500Y-95342742D02*
X148407500Y-95817258D01*
X149452500Y-95342742D02*
X149452500Y-95817258D01*
%TO.C,C2*%
X150475336Y-85555000D02*
X150259664Y-85555000D01*
X150475336Y-86275000D02*
X150259664Y-86275000D01*
%TD*%
%LPC*%
D14*
%TO.C,SW1*%
X140580000Y-86975000D03*
X146580000Y-86975000D03*
X146580000Y-83225000D03*
X140580000Y-83225000D03*
%TD*%
D15*
%TO.C,C3*%
X157697500Y-85905000D03*
X156737500Y-85905000D03*
%TD*%
D16*
%TO.C,C8*%
X140140000Y-73505000D03*
X141275000Y-73505000D03*
%TD*%
D17*
%TO.C,SW3*%
X163945000Y-70400000D03*
D18*
X163945000Y-71670000D03*
%TD*%
D19*
%TO.C,R7*%
X143075000Y-89345000D03*
X144725000Y-89345000D03*
%TD*%
D20*
%TO.C,Y1*%
X139847500Y-75355000D03*
X139847500Y-77555000D03*
X141547500Y-77555000D03*
X141547500Y-75355000D03*
%TD*%
D21*
%TO.C,C9*%
X141325000Y-79505000D03*
X140190000Y-79505000D03*
%TD*%
D22*
%TO.C,C5*%
X149107500Y-70285000D03*
X150067500Y-70285000D03*
%TD*%
D23*
%TO.C,D2*%
X149810000Y-87745000D03*
X151385000Y-87745000D03*
%TD*%
D24*
%TO.C,R22*%
X161540000Y-89015000D03*
X160520000Y-89015000D03*
%TD*%
D25*
%TO.C,C21*%
X138340000Y-70650000D03*
X138340000Y-69690000D03*
%TD*%
D26*
%TO.C,C16*%
X164850000Y-91885000D03*
X164850000Y-92845000D03*
%TD*%
D27*
%TO.C,C1*%
X147085000Y-70570000D03*
X145535000Y-70570000D03*
%TD*%
D28*
%TO.C,R4*%
X166011298Y-73787611D03*
X167031298Y-73787611D03*
%TD*%
D29*
%TO.C,J3*%
X181050000Y-72300000D03*
X181050000Y-76300000D03*
X181050000Y-80300000D03*
X181050000Y-84300000D03*
X181050000Y-88300000D03*
X181050000Y-92300000D03*
X181050000Y-96300000D03*
X181050000Y-100300000D03*
%TD*%
D30*
%TO.C,R8*%
X145220000Y-93620000D03*
X145220000Y-91970000D03*
%TD*%
D31*
%TO.C,R2*%
X175740000Y-82375000D03*
X175740000Y-81355000D03*
%TD*%
D25*
%TO.C,C20*%
X161855000Y-71659999D03*
X161855000Y-70699999D03*
%TD*%
D30*
%TO.C,R9*%
X145220000Y-98510000D03*
X145220000Y-96860000D03*
%TD*%
D28*
%TO.C,R11*%
X149970000Y-90840000D03*
X150990000Y-90840000D03*
%TD*%
%TO.C,R19*%
X163930000Y-80920000D03*
X164950000Y-80920000D03*
%TD*%
D32*
%TO.C,C13*%
X175740000Y-80152500D03*
X175740000Y-79017500D03*
%TD*%
D33*
%TO.C,C18*%
X162570000Y-101690000D03*
X162570000Y-98740000D03*
%TD*%
D28*
%TO.C,R20*%
X168160000Y-87225000D03*
X169180000Y-87225000D03*
%TD*%
D34*
%TO.C,R21*%
X169170000Y-83915000D03*
X169170000Y-84935000D03*
%TD*%
D28*
%TO.C,R17*%
X165640000Y-87225000D03*
X166660000Y-87225000D03*
%TD*%
%TO.C,R24*%
X160835000Y-69729999D03*
X161855000Y-69729999D03*
%TD*%
D35*
%TO.C,L1*%
X170150000Y-100250000D03*
X165750000Y-100250000D03*
%TD*%
D24*
%TO.C,R12*%
X153620000Y-90820000D03*
X152600000Y-90820000D03*
%TD*%
D36*
%TO.C,U1*%
X147642500Y-74405000D03*
X147642500Y-74905000D03*
X147642500Y-75405000D03*
X147642500Y-75905000D03*
X147642500Y-76405000D03*
X147642500Y-76905000D03*
X147642500Y-77405000D03*
X147642500Y-77905000D03*
X147642500Y-78405000D03*
X147642500Y-78905000D03*
X147642500Y-79405000D03*
X147642500Y-79905000D03*
X147642500Y-80405000D03*
X147642500Y-80905000D03*
X147642500Y-81405000D03*
X147642500Y-81905000D03*
D37*
X149567500Y-83830000D03*
X150067500Y-83830000D03*
X150567500Y-83830000D03*
X151067500Y-83830000D03*
X151567500Y-83830000D03*
X152067500Y-83830000D03*
X152567500Y-83830000D03*
X153067500Y-83830000D03*
X153567500Y-83830000D03*
X154067500Y-83830000D03*
X154567500Y-83830000D03*
X155067500Y-83830000D03*
X155567500Y-83830000D03*
X156067500Y-83830000D03*
X156567500Y-83830000D03*
X157067500Y-83830000D03*
D36*
X158992500Y-81905000D03*
X158992500Y-81405000D03*
X158992500Y-80905000D03*
X158992500Y-80405000D03*
X158992500Y-79905000D03*
X158992500Y-79405000D03*
X158992500Y-78905000D03*
X158992500Y-78405000D03*
X158992500Y-77905000D03*
X158992500Y-77405000D03*
X158992500Y-76905000D03*
X158992500Y-76405000D03*
X158992500Y-75905000D03*
X158992500Y-75405000D03*
X158992500Y-74905000D03*
X158992500Y-74405000D03*
D37*
X157067500Y-72480000D03*
X156567500Y-72480000D03*
X156067500Y-72480000D03*
X155567500Y-72480000D03*
X155067500Y-72480000D03*
X154567500Y-72480000D03*
X154067500Y-72480000D03*
X153567500Y-72480000D03*
X153067500Y-72480000D03*
X152567500Y-72480000D03*
X152067500Y-72480000D03*
X151567500Y-72480000D03*
X151067500Y-72480000D03*
X150567500Y-72480000D03*
X150067500Y-72480000D03*
X149567500Y-72480000D03*
%TD*%
D24*
%TO.C,R16*%
X163220000Y-87225000D03*
X162200000Y-87225000D03*
%TD*%
D38*
%TO.C,SW2*%
X170738908Y-71250000D03*
D39*
X176138908Y-72400000D03*
D38*
X173738908Y-71250000D03*
D39*
X168338908Y-70100000D03*
X176138908Y-70100000D03*
X168338908Y-72400000D03*
D40*
X174538908Y-73450000D03*
X171438908Y-73450000D03*
X169938908Y-73450000D03*
%TD*%
D41*
%TO.C,J1*%
X151760000Y-94640000D03*
D42*
X151760000Y-97180000D03*
X151760000Y-99720000D03*
X151760000Y-102260000D03*
%TD*%
D33*
%TO.C,C19*%
X159930000Y-101700000D03*
X159930000Y-98750000D03*
%TD*%
D22*
%TO.C,C17*%
X158620000Y-95255000D03*
X159580000Y-95255000D03*
%TD*%
D28*
%TO.C,R3*%
X143647500Y-77555000D03*
X144667500Y-77555000D03*
%TD*%
D25*
%TO.C,C11*%
X165310000Y-77850000D03*
X165310000Y-76890000D03*
%TD*%
D43*
%TO.C,C14*%
X166340000Y-91650000D03*
X166340000Y-93200000D03*
%TD*%
D44*
%TO.C,Q2*%
X167630000Y-82585000D03*
X165730000Y-82585000D03*
X166680000Y-84460000D03*
%TD*%
D45*
%TO.C,C12*%
X172657500Y-83567500D03*
X172657500Y-84702500D03*
%TD*%
D46*
%TO.C,R6*%
X148930000Y-98065000D03*
X148930000Y-99715000D03*
%TD*%
D26*
%TO.C,C4*%
X161307500Y-73855000D03*
X161307500Y-74815000D03*
%TD*%
D34*
%TO.C,R18*%
X161217500Y-78805000D03*
X161217500Y-79825000D03*
%TD*%
D44*
%TO.C,Q1*%
X163150000Y-82555000D03*
X161250000Y-82555000D03*
X162200000Y-84430000D03*
%TD*%
D34*
%TO.C,R15*%
X148277500Y-86735000D03*
X148277500Y-87755000D03*
%TD*%
D47*
%TO.C,U3*%
X161007500Y-93425000D03*
X161007500Y-92475000D03*
X161007500Y-91525000D03*
X158732500Y-91525000D03*
X158732500Y-92475000D03*
X158732500Y-93425000D03*
%TD*%
D31*
%TO.C,R25*%
X142960000Y-72050000D03*
X142960000Y-71030000D03*
%TD*%
D24*
%TO.C,R23*%
X158970000Y-89015000D03*
X157950000Y-89015000D03*
%TD*%
D26*
%TO.C,C10*%
X139850000Y-84560000D03*
X139850000Y-85520000D03*
%TD*%
D48*
%TO.C,R13*%
X156170000Y-96342500D03*
X156170000Y-95147500D03*
%TD*%
D30*
%TO.C,R10*%
X145220000Y-103360000D03*
X145220000Y-101710000D03*
%TD*%
D24*
%TO.C,R1*%
X173680000Y-82335000D03*
X172660000Y-82335000D03*
%TD*%
D41*
%TO.C,J2*%
X139935000Y-92060000D03*
D42*
X142475000Y-92060000D03*
X139935000Y-94600000D03*
X142475000Y-94600000D03*
X139935000Y-97140000D03*
X142475000Y-97140000D03*
X139935000Y-99680000D03*
X142475000Y-99680000D03*
X139935000Y-102220000D03*
X142475000Y-102220000D03*
%TD*%
D49*
%TO.C,D1*%
X176410000Y-84395000D03*
X174510000Y-84395000D03*
X175460000Y-86495000D03*
%TD*%
D25*
%TO.C,C7*%
X145367500Y-80705000D03*
X145367500Y-79745000D03*
%TD*%
D17*
%TO.C,SW4*%
X140450000Y-69650000D03*
D18*
X140450000Y-70920000D03*
%TD*%
D25*
%TO.C,C6*%
X145737500Y-74385000D03*
X145737500Y-73425000D03*
%TD*%
D50*
%TO.C,U2*%
X167285000Y-75485000D03*
X167285000Y-76755000D03*
X167285000Y-78025000D03*
X167285000Y-79295000D03*
X172235000Y-79295000D03*
X172235000Y-78025000D03*
X172235000Y-76755000D03*
X172235000Y-75485000D03*
%TD*%
D43*
%TO.C,C15*%
X168160000Y-91660000D03*
X168160000Y-93210000D03*
%TD*%
D48*
%TO.C,R14*%
X156170000Y-92322500D03*
X156170000Y-91127500D03*
%TD*%
D46*
%TO.C,R5*%
X148930000Y-94755000D03*
X148930000Y-96405000D03*
%TD*%
D15*
%TO.C,C2*%
X150847500Y-85915000D03*
X149887500Y-85915000D03*
%TD*%
M02*
