%TF.GenerationSoftware,KiCad,Pcbnew,(6.0.8)*%
%TF.CreationDate,2022-10-25T21:38:08+02:00*%
%TF.ProjectId,stm_v3,73746d5f-7633-42e6-9b69-6361645f7063,rev?*%
%TF.SameCoordinates,Original*%
%TF.FileFunction,Copper,L3,Inr*%
%TF.FilePolarity,Positive*%
%FSLAX46Y46*%
G04 Gerber Fmt 4.6, Leading zero omitted, Abs format (unit mm)*
G04 Created by KiCad (PCBNEW (6.0.8)) date 2022-10-25 21:38:08*
%MOMM*%
%LPD*%
G01*
G04 APERTURE LIST*
%TA.AperFunction,ComponentPad*%
%ADD10R,1.700000X1.700000*%
%TD*%
%TA.AperFunction,ComponentPad*%
%ADD11O,1.700000X1.700000*%
%TD*%
%TA.AperFunction,ViaPad*%
%ADD12C,0.800000*%
%TD*%
G04 APERTURE END LIST*
D10*
%TO.N,+3.3V*%
%TO.C,J1*%
X151830000Y-96580000D03*
D11*
%TO.N,/Connectors/SDA*%
X151830000Y-99120000D03*
%TO.N,/Connectors/SCL*%
X151830000Y-101660000D03*
%TO.N,GND*%
X151830000Y-104200000D03*
%TD*%
D10*
%TO.N,+3.3V*%
%TO.C,J2*%
X140005000Y-93895000D03*
D11*
%TO.N,/Connectors/SW_DIO*%
X142545000Y-93895000D03*
%TO.N,GND*%
X140005000Y-96435000D03*
%TO.N,/Connectors/SW_CLK*%
X142545000Y-96435000D03*
%TO.N,GND*%
X140005000Y-98975000D03*
%TO.N,/Connectors/SW_O*%
X142545000Y-98975000D03*
%TO.N,unconnected-(J2-Pad7)*%
X140005000Y-101515000D03*
%TO.N,unconnected-(J2-Pad8)*%
X142545000Y-101515000D03*
%TO.N,GND*%
X140005000Y-104055000D03*
%TO.N,/Connectors/N_RST*%
X142545000Y-104055000D03*
%TD*%
D12*
%TO.N,SWO*%
X154117500Y-75110000D03*
%TO.N,SWCLK*%
X158027500Y-73360000D03*
%TO.N,SWDIO*%
X157537500Y-76560000D03*
X146140000Y-91170000D03*
%TO.N,SWCLK*%
X145290000Y-92570000D03*
%TO.N,SWO*%
X145290000Y-97400000D03*
%TO.N,KLine_RX*%
X168390500Y-87140000D03*
%TO.N,BAT_V*%
X159770000Y-89050000D03*
X153617500Y-83330000D03*
%TO.N,GND*%
X156970000Y-90170000D03*
%TO.N,/Power Supply/SW*%
X169790000Y-96180000D03*
%TO.N,KLine_RX*%
X157367500Y-78060000D03*
%TO.N,+3.3V*%
X154660000Y-92740000D03*
X158817500Y-87060000D03*
X151867500Y-87060000D03*
X161367500Y-74040000D03*
X165500000Y-67710000D03*
X157900000Y-102310000D03*
X145417500Y-82810000D03*
X144847500Y-75560000D03*
X157900000Y-103210000D03*
X157920000Y-101330000D03*
X157920000Y-100430000D03*
X164980000Y-78810000D03*
X146967500Y-70260000D03*
X148467500Y-70460000D03*
X150030000Y-91690000D03*
%TO.N,GND*%
X175520000Y-88950000D03*
X164080000Y-77000000D03*
X175820000Y-79090000D03*
X156220000Y-91400000D03*
X145847500Y-73660000D03*
X161310000Y-81957500D03*
X139157500Y-80660000D03*
X162020000Y-98600000D03*
X164690000Y-95610000D03*
X162530000Y-95260000D03*
X168340000Y-95610000D03*
X146887500Y-85240000D03*
X141267500Y-73760000D03*
X149067500Y-87060000D03*
X162267500Y-76010000D03*
X182210000Y-86300000D03*
X156817500Y-87960000D03*
X141640000Y-89380000D03*
X167390000Y-95610000D03*
X163020000Y-98600000D03*
X159470000Y-98550000D03*
X142917500Y-76460000D03*
X166490000Y-95610000D03*
X178860000Y-86300000D03*
X183860000Y-86300000D03*
X144317500Y-71460000D03*
X170770000Y-67720000D03*
X144517500Y-80910000D03*
X160470000Y-98550000D03*
X180560000Y-86300000D03*
X169220000Y-83950000D03*
X138567500Y-78760000D03*
X150117500Y-70560000D03*
X165780000Y-82167499D03*
X165590000Y-95610000D03*
X171480000Y-85840000D03*
%TO.N,+12V*%
X172290000Y-93730000D03*
X172290000Y-92460000D03*
%TO.N,CAN_L*%
X175260000Y-90570000D03*
%TO.N,ISO_L*%
X161330000Y-88370000D03*
%TO.N,CAN_S*%
X170240000Y-75610000D03*
X157477500Y-80070000D03*
%TO.N,/Power Supply/SW*%
X162480000Y-93660000D03*
X169790000Y-97320000D03*
X160730000Y-96390000D03*
X163380000Y-93660000D03*
X170790000Y-97320000D03*
X170790000Y-96180000D03*
%TD*%
%TA.AperFunction,Conductor*%
%TO.N,+3.3V*%
G36*
X184859561Y-66301902D02*
G01*
X184926356Y-66315188D01*
X184962044Y-66329970D01*
X185010403Y-66362282D01*
X185037718Y-66389597D01*
X185070030Y-66437956D01*
X185084812Y-66473644D01*
X185098098Y-66540439D01*
X185100000Y-66559752D01*
X185100000Y-106040248D01*
X185098098Y-106059561D01*
X185084812Y-106126356D01*
X185070030Y-106162044D01*
X185037718Y-106210403D01*
X185010403Y-106237718D01*
X184962044Y-106270030D01*
X184926356Y-106284812D01*
X184859561Y-106298098D01*
X184840248Y-106300000D01*
X136429752Y-106300000D01*
X136410439Y-106298098D01*
X136343644Y-106284812D01*
X136307956Y-106270030D01*
X136259597Y-106237718D01*
X136232282Y-106210403D01*
X136199970Y-106162044D01*
X136185188Y-106126356D01*
X136171902Y-106059561D01*
X136170000Y-106040248D01*
X136170000Y-104040262D01*
X138949520Y-104040262D01*
X138949925Y-104045082D01*
X138965409Y-104229474D01*
X138966759Y-104245553D01*
X138968092Y-104250201D01*
X138968092Y-104250202D01*
X139019379Y-104429060D01*
X139023544Y-104443586D01*
X139117712Y-104626818D01*
X139245677Y-104788270D01*
X139249357Y-104791402D01*
X139249359Y-104791404D01*
X139362017Y-104887283D01*
X139402564Y-104921791D01*
X139406787Y-104924151D01*
X139406791Y-104924154D01*
X139484182Y-104967406D01*
X139582398Y-105022297D01*
X139586996Y-105023791D01*
X139773724Y-105084463D01*
X139773726Y-105084464D01*
X139778329Y-105085959D01*
X139982894Y-105110351D01*
X139987716Y-105109980D01*
X139987719Y-105109980D01*
X140055541Y-105104761D01*
X140188300Y-105094546D01*
X140386725Y-105039145D01*
X140391038Y-105036966D01*
X140391044Y-105036964D01*
X140566289Y-104948441D01*
X140566291Y-104948440D01*
X140570610Y-104946258D01*
X140605943Y-104918653D01*
X140729135Y-104822406D01*
X140729139Y-104822402D01*
X140732951Y-104819424D01*
X140739241Y-104812138D01*
X140792313Y-104750651D01*
X140867564Y-104663472D01*
X140886231Y-104630613D01*
X140966934Y-104488550D01*
X140966935Y-104488547D01*
X140969323Y-104484344D01*
X140982882Y-104443586D01*
X141032824Y-104293454D01*
X141032824Y-104293452D01*
X141034351Y-104288863D01*
X141041854Y-104229474D01*
X141059823Y-104087228D01*
X141060171Y-104084474D01*
X141060583Y-104055000D01*
X141059138Y-104040262D01*
X141489520Y-104040262D01*
X141489925Y-104045082D01*
X141505409Y-104229474D01*
X141506759Y-104245553D01*
X141508092Y-104250201D01*
X141508092Y-104250202D01*
X141559379Y-104429060D01*
X141563544Y-104443586D01*
X141657712Y-104626818D01*
X141785677Y-104788270D01*
X141789357Y-104791402D01*
X141789359Y-104791404D01*
X141902017Y-104887283D01*
X141942564Y-104921791D01*
X141946787Y-104924151D01*
X141946791Y-104924154D01*
X142024182Y-104967406D01*
X142122398Y-105022297D01*
X142126996Y-105023791D01*
X142313724Y-105084463D01*
X142313726Y-105084464D01*
X142318329Y-105085959D01*
X142522894Y-105110351D01*
X142527716Y-105109980D01*
X142527719Y-105109980D01*
X142595541Y-105104761D01*
X142728300Y-105094546D01*
X142926725Y-105039145D01*
X142931038Y-105036966D01*
X142931044Y-105036964D01*
X143106289Y-104948441D01*
X143106291Y-104948440D01*
X143110610Y-104946258D01*
X143145943Y-104918653D01*
X143269135Y-104822406D01*
X143269139Y-104822402D01*
X143272951Y-104819424D01*
X143279241Y-104812138D01*
X143332313Y-104750651D01*
X143407564Y-104663472D01*
X143426231Y-104630613D01*
X143506934Y-104488550D01*
X143506935Y-104488547D01*
X143509323Y-104484344D01*
X143522882Y-104443586D01*
X143572824Y-104293454D01*
X143572824Y-104293452D01*
X143574351Y-104288863D01*
X143581854Y-104229474D01*
X143587439Y-104185262D01*
X150774520Y-104185262D01*
X150791759Y-104390553D01*
X150848544Y-104588586D01*
X150942712Y-104771818D01*
X151070677Y-104933270D01*
X151074357Y-104936402D01*
X151074359Y-104936404D01*
X151172509Y-105019936D01*
X151227564Y-105066791D01*
X151231787Y-105069151D01*
X151231791Y-105069154D01*
X151277889Y-105094917D01*
X151407398Y-105167297D01*
X151411996Y-105168791D01*
X151598724Y-105229463D01*
X151598726Y-105229464D01*
X151603329Y-105230959D01*
X151807894Y-105255351D01*
X151812716Y-105254980D01*
X151812719Y-105254980D01*
X151880541Y-105249761D01*
X152013300Y-105239546D01*
X152211725Y-105184145D01*
X152216038Y-105181966D01*
X152216044Y-105181964D01*
X152391289Y-105093441D01*
X152391291Y-105093440D01*
X152395610Y-105091258D01*
X152401659Y-105086532D01*
X152554135Y-104967406D01*
X152554139Y-104967402D01*
X152557951Y-104964424D01*
X152573632Y-104946258D01*
X152617313Y-104895651D01*
X152692564Y-104808472D01*
X152702260Y-104791404D01*
X152791934Y-104633550D01*
X152791935Y-104633547D01*
X152794323Y-104629344D01*
X152807882Y-104588586D01*
X152857824Y-104438454D01*
X152857824Y-104438452D01*
X152859351Y-104433863D01*
X152885171Y-104229474D01*
X152885583Y-104200000D01*
X152871096Y-104052244D01*
X152865952Y-103999780D01*
X152865951Y-103999776D01*
X152865480Y-103994970D01*
X152805935Y-103797749D01*
X152709218Y-103615849D01*
X152579011Y-103456200D01*
X152420275Y-103324882D01*
X152239055Y-103226897D01*
X152175855Y-103207333D01*
X152046875Y-103167407D01*
X152046871Y-103167406D01*
X152042254Y-103165977D01*
X152037446Y-103165472D01*
X152037443Y-103165471D01*
X151842185Y-103144949D01*
X151842183Y-103144949D01*
X151837369Y-103144443D01*
X151777354Y-103149905D01*
X151637022Y-103162675D01*
X151637017Y-103162676D01*
X151632203Y-103163114D01*
X151434572Y-103221280D01*
X151430288Y-103223519D01*
X151430287Y-103223520D01*
X151419428Y-103229197D01*
X151252002Y-103316726D01*
X151248231Y-103319758D01*
X151095220Y-103442781D01*
X151095217Y-103442783D01*
X151091447Y-103445815D01*
X151088333Y-103449526D01*
X151088332Y-103449527D01*
X151077129Y-103462879D01*
X150959024Y-103603630D01*
X150956689Y-103607878D01*
X150956688Y-103607879D01*
X150949955Y-103620126D01*
X150859776Y-103784162D01*
X150858313Y-103788775D01*
X150858311Y-103788779D01*
X150804413Y-103958689D01*
X150797484Y-103980532D01*
X150796944Y-103985344D01*
X150796944Y-103985345D01*
X150790244Y-104045082D01*
X150774520Y-104185262D01*
X143587439Y-104185262D01*
X143599823Y-104087228D01*
X143600171Y-104084474D01*
X143600583Y-104055000D01*
X143594697Y-103994970D01*
X143580952Y-103854780D01*
X143580951Y-103854776D01*
X143580480Y-103849970D01*
X143564714Y-103797749D01*
X143522333Y-103657380D01*
X143520935Y-103652749D01*
X143424218Y-103470849D01*
X143294011Y-103311200D01*
X143194887Y-103229197D01*
X143139002Y-103182965D01*
X143139000Y-103182964D01*
X143135275Y-103179882D01*
X142954055Y-103081897D01*
X142890855Y-103062333D01*
X142761875Y-103022407D01*
X142761871Y-103022406D01*
X142757254Y-103020977D01*
X142752446Y-103020472D01*
X142752443Y-103020471D01*
X142557185Y-102999949D01*
X142557183Y-102999949D01*
X142552369Y-102999443D01*
X142492354Y-103004905D01*
X142352022Y-103017675D01*
X142352017Y-103017676D01*
X142347203Y-103018114D01*
X142149572Y-103076280D01*
X142145288Y-103078519D01*
X142145287Y-103078520D01*
X142134428Y-103084197D01*
X141967002Y-103171726D01*
X141963231Y-103174758D01*
X141810220Y-103297781D01*
X141810217Y-103297783D01*
X141806447Y-103300815D01*
X141803333Y-103304526D01*
X141803332Y-103304527D01*
X141678652Y-103453115D01*
X141674024Y-103458630D01*
X141671689Y-103462878D01*
X141671688Y-103462879D01*
X141664955Y-103475126D01*
X141574776Y-103639162D01*
X141512484Y-103835532D01*
X141511944Y-103840344D01*
X141511944Y-103840345D01*
X141494061Y-103999780D01*
X141489520Y-104040262D01*
X141059138Y-104040262D01*
X141054697Y-103994970D01*
X141040952Y-103854780D01*
X141040951Y-103854776D01*
X141040480Y-103849970D01*
X141024714Y-103797749D01*
X140982333Y-103657380D01*
X140980935Y-103652749D01*
X140884218Y-103470849D01*
X140754011Y-103311200D01*
X140654887Y-103229197D01*
X140599002Y-103182965D01*
X140599000Y-103182964D01*
X140595275Y-103179882D01*
X140414055Y-103081897D01*
X140350855Y-103062333D01*
X140221875Y-103022407D01*
X140221871Y-103022406D01*
X140217254Y-103020977D01*
X140212446Y-103020472D01*
X140212443Y-103020471D01*
X140017185Y-102999949D01*
X140017183Y-102999949D01*
X140012369Y-102999443D01*
X139952354Y-103004905D01*
X139812022Y-103017675D01*
X139812017Y-103017676D01*
X139807203Y-103018114D01*
X139609572Y-103076280D01*
X139605288Y-103078519D01*
X139605287Y-103078520D01*
X139594428Y-103084197D01*
X139427002Y-103171726D01*
X139423231Y-103174758D01*
X139270220Y-103297781D01*
X139270217Y-103297783D01*
X139266447Y-103300815D01*
X139263333Y-103304526D01*
X139263332Y-103304527D01*
X139138652Y-103453115D01*
X139134024Y-103458630D01*
X139131689Y-103462878D01*
X139131688Y-103462879D01*
X139124955Y-103475126D01*
X139034776Y-103639162D01*
X138972484Y-103835532D01*
X138971944Y-103840344D01*
X138971944Y-103840345D01*
X138954061Y-103999780D01*
X138949520Y-104040262D01*
X136170000Y-104040262D01*
X136170000Y-101500262D01*
X138949520Y-101500262D01*
X138949925Y-101505082D01*
X138965409Y-101689474D01*
X138966759Y-101705553D01*
X138968092Y-101710201D01*
X138968092Y-101710202D01*
X139019379Y-101889060D01*
X139023544Y-101903586D01*
X139117712Y-102086818D01*
X139245677Y-102248270D01*
X139249357Y-102251402D01*
X139249359Y-102251404D01*
X139362017Y-102347283D01*
X139402564Y-102381791D01*
X139406787Y-102384151D01*
X139406791Y-102384154D01*
X139484182Y-102427406D01*
X139582398Y-102482297D01*
X139586996Y-102483791D01*
X139773724Y-102544463D01*
X139773726Y-102544464D01*
X139778329Y-102545959D01*
X139982894Y-102570351D01*
X139987716Y-102569980D01*
X139987719Y-102569980D01*
X140055541Y-102564761D01*
X140188300Y-102554546D01*
X140386725Y-102499145D01*
X140391038Y-102496966D01*
X140391044Y-102496964D01*
X140566289Y-102408441D01*
X140566291Y-102408440D01*
X140570610Y-102406258D01*
X140605943Y-102378653D01*
X140729135Y-102282406D01*
X140729139Y-102282402D01*
X140732951Y-102279424D01*
X140739241Y-102272138D01*
X140792313Y-102210651D01*
X140867564Y-102123472D01*
X140886231Y-102090613D01*
X140966934Y-101948550D01*
X140966935Y-101948547D01*
X140969323Y-101944344D01*
X140982882Y-101903586D01*
X141032824Y-101753454D01*
X141032824Y-101753452D01*
X141034351Y-101748863D01*
X141041854Y-101689474D01*
X141059823Y-101547228D01*
X141060171Y-101544474D01*
X141060583Y-101515000D01*
X141059138Y-101500262D01*
X141489520Y-101500262D01*
X141489925Y-101505082D01*
X141505409Y-101689474D01*
X141506759Y-101705553D01*
X141508092Y-101710201D01*
X141508092Y-101710202D01*
X141559379Y-101889060D01*
X141563544Y-101903586D01*
X141657712Y-102086818D01*
X141785677Y-102248270D01*
X141789357Y-102251402D01*
X141789359Y-102251404D01*
X141902017Y-102347283D01*
X141942564Y-102381791D01*
X141946787Y-102384151D01*
X141946791Y-102384154D01*
X142024182Y-102427406D01*
X142122398Y-102482297D01*
X142126996Y-102483791D01*
X142313724Y-102544463D01*
X142313726Y-102544464D01*
X142318329Y-102545959D01*
X142522894Y-102570351D01*
X142527716Y-102569980D01*
X142527719Y-102569980D01*
X142595541Y-102564761D01*
X142728300Y-102554546D01*
X142926725Y-102499145D01*
X142931038Y-102496966D01*
X142931044Y-102496964D01*
X143106289Y-102408441D01*
X143106291Y-102408440D01*
X143110610Y-102406258D01*
X143145943Y-102378653D01*
X143269135Y-102282406D01*
X143269139Y-102282402D01*
X143272951Y-102279424D01*
X143279241Y-102272138D01*
X143332313Y-102210651D01*
X143407564Y-102123472D01*
X143426231Y-102090613D01*
X143506934Y-101948550D01*
X143506935Y-101948547D01*
X143509323Y-101944344D01*
X143522882Y-101903586D01*
X143572824Y-101753454D01*
X143572824Y-101753452D01*
X143574351Y-101748863D01*
X143581854Y-101689474D01*
X143587439Y-101645262D01*
X150774520Y-101645262D01*
X150791759Y-101850553D01*
X150848544Y-102048586D01*
X150942712Y-102231818D01*
X151070677Y-102393270D01*
X151074357Y-102396402D01*
X151074359Y-102396404D01*
X151172509Y-102479936D01*
X151227564Y-102526791D01*
X151231787Y-102529151D01*
X151231791Y-102529154D01*
X151277889Y-102554917D01*
X151407398Y-102627297D01*
X151411996Y-102628791D01*
X151598724Y-102689463D01*
X151598726Y-102689464D01*
X151603329Y-102690959D01*
X151807894Y-102715351D01*
X151812716Y-102714980D01*
X151812719Y-102714980D01*
X151880541Y-102709761D01*
X152013300Y-102699546D01*
X152211725Y-102644145D01*
X152216038Y-102641966D01*
X152216044Y-102641964D01*
X152391289Y-102553441D01*
X152391291Y-102553440D01*
X152395610Y-102551258D01*
X152401659Y-102546532D01*
X152554135Y-102427406D01*
X152554139Y-102427402D01*
X152557951Y-102424424D01*
X152573632Y-102406258D01*
X152617313Y-102355651D01*
X152692564Y-102268472D01*
X152702260Y-102251404D01*
X152791934Y-102093550D01*
X152791935Y-102093547D01*
X152794323Y-102089344D01*
X152807882Y-102048586D01*
X152857824Y-101898454D01*
X152857824Y-101898452D01*
X152859351Y-101893863D01*
X152885171Y-101689474D01*
X152885583Y-101660000D01*
X152871096Y-101512244D01*
X152865952Y-101459780D01*
X152865951Y-101459776D01*
X152865480Y-101454970D01*
X152805935Y-101257749D01*
X152709218Y-101075849D01*
X152579011Y-100916200D01*
X152420275Y-100784882D01*
X152239055Y-100686897D01*
X152175855Y-100667333D01*
X152046875Y-100627407D01*
X152046871Y-100627406D01*
X152042254Y-100625977D01*
X152037446Y-100625472D01*
X152037443Y-100625471D01*
X151842185Y-100604949D01*
X151842183Y-100604949D01*
X151837369Y-100604443D01*
X151777354Y-100609905D01*
X151637022Y-100622675D01*
X151637017Y-100622676D01*
X151632203Y-100623114D01*
X151434572Y-100681280D01*
X151430288Y-100683519D01*
X151430287Y-100683520D01*
X151419428Y-100689197D01*
X151252002Y-100776726D01*
X151248231Y-100779758D01*
X151095220Y-100902781D01*
X151095217Y-100902783D01*
X151091447Y-100905815D01*
X151088333Y-100909526D01*
X151088332Y-100909527D01*
X151077129Y-100922879D01*
X150959024Y-101063630D01*
X150956689Y-101067878D01*
X150956688Y-101067879D01*
X150949955Y-101080126D01*
X150859776Y-101244162D01*
X150858313Y-101248775D01*
X150858311Y-101248779D01*
X150804413Y-101418689D01*
X150797484Y-101440532D01*
X150796944Y-101445344D01*
X150796944Y-101445345D01*
X150790244Y-101505082D01*
X150774520Y-101645262D01*
X143587439Y-101645262D01*
X143599823Y-101547228D01*
X143600171Y-101544474D01*
X143600583Y-101515000D01*
X143594697Y-101454970D01*
X143580952Y-101314780D01*
X143580951Y-101314776D01*
X143580480Y-101309970D01*
X143564714Y-101257749D01*
X143522333Y-101117380D01*
X143520935Y-101112749D01*
X143424218Y-100930849D01*
X143294011Y-100771200D01*
X143194887Y-100689197D01*
X143139002Y-100642965D01*
X143139000Y-100642964D01*
X143135275Y-100639882D01*
X142954055Y-100541897D01*
X142890855Y-100522333D01*
X142761875Y-100482407D01*
X142761871Y-100482406D01*
X142757254Y-100480977D01*
X142752446Y-100480472D01*
X142752443Y-100480471D01*
X142557185Y-100459949D01*
X142557183Y-100459949D01*
X142552369Y-100459443D01*
X142492354Y-100464905D01*
X142352022Y-100477675D01*
X142352017Y-100477676D01*
X142347203Y-100478114D01*
X142149572Y-100536280D01*
X142145288Y-100538519D01*
X142145287Y-100538520D01*
X142134428Y-100544197D01*
X141967002Y-100631726D01*
X141963231Y-100634758D01*
X141810220Y-100757781D01*
X141810217Y-100757783D01*
X141806447Y-100760815D01*
X141803333Y-100764526D01*
X141803332Y-100764527D01*
X141678652Y-100913115D01*
X141674024Y-100918630D01*
X141671689Y-100922878D01*
X141671688Y-100922879D01*
X141664955Y-100935126D01*
X141574776Y-101099162D01*
X141512484Y-101295532D01*
X141511944Y-101300344D01*
X141511944Y-101300345D01*
X141494061Y-101459780D01*
X141489520Y-101500262D01*
X141059138Y-101500262D01*
X141054697Y-101454970D01*
X141040952Y-101314780D01*
X141040951Y-101314776D01*
X141040480Y-101309970D01*
X141024714Y-101257749D01*
X140982333Y-101117380D01*
X140980935Y-101112749D01*
X140884218Y-100930849D01*
X140754011Y-100771200D01*
X140654887Y-100689197D01*
X140599002Y-100642965D01*
X140599000Y-100642964D01*
X140595275Y-100639882D01*
X140414055Y-100541897D01*
X140350855Y-100522333D01*
X140221875Y-100482407D01*
X140221871Y-100482406D01*
X140217254Y-100480977D01*
X140212446Y-100480472D01*
X140212443Y-100480471D01*
X140017185Y-100459949D01*
X140017183Y-100459949D01*
X140012369Y-100459443D01*
X139952354Y-100464905D01*
X139812022Y-100477675D01*
X139812017Y-100477676D01*
X139807203Y-100478114D01*
X139609572Y-100536280D01*
X139605288Y-100538519D01*
X139605287Y-100538520D01*
X139594428Y-100544197D01*
X139427002Y-100631726D01*
X139423231Y-100634758D01*
X139270220Y-100757781D01*
X139270217Y-100757783D01*
X139266447Y-100760815D01*
X139263333Y-100764526D01*
X139263332Y-100764527D01*
X139138652Y-100913115D01*
X139134024Y-100918630D01*
X139131689Y-100922878D01*
X139131688Y-100922879D01*
X139124955Y-100935126D01*
X139034776Y-101099162D01*
X138972484Y-101295532D01*
X138971944Y-101300344D01*
X138971944Y-101300345D01*
X138954061Y-101459780D01*
X138949520Y-101500262D01*
X136170000Y-101500262D01*
X136170000Y-98960262D01*
X138949520Y-98960262D01*
X138953464Y-99007228D01*
X138965409Y-99149474D01*
X138966759Y-99165553D01*
X138968092Y-99170201D01*
X138968092Y-99170202D01*
X139019379Y-99349060D01*
X139023544Y-99363586D01*
X139117712Y-99546818D01*
X139245677Y-99708270D01*
X139249357Y-99711402D01*
X139249359Y-99711404D01*
X139362017Y-99807283D01*
X139402564Y-99841791D01*
X139406787Y-99844151D01*
X139406791Y-99844154D01*
X139484182Y-99887406D01*
X139582398Y-99942297D01*
X139586996Y-99943791D01*
X139773724Y-100004463D01*
X139773726Y-100004464D01*
X139778329Y-100005959D01*
X139982894Y-100030351D01*
X139987716Y-100029980D01*
X139987719Y-100029980D01*
X140055541Y-100024761D01*
X140188300Y-100014546D01*
X140386725Y-99959145D01*
X140391038Y-99956966D01*
X140391044Y-99956964D01*
X140566289Y-99868441D01*
X140566291Y-99868440D01*
X140570610Y-99866258D01*
X140605943Y-99838653D01*
X140729135Y-99742406D01*
X140729139Y-99742402D01*
X140732951Y-99739424D01*
X140739241Y-99732138D01*
X140792313Y-99670651D01*
X140867564Y-99583472D01*
X140886231Y-99550613D01*
X140966934Y-99408550D01*
X140966935Y-99408547D01*
X140969323Y-99404344D01*
X140982882Y-99363586D01*
X141032824Y-99213454D01*
X141032824Y-99213452D01*
X141034351Y-99208863D01*
X141041854Y-99149474D01*
X141059823Y-99007228D01*
X141060171Y-99004474D01*
X141060583Y-98975000D01*
X141059138Y-98960262D01*
X141489520Y-98960262D01*
X141493464Y-99007228D01*
X141505409Y-99149474D01*
X141506759Y-99165553D01*
X141508092Y-99170201D01*
X141508092Y-99170202D01*
X141559379Y-99349060D01*
X141563544Y-99363586D01*
X141657712Y-99546818D01*
X141785677Y-99708270D01*
X141789357Y-99711402D01*
X141789359Y-99711404D01*
X141902017Y-99807283D01*
X141942564Y-99841791D01*
X141946787Y-99844151D01*
X141946791Y-99844154D01*
X142024182Y-99887406D01*
X142122398Y-99942297D01*
X142126996Y-99943791D01*
X142313724Y-100004463D01*
X142313726Y-100004464D01*
X142318329Y-100005959D01*
X142522894Y-100030351D01*
X142527716Y-100029980D01*
X142527719Y-100029980D01*
X142595541Y-100024761D01*
X142728300Y-100014546D01*
X142926725Y-99959145D01*
X142931038Y-99956966D01*
X142931044Y-99956964D01*
X143106289Y-99868441D01*
X143106291Y-99868440D01*
X143110610Y-99866258D01*
X143145943Y-99838653D01*
X143269135Y-99742406D01*
X143269139Y-99742402D01*
X143272951Y-99739424D01*
X143279241Y-99732138D01*
X143332313Y-99670651D01*
X143407564Y-99583472D01*
X143426231Y-99550613D01*
X143506934Y-99408550D01*
X143506935Y-99408547D01*
X143509323Y-99404344D01*
X143522882Y-99363586D01*
X143572824Y-99213454D01*
X143572824Y-99213452D01*
X143574351Y-99208863D01*
X143581854Y-99149474D01*
X143587439Y-99105262D01*
X150774520Y-99105262D01*
X150791759Y-99310553D01*
X150848544Y-99508586D01*
X150942712Y-99691818D01*
X151070677Y-99853270D01*
X151074357Y-99856402D01*
X151074359Y-99856404D01*
X151172509Y-99939936D01*
X151227564Y-99986791D01*
X151231787Y-99989151D01*
X151231791Y-99989154D01*
X151277889Y-100014917D01*
X151407398Y-100087297D01*
X151411996Y-100088791D01*
X151598724Y-100149463D01*
X151598726Y-100149464D01*
X151603329Y-100150959D01*
X151807894Y-100175351D01*
X151812716Y-100174980D01*
X151812719Y-100174980D01*
X151880541Y-100169761D01*
X152013300Y-100159546D01*
X152211725Y-100104145D01*
X152216038Y-100101966D01*
X152216044Y-100101964D01*
X152391289Y-100013441D01*
X152391291Y-100013440D01*
X152395610Y-100011258D01*
X152401659Y-100006532D01*
X152554135Y-99887406D01*
X152554139Y-99887402D01*
X152557951Y-99884424D01*
X152573632Y-99866258D01*
X152617313Y-99815651D01*
X152692564Y-99728472D01*
X152702260Y-99711404D01*
X152791934Y-99553550D01*
X152791935Y-99553547D01*
X152794323Y-99549344D01*
X152807882Y-99508586D01*
X152857824Y-99358454D01*
X152857824Y-99358452D01*
X152859351Y-99353863D01*
X152885171Y-99149474D01*
X152885583Y-99120000D01*
X152881369Y-99077019D01*
X152865952Y-98919780D01*
X152865951Y-98919776D01*
X152865480Y-98914970D01*
X152805935Y-98717749D01*
X152716742Y-98550000D01*
X158864318Y-98550000D01*
X158884956Y-98706762D01*
X158945464Y-98852841D01*
X159041718Y-98978282D01*
X159167159Y-99074536D01*
X159313238Y-99135044D01*
X159470000Y-99155682D01*
X159626762Y-99135044D01*
X159772841Y-99074536D01*
X159898282Y-98978282D01*
X159900852Y-98974933D01*
X159954513Y-98947592D01*
X160014945Y-98957163D01*
X160038826Y-98974513D01*
X160041718Y-98978282D01*
X160167159Y-99074536D01*
X160313238Y-99135044D01*
X160470000Y-99155682D01*
X160626762Y-99135044D01*
X160772841Y-99074536D01*
X160898282Y-98978282D01*
X160994536Y-98852841D01*
X161055044Y-98706762D01*
X161069099Y-98600000D01*
X161414318Y-98600000D01*
X161434956Y-98756762D01*
X161495464Y-98902841D01*
X161591718Y-99028282D01*
X161717159Y-99124536D01*
X161863238Y-99185044D01*
X161994431Y-99202316D01*
X162007680Y-99204060D01*
X162020000Y-99205682D01*
X162032321Y-99204060D01*
X162045569Y-99202316D01*
X162176762Y-99185044D01*
X162322841Y-99124536D01*
X162448282Y-99028282D01*
X162450852Y-99024933D01*
X162504513Y-98997592D01*
X162564945Y-99007163D01*
X162588826Y-99024513D01*
X162591718Y-99028282D01*
X162717159Y-99124536D01*
X162863238Y-99185044D01*
X162994431Y-99202316D01*
X163007680Y-99204060D01*
X163020000Y-99205682D01*
X163032321Y-99204060D01*
X163045569Y-99202316D01*
X163176762Y-99185044D01*
X163322841Y-99124536D01*
X163448282Y-99028282D01*
X163544536Y-98902841D01*
X163605044Y-98756762D01*
X163625682Y-98600000D01*
X163605044Y-98443238D01*
X163544536Y-98297159D01*
X163448282Y-98171718D01*
X163322841Y-98075464D01*
X163176762Y-98014956D01*
X163020000Y-97994318D01*
X162863238Y-98014956D01*
X162717159Y-98075464D01*
X162591718Y-98171718D01*
X162589148Y-98175067D01*
X162535487Y-98202408D01*
X162475055Y-98192837D01*
X162451174Y-98175487D01*
X162448282Y-98171718D01*
X162322841Y-98075464D01*
X162176762Y-98014956D01*
X162020000Y-97994318D01*
X161863238Y-98014956D01*
X161717159Y-98075464D01*
X161591718Y-98171718D01*
X161495464Y-98297159D01*
X161434956Y-98443238D01*
X161414318Y-98600000D01*
X161069099Y-98600000D01*
X161075682Y-98550000D01*
X161055044Y-98393238D01*
X161052500Y-98387095D01*
X160997019Y-98253154D01*
X160994536Y-98247159D01*
X160898282Y-98121718D01*
X160772841Y-98025464D01*
X160626762Y-97964956D01*
X160470000Y-97944318D01*
X160313238Y-97964956D01*
X160167159Y-98025464D01*
X160041718Y-98121718D01*
X160039148Y-98125067D01*
X159985487Y-98152408D01*
X159925055Y-98142837D01*
X159901174Y-98125487D01*
X159898282Y-98121718D01*
X159772841Y-98025464D01*
X159626762Y-97964956D01*
X159470000Y-97944318D01*
X159313238Y-97964956D01*
X159167159Y-98025464D01*
X159041718Y-98121718D01*
X158945464Y-98247159D01*
X158942981Y-98253154D01*
X158887501Y-98387095D01*
X158884956Y-98393238D01*
X158864318Y-98550000D01*
X152716742Y-98550000D01*
X152709218Y-98535849D01*
X152579011Y-98376200D01*
X152420275Y-98244882D01*
X152277648Y-98167764D01*
X152243309Y-98149197D01*
X152243308Y-98149197D01*
X152239055Y-98146897D01*
X152157715Y-98121718D01*
X152046875Y-98087407D01*
X152046871Y-98087406D01*
X152042254Y-98085977D01*
X152037446Y-98085472D01*
X152037443Y-98085471D01*
X151842185Y-98064949D01*
X151842183Y-98064949D01*
X151837369Y-98064443D01*
X151777354Y-98069905D01*
X151637022Y-98082675D01*
X151637017Y-98082676D01*
X151632203Y-98083114D01*
X151434572Y-98141280D01*
X151430288Y-98143519D01*
X151430287Y-98143520D01*
X151419428Y-98149197D01*
X151252002Y-98236726D01*
X151248231Y-98239758D01*
X151095220Y-98362781D01*
X151095217Y-98362783D01*
X151091447Y-98365815D01*
X151088333Y-98369526D01*
X151088332Y-98369527D01*
X151021081Y-98449674D01*
X150959024Y-98523630D01*
X150956689Y-98527878D01*
X150956688Y-98527879D01*
X150949955Y-98540126D01*
X150859776Y-98704162D01*
X150858313Y-98708775D01*
X150858311Y-98708779D01*
X150814514Y-98846846D01*
X150797484Y-98900532D01*
X150796944Y-98905344D01*
X150796944Y-98905345D01*
X150778410Y-99070585D01*
X150774520Y-99105262D01*
X143587439Y-99105262D01*
X143599823Y-99007228D01*
X143600171Y-99004474D01*
X143600583Y-98975000D01*
X143594697Y-98914970D01*
X143580952Y-98774780D01*
X143580951Y-98774776D01*
X143580480Y-98769970D01*
X143576493Y-98756762D01*
X143531105Y-98606434D01*
X143520935Y-98572749D01*
X143424218Y-98390849D01*
X143294011Y-98231200D01*
X143274650Y-98215183D01*
X143139002Y-98102965D01*
X143139000Y-98102964D01*
X143135275Y-98099882D01*
X142954055Y-98001897D01*
X142890855Y-97982333D01*
X142761875Y-97942407D01*
X142761871Y-97942406D01*
X142757254Y-97940977D01*
X142752446Y-97940472D01*
X142752443Y-97940471D01*
X142557185Y-97919949D01*
X142557183Y-97919949D01*
X142552369Y-97919443D01*
X142496405Y-97924536D01*
X142352022Y-97937675D01*
X142352017Y-97937676D01*
X142347203Y-97938114D01*
X142149572Y-97996280D01*
X142145288Y-97998519D01*
X142145287Y-97998520D01*
X142086191Y-98029415D01*
X141967002Y-98091726D01*
X141963231Y-98094758D01*
X141810220Y-98217781D01*
X141810217Y-98217783D01*
X141806447Y-98220815D01*
X141803333Y-98224526D01*
X141803332Y-98224527D01*
X141678652Y-98373115D01*
X141674024Y-98378630D01*
X141671689Y-98382878D01*
X141671688Y-98382879D01*
X141665993Y-98393238D01*
X141574776Y-98559162D01*
X141512484Y-98755532D01*
X141511944Y-98760344D01*
X141511944Y-98760345D01*
X141494061Y-98919780D01*
X141489520Y-98960262D01*
X141059138Y-98960262D01*
X141054697Y-98914970D01*
X141040952Y-98774780D01*
X141040951Y-98774776D01*
X141040480Y-98769970D01*
X141036493Y-98756762D01*
X140991105Y-98606434D01*
X140980935Y-98572749D01*
X140884218Y-98390849D01*
X140754011Y-98231200D01*
X140734650Y-98215183D01*
X140599002Y-98102965D01*
X140599000Y-98102964D01*
X140595275Y-98099882D01*
X140414055Y-98001897D01*
X140350855Y-97982333D01*
X140221875Y-97942407D01*
X140221871Y-97942406D01*
X140217254Y-97940977D01*
X140212446Y-97940472D01*
X140212443Y-97940471D01*
X140017185Y-97919949D01*
X140017183Y-97919949D01*
X140012369Y-97919443D01*
X139956405Y-97924536D01*
X139812022Y-97937675D01*
X139812017Y-97937676D01*
X139807203Y-97938114D01*
X139609572Y-97996280D01*
X139605288Y-97998519D01*
X139605287Y-97998520D01*
X139546191Y-98029415D01*
X139427002Y-98091726D01*
X139423231Y-98094758D01*
X139270220Y-98217781D01*
X139270217Y-98217783D01*
X139266447Y-98220815D01*
X139263333Y-98224526D01*
X139263332Y-98224527D01*
X139138652Y-98373115D01*
X139134024Y-98378630D01*
X139131689Y-98382878D01*
X139131688Y-98382879D01*
X139125993Y-98393238D01*
X139034776Y-98559162D01*
X138972484Y-98755532D01*
X138971944Y-98760344D01*
X138971944Y-98760345D01*
X138954061Y-98919780D01*
X138949520Y-98960262D01*
X136170000Y-98960262D01*
X136170000Y-96420262D01*
X138949520Y-96420262D01*
X138949925Y-96425082D01*
X138965641Y-96612236D01*
X138966759Y-96625553D01*
X138968092Y-96630201D01*
X138968092Y-96630202D01*
X139021782Y-96817440D01*
X139023544Y-96823586D01*
X139117712Y-97006818D01*
X139245677Y-97168270D01*
X139249357Y-97171402D01*
X139249359Y-97171404D01*
X139326718Y-97237241D01*
X139402564Y-97301791D01*
X139406787Y-97304151D01*
X139406791Y-97304154D01*
X139446342Y-97326258D01*
X139582398Y-97402297D01*
X139586996Y-97403791D01*
X139773724Y-97464463D01*
X139773726Y-97464464D01*
X139778329Y-97465959D01*
X139982894Y-97490351D01*
X139987716Y-97489980D01*
X139987719Y-97489980D01*
X140055541Y-97484761D01*
X140188300Y-97474546D01*
X140386725Y-97419145D01*
X140391038Y-97416966D01*
X140391044Y-97416964D01*
X140566289Y-97328441D01*
X140566291Y-97328440D01*
X140570610Y-97326258D01*
X140668634Y-97249674D01*
X140729135Y-97202406D01*
X140729139Y-97202402D01*
X140732951Y-97199424D01*
X140758631Y-97169674D01*
X140825667Y-97092010D01*
X140867564Y-97043472D01*
X140869957Y-97039260D01*
X140966934Y-96868550D01*
X140966935Y-96868547D01*
X140969323Y-96864344D01*
X140982882Y-96823586D01*
X141032824Y-96673454D01*
X141032824Y-96673452D01*
X141034351Y-96668863D01*
X141060171Y-96464474D01*
X141060583Y-96435000D01*
X141059138Y-96420262D01*
X141489520Y-96420262D01*
X141489925Y-96425082D01*
X141505641Y-96612236D01*
X141506759Y-96625553D01*
X141508092Y-96630201D01*
X141508092Y-96630202D01*
X141561782Y-96817440D01*
X141563544Y-96823586D01*
X141657712Y-97006818D01*
X141785677Y-97168270D01*
X141789357Y-97171402D01*
X141789359Y-97171404D01*
X141866718Y-97237241D01*
X141942564Y-97301791D01*
X141946787Y-97304151D01*
X141946791Y-97304154D01*
X141986342Y-97326258D01*
X142122398Y-97402297D01*
X142126996Y-97403791D01*
X142313724Y-97464463D01*
X142313726Y-97464464D01*
X142318329Y-97465959D01*
X142522894Y-97490351D01*
X142527716Y-97489980D01*
X142527719Y-97489980D01*
X142595541Y-97484761D01*
X142728300Y-97474546D01*
X142926725Y-97419145D01*
X142931038Y-97416966D01*
X142931044Y-97416964D01*
X142964627Y-97400000D01*
X144684318Y-97400000D01*
X144704956Y-97556762D01*
X144765464Y-97702841D01*
X144861718Y-97828282D01*
X144987159Y-97924536D01*
X145133238Y-97985044D01*
X145290000Y-98005682D01*
X145446762Y-97985044D01*
X145592841Y-97924536D01*
X145718282Y-97828282D01*
X145814536Y-97702841D01*
X145875044Y-97556762D01*
X145889779Y-97444840D01*
X150780000Y-97444840D01*
X150780948Y-97454462D01*
X150789702Y-97498474D01*
X150797021Y-97516142D01*
X150830389Y-97566082D01*
X150843918Y-97579611D01*
X150893858Y-97612979D01*
X150911526Y-97620298D01*
X150955538Y-97629052D01*
X150965160Y-97630000D01*
X151364320Y-97630000D01*
X151377005Y-97625878D01*
X151380000Y-97621757D01*
X151380000Y-97614320D01*
X152280000Y-97614320D01*
X152284122Y-97627005D01*
X152288243Y-97630000D01*
X152694840Y-97630000D01*
X152704462Y-97629052D01*
X152748474Y-97620298D01*
X152766142Y-97612979D01*
X152816082Y-97579611D01*
X152829611Y-97566082D01*
X152862979Y-97516142D01*
X152870298Y-97498474D01*
X152879052Y-97454462D01*
X152880000Y-97444840D01*
X152880000Y-97320000D01*
X169184318Y-97320000D01*
X169204956Y-97476762D01*
X169265464Y-97622841D01*
X169361718Y-97748282D01*
X169487159Y-97844536D01*
X169633238Y-97905044D01*
X169790000Y-97925682D01*
X169946762Y-97905044D01*
X170092841Y-97844536D01*
X170218282Y-97748282D01*
X170220852Y-97744933D01*
X170274513Y-97717592D01*
X170334945Y-97727163D01*
X170358826Y-97744513D01*
X170361718Y-97748282D01*
X170487159Y-97844536D01*
X170633238Y-97905044D01*
X170790000Y-97925682D01*
X170946762Y-97905044D01*
X171092841Y-97844536D01*
X171218282Y-97748282D01*
X171314536Y-97622841D01*
X171375044Y-97476762D01*
X171395682Y-97320000D01*
X171375044Y-97163238D01*
X171314536Y-97017159D01*
X171218282Y-96891718D01*
X171135949Y-96828542D01*
X171101293Y-96778118D01*
X171102894Y-96716953D01*
X171135949Y-96671458D01*
X171213129Y-96612236D01*
X171218282Y-96608282D01*
X171314536Y-96482841D01*
X171375044Y-96336762D01*
X171395682Y-96180000D01*
X171375044Y-96023238D01*
X171371597Y-96014915D01*
X171351696Y-95966871D01*
X171314536Y-95877159D01*
X171218282Y-95751718D01*
X171092841Y-95655464D01*
X170946762Y-95594956D01*
X170790000Y-95574318D01*
X170633238Y-95594956D01*
X170487159Y-95655464D01*
X170361718Y-95751718D01*
X170359148Y-95755067D01*
X170305487Y-95782408D01*
X170245055Y-95772837D01*
X170221174Y-95755487D01*
X170218282Y-95751718D01*
X170092841Y-95655464D01*
X169946762Y-95594956D01*
X169790000Y-95574318D01*
X169633238Y-95594956D01*
X169487159Y-95655464D01*
X169361718Y-95751718D01*
X169265464Y-95877159D01*
X169228304Y-95966871D01*
X169208404Y-96014915D01*
X169204956Y-96023238D01*
X169184318Y-96180000D01*
X169204956Y-96336762D01*
X169265464Y-96482841D01*
X169361718Y-96608282D01*
X169366871Y-96612236D01*
X169444051Y-96671458D01*
X169478707Y-96721882D01*
X169477106Y-96783047D01*
X169444051Y-96828542D01*
X169361718Y-96891718D01*
X169265464Y-97017159D01*
X169204956Y-97163238D01*
X169184318Y-97320000D01*
X152880000Y-97320000D01*
X152880000Y-97045680D01*
X152875878Y-97032995D01*
X152871757Y-97030000D01*
X152295680Y-97030000D01*
X152282995Y-97034122D01*
X152280000Y-97038243D01*
X152280000Y-97614320D01*
X151380000Y-97614320D01*
X151380000Y-97045680D01*
X151375878Y-97032995D01*
X151371757Y-97030000D01*
X150795680Y-97030000D01*
X150782995Y-97034122D01*
X150780000Y-97038243D01*
X150780000Y-97444840D01*
X145889779Y-97444840D01*
X145895682Y-97400000D01*
X145875044Y-97243238D01*
X145814536Y-97097159D01*
X145718282Y-96971718D01*
X145592841Y-96875464D01*
X145446762Y-96814956D01*
X145290000Y-96794318D01*
X145133238Y-96814956D01*
X144987159Y-96875464D01*
X144861718Y-96971718D01*
X144765464Y-97097159D01*
X144704956Y-97243238D01*
X144684318Y-97400000D01*
X142964627Y-97400000D01*
X143106289Y-97328441D01*
X143106291Y-97328440D01*
X143110610Y-97326258D01*
X143208634Y-97249674D01*
X143269135Y-97202406D01*
X143269139Y-97202402D01*
X143272951Y-97199424D01*
X143298631Y-97169674D01*
X143365667Y-97092010D01*
X143407564Y-97043472D01*
X143409957Y-97039260D01*
X143506934Y-96868550D01*
X143506935Y-96868547D01*
X143509323Y-96864344D01*
X143522882Y-96823586D01*
X143572824Y-96673454D01*
X143572824Y-96673452D01*
X143574351Y-96668863D01*
X143600171Y-96464474D01*
X143600583Y-96435000D01*
X143596171Y-96390000D01*
X160124318Y-96390000D01*
X160144956Y-96546762D01*
X160205464Y-96692841D01*
X160301718Y-96818282D01*
X160427159Y-96914536D01*
X160573238Y-96975044D01*
X160730000Y-96995682D01*
X160886762Y-96975044D01*
X161032841Y-96914536D01*
X161158282Y-96818282D01*
X161254536Y-96692841D01*
X161315044Y-96546762D01*
X161335682Y-96390000D01*
X161315044Y-96233238D01*
X161254536Y-96087159D01*
X161158282Y-95961718D01*
X161032841Y-95865464D01*
X160886762Y-95804956D01*
X160730000Y-95784318D01*
X160573238Y-95804956D01*
X160427159Y-95865464D01*
X160301718Y-95961718D01*
X160205464Y-96087159D01*
X160144956Y-96233238D01*
X160124318Y-96390000D01*
X143596171Y-96390000D01*
X143590320Y-96330326D01*
X143580952Y-96234780D01*
X143580951Y-96234776D01*
X143580480Y-96229970D01*
X143575911Y-96214835D01*
X143545563Y-96114320D01*
X150780000Y-96114320D01*
X150784122Y-96127005D01*
X150788243Y-96130000D01*
X151364320Y-96130000D01*
X151377005Y-96125878D01*
X151380000Y-96121757D01*
X151380000Y-96114320D01*
X152280000Y-96114320D01*
X152284122Y-96127005D01*
X152288243Y-96130000D01*
X152864320Y-96130000D01*
X152877005Y-96125878D01*
X152880000Y-96121757D01*
X152880000Y-95715160D01*
X152879052Y-95705538D01*
X152870298Y-95661526D01*
X152862979Y-95643858D01*
X152829611Y-95593918D01*
X152816082Y-95580389D01*
X152766142Y-95547021D01*
X152748474Y-95539702D01*
X152704462Y-95530948D01*
X152694840Y-95530000D01*
X152295680Y-95530000D01*
X152282995Y-95534122D01*
X152280000Y-95538243D01*
X152280000Y-96114320D01*
X151380000Y-96114320D01*
X151380000Y-95545680D01*
X151375878Y-95532995D01*
X151371757Y-95530000D01*
X150965160Y-95530000D01*
X150955538Y-95530948D01*
X150911526Y-95539702D01*
X150893858Y-95547021D01*
X150843918Y-95580389D01*
X150830389Y-95593918D01*
X150797021Y-95643858D01*
X150789702Y-95661526D01*
X150780948Y-95705538D01*
X150780000Y-95715160D01*
X150780000Y-96114320D01*
X143545563Y-96114320D01*
X143523799Y-96042236D01*
X143520935Y-96032749D01*
X143424218Y-95850849D01*
X143294011Y-95691200D01*
X143247812Y-95652981D01*
X143139002Y-95562965D01*
X143139000Y-95562964D01*
X143135275Y-95559882D01*
X142954055Y-95461897D01*
X142890855Y-95442333D01*
X142761875Y-95402407D01*
X142761871Y-95402406D01*
X142757254Y-95400977D01*
X142752446Y-95400472D01*
X142752443Y-95400471D01*
X142557185Y-95379949D01*
X142557183Y-95379949D01*
X142552369Y-95379443D01*
X142492354Y-95384905D01*
X142352022Y-95397675D01*
X142352017Y-95397676D01*
X142347203Y-95398114D01*
X142149572Y-95456280D01*
X142145288Y-95458519D01*
X142145287Y-95458520D01*
X142134428Y-95464197D01*
X141967002Y-95551726D01*
X141963231Y-95554758D01*
X141810220Y-95677781D01*
X141810217Y-95677783D01*
X141806447Y-95680815D01*
X141803333Y-95684526D01*
X141803332Y-95684527D01*
X141700196Y-95807440D01*
X141674024Y-95838630D01*
X141671689Y-95842878D01*
X141671688Y-95842879D01*
X141664955Y-95855126D01*
X141574776Y-96019162D01*
X141573313Y-96023775D01*
X141573311Y-96023779D01*
X141553206Y-96087159D01*
X141512484Y-96215532D01*
X141511944Y-96220344D01*
X141511944Y-96220345D01*
X141492193Y-96396434D01*
X141489520Y-96420262D01*
X141059138Y-96420262D01*
X141050320Y-96330326D01*
X141040952Y-96234780D01*
X141040951Y-96234776D01*
X141040480Y-96229970D01*
X141035911Y-96214835D01*
X140983799Y-96042236D01*
X140980935Y-96032749D01*
X140884218Y-95850849D01*
X140754011Y-95691200D01*
X140707812Y-95652981D01*
X140599002Y-95562965D01*
X140599000Y-95562964D01*
X140595275Y-95559882D01*
X140414055Y-95461897D01*
X140350855Y-95442333D01*
X140221875Y-95402407D01*
X140221871Y-95402406D01*
X140217254Y-95400977D01*
X140212446Y-95400472D01*
X140212443Y-95400471D01*
X140017185Y-95379949D01*
X140017183Y-95379949D01*
X140012369Y-95379443D01*
X139952354Y-95384905D01*
X139812022Y-95397675D01*
X139812017Y-95397676D01*
X139807203Y-95398114D01*
X139609572Y-95456280D01*
X139605288Y-95458519D01*
X139605287Y-95458520D01*
X139594428Y-95464197D01*
X139427002Y-95551726D01*
X139423231Y-95554758D01*
X139270220Y-95677781D01*
X139270217Y-95677783D01*
X139266447Y-95680815D01*
X139263333Y-95684526D01*
X139263332Y-95684527D01*
X139160196Y-95807440D01*
X139134024Y-95838630D01*
X139131689Y-95842878D01*
X139131688Y-95842879D01*
X139124955Y-95855126D01*
X139034776Y-96019162D01*
X139033313Y-96023775D01*
X139033311Y-96023779D01*
X139013206Y-96087159D01*
X138972484Y-96215532D01*
X138971944Y-96220344D01*
X138971944Y-96220345D01*
X138952193Y-96396434D01*
X138949520Y-96420262D01*
X136170000Y-96420262D01*
X136170000Y-95260000D01*
X161924318Y-95260000D01*
X161944956Y-95416762D01*
X162005464Y-95562841D01*
X162101718Y-95688282D01*
X162227159Y-95784536D01*
X162373238Y-95845044D01*
X162530000Y-95865682D01*
X162686762Y-95845044D01*
X162832841Y-95784536D01*
X162958282Y-95688282D01*
X163018350Y-95610000D01*
X164084318Y-95610000D01*
X164104956Y-95766762D01*
X164165464Y-95912841D01*
X164261718Y-96038282D01*
X164387159Y-96134536D01*
X164533238Y-96195044D01*
X164690000Y-96215682D01*
X164846762Y-96195044D01*
X164992841Y-96134536D01*
X165019187Y-96114320D01*
X165079733Y-96067862D01*
X165137409Y-96047438D01*
X165200267Y-96067862D01*
X165260813Y-96114320D01*
X165287159Y-96134536D01*
X165433238Y-96195044D01*
X165590000Y-96215682D01*
X165746762Y-96195044D01*
X165892841Y-96134536D01*
X165919187Y-96114320D01*
X165979733Y-96067862D01*
X166037409Y-96047438D01*
X166100267Y-96067862D01*
X166160813Y-96114320D01*
X166187159Y-96134536D01*
X166333238Y-96195044D01*
X166490000Y-96215682D01*
X166646762Y-96195044D01*
X166792841Y-96134536D01*
X166819187Y-96114320D01*
X166879733Y-96067862D01*
X166937409Y-96047438D01*
X167000267Y-96067862D01*
X167060813Y-96114320D01*
X167087159Y-96134536D01*
X167233238Y-96195044D01*
X167390000Y-96215682D01*
X167546762Y-96195044D01*
X167692841Y-96134536D01*
X167804734Y-96048678D01*
X167862408Y-96028254D01*
X167925266Y-96048678D01*
X168037159Y-96134536D01*
X168183238Y-96195044D01*
X168340000Y-96215682D01*
X168496762Y-96195044D01*
X168642841Y-96134536D01*
X168768282Y-96038282D01*
X168864536Y-95912841D01*
X168925044Y-95766762D01*
X168945682Y-95610000D01*
X168925044Y-95453238D01*
X168864536Y-95307159D01*
X168768282Y-95181718D01*
X168642841Y-95085464D01*
X168496762Y-95024956D01*
X168340000Y-95004318D01*
X168183238Y-95024956D01*
X168037159Y-95085464D01*
X167925266Y-95171322D01*
X167867592Y-95191746D01*
X167804734Y-95171322D01*
X167692841Y-95085464D01*
X167546762Y-95024956D01*
X167390000Y-95004318D01*
X167233238Y-95024956D01*
X167087159Y-95085464D01*
X167082010Y-95089415D01*
X167000267Y-95152138D01*
X166942591Y-95172562D01*
X166879733Y-95152138D01*
X166797990Y-95089415D01*
X166792841Y-95085464D01*
X166646762Y-95024956D01*
X166490000Y-95004318D01*
X166333238Y-95024956D01*
X166187159Y-95085464D01*
X166182010Y-95089415D01*
X166100267Y-95152138D01*
X166042591Y-95172562D01*
X165979733Y-95152138D01*
X165897990Y-95089415D01*
X165892841Y-95085464D01*
X165746762Y-95024956D01*
X165590000Y-95004318D01*
X165433238Y-95024956D01*
X165287159Y-95085464D01*
X165282010Y-95089415D01*
X165200267Y-95152138D01*
X165142591Y-95172562D01*
X165079733Y-95152138D01*
X164997990Y-95089415D01*
X164992841Y-95085464D01*
X164846762Y-95024956D01*
X164690000Y-95004318D01*
X164533238Y-95024956D01*
X164387159Y-95085464D01*
X164261718Y-95181718D01*
X164165464Y-95307159D01*
X164104956Y-95453238D01*
X164084318Y-95610000D01*
X163018350Y-95610000D01*
X163054536Y-95562841D01*
X163115044Y-95416762D01*
X163135682Y-95260000D01*
X163115044Y-95103238D01*
X163054536Y-94957159D01*
X162958282Y-94831718D01*
X162832841Y-94735464D01*
X162686762Y-94674956D01*
X162530000Y-94654318D01*
X162373238Y-94674956D01*
X162227159Y-94735464D01*
X162101718Y-94831718D01*
X162005464Y-94957159D01*
X161944956Y-95103238D01*
X161924318Y-95260000D01*
X136170000Y-95260000D01*
X136170000Y-94759840D01*
X138955000Y-94759840D01*
X138955948Y-94769462D01*
X138964702Y-94813474D01*
X138972021Y-94831142D01*
X139005389Y-94881082D01*
X139018918Y-94894611D01*
X139068858Y-94927979D01*
X139086526Y-94935298D01*
X139130538Y-94944052D01*
X139140160Y-94945000D01*
X139539320Y-94945000D01*
X139552005Y-94940878D01*
X139555000Y-94936757D01*
X139555000Y-94929320D01*
X140455000Y-94929320D01*
X140459122Y-94942005D01*
X140463243Y-94945000D01*
X140869840Y-94945000D01*
X140879462Y-94944052D01*
X140923474Y-94935298D01*
X140941142Y-94927979D01*
X140991082Y-94894611D01*
X141004611Y-94881082D01*
X141037979Y-94831142D01*
X141045298Y-94813474D01*
X141054052Y-94769462D01*
X141055000Y-94759840D01*
X141055000Y-94360680D01*
X141050878Y-94347995D01*
X141046757Y-94345000D01*
X140470680Y-94345000D01*
X140457995Y-94349122D01*
X140455000Y-94353243D01*
X140455000Y-94929320D01*
X139555000Y-94929320D01*
X139555000Y-94360680D01*
X139550878Y-94347995D01*
X139546757Y-94345000D01*
X138970680Y-94345000D01*
X138957995Y-94349122D01*
X138955000Y-94353243D01*
X138955000Y-94759840D01*
X136170000Y-94759840D01*
X136170000Y-93880262D01*
X141489520Y-93880262D01*
X141490758Y-93895000D01*
X141502333Y-94032841D01*
X141506759Y-94085553D01*
X141563544Y-94283586D01*
X141657712Y-94466818D01*
X141785677Y-94628270D01*
X141789357Y-94631402D01*
X141789359Y-94631404D01*
X141902017Y-94727283D01*
X141942564Y-94761791D01*
X141946787Y-94764151D01*
X141946791Y-94764154D01*
X142060609Y-94827764D01*
X142122398Y-94862297D01*
X142126996Y-94863791D01*
X142313724Y-94924463D01*
X142313726Y-94924464D01*
X142318329Y-94925959D01*
X142522894Y-94950351D01*
X142527716Y-94949980D01*
X142527719Y-94949980D01*
X142604757Y-94944052D01*
X142728300Y-94934546D01*
X142926725Y-94879145D01*
X142931038Y-94876966D01*
X142931044Y-94876964D01*
X143106289Y-94788441D01*
X143106291Y-94788440D01*
X143110610Y-94786258D01*
X143178802Y-94732981D01*
X143269135Y-94662406D01*
X143269139Y-94662402D01*
X143272951Y-94659424D01*
X143276628Y-94655165D01*
X143332313Y-94590651D01*
X143407564Y-94503472D01*
X143426231Y-94470613D01*
X143506934Y-94328550D01*
X143506935Y-94328547D01*
X143509323Y-94324344D01*
X143522882Y-94283586D01*
X143572824Y-94133454D01*
X143572824Y-94133452D01*
X143574351Y-94128863D01*
X143580129Y-94083129D01*
X143595324Y-93962841D01*
X143600171Y-93924474D01*
X143600583Y-93895000D01*
X143580480Y-93689970D01*
X143571432Y-93660000D01*
X161874318Y-93660000D01*
X161894956Y-93816762D01*
X161955464Y-93962841D01*
X162051718Y-94088282D01*
X162177159Y-94184536D01*
X162323238Y-94245044D01*
X162480000Y-94265682D01*
X162636762Y-94245044D01*
X162782841Y-94184536D01*
X162855396Y-94128863D01*
X162869733Y-94117862D01*
X162927409Y-94097438D01*
X162990267Y-94117862D01*
X163004604Y-94128863D01*
X163077159Y-94184536D01*
X163223238Y-94245044D01*
X163380000Y-94265682D01*
X163536762Y-94245044D01*
X163682841Y-94184536D01*
X163808282Y-94088282D01*
X163904536Y-93962841D01*
X163965044Y-93816762D01*
X163976466Y-93730000D01*
X171684318Y-93730000D01*
X171704956Y-93886762D01*
X171765464Y-94032841D01*
X171861718Y-94158282D01*
X171987159Y-94254536D01*
X172133238Y-94315044D01*
X172290000Y-94335682D01*
X172446762Y-94315044D01*
X172592841Y-94254536D01*
X172718282Y-94158282D01*
X172814536Y-94032841D01*
X172875044Y-93886762D01*
X172895682Y-93730000D01*
X172875044Y-93573238D01*
X172814536Y-93427159D01*
X172718282Y-93301718D01*
X172592841Y-93205464D01*
X172546971Y-93186464D01*
X172500446Y-93146727D01*
X172486162Y-93087233D01*
X172509577Y-93030705D01*
X172546971Y-93003536D01*
X172559655Y-92998282D01*
X172592841Y-92984536D01*
X172718282Y-92888282D01*
X172814536Y-92762841D01*
X172875044Y-92616762D01*
X172895682Y-92460000D01*
X172875044Y-92303238D01*
X172814536Y-92157159D01*
X172718282Y-92031718D01*
X172592841Y-91935464D01*
X172446762Y-91874956D01*
X172290000Y-91854318D01*
X172133238Y-91874956D01*
X171987159Y-91935464D01*
X171861718Y-92031718D01*
X171765464Y-92157159D01*
X171704956Y-92303238D01*
X171684318Y-92460000D01*
X171704956Y-92616762D01*
X171765464Y-92762841D01*
X171861718Y-92888282D01*
X171987159Y-92984536D01*
X172020345Y-92998282D01*
X172033029Y-93003536D01*
X172079554Y-93043273D01*
X172093838Y-93102767D01*
X172070423Y-93159295D01*
X172033029Y-93186464D01*
X171987159Y-93205464D01*
X171861718Y-93301718D01*
X171765464Y-93427159D01*
X171704956Y-93573238D01*
X171684318Y-93730000D01*
X163976466Y-93730000D01*
X163985682Y-93660000D01*
X163965044Y-93503238D01*
X163904536Y-93357159D01*
X163808282Y-93231718D01*
X163682841Y-93135464D01*
X163536762Y-93074956D01*
X163380000Y-93054318D01*
X163223238Y-93074956D01*
X163077159Y-93135464D01*
X163072010Y-93139415D01*
X162990267Y-93202138D01*
X162932591Y-93222562D01*
X162869733Y-93202138D01*
X162787990Y-93139415D01*
X162782841Y-93135464D01*
X162636762Y-93074956D01*
X162480000Y-93054318D01*
X162323238Y-93074956D01*
X162177159Y-93135464D01*
X162051718Y-93231718D01*
X161955464Y-93357159D01*
X161894956Y-93503238D01*
X161874318Y-93660000D01*
X143571432Y-93660000D01*
X143522333Y-93497380D01*
X143520935Y-93492749D01*
X143424218Y-93310849D01*
X143294011Y-93151200D01*
X143281458Y-93140815D01*
X143139002Y-93022965D01*
X143139000Y-93022964D01*
X143135275Y-93019882D01*
X142954055Y-92921897D01*
X142890855Y-92902333D01*
X142761875Y-92862407D01*
X142761871Y-92862406D01*
X142757254Y-92860977D01*
X142752446Y-92860472D01*
X142752443Y-92860471D01*
X142557185Y-92839949D01*
X142557183Y-92839949D01*
X142552369Y-92839443D01*
X142492354Y-92844905D01*
X142352022Y-92857675D01*
X142352017Y-92857676D01*
X142347203Y-92858114D01*
X142149572Y-92916280D01*
X142145288Y-92918519D01*
X142145287Y-92918520D01*
X142134428Y-92924197D01*
X141967002Y-93011726D01*
X141963231Y-93014758D01*
X141810220Y-93137781D01*
X141810217Y-93137783D01*
X141806447Y-93140815D01*
X141803333Y-93144526D01*
X141803332Y-93144527D01*
X141748885Y-93209415D01*
X141674024Y-93298630D01*
X141671689Y-93302878D01*
X141671688Y-93302879D01*
X141664955Y-93315126D01*
X141574776Y-93479162D01*
X141573313Y-93483775D01*
X141573311Y-93483779D01*
X141565097Y-93509674D01*
X141512484Y-93675532D01*
X141511944Y-93680344D01*
X141511944Y-93680345D01*
X141496643Y-93816762D01*
X141489520Y-93880262D01*
X136170000Y-93880262D01*
X136170000Y-93429320D01*
X138955000Y-93429320D01*
X138959122Y-93442005D01*
X138963243Y-93445000D01*
X139539320Y-93445000D01*
X139552005Y-93440878D01*
X139555000Y-93436757D01*
X139555000Y-93429320D01*
X140455000Y-93429320D01*
X140459122Y-93442005D01*
X140463243Y-93445000D01*
X141039320Y-93445000D01*
X141052005Y-93440878D01*
X141055000Y-93436757D01*
X141055000Y-93030160D01*
X141054052Y-93020538D01*
X141045298Y-92976526D01*
X141037979Y-92958858D01*
X141004611Y-92908918D01*
X140991082Y-92895389D01*
X140941142Y-92862021D01*
X140923474Y-92854702D01*
X140879462Y-92845948D01*
X140869840Y-92845000D01*
X140470680Y-92845000D01*
X140457995Y-92849122D01*
X140455000Y-92853243D01*
X140455000Y-93429320D01*
X139555000Y-93429320D01*
X139555000Y-92860680D01*
X139550878Y-92847995D01*
X139546757Y-92845000D01*
X139140160Y-92845000D01*
X139130538Y-92845948D01*
X139086526Y-92854702D01*
X139068858Y-92862021D01*
X139018918Y-92895389D01*
X139005389Y-92908918D01*
X138972021Y-92958858D01*
X138964702Y-92976526D01*
X138955948Y-93020538D01*
X138955000Y-93030160D01*
X138955000Y-93429320D01*
X136170000Y-93429320D01*
X136170000Y-92570000D01*
X144684318Y-92570000D01*
X144704956Y-92726762D01*
X144765464Y-92872841D01*
X144861718Y-92998282D01*
X144987159Y-93094536D01*
X145133238Y-93155044D01*
X145290000Y-93175682D01*
X145446762Y-93155044D01*
X145592841Y-93094536D01*
X145718282Y-92998282D01*
X145814536Y-92872841D01*
X145875044Y-92726762D01*
X145895682Y-92570000D01*
X145875044Y-92413238D01*
X145814536Y-92267159D01*
X145718282Y-92141718D01*
X145592841Y-92045464D01*
X145446762Y-91984956D01*
X145290000Y-91964318D01*
X145133238Y-91984956D01*
X144987159Y-92045464D01*
X144861718Y-92141718D01*
X144765464Y-92267159D01*
X144704956Y-92413238D01*
X144684318Y-92570000D01*
X136170000Y-92570000D01*
X136170000Y-91170000D01*
X145534318Y-91170000D01*
X145554956Y-91326762D01*
X145615464Y-91472841D01*
X145711718Y-91598282D01*
X145837159Y-91694536D01*
X145983238Y-91755044D01*
X146140000Y-91775682D01*
X146296762Y-91755044D01*
X146442841Y-91694536D01*
X146568282Y-91598282D01*
X146664536Y-91472841D01*
X146694708Y-91400000D01*
X155614318Y-91400000D01*
X155634956Y-91556762D01*
X155695464Y-91702841D01*
X155791718Y-91828282D01*
X155917159Y-91924536D01*
X156063238Y-91985044D01*
X156220000Y-92005682D01*
X156376762Y-91985044D01*
X156522841Y-91924536D01*
X156648282Y-91828282D01*
X156744536Y-91702841D01*
X156805044Y-91556762D01*
X156825682Y-91400000D01*
X156805044Y-91243238D01*
X156744536Y-91097159D01*
X156648282Y-90971718D01*
X156522841Y-90875464D01*
X156376762Y-90814956D01*
X156220000Y-90794318D01*
X156063238Y-90814956D01*
X155917159Y-90875464D01*
X155791718Y-90971718D01*
X155695464Y-91097159D01*
X155634956Y-91243238D01*
X155614318Y-91400000D01*
X146694708Y-91400000D01*
X146725044Y-91326762D01*
X146745682Y-91170000D01*
X146725044Y-91013238D01*
X146664536Y-90867159D01*
X146568282Y-90741718D01*
X146442841Y-90645464D01*
X146296762Y-90584956D01*
X146140000Y-90564318D01*
X145983238Y-90584956D01*
X145837159Y-90645464D01*
X145711718Y-90741718D01*
X145615464Y-90867159D01*
X145554956Y-91013238D01*
X145534318Y-91170000D01*
X136170000Y-91170000D01*
X136170000Y-90170000D01*
X156364318Y-90170000D01*
X156384956Y-90326762D01*
X156445464Y-90472841D01*
X156541718Y-90598282D01*
X156667159Y-90694536D01*
X156813238Y-90755044D01*
X156970000Y-90775682D01*
X157126762Y-90755044D01*
X157272841Y-90694536D01*
X157398282Y-90598282D01*
X157419983Y-90570000D01*
X174654318Y-90570000D01*
X174674956Y-90726762D01*
X174735464Y-90872841D01*
X174831718Y-90998282D01*
X174957159Y-91094536D01*
X175103238Y-91155044D01*
X175260000Y-91175682D01*
X175416762Y-91155044D01*
X175562841Y-91094536D01*
X175688282Y-90998282D01*
X175784536Y-90872841D01*
X175845044Y-90726762D01*
X175865682Y-90570000D01*
X175845044Y-90413238D01*
X175784536Y-90267159D01*
X175688282Y-90141718D01*
X175562841Y-90045464D01*
X175416762Y-89984956D01*
X175260000Y-89964318D01*
X175103238Y-89984956D01*
X174957159Y-90045464D01*
X174831718Y-90141718D01*
X174735464Y-90267159D01*
X174674956Y-90413238D01*
X174654318Y-90570000D01*
X157419983Y-90570000D01*
X157494536Y-90472841D01*
X157555044Y-90326762D01*
X157575682Y-90170000D01*
X157555044Y-90013238D01*
X157494536Y-89867159D01*
X157398282Y-89741718D01*
X157272841Y-89645464D01*
X157126762Y-89584956D01*
X156970000Y-89564318D01*
X156813238Y-89584956D01*
X156667159Y-89645464D01*
X156541718Y-89741718D01*
X156445464Y-89867159D01*
X156384956Y-90013238D01*
X156364318Y-90170000D01*
X136170000Y-90170000D01*
X136170000Y-89380000D01*
X141034318Y-89380000D01*
X141054956Y-89536762D01*
X141115464Y-89682841D01*
X141211718Y-89808282D01*
X141337159Y-89904536D01*
X141483238Y-89965044D01*
X141640000Y-89985682D01*
X141796762Y-89965044D01*
X141942841Y-89904536D01*
X142068282Y-89808282D01*
X142164536Y-89682841D01*
X142225044Y-89536762D01*
X142245682Y-89380000D01*
X142225044Y-89223238D01*
X142164536Y-89077159D01*
X142143696Y-89050000D01*
X159164318Y-89050000D01*
X159184956Y-89206762D01*
X159245464Y-89352841D01*
X159341718Y-89478282D01*
X159467159Y-89574536D01*
X159613238Y-89635044D01*
X159770000Y-89655682D01*
X159926762Y-89635044D01*
X160072841Y-89574536D01*
X160198282Y-89478282D01*
X160294536Y-89352841D01*
X160355044Y-89206762D01*
X160375682Y-89050000D01*
X160355044Y-88893238D01*
X160294536Y-88747159D01*
X160198282Y-88621718D01*
X160072841Y-88525464D01*
X159926762Y-88464956D01*
X159770000Y-88444318D01*
X159613238Y-88464956D01*
X159467159Y-88525464D01*
X159341718Y-88621718D01*
X159245464Y-88747159D01*
X159184956Y-88893238D01*
X159164318Y-89050000D01*
X142143696Y-89050000D01*
X142068282Y-88951718D01*
X141942841Y-88855464D01*
X141796762Y-88794956D01*
X141640000Y-88774318D01*
X141483238Y-88794956D01*
X141337159Y-88855464D01*
X141211718Y-88951718D01*
X141115464Y-89077159D01*
X141054956Y-89223238D01*
X141034318Y-89380000D01*
X136170000Y-89380000D01*
X136170000Y-87960000D01*
X156211818Y-87960000D01*
X156232456Y-88116762D01*
X156292964Y-88262841D01*
X156389218Y-88388282D01*
X156514659Y-88484536D01*
X156660738Y-88545044D01*
X156817500Y-88565682D01*
X156974262Y-88545044D01*
X157120341Y-88484536D01*
X157245782Y-88388282D01*
X157259810Y-88370000D01*
X160724318Y-88370000D01*
X160744956Y-88526762D01*
X160747440Y-88532759D01*
X160756671Y-88555046D01*
X160805464Y-88672841D01*
X160901718Y-88798282D01*
X161027159Y-88894536D01*
X161173238Y-88955044D01*
X161330000Y-88975682D01*
X161486762Y-88955044D01*
X161498939Y-88950000D01*
X174914318Y-88950000D01*
X174934956Y-89106762D01*
X174995464Y-89252841D01*
X175091718Y-89378282D01*
X175217159Y-89474536D01*
X175363238Y-89535044D01*
X175520000Y-89555682D01*
X175676762Y-89535044D01*
X175822841Y-89474536D01*
X175948282Y-89378282D01*
X176044536Y-89252841D01*
X176105044Y-89106762D01*
X176125682Y-88950000D01*
X176105044Y-88793238D01*
X176044536Y-88647159D01*
X175948282Y-88521718D01*
X175822841Y-88425464D01*
X175676762Y-88364956D01*
X175520000Y-88344318D01*
X175363238Y-88364956D01*
X175217159Y-88425464D01*
X175091718Y-88521718D01*
X174995464Y-88647159D01*
X174934956Y-88793238D01*
X174914318Y-88950000D01*
X161498939Y-88950000D01*
X161632841Y-88894536D01*
X161758282Y-88798282D01*
X161854536Y-88672841D01*
X161903329Y-88555046D01*
X161912560Y-88532759D01*
X161915044Y-88526762D01*
X161935682Y-88370000D01*
X161915044Y-88213238D01*
X161854536Y-88067159D01*
X161758282Y-87941718D01*
X161632841Y-87845464D01*
X161486762Y-87784956D01*
X161330000Y-87764318D01*
X161173238Y-87784956D01*
X161027159Y-87845464D01*
X160901718Y-87941718D01*
X160805464Y-88067159D01*
X160744956Y-88213238D01*
X160724318Y-88370000D01*
X157259810Y-88370000D01*
X157342036Y-88262841D01*
X157402544Y-88116762D01*
X157423182Y-87960000D01*
X157402544Y-87803238D01*
X157394621Y-87784109D01*
X157345566Y-87665682D01*
X157342036Y-87657159D01*
X157245782Y-87531718D01*
X157120341Y-87435464D01*
X156974262Y-87374956D01*
X156817500Y-87354318D01*
X156660738Y-87374956D01*
X156514659Y-87435464D01*
X156389218Y-87531718D01*
X156292964Y-87657159D01*
X156289434Y-87665682D01*
X156240380Y-87784109D01*
X156232456Y-87803238D01*
X156211818Y-87960000D01*
X136170000Y-87960000D01*
X136170000Y-87060000D01*
X148461818Y-87060000D01*
X148482456Y-87216762D01*
X148542964Y-87362841D01*
X148639218Y-87488282D01*
X148764659Y-87584536D01*
X148910738Y-87645044D01*
X149067500Y-87665682D01*
X149224262Y-87645044D01*
X149370341Y-87584536D01*
X149495782Y-87488282D01*
X149592036Y-87362841D01*
X149652544Y-87216762D01*
X149662650Y-87140000D01*
X167784818Y-87140000D01*
X167805456Y-87296762D01*
X167865964Y-87442841D01*
X167962218Y-87568282D01*
X168087659Y-87664536D01*
X168233738Y-87725044D01*
X168390500Y-87745682D01*
X168547262Y-87725044D01*
X168693341Y-87664536D01*
X168818782Y-87568282D01*
X168915036Y-87442841D01*
X168975544Y-87296762D01*
X168996182Y-87140000D01*
X168975544Y-86983238D01*
X168915036Y-86837159D01*
X168818782Y-86711718D01*
X168693341Y-86615464D01*
X168547262Y-86554956D01*
X168390500Y-86534318D01*
X168233738Y-86554956D01*
X168087659Y-86615464D01*
X167962218Y-86711718D01*
X167865964Y-86837159D01*
X167805456Y-86983238D01*
X167784818Y-87140000D01*
X149662650Y-87140000D01*
X149673182Y-87060000D01*
X149652544Y-86903238D01*
X149592036Y-86757159D01*
X149495782Y-86631718D01*
X149370341Y-86535464D01*
X149224262Y-86474956D01*
X149067500Y-86454318D01*
X148910738Y-86474956D01*
X148764659Y-86535464D01*
X148639218Y-86631718D01*
X148542964Y-86757159D01*
X148482456Y-86903238D01*
X148461818Y-87060000D01*
X136170000Y-87060000D01*
X136170000Y-85240000D01*
X146281818Y-85240000D01*
X146302456Y-85396762D01*
X146362964Y-85542841D01*
X146459218Y-85668282D01*
X146584659Y-85764536D01*
X146730738Y-85825044D01*
X146887500Y-85845682D01*
X146930659Y-85840000D01*
X170874318Y-85840000D01*
X170894956Y-85996762D01*
X170955464Y-86142841D01*
X171051718Y-86268282D01*
X171177159Y-86364536D01*
X171323238Y-86425044D01*
X171480000Y-86445682D01*
X171636762Y-86425044D01*
X171782841Y-86364536D01*
X171866946Y-86300000D01*
X178254318Y-86300000D01*
X178274956Y-86456762D01*
X178335464Y-86602841D01*
X178431718Y-86728282D01*
X178557159Y-86824536D01*
X178703238Y-86885044D01*
X178860000Y-86905682D01*
X179016762Y-86885044D01*
X179162841Y-86824536D01*
X179288282Y-86728282D01*
X179384536Y-86602841D01*
X179445044Y-86456762D01*
X179465682Y-86300000D01*
X179954318Y-86300000D01*
X179974956Y-86456762D01*
X180035464Y-86602841D01*
X180131718Y-86728282D01*
X180257159Y-86824536D01*
X180403238Y-86885044D01*
X180560000Y-86905682D01*
X180716762Y-86885044D01*
X180862841Y-86824536D01*
X180988282Y-86728282D01*
X181084536Y-86602841D01*
X181145044Y-86456762D01*
X181165682Y-86300000D01*
X181604318Y-86300000D01*
X181624956Y-86456762D01*
X181685464Y-86602841D01*
X181781718Y-86728282D01*
X181907159Y-86824536D01*
X182053238Y-86885044D01*
X182210000Y-86905682D01*
X182366762Y-86885044D01*
X182512841Y-86824536D01*
X182638282Y-86728282D01*
X182734536Y-86602841D01*
X182795044Y-86456762D01*
X182815682Y-86300000D01*
X183254318Y-86300000D01*
X183274956Y-86456762D01*
X183335464Y-86602841D01*
X183431718Y-86728282D01*
X183557159Y-86824536D01*
X183703238Y-86885044D01*
X183860000Y-86905682D01*
X184016762Y-86885044D01*
X184162841Y-86824536D01*
X184288282Y-86728282D01*
X184384536Y-86602841D01*
X184445044Y-86456762D01*
X184465682Y-86300000D01*
X184445044Y-86143238D01*
X184384536Y-85997159D01*
X184288282Y-85871718D01*
X184162841Y-85775464D01*
X184016762Y-85714956D01*
X183860000Y-85694318D01*
X183703238Y-85714956D01*
X183557159Y-85775464D01*
X183431718Y-85871718D01*
X183335464Y-85997159D01*
X183274956Y-86143238D01*
X183254318Y-86300000D01*
X182815682Y-86300000D01*
X182795044Y-86143238D01*
X182734536Y-85997159D01*
X182638282Y-85871718D01*
X182512841Y-85775464D01*
X182366762Y-85714956D01*
X182210000Y-85694318D01*
X182053238Y-85714956D01*
X181907159Y-85775464D01*
X181781718Y-85871718D01*
X181685464Y-85997159D01*
X181624956Y-86143238D01*
X181604318Y-86300000D01*
X181165682Y-86300000D01*
X181145044Y-86143238D01*
X181084536Y-85997159D01*
X180988282Y-85871718D01*
X180862841Y-85775464D01*
X180716762Y-85714956D01*
X180560000Y-85694318D01*
X180403238Y-85714956D01*
X180257159Y-85775464D01*
X180131718Y-85871718D01*
X180035464Y-85997159D01*
X179974956Y-86143238D01*
X179954318Y-86300000D01*
X179465682Y-86300000D01*
X179445044Y-86143238D01*
X179384536Y-85997159D01*
X179288282Y-85871718D01*
X179162841Y-85775464D01*
X179016762Y-85714956D01*
X178860000Y-85694318D01*
X178703238Y-85714956D01*
X178557159Y-85775464D01*
X178431718Y-85871718D01*
X178335464Y-85997159D01*
X178274956Y-86143238D01*
X178254318Y-86300000D01*
X171866946Y-86300000D01*
X171908282Y-86268282D01*
X172004536Y-86142841D01*
X172065044Y-85996762D01*
X172085682Y-85840000D01*
X172065044Y-85683238D01*
X172004536Y-85537159D01*
X171908282Y-85411718D01*
X171782841Y-85315464D01*
X171636762Y-85254956D01*
X171480000Y-85234318D01*
X171323238Y-85254956D01*
X171177159Y-85315464D01*
X171051718Y-85411718D01*
X170955464Y-85537159D01*
X170894956Y-85683238D01*
X170874318Y-85840000D01*
X146930659Y-85840000D01*
X147044262Y-85825044D01*
X147190341Y-85764536D01*
X147315782Y-85668282D01*
X147412036Y-85542841D01*
X147472544Y-85396762D01*
X147493182Y-85240000D01*
X147472544Y-85083238D01*
X147412036Y-84937159D01*
X147315782Y-84811718D01*
X147190341Y-84715464D01*
X147044262Y-84654956D01*
X146887500Y-84634318D01*
X146730738Y-84654956D01*
X146584659Y-84715464D01*
X146459218Y-84811718D01*
X146362964Y-84937159D01*
X146302456Y-85083238D01*
X146281818Y-85240000D01*
X136170000Y-85240000D01*
X136170000Y-83950000D01*
X168614318Y-83950000D01*
X168634956Y-84106762D01*
X168695464Y-84252841D01*
X168791718Y-84378282D01*
X168917159Y-84474536D01*
X169063238Y-84535044D01*
X169220000Y-84555682D01*
X169376762Y-84535044D01*
X169522841Y-84474536D01*
X169648282Y-84378282D01*
X169744536Y-84252841D01*
X169805044Y-84106762D01*
X169825682Y-83950000D01*
X169805044Y-83793238D01*
X169744536Y-83647159D01*
X169648282Y-83521718D01*
X169522841Y-83425464D01*
X169376762Y-83364956D01*
X169220000Y-83344318D01*
X169063238Y-83364956D01*
X168917159Y-83425464D01*
X168791718Y-83521718D01*
X168695464Y-83647159D01*
X168634956Y-83793238D01*
X168614318Y-83950000D01*
X136170000Y-83950000D01*
X136170000Y-83330000D01*
X153011818Y-83330000D01*
X153032456Y-83486762D01*
X153092964Y-83632841D01*
X153189218Y-83758282D01*
X153314659Y-83854536D01*
X153460738Y-83915044D01*
X153617500Y-83935682D01*
X153774262Y-83915044D01*
X153920341Y-83854536D01*
X154045782Y-83758282D01*
X154142036Y-83632841D01*
X154202544Y-83486762D01*
X154223182Y-83330000D01*
X154202544Y-83173238D01*
X154142036Y-83027159D01*
X154045782Y-82901718D01*
X153920341Y-82805464D01*
X153774262Y-82744956D01*
X153617500Y-82724318D01*
X153460738Y-82744956D01*
X153314659Y-82805464D01*
X153189218Y-82901718D01*
X153092964Y-83027159D01*
X153032456Y-83173238D01*
X153011818Y-83330000D01*
X136170000Y-83330000D01*
X136170000Y-81957500D01*
X160704318Y-81957500D01*
X160724956Y-82114262D01*
X160785464Y-82260341D01*
X160881718Y-82385782D01*
X161007159Y-82482036D01*
X161153238Y-82542544D01*
X161310000Y-82563182D01*
X161466762Y-82542544D01*
X161612841Y-82482036D01*
X161738282Y-82385782D01*
X161834536Y-82260341D01*
X161872992Y-82167499D01*
X165174318Y-82167499D01*
X165194956Y-82324261D01*
X165255464Y-82470340D01*
X165351718Y-82595781D01*
X165477159Y-82692035D01*
X165623238Y-82752543D01*
X165780000Y-82773181D01*
X165936762Y-82752543D01*
X166082841Y-82692035D01*
X166208282Y-82595781D01*
X166304536Y-82470340D01*
X166365044Y-82324261D01*
X166385682Y-82167499D01*
X166365044Y-82010737D01*
X166304536Y-81864658D01*
X166208282Y-81739217D01*
X166082841Y-81642963D01*
X165936762Y-81582455D01*
X165780000Y-81561817D01*
X165623238Y-81582455D01*
X165477159Y-81642963D01*
X165351718Y-81739217D01*
X165255464Y-81864658D01*
X165194956Y-82010737D01*
X165174318Y-82167499D01*
X161872992Y-82167499D01*
X161895044Y-82114262D01*
X161915682Y-81957500D01*
X161895044Y-81800738D01*
X161834536Y-81654659D01*
X161738282Y-81529218D01*
X161612841Y-81432964D01*
X161466762Y-81372456D01*
X161310000Y-81351818D01*
X161153238Y-81372456D01*
X161007159Y-81432964D01*
X160881718Y-81529218D01*
X160785464Y-81654659D01*
X160724956Y-81800738D01*
X160704318Y-81957500D01*
X136170000Y-81957500D01*
X136170000Y-80660000D01*
X138551818Y-80660000D01*
X138572456Y-80816762D01*
X138632964Y-80962841D01*
X138729218Y-81088282D01*
X138854659Y-81184536D01*
X139000738Y-81245044D01*
X139157500Y-81265682D01*
X139314262Y-81245044D01*
X139460341Y-81184536D01*
X139585782Y-81088282D01*
X139682036Y-80962841D01*
X139703923Y-80910000D01*
X143911818Y-80910000D01*
X143932456Y-81066762D01*
X143992964Y-81212841D01*
X144089218Y-81338282D01*
X144214659Y-81434536D01*
X144360738Y-81495044D01*
X144517500Y-81515682D01*
X144674262Y-81495044D01*
X144820341Y-81434536D01*
X144945782Y-81338282D01*
X145042036Y-81212841D01*
X145102544Y-81066762D01*
X145123182Y-80910000D01*
X145102544Y-80753238D01*
X145042036Y-80607159D01*
X144945782Y-80481718D01*
X144820341Y-80385464D01*
X144674262Y-80324956D01*
X144517500Y-80304318D01*
X144360738Y-80324956D01*
X144214659Y-80385464D01*
X144089218Y-80481718D01*
X143992964Y-80607159D01*
X143932456Y-80753238D01*
X143911818Y-80910000D01*
X139703923Y-80910000D01*
X139742544Y-80816762D01*
X139763182Y-80660000D01*
X139742544Y-80503238D01*
X139682036Y-80357159D01*
X139585782Y-80231718D01*
X139460341Y-80135464D01*
X139314262Y-80074956D01*
X139276617Y-80070000D01*
X156871818Y-80070000D01*
X156892456Y-80226762D01*
X156952964Y-80372841D01*
X157049218Y-80498282D01*
X157174659Y-80594536D01*
X157320738Y-80655044D01*
X157477500Y-80675682D01*
X157634262Y-80655044D01*
X157780341Y-80594536D01*
X157905782Y-80498282D01*
X158002036Y-80372841D01*
X158062544Y-80226762D01*
X158083182Y-80070000D01*
X158062544Y-79913238D01*
X158002036Y-79767159D01*
X157905782Y-79641718D01*
X157780341Y-79545464D01*
X157634262Y-79484956D01*
X157477500Y-79464318D01*
X157320738Y-79484956D01*
X157174659Y-79545464D01*
X157049218Y-79641718D01*
X156952964Y-79767159D01*
X156892456Y-79913238D01*
X156871818Y-80070000D01*
X139276617Y-80070000D01*
X139157500Y-80054318D01*
X139000738Y-80074956D01*
X138854659Y-80135464D01*
X138729218Y-80231718D01*
X138632964Y-80357159D01*
X138572456Y-80503238D01*
X138551818Y-80660000D01*
X136170000Y-80660000D01*
X136170000Y-78760000D01*
X137961818Y-78760000D01*
X137982456Y-78916762D01*
X138042964Y-79062841D01*
X138139218Y-79188282D01*
X138264659Y-79284536D01*
X138410738Y-79345044D01*
X138567500Y-79365682D01*
X138724262Y-79345044D01*
X138870341Y-79284536D01*
X138995782Y-79188282D01*
X139071196Y-79090000D01*
X175214318Y-79090000D01*
X175234956Y-79246762D01*
X175295464Y-79392841D01*
X175391718Y-79518282D01*
X175517159Y-79614536D01*
X175663238Y-79675044D01*
X175820000Y-79695682D01*
X175976762Y-79675044D01*
X176122841Y-79614536D01*
X176248282Y-79518282D01*
X176344536Y-79392841D01*
X176405044Y-79246762D01*
X176425682Y-79090000D01*
X176405044Y-78933238D01*
X176344536Y-78787159D01*
X176248282Y-78661718D01*
X176122841Y-78565464D01*
X175976762Y-78504956D01*
X175820000Y-78484318D01*
X175663238Y-78504956D01*
X175517159Y-78565464D01*
X175391718Y-78661718D01*
X175295464Y-78787159D01*
X175234956Y-78933238D01*
X175214318Y-79090000D01*
X139071196Y-79090000D01*
X139092036Y-79062841D01*
X139152544Y-78916762D01*
X139173182Y-78760000D01*
X139152544Y-78603238D01*
X139092036Y-78457159D01*
X138995782Y-78331718D01*
X138870341Y-78235464D01*
X138724262Y-78174956D01*
X138567500Y-78154318D01*
X138410738Y-78174956D01*
X138264659Y-78235464D01*
X138139218Y-78331718D01*
X138042964Y-78457159D01*
X137982456Y-78603238D01*
X137961818Y-78760000D01*
X136170000Y-78760000D01*
X136170000Y-78060000D01*
X156761818Y-78060000D01*
X156782456Y-78216762D01*
X156842964Y-78362841D01*
X156939218Y-78488282D01*
X157064659Y-78584536D01*
X157210738Y-78645044D01*
X157367500Y-78665682D01*
X157524262Y-78645044D01*
X157670341Y-78584536D01*
X157795782Y-78488282D01*
X157892036Y-78362841D01*
X157952544Y-78216762D01*
X157973182Y-78060000D01*
X157952544Y-77903238D01*
X157892036Y-77757159D01*
X157795782Y-77631718D01*
X157670341Y-77535464D01*
X157524262Y-77474956D01*
X157367500Y-77454318D01*
X157210738Y-77474956D01*
X157064659Y-77535464D01*
X156939218Y-77631718D01*
X156842964Y-77757159D01*
X156782456Y-77903238D01*
X156761818Y-78060000D01*
X136170000Y-78060000D01*
X136170000Y-76460000D01*
X142311818Y-76460000D01*
X142332456Y-76616762D01*
X142392964Y-76762841D01*
X142489218Y-76888282D01*
X142614659Y-76984536D01*
X142760738Y-77045044D01*
X142917500Y-77065682D01*
X143074262Y-77045044D01*
X143220341Y-76984536D01*
X143345782Y-76888282D01*
X143442036Y-76762841D01*
X143502544Y-76616762D01*
X143510017Y-76560000D01*
X156931818Y-76560000D01*
X156952456Y-76716762D01*
X157012964Y-76862841D01*
X157109218Y-76988282D01*
X157234659Y-77084536D01*
X157380738Y-77145044D01*
X157537500Y-77165682D01*
X157694262Y-77145044D01*
X157840341Y-77084536D01*
X157950511Y-77000000D01*
X163474318Y-77000000D01*
X163494956Y-77156762D01*
X163555464Y-77302841D01*
X163651718Y-77428282D01*
X163777159Y-77524536D01*
X163923238Y-77585044D01*
X164080000Y-77605682D01*
X164236762Y-77585044D01*
X164382841Y-77524536D01*
X164508282Y-77428282D01*
X164604536Y-77302841D01*
X164665044Y-77156762D01*
X164685682Y-77000000D01*
X164665044Y-76843238D01*
X164604536Y-76697159D01*
X164508282Y-76571718D01*
X164382841Y-76475464D01*
X164236762Y-76414956D01*
X164080000Y-76394318D01*
X163923238Y-76414956D01*
X163777159Y-76475464D01*
X163651718Y-76571718D01*
X163555464Y-76697159D01*
X163494956Y-76843238D01*
X163474318Y-77000000D01*
X157950511Y-77000000D01*
X157965782Y-76988282D01*
X158062036Y-76862841D01*
X158122544Y-76716762D01*
X158143182Y-76560000D01*
X158122544Y-76403238D01*
X158062036Y-76257159D01*
X157965782Y-76131718D01*
X157840341Y-76035464D01*
X157778866Y-76010000D01*
X161661818Y-76010000D01*
X161682456Y-76166762D01*
X161742964Y-76312841D01*
X161839218Y-76438282D01*
X161964659Y-76534536D01*
X162110738Y-76595044D01*
X162267500Y-76615682D01*
X162424262Y-76595044D01*
X162570341Y-76534536D01*
X162695782Y-76438282D01*
X162792036Y-76312841D01*
X162852544Y-76166762D01*
X162873182Y-76010000D01*
X162852544Y-75853238D01*
X162792036Y-75707159D01*
X162717483Y-75610000D01*
X169634318Y-75610000D01*
X169654956Y-75766762D01*
X169715464Y-75912841D01*
X169811718Y-76038282D01*
X169937159Y-76134536D01*
X170083238Y-76195044D01*
X170240000Y-76215682D01*
X170396762Y-76195044D01*
X170542841Y-76134536D01*
X170668282Y-76038282D01*
X170764536Y-75912841D01*
X170825044Y-75766762D01*
X170845682Y-75610000D01*
X170825044Y-75453238D01*
X170764536Y-75307159D01*
X170668282Y-75181718D01*
X170542841Y-75085464D01*
X170396762Y-75024956D01*
X170240000Y-75004318D01*
X170083238Y-75024956D01*
X169937159Y-75085464D01*
X169811718Y-75181718D01*
X169715464Y-75307159D01*
X169654956Y-75453238D01*
X169634318Y-75610000D01*
X162717483Y-75610000D01*
X162695782Y-75581718D01*
X162570341Y-75485464D01*
X162424262Y-75424956D01*
X162267500Y-75404318D01*
X162110738Y-75424956D01*
X161964659Y-75485464D01*
X161839218Y-75581718D01*
X161742964Y-75707159D01*
X161682456Y-75853238D01*
X161661818Y-76010000D01*
X157778866Y-76010000D01*
X157694262Y-75974956D01*
X157537500Y-75954318D01*
X157380738Y-75974956D01*
X157234659Y-76035464D01*
X157109218Y-76131718D01*
X157012964Y-76257159D01*
X156952456Y-76403238D01*
X156931818Y-76560000D01*
X143510017Y-76560000D01*
X143523182Y-76460000D01*
X143502544Y-76303238D01*
X143442036Y-76157159D01*
X143345782Y-76031718D01*
X143220341Y-75935464D01*
X143074262Y-75874956D01*
X142917500Y-75854318D01*
X142760738Y-75874956D01*
X142614659Y-75935464D01*
X142489218Y-76031718D01*
X142392964Y-76157159D01*
X142332456Y-76303238D01*
X142311818Y-76460000D01*
X136170000Y-76460000D01*
X136170000Y-75110000D01*
X153511818Y-75110000D01*
X153532456Y-75266762D01*
X153592964Y-75412841D01*
X153689218Y-75538282D01*
X153814659Y-75634536D01*
X153960738Y-75695044D01*
X154117500Y-75715682D01*
X154274262Y-75695044D01*
X154420341Y-75634536D01*
X154545782Y-75538282D01*
X154642036Y-75412841D01*
X154702544Y-75266762D01*
X154723182Y-75110000D01*
X154702544Y-74953238D01*
X154642036Y-74807159D01*
X154545782Y-74681718D01*
X154420341Y-74585464D01*
X154274262Y-74524956D01*
X154117500Y-74504318D01*
X153960738Y-74524956D01*
X153814659Y-74585464D01*
X153689218Y-74681718D01*
X153592964Y-74807159D01*
X153532456Y-74953238D01*
X153511818Y-75110000D01*
X136170000Y-75110000D01*
X136170000Y-73760000D01*
X140661818Y-73760000D01*
X140682456Y-73916762D01*
X140742964Y-74062841D01*
X140839218Y-74188282D01*
X140964659Y-74284536D01*
X141110738Y-74345044D01*
X141267500Y-74365682D01*
X141424262Y-74345044D01*
X141570341Y-74284536D01*
X141695782Y-74188282D01*
X141792036Y-74062841D01*
X141852544Y-73916762D01*
X141873182Y-73760000D01*
X141860017Y-73660000D01*
X145241818Y-73660000D01*
X145262456Y-73816762D01*
X145322964Y-73962841D01*
X145419218Y-74088282D01*
X145544659Y-74184536D01*
X145690738Y-74245044D01*
X145847500Y-74265682D01*
X146004262Y-74245044D01*
X146150341Y-74184536D01*
X146275782Y-74088282D01*
X146372036Y-73962841D01*
X146432544Y-73816762D01*
X146453182Y-73660000D01*
X146432544Y-73503238D01*
X146373213Y-73360000D01*
X157421818Y-73360000D01*
X157442456Y-73516762D01*
X157502964Y-73662841D01*
X157599218Y-73788282D01*
X157724659Y-73884536D01*
X157870738Y-73945044D01*
X158027500Y-73965682D01*
X158184262Y-73945044D01*
X158330341Y-73884536D01*
X158455782Y-73788282D01*
X158552036Y-73662841D01*
X158612544Y-73516762D01*
X158633182Y-73360000D01*
X158612544Y-73203238D01*
X158552036Y-73057159D01*
X158455782Y-72931718D01*
X158330341Y-72835464D01*
X158184262Y-72774956D01*
X158027500Y-72754318D01*
X157870738Y-72774956D01*
X157724659Y-72835464D01*
X157599218Y-72931718D01*
X157502964Y-73057159D01*
X157442456Y-73203238D01*
X157421818Y-73360000D01*
X146373213Y-73360000D01*
X146372036Y-73357159D01*
X146275782Y-73231718D01*
X146150341Y-73135464D01*
X146004262Y-73074956D01*
X145847500Y-73054318D01*
X145690738Y-73074956D01*
X145544659Y-73135464D01*
X145419218Y-73231718D01*
X145322964Y-73357159D01*
X145262456Y-73503238D01*
X145241818Y-73660000D01*
X141860017Y-73660000D01*
X141852544Y-73603238D01*
X141792036Y-73457159D01*
X141695782Y-73331718D01*
X141570341Y-73235464D01*
X141424262Y-73174956D01*
X141267500Y-73154318D01*
X141110738Y-73174956D01*
X140964659Y-73235464D01*
X140839218Y-73331718D01*
X140742964Y-73457159D01*
X140682456Y-73603238D01*
X140661818Y-73760000D01*
X136170000Y-73760000D01*
X136170000Y-71460000D01*
X143711818Y-71460000D01*
X143732456Y-71616762D01*
X143792964Y-71762841D01*
X143889218Y-71888282D01*
X144014659Y-71984536D01*
X144160738Y-72045044D01*
X144317500Y-72065682D01*
X144474262Y-72045044D01*
X144620341Y-71984536D01*
X144745782Y-71888282D01*
X144842036Y-71762841D01*
X144902544Y-71616762D01*
X144923182Y-71460000D01*
X144902544Y-71303238D01*
X144842036Y-71157159D01*
X144745782Y-71031718D01*
X144620341Y-70935464D01*
X144474262Y-70874956D01*
X144317500Y-70854318D01*
X144160738Y-70874956D01*
X144014659Y-70935464D01*
X143889218Y-71031718D01*
X143792964Y-71157159D01*
X143732456Y-71303238D01*
X143711818Y-71460000D01*
X136170000Y-71460000D01*
X136170000Y-70560000D01*
X149511818Y-70560000D01*
X149532456Y-70716762D01*
X149592964Y-70862841D01*
X149689218Y-70988282D01*
X149814659Y-71084536D01*
X149960738Y-71145044D01*
X150117500Y-71165682D01*
X150274262Y-71145044D01*
X150420341Y-71084536D01*
X150545782Y-70988282D01*
X150642036Y-70862841D01*
X150702544Y-70716762D01*
X150723182Y-70560000D01*
X150702544Y-70403238D01*
X150642036Y-70257159D01*
X150545782Y-70131718D01*
X150420341Y-70035464D01*
X150274262Y-69974956D01*
X150117500Y-69954318D01*
X149960738Y-69974956D01*
X149814659Y-70035464D01*
X149689218Y-70131718D01*
X149592964Y-70257159D01*
X149532456Y-70403238D01*
X149511818Y-70560000D01*
X136170000Y-70560000D01*
X136170000Y-67720000D01*
X170164318Y-67720000D01*
X170184956Y-67876762D01*
X170245464Y-68022841D01*
X170341718Y-68148282D01*
X170467159Y-68244536D01*
X170613238Y-68305044D01*
X170770000Y-68325682D01*
X170926762Y-68305044D01*
X171072841Y-68244536D01*
X171198282Y-68148282D01*
X171294536Y-68022841D01*
X171355044Y-67876762D01*
X171375682Y-67720000D01*
X171355044Y-67563238D01*
X171294536Y-67417159D01*
X171198282Y-67291718D01*
X171072841Y-67195464D01*
X170926762Y-67134956D01*
X170770000Y-67114318D01*
X170613238Y-67134956D01*
X170467159Y-67195464D01*
X170341718Y-67291718D01*
X170245464Y-67417159D01*
X170184956Y-67563238D01*
X170164318Y-67720000D01*
X136170000Y-67720000D01*
X136170000Y-66559752D01*
X136171902Y-66540439D01*
X136185188Y-66473644D01*
X136199970Y-66437956D01*
X136232282Y-66389597D01*
X136259597Y-66362282D01*
X136307956Y-66329970D01*
X136343644Y-66315188D01*
X136410439Y-66301902D01*
X136429752Y-66300000D01*
X184840248Y-66300000D01*
X184859561Y-66301902D01*
G37*
%TD.AperFunction*%
%TD*%
M02*
