%TF.GenerationSoftware,KiCad,Pcbnew,(6.0.8)*%
%TF.CreationDate,2022-10-25T21:38:08+02:00*%
%TF.ProjectId,stm_v3,73746d5f-7633-42e6-9b69-6361645f7063,rev?*%
%TF.SameCoordinates,Original*%
%TF.FileFunction,Paste,Top*%
%TF.FilePolarity,Positive*%
%FSLAX46Y46*%
G04 Gerber Fmt 4.6, Leading zero omitted, Abs format (unit mm)*
G04 Created by KiCad (PCBNEW (6.0.8)) date 2022-10-25 21:38:08*
%MOMM*%
%LPD*%
G01*
G04 APERTURE LIST*
G04 Aperture macros list*
%AMRoundRect*
0 Rectangle with rounded corners*
0 $1 Rounding radius*
0 $2 $3 $4 $5 $6 $7 $8 $9 X,Y pos of 4 corners*
0 Add a 4 corners polygon primitive as box body*
4,1,4,$2,$3,$4,$5,$6,$7,$8,$9,$2,$3,0*
0 Add four circle primitives for the rounded corners*
1,1,$1+$1,$2,$3*
1,1,$1+$1,$4,$5*
1,1,$1+$1,$6,$7*
1,1,$1+$1,$8,$9*
0 Add four rect primitives between the rounded corners*
20,1,$1+$1,$2,$3,$4,$5,0*
20,1,$1+$1,$4,$5,$6,$7,0*
20,1,$1+$1,$6,$7,$8,$9,0*
20,1,$1+$1,$8,$9,$2,$3,0*%
G04 Aperture macros list end*
%ADD10RoundRect,0.140000X-0.140000X-0.170000X0.140000X-0.170000X0.140000X0.170000X-0.140000X0.170000X0*%
%ADD11RoundRect,0.525000X-0.525000X-2.025000X0.525000X-2.025000X0.525000X2.025000X-0.525000X2.025000X0*%
%ADD12RoundRect,0.075000X-0.075000X-0.700000X0.075000X-0.700000X0.075000X0.700000X-0.075000X0.700000X0*%
%ADD13RoundRect,0.075000X-0.700000X-0.075000X0.700000X-0.075000X0.700000X0.075000X-0.700000X0.075000X0*%
%ADD14RoundRect,0.135000X0.135000X0.185000X-0.135000X0.185000X-0.135000X-0.185000X0.135000X-0.185000X0*%
%ADD15RoundRect,0.160000X0.160000X-0.197500X0.160000X0.197500X-0.160000X0.197500X-0.160000X-0.197500X0*%
%ADD16RoundRect,0.155000X0.212500X0.155000X-0.212500X0.155000X-0.212500X-0.155000X0.212500X-0.155000X0*%
%ADD17RoundRect,0.155000X-0.212500X-0.155000X0.212500X-0.155000X0.212500X0.155000X-0.212500X0.155000X0*%
%ADD18RoundRect,0.150000X-0.350000X0.600000X-0.350000X-0.600000X0.350000X-0.600000X0.350000X0.600000X0*%
%ADD19RoundRect,0.140000X0.140000X0.170000X-0.140000X0.170000X-0.140000X-0.170000X0.140000X-0.170000X0*%
%ADD20RoundRect,0.200000X-0.200000X-0.275000X0.200000X-0.275000X0.200000X0.275000X-0.200000X0.275000X0*%
%ADD21R,1.200000X1.400000*%
%ADD22RoundRect,0.218750X-0.218750X-0.256250X0.218750X-0.256250X0.218750X0.256250X-0.218750X0.256250X0*%
%ADD23RoundRect,0.140000X-0.170000X0.140000X-0.170000X-0.140000X0.170000X-0.140000X0.170000X0.140000X0*%
%ADD24RoundRect,0.225000X0.225000X0.250000X-0.225000X0.250000X-0.225000X-0.250000X0.225000X-0.250000X0*%
%ADD25RoundRect,0.135000X-0.135000X-0.185000X0.135000X-0.185000X0.135000X0.185000X-0.135000X0.185000X0*%
%ADD26RoundRect,0.200000X0.275000X-0.200000X0.275000X0.200000X-0.275000X0.200000X-0.275000X-0.200000X0*%
%ADD27RoundRect,0.135000X0.185000X-0.135000X0.185000X0.135000X-0.185000X0.135000X-0.185000X-0.135000X0*%
%ADD28RoundRect,0.155000X0.155000X-0.212500X0.155000X0.212500X-0.155000X0.212500X-0.155000X-0.212500X0*%
%ADD29RoundRect,0.250000X0.650000X-0.325000X0.650000X0.325000X-0.650000X0.325000X-0.650000X-0.325000X0*%
%ADD30RoundRect,0.135000X-0.185000X0.135000X-0.185000X-0.135000X0.185000X-0.135000X0.185000X0.135000X0*%
%ADD31RoundRect,0.180000X0.420000X0.620000X-0.420000X0.620000X-0.420000X-0.620000X0.420000X-0.620000X0*%
%ADD32RoundRect,0.140000X0.170000X-0.140000X0.170000X0.140000X-0.170000X0.140000X-0.170000X-0.140000X0*%
%ADD33RoundRect,0.225000X-0.250000X0.225000X-0.250000X-0.225000X0.250000X-0.225000X0.250000X0.225000X0*%
%ADD34RoundRect,0.150000X-0.150000X0.587500X-0.150000X-0.587500X0.150000X-0.587500X0.150000X0.587500X0*%
%ADD35RoundRect,0.155000X-0.155000X0.212500X-0.155000X-0.212500X0.155000X-0.212500X0.155000X0.212500X0*%
%ADD36RoundRect,0.200000X-0.275000X0.200000X-0.275000X-0.200000X0.275000X-0.200000X0.275000X0.200000X0*%
%ADD37RoundRect,0.150000X0.512500X0.150000X-0.512500X0.150000X-0.512500X-0.150000X0.512500X-0.150000X0*%
%ADD38R,0.600000X1.300000*%
%ADD39RoundRect,0.150000X-0.825000X-0.150000X0.825000X-0.150000X0.825000X0.150000X-0.825000X0.150000X0*%
G04 APERTURE END LIST*
D10*
%TO.C,C10*%
X145907500Y-84310000D03*
X146867500Y-84310000D03*
%TD*%
D11*
%TO.C,L1*%
X170220000Y-101830000D03*
X165820000Y-101830000D03*
%TD*%
D12*
%TO.C,U1*%
X149627500Y-73635000D03*
X150127500Y-73635000D03*
X150627500Y-73635000D03*
X151127500Y-73635000D03*
X151627500Y-73635000D03*
X152127500Y-73635000D03*
X152627500Y-73635000D03*
X153127500Y-73635000D03*
X153627500Y-73635000D03*
X154127500Y-73635000D03*
X154627500Y-73635000D03*
X155127500Y-73635000D03*
X155627500Y-73635000D03*
X156127500Y-73635000D03*
X156627500Y-73635000D03*
X157127500Y-73635000D03*
D13*
X159052500Y-75560000D03*
X159052500Y-76060000D03*
X159052500Y-76560000D03*
X159052500Y-77060000D03*
X159052500Y-77560000D03*
X159052500Y-78060000D03*
X159052500Y-78560000D03*
X159052500Y-79060000D03*
X159052500Y-79560000D03*
X159052500Y-80060000D03*
X159052500Y-80560000D03*
X159052500Y-81060000D03*
X159052500Y-81560000D03*
X159052500Y-82060000D03*
X159052500Y-82560000D03*
X159052500Y-83060000D03*
D12*
X157127500Y-84985000D03*
X156627500Y-84985000D03*
X156127500Y-84985000D03*
X155627500Y-84985000D03*
X155127500Y-84985000D03*
X154627500Y-84985000D03*
X154127500Y-84985000D03*
X153627500Y-84985000D03*
X153127500Y-84985000D03*
X152627500Y-84985000D03*
X152127500Y-84985000D03*
X151627500Y-84985000D03*
X151127500Y-84985000D03*
X150627500Y-84985000D03*
X150127500Y-84985000D03*
X149627500Y-84985000D03*
D13*
X147702500Y-83060000D03*
X147702500Y-82560000D03*
X147702500Y-82060000D03*
X147702500Y-81560000D03*
X147702500Y-81060000D03*
X147702500Y-80560000D03*
X147702500Y-80060000D03*
X147702500Y-79560000D03*
X147702500Y-79060000D03*
X147702500Y-78560000D03*
X147702500Y-78060000D03*
X147702500Y-77560000D03*
X147702500Y-77060000D03*
X147702500Y-76560000D03*
X147702500Y-76060000D03*
X147702500Y-75560000D03*
%TD*%
D14*
%TO.C,R23*%
X159030000Y-90170000D03*
X158010000Y-90170000D03*
%TD*%
%TO.C,R22*%
X161600000Y-90170000D03*
X160580000Y-90170000D03*
%TD*%
D15*
%TO.C,R14*%
X156230000Y-92282500D03*
X156230000Y-93477500D03*
%TD*%
%TO.C,R13*%
X156230000Y-96302500D03*
X156230000Y-97497500D03*
%TD*%
D16*
%TO.C,C9*%
X141385000Y-80660000D03*
X140250000Y-80660000D03*
%TD*%
D17*
%TO.C,C8*%
X140200000Y-74660000D03*
X141335000Y-74660000D03*
%TD*%
D18*
%TO.C,SW1*%
X142960000Y-89290000D03*
X142960000Y-81390000D03*
%TD*%
D19*
%TO.C,C3*%
X156797500Y-87060000D03*
X157757500Y-87060000D03*
%TD*%
D20*
%TO.C,R7*%
X143145000Y-91180000D03*
X144795000Y-91180000D03*
%TD*%
D21*
%TO.C,Y1*%
X139907500Y-76510000D03*
X139907500Y-78710000D03*
X141607500Y-78710000D03*
X141607500Y-76510000D03*
%TD*%
D10*
%TO.C,C5*%
X150127500Y-71440000D03*
X149167500Y-71440000D03*
%TD*%
D22*
%TO.C,D2*%
X151445000Y-88900000D03*
X149870000Y-88900000D03*
%TD*%
D23*
%TO.C,C16*%
X164910000Y-93040000D03*
X164910000Y-94000000D03*
%TD*%
D24*
%TO.C,C1*%
X145422500Y-71450000D03*
X146972500Y-71450000D03*
%TD*%
D25*
%TO.C,R4*%
X164010000Y-73460000D03*
X165030000Y-73460000D03*
%TD*%
D26*
%TO.C,R8*%
X145290000Y-95455000D03*
X145290000Y-93805000D03*
%TD*%
D27*
%TO.C,R2*%
X175800000Y-83530000D03*
X175800000Y-82510000D03*
%TD*%
D26*
%TO.C,R9*%
X145290000Y-100345000D03*
X145290000Y-98695000D03*
%TD*%
D25*
%TO.C,R11*%
X151060000Y-92780000D03*
X150040000Y-92780000D03*
%TD*%
%TO.C,R19*%
X163590000Y-81080000D03*
X164610000Y-81080000D03*
%TD*%
D28*
%TO.C,C13*%
X175800000Y-80172500D03*
X175800000Y-81307500D03*
%TD*%
D29*
%TO.C,C18*%
X162630000Y-102845000D03*
X162630000Y-99895000D03*
%TD*%
D25*
%TO.C,R20*%
X169240000Y-88380000D03*
X168220000Y-88380000D03*
%TD*%
D30*
%TO.C,R21*%
X169230000Y-86090000D03*
X169230000Y-85070000D03*
%TD*%
D25*
%TO.C,R17*%
X166720000Y-88380000D03*
X165700000Y-88380000D03*
%TD*%
D14*
%TO.C,R12*%
X152670000Y-92760000D03*
X153690000Y-92760000D03*
%TD*%
%TO.C,R16*%
X162260000Y-88380000D03*
X163280000Y-88380000D03*
%TD*%
D31*
%TO.C,SW2*%
X164230000Y-67750000D03*
X166730000Y-73450000D03*
X169230000Y-67750000D03*
%TD*%
D29*
%TO.C,C19*%
X159990000Y-102855000D03*
X159990000Y-99905000D03*
%TD*%
D10*
%TO.C,C17*%
X158680000Y-96410000D03*
X159640000Y-96410000D03*
%TD*%
D25*
%TO.C,R3*%
X144727500Y-78710000D03*
X143707500Y-78710000D03*
%TD*%
D32*
%TO.C,C11*%
X164980000Y-77970000D03*
X164980000Y-77010000D03*
%TD*%
D33*
%TO.C,C14*%
X166400000Y-92805000D03*
X166400000Y-94355000D03*
%TD*%
D34*
%TO.C,Q2*%
X167690000Y-83740000D03*
X165790000Y-83740000D03*
X166740000Y-85615000D03*
%TD*%
D35*
%TO.C,C12*%
X171480000Y-83492500D03*
X171480000Y-84627500D03*
%TD*%
D36*
%TO.C,R6*%
X149000000Y-100005000D03*
X149000000Y-101655000D03*
%TD*%
D23*
%TO.C,C4*%
X161367500Y-75970000D03*
X161367500Y-75010000D03*
%TD*%
D30*
%TO.C,R18*%
X161277500Y-79960000D03*
X161277500Y-80980000D03*
%TD*%
D34*
%TO.C,Q1*%
X162260000Y-85585000D03*
X161310000Y-83710000D03*
X163210000Y-83710000D03*
%TD*%
D30*
%TO.C,R15*%
X148337500Y-88910000D03*
X148337500Y-87890000D03*
%TD*%
D37*
%TO.C,U3*%
X161067500Y-94580000D03*
X161067500Y-93630000D03*
X161067500Y-92680000D03*
X158792500Y-92680000D03*
X158792500Y-93630000D03*
X158792500Y-94580000D03*
%TD*%
D26*
%TO.C,R10*%
X145290000Y-105195000D03*
X145290000Y-103545000D03*
%TD*%
D14*
%TO.C,R1*%
X173740000Y-83490000D03*
X172720000Y-83490000D03*
%TD*%
D38*
%TO.C,D1*%
X176470000Y-85550000D03*
X174570000Y-85550000D03*
X175520000Y-87650000D03*
%TD*%
D32*
%TO.C,C7*%
X145427500Y-80900000D03*
X145427500Y-81860000D03*
%TD*%
%TO.C,C6*%
X145797500Y-74580000D03*
X145797500Y-75540000D03*
%TD*%
D39*
%TO.C,U2*%
X166955000Y-75605000D03*
X166955000Y-76875000D03*
X166955000Y-78145000D03*
X166955000Y-79415000D03*
X171905000Y-79415000D03*
X171905000Y-78145000D03*
X171905000Y-76875000D03*
X171905000Y-75605000D03*
%TD*%
D33*
%TO.C,C15*%
X168220000Y-92815000D03*
X168220000Y-94365000D03*
%TD*%
D36*
%TO.C,R5*%
X149000000Y-96695000D03*
X149000000Y-98345000D03*
%TD*%
D19*
%TO.C,C2*%
X149947500Y-87070000D03*
X150907500Y-87070000D03*
%TD*%
M02*
