%TF.GenerationSoftware,KiCad,Pcbnew,(6.0.8)*%
%TF.CreationDate,2022-10-15T22:51:14+02:00*%
%TF.ProjectId,stm_v3,73746d5f-7633-42e6-9b69-6361645f7063,rev?*%
%TF.SameCoordinates,Original*%
%TF.FileFunction,Copper,L1,Top*%
%TF.FilePolarity,Positive*%
%FSLAX46Y46*%
G04 Gerber Fmt 4.6, Leading zero omitted, Abs format (unit mm)*
G04 Created by KiCad (PCBNEW (6.0.8)) date 2022-10-15 22:51:14*
%MOMM*%
%LPD*%
G01*
G04 APERTURE LIST*
G04 Aperture macros list*
%AMRoundRect*
0 Rectangle with rounded corners*
0 $1 Rounding radius*
0 $2 $3 $4 $5 $6 $7 $8 $9 X,Y pos of 4 corners*
0 Add a 4 corners polygon primitive as box body*
4,1,4,$2,$3,$4,$5,$6,$7,$8,$9,$2,$3,0*
0 Add four circle primitives for the rounded corners*
1,1,$1+$1,$2,$3*
1,1,$1+$1,$4,$5*
1,1,$1+$1,$6,$7*
1,1,$1+$1,$8,$9*
0 Add four rect primitives between the rounded corners*
20,1,$1+$1,$2,$3,$4,$5,0*
20,1,$1+$1,$4,$5,$6,$7,0*
20,1,$1+$1,$6,$7,$8,$9,0*
20,1,$1+$1,$8,$9,$2,$3,0*%
%AMFreePoly0*
4,1,17,-0.950000,3.025000,-0.941586,3.114006,-0.894789,3.247267,-0.810876,3.360876,-0.697267,3.444789,-0.564006,3.491586,-0.475000,3.500000,0.475000,3.500000,0.564006,3.491586,0.697267,3.444789,0.810876,3.360876,0.894789,3.247267,0.941586,3.114006,0.950000,3.025000,0.950000,-3.500000,-0.950000,-3.500000,-0.950000,3.025000,-0.950000,3.025000,$1*%
G04 Aperture macros list end*
%TA.AperFunction,SMDPad,CuDef*%
%ADD10RoundRect,0.135000X-0.135000X-0.185000X0.135000X-0.185000X0.135000X0.185000X-0.135000X0.185000X0*%
%TD*%
%TA.AperFunction,SMDPad,CuDef*%
%ADD11RoundRect,0.135000X0.185000X-0.135000X0.185000X0.135000X-0.185000X0.135000X-0.185000X-0.135000X0*%
%TD*%
%TA.AperFunction,SMDPad,CuDef*%
%ADD12RoundRect,0.150000X-0.587500X-0.150000X0.587500X-0.150000X0.587500X0.150000X-0.587500X0.150000X0*%
%TD*%
%TA.AperFunction,SMDPad,CuDef*%
%ADD13RoundRect,0.150000X-0.350000X0.600000X-0.350000X-0.600000X0.350000X-0.600000X0.350000X0.600000X0*%
%TD*%
%TA.AperFunction,SMDPad,CuDef*%
%ADD14RoundRect,0.140000X0.140000X0.170000X-0.140000X0.170000X-0.140000X-0.170000X0.140000X-0.170000X0*%
%TD*%
%TA.AperFunction,SMDPad,CuDef*%
%ADD15RoundRect,0.140000X-0.140000X-0.170000X0.140000X-0.170000X0.140000X0.170000X-0.140000X0.170000X0*%
%TD*%
%TA.AperFunction,SMDPad,CuDef*%
%ADD16RoundRect,0.200000X0.200000X0.275000X-0.200000X0.275000X-0.200000X-0.275000X0.200000X-0.275000X0*%
%TD*%
%TA.AperFunction,SMDPad,CuDef*%
%ADD17R,1.200000X1.400000*%
%TD*%
%TA.AperFunction,SMDPad,CuDef*%
%ADD18RoundRect,0.218750X0.256250X-0.218750X0.256250X0.218750X-0.256250X0.218750X-0.256250X-0.218750X0*%
%TD*%
%TA.AperFunction,SMDPad,CuDef*%
%ADD19RoundRect,0.140000X-0.170000X0.140000X-0.170000X-0.140000X0.170000X-0.140000X0.170000X0.140000X0*%
%TD*%
%TA.AperFunction,SMDPad,CuDef*%
%ADD20RoundRect,0.225000X0.225000X0.250000X-0.225000X0.250000X-0.225000X-0.250000X0.225000X-0.250000X0*%
%TD*%
%TA.AperFunction,SMDPad,CuDef*%
%ADD21RoundRect,0.135000X0.135000X0.185000X-0.135000X0.185000X-0.135000X-0.185000X0.135000X-0.185000X0*%
%TD*%
%TA.AperFunction,ConnectorPad*%
%ADD22FreePoly0,90.000000*%
%TD*%
%TA.AperFunction,SMDPad,CuDef*%
%ADD23RoundRect,0.155000X0.212500X0.155000X-0.212500X0.155000X-0.212500X-0.155000X0.212500X-0.155000X0*%
%TD*%
%TA.AperFunction,SMDPad,CuDef*%
%ADD24RoundRect,0.250000X0.650000X-0.325000X0.650000X0.325000X-0.650000X0.325000X-0.650000X-0.325000X0*%
%TD*%
%TA.AperFunction,SMDPad,CuDef*%
%ADD25R,2.700000X2.200000*%
%TD*%
%TA.AperFunction,SMDPad,CuDef*%
%ADD26RoundRect,0.075000X-0.700000X-0.075000X0.700000X-0.075000X0.700000X0.075000X-0.700000X0.075000X0*%
%TD*%
%TA.AperFunction,SMDPad,CuDef*%
%ADD27RoundRect,0.075000X-0.075000X-0.700000X0.075000X-0.700000X0.075000X0.700000X-0.075000X0.700000X0*%
%TD*%
%TA.AperFunction,SMDPad,CuDef*%
%ADD28RoundRect,0.180000X0.420000X0.620000X-0.420000X0.620000X-0.420000X-0.620000X0.420000X-0.620000X0*%
%TD*%
%TA.AperFunction,ComponentPad*%
%ADD29R,1.700000X1.700000*%
%TD*%
%TA.AperFunction,ComponentPad*%
%ADD30O,1.700000X1.700000*%
%TD*%
%TA.AperFunction,SMDPad,CuDef*%
%ADD31RoundRect,0.140000X0.170000X-0.140000X0.170000X0.140000X-0.170000X0.140000X-0.170000X-0.140000X0*%
%TD*%
%TA.AperFunction,SMDPad,CuDef*%
%ADD32RoundRect,0.225000X-0.250000X0.225000X-0.250000X-0.225000X0.250000X-0.225000X0.250000X0.225000X0*%
%TD*%
%TA.AperFunction,SMDPad,CuDef*%
%ADD33RoundRect,0.200000X-0.275000X0.200000X-0.275000X-0.200000X0.275000X-0.200000X0.275000X0.200000X0*%
%TD*%
%TA.AperFunction,SMDPad,CuDef*%
%ADD34RoundRect,0.150000X0.512500X0.150000X-0.512500X0.150000X-0.512500X-0.150000X0.512500X-0.150000X0*%
%TD*%
%TA.AperFunction,SMDPad,CuDef*%
%ADD35RoundRect,0.135000X-0.185000X0.135000X-0.185000X-0.135000X0.185000X-0.135000X0.185000X0.135000X0*%
%TD*%
%TA.AperFunction,SMDPad,CuDef*%
%ADD36R,0.600000X1.300000*%
%TD*%
%TA.AperFunction,SMDPad,CuDef*%
%ADD37RoundRect,0.150000X-0.825000X-0.150000X0.825000X-0.150000X0.825000X0.150000X-0.825000X0.150000X0*%
%TD*%
%TA.AperFunction,ViaPad*%
%ADD38C,0.800000*%
%TD*%
%TA.AperFunction,Conductor*%
%ADD39C,0.500000*%
%TD*%
%TA.AperFunction,Conductor*%
%ADD40C,0.300000*%
%TD*%
G04 APERTURE END LIST*
D10*
%TO.P,R21,1*%
%TO.N,GND*%
X166820000Y-86780000D03*
%TO.P,R21,2*%
%TO.N,KLine_RX*%
X167840000Y-86780000D03*
%TD*%
D11*
%TO.P,R20,1*%
%TO.N,ISO_K*%
X169340000Y-87780000D03*
%TO.P,R20,2*%
%TO.N,KLine_RX*%
X169340000Y-86760000D03*
%TD*%
D10*
%TO.P,R19,1*%
%TO.N,KLine_TX*%
X151650000Y-86370000D03*
%TO.P,R19,2*%
%TO.N,Net-(Q2-Pad1)*%
X152670000Y-86370000D03*
%TD*%
%TO.P,R18,1*%
%TO.N,LLine*%
X151690000Y-88330000D03*
%TO.P,R18,2*%
%TO.N,Net-(Q1-Pad1)*%
X152710000Y-88330000D03*
%TD*%
D11*
%TO.P,R17,1*%
%TO.N,+12V*%
X169340000Y-90300000D03*
%TO.P,R17,2*%
%TO.N,ISO_K*%
X169340000Y-89280000D03*
%TD*%
%TO.P,R16,1*%
%TO.N,+12V*%
X159730000Y-90310000D03*
%TO.P,R16,2*%
%TO.N,ISO_L*%
X159730000Y-89290000D03*
%TD*%
D12*
%TO.P,Q2,1,B*%
%TO.N,Net-(Q2-Pad1)*%
X164012500Y-88330000D03*
%TO.P,Q2,2,E*%
%TO.N,GND*%
X164012500Y-90230000D03*
%TO.P,Q2,3,C*%
%TO.N,ISO_K*%
X165887500Y-89280000D03*
%TD*%
%TO.P,Q1,1,B*%
%TO.N,Net-(Q1-Pad1)*%
X155302500Y-88340000D03*
%TO.P,Q1,2,E*%
%TO.N,GND*%
X155302500Y-90240000D03*
%TO.P,Q1,3,C*%
%TO.N,ISO_L*%
X157177500Y-89290000D03*
%TD*%
D13*
%TO.P,SW1,1,1*%
%TO.N,GND*%
X131750000Y-97050000D03*
%TO.P,SW1,2,2*%
%TO.N,NRST*%
X131750000Y-89150000D03*
%TD*%
D14*
%TO.P,C3,1*%
%TO.N,+3.3V*%
X146540000Y-93750000D03*
%TO.P,C3,2*%
%TO.N,GND*%
X145580000Y-93750000D03*
%TD*%
D15*
%TO.P,C8,1*%
%TO.N,HSE_IN*%
X128770000Y-81350000D03*
%TO.P,C8,2*%
%TO.N,GND*%
X129730000Y-81350000D03*
%TD*%
D16*
%TO.P,R7,2*%
%TO.N,SWDIO*%
X154165000Y-76580000D03*
%TO.P,R7,1*%
%TO.N,/SW_DIO*%
X155815000Y-76580000D03*
%TD*%
D17*
%TO.P,Y1,1,1*%
%TO.N,HSE_IN*%
X128390000Y-83200000D03*
%TO.P,Y1,2,2*%
%TO.N,GND*%
X128390000Y-85400000D03*
%TO.P,Y1,3,3*%
%TO.N,/HSE_O*%
X130090000Y-85400000D03*
%TO.P,Y1,4,4*%
%TO.N,GND*%
X130090000Y-83200000D03*
%TD*%
D14*
%TO.P,C9,1*%
%TO.N,/HSE_O*%
X129780000Y-87350000D03*
%TO.P,C9,2*%
%TO.N,GND*%
X128820000Y-87350000D03*
%TD*%
D15*
%TO.P,C5,1*%
%TO.N,+3.3V*%
X137950000Y-78130000D03*
%TO.P,C5,2*%
%TO.N,GND*%
X138910000Y-78130000D03*
%TD*%
D18*
%TO.P,D2,1,K*%
%TO.N,Net-(D2-Pad1)*%
X136900000Y-98227500D03*
%TO.P,D2,2,A*%
%TO.N,LED*%
X136900000Y-96652500D03*
%TD*%
D19*
%TO.P,C16,1*%
%TO.N,+12V*%
X160230000Y-93130000D03*
%TO.P,C16,2*%
%TO.N,GND*%
X160230000Y-94090000D03*
%TD*%
D20*
%TO.P,C1,1*%
%TO.N,+3.3V*%
X135755000Y-78140000D03*
%TO.P,C1,2*%
%TO.N,GND*%
X134205000Y-78140000D03*
%TD*%
D21*
%TO.P,R4,1*%
%TO.N,BOOT0*%
X137730000Y-74390000D03*
%TO.P,R4,2*%
%TO.N,/BOOT_0*%
X136710000Y-74390000D03*
%TD*%
D22*
%TO.P,J3,1,NC*%
%TO.N,unconnected-(J3-Pad1)*%
X180900000Y-70905000D03*
%TO.P,J3,2,J1850_BUS+*%
%TO.N,unconnected-(J3-Pad2)*%
X180900000Y-75305000D03*
%TO.P,J3,3,NC*%
%TO.N,unconnected-(J3-Pad3)*%
X180900000Y-79705000D03*
%TO.P,J3,4,GND*%
%TO.N,GND*%
X180900000Y-84105000D03*
%TO.P,J3,5,GND*%
X180900000Y-88505000D03*
%TO.P,J3,6,CAN_H*%
%TO.N,CAN_H*%
X180900000Y-92905000D03*
%TO.P,J3,7,K_Line*%
%TO.N,ISO_K*%
X180900000Y-97305000D03*
%TO.P,J3,8,NC*%
%TO.N,unconnected-(J3-Pad8)*%
X180900000Y-101705000D03*
%TD*%
D16*
%TO.P,R8,2*%
%TO.N,SWCLK*%
X150125000Y-76580000D03*
%TO.P,R8,1*%
%TO.N,/SW_CLK*%
X151775000Y-76580000D03*
%TD*%
D11*
%TO.P,R2,1*%
%TO.N,CAN_H*%
X170196250Y-80730000D03*
%TO.P,R2,2*%
%TO.N,Net-(C13-Pad1)*%
X170196250Y-79710000D03*
%TD*%
D16*
%TO.P,R9,2*%
%TO.N,SWO*%
X146195000Y-76580000D03*
%TO.P,R9,1*%
%TO.N,/SW_O*%
X147845000Y-76580000D03*
%TD*%
D10*
%TO.P,R11,1*%
%TO.N,+3.3V*%
X142210000Y-96440000D03*
%TO.P,R11,2*%
%TO.N,OLED_SCL*%
X143230000Y-96440000D03*
%TD*%
D23*
%TO.P,C13,1*%
%TO.N,Net-(C13-Pad1)*%
X167763750Y-79710000D03*
%TO.P,C13,2*%
%TO.N,GND*%
X166628750Y-79710000D03*
%TD*%
D24*
%TO.P,C18,1*%
%TO.N,+3.3V*%
X157360000Y-102795000D03*
%TO.P,C18,2*%
%TO.N,GND*%
X157360000Y-99845000D03*
%TD*%
D25*
%TO.P,L1,1,1*%
%TO.N,/Power Supply/SW*%
X165800000Y-101750000D03*
%TO.P,L1,2,2*%
%TO.N,+3.3V*%
X160700000Y-101750000D03*
%TD*%
D21*
%TO.P,R12,1*%
%TO.N,+3.3V*%
X146750000Y-96420000D03*
%TO.P,R12,2*%
%TO.N,OLED_SDA*%
X145730000Y-96420000D03*
%TD*%
D26*
%TO.P,U1,1,VBAT*%
%TO.N,+3.3V*%
X136485000Y-82250000D03*
%TO.P,U1,2,PC13*%
%TO.N,unconnected-(U1-Pad2)*%
X136485000Y-82750000D03*
%TO.P,U1,3,PC14*%
%TO.N,unconnected-(U1-Pad3)*%
X136485000Y-83250000D03*
%TO.P,U1,4,PC15*%
%TO.N,unconnected-(U1-Pad4)*%
X136485000Y-83750000D03*
%TO.P,U1,5,PH0*%
%TO.N,HSE_IN*%
X136485000Y-84250000D03*
%TO.P,U1,6,PH1*%
%TO.N,HSE_OUT*%
X136485000Y-84750000D03*
%TO.P,U1,7,NRST*%
%TO.N,NRST*%
X136485000Y-85250000D03*
%TO.P,U1,8,PC0*%
%TO.N,unconnected-(U1-Pad8)*%
X136485000Y-85750000D03*
%TO.P,U1,9,PC1*%
%TO.N,unconnected-(U1-Pad9)*%
X136485000Y-86250000D03*
%TO.P,U1,10,PC2*%
%TO.N,unconnected-(U1-Pad10)*%
X136485000Y-86750000D03*
%TO.P,U1,11,PC3*%
%TO.N,unconnected-(U1-Pad11)*%
X136485000Y-87250000D03*
%TO.P,U1,12,VSSA*%
%TO.N,GND*%
X136485000Y-87750000D03*
%TO.P,U1,13,VDDA*%
%TO.N,+3.3V*%
X136485000Y-88250000D03*
%TO.P,U1,14,PA0*%
%TO.N,unconnected-(U1-Pad14)*%
X136485000Y-88750000D03*
%TO.P,U1,15,PA1*%
%TO.N,unconnected-(U1-Pad15)*%
X136485000Y-89250000D03*
%TO.P,U1,16,PA2*%
%TO.N,unconnected-(U1-Pad16)*%
X136485000Y-89750000D03*
D27*
%TO.P,U1,17,PA3*%
%TO.N,unconnected-(U1-Pad17)*%
X138410000Y-91675000D03*
%TO.P,U1,18,VSS*%
%TO.N,GND*%
X138910000Y-91675000D03*
%TO.P,U1,19,VDD*%
%TO.N,+3.3V*%
X139410000Y-91675000D03*
%TO.P,U1,20,PA4*%
%TO.N,unconnected-(U1-Pad20)*%
X139910000Y-91675000D03*
%TO.P,U1,21,PA5*%
%TO.N,unconnected-(U1-Pad21)*%
X140410000Y-91675000D03*
%TO.P,U1,22,PA6*%
%TO.N,unconnected-(U1-Pad22)*%
X140910000Y-91675000D03*
%TO.P,U1,23,PA7*%
%TO.N,LED*%
X141410000Y-91675000D03*
%TO.P,U1,24,PC4*%
%TO.N,unconnected-(U1-Pad24)*%
X141910000Y-91675000D03*
%TO.P,U1,25,PC5*%
%TO.N,unconnected-(U1-Pad25)*%
X142410000Y-91675000D03*
%TO.P,U1,26,PB0*%
%TO.N,unconnected-(U1-Pad26)*%
X142910000Y-91675000D03*
%TO.P,U1,27,PB1*%
%TO.N,unconnected-(U1-Pad27)*%
X143410000Y-91675000D03*
%TO.P,U1,28,PB2*%
%TO.N,unconnected-(U1-Pad28)*%
X143910000Y-91675000D03*
%TO.P,U1,29,PB10*%
%TO.N,OLED_SCL*%
X144410000Y-91675000D03*
%TO.P,U1,30,PB11*%
%TO.N,OLED_SDA*%
X144910000Y-91675000D03*
%TO.P,U1,31,VSS*%
%TO.N,GND*%
X145410000Y-91675000D03*
%TO.P,U1,32,VDD*%
%TO.N,+3.3V*%
X145910000Y-91675000D03*
D26*
%TO.P,U1,33,PB12*%
%TO.N,unconnected-(U1-Pad33)*%
X147835000Y-89750000D03*
%TO.P,U1,34,PB13*%
%TO.N,unconnected-(U1-Pad34)*%
X147835000Y-89250000D03*
%TO.P,U1,35,PB14*%
%TO.N,unconnected-(U1-Pad35)*%
X147835000Y-88750000D03*
%TO.P,U1,36,PB15*%
%TO.N,unconnected-(U1-Pad36)*%
X147835000Y-88250000D03*
%TO.P,U1,37,PC6*%
%TO.N,unconnected-(U1-Pad37)*%
X147835000Y-87750000D03*
%TO.P,U1,38,PC7*%
%TO.N,unconnected-(U1-Pad38)*%
X147835000Y-87250000D03*
%TO.P,U1,39,PC8*%
%TO.N,CAN_S*%
X147835000Y-86750000D03*
%TO.P,U1,40,PC9*%
%TO.N,unconnected-(U1-Pad40)*%
X147835000Y-86250000D03*
%TO.P,U1,41,PA8*%
%TO.N,LLine*%
X147835000Y-85750000D03*
%TO.P,U1,42,PA9*%
%TO.N,KLine_TX*%
X147835000Y-85250000D03*
%TO.P,U1,43,PA10*%
%TO.N,KLine_RX*%
X147835000Y-84750000D03*
%TO.P,U1,44,PA11*%
%TO.N,CAN_RX*%
X147835000Y-84250000D03*
%TO.P,U1,45,PA12*%
%TO.N,CAN_TX*%
X147835000Y-83750000D03*
%TO.P,U1,46,PA13*%
%TO.N,SWDIO*%
X147835000Y-83250000D03*
%TO.P,U1,47,VSS*%
%TO.N,GND*%
X147835000Y-82750000D03*
%TO.P,U1,48,VDD*%
%TO.N,+3.3V*%
X147835000Y-82250000D03*
D27*
%TO.P,U1,49,PA14*%
%TO.N,SWCLK*%
X145910000Y-80325000D03*
%TO.P,U1,50,PA15*%
%TO.N,unconnected-(U1-Pad50)*%
X145410000Y-80325000D03*
%TO.P,U1,51,PC10*%
%TO.N,unconnected-(U1-Pad51)*%
X144910000Y-80325000D03*
%TO.P,U1,52,PC11*%
%TO.N,unconnected-(U1-Pad52)*%
X144410000Y-80325000D03*
%TO.P,U1,53,PC12*%
%TO.N,unconnected-(U1-Pad53)*%
X143910000Y-80325000D03*
%TO.P,U1,54,PD2*%
%TO.N,unconnected-(U1-Pad54)*%
X143410000Y-80325000D03*
%TO.P,U1,55,PB3*%
%TO.N,SWO*%
X142910000Y-80325000D03*
%TO.P,U1,56,PB4*%
%TO.N,unconnected-(U1-Pad56)*%
X142410000Y-80325000D03*
%TO.P,U1,57,PB5*%
%TO.N,unconnected-(U1-Pad57)*%
X141910000Y-80325000D03*
%TO.P,U1,58,PB6*%
%TO.N,unconnected-(U1-Pad58)*%
X141410000Y-80325000D03*
%TO.P,U1,59,PB7*%
%TO.N,unconnected-(U1-Pad59)*%
X140910000Y-80325000D03*
%TO.P,U1,60,PH3*%
%TO.N,BOOT0*%
X140410000Y-80325000D03*
%TO.P,U1,61,PB8*%
%TO.N,unconnected-(U1-Pad61)*%
X139910000Y-80325000D03*
%TO.P,U1,62,PB9*%
%TO.N,unconnected-(U1-Pad62)*%
X139410000Y-80325000D03*
%TO.P,U1,63,VSS*%
%TO.N,GND*%
X138910000Y-80325000D03*
%TO.P,U1,64,VDD*%
%TO.N,+3.3V*%
X138410000Y-80325000D03*
%TD*%
D28*
%TO.P,SW2,1,A*%
%TO.N,GND*%
X136170000Y-68680000D03*
%TO.P,SW2,2,B*%
%TO.N,/BOOT_0*%
X133670000Y-74380000D03*
%TO.P,SW2,3,C*%
%TO.N,+3.3V*%
X131170000Y-68680000D03*
%TD*%
D29*
%TO.P,J2,1,Pin_1*%
%TO.N,/SDA*%
X145770000Y-102720000D03*
D30*
%TO.P,J2,2,Pin_2*%
%TO.N,/SCL*%
X143230000Y-102720000D03*
%TO.P,J2,3,Pin_3*%
%TO.N,+3.3V*%
X140690000Y-102720000D03*
%TO.P,J2,4,Pin_4*%
%TO.N,GND*%
X138150000Y-102720000D03*
%TD*%
D24*
%TO.P,C19,1*%
%TO.N,+3.3V*%
X154720000Y-102805000D03*
%TO.P,C19,2*%
%TO.N,GND*%
X154720000Y-99855000D03*
%TD*%
D15*
%TO.P,C17,1*%
%TO.N,/Power Supply/BST*%
X154000000Y-96350000D03*
%TO.P,C17,2*%
%TO.N,/Power Supply/SW*%
X154960000Y-96350000D03*
%TD*%
D10*
%TO.P,R3,1*%
%TO.N,/HSE_O*%
X132490000Y-85400000D03*
%TO.P,R3,2*%
%TO.N,HSE_OUT*%
X133510000Y-85400000D03*
%TD*%
D31*
%TO.P,C11,1*%
%TO.N,+3.3V*%
X155270000Y-82650000D03*
%TO.P,C11,2*%
%TO.N,GND*%
X155270000Y-81690000D03*
%TD*%
D32*
%TO.P,C14,1*%
%TO.N,+12V*%
X161720000Y-92745000D03*
%TO.P,C14,2*%
%TO.N,GND*%
X161720000Y-94295000D03*
%TD*%
D23*
%TO.P,C12,1*%
%TO.N,Net-(C12-Pad1)*%
X167457500Y-84580000D03*
%TO.P,C12,2*%
%TO.N,GND*%
X166322500Y-84580000D03*
%TD*%
D33*
%TO.P,R6,1*%
%TO.N,OLED_SCL*%
X143240000Y-98165000D03*
%TO.P,R6,2*%
%TO.N,/SCL*%
X143240000Y-99815000D03*
%TD*%
D19*
%TO.P,C4,1*%
%TO.N,+3.3V*%
X150150000Y-81700000D03*
%TO.P,C4,2*%
%TO.N,GND*%
X150150000Y-82660000D03*
%TD*%
D10*
%TO.P,R15,1*%
%TO.N,GND*%
X134050000Y-99930000D03*
%TO.P,R15,2*%
%TO.N,Net-(D2-Pad1)*%
X135070000Y-99930000D03*
%TD*%
D34*
%TO.P,U3,1,GND*%
%TO.N,GND*%
X156387500Y-94520000D03*
%TO.P,U3,2,SW*%
%TO.N,/Power Supply/SW*%
X156387500Y-93570000D03*
%TO.P,U3,3,VIN*%
%TO.N,+12V*%
X156387500Y-92620000D03*
%TO.P,U3,4,VFB*%
%TO.N,/Power Supply/FB*%
X154112500Y-92620000D03*
%TO.P,U3,5,EN*%
%TO.N,+12V*%
X154112500Y-93570000D03*
%TO.P,U3,6,VBST*%
%TO.N,/Power Supply/BST*%
X154112500Y-94520000D03*
%TD*%
D19*
%TO.P,C10,1*%
%TO.N,NRST*%
X128940000Y-92390000D03*
%TO.P,C10,2*%
%TO.N,GND*%
X128940000Y-93350000D03*
%TD*%
D11*
%TO.P,R13,1*%
%TO.N,+3.3V*%
X151260000Y-97360000D03*
%TO.P,R13,2*%
%TO.N,/Power Supply/FB*%
X151260000Y-96340000D03*
%TD*%
D33*
%TO.P,R10,2*%
%TO.N,NRST*%
X141920000Y-76695000D03*
%TO.P,R10,1*%
%TO.N,/N_RST*%
X141920000Y-75045000D03*
%TD*%
D35*
%TO.P,R1,1*%
%TO.N,CAN_L*%
X170210000Y-83580000D03*
%TO.P,R1,2*%
%TO.N,Net-(C12-Pad1)*%
X170210000Y-84600000D03*
%TD*%
D30*
%TO.P,J1,10,Pin_10*%
%TO.N,/N_RST*%
X145665000Y-72535000D03*
%TO.P,J1,9,Pin_9*%
%TO.N,GND*%
X145665000Y-69995000D03*
%TO.P,J1,8,Pin_8*%
%TO.N,unconnected-(J1-Pad8)*%
X148205000Y-72535000D03*
%TO.P,J1,7,Pin_7*%
%TO.N,unconnected-(J1-Pad7)*%
X148205000Y-69995000D03*
%TO.P,J1,6,Pin_6*%
%TO.N,/SW_O*%
X150745000Y-72535000D03*
%TO.P,J1,5,Pin_5*%
%TO.N,GND*%
X150745000Y-69995000D03*
%TO.P,J1,4,Pin_4*%
%TO.N,/SW_CLK*%
X153285000Y-72535000D03*
%TO.P,J1,3,Pin_3*%
%TO.N,GND*%
X153285000Y-69995000D03*
%TO.P,J1,2,Pin_2*%
%TO.N,/SW_DIO*%
X155825000Y-72535000D03*
D29*
%TO.P,J1,1,Pin_1*%
%TO.N,+3.3V*%
X155825000Y-69995000D03*
%TD*%
D36*
%TO.P,D1,1,C1*%
%TO.N,CAN_H*%
X174340000Y-83350000D03*
%TO.P,D1,2,C2*%
%TO.N,CAN_L*%
X172440000Y-83350000D03*
%TO.P,D1,3,C3*%
%TO.N,GND*%
X173390000Y-85450000D03*
%TD*%
D31*
%TO.P,C7,1*%
%TO.N,+3.3V*%
X134210000Y-88550000D03*
%TO.P,C7,2*%
%TO.N,GND*%
X134210000Y-87590000D03*
%TD*%
%TO.P,C6,1*%
%TO.N,+3.3V*%
X134200000Y-82080000D03*
%TO.P,C6,2*%
%TO.N,GND*%
X134200000Y-81120000D03*
%TD*%
D37*
%TO.P,U2,1,D*%
%TO.N,CAN_TX*%
X157245000Y-80285000D03*
%TO.P,U2,2,GND*%
%TO.N,GND*%
X157245000Y-81555000D03*
%TO.P,U2,3,VCC*%
%TO.N,+3.3V*%
X157245000Y-82825000D03*
%TO.P,U2,4,R*%
%TO.N,CAN_RX*%
X157245000Y-84095000D03*
%TO.P,U2,5,Vref*%
%TO.N,unconnected-(U2-Pad5)*%
X162195000Y-84095000D03*
%TO.P,U2,6,CANL*%
%TO.N,CAN_L*%
X162195000Y-82825000D03*
%TO.P,U2,7,CANH*%
%TO.N,CAN_H*%
X162195000Y-81555000D03*
%TO.P,U2,8,Rs*%
%TO.N,CAN_S*%
X162195000Y-80285000D03*
%TD*%
D32*
%TO.P,C15,1*%
%TO.N,+12V*%
X163540000Y-92755000D03*
%TO.P,C15,2*%
%TO.N,GND*%
X163540000Y-94305000D03*
%TD*%
D11*
%TO.P,R14,1*%
%TO.N,/Power Supply/FB*%
X151260000Y-93340000D03*
%TO.P,R14,2*%
%TO.N,GND*%
X151260000Y-92320000D03*
%TD*%
D33*
%TO.P,R5,1*%
%TO.N,OLED_SDA*%
X145730000Y-98175000D03*
%TO.P,R5,2*%
%TO.N,/SDA*%
X145730000Y-99825000D03*
%TD*%
D14*
%TO.P,C2,1*%
%TO.N,+3.3V*%
X139690000Y-93760000D03*
%TO.P,C2,2*%
%TO.N,GND*%
X138730000Y-93760000D03*
%TD*%
D38*
%TO.N,GND*%
X165700000Y-86790000D03*
X162440000Y-90240000D03*
%TO.N,ISO_L*%
X160980000Y-89290000D03*
%TO.N,GND*%
X153550000Y-90240000D03*
%TO.N,NRST*%
X141930000Y-77980000D03*
%TO.N,+3.3V*%
X147720000Y-96400000D03*
X147600000Y-93750000D03*
X140650000Y-93750000D03*
X150150000Y-80750000D03*
X129770000Y-68650000D03*
X152250000Y-102250000D03*
X134200000Y-89500000D03*
X133250000Y-82100000D03*
X152250000Y-103150000D03*
X151350000Y-103150000D03*
X151350000Y-102250000D03*
X155270000Y-83490000D03*
X135750000Y-76950000D03*
X137250000Y-77150000D03*
X141270000Y-96440000D03*
%TO.N,GND*%
X173390000Y-86750000D03*
X154370000Y-81690000D03*
X165546250Y-79710000D03*
X151250000Y-91350000D03*
X134250000Y-80200000D03*
X128800000Y-88300000D03*
X156750000Y-98550000D03*
X160100000Y-95550000D03*
X157850000Y-95200000D03*
X163750000Y-95550000D03*
X128950000Y-94250000D03*
X129750000Y-80450000D03*
X137850000Y-93750000D03*
X151050000Y-82700000D03*
X181350000Y-86305000D03*
X145600000Y-94650000D03*
X132900000Y-97050000D03*
X162800000Y-95550000D03*
X157750000Y-98550000D03*
X154200000Y-98500000D03*
X132920000Y-99940000D03*
X131400000Y-83150000D03*
X161900000Y-95550000D03*
X178000000Y-86305000D03*
X183000000Y-86305000D03*
X133100000Y-78150000D03*
X137710000Y-68650000D03*
X133300000Y-87600000D03*
X155200000Y-98500000D03*
X179700000Y-86305000D03*
X127050000Y-85450000D03*
X138900000Y-77250000D03*
X161000000Y-95550000D03*
X165110000Y-84580000D03*
%TO.N,NRST*%
X137950000Y-85250000D03*
%TO.N,+12V*%
X169500000Y-92450000D03*
X168100000Y-92450000D03*
%TO.N,CAN_L*%
X171830000Y-86760000D03*
%TO.N,CAN_S*%
X163870000Y-80290000D03*
X149300000Y-86750000D03*
%TO.N,/Power Supply/SW*%
X157800000Y-93600000D03*
X165010000Y-97250000D03*
X156050000Y-96330000D03*
X158700000Y-93600000D03*
X165960000Y-97250000D03*
X166960000Y-97250000D03*
%TD*%
D39*
%TO.N,GND*%
X166322500Y-84580000D02*
X165110000Y-84580000D01*
%TO.N,CAN_H*%
X170196250Y-80730000D02*
X170196250Y-81453750D01*
%TO.N,CAN_L*%
X170210000Y-83580000D02*
X170210000Y-82850000D01*
X170235000Y-82825000D02*
X171915000Y-82825000D01*
X169765000Y-82825000D02*
X170235000Y-82825000D01*
X162195000Y-82825000D02*
X169765000Y-82825000D01*
%TO.N,CAN_H*%
X170095000Y-81555000D02*
X172545000Y-81555000D01*
X162195000Y-81555000D02*
X170095000Y-81555000D01*
X172545000Y-81555000D02*
X174340000Y-83350000D01*
%TO.N,CAN_L*%
X171915000Y-82825000D02*
X172440000Y-83350000D01*
X172440000Y-83350000D02*
X172440000Y-86150000D01*
X172440000Y-86150000D02*
X171830000Y-86760000D01*
%TO.N,CAN_H*%
X177195000Y-92905000D02*
X180900000Y-92905000D01*
X174340000Y-90050000D02*
X177195000Y-92905000D01*
X174340000Y-83350000D02*
X174340000Y-90050000D01*
D40*
%TO.N,KLine_RX*%
X167680000Y-85430000D02*
X167840000Y-85590000D01*
X167840000Y-85590000D02*
X167840000Y-86780000D01*
X152400000Y-85430000D02*
X167680000Y-85430000D01*
X151720000Y-84750000D02*
X152400000Y-85430000D01*
X147835000Y-84750000D02*
X151720000Y-84750000D01*
D39*
%TO.N,GND*%
X165710000Y-86780000D02*
X165700000Y-86790000D01*
X166820000Y-86780000D02*
X165710000Y-86780000D01*
%TO.N,KLine_RX*%
X167860000Y-86760000D02*
X167840000Y-86780000D01*
X169340000Y-86760000D02*
X167860000Y-86760000D01*
%TO.N,ISO_K*%
X169340000Y-87780000D02*
X169340000Y-89280000D01*
X175135000Y-97305000D02*
X180900000Y-97305000D01*
X173780000Y-95950000D02*
X175135000Y-97305000D01*
X173780000Y-91620000D02*
X173780000Y-95950000D01*
X171440000Y-89280000D02*
X173780000Y-91620000D01*
X169340000Y-89280000D02*
X171440000Y-89280000D01*
D40*
%TO.N,CAN_RX*%
X147835000Y-84250000D02*
X157090000Y-84250000D01*
X157090000Y-84250000D02*
X157245000Y-84095000D01*
%TO.N,CAN_TX*%
X152760000Y-81090000D02*
X153565000Y-80285000D01*
X152760000Y-82220000D02*
X152760000Y-81090000D01*
X151230000Y-83750000D02*
X152760000Y-82220000D01*
X153565000Y-80285000D02*
X157245000Y-80285000D01*
X147835000Y-83750000D02*
X151230000Y-83750000D01*
%TO.N,Net-(Q2-Pad1)*%
X157540000Y-86370000D02*
X159500000Y-88330000D01*
X159500000Y-88330000D02*
X164012500Y-88330000D01*
X152670000Y-86370000D02*
X157540000Y-86370000D01*
%TO.N,KLine_TX*%
X147835000Y-85250000D02*
X150530000Y-85250000D01*
X150530000Y-85250000D02*
X151650000Y-86370000D01*
D39*
%TO.N,ISO_K*%
X165887500Y-89280000D02*
X169340000Y-89280000D01*
%TO.N,+12V*%
X169340000Y-92290000D02*
X169500000Y-92450000D01*
X169340000Y-90300000D02*
X169340000Y-92290000D01*
%TO.N,GND*%
X162450000Y-90230000D02*
X162440000Y-90240000D01*
X164012500Y-90230000D02*
X162450000Y-90230000D01*
%TO.N,ISO_L*%
X159730000Y-89290000D02*
X160980000Y-89290000D01*
X157177500Y-89290000D02*
X159730000Y-89290000D01*
%TO.N,+12V*%
X159730000Y-90310000D02*
X159730000Y-91760000D01*
%TO.N,GND*%
X155302500Y-90240000D02*
X153550000Y-90240000D01*
D40*
%TO.N,LLine*%
X150380000Y-86769339D02*
X150380000Y-87670000D01*
X149360661Y-85750000D02*
X150380000Y-86769339D01*
X151040000Y-88330000D02*
X151690000Y-88330000D01*
X147835000Y-85750000D02*
X149360661Y-85750000D01*
X150380000Y-87670000D02*
X151040000Y-88330000D01*
%TO.N,Net-(Q1-Pad1)*%
X152720000Y-88340000D02*
X152710000Y-88330000D01*
X155302500Y-88340000D02*
X152720000Y-88340000D01*
%TO.N,/N_RST*%
X143135000Y-72535000D02*
X141920000Y-73750000D01*
X141920000Y-73750000D02*
X141920000Y-75045000D01*
X145665000Y-72535000D02*
X143135000Y-72535000D01*
%TO.N,NRST*%
X141930000Y-76705000D02*
X141920000Y-76695000D01*
X141930000Y-77980000D02*
X141930000Y-76705000D01*
%TO.N,SWO*%
X142910000Y-77890000D02*
X142910000Y-80325000D01*
X144220000Y-76580000D02*
X142910000Y-77890000D01*
X146195000Y-76580000D02*
X144220000Y-76580000D01*
%TO.N,/SW_O*%
X147845000Y-75435000D02*
X147845000Y-76580000D01*
X150745000Y-72535000D02*
X147845000Y-75435000D01*
%TO.N,SWCLK*%
X146600000Y-78480000D02*
X145910000Y-79170000D01*
X145910000Y-79170000D02*
X145910000Y-80325000D01*
X149380000Y-78480000D02*
X146600000Y-78480000D01*
X150125000Y-76580000D02*
X150125000Y-77735000D01*
X150125000Y-77735000D02*
X149380000Y-78480000D01*
%TO.N,/SW_CLK*%
X153285000Y-75070000D02*
X151775000Y-76580000D01*
X153285000Y-72535000D02*
X153285000Y-75070000D01*
%TO.N,SWDIO*%
X154165000Y-77335000D02*
X154165000Y-76580000D01*
X148400000Y-79820000D02*
X151680000Y-79820000D01*
X151680000Y-79820000D02*
X154165000Y-77335000D01*
X146500000Y-81720000D02*
X148400000Y-79820000D01*
X146750000Y-83250000D02*
X146500000Y-83000000D01*
X146500000Y-83000000D02*
X146500000Y-81720000D01*
X147835000Y-83250000D02*
X146750000Y-83250000D01*
%TO.N,/SW_DIO*%
X155825000Y-76570000D02*
X155815000Y-76580000D01*
X155825000Y-72535000D02*
X155825000Y-76570000D01*
D39*
%TO.N,GND*%
X136200000Y-68650000D02*
X136170000Y-68680000D01*
X137710000Y-68650000D02*
X136200000Y-68650000D01*
D40*
%TO.N,BOOT0*%
X139460000Y-74390000D02*
X140410000Y-75340000D01*
X137730000Y-74390000D02*
X139460000Y-74390000D01*
X140410000Y-75340000D02*
X140410000Y-80325000D01*
%TO.N,/BOOT_0*%
X133680000Y-74390000D02*
X133670000Y-74380000D01*
X136710000Y-74390000D02*
X133680000Y-74390000D01*
D39*
%TO.N,+3.3V*%
X134180000Y-82100000D02*
X134200000Y-82080000D01*
D40*
X145910000Y-92510000D02*
X146540000Y-93140000D01*
X157245000Y-82825000D02*
X156285000Y-82825000D01*
X156110000Y-82650000D02*
X155270000Y-82650000D01*
D39*
X135750000Y-76950000D02*
X135750000Y-78135000D01*
D40*
X136485000Y-82250000D02*
X134370000Y-82250000D01*
X139690000Y-93090000D02*
X139690000Y-93760000D01*
X139410000Y-91675000D02*
X139410000Y-92810000D01*
X151260000Y-97360000D02*
X151250000Y-97370000D01*
X136485000Y-88250000D02*
X135300000Y-88250000D01*
D39*
X141270000Y-96440000D02*
X142210000Y-96440000D01*
D40*
X145910000Y-91675000D02*
X145910000Y-92510000D01*
X148900000Y-82250000D02*
X149450000Y-81700000D01*
D39*
X147720000Y-96400000D02*
X146770000Y-96400000D01*
D40*
X137950000Y-78130000D02*
X135765000Y-78130000D01*
X138410000Y-80325000D02*
X138410000Y-79410000D01*
X138410000Y-79410000D02*
X137950000Y-78950000D01*
X151250000Y-97370000D02*
X151250000Y-102150000D01*
X134370000Y-82250000D02*
X134200000Y-82080000D01*
X135000000Y-88550000D02*
X134210000Y-88550000D01*
X156285000Y-82825000D02*
X156110000Y-82650000D01*
X139410000Y-92810000D02*
X139690000Y-93090000D01*
D39*
X140650000Y-93750000D02*
X139700000Y-93750000D01*
X150150000Y-80750000D02*
X150150000Y-81700000D01*
X155270000Y-83490000D02*
X155270000Y-82650000D01*
X135750000Y-78135000D02*
X135755000Y-78140000D01*
X134200000Y-88560000D02*
X134210000Y-88550000D01*
X134200000Y-89500000D02*
X134200000Y-88560000D01*
D40*
X135300000Y-88250000D02*
X135000000Y-88550000D01*
D39*
X131440000Y-68350000D02*
X131470000Y-68380000D01*
D40*
X135765000Y-78130000D02*
X135755000Y-78140000D01*
X137950000Y-78950000D02*
X137950000Y-78130000D01*
D39*
X137250000Y-77150000D02*
X137250000Y-77430000D01*
X146770000Y-96400000D02*
X146750000Y-96420000D01*
X147600000Y-93750000D02*
X146540000Y-93750000D01*
X137250000Y-77430000D02*
X137950000Y-78130000D01*
X129770000Y-68650000D02*
X131140000Y-68650000D01*
D40*
X147835000Y-82250000D02*
X148900000Y-82250000D01*
D39*
X133250000Y-82100000D02*
X134180000Y-82100000D01*
X139700000Y-93750000D02*
X139690000Y-93760000D01*
D40*
X149450000Y-81700000D02*
X150150000Y-81700000D01*
X146540000Y-93140000D02*
X146540000Y-93750000D01*
%TO.N,GND*%
X138910000Y-92790000D02*
X138730000Y-92970000D01*
X128820000Y-87020000D02*
X128390000Y-86590000D01*
X147835000Y-82750000D02*
X150060000Y-82750000D01*
X135190000Y-87590000D02*
X134210000Y-87590000D01*
X150060000Y-82750000D02*
X150150000Y-82660000D01*
D39*
X145600000Y-94650000D02*
X145600000Y-93770000D01*
X137850000Y-93750000D02*
X138720000Y-93750000D01*
X132900000Y-97050000D02*
X131750000Y-97050000D01*
X134250000Y-80200000D02*
X134250000Y-81070000D01*
X134250000Y-81070000D02*
X134200000Y-81120000D01*
X154370000Y-81690000D02*
X155270000Y-81690000D01*
D40*
X129730000Y-81350000D02*
X129730000Y-81680000D01*
X128820000Y-87350000D02*
X128820000Y-87020000D01*
X138910000Y-80325000D02*
X138910000Y-78130000D01*
D39*
X128950000Y-94250000D02*
X128950000Y-93360000D01*
X133100000Y-78150000D02*
X134195000Y-78150000D01*
D40*
X130090000Y-82040000D02*
X130090000Y-83200000D01*
X128390000Y-86590000D02*
X128390000Y-85400000D01*
X145410000Y-91675000D02*
X145410000Y-93580000D01*
X135350000Y-87750000D02*
X135190000Y-87590000D01*
D39*
X128950000Y-93360000D02*
X128940000Y-93350000D01*
X138900000Y-78120000D02*
X138910000Y-78130000D01*
X134200000Y-87600000D02*
X134210000Y-87590000D01*
X128800000Y-87370000D02*
X128820000Y-87350000D01*
X150190000Y-82700000D02*
X150150000Y-82660000D01*
D40*
X138910000Y-91675000D02*
X138910000Y-92790000D01*
X156080000Y-81690000D02*
X155270000Y-81690000D01*
D39*
X166628750Y-79710000D02*
X165546250Y-79710000D01*
X129750000Y-80450000D02*
X129750000Y-81330000D01*
D40*
X156215000Y-81555000D02*
X156080000Y-81690000D01*
D39*
X129750000Y-81330000D02*
X129730000Y-81350000D01*
X151250000Y-92310000D02*
X151260000Y-92320000D01*
X133300000Y-87600000D02*
X134200000Y-87600000D01*
D40*
X138730000Y-92970000D02*
X138730000Y-93760000D01*
D39*
X134040000Y-99940000D02*
X134050000Y-99930000D01*
D40*
X157245000Y-81555000D02*
X156215000Y-81555000D01*
D39*
X173390000Y-86750000D02*
X173390000Y-85450000D01*
X128800000Y-88300000D02*
X128800000Y-87370000D01*
X134195000Y-78150000D02*
X134205000Y-78140000D01*
X151050000Y-82700000D02*
X150190000Y-82700000D01*
X145600000Y-93770000D02*
X145580000Y-93750000D01*
X132920000Y-99940000D02*
X134040000Y-99940000D01*
X138900000Y-77250000D02*
X138900000Y-78120000D01*
D40*
X145410000Y-93580000D02*
X145580000Y-93750000D01*
X129730000Y-81680000D02*
X130090000Y-82040000D01*
X136485000Y-87750000D02*
X135350000Y-87750000D01*
D39*
X138720000Y-93750000D02*
X138730000Y-93760000D01*
X151250000Y-91350000D02*
X151250000Y-92310000D01*
D40*
%TO.N,HSE_IN*%
X128390000Y-83300000D02*
X128390000Y-83200000D01*
X136485000Y-84250000D02*
X129340000Y-84250000D01*
X129340000Y-84250000D02*
X128390000Y-83300000D01*
X128770000Y-81780000D02*
X128390000Y-82160000D01*
X128390000Y-82160000D02*
X128390000Y-83200000D01*
X128770000Y-81350000D02*
X128770000Y-81780000D01*
%TO.N,NRST*%
X130200000Y-89150000D02*
X128940000Y-90410000D01*
X136485000Y-85250000D02*
X135550000Y-85250000D01*
X131750000Y-89150000D02*
X130200000Y-89150000D01*
X134900000Y-85900000D02*
X134900000Y-86400000D01*
X134650000Y-86650000D02*
X132650000Y-86650000D01*
X135550000Y-85250000D02*
X134900000Y-85900000D01*
X134900000Y-86400000D02*
X134650000Y-86650000D01*
X128940000Y-90410000D02*
X128940000Y-92390000D01*
X136485000Y-85250000D02*
X137950000Y-85250000D01*
X132650000Y-86650000D02*
X131750000Y-87550000D01*
X131750000Y-87550000D02*
X131750000Y-89150000D01*
%TO.N,+12V*%
X154730000Y-93570000D02*
X155680000Y-92620000D01*
X155680000Y-92620000D02*
X156387500Y-92620000D01*
X154112500Y-93570000D02*
X154730000Y-93570000D01*
%TO.N,HSE_OUT*%
X133825000Y-85400000D02*
X134550000Y-85400000D01*
X135200000Y-84750000D02*
X136485000Y-84750000D01*
X134550000Y-85400000D02*
X135200000Y-84750000D01*
%TO.N,OLED_SDA*%
X144910000Y-92850000D02*
X144320000Y-93440000D01*
X145730000Y-98175000D02*
X145730000Y-96420000D01*
X145730000Y-96050000D02*
X145730000Y-96420000D01*
X144320000Y-94640000D02*
X145730000Y-96050000D01*
X144320000Y-93440000D02*
X144320000Y-94640000D01*
X144910000Y-91675000D02*
X144910000Y-92850000D01*
%TO.N,OLED_SCL*%
X144410000Y-91675000D02*
X144410000Y-92610000D01*
X143230000Y-98155000D02*
X143240000Y-98165000D01*
X144410000Y-92610000D02*
X143230000Y-93790000D01*
X143230000Y-96440000D02*
X143230000Y-98155000D01*
X143230000Y-93790000D02*
X143230000Y-96440000D01*
%TO.N,Net-(D2-Pad1)*%
X136900000Y-99250000D02*
X136900000Y-98227500D01*
X136220000Y-99930000D02*
X136900000Y-99250000D01*
X135070000Y-99930000D02*
X136220000Y-99930000D01*
D39*
%TO.N,CAN_S*%
X162195000Y-80285000D02*
X163865000Y-80285000D01*
D40*
X147835000Y-86750000D02*
X149300000Y-86750000D01*
%TO.N,/Power Supply/BST*%
X152750000Y-95950000D02*
X152970000Y-96170000D01*
X152980000Y-94520000D02*
X152750000Y-94750000D01*
X152970000Y-96170000D02*
X154000000Y-96170000D01*
X152980000Y-94520000D02*
X154112500Y-94520000D01*
X152750000Y-94750000D02*
X152750000Y-95950000D01*
%TO.N,/Power Supply/FB*%
X151260000Y-96340000D02*
X151260000Y-94640000D01*
X154112500Y-92620000D02*
X152680000Y-92620000D01*
X151260000Y-94640000D02*
X151260000Y-93340000D01*
X152680000Y-92620000D02*
X152150000Y-93150000D01*
X152150000Y-93750000D02*
X151260000Y-94640000D01*
X152150000Y-93150000D02*
X152150000Y-93750000D01*
%TO.N,LED*%
X141410000Y-91675000D02*
X141410000Y-94050661D01*
X138808161Y-96652500D02*
X136900000Y-96652500D01*
X141410000Y-94050661D02*
X138808161Y-96652500D01*
%TO.N,/SCL*%
X143240000Y-99815000D02*
X143240000Y-102710000D01*
X143240000Y-102710000D02*
X143230000Y-102720000D01*
%TO.N,/SDA*%
X145730000Y-102680000D02*
X145770000Y-102720000D01*
X145730000Y-99825000D02*
X145730000Y-102680000D01*
%TO.N,/HSE_O*%
X132175000Y-85400000D02*
X130090000Y-85400000D01*
X129780000Y-87020000D02*
X130100000Y-86700000D01*
X129780000Y-87350000D02*
X129780000Y-87020000D01*
X130090000Y-86690000D02*
X130090000Y-85400000D01*
X130100000Y-86700000D02*
X130090000Y-86690000D01*
D39*
%TO.N,Net-(C12-Pad1)*%
X167787500Y-84600000D02*
X167777500Y-84610000D01*
X170210000Y-84600000D02*
X167787500Y-84600000D01*
%TO.N,Net-(C13-Pad1)*%
X170196250Y-79710000D02*
X167763750Y-79710000D01*
%TD*%
%TA.AperFunction,Conductor*%
%TO.N,GND*%
G36*
X184359561Y-81956902D02*
G01*
X184426356Y-81970188D01*
X184462044Y-81984970D01*
X184510403Y-82017282D01*
X184537718Y-82044597D01*
X184570030Y-82092956D01*
X184584812Y-82128644D01*
X184598098Y-82195439D01*
X184600000Y-82214752D01*
X184600000Y-90345248D01*
X184598098Y-90364561D01*
X184584812Y-90431356D01*
X184570030Y-90467044D01*
X184537718Y-90515403D01*
X184510403Y-90542718D01*
X184462044Y-90575030D01*
X184426356Y-90589812D01*
X184359561Y-90603098D01*
X184340248Y-90605000D01*
X176659752Y-90605000D01*
X176640439Y-90603098D01*
X176573644Y-90589812D01*
X176537956Y-90575030D01*
X176489597Y-90542718D01*
X176462282Y-90515403D01*
X176429970Y-90467044D01*
X176415188Y-90431356D01*
X176401902Y-90364561D01*
X176400000Y-90345248D01*
X176400000Y-82214752D01*
X176401902Y-82195439D01*
X176415188Y-82128644D01*
X176429970Y-82092956D01*
X176462282Y-82044597D01*
X176489597Y-82017282D01*
X176537956Y-81984970D01*
X176573644Y-81970188D01*
X176640439Y-81956902D01*
X176659752Y-81955000D01*
X184340248Y-81955000D01*
X184359561Y-81956902D01*
G37*
%TD.AperFunction*%
%TD*%
%TA.AperFunction,Conductor*%
%TO.N,+3.3V*%
G36*
X161909561Y-100451902D02*
G01*
X161976356Y-100465188D01*
X162012044Y-100479970D01*
X162060403Y-100512282D01*
X162087718Y-100539597D01*
X162120030Y-100587956D01*
X162134812Y-100623644D01*
X162148098Y-100690439D01*
X162150000Y-100709752D01*
X162150000Y-103390248D01*
X162148098Y-103409561D01*
X162134812Y-103476356D01*
X162120030Y-103512044D01*
X162087718Y-103560403D01*
X162060403Y-103587718D01*
X162012044Y-103620030D01*
X161976356Y-103634812D01*
X161909561Y-103648098D01*
X161890248Y-103650000D01*
X151109752Y-103650000D01*
X151090439Y-103648098D01*
X151023644Y-103634812D01*
X150987956Y-103620030D01*
X150939597Y-103587718D01*
X150912282Y-103560403D01*
X150879970Y-103512044D01*
X150865188Y-103476356D01*
X150851902Y-103409561D01*
X150850000Y-103390248D01*
X150850000Y-102009752D01*
X150851902Y-101990439D01*
X150865188Y-101923644D01*
X150879970Y-101887956D01*
X150912282Y-101839597D01*
X150939597Y-101812282D01*
X150987956Y-101779970D01*
X151023644Y-101765188D01*
X151090439Y-101751902D01*
X151109752Y-101750000D01*
X158750000Y-101750000D01*
X158750000Y-100709752D01*
X158751902Y-100690439D01*
X158765188Y-100623644D01*
X158779970Y-100587956D01*
X158812282Y-100539597D01*
X158839597Y-100512282D01*
X158887956Y-100479970D01*
X158923644Y-100465188D01*
X158990439Y-100451902D01*
X159009752Y-100450000D01*
X161890248Y-100450000D01*
X161909561Y-100451902D01*
G37*
%TD.AperFunction*%
%TD*%
%TA.AperFunction,Conductor*%
%TO.N,GND*%
G36*
X128909561Y-84551902D02*
G01*
X128976356Y-84565188D01*
X129012044Y-84579970D01*
X129060403Y-84612282D01*
X129087718Y-84639597D01*
X129120030Y-84687956D01*
X129134812Y-84723644D01*
X129148098Y-84790439D01*
X129150000Y-84809752D01*
X129150000Y-86090248D01*
X129148098Y-86109561D01*
X129134812Y-86176356D01*
X129120030Y-86212044D01*
X129087718Y-86260403D01*
X129060403Y-86287718D01*
X129012044Y-86320030D01*
X128976356Y-86334812D01*
X128909561Y-86348098D01*
X128890248Y-86350000D01*
X126809752Y-86350000D01*
X126790439Y-86348098D01*
X126723644Y-86334812D01*
X126687956Y-86320030D01*
X126639597Y-86287718D01*
X126612282Y-86260403D01*
X126579970Y-86212044D01*
X126565188Y-86176356D01*
X126551902Y-86109561D01*
X126550000Y-86090248D01*
X126550000Y-84809752D01*
X126551902Y-84790439D01*
X126565188Y-84723644D01*
X126579970Y-84687956D01*
X126612282Y-84639597D01*
X126639597Y-84612282D01*
X126687956Y-84579970D01*
X126723644Y-84565188D01*
X126790439Y-84551902D01*
X126809752Y-84550000D01*
X128890248Y-84550000D01*
X128909561Y-84551902D01*
G37*
%TD.AperFunction*%
%TD*%
%TA.AperFunction,Conductor*%
%TO.N,/Power Supply/SW*%
G36*
X167249561Y-96451902D02*
G01*
X167316356Y-96465188D01*
X167352044Y-96479970D01*
X167400403Y-96512282D01*
X167427718Y-96539597D01*
X167460030Y-96587956D01*
X167474812Y-96623644D01*
X167488098Y-96690439D01*
X167490000Y-96709752D01*
X167490000Y-102640248D01*
X167488098Y-102659561D01*
X167474812Y-102726356D01*
X167460030Y-102762044D01*
X167427718Y-102810403D01*
X167400403Y-102837718D01*
X167352044Y-102870030D01*
X167316356Y-102884812D01*
X167249561Y-102898098D01*
X167230248Y-102900000D01*
X164699752Y-102900000D01*
X164680439Y-102898098D01*
X164613644Y-102884812D01*
X164577956Y-102870030D01*
X164529597Y-102837718D01*
X164502282Y-102810403D01*
X164469970Y-102762044D01*
X164455188Y-102726356D01*
X164441902Y-102659561D01*
X164440000Y-102640248D01*
X164440000Y-96709752D01*
X164441902Y-96690439D01*
X164455188Y-96623644D01*
X164469970Y-96587956D01*
X164502282Y-96539597D01*
X164529597Y-96512282D01*
X164577956Y-96479970D01*
X164613644Y-96465188D01*
X164680439Y-96451902D01*
X164699752Y-96450000D01*
X167230248Y-96450000D01*
X167249561Y-96451902D01*
G37*
%TD.AperFunction*%
%TD*%
%TA.AperFunction,Conductor*%
%TO.N,/Power Supply/SW*%
G36*
X156392121Y-95850002D02*
G01*
X156438614Y-95903658D01*
X156450000Y-95956000D01*
X156450000Y-96704000D01*
X156429998Y-96772121D01*
X156376342Y-96818614D01*
X156324000Y-96830000D01*
X155852546Y-96830000D01*
X155784425Y-96809998D01*
X155737932Y-96756342D01*
X155727828Y-96686068D01*
X155731549Y-96668846D01*
X155743313Y-96628356D01*
X155744768Y-96620391D01*
X155741948Y-96606969D01*
X155730487Y-96604000D01*
X154914500Y-96604000D01*
X154846379Y-96583998D01*
X154799886Y-96530342D01*
X154788500Y-96478000D01*
X154788500Y-96222000D01*
X154808502Y-96153879D01*
X154862158Y-96107386D01*
X154914500Y-96096000D01*
X155728424Y-96096000D01*
X155743219Y-96091656D01*
X155745063Y-96081225D01*
X155743312Y-96071641D01*
X155719928Y-95991153D01*
X155720131Y-95920157D01*
X155758684Y-95860541D01*
X155823349Y-95831232D01*
X155840925Y-95830000D01*
X156324000Y-95830000D01*
X156392121Y-95850002D01*
G37*
%TD.AperFunction*%
%TD*%
%TA.AperFunction,Conductor*%
%TO.N,/Power Supply/SW*%
G36*
X159059191Y-93168907D02*
G01*
X159095155Y-93218407D01*
X159100000Y-93249000D01*
X159100000Y-93901000D01*
X159081093Y-93959191D01*
X159031593Y-93995155D01*
X159001000Y-94000000D01*
X155799000Y-94000000D01*
X155740809Y-93981093D01*
X155704845Y-93931593D01*
X155700000Y-93901000D01*
X155700000Y-93249000D01*
X155718907Y-93190809D01*
X155768407Y-93154845D01*
X155799000Y-93150000D01*
X159001000Y-93150000D01*
X159059191Y-93168907D01*
G37*
%TD.AperFunction*%
%TD*%
%TA.AperFunction,Conductor*%
%TO.N,GND*%
G36*
X131759561Y-82301902D02*
G01*
X131826356Y-82315188D01*
X131862044Y-82329970D01*
X131910403Y-82362282D01*
X131937718Y-82389597D01*
X131970030Y-82437956D01*
X131984812Y-82473644D01*
X131998098Y-82540439D01*
X132000000Y-82559752D01*
X132000000Y-83790248D01*
X131998098Y-83809560D01*
X131996059Y-83819812D01*
X131966164Y-83873196D01*
X131910600Y-83898814D01*
X131898961Y-83899500D01*
X129526190Y-83899500D01*
X129467999Y-83880593D01*
X129456186Y-83870504D01*
X129437205Y-83851523D01*
X129410111Y-83800832D01*
X129401902Y-83759561D01*
X129400000Y-83740248D01*
X129400000Y-82659752D01*
X129401902Y-82640439D01*
X129415188Y-82573644D01*
X129429970Y-82537956D01*
X129462282Y-82489597D01*
X129489597Y-82462282D01*
X129537956Y-82429970D01*
X129573644Y-82415188D01*
X129640439Y-82401902D01*
X129659752Y-82400000D01*
X130800000Y-82400000D01*
X130800000Y-82355724D01*
X130835136Y-82314587D01*
X130886861Y-82300000D01*
X131740248Y-82300000D01*
X131759561Y-82301902D01*
G37*
%TD.AperFunction*%
%TD*%
%TA.AperFunction,Conductor*%
%TO.N,+12V*%
G36*
X170009561Y-91601902D02*
G01*
X170076356Y-91615188D01*
X170112044Y-91629970D01*
X170160403Y-91662282D01*
X170187718Y-91689597D01*
X170220030Y-91737956D01*
X170234812Y-91773644D01*
X170248098Y-91840439D01*
X170250000Y-91859752D01*
X170250000Y-92941468D01*
X170248109Y-92960723D01*
X170234903Y-93027325D01*
X170220207Y-93062925D01*
X170188074Y-93111201D01*
X170160906Y-93138498D01*
X170112782Y-93170860D01*
X170077256Y-93185724D01*
X170010719Y-93199248D01*
X169991471Y-93201231D01*
X164592682Y-93226940D01*
X159913067Y-93249224D01*
X159887354Y-93245952D01*
X159850786Y-93236309D01*
X159806195Y-93210753D01*
X159788981Y-93193621D01*
X159763211Y-93149149D01*
X159757403Y-93127543D01*
X159750020Y-93100075D01*
X159750024Y-93099994D01*
X159750000Y-93100000D01*
X159750000Y-92950000D01*
X155959752Y-92950000D01*
X155940439Y-92948098D01*
X155873644Y-92934812D01*
X155837956Y-92920030D01*
X155789597Y-92887718D01*
X155762282Y-92860403D01*
X155729970Y-92812044D01*
X155715188Y-92776356D01*
X155701902Y-92709561D01*
X155700000Y-92690248D01*
X155700000Y-91859752D01*
X155701902Y-91840439D01*
X155715188Y-91773644D01*
X155729970Y-91737956D01*
X155762282Y-91689597D01*
X155789597Y-91662282D01*
X155837956Y-91629970D01*
X155873644Y-91615188D01*
X155940439Y-91601902D01*
X155959752Y-91600000D01*
X169990248Y-91600000D01*
X170009561Y-91601902D01*
G37*
%TD.AperFunction*%
%TD*%
%TA.AperFunction,Conductor*%
%TO.N,GND*%
G36*
X163958411Y-93651914D02*
G01*
X164025389Y-93665278D01*
X164061164Y-93680145D01*
X164109076Y-93712282D01*
X164109607Y-93712638D01*
X164136936Y-93740097D01*
X164169198Y-93788690D01*
X164183897Y-93824535D01*
X164196946Y-93891579D01*
X164198769Y-93910959D01*
X164193632Y-95000000D01*
X164192372Y-95267128D01*
X164181218Y-97631898D01*
X164179240Y-97651123D01*
X164167340Y-97709752D01*
X164165747Y-97717598D01*
X164150914Y-97753095D01*
X164118619Y-97801187D01*
X164091375Y-97828350D01*
X164043182Y-97860503D01*
X164007641Y-97875229D01*
X163941122Y-97888523D01*
X163921898Y-97890443D01*
X161846428Y-97894003D01*
X161146926Y-97895203D01*
X158350000Y-97900000D01*
X158350000Y-100342875D01*
X158348123Y-100362064D01*
X158335007Y-100428450D01*
X158320411Y-100463944D01*
X158288488Y-100512122D01*
X158261492Y-100539398D01*
X158213646Y-100571816D01*
X158178305Y-100586776D01*
X158112062Y-100600575D01*
X158092898Y-100602651D01*
X155119720Y-100633302D01*
X153762388Y-100647295D01*
X153742935Y-100645568D01*
X153675595Y-100632804D01*
X153639563Y-100618204D01*
X153590692Y-100586003D01*
X153563060Y-100558655D01*
X153550085Y-100539398D01*
X153530354Y-100510115D01*
X153515384Y-100474235D01*
X153501927Y-100407031D01*
X153500000Y-100387593D01*
X153500000Y-97709752D01*
X153501902Y-97690439D01*
X153515188Y-97623644D01*
X153529970Y-97587956D01*
X153562282Y-97539597D01*
X153589597Y-97512282D01*
X153637956Y-97479970D01*
X153673644Y-97465188D01*
X153740439Y-97451902D01*
X153759752Y-97450000D01*
X157350000Y-97450000D01*
X157350000Y-95250000D01*
X156109752Y-95250000D01*
X156090439Y-95248098D01*
X156023644Y-95234812D01*
X155987956Y-95220030D01*
X155939597Y-95187718D01*
X155912282Y-95160403D01*
X155879970Y-95112044D01*
X155865188Y-95076356D01*
X155851902Y-95009561D01*
X155850000Y-94990248D01*
X155850000Y-94509752D01*
X155851902Y-94490439D01*
X155865188Y-94423644D01*
X155879970Y-94387956D01*
X155912282Y-94339597D01*
X155939597Y-94312282D01*
X155987956Y-94279970D01*
X156023644Y-94265188D01*
X156090439Y-94251902D01*
X156109752Y-94250000D01*
X159350000Y-94250000D01*
X159350000Y-93909752D01*
X159351902Y-93890439D01*
X159365188Y-93823644D01*
X159379970Y-93787956D01*
X159412282Y-93739597D01*
X159439597Y-93712282D01*
X159487956Y-93679970D01*
X159523644Y-93665188D01*
X159590439Y-93651902D01*
X159609752Y-93650000D01*
X163939040Y-93650000D01*
X163958411Y-93651914D01*
G37*
%TD.AperFunction*%
%TD*%
M02*
