%TF.GenerationSoftware,KiCad,Pcbnew,(6.0.8)*%
%TF.CreationDate,2022-10-15T22:51:14+02:00*%
%TF.ProjectId,stm_v3,73746d5f-7633-42e6-9b69-6361645f7063,rev?*%
%TF.SameCoordinates,Original*%
%TF.FileFunction,Copper,L2,Inr*%
%TF.FilePolarity,Positive*%
%FSLAX46Y46*%
G04 Gerber Fmt 4.6, Leading zero omitted, Abs format (unit mm)*
G04 Created by KiCad (PCBNEW (6.0.8)) date 2022-10-15 22:51:14*
%MOMM*%
%LPD*%
G01*
G04 APERTURE LIST*
%TA.AperFunction,ComponentPad*%
%ADD10R,1.700000X1.700000*%
%TD*%
%TA.AperFunction,ComponentPad*%
%ADD11O,1.700000X1.700000*%
%TD*%
%TA.AperFunction,ViaPad*%
%ADD12C,0.800000*%
%TD*%
G04 APERTURE END LIST*
D10*
%TO.N,/SDA*%
%TO.C,J2*%
X145770000Y-102720000D03*
D11*
%TO.N,/SCL*%
X143230000Y-102720000D03*
%TO.N,+3.3V*%
X140690000Y-102720000D03*
%TO.N,GND*%
X138150000Y-102720000D03*
%TD*%
%TO.N,/N_RST*%
%TO.C,J1*%
X145665000Y-72535000D03*
%TO.N,GND*%
X145665000Y-69995000D03*
%TO.N,unconnected-(J1-Pad8)*%
X148205000Y-72535000D03*
%TO.N,unconnected-(J1-Pad7)*%
X148205000Y-69995000D03*
%TO.N,/SW_O*%
X150745000Y-72535000D03*
%TO.N,GND*%
X150745000Y-69995000D03*
%TO.N,/SW_CLK*%
X153285000Y-72535000D03*
%TO.N,GND*%
X153285000Y-69995000D03*
%TO.N,/SW_DIO*%
X155825000Y-72535000D03*
D10*
%TO.N,+3.3V*%
X155825000Y-69995000D03*
%TD*%
D12*
%TO.N,GND*%
X165700000Y-86790000D03*
X162440000Y-90240000D03*
%TO.N,ISO_L*%
X160980000Y-89290000D03*
%TO.N,GND*%
X153550000Y-90240000D03*
%TO.N,NRST*%
X141930000Y-77980000D03*
%TO.N,+3.3V*%
X147720000Y-96400000D03*
X147600000Y-93750000D03*
X140650000Y-93750000D03*
X150150000Y-80750000D03*
X129770000Y-68650000D03*
X152250000Y-102250000D03*
X134200000Y-89500000D03*
X133250000Y-82100000D03*
X152250000Y-103150000D03*
X151350000Y-103150000D03*
X151350000Y-102250000D03*
X155270000Y-83490000D03*
X135750000Y-76950000D03*
X137250000Y-77150000D03*
X141270000Y-96440000D03*
%TO.N,GND*%
X173390000Y-86750000D03*
X154370000Y-81690000D03*
X165546250Y-79710000D03*
X151250000Y-91350000D03*
X134250000Y-80200000D03*
X128800000Y-88300000D03*
X156750000Y-98550000D03*
X160100000Y-95550000D03*
X157850000Y-95200000D03*
X163750000Y-95550000D03*
X128950000Y-94250000D03*
X129750000Y-80450000D03*
X137850000Y-93750000D03*
X151050000Y-82700000D03*
X181350000Y-86305000D03*
X145600000Y-94650000D03*
X132900000Y-97050000D03*
X162800000Y-95550000D03*
X157750000Y-98550000D03*
X154200000Y-98500000D03*
X132920000Y-99940000D03*
X131400000Y-83150000D03*
X161900000Y-95550000D03*
X178000000Y-86305000D03*
X183000000Y-86305000D03*
X133100000Y-78150000D03*
X137710000Y-68650000D03*
X133300000Y-87600000D03*
X155200000Y-98500000D03*
X179700000Y-86305000D03*
X127050000Y-85450000D03*
X138900000Y-77250000D03*
X161000000Y-95550000D03*
X165110000Y-84580000D03*
%TO.N,NRST*%
X137950000Y-85250000D03*
%TO.N,+12V*%
X169500000Y-92450000D03*
X168100000Y-92450000D03*
%TO.N,CAN_L*%
X171830000Y-86760000D03*
%TO.N,CAN_S*%
X163870000Y-80290000D03*
X149300000Y-86750000D03*
%TO.N,/Power Supply/SW*%
X157800000Y-93600000D03*
X165010000Y-97250000D03*
X156050000Y-96330000D03*
X158700000Y-93600000D03*
X165960000Y-97250000D03*
X166960000Y-97250000D03*
%TD*%
%TA.AperFunction,Conductor*%
%TO.N,GND*%
G36*
X185033621Y-66328502D02*
G01*
X185080114Y-66382158D01*
X185091500Y-66434500D01*
X185091500Y-106165500D01*
X185071498Y-106233621D01*
X185017842Y-106280114D01*
X184965500Y-106291500D01*
X126234500Y-106291500D01*
X126166379Y-106271498D01*
X126119886Y-106217842D01*
X126108500Y-106165500D01*
X126108500Y-102987966D01*
X136818257Y-102987966D01*
X136848565Y-103122446D01*
X136851645Y-103132275D01*
X136931770Y-103329603D01*
X136936413Y-103338794D01*
X137047694Y-103520388D01*
X137053777Y-103528699D01*
X137193213Y-103689667D01*
X137200580Y-103696883D01*
X137364434Y-103832916D01*
X137372881Y-103838831D01*
X137556756Y-103946279D01*
X137566042Y-103950729D01*
X137765001Y-104026703D01*
X137774899Y-104029579D01*
X137878250Y-104050606D01*
X137892299Y-104049410D01*
X137896000Y-104039065D01*
X137896000Y-104038517D01*
X138404000Y-104038517D01*
X138408064Y-104052359D01*
X138421478Y-104054393D01*
X138428184Y-104053534D01*
X138438262Y-104051392D01*
X138642255Y-103990191D01*
X138651842Y-103986433D01*
X138843095Y-103892739D01*
X138851945Y-103887464D01*
X139025328Y-103763792D01*
X139033200Y-103757139D01*
X139184052Y-103606812D01*
X139190730Y-103598965D01*
X139318022Y-103421819D01*
X139319279Y-103422722D01*
X139366373Y-103379362D01*
X139436311Y-103367145D01*
X139501751Y-103394678D01*
X139529579Y-103426511D01*
X139589987Y-103525088D01*
X139736250Y-103693938D01*
X139908126Y-103836632D01*
X140101000Y-103949338D01*
X140105825Y-103951180D01*
X140105826Y-103951181D01*
X140178612Y-103978975D01*
X140309692Y-104029030D01*
X140314760Y-104030061D01*
X140314763Y-104030062D01*
X140409862Y-104049410D01*
X140528597Y-104073567D01*
X140533772Y-104073757D01*
X140533774Y-104073757D01*
X140746673Y-104081564D01*
X140746677Y-104081564D01*
X140751837Y-104081753D01*
X140756957Y-104081097D01*
X140756959Y-104081097D01*
X140968288Y-104054025D01*
X140968289Y-104054025D01*
X140973416Y-104053368D01*
X140978366Y-104051883D01*
X141182429Y-103990661D01*
X141182434Y-103990659D01*
X141187384Y-103989174D01*
X141387994Y-103890896D01*
X141569860Y-103761173D01*
X141728096Y-103603489D01*
X141786971Y-103521556D01*
X141858453Y-103422077D01*
X141859776Y-103423028D01*
X141906645Y-103379857D01*
X141976580Y-103367625D01*
X142042026Y-103395144D01*
X142069875Y-103426994D01*
X142129987Y-103525088D01*
X142276250Y-103693938D01*
X142448126Y-103836632D01*
X142641000Y-103949338D01*
X142645825Y-103951180D01*
X142645826Y-103951181D01*
X142718612Y-103978975D01*
X142849692Y-104029030D01*
X142854760Y-104030061D01*
X142854763Y-104030062D01*
X142949862Y-104049410D01*
X143068597Y-104073567D01*
X143073772Y-104073757D01*
X143073774Y-104073757D01*
X143286673Y-104081564D01*
X143286677Y-104081564D01*
X143291837Y-104081753D01*
X143296957Y-104081097D01*
X143296959Y-104081097D01*
X143508288Y-104054025D01*
X143508289Y-104054025D01*
X143513416Y-104053368D01*
X143518366Y-104051883D01*
X143722429Y-103990661D01*
X143722434Y-103990659D01*
X143727384Y-103989174D01*
X143927994Y-103890896D01*
X144109860Y-103761173D01*
X144218091Y-103653319D01*
X144280462Y-103619404D01*
X144351268Y-103624592D01*
X144408030Y-103667238D01*
X144425012Y-103698341D01*
X144469385Y-103816705D01*
X144556739Y-103933261D01*
X144673295Y-104020615D01*
X144809684Y-104071745D01*
X144871866Y-104078500D01*
X146668134Y-104078500D01*
X146730316Y-104071745D01*
X146866705Y-104020615D01*
X146983261Y-103933261D01*
X147070615Y-103816705D01*
X147121745Y-103680316D01*
X147128500Y-103618134D01*
X147128500Y-103150000D01*
X150436496Y-103150000D01*
X150437186Y-103156565D01*
X150444044Y-103221811D01*
X150456458Y-103339928D01*
X150515473Y-103521556D01*
X150610960Y-103686944D01*
X150615378Y-103691851D01*
X150615379Y-103691852D01*
X150727797Y-103816705D01*
X150738747Y-103828866D01*
X150893248Y-103941118D01*
X150899276Y-103943802D01*
X150899278Y-103943803D01*
X151061681Y-104016109D01*
X151067712Y-104018794D01*
X151160501Y-104038517D01*
X151248056Y-104057128D01*
X151248061Y-104057128D01*
X151254513Y-104058500D01*
X151445487Y-104058500D01*
X151451939Y-104057128D01*
X151451944Y-104057128D01*
X151539499Y-104038517D01*
X151632288Y-104018794D01*
X151748752Y-103966941D01*
X151819118Y-103957507D01*
X151851246Y-103966940D01*
X151967712Y-104018794D01*
X152060501Y-104038517D01*
X152148056Y-104057128D01*
X152148061Y-104057128D01*
X152154513Y-104058500D01*
X152345487Y-104058500D01*
X152351939Y-104057128D01*
X152351944Y-104057128D01*
X152439499Y-104038517D01*
X152532288Y-104018794D01*
X152538319Y-104016109D01*
X152700722Y-103943803D01*
X152700724Y-103943802D01*
X152706752Y-103941118D01*
X152861253Y-103828866D01*
X152872203Y-103816705D01*
X152984621Y-103691852D01*
X152984622Y-103691851D01*
X152989040Y-103686944D01*
X153084527Y-103521556D01*
X153143542Y-103339928D01*
X153155957Y-103221811D01*
X153162814Y-103156565D01*
X153163504Y-103150000D01*
X153146474Y-102987966D01*
X153144232Y-102966635D01*
X153144232Y-102966633D01*
X153143542Y-102960072D01*
X153084527Y-102778444D01*
X153075611Y-102763001D01*
X153058872Y-102694007D01*
X153075611Y-102636998D01*
X153081224Y-102627277D01*
X153084527Y-102621556D01*
X153143542Y-102439928D01*
X153163504Y-102250000D01*
X153143542Y-102060072D01*
X153084527Y-101878444D01*
X152989040Y-101713056D01*
X152981560Y-101704748D01*
X152865675Y-101576045D01*
X152865674Y-101576044D01*
X152861253Y-101571134D01*
X152762157Y-101499136D01*
X152712094Y-101462763D01*
X152712093Y-101462762D01*
X152706752Y-101458882D01*
X152700724Y-101456198D01*
X152700722Y-101456197D01*
X152538319Y-101383891D01*
X152538318Y-101383891D01*
X152532288Y-101381206D01*
X152433595Y-101360228D01*
X152351944Y-101342872D01*
X152351939Y-101342872D01*
X152345487Y-101341500D01*
X152154513Y-101341500D01*
X152148061Y-101342872D01*
X152148056Y-101342872D01*
X152066405Y-101360228D01*
X151967712Y-101381206D01*
X151961682Y-101383891D01*
X151961681Y-101383891D01*
X151950269Y-101388972D01*
X151851248Y-101433059D01*
X151780882Y-101442493D01*
X151748754Y-101433060D01*
X151649731Y-101388972D01*
X151638319Y-101383891D01*
X151638318Y-101383891D01*
X151632288Y-101381206D01*
X151533595Y-101360228D01*
X151451944Y-101342872D01*
X151451939Y-101342872D01*
X151445487Y-101341500D01*
X151254513Y-101341500D01*
X151248061Y-101342872D01*
X151248056Y-101342872D01*
X151166405Y-101360228D01*
X151067712Y-101381206D01*
X151061682Y-101383891D01*
X151061681Y-101383891D01*
X150899278Y-101456197D01*
X150899276Y-101456198D01*
X150893248Y-101458882D01*
X150887907Y-101462762D01*
X150887906Y-101462763D01*
X150837843Y-101499136D01*
X150738747Y-101571134D01*
X150734326Y-101576044D01*
X150734325Y-101576045D01*
X150618441Y-101704748D01*
X150610960Y-101713056D01*
X150515473Y-101878444D01*
X150456458Y-102060072D01*
X150436496Y-102250000D01*
X150456458Y-102439928D01*
X150515473Y-102621556D01*
X150518776Y-102627277D01*
X150524389Y-102636998D01*
X150541128Y-102705993D01*
X150524390Y-102763000D01*
X150515473Y-102778444D01*
X150456458Y-102960072D01*
X150455768Y-102966633D01*
X150455768Y-102966635D01*
X150453526Y-102987966D01*
X150436496Y-103150000D01*
X147128500Y-103150000D01*
X147128500Y-101821866D01*
X147121745Y-101759684D01*
X147070615Y-101623295D01*
X146983261Y-101506739D01*
X146866705Y-101419385D01*
X146730316Y-101368255D01*
X146668134Y-101361500D01*
X144871866Y-101361500D01*
X144809684Y-101368255D01*
X144673295Y-101419385D01*
X144556739Y-101506739D01*
X144469385Y-101623295D01*
X144466233Y-101631703D01*
X144424919Y-101741907D01*
X144382277Y-101798671D01*
X144315716Y-101823371D01*
X144246367Y-101808163D01*
X144213743Y-101782476D01*
X144163151Y-101726875D01*
X144163142Y-101726866D01*
X144159670Y-101723051D01*
X144155619Y-101719852D01*
X144155615Y-101719848D01*
X143988414Y-101587800D01*
X143988410Y-101587798D01*
X143984359Y-101584598D01*
X143948028Y-101564542D01*
X143932136Y-101555769D01*
X143788789Y-101476638D01*
X143783920Y-101474914D01*
X143783916Y-101474912D01*
X143583087Y-101403795D01*
X143583083Y-101403794D01*
X143578212Y-101402069D01*
X143573119Y-101401162D01*
X143573116Y-101401161D01*
X143363373Y-101363800D01*
X143363367Y-101363799D01*
X143358284Y-101362894D01*
X143284452Y-101361992D01*
X143140081Y-101360228D01*
X143140079Y-101360228D01*
X143134911Y-101360165D01*
X142914091Y-101393955D01*
X142701756Y-101463357D01*
X142503607Y-101566507D01*
X142499474Y-101569610D01*
X142499471Y-101569612D01*
X142329100Y-101697530D01*
X142324965Y-101700635D01*
X142299541Y-101727240D01*
X142231280Y-101798671D01*
X142170629Y-101862138D01*
X142063201Y-102019621D01*
X142008293Y-102064621D01*
X141937768Y-102072792D01*
X141874021Y-102041538D01*
X141853324Y-102017054D01*
X141772822Y-101892617D01*
X141772820Y-101892614D01*
X141770014Y-101888277D01*
X141619670Y-101723051D01*
X141615619Y-101719852D01*
X141615615Y-101719848D01*
X141448414Y-101587800D01*
X141448410Y-101587798D01*
X141444359Y-101584598D01*
X141408028Y-101564542D01*
X141392136Y-101555769D01*
X141248789Y-101476638D01*
X141243920Y-101474914D01*
X141243916Y-101474912D01*
X141043087Y-101403795D01*
X141043083Y-101403794D01*
X141038212Y-101402069D01*
X141033119Y-101401162D01*
X141033116Y-101401161D01*
X140823373Y-101363800D01*
X140823367Y-101363799D01*
X140818284Y-101362894D01*
X140744452Y-101361992D01*
X140600081Y-101360228D01*
X140600079Y-101360228D01*
X140594911Y-101360165D01*
X140374091Y-101393955D01*
X140161756Y-101463357D01*
X139963607Y-101566507D01*
X139959474Y-101569610D01*
X139959471Y-101569612D01*
X139789100Y-101697530D01*
X139784965Y-101700635D01*
X139759541Y-101727240D01*
X139691280Y-101798671D01*
X139630629Y-101862138D01*
X139627720Y-101866403D01*
X139627714Y-101866411D01*
X139623410Y-101872721D01*
X139523204Y-102019618D01*
X139522898Y-102020066D01*
X139467987Y-102065069D01*
X139397462Y-102073240D01*
X139333715Y-102041986D01*
X139313018Y-102017502D01*
X139232426Y-101892926D01*
X139226136Y-101884757D01*
X139082806Y-101727240D01*
X139075273Y-101720215D01*
X138908139Y-101588222D01*
X138899552Y-101582517D01*
X138713117Y-101479599D01*
X138703705Y-101475369D01*
X138502959Y-101404280D01*
X138492988Y-101401646D01*
X138421837Y-101388972D01*
X138408540Y-101390432D01*
X138404000Y-101404989D01*
X138404000Y-104038517D01*
X137896000Y-104038517D01*
X137896000Y-102992115D01*
X137891525Y-102976876D01*
X137890135Y-102975671D01*
X137882452Y-102974000D01*
X136833225Y-102974000D01*
X136819694Y-102977973D01*
X136818257Y-102987966D01*
X126108500Y-102987966D01*
X126108500Y-102454183D01*
X136814389Y-102454183D01*
X136815912Y-102462607D01*
X136828292Y-102466000D01*
X137877885Y-102466000D01*
X137893124Y-102461525D01*
X137894329Y-102460135D01*
X137896000Y-102452452D01*
X137896000Y-101403102D01*
X137892082Y-101389758D01*
X137877806Y-101387771D01*
X137839324Y-101393660D01*
X137829288Y-101396051D01*
X137626868Y-101462212D01*
X137617359Y-101466209D01*
X137428463Y-101564542D01*
X137419738Y-101570036D01*
X137249433Y-101697905D01*
X137241726Y-101704748D01*
X137094590Y-101858717D01*
X137088104Y-101866727D01*
X136968098Y-102042649D01*
X136963000Y-102051623D01*
X136873338Y-102244783D01*
X136869775Y-102254470D01*
X136814389Y-102454183D01*
X126108500Y-102454183D01*
X126108500Y-96440000D01*
X140356496Y-96440000D01*
X140357186Y-96446565D01*
X140370279Y-96571134D01*
X140376458Y-96629928D01*
X140435473Y-96811556D01*
X140530960Y-96976944D01*
X140535378Y-96981851D01*
X140535379Y-96981852D01*
X140563199Y-97012749D01*
X140658747Y-97118866D01*
X140752851Y-97187237D01*
X140761889Y-97193803D01*
X140813248Y-97231118D01*
X140819276Y-97233802D01*
X140819278Y-97233803D01*
X140981681Y-97306109D01*
X140987712Y-97308794D01*
X141081113Y-97328647D01*
X141168056Y-97347128D01*
X141168061Y-97347128D01*
X141174513Y-97348500D01*
X141365487Y-97348500D01*
X141371939Y-97347128D01*
X141371944Y-97347128D01*
X141458888Y-97328647D01*
X141552288Y-97308794D01*
X141558319Y-97306109D01*
X141720722Y-97233803D01*
X141720724Y-97233802D01*
X141726752Y-97231118D01*
X141778112Y-97193803D01*
X141787149Y-97187237D01*
X141881253Y-97118866D01*
X141976801Y-97012749D01*
X142004621Y-96981852D01*
X142004622Y-96981851D01*
X142009040Y-96976944D01*
X142104527Y-96811556D01*
X142163542Y-96629928D01*
X142169722Y-96571134D01*
X142182814Y-96446565D01*
X142183504Y-96440000D01*
X142179300Y-96400000D01*
X146806496Y-96400000D01*
X146807186Y-96406565D01*
X146824483Y-96571134D01*
X146826458Y-96589928D01*
X146885473Y-96771556D01*
X146980960Y-96936944D01*
X146985378Y-96941851D01*
X146985379Y-96941852D01*
X147016976Y-96976944D01*
X147108747Y-97078866D01*
X147263248Y-97191118D01*
X147269276Y-97193802D01*
X147269278Y-97193803D01*
X147410245Y-97256565D01*
X147437712Y-97268794D01*
X147531113Y-97288647D01*
X147618056Y-97307128D01*
X147618061Y-97307128D01*
X147624513Y-97308500D01*
X147815487Y-97308500D01*
X147821939Y-97307128D01*
X147821944Y-97307128D01*
X147908888Y-97288647D01*
X148002288Y-97268794D01*
X148029755Y-97256565D01*
X148044500Y-97250000D01*
X164096496Y-97250000D01*
X164097186Y-97256565D01*
X164102645Y-97308500D01*
X164116458Y-97439928D01*
X164175473Y-97621556D01*
X164270960Y-97786944D01*
X164398747Y-97928866D01*
X164497843Y-98000864D01*
X164510000Y-98009696D01*
X164553248Y-98041118D01*
X164559276Y-98043802D01*
X164559278Y-98043803D01*
X164586249Y-98055811D01*
X164727712Y-98118794D01*
X164821112Y-98138647D01*
X164908056Y-98157128D01*
X164908061Y-98157128D01*
X164914513Y-98158500D01*
X165105487Y-98158500D01*
X165111939Y-98157128D01*
X165111944Y-98157128D01*
X165198888Y-98138647D01*
X165292288Y-98118794D01*
X165433751Y-98055811D01*
X165504118Y-98046377D01*
X165536250Y-98055811D01*
X165677712Y-98118794D01*
X165771112Y-98138647D01*
X165858056Y-98157128D01*
X165858061Y-98157128D01*
X165864513Y-98158500D01*
X166055487Y-98158500D01*
X166061939Y-98157128D01*
X166061944Y-98157128D01*
X166148888Y-98138647D01*
X166242288Y-98118794D01*
X166408752Y-98044680D01*
X166479118Y-98035246D01*
X166511247Y-98044680D01*
X166677712Y-98118794D01*
X166771112Y-98138647D01*
X166858056Y-98157128D01*
X166858061Y-98157128D01*
X166864513Y-98158500D01*
X167055487Y-98158500D01*
X167061939Y-98157128D01*
X167061944Y-98157128D01*
X167148888Y-98138647D01*
X167242288Y-98118794D01*
X167383751Y-98055811D01*
X167410722Y-98043803D01*
X167410724Y-98043802D01*
X167416752Y-98041118D01*
X167460001Y-98009696D01*
X167472157Y-98000864D01*
X167571253Y-97928866D01*
X167699040Y-97786944D01*
X167794527Y-97621556D01*
X167853542Y-97439928D01*
X167867356Y-97308500D01*
X167872814Y-97256565D01*
X167873504Y-97250000D01*
X167859958Y-97121118D01*
X167854232Y-97066635D01*
X167854232Y-97066633D01*
X167853542Y-97060072D01*
X167794527Y-96878444D01*
X167787888Y-96866944D01*
X167702341Y-96718774D01*
X167699040Y-96713056D01*
X167693839Y-96707279D01*
X167575675Y-96576045D01*
X167575674Y-96576044D01*
X167571253Y-96571134D01*
X167472157Y-96499136D01*
X167422094Y-96462763D01*
X167422093Y-96462762D01*
X167416752Y-96458882D01*
X167410724Y-96456198D01*
X167410722Y-96456197D01*
X167248319Y-96383891D01*
X167248318Y-96383891D01*
X167242288Y-96381206D01*
X167148888Y-96361353D01*
X167061944Y-96342872D01*
X167061939Y-96342872D01*
X167055487Y-96341500D01*
X166864513Y-96341500D01*
X166858061Y-96342872D01*
X166858056Y-96342872D01*
X166771113Y-96361353D01*
X166677712Y-96381206D01*
X166511248Y-96455320D01*
X166440882Y-96464754D01*
X166408753Y-96455320D01*
X166242288Y-96381206D01*
X166148888Y-96361353D01*
X166061944Y-96342872D01*
X166061939Y-96342872D01*
X166055487Y-96341500D01*
X165864513Y-96341500D01*
X165858061Y-96342872D01*
X165858056Y-96342872D01*
X165771113Y-96361353D01*
X165677712Y-96381206D01*
X165671682Y-96383891D01*
X165671681Y-96383891D01*
X165536249Y-96444189D01*
X165465882Y-96453623D01*
X165433751Y-96444189D01*
X165298319Y-96383891D01*
X165298318Y-96383891D01*
X165292288Y-96381206D01*
X165198888Y-96361353D01*
X165111944Y-96342872D01*
X165111939Y-96342872D01*
X165105487Y-96341500D01*
X164914513Y-96341500D01*
X164908061Y-96342872D01*
X164908056Y-96342872D01*
X164821113Y-96361353D01*
X164727712Y-96381206D01*
X164721682Y-96383891D01*
X164721681Y-96383891D01*
X164559278Y-96456197D01*
X164559276Y-96456198D01*
X164553248Y-96458882D01*
X164547907Y-96462762D01*
X164547906Y-96462763D01*
X164497843Y-96499136D01*
X164398747Y-96571134D01*
X164394326Y-96576044D01*
X164394325Y-96576045D01*
X164276162Y-96707279D01*
X164270960Y-96713056D01*
X164267659Y-96718774D01*
X164182113Y-96866944D01*
X164175473Y-96878444D01*
X164116458Y-97060072D01*
X164115768Y-97066633D01*
X164115768Y-97066635D01*
X164110042Y-97121118D01*
X164096496Y-97250000D01*
X148044500Y-97250000D01*
X148170722Y-97193803D01*
X148170724Y-97193802D01*
X148176752Y-97191118D01*
X148331253Y-97078866D01*
X148423024Y-96976944D01*
X148454621Y-96941852D01*
X148454622Y-96941851D01*
X148459040Y-96936944D01*
X148554527Y-96771556D01*
X148613542Y-96589928D01*
X148615518Y-96571134D01*
X148632814Y-96406565D01*
X148633504Y-96400000D01*
X148631529Y-96381206D01*
X148626147Y-96330000D01*
X155136496Y-96330000D01*
X155137186Y-96336565D01*
X155149668Y-96455320D01*
X155156458Y-96519928D01*
X155215473Y-96701556D01*
X155218776Y-96707278D01*
X155218777Y-96707279D01*
X155225414Y-96718774D01*
X155310960Y-96866944D01*
X155315378Y-96871851D01*
X155315379Y-96871852D01*
X155434325Y-97003955D01*
X155438747Y-97008866D01*
X155593248Y-97121118D01*
X155599276Y-97123802D01*
X155599278Y-97123803D01*
X155741754Y-97187237D01*
X155767712Y-97198794D01*
X155861113Y-97218647D01*
X155948056Y-97237128D01*
X155948061Y-97237128D01*
X155954513Y-97238500D01*
X156145487Y-97238500D01*
X156151939Y-97237128D01*
X156151944Y-97237128D01*
X156238887Y-97218647D01*
X156332288Y-97198794D01*
X156358246Y-97187237D01*
X156500722Y-97123803D01*
X156500724Y-97123802D01*
X156506752Y-97121118D01*
X156661253Y-97008866D01*
X156665675Y-97003955D01*
X156784621Y-96871852D01*
X156784622Y-96871851D01*
X156789040Y-96866944D01*
X156874586Y-96718774D01*
X156881223Y-96707279D01*
X156881224Y-96707278D01*
X156884527Y-96701556D01*
X156943542Y-96519928D01*
X156950333Y-96455320D01*
X156962814Y-96336565D01*
X156963504Y-96330000D01*
X156955103Y-96250072D01*
X156944232Y-96146635D01*
X156944232Y-96146633D01*
X156943542Y-96140072D01*
X156884527Y-95958444D01*
X156789040Y-95793056D01*
X156760298Y-95761134D01*
X156665675Y-95656045D01*
X156665674Y-95656044D01*
X156661253Y-95651134D01*
X156506752Y-95538882D01*
X156500724Y-95536198D01*
X156500722Y-95536197D01*
X156338319Y-95463891D01*
X156338318Y-95463891D01*
X156332288Y-95461206D01*
X156238887Y-95441353D01*
X156151944Y-95422872D01*
X156151939Y-95422872D01*
X156145487Y-95421500D01*
X155954513Y-95421500D01*
X155948061Y-95422872D01*
X155948056Y-95422872D01*
X155861113Y-95441353D01*
X155767712Y-95461206D01*
X155761682Y-95463891D01*
X155761681Y-95463891D01*
X155599278Y-95536197D01*
X155599276Y-95536198D01*
X155593248Y-95538882D01*
X155438747Y-95651134D01*
X155434326Y-95656044D01*
X155434325Y-95656045D01*
X155339703Y-95761134D01*
X155310960Y-95793056D01*
X155215473Y-95958444D01*
X155156458Y-96140072D01*
X155155768Y-96146633D01*
X155155768Y-96146635D01*
X155144897Y-96250072D01*
X155136496Y-96330000D01*
X148626147Y-96330000D01*
X148614232Y-96216635D01*
X148614232Y-96216633D01*
X148613542Y-96210072D01*
X148554527Y-96028444D01*
X148459040Y-95863056D01*
X148331253Y-95721134D01*
X148229562Y-95647251D01*
X148182094Y-95612763D01*
X148182093Y-95612762D01*
X148176752Y-95608882D01*
X148170724Y-95606198D01*
X148170722Y-95606197D01*
X148008319Y-95533891D01*
X148008318Y-95533891D01*
X148002288Y-95531206D01*
X147908887Y-95511353D01*
X147821944Y-95492872D01*
X147821939Y-95492872D01*
X147815487Y-95491500D01*
X147624513Y-95491500D01*
X147618061Y-95492872D01*
X147618056Y-95492872D01*
X147531113Y-95511353D01*
X147437712Y-95531206D01*
X147431682Y-95533891D01*
X147431681Y-95533891D01*
X147269278Y-95606197D01*
X147269276Y-95606198D01*
X147263248Y-95608882D01*
X147257907Y-95612762D01*
X147257906Y-95612763D01*
X147210438Y-95647251D01*
X147108747Y-95721134D01*
X146980960Y-95863056D01*
X146885473Y-96028444D01*
X146826458Y-96210072D01*
X146825768Y-96216633D01*
X146825768Y-96216635D01*
X146808471Y-96381206D01*
X146806496Y-96400000D01*
X142179300Y-96400000D01*
X142163542Y-96250072D01*
X142104527Y-96068444D01*
X142009040Y-95903056D01*
X141978173Y-95868774D01*
X141885675Y-95766045D01*
X141885674Y-95766044D01*
X141881253Y-95761134D01*
X141726752Y-95648882D01*
X141720724Y-95646198D01*
X141720722Y-95646197D01*
X141558319Y-95573891D01*
X141558318Y-95573891D01*
X141552288Y-95571206D01*
X141458888Y-95551353D01*
X141371944Y-95532872D01*
X141371939Y-95532872D01*
X141365487Y-95531500D01*
X141174513Y-95531500D01*
X141168061Y-95532872D01*
X141168056Y-95532872D01*
X141081112Y-95551353D01*
X140987712Y-95571206D01*
X140981682Y-95573891D01*
X140981681Y-95573891D01*
X140819278Y-95646197D01*
X140819276Y-95646198D01*
X140813248Y-95648882D01*
X140658747Y-95761134D01*
X140654326Y-95766044D01*
X140654325Y-95766045D01*
X140561828Y-95868774D01*
X140530960Y-95903056D01*
X140435473Y-96068444D01*
X140376458Y-96250072D01*
X140356496Y-96440000D01*
X126108500Y-96440000D01*
X126108500Y-93750000D01*
X139736496Y-93750000D01*
X139756458Y-93939928D01*
X139815473Y-94121556D01*
X139910960Y-94286944D01*
X139915378Y-94291851D01*
X139915379Y-94291852D01*
X140007176Y-94393803D01*
X140038747Y-94428866D01*
X140193248Y-94541118D01*
X140199276Y-94543802D01*
X140199278Y-94543803D01*
X140361681Y-94616109D01*
X140367712Y-94618794D01*
X140461113Y-94638647D01*
X140548056Y-94657128D01*
X140548061Y-94657128D01*
X140554513Y-94658500D01*
X140745487Y-94658500D01*
X140751939Y-94657128D01*
X140751944Y-94657128D01*
X140838887Y-94638647D01*
X140932288Y-94618794D01*
X140938319Y-94616109D01*
X141100722Y-94543803D01*
X141100724Y-94543802D01*
X141106752Y-94541118D01*
X141261253Y-94428866D01*
X141292824Y-94393803D01*
X141384621Y-94291852D01*
X141384622Y-94291851D01*
X141389040Y-94286944D01*
X141484527Y-94121556D01*
X141543542Y-93939928D01*
X141563504Y-93750000D01*
X146686496Y-93750000D01*
X146706458Y-93939928D01*
X146765473Y-94121556D01*
X146860960Y-94286944D01*
X146865378Y-94291851D01*
X146865379Y-94291852D01*
X146957176Y-94393803D01*
X146988747Y-94428866D01*
X147143248Y-94541118D01*
X147149276Y-94543802D01*
X147149278Y-94543803D01*
X147311681Y-94616109D01*
X147317712Y-94618794D01*
X147411113Y-94638647D01*
X147498056Y-94657128D01*
X147498061Y-94657128D01*
X147504513Y-94658500D01*
X147695487Y-94658500D01*
X147701939Y-94657128D01*
X147701944Y-94657128D01*
X147788887Y-94638647D01*
X147882288Y-94618794D01*
X147888319Y-94616109D01*
X148050722Y-94543803D01*
X148050724Y-94543802D01*
X148056752Y-94541118D01*
X148211253Y-94428866D01*
X148242824Y-94393803D01*
X148334621Y-94291852D01*
X148334622Y-94291851D01*
X148339040Y-94286944D01*
X148434527Y-94121556D01*
X148493542Y-93939928D01*
X148513504Y-93750000D01*
X148497739Y-93600000D01*
X156886496Y-93600000D01*
X156906458Y-93789928D01*
X156965473Y-93971556D01*
X157060960Y-94136944D01*
X157188747Y-94278866D01*
X157343248Y-94391118D01*
X157349276Y-94393802D01*
X157349278Y-94393803D01*
X157436753Y-94432749D01*
X157517712Y-94468794D01*
X157611113Y-94488647D01*
X157698056Y-94507128D01*
X157698061Y-94507128D01*
X157704513Y-94508500D01*
X157895487Y-94508500D01*
X157901939Y-94507128D01*
X157901944Y-94507128D01*
X157988888Y-94488647D01*
X158082288Y-94468794D01*
X158198752Y-94416941D01*
X158269118Y-94407507D01*
X158301246Y-94416940D01*
X158417712Y-94468794D01*
X158511113Y-94488647D01*
X158598056Y-94507128D01*
X158598061Y-94507128D01*
X158604513Y-94508500D01*
X158795487Y-94508500D01*
X158801939Y-94507128D01*
X158801944Y-94507128D01*
X158888888Y-94488647D01*
X158982288Y-94468794D01*
X159063247Y-94432749D01*
X159150722Y-94393803D01*
X159150724Y-94393802D01*
X159156752Y-94391118D01*
X159311253Y-94278866D01*
X159439040Y-94136944D01*
X159534527Y-93971556D01*
X159593542Y-93789928D01*
X159613504Y-93600000D01*
X159593542Y-93410072D01*
X159534527Y-93228444D01*
X159439040Y-93063056D01*
X159345242Y-92958882D01*
X159315675Y-92926045D01*
X159315674Y-92926044D01*
X159311253Y-92921134D01*
X159156752Y-92808882D01*
X159150724Y-92806198D01*
X159150722Y-92806197D01*
X158988319Y-92733891D01*
X158988318Y-92733891D01*
X158982288Y-92731206D01*
X158888887Y-92711353D01*
X158801944Y-92692872D01*
X158801939Y-92692872D01*
X158795487Y-92691500D01*
X158604513Y-92691500D01*
X158598061Y-92692872D01*
X158598056Y-92692872D01*
X158511113Y-92711353D01*
X158417712Y-92731206D01*
X158301248Y-92783059D01*
X158230882Y-92792493D01*
X158198754Y-92783060D01*
X158082288Y-92731206D01*
X157988887Y-92711353D01*
X157901944Y-92692872D01*
X157901939Y-92692872D01*
X157895487Y-92691500D01*
X157704513Y-92691500D01*
X157698061Y-92692872D01*
X157698056Y-92692872D01*
X157611113Y-92711353D01*
X157517712Y-92731206D01*
X157511682Y-92733891D01*
X157511681Y-92733891D01*
X157349278Y-92806197D01*
X157349276Y-92806198D01*
X157343248Y-92808882D01*
X157188747Y-92921134D01*
X157184326Y-92926044D01*
X157184325Y-92926045D01*
X157154759Y-92958882D01*
X157060960Y-93063056D01*
X156965473Y-93228444D01*
X156906458Y-93410072D01*
X156886496Y-93600000D01*
X148497739Y-93600000D01*
X148493542Y-93560072D01*
X148434527Y-93378444D01*
X148339040Y-93213056D01*
X148211253Y-93071134D01*
X148056752Y-92958882D01*
X148050724Y-92956198D01*
X148050722Y-92956197D01*
X147888319Y-92883891D01*
X147888318Y-92883891D01*
X147882288Y-92881206D01*
X147788887Y-92861353D01*
X147701944Y-92842872D01*
X147701939Y-92842872D01*
X147695487Y-92841500D01*
X147504513Y-92841500D01*
X147498061Y-92842872D01*
X147498056Y-92842872D01*
X147411113Y-92861353D01*
X147317712Y-92881206D01*
X147311682Y-92883891D01*
X147311681Y-92883891D01*
X147149278Y-92956197D01*
X147149276Y-92956198D01*
X147143248Y-92958882D01*
X146988747Y-93071134D01*
X146860960Y-93213056D01*
X146765473Y-93378444D01*
X146706458Y-93560072D01*
X146686496Y-93750000D01*
X141563504Y-93750000D01*
X141543542Y-93560072D01*
X141484527Y-93378444D01*
X141389040Y-93213056D01*
X141261253Y-93071134D01*
X141106752Y-92958882D01*
X141100724Y-92956198D01*
X141100722Y-92956197D01*
X140938319Y-92883891D01*
X140938318Y-92883891D01*
X140932288Y-92881206D01*
X140838887Y-92861353D01*
X140751944Y-92842872D01*
X140751939Y-92842872D01*
X140745487Y-92841500D01*
X140554513Y-92841500D01*
X140548061Y-92842872D01*
X140548056Y-92842872D01*
X140461113Y-92861353D01*
X140367712Y-92881206D01*
X140361682Y-92883891D01*
X140361681Y-92883891D01*
X140199278Y-92956197D01*
X140199276Y-92956198D01*
X140193248Y-92958882D01*
X140038747Y-93071134D01*
X139910960Y-93213056D01*
X139815473Y-93378444D01*
X139756458Y-93560072D01*
X139736496Y-93750000D01*
X126108500Y-93750000D01*
X126108500Y-92450000D01*
X167186496Y-92450000D01*
X167206458Y-92639928D01*
X167265473Y-92821556D01*
X167360960Y-92986944D01*
X167488747Y-93128866D01*
X167643248Y-93241118D01*
X167649276Y-93243802D01*
X167649278Y-93243803D01*
X167811681Y-93316109D01*
X167817712Y-93318794D01*
X167911113Y-93338647D01*
X167998056Y-93357128D01*
X167998061Y-93357128D01*
X168004513Y-93358500D01*
X168195487Y-93358500D01*
X168201939Y-93357128D01*
X168201944Y-93357128D01*
X168288887Y-93338647D01*
X168382288Y-93318794D01*
X168388319Y-93316109D01*
X168550722Y-93243803D01*
X168550724Y-93243802D01*
X168556752Y-93241118D01*
X168574196Y-93228444D01*
X168705909Y-93132749D01*
X168705911Y-93132747D01*
X168711253Y-93128866D01*
X168715675Y-93123955D01*
X168715687Y-93123944D01*
X168779694Y-93093225D01*
X168850148Y-93101987D01*
X168884313Y-93123944D01*
X168884325Y-93123955D01*
X168888747Y-93128866D01*
X168894089Y-93132747D01*
X168894091Y-93132749D01*
X169025804Y-93228444D01*
X169043248Y-93241118D01*
X169049276Y-93243802D01*
X169049278Y-93243803D01*
X169211681Y-93316109D01*
X169217712Y-93318794D01*
X169311113Y-93338647D01*
X169398056Y-93357128D01*
X169398061Y-93357128D01*
X169404513Y-93358500D01*
X169595487Y-93358500D01*
X169601939Y-93357128D01*
X169601944Y-93357128D01*
X169688887Y-93338647D01*
X169782288Y-93318794D01*
X169788319Y-93316109D01*
X169950722Y-93243803D01*
X169950724Y-93243802D01*
X169956752Y-93241118D01*
X170111253Y-93128866D01*
X170239040Y-92986944D01*
X170334527Y-92821556D01*
X170393542Y-92639928D01*
X170413504Y-92450000D01*
X170393542Y-92260072D01*
X170334527Y-92078444D01*
X170239040Y-91913056D01*
X170111253Y-91771134D01*
X169956752Y-91658882D01*
X169950724Y-91656198D01*
X169950722Y-91656197D01*
X169788319Y-91583891D01*
X169788318Y-91583891D01*
X169782288Y-91581206D01*
X169688888Y-91561353D01*
X169601944Y-91542872D01*
X169601939Y-91542872D01*
X169595487Y-91541500D01*
X169404513Y-91541500D01*
X169398061Y-91542872D01*
X169398056Y-91542872D01*
X169311112Y-91561353D01*
X169217712Y-91581206D01*
X169211682Y-91583891D01*
X169211681Y-91583891D01*
X169049278Y-91656197D01*
X169049276Y-91656198D01*
X169043248Y-91658882D01*
X168888747Y-91771134D01*
X168884325Y-91776045D01*
X168884313Y-91776056D01*
X168820306Y-91806775D01*
X168749852Y-91798013D01*
X168715687Y-91776056D01*
X168715675Y-91776045D01*
X168711253Y-91771134D01*
X168556752Y-91658882D01*
X168550724Y-91656198D01*
X168550722Y-91656197D01*
X168388319Y-91583891D01*
X168388318Y-91583891D01*
X168382288Y-91581206D01*
X168288888Y-91561353D01*
X168201944Y-91542872D01*
X168201939Y-91542872D01*
X168195487Y-91541500D01*
X168004513Y-91541500D01*
X167998061Y-91542872D01*
X167998056Y-91542872D01*
X167911112Y-91561353D01*
X167817712Y-91581206D01*
X167811682Y-91583891D01*
X167811681Y-91583891D01*
X167649278Y-91656197D01*
X167649276Y-91656198D01*
X167643248Y-91658882D01*
X167488747Y-91771134D01*
X167360960Y-91913056D01*
X167265473Y-92078444D01*
X167206458Y-92260072D01*
X167186496Y-92450000D01*
X126108500Y-92450000D01*
X126108500Y-89500000D01*
X133286496Y-89500000D01*
X133287186Y-89506565D01*
X133304078Y-89667279D01*
X133306458Y-89689928D01*
X133365473Y-89871556D01*
X133460960Y-90036944D01*
X133465378Y-90041851D01*
X133465379Y-90041852D01*
X133570674Y-90158794D01*
X133588747Y-90178866D01*
X133743248Y-90291118D01*
X133749276Y-90293802D01*
X133749278Y-90293803D01*
X133911681Y-90366109D01*
X133917712Y-90368794D01*
X134011113Y-90388647D01*
X134098056Y-90407128D01*
X134098061Y-90407128D01*
X134104513Y-90408500D01*
X134295487Y-90408500D01*
X134301939Y-90407128D01*
X134301944Y-90407128D01*
X134388887Y-90388647D01*
X134482288Y-90368794D01*
X134488319Y-90366109D01*
X134650722Y-90293803D01*
X134650724Y-90293802D01*
X134656752Y-90291118D01*
X134811253Y-90178866D01*
X134829326Y-90158794D01*
X134934621Y-90041852D01*
X134934622Y-90041851D01*
X134939040Y-90036944D01*
X135034527Y-89871556D01*
X135093542Y-89689928D01*
X135095923Y-89667279D01*
X135112814Y-89506565D01*
X135113504Y-89500000D01*
X135093542Y-89310072D01*
X135087020Y-89290000D01*
X160066496Y-89290000D01*
X160086458Y-89479928D01*
X160145473Y-89661556D01*
X160240960Y-89826944D01*
X160368747Y-89968866D01*
X160523248Y-90081118D01*
X160529276Y-90083802D01*
X160529278Y-90083803D01*
X160691681Y-90156109D01*
X160697712Y-90158794D01*
X160791112Y-90178647D01*
X160878056Y-90197128D01*
X160878061Y-90197128D01*
X160884513Y-90198500D01*
X161075487Y-90198500D01*
X161081939Y-90197128D01*
X161081944Y-90197128D01*
X161168887Y-90178647D01*
X161262288Y-90158794D01*
X161268319Y-90156109D01*
X161430722Y-90083803D01*
X161430724Y-90083802D01*
X161436752Y-90081118D01*
X161591253Y-89968866D01*
X161719040Y-89826944D01*
X161814527Y-89661556D01*
X161873542Y-89479928D01*
X161893504Y-89290000D01*
X161876524Y-89128444D01*
X161874232Y-89106635D01*
X161874232Y-89106633D01*
X161873542Y-89100072D01*
X161814527Y-88918444D01*
X161719040Y-88753056D01*
X161611744Y-88633891D01*
X161595675Y-88616045D01*
X161595674Y-88616044D01*
X161591253Y-88611134D01*
X161436752Y-88498882D01*
X161430724Y-88496198D01*
X161430722Y-88496197D01*
X161268319Y-88423891D01*
X161268318Y-88423891D01*
X161262288Y-88421206D01*
X161168887Y-88401353D01*
X161081944Y-88382872D01*
X161081939Y-88382872D01*
X161075487Y-88381500D01*
X160884513Y-88381500D01*
X160878061Y-88382872D01*
X160878056Y-88382872D01*
X160791112Y-88401353D01*
X160697712Y-88421206D01*
X160691682Y-88423891D01*
X160691681Y-88423891D01*
X160529278Y-88496197D01*
X160529276Y-88496198D01*
X160523248Y-88498882D01*
X160368747Y-88611134D01*
X160364326Y-88616044D01*
X160364325Y-88616045D01*
X160348257Y-88633891D01*
X160240960Y-88753056D01*
X160145473Y-88918444D01*
X160086458Y-89100072D01*
X160085768Y-89106633D01*
X160085768Y-89106635D01*
X160083476Y-89128444D01*
X160066496Y-89290000D01*
X135087020Y-89290000D01*
X135034527Y-89128444D01*
X134939040Y-88963056D01*
X134811253Y-88821134D01*
X134656752Y-88708882D01*
X134650724Y-88706198D01*
X134650722Y-88706197D01*
X134488319Y-88633891D01*
X134488318Y-88633891D01*
X134482288Y-88631206D01*
X134387857Y-88611134D01*
X134301944Y-88592872D01*
X134301939Y-88592872D01*
X134295487Y-88591500D01*
X134104513Y-88591500D01*
X134098061Y-88592872D01*
X134098056Y-88592872D01*
X134012143Y-88611134D01*
X133917712Y-88631206D01*
X133911682Y-88633891D01*
X133911681Y-88633891D01*
X133749278Y-88706197D01*
X133749276Y-88706198D01*
X133743248Y-88708882D01*
X133588747Y-88821134D01*
X133460960Y-88963056D01*
X133365473Y-89128444D01*
X133306458Y-89310072D01*
X133286496Y-89500000D01*
X126108500Y-89500000D01*
X126108500Y-86750000D01*
X148386496Y-86750000D01*
X148406458Y-86939928D01*
X148465473Y-87121556D01*
X148468776Y-87127278D01*
X148468777Y-87127279D01*
X148474551Y-87137279D01*
X148560960Y-87286944D01*
X148688747Y-87428866D01*
X148843248Y-87541118D01*
X148849276Y-87543802D01*
X148849278Y-87543803D01*
X148865708Y-87551118D01*
X149017712Y-87618794D01*
X149111113Y-87638647D01*
X149198056Y-87657128D01*
X149198061Y-87657128D01*
X149204513Y-87658500D01*
X149395487Y-87658500D01*
X149401939Y-87657128D01*
X149401944Y-87657128D01*
X149488888Y-87638647D01*
X149582288Y-87618794D01*
X149734292Y-87551118D01*
X149750722Y-87543803D01*
X149750724Y-87543802D01*
X149756752Y-87541118D01*
X149911253Y-87428866D01*
X150039040Y-87286944D01*
X150125449Y-87137279D01*
X150131223Y-87127279D01*
X150131224Y-87127278D01*
X150134527Y-87121556D01*
X150193542Y-86939928D01*
X150212453Y-86760000D01*
X170916496Y-86760000D01*
X170936458Y-86949928D01*
X170995473Y-87131556D01*
X171090960Y-87296944D01*
X171218747Y-87438866D01*
X171317843Y-87510864D01*
X171354143Y-87537237D01*
X171373248Y-87551118D01*
X171379276Y-87553802D01*
X171379278Y-87553803D01*
X171528333Y-87620166D01*
X171547712Y-87628794D01*
X171641113Y-87648647D01*
X171728056Y-87667128D01*
X171728061Y-87667128D01*
X171734513Y-87668500D01*
X171925487Y-87668500D01*
X171931939Y-87667128D01*
X171931944Y-87667128D01*
X172018888Y-87648647D01*
X172112288Y-87628794D01*
X172131667Y-87620166D01*
X172280722Y-87553803D01*
X172280724Y-87553802D01*
X172286752Y-87551118D01*
X172305858Y-87537237D01*
X172342157Y-87510864D01*
X172441253Y-87438866D01*
X172569040Y-87296944D01*
X172664527Y-87131556D01*
X172723542Y-86949928D01*
X172743504Y-86760000D01*
X172723542Y-86570072D01*
X172664527Y-86388444D01*
X172658754Y-86378444D01*
X172572341Y-86228774D01*
X172569040Y-86223056D01*
X172441253Y-86081134D01*
X172286752Y-85968882D01*
X172280724Y-85966198D01*
X172280722Y-85966197D01*
X172118319Y-85893891D01*
X172118318Y-85893891D01*
X172112288Y-85891206D01*
X172018887Y-85871353D01*
X171931944Y-85852872D01*
X171931939Y-85852872D01*
X171925487Y-85851500D01*
X171734513Y-85851500D01*
X171728061Y-85852872D01*
X171728056Y-85852872D01*
X171641113Y-85871353D01*
X171547712Y-85891206D01*
X171541682Y-85893891D01*
X171541681Y-85893891D01*
X171379278Y-85966197D01*
X171379276Y-85966198D01*
X171373248Y-85968882D01*
X171218747Y-86081134D01*
X171090960Y-86223056D01*
X171087659Y-86228774D01*
X171001247Y-86378444D01*
X170995473Y-86388444D01*
X170936458Y-86570072D01*
X170916496Y-86760000D01*
X150212453Y-86760000D01*
X150213504Y-86750000D01*
X150193542Y-86560072D01*
X150134527Y-86378444D01*
X150039040Y-86213056D01*
X149911253Y-86071134D01*
X149812157Y-85999136D01*
X149762094Y-85962763D01*
X149762093Y-85962762D01*
X149756752Y-85958882D01*
X149750724Y-85956198D01*
X149750722Y-85956197D01*
X149588319Y-85883891D01*
X149588318Y-85883891D01*
X149582288Y-85881206D01*
X149488888Y-85861353D01*
X149401944Y-85842872D01*
X149401939Y-85842872D01*
X149395487Y-85841500D01*
X149204513Y-85841500D01*
X149198061Y-85842872D01*
X149198056Y-85842872D01*
X149111112Y-85861353D01*
X149017712Y-85881206D01*
X149011682Y-85883891D01*
X149011681Y-85883891D01*
X148849278Y-85956197D01*
X148849276Y-85956198D01*
X148843248Y-85958882D01*
X148837907Y-85962762D01*
X148837906Y-85962763D01*
X148787843Y-85999136D01*
X148688747Y-86071134D01*
X148560960Y-86213056D01*
X148465473Y-86378444D01*
X148406458Y-86560072D01*
X148386496Y-86750000D01*
X126108500Y-86750000D01*
X126108500Y-85250000D01*
X137036496Y-85250000D01*
X137056458Y-85439928D01*
X137115473Y-85621556D01*
X137210960Y-85786944D01*
X137338747Y-85928866D01*
X137493248Y-86041118D01*
X137499276Y-86043802D01*
X137499278Y-86043803D01*
X137594156Y-86086045D01*
X137667712Y-86118794D01*
X137761112Y-86138647D01*
X137848056Y-86157128D01*
X137848061Y-86157128D01*
X137854513Y-86158500D01*
X138045487Y-86158500D01*
X138051939Y-86157128D01*
X138051944Y-86157128D01*
X138138888Y-86138647D01*
X138232288Y-86118794D01*
X138305844Y-86086045D01*
X138400722Y-86043803D01*
X138400724Y-86043802D01*
X138406752Y-86041118D01*
X138561253Y-85928866D01*
X138689040Y-85786944D01*
X138784527Y-85621556D01*
X138843542Y-85439928D01*
X138863504Y-85250000D01*
X138843542Y-85060072D01*
X138784527Y-84878444D01*
X138689040Y-84713056D01*
X138561253Y-84571134D01*
X138406752Y-84458882D01*
X138400724Y-84456198D01*
X138400722Y-84456197D01*
X138238319Y-84383891D01*
X138238318Y-84383891D01*
X138232288Y-84381206D01*
X138133303Y-84360166D01*
X138051944Y-84342872D01*
X138051939Y-84342872D01*
X138045487Y-84341500D01*
X137854513Y-84341500D01*
X137848061Y-84342872D01*
X137848056Y-84342872D01*
X137766697Y-84360166D01*
X137667712Y-84381206D01*
X137661682Y-84383891D01*
X137661681Y-84383891D01*
X137499278Y-84456197D01*
X137499276Y-84456198D01*
X137493248Y-84458882D01*
X137338747Y-84571134D01*
X137210960Y-84713056D01*
X137115473Y-84878444D01*
X137056458Y-85060072D01*
X137036496Y-85250000D01*
X126108500Y-85250000D01*
X126108500Y-83490000D01*
X154356496Y-83490000D01*
X154376458Y-83679928D01*
X154435473Y-83861556D01*
X154530960Y-84026944D01*
X154658747Y-84168866D01*
X154813248Y-84281118D01*
X154819276Y-84283802D01*
X154819278Y-84283803D01*
X154951950Y-84342872D01*
X154987712Y-84358794D01*
X155081113Y-84378647D01*
X155168056Y-84397128D01*
X155168061Y-84397128D01*
X155174513Y-84398500D01*
X155365487Y-84398500D01*
X155371939Y-84397128D01*
X155371944Y-84397128D01*
X155458887Y-84378647D01*
X155552288Y-84358794D01*
X155588050Y-84342872D01*
X155720722Y-84283803D01*
X155720724Y-84283802D01*
X155726752Y-84281118D01*
X155881253Y-84168866D01*
X156009040Y-84026944D01*
X156104527Y-83861556D01*
X156163542Y-83679928D01*
X156183504Y-83490000D01*
X156163542Y-83300072D01*
X156104527Y-83118444D01*
X156009040Y-82953056D01*
X155955689Y-82893803D01*
X155885675Y-82816045D01*
X155885674Y-82816044D01*
X155881253Y-82811134D01*
X155726752Y-82698882D01*
X155720724Y-82696198D01*
X155720722Y-82696197D01*
X155558319Y-82623891D01*
X155558318Y-82623891D01*
X155552288Y-82621206D01*
X155458887Y-82601353D01*
X155371944Y-82582872D01*
X155371939Y-82582872D01*
X155365487Y-82581500D01*
X155174513Y-82581500D01*
X155168061Y-82582872D01*
X155168056Y-82582872D01*
X155081112Y-82601353D01*
X154987712Y-82621206D01*
X154981682Y-82623891D01*
X154981681Y-82623891D01*
X154819278Y-82696197D01*
X154819276Y-82696198D01*
X154813248Y-82698882D01*
X154658747Y-82811134D01*
X154654326Y-82816044D01*
X154654325Y-82816045D01*
X154584312Y-82893803D01*
X154530960Y-82953056D01*
X154435473Y-83118444D01*
X154376458Y-83300072D01*
X154356496Y-83490000D01*
X126108500Y-83490000D01*
X126108500Y-82100000D01*
X132336496Y-82100000D01*
X132356458Y-82289928D01*
X132415473Y-82471556D01*
X132510960Y-82636944D01*
X132515378Y-82641851D01*
X132515379Y-82641852D01*
X132634325Y-82773955D01*
X132638747Y-82778866D01*
X132793248Y-82891118D01*
X132799276Y-82893802D01*
X132799278Y-82893803D01*
X132961681Y-82966109D01*
X132967712Y-82968794D01*
X133061113Y-82988647D01*
X133148056Y-83007128D01*
X133148061Y-83007128D01*
X133154513Y-83008500D01*
X133345487Y-83008500D01*
X133351939Y-83007128D01*
X133351944Y-83007128D01*
X133438887Y-82988647D01*
X133532288Y-82968794D01*
X133538319Y-82966109D01*
X133700722Y-82893803D01*
X133700724Y-82893802D01*
X133706752Y-82891118D01*
X133861253Y-82778866D01*
X133865675Y-82773955D01*
X133984621Y-82641852D01*
X133984622Y-82641851D01*
X133989040Y-82636944D01*
X134084527Y-82471556D01*
X134143542Y-82289928D01*
X134163504Y-82100000D01*
X134143542Y-81910072D01*
X134084527Y-81728444D01*
X133989040Y-81563056D01*
X133965793Y-81537237D01*
X133865675Y-81426045D01*
X133865674Y-81426044D01*
X133861253Y-81421134D01*
X133706752Y-81308882D01*
X133700724Y-81306198D01*
X133700722Y-81306197D01*
X133538319Y-81233891D01*
X133538318Y-81233891D01*
X133532288Y-81231206D01*
X133438888Y-81211353D01*
X133351944Y-81192872D01*
X133351939Y-81192872D01*
X133345487Y-81191500D01*
X133154513Y-81191500D01*
X133148061Y-81192872D01*
X133148056Y-81192872D01*
X133061112Y-81211353D01*
X132967712Y-81231206D01*
X132961682Y-81233891D01*
X132961681Y-81233891D01*
X132799278Y-81306197D01*
X132799276Y-81306198D01*
X132793248Y-81308882D01*
X132638747Y-81421134D01*
X132634326Y-81426044D01*
X132634325Y-81426045D01*
X132534208Y-81537237D01*
X132510960Y-81563056D01*
X132415473Y-81728444D01*
X132356458Y-81910072D01*
X132336496Y-82100000D01*
X126108500Y-82100000D01*
X126108500Y-80750000D01*
X149236496Y-80750000D01*
X149256458Y-80939928D01*
X149315473Y-81121556D01*
X149318776Y-81127278D01*
X149318777Y-81127279D01*
X149352686Y-81186010D01*
X149410960Y-81286944D01*
X149415378Y-81291851D01*
X149415379Y-81291852D01*
X149528289Y-81417251D01*
X149538747Y-81428866D01*
X149693248Y-81541118D01*
X149699276Y-81543802D01*
X149699278Y-81543803D01*
X149861681Y-81616109D01*
X149867712Y-81618794D01*
X149961113Y-81638647D01*
X150048056Y-81657128D01*
X150048061Y-81657128D01*
X150054513Y-81658500D01*
X150245487Y-81658500D01*
X150251939Y-81657128D01*
X150251944Y-81657128D01*
X150338887Y-81638647D01*
X150432288Y-81618794D01*
X150438319Y-81616109D01*
X150600722Y-81543803D01*
X150600724Y-81543802D01*
X150606752Y-81541118D01*
X150761253Y-81428866D01*
X150771711Y-81417251D01*
X150884621Y-81291852D01*
X150884622Y-81291851D01*
X150889040Y-81286944D01*
X150947314Y-81186010D01*
X150981223Y-81127279D01*
X150981224Y-81127278D01*
X150984527Y-81121556D01*
X151043542Y-80939928D01*
X151063504Y-80750000D01*
X151043542Y-80560072D01*
X150984527Y-80378444D01*
X150933464Y-80290000D01*
X162956496Y-80290000D01*
X162976458Y-80479928D01*
X163035473Y-80661556D01*
X163130960Y-80826944D01*
X163258747Y-80968866D01*
X163413248Y-81081118D01*
X163419276Y-81083802D01*
X163419278Y-81083803D01*
X163581681Y-81156109D01*
X163587712Y-81158794D01*
X163681112Y-81178647D01*
X163768056Y-81197128D01*
X163768061Y-81197128D01*
X163774513Y-81198500D01*
X163965487Y-81198500D01*
X163971939Y-81197128D01*
X163971944Y-81197128D01*
X164058887Y-81178647D01*
X164152288Y-81158794D01*
X164158319Y-81156109D01*
X164320722Y-81083803D01*
X164320724Y-81083802D01*
X164326752Y-81081118D01*
X164481253Y-80968866D01*
X164609040Y-80826944D01*
X164704527Y-80661556D01*
X164763542Y-80479928D01*
X164783504Y-80290000D01*
X164763542Y-80100072D01*
X164704527Y-79918444D01*
X164682236Y-79879834D01*
X164612341Y-79758774D01*
X164609040Y-79753056D01*
X164481253Y-79611134D01*
X164326752Y-79498882D01*
X164320724Y-79496198D01*
X164320722Y-79496197D01*
X164158319Y-79423891D01*
X164158318Y-79423891D01*
X164152288Y-79421206D01*
X164058888Y-79401353D01*
X163971944Y-79382872D01*
X163971939Y-79382872D01*
X163965487Y-79381500D01*
X163774513Y-79381500D01*
X163768061Y-79382872D01*
X163768056Y-79382872D01*
X163681112Y-79401353D01*
X163587712Y-79421206D01*
X163581682Y-79423891D01*
X163581681Y-79423891D01*
X163419278Y-79496197D01*
X163419276Y-79496198D01*
X163413248Y-79498882D01*
X163258747Y-79611134D01*
X163130960Y-79753056D01*
X163127659Y-79758774D01*
X163057765Y-79879834D01*
X163035473Y-79918444D01*
X162976458Y-80100072D01*
X162956496Y-80290000D01*
X150933464Y-80290000D01*
X150889040Y-80213056D01*
X150761253Y-80071134D01*
X150606752Y-79958882D01*
X150600724Y-79956198D01*
X150600722Y-79956197D01*
X150438319Y-79883891D01*
X150438318Y-79883891D01*
X150432288Y-79881206D01*
X150338887Y-79861353D01*
X150251944Y-79842872D01*
X150251939Y-79842872D01*
X150245487Y-79841500D01*
X150054513Y-79841500D01*
X150048061Y-79842872D01*
X150048056Y-79842872D01*
X149961113Y-79861353D01*
X149867712Y-79881206D01*
X149861682Y-79883891D01*
X149861681Y-79883891D01*
X149699278Y-79956197D01*
X149699276Y-79956198D01*
X149693248Y-79958882D01*
X149538747Y-80071134D01*
X149410960Y-80213056D01*
X149315473Y-80378444D01*
X149256458Y-80560072D01*
X149236496Y-80750000D01*
X126108500Y-80750000D01*
X126108500Y-76950000D01*
X134836496Y-76950000D01*
X134856458Y-77139928D01*
X134915473Y-77321556D01*
X135010960Y-77486944D01*
X135138747Y-77628866D01*
X135293248Y-77741118D01*
X135299276Y-77743802D01*
X135299278Y-77743803D01*
X135461681Y-77816109D01*
X135467712Y-77818794D01*
X135533365Y-77832749D01*
X135648056Y-77857128D01*
X135648061Y-77857128D01*
X135654513Y-77858500D01*
X135845487Y-77858500D01*
X135851939Y-77857128D01*
X135851944Y-77857128D01*
X135966635Y-77832749D01*
X136032288Y-77818794D01*
X136038319Y-77816109D01*
X136200722Y-77743803D01*
X136200724Y-77743802D01*
X136206752Y-77741118D01*
X136274564Y-77691850D01*
X136330242Y-77651397D01*
X136397110Y-77627539D01*
X136466261Y-77643619D01*
X136506237Y-77679270D01*
X136507661Y-77681230D01*
X136510960Y-77686944D01*
X136515375Y-77691848D01*
X136515377Y-77691850D01*
X136629678Y-77818794D01*
X136638747Y-77828866D01*
X136793248Y-77941118D01*
X136799276Y-77943802D01*
X136799278Y-77943803D01*
X136895324Y-77986565D01*
X136967712Y-78018794D01*
X137061112Y-78038647D01*
X137148056Y-78057128D01*
X137148061Y-78057128D01*
X137154513Y-78058500D01*
X137345487Y-78058500D01*
X137351939Y-78057128D01*
X137351944Y-78057128D01*
X137438888Y-78038647D01*
X137532288Y-78018794D01*
X137604676Y-77986565D01*
X137619421Y-77980000D01*
X141016496Y-77980000D01*
X141017186Y-77986565D01*
X141024747Y-78058500D01*
X141036458Y-78169928D01*
X141095473Y-78351556D01*
X141190960Y-78516944D01*
X141318747Y-78658866D01*
X141473248Y-78771118D01*
X141479276Y-78773802D01*
X141479278Y-78773803D01*
X141641681Y-78846109D01*
X141647712Y-78848794D01*
X141741113Y-78868647D01*
X141828056Y-78887128D01*
X141828061Y-78887128D01*
X141834513Y-78888500D01*
X142025487Y-78888500D01*
X142031939Y-78887128D01*
X142031944Y-78887128D01*
X142118887Y-78868647D01*
X142212288Y-78848794D01*
X142218319Y-78846109D01*
X142380722Y-78773803D01*
X142380724Y-78773802D01*
X142386752Y-78771118D01*
X142541253Y-78658866D01*
X142669040Y-78516944D01*
X142764527Y-78351556D01*
X142823542Y-78169928D01*
X142835254Y-78058500D01*
X142842814Y-77986565D01*
X142843504Y-77980000D01*
X142839417Y-77941118D01*
X142824232Y-77796635D01*
X142824232Y-77796633D01*
X142823542Y-77790072D01*
X142764527Y-77608444D01*
X142669040Y-77443056D01*
X142541253Y-77301134D01*
X142386752Y-77188882D01*
X142380724Y-77186198D01*
X142380722Y-77186197D01*
X142218319Y-77113891D01*
X142218318Y-77113891D01*
X142212288Y-77111206D01*
X142118888Y-77091353D01*
X142031944Y-77072872D01*
X142031939Y-77072872D01*
X142025487Y-77071500D01*
X141834513Y-77071500D01*
X141828061Y-77072872D01*
X141828056Y-77072872D01*
X141741112Y-77091353D01*
X141647712Y-77111206D01*
X141641682Y-77113891D01*
X141641681Y-77113891D01*
X141479278Y-77186197D01*
X141479276Y-77186198D01*
X141473248Y-77188882D01*
X141318747Y-77301134D01*
X141190960Y-77443056D01*
X141095473Y-77608444D01*
X141036458Y-77790072D01*
X141035768Y-77796633D01*
X141035768Y-77796635D01*
X141020583Y-77941118D01*
X141016496Y-77980000D01*
X137619421Y-77980000D01*
X137700722Y-77943803D01*
X137700724Y-77943802D01*
X137706752Y-77941118D01*
X137861253Y-77828866D01*
X137870322Y-77818794D01*
X137984621Y-77691852D01*
X137984622Y-77691851D01*
X137989040Y-77686944D01*
X138047314Y-77586010D01*
X138081223Y-77527279D01*
X138081224Y-77527278D01*
X138084527Y-77521556D01*
X138143542Y-77339928D01*
X138144872Y-77327279D01*
X138162814Y-77156565D01*
X138163504Y-77150000D01*
X138155398Y-77072872D01*
X138144232Y-76966635D01*
X138144232Y-76966633D01*
X138143542Y-76960072D01*
X138084527Y-76778444D01*
X137989040Y-76613056D01*
X137861253Y-76471134D01*
X137706752Y-76358882D01*
X137700724Y-76356198D01*
X137700722Y-76356197D01*
X137538319Y-76283891D01*
X137538318Y-76283891D01*
X137532288Y-76281206D01*
X137438888Y-76261353D01*
X137351944Y-76242872D01*
X137351939Y-76242872D01*
X137345487Y-76241500D01*
X137154513Y-76241500D01*
X137148061Y-76242872D01*
X137148056Y-76242872D01*
X137061112Y-76261353D01*
X136967712Y-76281206D01*
X136961682Y-76283891D01*
X136961681Y-76283891D01*
X136799278Y-76356197D01*
X136799276Y-76356198D01*
X136793248Y-76358882D01*
X136787907Y-76362762D01*
X136787906Y-76362763D01*
X136669758Y-76448603D01*
X136602890Y-76472461D01*
X136533739Y-76456381D01*
X136493763Y-76420730D01*
X136492339Y-76418770D01*
X136489040Y-76413056D01*
X136372740Y-76283891D01*
X136365675Y-76276045D01*
X136365674Y-76276044D01*
X136361253Y-76271134D01*
X136206752Y-76158882D01*
X136200724Y-76156198D01*
X136200722Y-76156197D01*
X136038319Y-76083891D01*
X136038318Y-76083891D01*
X136032288Y-76081206D01*
X135938887Y-76061353D01*
X135851944Y-76042872D01*
X135851939Y-76042872D01*
X135845487Y-76041500D01*
X135654513Y-76041500D01*
X135648061Y-76042872D01*
X135648056Y-76042872D01*
X135561113Y-76061353D01*
X135467712Y-76081206D01*
X135461682Y-76083891D01*
X135461681Y-76083891D01*
X135299278Y-76156197D01*
X135299276Y-76156198D01*
X135293248Y-76158882D01*
X135138747Y-76271134D01*
X135134326Y-76276044D01*
X135134325Y-76276045D01*
X135127261Y-76283891D01*
X135010960Y-76413056D01*
X134974593Y-76476045D01*
X134932040Y-76549750D01*
X134915473Y-76578444D01*
X134856458Y-76760072D01*
X134855768Y-76766633D01*
X134855768Y-76766635D01*
X134854527Y-76778444D01*
X134836496Y-76950000D01*
X126108500Y-76950000D01*
X126108500Y-72501695D01*
X144302251Y-72501695D01*
X144302548Y-72506848D01*
X144302548Y-72506851D01*
X144308011Y-72601590D01*
X144315110Y-72724715D01*
X144316247Y-72729761D01*
X144316248Y-72729767D01*
X144336119Y-72817939D01*
X144364222Y-72942639D01*
X144448266Y-73149616D01*
X144499019Y-73232438D01*
X144562291Y-73335688D01*
X144564987Y-73340088D01*
X144711250Y-73508938D01*
X144883126Y-73651632D01*
X145076000Y-73764338D01*
X145284692Y-73844030D01*
X145289760Y-73845061D01*
X145289763Y-73845062D01*
X145397017Y-73866883D01*
X145503597Y-73888567D01*
X145508772Y-73888757D01*
X145508774Y-73888757D01*
X145721673Y-73896564D01*
X145721677Y-73896564D01*
X145726837Y-73896753D01*
X145731957Y-73896097D01*
X145731959Y-73896097D01*
X145943288Y-73869025D01*
X145943289Y-73869025D01*
X145948416Y-73868368D01*
X145953366Y-73866883D01*
X146157429Y-73805661D01*
X146157434Y-73805659D01*
X146162384Y-73804174D01*
X146362994Y-73705896D01*
X146544860Y-73576173D01*
X146703096Y-73418489D01*
X146762594Y-73335689D01*
X146833453Y-73237077D01*
X146834776Y-73238028D01*
X146881645Y-73194857D01*
X146951580Y-73182625D01*
X147017026Y-73210144D01*
X147044875Y-73241994D01*
X147104987Y-73340088D01*
X147251250Y-73508938D01*
X147423126Y-73651632D01*
X147616000Y-73764338D01*
X147824692Y-73844030D01*
X147829760Y-73845061D01*
X147829763Y-73845062D01*
X147937017Y-73866883D01*
X148043597Y-73888567D01*
X148048772Y-73888757D01*
X148048774Y-73888757D01*
X148261673Y-73896564D01*
X148261677Y-73896564D01*
X148266837Y-73896753D01*
X148271957Y-73896097D01*
X148271959Y-73896097D01*
X148483288Y-73869025D01*
X148483289Y-73869025D01*
X148488416Y-73868368D01*
X148493366Y-73866883D01*
X148697429Y-73805661D01*
X148697434Y-73805659D01*
X148702384Y-73804174D01*
X148902994Y-73705896D01*
X149084860Y-73576173D01*
X149243096Y-73418489D01*
X149302594Y-73335689D01*
X149373453Y-73237077D01*
X149374776Y-73238028D01*
X149421645Y-73194857D01*
X149491580Y-73182625D01*
X149557026Y-73210144D01*
X149584875Y-73241994D01*
X149644987Y-73340088D01*
X149791250Y-73508938D01*
X149963126Y-73651632D01*
X150156000Y-73764338D01*
X150364692Y-73844030D01*
X150369760Y-73845061D01*
X150369763Y-73845062D01*
X150477017Y-73866883D01*
X150583597Y-73888567D01*
X150588772Y-73888757D01*
X150588774Y-73888757D01*
X150801673Y-73896564D01*
X150801677Y-73896564D01*
X150806837Y-73896753D01*
X150811957Y-73896097D01*
X150811959Y-73896097D01*
X151023288Y-73869025D01*
X151023289Y-73869025D01*
X151028416Y-73868368D01*
X151033366Y-73866883D01*
X151237429Y-73805661D01*
X151237434Y-73805659D01*
X151242384Y-73804174D01*
X151442994Y-73705896D01*
X151624860Y-73576173D01*
X151783096Y-73418489D01*
X151842594Y-73335689D01*
X151913453Y-73237077D01*
X151914776Y-73238028D01*
X151961645Y-73194857D01*
X152031580Y-73182625D01*
X152097026Y-73210144D01*
X152124875Y-73241994D01*
X152184987Y-73340088D01*
X152331250Y-73508938D01*
X152503126Y-73651632D01*
X152696000Y-73764338D01*
X152904692Y-73844030D01*
X152909760Y-73845061D01*
X152909763Y-73845062D01*
X153017017Y-73866883D01*
X153123597Y-73888567D01*
X153128772Y-73888757D01*
X153128774Y-73888757D01*
X153341673Y-73896564D01*
X153341677Y-73896564D01*
X153346837Y-73896753D01*
X153351957Y-73896097D01*
X153351959Y-73896097D01*
X153563288Y-73869025D01*
X153563289Y-73869025D01*
X153568416Y-73868368D01*
X153573366Y-73866883D01*
X153777429Y-73805661D01*
X153777434Y-73805659D01*
X153782384Y-73804174D01*
X153982994Y-73705896D01*
X154164860Y-73576173D01*
X154323096Y-73418489D01*
X154382594Y-73335689D01*
X154453453Y-73237077D01*
X154454776Y-73238028D01*
X154501645Y-73194857D01*
X154571580Y-73182625D01*
X154637026Y-73210144D01*
X154664875Y-73241994D01*
X154724987Y-73340088D01*
X154871250Y-73508938D01*
X155043126Y-73651632D01*
X155236000Y-73764338D01*
X155444692Y-73844030D01*
X155449760Y-73845061D01*
X155449763Y-73845062D01*
X155557017Y-73866883D01*
X155663597Y-73888567D01*
X155668772Y-73888757D01*
X155668774Y-73888757D01*
X155881673Y-73896564D01*
X155881677Y-73896564D01*
X155886837Y-73896753D01*
X155891957Y-73896097D01*
X155891959Y-73896097D01*
X156103288Y-73869025D01*
X156103289Y-73869025D01*
X156108416Y-73868368D01*
X156113366Y-73866883D01*
X156317429Y-73805661D01*
X156317434Y-73805659D01*
X156322384Y-73804174D01*
X156522994Y-73705896D01*
X156704860Y-73576173D01*
X156863096Y-73418489D01*
X156922594Y-73335689D01*
X156990435Y-73241277D01*
X156993453Y-73237077D01*
X157014320Y-73194857D01*
X157090136Y-73041453D01*
X157090137Y-73041451D01*
X157092430Y-73036811D01*
X157157370Y-72823069D01*
X157186529Y-72601590D01*
X157188156Y-72535000D01*
X157169852Y-72312361D01*
X157115431Y-72095702D01*
X157026354Y-71890840D01*
X156905014Y-71703277D01*
X156901532Y-71699450D01*
X156757798Y-71541488D01*
X156726746Y-71477642D01*
X156735141Y-71407143D01*
X156780317Y-71352375D01*
X156806761Y-71338706D01*
X156913297Y-71298767D01*
X156921705Y-71295615D01*
X157038261Y-71208261D01*
X157125615Y-71091705D01*
X157176745Y-70955316D01*
X157183500Y-70893134D01*
X157183500Y-69096866D01*
X157176745Y-69034684D01*
X157125615Y-68898295D01*
X157038261Y-68781739D01*
X156921705Y-68694385D01*
X156785316Y-68643255D01*
X156723134Y-68636500D01*
X154926866Y-68636500D01*
X154864684Y-68643255D01*
X154728295Y-68694385D01*
X154611739Y-68781739D01*
X154524385Y-68898295D01*
X154521233Y-68906703D01*
X154521232Y-68906705D01*
X154479722Y-69017433D01*
X154437081Y-69074198D01*
X154370519Y-69098898D01*
X154301170Y-69083691D01*
X154268546Y-69058004D01*
X154217799Y-69002234D01*
X154210273Y-68995215D01*
X154043139Y-68863222D01*
X154034552Y-68857517D01*
X153848117Y-68754599D01*
X153838705Y-68750369D01*
X153637959Y-68679280D01*
X153627988Y-68676646D01*
X153556837Y-68663972D01*
X153543540Y-68665432D01*
X153539000Y-68679989D01*
X153539000Y-70123000D01*
X153518998Y-70191121D01*
X153465342Y-70237614D01*
X153413000Y-70249000D01*
X150617000Y-70249000D01*
X150548879Y-70228998D01*
X150502386Y-70175342D01*
X150491000Y-70123000D01*
X150491000Y-69722885D01*
X150999000Y-69722885D01*
X151003475Y-69738124D01*
X151004865Y-69739329D01*
X151012548Y-69741000D01*
X153012885Y-69741000D01*
X153028124Y-69736525D01*
X153029329Y-69735135D01*
X153031000Y-69727452D01*
X153031000Y-68678102D01*
X153027082Y-68664758D01*
X153012806Y-68662771D01*
X152974324Y-68668660D01*
X152964288Y-68671051D01*
X152761868Y-68737212D01*
X152752359Y-68741209D01*
X152563463Y-68839542D01*
X152554738Y-68845036D01*
X152384433Y-68972905D01*
X152376726Y-68979748D01*
X152229590Y-69133717D01*
X152223104Y-69141727D01*
X152118193Y-69295521D01*
X152063282Y-69340524D01*
X151992757Y-69348695D01*
X151929010Y-69317441D01*
X151908313Y-69292957D01*
X151827427Y-69167926D01*
X151821136Y-69159757D01*
X151677806Y-69002240D01*
X151670273Y-68995215D01*
X151503139Y-68863222D01*
X151494552Y-68857517D01*
X151308117Y-68754599D01*
X151298705Y-68750369D01*
X151097959Y-68679280D01*
X151087988Y-68676646D01*
X151016837Y-68663972D01*
X151003540Y-68665432D01*
X150999000Y-68679989D01*
X150999000Y-69722885D01*
X150491000Y-69722885D01*
X150491000Y-68678102D01*
X150487082Y-68664758D01*
X150472806Y-68662771D01*
X150434324Y-68668660D01*
X150424288Y-68671051D01*
X150221868Y-68737212D01*
X150212359Y-68741209D01*
X150023463Y-68839542D01*
X150014738Y-68845036D01*
X149844433Y-68972905D01*
X149836726Y-68979748D01*
X149689590Y-69133717D01*
X149683109Y-69141722D01*
X149578498Y-69295074D01*
X149523587Y-69340076D01*
X149453062Y-69348247D01*
X149389315Y-69316993D01*
X149368618Y-69292509D01*
X149287822Y-69167617D01*
X149287820Y-69167614D01*
X149285014Y-69163277D01*
X149134670Y-68998051D01*
X149130619Y-68994852D01*
X149130615Y-68994848D01*
X148963414Y-68862800D01*
X148963410Y-68862798D01*
X148959359Y-68859598D01*
X148935100Y-68846206D01*
X148907136Y-68830769D01*
X148763789Y-68751638D01*
X148758920Y-68749914D01*
X148758916Y-68749912D01*
X148558087Y-68678795D01*
X148558083Y-68678794D01*
X148553212Y-68677069D01*
X148548119Y-68676162D01*
X148548116Y-68676161D01*
X148338373Y-68638800D01*
X148338367Y-68638799D01*
X148333284Y-68637894D01*
X148259452Y-68636992D01*
X148115081Y-68635228D01*
X148115079Y-68635228D01*
X148109911Y-68635165D01*
X147889091Y-68668955D01*
X147676756Y-68738357D01*
X147603757Y-68776358D01*
X147494248Y-68833365D01*
X147478607Y-68841507D01*
X147474474Y-68844610D01*
X147474471Y-68844612D01*
X147391771Y-68906705D01*
X147299965Y-68975635D01*
X147145629Y-69137138D01*
X147142715Y-69141410D01*
X147142714Y-69141411D01*
X147130404Y-69159457D01*
X147039337Y-69292957D01*
X147037898Y-69295066D01*
X146982987Y-69340069D01*
X146912462Y-69348240D01*
X146848715Y-69316986D01*
X146828018Y-69292502D01*
X146747426Y-69167926D01*
X146741136Y-69159757D01*
X146597806Y-69002240D01*
X146590273Y-68995215D01*
X146423139Y-68863222D01*
X146414552Y-68857517D01*
X146228117Y-68754599D01*
X146218705Y-68750369D01*
X146017959Y-68679280D01*
X146007988Y-68676646D01*
X145936837Y-68663972D01*
X145923540Y-68665432D01*
X145919000Y-68679989D01*
X145919000Y-70123000D01*
X145898998Y-70191121D01*
X145845342Y-70237614D01*
X145793000Y-70249000D01*
X144348225Y-70249000D01*
X144334694Y-70252973D01*
X144333257Y-70262966D01*
X144363565Y-70397446D01*
X144366645Y-70407275D01*
X144446770Y-70604603D01*
X144451413Y-70613794D01*
X144562694Y-70795388D01*
X144568777Y-70803699D01*
X144708213Y-70964667D01*
X144715580Y-70971883D01*
X144879434Y-71107916D01*
X144887881Y-71113831D01*
X144956969Y-71154203D01*
X145005693Y-71205842D01*
X145018764Y-71275625D01*
X144992033Y-71341396D01*
X144951584Y-71374752D01*
X144938607Y-71381507D01*
X144934474Y-71384610D01*
X144934471Y-71384612D01*
X144810567Y-71477642D01*
X144759965Y-71515635D01*
X144605629Y-71677138D01*
X144479743Y-71861680D01*
X144385688Y-72064305D01*
X144325989Y-72279570D01*
X144302251Y-72501695D01*
X126108500Y-72501695D01*
X126108500Y-69729183D01*
X144329389Y-69729183D01*
X144330912Y-69737607D01*
X144343292Y-69741000D01*
X145392885Y-69741000D01*
X145408124Y-69736525D01*
X145409329Y-69735135D01*
X145411000Y-69727452D01*
X145411000Y-68678102D01*
X145407082Y-68664758D01*
X145392806Y-68662771D01*
X145354324Y-68668660D01*
X145344288Y-68671051D01*
X145141868Y-68737212D01*
X145132359Y-68741209D01*
X144943463Y-68839542D01*
X144934738Y-68845036D01*
X144764433Y-68972905D01*
X144756726Y-68979748D01*
X144609590Y-69133717D01*
X144603104Y-69141727D01*
X144483098Y-69317649D01*
X144478000Y-69326623D01*
X144388338Y-69519783D01*
X144384775Y-69529470D01*
X144329389Y-69729183D01*
X126108500Y-69729183D01*
X126108500Y-68650000D01*
X128856496Y-68650000D01*
X128857186Y-68656565D01*
X128869777Y-68776358D01*
X128876458Y-68839928D01*
X128935473Y-69021556D01*
X128938776Y-69027278D01*
X128938777Y-69027279D01*
X128943052Y-69034684D01*
X129030960Y-69186944D01*
X129035378Y-69191851D01*
X129035379Y-69191852D01*
X129148460Y-69317441D01*
X129158747Y-69328866D01*
X129313248Y-69441118D01*
X129319276Y-69443802D01*
X129319278Y-69443803D01*
X129481681Y-69516109D01*
X129487712Y-69518794D01*
X129581113Y-69538647D01*
X129668056Y-69557128D01*
X129668061Y-69557128D01*
X129674513Y-69558500D01*
X129865487Y-69558500D01*
X129871939Y-69557128D01*
X129871944Y-69557128D01*
X129958887Y-69538647D01*
X130052288Y-69518794D01*
X130058319Y-69516109D01*
X130220722Y-69443803D01*
X130220724Y-69443802D01*
X130226752Y-69441118D01*
X130381253Y-69328866D01*
X130391540Y-69317441D01*
X130504621Y-69191852D01*
X130504622Y-69191851D01*
X130509040Y-69186944D01*
X130596948Y-69034684D01*
X130601223Y-69027279D01*
X130601224Y-69027278D01*
X130604527Y-69021556D01*
X130663542Y-68839928D01*
X130670224Y-68776358D01*
X130682814Y-68656565D01*
X130683504Y-68650000D01*
X130663542Y-68460072D01*
X130604527Y-68278444D01*
X130509040Y-68113056D01*
X130381253Y-67971134D01*
X130226752Y-67858882D01*
X130220724Y-67856198D01*
X130220722Y-67856197D01*
X130058319Y-67783891D01*
X130058318Y-67783891D01*
X130052288Y-67781206D01*
X129958887Y-67761353D01*
X129871944Y-67742872D01*
X129871939Y-67742872D01*
X129865487Y-67741500D01*
X129674513Y-67741500D01*
X129668061Y-67742872D01*
X129668056Y-67742872D01*
X129581113Y-67761353D01*
X129487712Y-67781206D01*
X129481682Y-67783891D01*
X129481681Y-67783891D01*
X129319278Y-67856197D01*
X129319276Y-67856198D01*
X129313248Y-67858882D01*
X129158747Y-67971134D01*
X129030960Y-68113056D01*
X128935473Y-68278444D01*
X128876458Y-68460072D01*
X128856496Y-68650000D01*
X126108500Y-68650000D01*
X126108500Y-66434500D01*
X126128502Y-66366379D01*
X126182158Y-66319886D01*
X126234500Y-66308500D01*
X184965500Y-66308500D01*
X185033621Y-66328502D01*
G37*
%TD.AperFunction*%
%TD*%
M02*
