M48
; DRILL file {KiCad (6.0.8)} date Tue Oct 25 21:38:08 2022
; FORMAT={-:-/ absolute / inch / decimal}
; #@! TF.CreationDate,2022-10-25T21:38:08+02:00
; #@! TF.GenerationSoftware,Kicad,Pcbnew,(6.0.8)
; #@! TF.FileFunction,Plated,1,4,PTH
FMAT,2
INCH
; #@! TA.AperFunction,Plated,PTH,ViaDrill
T1C0.0157
; #@! TA.AperFunction,Plated,PTH,ComponentDrill
T2C0.0394
%
G90
G05
T1
X5.4554Y-3.1008
X5.4786Y-3.1756
X5.5617Y-2.9039
X5.5764Y-3.5189
X5.6267Y-3.0102
X5.6818Y-2.8134
X5.6897Y-3.1854
X5.7027Y-2.9748
X5.7201Y-3.6445
X5.7201Y-3.8346
X5.7251Y-3.2602
X5.742Y-2.9
X5.7535Y-3.5894
X5.783Y-3.3559
X5.7861Y-2.7661
X5.8452Y-2.774
X5.8688Y-3.4276
X5.9067Y-3.6098
X5.9101Y-2.778
X5.979Y-3.4276
X6.0479Y-3.2807
X6.0676Y-2.9571
X6.089Y-3.6512
X6.1504Y-3.5984
X6.1739Y-3.463
X6.1799Y-3.55
X6.1956Y-3.0732
X6.1999Y-3.1524
X6.2023Y-3.0142
X6.2165Y-4.028
X6.2165Y-4.0634
X6.2173Y-3.9539
X6.2173Y-3.9894
X6.2216Y-2.8882
X6.2527Y-3.4276
X6.2783Y-3.8799
X6.2902Y-3.5059
X6.3177Y-3.8799
X6.328Y-3.7949
X6.3508Y-3.2267
X6.3516Y-3.4791
X6.3531Y-2.915
X6.3787Y-3.8819
X6.3885Y-2.9925
X6.3969Y-3.6874
X6.3988Y-3.7504
X6.4181Y-3.8819
X6.4323Y-3.6874
X6.4598Y-3.0315
X6.4839Y-3.7642
X6.4953Y-3.1028
X6.5157Y-2.6657
X6.5193Y-3.7642
X6.5268Y-3.2349
X6.5547Y-3.7642
X6.5902Y-3.7642
X6.6276Y-3.7642
X6.6295Y-3.4307
X6.6622Y-3.3051
X6.6846Y-3.7866
X6.6846Y-3.8315
X6.7024Y-2.9768
X6.7232Y-2.6661
X6.724Y-3.7866
X6.724Y-3.8315
X6.7512Y-3.3795
X6.7831Y-3.6402
X6.7831Y-3.6902
X6.9Y-3.5657
X6.9102Y-3.502
X6.922Y-3.1138
X7.0417Y-3.3976
X7.1087Y-3.3976
X7.1736Y-3.3976
X7.2386Y-3.3976
T2
X5.512Y-3.6967
X5.512Y-3.7967
X5.512Y-3.8967
X5.512Y-3.9967
X5.512Y-4.0967
X5.612Y-3.6967
X5.612Y-3.7967
X5.612Y-3.8967
X5.612Y-3.9967
X5.612Y-4.0967
X5.9776Y-3.8024
X5.9776Y-3.9024
X5.9776Y-4.0024
X5.9776Y-4.1024
T0
M30
