%TF.GenerationSoftware,KiCad,Pcbnew,(6.0.8)*%
%TF.CreationDate,2022-10-25T21:38:08+02:00*%
%TF.ProjectId,stm_v3,73746d5f-7633-42e6-9b69-6361645f7063,rev?*%
%TF.SameCoordinates,Original*%
%TF.FileFunction,Copper,L1,Top*%
%TF.FilePolarity,Positive*%
%FSLAX46Y46*%
G04 Gerber Fmt 4.6, Leading zero omitted, Abs format (unit mm)*
G04 Created by KiCad (PCBNEW (6.0.8)) date 2022-10-25 21:38:08*
%MOMM*%
%LPD*%
G01*
G04 APERTURE LIST*
G04 Aperture macros list*
%AMRoundRect*
0 Rectangle with rounded corners*
0 $1 Rounding radius*
0 $2 $3 $4 $5 $6 $7 $8 $9 X,Y pos of 4 corners*
0 Add a 4 corners polygon primitive as box body*
4,1,4,$2,$3,$4,$5,$6,$7,$8,$9,$2,$3,0*
0 Add four circle primitives for the rounded corners*
1,1,$1+$1,$2,$3*
1,1,$1+$1,$4,$5*
1,1,$1+$1,$6,$7*
1,1,$1+$1,$8,$9*
0 Add four rect primitives between the rounded corners*
20,1,$1+$1,$2,$3,$4,$5,0*
20,1,$1+$1,$4,$5,$6,$7,0*
20,1,$1+$1,$6,$7,$8,$9,0*
20,1,$1+$1,$8,$9,$2,$3,0*%
%AMFreePoly0*
4,1,17,-0.950000,3.025000,-0.941586,3.114006,-0.894789,3.247267,-0.810876,3.360876,-0.697267,3.444789,-0.564006,3.491586,-0.475000,3.500000,0.475000,3.500000,0.564006,3.491586,0.697267,3.444789,0.810876,3.360876,0.894789,3.247267,0.941586,3.114006,0.950000,3.025000,0.950000,-3.500000,-0.950000,-3.500000,-0.950000,3.025000,-0.950000,3.025000,$1*%
G04 Aperture macros list end*
%TA.AperFunction,SMDPad,CuDef*%
%ADD10RoundRect,0.140000X-0.140000X-0.170000X0.140000X-0.170000X0.140000X0.170000X-0.140000X0.170000X0*%
%TD*%
%TA.AperFunction,SMDPad,CuDef*%
%ADD11RoundRect,0.525000X-0.525000X-2.025000X0.525000X-2.025000X0.525000X2.025000X-0.525000X2.025000X0*%
%TD*%
%TA.AperFunction,SMDPad,CuDef*%
%ADD12RoundRect,0.075000X-0.075000X-0.700000X0.075000X-0.700000X0.075000X0.700000X-0.075000X0.700000X0*%
%TD*%
%TA.AperFunction,SMDPad,CuDef*%
%ADD13RoundRect,0.075000X-0.700000X-0.075000X0.700000X-0.075000X0.700000X0.075000X-0.700000X0.075000X0*%
%TD*%
%TA.AperFunction,SMDPad,CuDef*%
%ADD14RoundRect,0.135000X0.135000X0.185000X-0.135000X0.185000X-0.135000X-0.185000X0.135000X-0.185000X0*%
%TD*%
%TA.AperFunction,SMDPad,CuDef*%
%ADD15RoundRect,0.160000X0.160000X-0.197500X0.160000X0.197500X-0.160000X0.197500X-0.160000X-0.197500X0*%
%TD*%
%TA.AperFunction,SMDPad,CuDef*%
%ADD16RoundRect,0.155000X0.212500X0.155000X-0.212500X0.155000X-0.212500X-0.155000X0.212500X-0.155000X0*%
%TD*%
%TA.AperFunction,SMDPad,CuDef*%
%ADD17RoundRect,0.155000X-0.212500X-0.155000X0.212500X-0.155000X0.212500X0.155000X-0.212500X0.155000X0*%
%TD*%
%TA.AperFunction,SMDPad,CuDef*%
%ADD18RoundRect,0.150000X-0.350000X0.600000X-0.350000X-0.600000X0.350000X-0.600000X0.350000X0.600000X0*%
%TD*%
%TA.AperFunction,SMDPad,CuDef*%
%ADD19RoundRect,0.140000X0.140000X0.170000X-0.140000X0.170000X-0.140000X-0.170000X0.140000X-0.170000X0*%
%TD*%
%TA.AperFunction,SMDPad,CuDef*%
%ADD20RoundRect,0.200000X-0.200000X-0.275000X0.200000X-0.275000X0.200000X0.275000X-0.200000X0.275000X0*%
%TD*%
%TA.AperFunction,SMDPad,CuDef*%
%ADD21R,1.200000X1.400000*%
%TD*%
%TA.AperFunction,SMDPad,CuDef*%
%ADD22RoundRect,0.218750X-0.218750X-0.256250X0.218750X-0.256250X0.218750X0.256250X-0.218750X0.256250X0*%
%TD*%
%TA.AperFunction,SMDPad,CuDef*%
%ADD23RoundRect,0.140000X-0.170000X0.140000X-0.170000X-0.140000X0.170000X-0.140000X0.170000X0.140000X0*%
%TD*%
%TA.AperFunction,SMDPad,CuDef*%
%ADD24RoundRect,0.225000X0.225000X0.250000X-0.225000X0.250000X-0.225000X-0.250000X0.225000X-0.250000X0*%
%TD*%
%TA.AperFunction,SMDPad,CuDef*%
%ADD25RoundRect,0.135000X-0.135000X-0.185000X0.135000X-0.185000X0.135000X0.185000X-0.135000X0.185000X0*%
%TD*%
%TA.AperFunction,ConnectorPad*%
%ADD26FreePoly0,90.000000*%
%TD*%
%TA.AperFunction,SMDPad,CuDef*%
%ADD27RoundRect,0.200000X0.275000X-0.200000X0.275000X0.200000X-0.275000X0.200000X-0.275000X-0.200000X0*%
%TD*%
%TA.AperFunction,SMDPad,CuDef*%
%ADD28RoundRect,0.135000X0.185000X-0.135000X0.185000X0.135000X-0.185000X0.135000X-0.185000X-0.135000X0*%
%TD*%
%TA.AperFunction,SMDPad,CuDef*%
%ADD29RoundRect,0.155000X0.155000X-0.212500X0.155000X0.212500X-0.155000X0.212500X-0.155000X-0.212500X0*%
%TD*%
%TA.AperFunction,SMDPad,CuDef*%
%ADD30RoundRect,0.250000X0.650000X-0.325000X0.650000X0.325000X-0.650000X0.325000X-0.650000X-0.325000X0*%
%TD*%
%TA.AperFunction,SMDPad,CuDef*%
%ADD31RoundRect,0.135000X-0.185000X0.135000X-0.185000X-0.135000X0.185000X-0.135000X0.185000X0.135000X0*%
%TD*%
%TA.AperFunction,SMDPad,CuDef*%
%ADD32RoundRect,0.180000X0.420000X0.620000X-0.420000X0.620000X-0.420000X-0.620000X0.420000X-0.620000X0*%
%TD*%
%TA.AperFunction,ComponentPad*%
%ADD33R,1.700000X1.700000*%
%TD*%
%TA.AperFunction,ComponentPad*%
%ADD34O,1.700000X1.700000*%
%TD*%
%TA.AperFunction,SMDPad,CuDef*%
%ADD35RoundRect,0.140000X0.170000X-0.140000X0.170000X0.140000X-0.170000X0.140000X-0.170000X-0.140000X0*%
%TD*%
%TA.AperFunction,SMDPad,CuDef*%
%ADD36RoundRect,0.225000X-0.250000X0.225000X-0.250000X-0.225000X0.250000X-0.225000X0.250000X0.225000X0*%
%TD*%
%TA.AperFunction,SMDPad,CuDef*%
%ADD37RoundRect,0.150000X-0.150000X0.587500X-0.150000X-0.587500X0.150000X-0.587500X0.150000X0.587500X0*%
%TD*%
%TA.AperFunction,SMDPad,CuDef*%
%ADD38RoundRect,0.155000X-0.155000X0.212500X-0.155000X-0.212500X0.155000X-0.212500X0.155000X0.212500X0*%
%TD*%
%TA.AperFunction,SMDPad,CuDef*%
%ADD39RoundRect,0.200000X-0.275000X0.200000X-0.275000X-0.200000X0.275000X-0.200000X0.275000X0.200000X0*%
%TD*%
%TA.AperFunction,SMDPad,CuDef*%
%ADD40RoundRect,0.150000X0.512500X0.150000X-0.512500X0.150000X-0.512500X-0.150000X0.512500X-0.150000X0*%
%TD*%
%TA.AperFunction,SMDPad,CuDef*%
%ADD41R,0.600000X1.300000*%
%TD*%
%TA.AperFunction,SMDPad,CuDef*%
%ADD42RoundRect,0.150000X-0.825000X-0.150000X0.825000X-0.150000X0.825000X0.150000X-0.825000X0.150000X0*%
%TD*%
%TA.AperFunction,ViaPad*%
%ADD43C,0.800000*%
%TD*%
%TA.AperFunction,Conductor*%
%ADD44C,0.300000*%
%TD*%
%TA.AperFunction,Conductor*%
%ADD45C,0.500000*%
%TD*%
G04 APERTURE END LIST*
D10*
%TO.P,C10,1*%
%TO.N,NRST*%
X145907500Y-84310000D03*
%TO.P,C10,2*%
%TO.N,GND*%
X146867500Y-84310000D03*
%TD*%
D11*
%TO.P,L1,1,1*%
%TO.N,/Power Supply/SW*%
X170220000Y-101830000D03*
%TO.P,L1,2,2*%
%TO.N,+3.3V*%
X165820000Y-101830000D03*
%TD*%
D12*
%TO.P,U1,64,VDD*%
%TO.N,+3.3V*%
X149627500Y-73635000D03*
%TO.P,U1,63,VSS*%
%TO.N,GND*%
X150127500Y-73635000D03*
%TO.P,U1,62,PB9*%
%TO.N,unconnected-(U1-Pad62)*%
X150627500Y-73635000D03*
%TO.P,U1,61,PB8*%
%TO.N,unconnected-(U1-Pad61)*%
X151127500Y-73635000D03*
%TO.P,U1,60,PH3*%
%TO.N,BOOT0*%
X151627500Y-73635000D03*
%TO.P,U1,59,PB7*%
%TO.N,unconnected-(U1-Pad59)*%
X152127500Y-73635000D03*
%TO.P,U1,58,PB6*%
%TO.N,unconnected-(U1-Pad58)*%
X152627500Y-73635000D03*
%TO.P,U1,57,PB5*%
%TO.N,unconnected-(U1-Pad57)*%
X153127500Y-73635000D03*
%TO.P,U1,56,PB4*%
%TO.N,unconnected-(U1-Pad56)*%
X153627500Y-73635000D03*
%TO.P,U1,55,PB3*%
%TO.N,SWO*%
X154127500Y-73635000D03*
%TO.P,U1,54,PD2*%
%TO.N,unconnected-(U1-Pad54)*%
X154627500Y-73635000D03*
%TO.P,U1,53,PC12*%
%TO.N,unconnected-(U1-Pad53)*%
X155127500Y-73635000D03*
%TO.P,U1,52,PC11*%
%TO.N,unconnected-(U1-Pad52)*%
X155627500Y-73635000D03*
%TO.P,U1,51,PC10*%
%TO.N,unconnected-(U1-Pad51)*%
X156127500Y-73635000D03*
%TO.P,U1,50,PA15*%
%TO.N,unconnected-(U1-Pad50)*%
X156627500Y-73635000D03*
%TO.P,U1,49,PA14*%
%TO.N,SWCLK*%
X157127500Y-73635000D03*
D13*
%TO.P,U1,48,VDD*%
%TO.N,+3.3V*%
X159052500Y-75560000D03*
%TO.P,U1,47,VSS*%
%TO.N,GND*%
X159052500Y-76060000D03*
%TO.P,U1,46,PA13*%
%TO.N,SWDIO*%
X159052500Y-76560000D03*
%TO.P,U1,45,PA12*%
%TO.N,CAN_TX*%
X159052500Y-77060000D03*
%TO.P,U1,44,PA11*%
%TO.N,CAN_RX*%
X159052500Y-77560000D03*
%TO.P,U1,43,PA10*%
%TO.N,KLine_RX*%
X159052500Y-78060000D03*
%TO.P,U1,42,PA9*%
%TO.N,KLine_TX*%
X159052500Y-78560000D03*
%TO.P,U1,41,PA8*%
%TO.N,LLine*%
X159052500Y-79060000D03*
%TO.P,U1,40,PC9*%
%TO.N,unconnected-(U1-Pad40)*%
X159052500Y-79560000D03*
%TO.P,U1,39,PC8*%
%TO.N,CAN_S*%
X159052500Y-80060000D03*
%TO.P,U1,38,PC7*%
%TO.N,unconnected-(U1-Pad38)*%
X159052500Y-80560000D03*
%TO.P,U1,37,PC6*%
%TO.N,unconnected-(U1-Pad37)*%
X159052500Y-81060000D03*
%TO.P,U1,36,PB15*%
%TO.N,unconnected-(U1-Pad36)*%
X159052500Y-81560000D03*
%TO.P,U1,35,PB14*%
%TO.N,unconnected-(U1-Pad35)*%
X159052500Y-82060000D03*
%TO.P,U1,34,PB13*%
%TO.N,unconnected-(U1-Pad34)*%
X159052500Y-82560000D03*
%TO.P,U1,33,PB12*%
%TO.N,unconnected-(U1-Pad33)*%
X159052500Y-83060000D03*
D12*
%TO.P,U1,32,VDD*%
%TO.N,+3.3V*%
X157127500Y-84985000D03*
%TO.P,U1,31,VSS*%
%TO.N,GND*%
X156627500Y-84985000D03*
%TO.P,U1,30,PB11*%
%TO.N,OLED_SDA*%
X156127500Y-84985000D03*
%TO.P,U1,29,PB10*%
%TO.N,OLED_SCL*%
X155627500Y-84985000D03*
%TO.P,U1,28,PB2*%
%TO.N,unconnected-(U1-Pad28)*%
X155127500Y-84985000D03*
%TO.P,U1,27,PB1*%
%TO.N,unconnected-(U1-Pad27)*%
X154627500Y-84985000D03*
%TO.P,U1,26,PB0*%
%TO.N,unconnected-(U1-Pad26)*%
X154127500Y-84985000D03*
%TO.P,U1,25,PC5*%
%TO.N,BAT_V*%
X153627500Y-84985000D03*
%TO.P,U1,24,PC4*%
%TO.N,unconnected-(U1-Pad24)*%
X153127500Y-84985000D03*
%TO.P,U1,23,PA7*%
%TO.N,LED*%
X152627500Y-84985000D03*
%TO.P,U1,22,PA6*%
%TO.N,unconnected-(U1-Pad22)*%
X152127500Y-84985000D03*
%TO.P,U1,21,PA5*%
%TO.N,unconnected-(U1-Pad21)*%
X151627500Y-84985000D03*
%TO.P,U1,20,PA4*%
%TO.N,unconnected-(U1-Pad20)*%
X151127500Y-84985000D03*
%TO.P,U1,19,VDD*%
%TO.N,+3.3V*%
X150627500Y-84985000D03*
%TO.P,U1,18,VSS*%
%TO.N,GND*%
X150127500Y-84985000D03*
%TO.P,U1,17,PA3*%
%TO.N,unconnected-(U1-Pad17)*%
X149627500Y-84985000D03*
D13*
%TO.P,U1,16,PA2*%
%TO.N,unconnected-(U1-Pad16)*%
X147702500Y-83060000D03*
%TO.P,U1,15,PA1*%
%TO.N,unconnected-(U1-Pad15)*%
X147702500Y-82560000D03*
%TO.P,U1,14,PA0*%
%TO.N,unconnected-(U1-Pad14)*%
X147702500Y-82060000D03*
%TO.P,U1,13,VDDA*%
%TO.N,+3.3V*%
X147702500Y-81560000D03*
%TO.P,U1,12,VSSA*%
%TO.N,GND*%
X147702500Y-81060000D03*
%TO.P,U1,11,PC3*%
%TO.N,unconnected-(U1-Pad11)*%
X147702500Y-80560000D03*
%TO.P,U1,10,PC2*%
%TO.N,unconnected-(U1-Pad10)*%
X147702500Y-80060000D03*
%TO.P,U1,9,PC1*%
%TO.N,unconnected-(U1-Pad9)*%
X147702500Y-79560000D03*
%TO.P,U1,8,PC0*%
%TO.N,unconnected-(U1-Pad8)*%
X147702500Y-79060000D03*
%TO.P,U1,7,NRST*%
%TO.N,NRST*%
X147702500Y-78560000D03*
%TO.P,U1,6,PH1*%
%TO.N,HSE_OUT*%
X147702500Y-78060000D03*
%TO.P,U1,5,PH0*%
%TO.N,HSE_IN*%
X147702500Y-77560000D03*
%TO.P,U1,4,PC15*%
%TO.N,unconnected-(U1-Pad4)*%
X147702500Y-77060000D03*
%TO.P,U1,3,PC14*%
%TO.N,unconnected-(U1-Pad3)*%
X147702500Y-76560000D03*
%TO.P,U1,2,PC13*%
%TO.N,unconnected-(U1-Pad2)*%
X147702500Y-76060000D03*
%TO.P,U1,1,VBAT*%
%TO.N,+3.3V*%
X147702500Y-75560000D03*
%TD*%
D14*
%TO.P,R23,1*%
%TO.N,BAT_V*%
X159030000Y-90170000D03*
%TO.P,R23,2*%
%TO.N,GND*%
X158010000Y-90170000D03*
%TD*%
%TO.P,R22,1*%
%TO.N,+12V*%
X161600000Y-90170000D03*
%TO.P,R22,2*%
%TO.N,BAT_V*%
X160580000Y-90170000D03*
%TD*%
D15*
%TO.P,R14,2*%
%TO.N,GND*%
X156230000Y-92282500D03*
%TO.P,R14,1*%
%TO.N,/Power Supply/FB*%
X156230000Y-93477500D03*
%TD*%
%TO.P,R13,2*%
%TO.N,/Power Supply/FB*%
X156230000Y-96302500D03*
%TO.P,R13,1*%
%TO.N,+3.3V*%
X156230000Y-97497500D03*
%TD*%
D16*
%TO.P,C9,1*%
%TO.N,/HSE_O*%
X141385000Y-80660000D03*
%TO.P,C9,2*%
%TO.N,GND*%
X140250000Y-80660000D03*
%TD*%
D17*
%TO.P,C8,1*%
%TO.N,HSE_IN*%
X140200000Y-74660000D03*
%TO.P,C8,2*%
%TO.N,GND*%
X141335000Y-74660000D03*
%TD*%
D18*
%TO.P,SW1,1,1*%
%TO.N,GND*%
X142960000Y-89290000D03*
%TO.P,SW1,2,2*%
%TO.N,NRST*%
X142960000Y-81390000D03*
%TD*%
D19*
%TO.P,C3,2*%
%TO.N,GND*%
X156797500Y-87060000D03*
%TO.P,C3,1*%
%TO.N,+3.3V*%
X157757500Y-87060000D03*
%TD*%
D20*
%TO.P,R7,1*%
%TO.N,/Connectors/SW_DIO*%
X143145000Y-91180000D03*
%TO.P,R7,2*%
%TO.N,SWDIO*%
X144795000Y-91180000D03*
%TD*%
D21*
%TO.P,Y1,1,1*%
%TO.N,HSE_IN*%
X139907500Y-76510000D03*
%TO.P,Y1,2,2*%
%TO.N,GND*%
X139907500Y-78710000D03*
%TO.P,Y1,3,3*%
%TO.N,/HSE_O*%
X141607500Y-78710000D03*
%TO.P,Y1,4,4*%
%TO.N,GND*%
X141607500Y-76510000D03*
%TD*%
D10*
%TO.P,C5,2*%
%TO.N,GND*%
X150127500Y-71440000D03*
%TO.P,C5,1*%
%TO.N,+3.3V*%
X149167500Y-71440000D03*
%TD*%
D22*
%TO.P,D2,2,A*%
%TO.N,LED*%
X151445000Y-88900000D03*
%TO.P,D2,1,K*%
%TO.N,Net-(D2-Pad1)*%
X149870000Y-88900000D03*
%TD*%
D23*
%TO.P,C16,1*%
%TO.N,+12V*%
X164910000Y-93040000D03*
%TO.P,C16,2*%
%TO.N,GND*%
X164910000Y-94000000D03*
%TD*%
D24*
%TO.P,C1,2*%
%TO.N,GND*%
X145422500Y-71450000D03*
%TO.P,C1,1*%
%TO.N,+3.3V*%
X146972500Y-71450000D03*
%TD*%
D25*
%TO.P,R4,1*%
%TO.N,BOOT0*%
X164010000Y-73460000D03*
%TO.P,R4,2*%
%TO.N,/BOOT_0*%
X165030000Y-73460000D03*
%TD*%
D26*
%TO.P,J3,1,NC*%
%TO.N,unconnected-(J3-Pad1)*%
X181760000Y-70900000D03*
%TO.P,J3,2,J1850_BUS+*%
%TO.N,unconnected-(J3-Pad2)*%
X181760000Y-75300000D03*
%TO.P,J3,3,NC*%
%TO.N,unconnected-(J3-Pad3)*%
X181760000Y-79700000D03*
%TO.P,J3,4,GND*%
%TO.N,GND*%
X181760000Y-84100000D03*
%TO.P,J3,5,GND*%
X181760000Y-88500000D03*
%TO.P,J3,6,CAN_H*%
%TO.N,CAN_H*%
X181760000Y-92900000D03*
%TO.P,J3,7,K_Line*%
%TO.N,ISO_K*%
X181760000Y-97300000D03*
%TO.P,J3,8,NC*%
%TO.N,unconnected-(J3-Pad8)*%
X181760000Y-101700000D03*
%TD*%
D27*
%TO.P,R8,1*%
%TO.N,/Connectors/SW_CLK*%
X145290000Y-95455000D03*
%TO.P,R8,2*%
%TO.N,SWCLK*%
X145290000Y-93805000D03*
%TD*%
D28*
%TO.P,R2,1*%
%TO.N,CAN_H*%
X175800000Y-83530000D03*
%TO.P,R2,2*%
%TO.N,Net-(C13-Pad1)*%
X175800000Y-82510000D03*
%TD*%
D27*
%TO.P,R9,1*%
%TO.N,/Connectors/SW_O*%
X145290000Y-100345000D03*
%TO.P,R9,2*%
%TO.N,SWO*%
X145290000Y-98695000D03*
%TD*%
D25*
%TO.P,R11,2*%
%TO.N,OLED_SCL*%
X151060000Y-92780000D03*
%TO.P,R11,1*%
%TO.N,+3.3V*%
X150040000Y-92780000D03*
%TD*%
%TO.P,R19,1*%
%TO.N,KLine_TX*%
X163590000Y-81080000D03*
%TO.P,R19,2*%
%TO.N,Net-(Q2-Pad1)*%
X164610000Y-81080000D03*
%TD*%
D29*
%TO.P,C13,2*%
%TO.N,GND*%
X175800000Y-80172500D03*
%TO.P,C13,1*%
%TO.N,Net-(C13-Pad1)*%
X175800000Y-81307500D03*
%TD*%
D30*
%TO.P,C18,1*%
%TO.N,+3.3V*%
X162630000Y-102845000D03*
%TO.P,C18,2*%
%TO.N,GND*%
X162630000Y-99895000D03*
%TD*%
D25*
%TO.P,R20,2*%
%TO.N,KLine_RX*%
X169240000Y-88380000D03*
%TO.P,R20,1*%
%TO.N,ISO_K*%
X168220000Y-88380000D03*
%TD*%
D31*
%TO.P,R21,2*%
%TO.N,KLine_RX*%
X169230000Y-86090000D03*
%TO.P,R21,1*%
%TO.N,GND*%
X169230000Y-85070000D03*
%TD*%
D25*
%TO.P,R17,2*%
%TO.N,ISO_K*%
X166720000Y-88380000D03*
%TO.P,R17,1*%
%TO.N,+12V*%
X165700000Y-88380000D03*
%TD*%
D14*
%TO.P,R12,2*%
%TO.N,OLED_SDA*%
X152670000Y-92760000D03*
%TO.P,R12,1*%
%TO.N,+3.3V*%
X153690000Y-92760000D03*
%TD*%
%TO.P,R16,2*%
%TO.N,ISO_L*%
X162260000Y-88380000D03*
%TO.P,R16,1*%
%TO.N,+12V*%
X163280000Y-88380000D03*
%TD*%
D32*
%TO.P,SW2,3,C*%
%TO.N,+3.3V*%
X164230000Y-67750000D03*
%TO.P,SW2,2,B*%
%TO.N,/BOOT_0*%
X166730000Y-73450000D03*
%TO.P,SW2,1,A*%
%TO.N,GND*%
X169230000Y-67750000D03*
%TD*%
D33*
%TO.P,J1,1,Pin_1*%
%TO.N,+3.3V*%
X151830000Y-96580000D03*
D34*
%TO.P,J1,2,Pin_2*%
%TO.N,/Connectors/SDA*%
X151830000Y-99120000D03*
%TO.P,J1,3,Pin_3*%
%TO.N,/Connectors/SCL*%
X151830000Y-101660000D03*
%TO.P,J1,4,Pin_4*%
%TO.N,GND*%
X151830000Y-104200000D03*
%TD*%
D30*
%TO.P,C19,1*%
%TO.N,+3.3V*%
X159990000Y-102855000D03*
%TO.P,C19,2*%
%TO.N,GND*%
X159990000Y-99905000D03*
%TD*%
D10*
%TO.P,C17,1*%
%TO.N,/Power Supply/BST*%
X158680000Y-96410000D03*
%TO.P,C17,2*%
%TO.N,/Power Supply/SW*%
X159640000Y-96410000D03*
%TD*%
D25*
%TO.P,R3,2*%
%TO.N,HSE_OUT*%
X144727500Y-78710000D03*
%TO.P,R3,1*%
%TO.N,/HSE_O*%
X143707500Y-78710000D03*
%TD*%
D35*
%TO.P,C11,1*%
%TO.N,+3.3V*%
X164980000Y-77970000D03*
%TO.P,C11,2*%
%TO.N,GND*%
X164980000Y-77010000D03*
%TD*%
D36*
%TO.P,C14,1*%
%TO.N,+12V*%
X166400000Y-92805000D03*
%TO.P,C14,2*%
%TO.N,GND*%
X166400000Y-94355000D03*
%TD*%
D37*
%TO.P,Q2,1,B*%
%TO.N,Net-(Q2-Pad1)*%
X167690000Y-83740000D03*
%TO.P,Q2,2,E*%
%TO.N,GND*%
X165790000Y-83740000D03*
%TO.P,Q2,3,C*%
%TO.N,ISO_K*%
X166740000Y-85615000D03*
%TD*%
D38*
%TO.P,C12,1*%
%TO.N,Net-(C12-Pad1)*%
X171480000Y-83492500D03*
%TO.P,C12,2*%
%TO.N,GND*%
X171480000Y-84627500D03*
%TD*%
D39*
%TO.P,R6,1*%
%TO.N,OLED_SCL*%
X149000000Y-100005000D03*
%TO.P,R6,2*%
%TO.N,/Connectors/SCL*%
X149000000Y-101655000D03*
%TD*%
D23*
%TO.P,C4,2*%
%TO.N,GND*%
X161367500Y-75970000D03*
%TO.P,C4,1*%
%TO.N,+3.3V*%
X161367500Y-75010000D03*
%TD*%
D31*
%TO.P,R18,1*%
%TO.N,LLine*%
X161277500Y-79960000D03*
%TO.P,R18,2*%
%TO.N,Net-(Q1-Pad1)*%
X161277500Y-80980000D03*
%TD*%
D37*
%TO.P,Q1,3,C*%
%TO.N,ISO_L*%
X162260000Y-85585000D03*
%TO.P,Q1,2,E*%
%TO.N,GND*%
X161310000Y-83710000D03*
%TO.P,Q1,1,B*%
%TO.N,Net-(Q1-Pad1)*%
X163210000Y-83710000D03*
%TD*%
D31*
%TO.P,R15,2*%
%TO.N,Net-(D2-Pad1)*%
X148337500Y-88910000D03*
%TO.P,R15,1*%
%TO.N,GND*%
X148337500Y-87890000D03*
%TD*%
D40*
%TO.P,U3,1,GND*%
%TO.N,GND*%
X161067500Y-94580000D03*
%TO.P,U3,2,SW*%
%TO.N,/Power Supply/SW*%
X161067500Y-93630000D03*
%TO.P,U3,3,VIN*%
%TO.N,+12V*%
X161067500Y-92680000D03*
%TO.P,U3,4,VFB*%
%TO.N,/Power Supply/FB*%
X158792500Y-92680000D03*
%TO.P,U3,5,EN*%
%TO.N,+12V*%
X158792500Y-93630000D03*
%TO.P,U3,6,VBST*%
%TO.N,/Power Supply/BST*%
X158792500Y-94580000D03*
%TD*%
D27*
%TO.P,R10,1*%
%TO.N,/Connectors/N_RST*%
X145290000Y-105195000D03*
%TO.P,R10,2*%
%TO.N,NRST*%
X145290000Y-103545000D03*
%TD*%
D14*
%TO.P,R1,1*%
%TO.N,CAN_L*%
X173740000Y-83490000D03*
%TO.P,R1,2*%
%TO.N,Net-(C12-Pad1)*%
X172720000Y-83490000D03*
%TD*%
D33*
%TO.P,J2,1,Pin_1*%
%TO.N,+3.3V*%
X140005000Y-93895000D03*
D34*
%TO.P,J2,2,Pin_2*%
%TO.N,/Connectors/SW_DIO*%
X142545000Y-93895000D03*
%TO.P,J2,3,Pin_3*%
%TO.N,GND*%
X140005000Y-96435000D03*
%TO.P,J2,4,Pin_4*%
%TO.N,/Connectors/SW_CLK*%
X142545000Y-96435000D03*
%TO.P,J2,5,Pin_5*%
%TO.N,GND*%
X140005000Y-98975000D03*
%TO.P,J2,6,Pin_6*%
%TO.N,/Connectors/SW_O*%
X142545000Y-98975000D03*
%TO.P,J2,7,Pin_7*%
%TO.N,unconnected-(J2-Pad7)*%
X140005000Y-101515000D03*
%TO.P,J2,8,Pin_8*%
%TO.N,unconnected-(J2-Pad8)*%
X142545000Y-101515000D03*
%TO.P,J2,9,Pin_9*%
%TO.N,GND*%
X140005000Y-104055000D03*
%TO.P,J2,10,Pin_10*%
%TO.N,/Connectors/N_RST*%
X142545000Y-104055000D03*
%TD*%
D41*
%TO.P,D1,1,C1*%
%TO.N,CAN_H*%
X176470000Y-85550000D03*
%TO.P,D1,2,C2*%
%TO.N,CAN_L*%
X174570000Y-85550000D03*
%TO.P,D1,3,C3*%
%TO.N,GND*%
X175520000Y-87650000D03*
%TD*%
D35*
%TO.P,C7,2*%
%TO.N,GND*%
X145427500Y-80900000D03*
%TO.P,C7,1*%
%TO.N,+3.3V*%
X145427500Y-81860000D03*
%TD*%
%TO.P,C6,2*%
%TO.N,GND*%
X145797500Y-74580000D03*
%TO.P,C6,1*%
%TO.N,+3.3V*%
X145797500Y-75540000D03*
%TD*%
D42*
%TO.P,U2,1,D*%
%TO.N,CAN_TX*%
X166955000Y-75605000D03*
%TO.P,U2,2,GND*%
%TO.N,GND*%
X166955000Y-76875000D03*
%TO.P,U2,3,VCC*%
%TO.N,+3.3V*%
X166955000Y-78145000D03*
%TO.P,U2,4,R*%
%TO.N,CAN_RX*%
X166955000Y-79415000D03*
%TO.P,U2,5,Vref*%
%TO.N,unconnected-(U2-Pad5)*%
X171905000Y-79415000D03*
%TO.P,U2,6,CANL*%
%TO.N,CAN_L*%
X171905000Y-78145000D03*
%TO.P,U2,7,CANH*%
%TO.N,CAN_H*%
X171905000Y-76875000D03*
%TO.P,U2,8,Rs*%
%TO.N,CAN_S*%
X171905000Y-75605000D03*
%TD*%
D36*
%TO.P,C15,1*%
%TO.N,+12V*%
X168220000Y-92815000D03*
%TO.P,C15,2*%
%TO.N,GND*%
X168220000Y-94365000D03*
%TD*%
D39*
%TO.P,R5,1*%
%TO.N,OLED_SDA*%
X149000000Y-96695000D03*
%TO.P,R5,2*%
%TO.N,/Connectors/SDA*%
X149000000Y-98345000D03*
%TD*%
D19*
%TO.P,C2,2*%
%TO.N,GND*%
X149947500Y-87070000D03*
%TO.P,C2,1*%
%TO.N,+3.3V*%
X150907500Y-87070000D03*
%TD*%
D43*
%TO.N,SWO*%
X154117500Y-75110000D03*
%TO.N,SWCLK*%
X158027500Y-73360000D03*
%TO.N,SWDIO*%
X157537500Y-76560000D03*
X146140000Y-91170000D03*
%TO.N,SWCLK*%
X145290000Y-92570000D03*
%TO.N,SWO*%
X145290000Y-97400000D03*
%TO.N,KLine_RX*%
X168390500Y-87140000D03*
%TO.N,BAT_V*%
X159770000Y-89050000D03*
X153617500Y-83330000D03*
%TO.N,GND*%
X156970000Y-90170000D03*
%TO.N,/Power Supply/SW*%
X169790000Y-96180000D03*
%TO.N,KLine_RX*%
X157367500Y-78060000D03*
%TO.N,+3.3V*%
X154660000Y-92740000D03*
X158817500Y-87060000D03*
X151867500Y-87060000D03*
X161367500Y-74040000D03*
X165500000Y-67710000D03*
X157900000Y-102310000D03*
X145417500Y-82810000D03*
X144847500Y-75560000D03*
X157900000Y-103210000D03*
X157920000Y-101330000D03*
X157920000Y-100430000D03*
X164980000Y-78810000D03*
X146967500Y-70260000D03*
X148467500Y-70460000D03*
X150030000Y-91690000D03*
%TO.N,GND*%
X175520000Y-88950000D03*
X164080000Y-77000000D03*
X175820000Y-79090000D03*
X156220000Y-91400000D03*
X145847500Y-73660000D03*
X161310000Y-81957500D03*
X139157500Y-80660000D03*
X162020000Y-98600000D03*
X164690000Y-95610000D03*
X162530000Y-95260000D03*
X168340000Y-95610000D03*
X146887500Y-85240000D03*
X141267500Y-73760000D03*
X149067500Y-87060000D03*
X162267500Y-76010000D03*
X182210000Y-86300000D03*
X156817500Y-87960000D03*
X141640000Y-89380000D03*
X167390000Y-95610000D03*
X163020000Y-98600000D03*
X159470000Y-98550000D03*
X142917500Y-76460000D03*
X166490000Y-95610000D03*
X178860000Y-86300000D03*
X183860000Y-86300000D03*
X144317500Y-71460000D03*
X170770000Y-67720000D03*
X144517500Y-80910000D03*
X160470000Y-98550000D03*
X180560000Y-86300000D03*
X169220000Y-83950000D03*
X138567500Y-78760000D03*
X150117500Y-70560000D03*
X165780000Y-82167499D03*
X165590000Y-95610000D03*
X171480000Y-85840000D03*
%TO.N,+12V*%
X172290000Y-93730000D03*
X172290000Y-92460000D03*
%TO.N,CAN_L*%
X175260000Y-90570000D03*
%TO.N,ISO_L*%
X161330000Y-88370000D03*
%TO.N,CAN_S*%
X170240000Y-75610000D03*
X157477500Y-80070000D03*
%TO.N,/Power Supply/SW*%
X162480000Y-93660000D03*
X169790000Y-97320000D03*
X160730000Y-96390000D03*
X163380000Y-93660000D03*
X170790000Y-97320000D03*
X170790000Y-96180000D03*
%TD*%
D44*
%TO.N,BOOT0*%
X161920000Y-73460000D02*
X164010000Y-73460000D01*
X160290000Y-71830000D02*
X161920000Y-73460000D01*
X151627500Y-72752500D02*
X152550000Y-71830000D01*
X152550000Y-71830000D02*
X160290000Y-71830000D01*
X151627500Y-73635000D02*
X151627500Y-72752500D01*
%TO.N,OLED_SDA*%
X155407500Y-90022500D02*
X152670000Y-92760000D01*
X155407500Y-86880000D02*
X155407500Y-90022500D01*
X156127500Y-86160000D02*
X155407500Y-86880000D01*
X156127500Y-84985000D02*
X156127500Y-86160000D01*
%TO.N,OLED_SCL*%
X154907500Y-88932500D02*
X154907500Y-86640000D01*
X151060000Y-92780000D02*
X154907500Y-88932500D01*
%TO.N,OLED_SDA*%
X150300000Y-95130000D02*
X152670000Y-92760000D01*
X149590000Y-95130000D02*
X150300000Y-95130000D01*
X149000000Y-96695000D02*
X149000000Y-95720000D01*
X149000000Y-95720000D02*
X149590000Y-95130000D01*
%TO.N,OLED_SCL*%
X151060000Y-93480000D02*
X151060000Y-92780000D01*
X147990000Y-95432893D02*
X148792893Y-94630000D01*
X147990000Y-99730000D02*
X147990000Y-95432893D01*
X148265000Y-100005000D02*
X147990000Y-99730000D01*
X149000000Y-100005000D02*
X148265000Y-100005000D01*
X148792893Y-94630000D02*
X149910000Y-94630000D01*
X149910000Y-94630000D02*
X151060000Y-93480000D01*
D45*
%TO.N,+3.3V*%
X150030000Y-92770000D02*
X150040000Y-92780000D01*
X150030000Y-91690000D02*
X150030000Y-92770000D01*
D44*
%TO.N,NRST*%
X146890000Y-101945000D02*
X145290000Y-103545000D01*
X146890000Y-90859339D02*
X146890000Y-101945000D01*
X145907500Y-89876839D02*
X146890000Y-90859339D01*
X145907500Y-84310000D02*
X145907500Y-89876839D01*
%TO.N,CAN_RX*%
X162060000Y-77560000D02*
X159052500Y-77560000D01*
X166640000Y-79730000D02*
X164230000Y-79730000D01*
X166955000Y-79415000D02*
X166640000Y-79730000D01*
X164230000Y-79730000D02*
X162060000Y-77560000D01*
%TO.N,CAN_TX*%
X163885000Y-75605000D02*
X166955000Y-75605000D01*
X162430000Y-77060000D02*
X163885000Y-75605000D01*
X159052500Y-77060000D02*
X162430000Y-77060000D01*
D45*
%TO.N,Net-(C13-Pad1)*%
X175800000Y-82510000D02*
X175800000Y-81307500D01*
%TO.N,CAN_H*%
X175800000Y-83530000D02*
X176990000Y-83530000D01*
X177070000Y-83470000D02*
X177070000Y-78480000D01*
X177070000Y-84950000D02*
X177070000Y-83470000D01*
X177070000Y-78480000D02*
X175465000Y-76875000D01*
X175465000Y-76875000D02*
X171905000Y-76875000D01*
X176470000Y-85550000D02*
X177070000Y-84950000D01*
%TO.N,Net-(C12-Pad1)*%
X171482500Y-83490000D02*
X171480000Y-83492500D01*
X172720000Y-83490000D02*
X171482500Y-83490000D01*
%TO.N,GND*%
X171480000Y-84627500D02*
X171480000Y-85840000D01*
%TO.N,CAN_L*%
X173740000Y-83490000D02*
X174570000Y-83490000D01*
X174570000Y-83490000D02*
X174570000Y-79400000D01*
X174570000Y-85550000D02*
X174570000Y-83490000D01*
X173315000Y-78145000D02*
X171905000Y-78145000D01*
X174570000Y-79400000D02*
X173315000Y-78145000D01*
D44*
%TO.N,KLine_TX*%
X162560000Y-80380000D02*
X163260000Y-81080000D01*
X162560000Y-79530000D02*
X162560000Y-80380000D01*
X159052500Y-78560000D02*
X161590000Y-78560000D01*
X161590000Y-78560000D02*
X162560000Y-79530000D01*
X163260000Y-81080000D02*
X163590000Y-81080000D01*
%TO.N,Net-(Q2-Pad1)*%
X165753162Y-81080000D02*
X164610000Y-81080000D01*
X165753162Y-81080000D02*
X167690000Y-83016838D01*
X167690000Y-83016838D02*
X167690000Y-83740000D01*
%TO.N,Net-(Q1-Pad1)*%
X163210000Y-82140000D02*
X163210000Y-83710000D01*
X162050000Y-80980000D02*
X163210000Y-82140000D01*
X161277500Y-80980000D02*
X162050000Y-80980000D01*
%TO.N,NRST*%
X142960000Y-82220000D02*
X145050000Y-84310000D01*
X145050000Y-84310000D02*
X145907500Y-84310000D01*
X142960000Y-81390000D02*
X142960000Y-82220000D01*
X142960000Y-80250000D02*
X142960000Y-81390000D01*
X143360000Y-79850000D02*
X142960000Y-80250000D01*
X145367500Y-79850000D02*
X143360000Y-79850000D01*
X146657500Y-78560000D02*
X145367500Y-79850000D01*
X147702500Y-78560000D02*
X146657500Y-78560000D01*
D45*
%TO.N,GND*%
X146887500Y-85240000D02*
X146887500Y-84289999D01*
X141640000Y-89380000D02*
X142870000Y-89380000D01*
%TO.N,SWO*%
X145290000Y-98695000D02*
X145290000Y-97400000D01*
%TO.N,SWCLK*%
X145290000Y-93805000D02*
X145290000Y-92570000D01*
%TO.N,SWDIO*%
X146130000Y-91180000D02*
X146140000Y-91170000D01*
X144795000Y-91180000D02*
X146130000Y-91180000D01*
%TO.N,/Connectors/SW_DIO*%
X142545000Y-91780000D02*
X143145000Y-91180000D01*
X142545000Y-93895000D02*
X142545000Y-91780000D01*
%TO.N,/Connectors/N_RST*%
X144150000Y-104055000D02*
X145290000Y-105195000D01*
X142545000Y-104055000D02*
X144150000Y-104055000D01*
%TO.N,/Connectors/SW_O*%
X143920000Y-98975000D02*
X145290000Y-100345000D01*
X142545000Y-98975000D02*
X143920000Y-98975000D01*
%TO.N,/Connectors/SW_CLK*%
X144310000Y-96435000D02*
X145290000Y-95455000D01*
X142545000Y-96435000D02*
X144310000Y-96435000D01*
D44*
%TO.N,LLine*%
X159052500Y-79060000D02*
X160377500Y-79060000D01*
X160377500Y-79060000D02*
X161277500Y-79960000D01*
D45*
%TO.N,ISO_L*%
X162260000Y-85585000D02*
X162260000Y-88380000D01*
%TO.N,ISO_K*%
X166720000Y-88380000D02*
X166720000Y-85635000D01*
X166720000Y-85635000D02*
X166740000Y-85615000D01*
X177170000Y-97300000D02*
X181760000Y-97300000D01*
X176370000Y-96500000D02*
X177170000Y-97300000D01*
X176370000Y-93750000D02*
X176370000Y-96500000D01*
X172690000Y-90070000D02*
X176370000Y-93750000D01*
X166720000Y-89290000D02*
X167500000Y-90070000D01*
X166720000Y-88380000D02*
X166720000Y-89290000D01*
X167500000Y-90070000D02*
X172690000Y-90070000D01*
D44*
%TO.N,SWO*%
X154127500Y-75100000D02*
X154127500Y-73635000D01*
X154117500Y-75110000D02*
X154127500Y-75100000D01*
%TO.N,SWCLK*%
X157402500Y-73360000D02*
X157127500Y-73635000D01*
X158027500Y-73360000D02*
X157402500Y-73360000D01*
%TO.N,SWDIO*%
X157537500Y-76560000D02*
X159052500Y-76560000D01*
%TO.N,OLED_SCL*%
X155627500Y-85920000D02*
X155627500Y-84985000D01*
X154907500Y-86640000D02*
X155627500Y-85920000D01*
%TO.N,/Connectors/SDA*%
X150730000Y-99120000D02*
X149955000Y-98345000D01*
X151830000Y-99120000D02*
X150730000Y-99120000D01*
X149955000Y-98345000D02*
X149000000Y-98345000D01*
%TO.N,/Connectors/SCL*%
X149005000Y-101660000D02*
X149000000Y-101655000D01*
X151830000Y-101660000D02*
X149005000Y-101660000D01*
D45*
%TO.N,/BOOT_0*%
X165040000Y-73450000D02*
X165030000Y-73460000D01*
X166730000Y-73450000D02*
X165040000Y-73450000D01*
%TO.N,+3.3V*%
X165500000Y-67710000D02*
X164270000Y-67710000D01*
D44*
%TO.N,KLine_RX*%
X168390500Y-87140000D02*
X169190000Y-87140000D01*
D45*
X169240000Y-87090000D02*
X169240000Y-86100000D01*
D44*
X169190000Y-87140000D02*
X169240000Y-87090000D01*
D45*
X169240000Y-88380000D02*
X169240000Y-87090000D01*
D44*
%TO.N,BAT_V*%
X159770000Y-89050000D02*
X159770000Y-90070000D01*
D45*
X159870000Y-90170000D02*
X159030000Y-90170000D01*
X160580000Y-90170000D02*
X159870000Y-90170000D01*
D44*
X153627500Y-84985000D02*
X153627500Y-83340000D01*
D45*
%TO.N,GND*%
X158010000Y-90170000D02*
X156970000Y-90170000D01*
%TO.N,+12V*%
X163180000Y-90170000D02*
X163280000Y-90070000D01*
X161600000Y-90170000D02*
X163180000Y-90170000D01*
X163280000Y-90070000D02*
X163280000Y-91690000D01*
X163280000Y-88380000D02*
X163280000Y-90070000D01*
X165700000Y-88380000D02*
X163280000Y-88380000D01*
%TO.N,KLine_RX*%
X169240000Y-86100000D02*
X169230000Y-86090000D01*
D44*
%TO.N,HSE_IN*%
X148002500Y-77560000D02*
X140857500Y-77560000D01*
D45*
%TO.N,CAN_L*%
X174570000Y-89880000D02*
X175260000Y-90570000D01*
X174570000Y-85550000D02*
X174570000Y-89880000D01*
%TO.N,CAN_H*%
X177080000Y-86160000D02*
X176470000Y-85550000D01*
X177080000Y-91770000D02*
X177080000Y-86160000D01*
X178210000Y-92900000D02*
X177080000Y-91770000D01*
X181760000Y-92900000D02*
X178210000Y-92900000D01*
D44*
%TO.N,+3.3V*%
X157187500Y-97497500D02*
X157920000Y-98230000D01*
X157920000Y-98230000D02*
X157920000Y-100430000D01*
X156230000Y-97497500D02*
X157187500Y-97497500D01*
%TO.N,/Power Supply/FB*%
X158792500Y-92680000D02*
X157640000Y-92680000D01*
X157640000Y-92680000D02*
X157120000Y-93200000D01*
%TO.N,KLine_RX*%
X159052500Y-78060000D02*
X157367500Y-78060000D01*
D45*
%TO.N,ISO_L*%
X162250000Y-88369999D02*
X162260001Y-88380000D01*
X161330000Y-88370000D02*
X162250000Y-88369999D01*
D44*
%TO.N,CAN_S*%
X157487500Y-80060000D02*
X157477500Y-80070000D01*
X159052500Y-80060000D02*
X157487500Y-80060000D01*
%TO.N,Net-(D2-Pad1)*%
X148347500Y-88900000D02*
X148337500Y-88910000D01*
X149870000Y-88900000D02*
X148347500Y-88900000D01*
D45*
%TO.N,GND*%
X148337500Y-87380000D02*
X148337500Y-87890000D01*
X149067500Y-87060000D02*
X148657500Y-87060000D01*
X148657500Y-87060000D02*
X148337500Y-87380000D01*
D44*
%TO.N,LED*%
X152627500Y-87717500D02*
X151445000Y-88900000D01*
X152627500Y-84985000D02*
X152627500Y-87717500D01*
D45*
%TO.N,GND*%
X139157500Y-80660000D02*
X140337500Y-80660000D01*
D44*
%TO.N,+3.3V*%
X145817500Y-75560000D02*
X145797500Y-75540000D01*
X147702500Y-75560000D02*
X145817500Y-75560000D01*
D45*
X145777500Y-75560000D02*
X145797500Y-75540000D01*
D44*
X157127500Y-85820000D02*
X157757500Y-86450000D01*
X166955000Y-78145000D02*
X165995000Y-78145000D01*
X165820000Y-77970000D02*
X164980000Y-77970000D01*
D45*
X146967500Y-70260000D02*
X146967500Y-71445000D01*
D44*
X150907500Y-86400000D02*
X150907500Y-87070000D01*
X150627500Y-84985000D02*
X150627500Y-86120000D01*
X147702500Y-81560000D02*
X146517500Y-81560000D01*
X157127500Y-84985000D02*
X157127500Y-85820000D01*
X160117500Y-75560000D02*
X160667500Y-75010000D01*
D45*
X154660000Y-92740000D02*
X153710000Y-92740000D01*
D44*
X149167500Y-71440000D02*
X146982500Y-71440000D01*
X149627500Y-73635000D02*
X149627500Y-72720000D01*
X149627500Y-72720000D02*
X149167500Y-72260000D01*
X146217500Y-81860000D02*
X145427500Y-81860000D01*
X165995000Y-78145000D02*
X165820000Y-77970000D01*
X150627500Y-86120000D02*
X150907500Y-86400000D01*
D45*
X151867500Y-87060000D02*
X150917500Y-87060000D01*
X161367500Y-74060000D02*
X161367500Y-75010000D01*
X164980000Y-78810000D02*
X164980000Y-77970000D01*
X146967500Y-71445000D02*
X146972500Y-71450000D01*
X145417500Y-81870000D02*
X145427500Y-81860000D01*
X145417500Y-82810000D02*
X145417500Y-81870000D01*
D44*
X146517500Y-81560000D02*
X146217500Y-81860000D01*
X146982500Y-71440000D02*
X146972500Y-71450000D01*
X149167500Y-72260000D02*
X149167500Y-71440000D01*
D45*
X148467500Y-70460000D02*
X148467500Y-70740000D01*
X153710000Y-92740000D02*
X153690000Y-92760000D01*
X158817500Y-87060000D02*
X157757500Y-87060000D01*
X148467500Y-70740000D02*
X149167500Y-71440000D01*
D44*
X159052500Y-75560000D02*
X160117500Y-75560000D01*
D45*
X144847500Y-75560000D02*
X145777500Y-75560000D01*
X150917500Y-87060000D02*
X150907500Y-87070000D01*
D44*
X160667500Y-75010000D02*
X161367500Y-75010000D01*
X157757500Y-86450000D02*
X157757500Y-87060000D01*
%TO.N,GND*%
X150127500Y-86100000D02*
X149947500Y-86280000D01*
X140337500Y-80330000D02*
X139907500Y-79900000D01*
X159052500Y-76060000D02*
X161277500Y-76060000D01*
X146407500Y-80900000D02*
X145427500Y-80900000D01*
X161277500Y-76060000D02*
X161367500Y-75970000D01*
D45*
X156817500Y-87960000D02*
X156817500Y-87080000D01*
X149067500Y-87060000D02*
X149937500Y-87060000D01*
X161310000Y-83710000D02*
X161310000Y-81957500D01*
X145847500Y-73660000D02*
X145847500Y-74530000D01*
X145847500Y-74530000D02*
X145797500Y-74580000D01*
X165790001Y-82177500D02*
X165780000Y-82167499D01*
X164080000Y-77010000D02*
X164980000Y-77010000D01*
X169260000Y-67720000D02*
X169230000Y-67750000D01*
D44*
X141247500Y-74660000D02*
X141247500Y-74990000D01*
X140337500Y-80660000D02*
X140337500Y-80330000D01*
X150127500Y-73635000D02*
X150127500Y-71440000D01*
D45*
X144317500Y-71460000D02*
X145412500Y-71460000D01*
D44*
X141607500Y-75350000D02*
X141607500Y-76510000D01*
X139907500Y-79900000D02*
X139907500Y-78710000D01*
X156627500Y-84985000D02*
X156627500Y-86890000D01*
X146567500Y-81060000D02*
X146407500Y-80900000D01*
D45*
X169230000Y-85070000D02*
X169230000Y-83960000D01*
X169230000Y-83960000D02*
X169220000Y-83950000D01*
X150117500Y-71430000D02*
X150127500Y-71440000D01*
X145417500Y-80910000D02*
X145427500Y-80900000D01*
X165790000Y-83740000D02*
X165790001Y-82177500D01*
X170770000Y-67720000D02*
X169260000Y-67720000D01*
X161407500Y-76010000D02*
X161367500Y-75970000D01*
D44*
X150127500Y-84985000D02*
X150127500Y-86100000D01*
X165790000Y-77010000D02*
X164980000Y-77010000D01*
D45*
X175820000Y-80172500D02*
X175820000Y-79090000D01*
X141267500Y-73760000D02*
X141267500Y-74640000D01*
D44*
X165925000Y-76875000D02*
X165790000Y-77010000D01*
D45*
X141267500Y-74640000D02*
X141247500Y-74660000D01*
X144517500Y-80910000D02*
X145417500Y-80910000D01*
D44*
X149947500Y-86280000D02*
X149947500Y-87070000D01*
D45*
X148347499Y-87870000D02*
X148357500Y-87880001D01*
D44*
X166955000Y-76875000D02*
X165925000Y-76875000D01*
D45*
X175520000Y-88950000D02*
X175520000Y-87650000D01*
X145412500Y-71460000D02*
X145422500Y-71450000D01*
X162267500Y-76010000D02*
X161407500Y-76010000D01*
X156817500Y-87080000D02*
X156797500Y-87060000D01*
X150117500Y-70560000D02*
X150117500Y-71430000D01*
D44*
X156627500Y-86890000D02*
X156797500Y-87060000D01*
X141247500Y-74990000D02*
X141607500Y-75350000D01*
X147702500Y-81060000D02*
X146567500Y-81060000D01*
D45*
X149937500Y-87060000D02*
X149947500Y-87070000D01*
X156220000Y-91400000D02*
X156220000Y-92360000D01*
D44*
%TO.N,HSE_IN*%
X139907500Y-76610000D02*
X139907500Y-76510000D01*
X140857500Y-77560000D02*
X139907500Y-76610000D01*
X140287500Y-75090000D02*
X139907500Y-75470000D01*
X139907500Y-75470000D02*
X139907500Y-76510000D01*
X140287500Y-74660000D02*
X140287500Y-75090000D01*
%TO.N,+12V*%
X159410000Y-93630000D02*
X160360000Y-92680000D01*
X160360000Y-92680000D02*
X161067500Y-92680000D01*
X158792500Y-93630000D02*
X159410000Y-93630000D01*
D45*
%TO.N,ISO_K*%
X168220000Y-88380000D02*
X166720000Y-88380000D01*
D44*
%TO.N,HSE_OUT*%
X145042500Y-78710000D02*
X145767500Y-78710000D01*
X146417500Y-78060000D02*
X147702500Y-78060000D01*
X145767500Y-78710000D02*
X146417500Y-78060000D01*
%TO.N,/Power Supply/BST*%
X157430000Y-96010000D02*
X157650000Y-96230000D01*
X157660000Y-94580000D02*
X157430000Y-94810000D01*
X157650000Y-96230000D02*
X158680000Y-96230000D01*
X157660000Y-94580000D02*
X158792500Y-94580000D01*
X157430000Y-94810000D02*
X157430000Y-96010000D01*
%TO.N,/Power Supply/FB*%
X156230000Y-96390000D02*
X156230000Y-94690000D01*
X156230000Y-94690000D02*
X156230000Y-93390000D01*
X157120000Y-93800000D02*
X156230000Y-94690000D01*
X157120000Y-93200000D02*
X157120000Y-93800000D01*
%TO.N,/HSE_O*%
X143692500Y-78710000D02*
X141607500Y-78710000D01*
X141297500Y-80330000D02*
X141617500Y-80010000D01*
X141297500Y-80660000D02*
X141297500Y-80330000D01*
X141607500Y-80000000D02*
X141607500Y-78710000D01*
X141617500Y-80010000D02*
X141607500Y-80000000D01*
%TD*%
%TA.AperFunction,Conductor*%
%TO.N,GND*%
G36*
X185219561Y-82541902D02*
G01*
X185286356Y-82555188D01*
X185322044Y-82569970D01*
X185370403Y-82602282D01*
X185397718Y-82629597D01*
X185430030Y-82677956D01*
X185444812Y-82713644D01*
X185458098Y-82780439D01*
X185460000Y-82799752D01*
X185460000Y-89790248D01*
X185458098Y-89809561D01*
X185444812Y-89876356D01*
X185430030Y-89912044D01*
X185397718Y-89960403D01*
X185370403Y-89987718D01*
X185322044Y-90020030D01*
X185286356Y-90034812D01*
X185219561Y-90048098D01*
X185200248Y-90050000D01*
X178189752Y-90050000D01*
X178170439Y-90048098D01*
X178103644Y-90034812D01*
X178067956Y-90020030D01*
X178019597Y-89987718D01*
X177992282Y-89960403D01*
X177959970Y-89912044D01*
X177945188Y-89876356D01*
X177931902Y-89809561D01*
X177930000Y-89790248D01*
X177930000Y-82799752D01*
X177931902Y-82780439D01*
X177945188Y-82713644D01*
X177959970Y-82677956D01*
X177992282Y-82629597D01*
X178019597Y-82602282D01*
X178067956Y-82569970D01*
X178103644Y-82555188D01*
X178170439Y-82541902D01*
X178189752Y-82540000D01*
X185200248Y-82540000D01*
X185219561Y-82541902D01*
G37*
%TD.AperFunction*%
%TD*%
%TA.AperFunction,Conductor*%
%TO.N,GND*%
G36*
X140427061Y-77861902D02*
G01*
X140493856Y-77875188D01*
X140529544Y-77889970D01*
X140577903Y-77922282D01*
X140605218Y-77949597D01*
X140637530Y-77997956D01*
X140652312Y-78033644D01*
X140665598Y-78100439D01*
X140667500Y-78119752D01*
X140667500Y-79400248D01*
X140665598Y-79419561D01*
X140652312Y-79486356D01*
X140637530Y-79522044D01*
X140605218Y-79570403D01*
X140577903Y-79597718D01*
X140529544Y-79630030D01*
X140493856Y-79644812D01*
X140427061Y-79658098D01*
X140407748Y-79660000D01*
X138327252Y-79660000D01*
X138307939Y-79658098D01*
X138241144Y-79644812D01*
X138205456Y-79630030D01*
X138157097Y-79597718D01*
X138129782Y-79570403D01*
X138097470Y-79522044D01*
X138082688Y-79486356D01*
X138069402Y-79419561D01*
X138067500Y-79400248D01*
X138067500Y-78119752D01*
X138069402Y-78100439D01*
X138082688Y-78033644D01*
X138097470Y-77997956D01*
X138129782Y-77949597D01*
X138157097Y-77922282D01*
X138205456Y-77889970D01*
X138241144Y-77875188D01*
X138307939Y-77861902D01*
X138327252Y-77860000D01*
X140407748Y-77860000D01*
X140427061Y-77861902D01*
G37*
%TD.AperFunction*%
%TD*%
%TA.AperFunction,Conductor*%
%TO.N,/Power Supply/SW*%
G36*
X171199561Y-95491902D02*
G01*
X171266356Y-95505188D01*
X171302044Y-95519970D01*
X171350403Y-95552282D01*
X171377718Y-95579597D01*
X171410030Y-95627956D01*
X171424812Y-95663644D01*
X171438098Y-95730439D01*
X171440000Y-95749752D01*
X171440000Y-104120248D01*
X171438098Y-104139561D01*
X171424812Y-104206356D01*
X171410030Y-104242044D01*
X171377718Y-104290403D01*
X171350403Y-104317718D01*
X171302044Y-104350030D01*
X171266356Y-104364812D01*
X171199561Y-104378098D01*
X171180248Y-104380000D01*
X169379752Y-104380000D01*
X169360439Y-104378098D01*
X169293644Y-104364812D01*
X169257956Y-104350030D01*
X169209597Y-104317718D01*
X169182282Y-104290403D01*
X169149970Y-104242044D01*
X169135188Y-104206356D01*
X169121902Y-104139561D01*
X169120000Y-104120248D01*
X169120000Y-95749752D01*
X169121902Y-95730439D01*
X169135188Y-95663644D01*
X169149970Y-95627956D01*
X169182282Y-95579597D01*
X169209597Y-95552282D01*
X169257956Y-95519970D01*
X169293644Y-95505188D01*
X169360439Y-95491902D01*
X169379752Y-95490000D01*
X171180248Y-95490000D01*
X171199561Y-95491902D01*
G37*
%TD.AperFunction*%
%TD*%
%TA.AperFunction,Conductor*%
%TO.N,/Power Supply/SW*%
G36*
X161072121Y-95910002D02*
G01*
X161118614Y-95963658D01*
X161130000Y-96016000D01*
X161130000Y-96764000D01*
X161109998Y-96832121D01*
X161056342Y-96878614D01*
X161004000Y-96890000D01*
X160532546Y-96890000D01*
X160464425Y-96869998D01*
X160417932Y-96816342D01*
X160407828Y-96746068D01*
X160411549Y-96728846D01*
X160423313Y-96688356D01*
X160424768Y-96680391D01*
X160421948Y-96666969D01*
X160410487Y-96664000D01*
X159594500Y-96664000D01*
X159526379Y-96643998D01*
X159479886Y-96590342D01*
X159468500Y-96538000D01*
X159468500Y-96282000D01*
X159488502Y-96213879D01*
X159542158Y-96167386D01*
X159594500Y-96156000D01*
X160408424Y-96156000D01*
X160423219Y-96151656D01*
X160425063Y-96141225D01*
X160423312Y-96131641D01*
X160399928Y-96051153D01*
X160400131Y-95980157D01*
X160438684Y-95920541D01*
X160503349Y-95891232D01*
X160520925Y-95890000D01*
X161004000Y-95890000D01*
X161072121Y-95910002D01*
G37*
%TD.AperFunction*%
%TD*%
%TA.AperFunction,Conductor*%
%TO.N,/Power Supply/SW*%
G36*
X163739191Y-93228907D02*
G01*
X163775155Y-93278407D01*
X163780000Y-93309000D01*
X163780000Y-93961000D01*
X163761093Y-94019191D01*
X163711593Y-94055155D01*
X163681000Y-94060000D01*
X160479000Y-94060000D01*
X160420809Y-94041093D01*
X160384845Y-93991593D01*
X160380000Y-93961000D01*
X160380000Y-93309000D01*
X160398907Y-93250809D01*
X160448407Y-93214845D01*
X160479000Y-93210000D01*
X163681000Y-93210000D01*
X163739191Y-93228907D01*
G37*
%TD.AperFunction*%
%TD*%
%TA.AperFunction,Conductor*%
%TO.N,GND*%
G36*
X143277061Y-75611902D02*
G01*
X143343856Y-75625188D01*
X143379544Y-75639970D01*
X143427903Y-75672282D01*
X143455218Y-75699597D01*
X143487530Y-75747956D01*
X143502312Y-75783644D01*
X143515598Y-75850439D01*
X143517500Y-75869752D01*
X143517500Y-77100248D01*
X143515598Y-77119560D01*
X143513559Y-77129812D01*
X143483664Y-77183196D01*
X143428100Y-77208814D01*
X143416461Y-77209500D01*
X141043690Y-77209500D01*
X140985499Y-77190593D01*
X140973686Y-77180504D01*
X140954705Y-77161523D01*
X140927611Y-77110832D01*
X140919402Y-77069561D01*
X140917500Y-77050248D01*
X140917500Y-75969752D01*
X140919402Y-75950439D01*
X140932688Y-75883644D01*
X140947470Y-75847956D01*
X140979782Y-75799597D01*
X141007097Y-75772282D01*
X141055456Y-75739970D01*
X141091144Y-75725188D01*
X141157939Y-75711902D01*
X141177252Y-75710000D01*
X142317500Y-75710000D01*
X142317500Y-75665724D01*
X142352636Y-75624587D01*
X142404361Y-75610000D01*
X143257748Y-75610000D01*
X143277061Y-75611902D01*
G37*
%TD.AperFunction*%
%TD*%
%TA.AperFunction,Conductor*%
%TO.N,GND*%
G36*
X168638411Y-93711914D02*
G01*
X168705389Y-93725278D01*
X168741164Y-93740145D01*
X168789076Y-93772282D01*
X168789607Y-93772638D01*
X168816936Y-93800097D01*
X168849198Y-93848690D01*
X168863897Y-93884535D01*
X168876946Y-93951579D01*
X168878769Y-93970959D01*
X168861425Y-97647956D01*
X168861217Y-97691963D01*
X168859240Y-97711185D01*
X168847355Y-97769752D01*
X168845752Y-97777649D01*
X168830924Y-97813142D01*
X168798637Y-97861232D01*
X168771402Y-97888393D01*
X168723223Y-97920548D01*
X168687689Y-97935279D01*
X168621186Y-97948586D01*
X168601958Y-97950510D01*
X164054363Y-97959497D01*
X164054360Y-97959497D01*
X163800000Y-97960000D01*
X163800000Y-100402787D01*
X163798122Y-100421980D01*
X163785000Y-100488381D01*
X163770398Y-100523881D01*
X163738463Y-100572064D01*
X163711459Y-100599340D01*
X163663588Y-100631758D01*
X163628242Y-100646709D01*
X163561970Y-100660493D01*
X163542804Y-100662561D01*
X160748733Y-100690391D01*
X159042300Y-100707387D01*
X159022854Y-100705656D01*
X158955527Y-100692873D01*
X158919510Y-100678268D01*
X158870653Y-100646060D01*
X158843033Y-100618713D01*
X158810343Y-100570183D01*
X158795378Y-100534309D01*
X158781926Y-100467118D01*
X158780000Y-100447683D01*
X158780000Y-97769752D01*
X158781902Y-97750439D01*
X158795188Y-97683644D01*
X158809970Y-97647956D01*
X158842282Y-97599597D01*
X158869597Y-97572282D01*
X158917956Y-97539970D01*
X158953644Y-97525188D01*
X159020439Y-97511902D01*
X159039752Y-97510000D01*
X162030000Y-97510000D01*
X162030000Y-95310000D01*
X160789752Y-95310000D01*
X160770439Y-95308098D01*
X160703644Y-95294812D01*
X160667956Y-95280030D01*
X160619597Y-95247718D01*
X160592282Y-95220403D01*
X160559970Y-95172044D01*
X160545188Y-95136356D01*
X160531902Y-95069561D01*
X160530000Y-95050248D01*
X160530000Y-94569752D01*
X160531902Y-94550439D01*
X160545188Y-94483644D01*
X160559970Y-94447956D01*
X160592282Y-94399597D01*
X160619597Y-94372282D01*
X160667956Y-94339970D01*
X160703644Y-94325188D01*
X160770439Y-94311902D01*
X160789752Y-94310000D01*
X164030000Y-94310000D01*
X164030000Y-93969752D01*
X164031902Y-93950439D01*
X164045188Y-93883644D01*
X164059970Y-93847956D01*
X164092282Y-93799597D01*
X164119597Y-93772282D01*
X164167956Y-93739970D01*
X164203644Y-93725188D01*
X164270439Y-93711902D01*
X164289752Y-93710000D01*
X168619040Y-93710000D01*
X168638411Y-93711914D01*
G37*
%TD.AperFunction*%
%TD*%
%TA.AperFunction,Conductor*%
%TO.N,+3.3V*%
G36*
X165352394Y-99212327D02*
G01*
X166672382Y-99216902D01*
X166696914Y-99219400D01*
X166755706Y-99231287D01*
X166801001Y-99250199D01*
X166840303Y-99276603D01*
X166874936Y-99311389D01*
X166901165Y-99350805D01*
X166919877Y-99396183D01*
X166931504Y-99455025D01*
X166933894Y-99479569D01*
X166930124Y-103467434D01*
X166927680Y-103492014D01*
X166915903Y-103550928D01*
X166897044Y-103596333D01*
X166870660Y-103635736D01*
X166835860Y-103670467D01*
X166796405Y-103696773D01*
X166750963Y-103715542D01*
X166692029Y-103727202D01*
X166667445Y-103729598D01*
X162108155Y-103724929D01*
X157452136Y-103720161D01*
X157427575Y-103717718D01*
X157368701Y-103705951D01*
X157323324Y-103687114D01*
X157283936Y-103660758D01*
X157249214Y-103625999D01*
X157222902Y-103586586D01*
X157204112Y-103541189D01*
X157194338Y-103492014D01*
X157192407Y-103482298D01*
X157189991Y-103457737D01*
X157190099Y-100142420D01*
X157192521Y-100117840D01*
X157204241Y-100058926D01*
X157223053Y-100013510D01*
X157249400Y-99974079D01*
X157284162Y-99939318D01*
X157323589Y-99912974D01*
X157369008Y-99894161D01*
X157427926Y-99882441D01*
X157452506Y-99880020D01*
X158166883Y-99880007D01*
X158287586Y-99880005D01*
X158312165Y-99882426D01*
X158371086Y-99894145D01*
X158416507Y-99912958D01*
X158455935Y-99939302D01*
X158490700Y-99974066D01*
X158517045Y-100013494D01*
X158535859Y-100058914D01*
X158547579Y-100117834D01*
X158550000Y-100142416D01*
X158550000Y-101990000D01*
X158806156Y-101990028D01*
X158806159Y-101990028D01*
X161252540Y-101990292D01*
X164221664Y-101990613D01*
X164222046Y-101733839D01*
X164225415Y-99471341D01*
X164227879Y-99446733D01*
X164239715Y-99387764D01*
X164258643Y-99342324D01*
X164285107Y-99302909D01*
X164319994Y-99268193D01*
X164359550Y-99241918D01*
X164405076Y-99223220D01*
X164460770Y-99212327D01*
X164464104Y-99211675D01*
X164488724Y-99209333D01*
X165352394Y-99212327D01*
G37*
%TD.AperFunction*%
%TD*%
%TA.AperFunction,Conductor*%
%TO.N,+12V*%
G36*
X172761674Y-91590716D02*
G01*
X172805894Y-91599487D01*
X172820482Y-91602380D01*
X172865829Y-91621114D01*
X172905218Y-91647357D01*
X172939972Y-91681991D01*
X172966349Y-91721286D01*
X172985239Y-91766566D01*
X172997108Y-91825334D01*
X172999601Y-91849858D01*
X173002535Y-92730000D01*
X173005356Y-93576187D01*
X173007852Y-94325121D01*
X173005504Y-94349756D01*
X172993938Y-94408817D01*
X172975212Y-94454364D01*
X172948912Y-94493920D01*
X172914155Y-94528811D01*
X172874692Y-94555268D01*
X172829217Y-94574166D01*
X172770207Y-94585955D01*
X172745584Y-94588397D01*
X171228930Y-94589115D01*
X169622533Y-94589876D01*
X169597942Y-94587465D01*
X169539002Y-94575766D01*
X169493562Y-94556963D01*
X169454113Y-94530621D01*
X169419331Y-94495855D01*
X169392974Y-94456424D01*
X169374150Y-94410993D01*
X169362423Y-94352056D01*
X169360000Y-94327467D01*
X169360000Y-93320000D01*
X164426591Y-93320000D01*
X164393981Y-93315707D01*
X164357611Y-93305962D01*
X164301126Y-93273350D01*
X164286650Y-93258874D01*
X164254038Y-93202390D01*
X164240000Y-93150000D01*
X164240000Y-92980000D01*
X160672410Y-92980000D01*
X160647830Y-92977579D01*
X160623927Y-92972825D01*
X160588909Y-92965859D01*
X160543490Y-92947046D01*
X160523671Y-92933804D01*
X160504061Y-92920700D01*
X160469300Y-92885939D01*
X160442955Y-92846512D01*
X160424140Y-92801089D01*
X160412421Y-92742170D01*
X160410000Y-92717590D01*
X160410000Y-91852373D01*
X160412421Y-91827794D01*
X160424138Y-91768883D01*
X160442948Y-91723466D01*
X160469290Y-91684038D01*
X160504049Y-91649275D01*
X160543471Y-91622930D01*
X160588883Y-91604114D01*
X160597595Y-91602380D01*
X160647800Y-91592388D01*
X160672372Y-91589964D01*
X164789149Y-91589399D01*
X172737143Y-91588308D01*
X172761674Y-91590716D01*
G37*
%TD.AperFunction*%
%TD*%
M02*
