%TF.GenerationSoftware,KiCad,Pcbnew,(6.0.8)*%
%TF.CreationDate,2022-10-27T10:51:24+02:00*%
%TF.ProjectId,stm_v3,73746d5f-7633-42e6-9b69-6361645f7063,rev?*%
%TF.SameCoordinates,Original*%
%TF.FileFunction,Copper,L1,Top*%
%TF.FilePolarity,Positive*%
%FSLAX46Y46*%
G04 Gerber Fmt 4.6, Leading zero omitted, Abs format (unit mm)*
G04 Created by KiCad (PCBNEW (6.0.8)) date 2022-10-27 10:51:24*
%MOMM*%
%LPD*%
G01*
G04 APERTURE LIST*
G04 Aperture macros list*
%AMRoundRect*
0 Rectangle with rounded corners*
0 $1 Rounding radius*
0 $2 $3 $4 $5 $6 $7 $8 $9 X,Y pos of 4 corners*
0 Add a 4 corners polygon primitive as box body*
4,1,4,$2,$3,$4,$5,$6,$7,$8,$9,$2,$3,0*
0 Add four circle primitives for the rounded corners*
1,1,$1+$1,$2,$3*
1,1,$1+$1,$4,$5*
1,1,$1+$1,$6,$7*
1,1,$1+$1,$8,$9*
0 Add four rect primitives between the rounded corners*
20,1,$1+$1,$2,$3,$4,$5,0*
20,1,$1+$1,$4,$5,$6,$7,0*
20,1,$1+$1,$6,$7,$8,$9,0*
20,1,$1+$1,$8,$9,$2,$3,0*%
%AMFreePoly0*
4,1,17,-0.950000,3.025000,-0.941586,3.114006,-0.894789,3.247267,-0.810876,3.360876,-0.697267,3.444789,-0.564006,3.491586,-0.475000,3.500000,0.475000,3.500000,0.564006,3.491586,0.697267,3.444789,0.810876,3.360876,0.894789,3.247267,0.941586,3.114006,0.950000,3.025000,0.950000,-3.500000,-0.950000,-3.500000,-0.950000,3.025000,-0.950000,3.025000,$1*%
G04 Aperture macros list end*
%TA.AperFunction,ComponentPad*%
%ADD10O,1.000000X1.000000*%
%TD*%
%TA.AperFunction,ComponentPad*%
%ADD11R,1.000000X1.000000*%
%TD*%
%TA.AperFunction,SMDPad,CuDef*%
%ADD12RoundRect,0.135000X0.185000X-0.135000X0.185000X0.135000X-0.185000X0.135000X-0.185000X-0.135000X0*%
%TD*%
%TA.AperFunction,SMDPad,CuDef*%
%ADD13RoundRect,0.135000X-0.135000X-0.185000X0.135000X-0.185000X0.135000X0.185000X-0.135000X0.185000X0*%
%TD*%
%TA.AperFunction,SMDPad,CuDef*%
%ADD14RoundRect,0.140000X0.170000X-0.140000X0.170000X0.140000X-0.170000X0.140000X-0.170000X-0.140000X0*%
%TD*%
%TA.AperFunction,SMDPad,CuDef*%
%ADD15RoundRect,0.112500X0.387500X0.262500X-0.387500X0.262500X-0.387500X-0.262500X0.387500X-0.262500X0*%
%TD*%
%TA.AperFunction,SMDPad,CuDef*%
%ADD16RoundRect,0.140000X0.140000X0.170000X-0.140000X0.170000X-0.140000X-0.170000X0.140000X-0.170000X0*%
%TD*%
%TA.AperFunction,SMDPad,CuDef*%
%ADD17RoundRect,0.155000X-0.212500X-0.155000X0.212500X-0.155000X0.212500X0.155000X-0.212500X0.155000X0*%
%TD*%
%TA.AperFunction,SMDPad,CuDef*%
%ADD18RoundRect,0.200000X-0.200000X-0.275000X0.200000X-0.275000X0.200000X0.275000X-0.200000X0.275000X0*%
%TD*%
%TA.AperFunction,SMDPad,CuDef*%
%ADD19R,1.200000X1.400000*%
%TD*%
%TA.AperFunction,SMDPad,CuDef*%
%ADD20RoundRect,0.155000X0.212500X0.155000X-0.212500X0.155000X-0.212500X-0.155000X0.212500X-0.155000X0*%
%TD*%
%TA.AperFunction,SMDPad,CuDef*%
%ADD21RoundRect,0.140000X-0.140000X-0.170000X0.140000X-0.170000X0.140000X0.170000X-0.140000X0.170000X0*%
%TD*%
%TA.AperFunction,SMDPad,CuDef*%
%ADD22RoundRect,0.218750X-0.218750X-0.256250X0.218750X-0.256250X0.218750X0.256250X-0.218750X0.256250X0*%
%TD*%
%TA.AperFunction,SMDPad,CuDef*%
%ADD23RoundRect,0.135000X0.135000X0.185000X-0.135000X0.185000X-0.135000X-0.185000X0.135000X-0.185000X0*%
%TD*%
%TA.AperFunction,SMDPad,CuDef*%
%ADD24RoundRect,0.140000X-0.170000X0.140000X-0.170000X-0.140000X0.170000X-0.140000X0.170000X0.140000X0*%
%TD*%
%TA.AperFunction,SMDPad,CuDef*%
%ADD25RoundRect,0.225000X0.225000X0.250000X-0.225000X0.250000X-0.225000X-0.250000X0.225000X-0.250000X0*%
%TD*%
%TA.AperFunction,ConnectorPad*%
%ADD26FreePoly0,90.000000*%
%TD*%
%TA.AperFunction,SMDPad,CuDef*%
%ADD27RoundRect,0.200000X0.275000X-0.200000X0.275000X0.200000X-0.275000X0.200000X-0.275000X-0.200000X0*%
%TD*%
%TA.AperFunction,SMDPad,CuDef*%
%ADD28RoundRect,0.155000X0.155000X-0.212500X0.155000X0.212500X-0.155000X0.212500X-0.155000X-0.212500X0*%
%TD*%
%TA.AperFunction,SMDPad,CuDef*%
%ADD29RoundRect,0.250000X0.650000X-0.325000X0.650000X0.325000X-0.650000X0.325000X-0.650000X-0.325000X0*%
%TD*%
%TA.AperFunction,SMDPad,CuDef*%
%ADD30RoundRect,0.135000X-0.185000X0.135000X-0.185000X-0.135000X0.185000X-0.135000X0.185000X0.135000X0*%
%TD*%
%TA.AperFunction,SMDPad,CuDef*%
%ADD31RoundRect,0.525000X-0.525000X-2.025000X0.525000X-2.025000X0.525000X2.025000X-0.525000X2.025000X0*%
%TD*%
%TA.AperFunction,SMDPad,CuDef*%
%ADD32RoundRect,0.075000X-0.700000X-0.075000X0.700000X-0.075000X0.700000X0.075000X-0.700000X0.075000X0*%
%TD*%
%TA.AperFunction,SMDPad,CuDef*%
%ADD33RoundRect,0.075000X-0.075000X-0.700000X0.075000X-0.700000X0.075000X0.700000X-0.075000X0.700000X0*%
%TD*%
%TA.AperFunction,SMDPad,CuDef*%
%ADD34RoundRect,0.200000X0.200000X0.250000X-0.200000X0.250000X-0.200000X-0.250000X0.200000X-0.250000X0*%
%TD*%
%TA.AperFunction,SMDPad,CuDef*%
%ADD35RoundRect,0.200000X0.200000X0.375000X-0.200000X0.375000X-0.200000X-0.375000X0.200000X-0.375000X0*%
%TD*%
%TA.AperFunction,ComponentPad*%
%ADD36R,1.700000X1.700000*%
%TD*%
%TA.AperFunction,ComponentPad*%
%ADD37O,1.700000X1.700000*%
%TD*%
%TA.AperFunction,SMDPad,CuDef*%
%ADD38RoundRect,0.225000X-0.250000X0.225000X-0.250000X-0.225000X0.250000X-0.225000X0.250000X0.225000X0*%
%TD*%
%TA.AperFunction,SMDPad,CuDef*%
%ADD39RoundRect,0.150000X-0.150000X0.587500X-0.150000X-0.587500X0.150000X-0.587500X0.150000X0.587500X0*%
%TD*%
%TA.AperFunction,SMDPad,CuDef*%
%ADD40RoundRect,0.155000X-0.155000X0.212500X-0.155000X-0.212500X0.155000X-0.212500X0.155000X0.212500X0*%
%TD*%
%TA.AperFunction,SMDPad,CuDef*%
%ADD41RoundRect,0.200000X-0.275000X0.200000X-0.275000X-0.200000X0.275000X-0.200000X0.275000X0.200000X0*%
%TD*%
%TA.AperFunction,SMDPad,CuDef*%
%ADD42RoundRect,0.150000X0.512500X0.150000X-0.512500X0.150000X-0.512500X-0.150000X0.512500X-0.150000X0*%
%TD*%
%TA.AperFunction,SMDPad,CuDef*%
%ADD43RoundRect,0.160000X0.160000X-0.197500X0.160000X0.197500X-0.160000X0.197500X-0.160000X-0.197500X0*%
%TD*%
%TA.AperFunction,SMDPad,CuDef*%
%ADD44R,0.600000X1.300000*%
%TD*%
%TA.AperFunction,SMDPad,CuDef*%
%ADD45RoundRect,0.150000X-0.825000X-0.150000X0.825000X-0.150000X0.825000X0.150000X-0.825000X0.150000X0*%
%TD*%
%TA.AperFunction,ViaPad*%
%ADD46C,0.800000*%
%TD*%
%TA.AperFunction,Conductor*%
%ADD47C,0.500000*%
%TD*%
%TA.AperFunction,Conductor*%
%ADD48C,0.300000*%
%TD*%
G04 APERTURE END LIST*
D10*
%TO.P,SW4,2,2*%
%TO.N,GND*%
X140450000Y-70920000D03*
D11*
%TO.P,SW4,1,1*%
%TO.N,MENU_BTN*%
X140450000Y-69650000D03*
%TD*%
D10*
%TO.P,SW3,2,2*%
%TO.N,GND*%
X163910000Y-71380001D03*
D11*
%TO.P,SW3,1,1*%
%TO.N,LCD_BTN*%
X163910000Y-70110001D03*
%TD*%
D12*
%TO.P,R25,1*%
%TO.N,+3.3V*%
X142960000Y-72050000D03*
%TO.P,R25,2*%
%TO.N,MENU_BTN*%
X142960000Y-71030000D03*
%TD*%
D13*
%TO.P,R24,1*%
%TO.N,+3.3V*%
X160800000Y-69440000D03*
%TO.P,R24,2*%
%TO.N,LCD_BTN*%
X161820000Y-69440000D03*
%TD*%
D14*
%TO.P,C21,2*%
%TO.N,MENU_BTN*%
X138340000Y-69690000D03*
%TO.P,C21,1*%
%TO.N,GND*%
X138340000Y-70650000D03*
%TD*%
%TO.P,C20,1*%
%TO.N,GND*%
X161820000Y-71370000D03*
%TO.P,C20,2*%
%TO.N,LCD_BTN*%
X161820000Y-70410000D03*
%TD*%
D15*
%TO.P,SW1,1,1*%
%TO.N,GND*%
X140580000Y-86975000D03*
X146580000Y-86975000D03*
%TO.P,SW1,2,2*%
%TO.N,NRST*%
X146580000Y-83225000D03*
X140580000Y-83225000D03*
%TD*%
D16*
%TO.P,C3,1*%
%TO.N,+3.3V*%
X157697500Y-85905000D03*
%TO.P,C3,2*%
%TO.N,GND*%
X156737500Y-85905000D03*
%TD*%
D17*
%TO.P,C8,1*%
%TO.N,HSE_IN*%
X140140000Y-73505000D03*
%TO.P,C8,2*%
%TO.N,GND*%
X141275000Y-73505000D03*
%TD*%
D18*
%TO.P,R7,1*%
%TO.N,/Connectors/SW_DIO*%
X143075000Y-89345000D03*
%TO.P,R7,2*%
%TO.N,SWDIO*%
X144725000Y-89345000D03*
%TD*%
D19*
%TO.P,Y1,1,1*%
%TO.N,HSE_IN*%
X139847500Y-75355000D03*
%TO.P,Y1,2,2*%
%TO.N,GND*%
X139847500Y-77555000D03*
%TO.P,Y1,3,3*%
%TO.N,/HSE_O*%
X141547500Y-77555000D03*
%TO.P,Y1,4,4*%
%TO.N,GND*%
X141547500Y-75355000D03*
%TD*%
D20*
%TO.P,C9,1*%
%TO.N,/HSE_O*%
X141325000Y-79505000D03*
%TO.P,C9,2*%
%TO.N,GND*%
X140190000Y-79505000D03*
%TD*%
D21*
%TO.P,C5,1*%
%TO.N,+3.3V*%
X149107500Y-70285000D03*
%TO.P,C5,2*%
%TO.N,GND*%
X150067500Y-70285000D03*
%TD*%
D22*
%TO.P,D2,1,K*%
%TO.N,Net-(D2-Pad1)*%
X149810000Y-87745000D03*
%TO.P,D2,2,A*%
%TO.N,LED*%
X151385000Y-87745000D03*
%TD*%
D23*
%TO.P,R22,1*%
%TO.N,+12V*%
X161540000Y-89015000D03*
%TO.P,R22,2*%
%TO.N,BAT_V*%
X160520000Y-89015000D03*
%TD*%
D24*
%TO.P,C16,1*%
%TO.N,+12V*%
X164850000Y-91885000D03*
%TO.P,C16,2*%
%TO.N,GND*%
X164850000Y-92845000D03*
%TD*%
D25*
%TO.P,C1,1*%
%TO.N,+3.3V*%
X146895000Y-70560000D03*
%TO.P,C1,2*%
%TO.N,GND*%
X145345000Y-70560000D03*
%TD*%
D13*
%TO.P,R4,1*%
%TO.N,BOOT0*%
X165980000Y-73280000D03*
%TO.P,R4,2*%
%TO.N,/B_0*%
X167000000Y-73280000D03*
%TD*%
D26*
%TO.P,J3,1,NC*%
%TO.N,unconnected-(J3-Pad1)*%
X181760000Y-70900000D03*
%TO.P,J3,2,J1850_BUS+*%
%TO.N,unconnected-(J3-Pad2)*%
X181760000Y-75300000D03*
%TO.P,J3,3,NC*%
%TO.N,unconnected-(J3-Pad3)*%
X181760000Y-79700000D03*
%TO.P,J3,4,GND*%
%TO.N,GND*%
X181760000Y-84100000D03*
%TO.P,J3,5,GND*%
X181760000Y-88500000D03*
%TO.P,J3,6,CAN_H*%
%TO.N,CAN_H*%
X181760000Y-92900000D03*
%TO.P,J3,7,K_Line*%
%TO.N,ISO_K*%
X181760000Y-97300000D03*
%TO.P,J3,8,NC*%
%TO.N,unconnected-(J3-Pad8)*%
X181760000Y-101700000D03*
%TD*%
D27*
%TO.P,R8,1*%
%TO.N,/Connectors/SW_CLK*%
X145220000Y-93620000D03*
%TO.P,R8,2*%
%TO.N,SWCLK*%
X145220000Y-91970000D03*
%TD*%
D12*
%TO.P,R2,1*%
%TO.N,CAN_H*%
X175740000Y-82375000D03*
%TO.P,R2,2*%
%TO.N,Net-(C13-Pad1)*%
X175740000Y-81355000D03*
%TD*%
D27*
%TO.P,R9,1*%
%TO.N,/Connectors/SW_O*%
X145220000Y-98510000D03*
%TO.P,R9,2*%
%TO.N,SWO*%
X145220000Y-96860000D03*
%TD*%
D13*
%TO.P,R11,1*%
%TO.N,+3.3V*%
X149970000Y-90840000D03*
%TO.P,R11,2*%
%TO.N,OLED_SCL*%
X150990000Y-90840000D03*
%TD*%
%TO.P,R19,1*%
%TO.N,KLine_TX*%
X163160000Y-79930000D03*
%TO.P,R19,2*%
%TO.N,Net-(Q2-Pad1)*%
X164180000Y-79930000D03*
%TD*%
D28*
%TO.P,C13,1*%
%TO.N,Net-(C13-Pad1)*%
X175740000Y-80152500D03*
%TO.P,C13,2*%
%TO.N,GND*%
X175740000Y-79017500D03*
%TD*%
D29*
%TO.P,C18,1*%
%TO.N,+3.3V*%
X162570000Y-101690000D03*
%TO.P,C18,2*%
%TO.N,GND*%
X162570000Y-98740000D03*
%TD*%
D13*
%TO.P,R20,1*%
%TO.N,ISO_K*%
X168160000Y-87225000D03*
%TO.P,R20,2*%
%TO.N,KLine_RX*%
X169180000Y-87225000D03*
%TD*%
D30*
%TO.P,R21,1*%
%TO.N,GND*%
X169170000Y-83915000D03*
%TO.P,R21,2*%
%TO.N,KLine_RX*%
X169170000Y-84935000D03*
%TD*%
D13*
%TO.P,R17,1*%
%TO.N,+12V*%
X165640000Y-87225000D03*
%TO.P,R17,2*%
%TO.N,ISO_K*%
X166660000Y-87225000D03*
%TD*%
D31*
%TO.P,L1,1,1*%
%TO.N,/Power Supply/SW*%
X170160000Y-100675000D03*
%TO.P,L1,2,2*%
%TO.N,+3.3V*%
X165760000Y-100675000D03*
%TD*%
D23*
%TO.P,R12,1*%
%TO.N,+3.3V*%
X153620000Y-90820000D03*
%TO.P,R12,2*%
%TO.N,OLED_SDA*%
X152600000Y-90820000D03*
%TD*%
D32*
%TO.P,U1,1,VBAT*%
%TO.N,+3.3V*%
X147642500Y-74405000D03*
%TO.P,U1,2,PC13*%
%TO.N,unconnected-(U1-Pad2)*%
X147642500Y-74905000D03*
%TO.P,U1,3,PC14*%
%TO.N,unconnected-(U1-Pad3)*%
X147642500Y-75405000D03*
%TO.P,U1,4,PC15*%
%TO.N,unconnected-(U1-Pad4)*%
X147642500Y-75905000D03*
%TO.P,U1,5,PH0*%
%TO.N,HSE_IN*%
X147642500Y-76405000D03*
%TO.P,U1,6,PH1*%
%TO.N,HSE_OUT*%
X147642500Y-76905000D03*
%TO.P,U1,7,NRST*%
%TO.N,NRST*%
X147642500Y-77405000D03*
%TO.P,U1,8,PC0*%
%TO.N,unconnected-(U1-Pad8)*%
X147642500Y-77905000D03*
%TO.P,U1,9,PC1*%
%TO.N,unconnected-(U1-Pad9)*%
X147642500Y-78405000D03*
%TO.P,U1,10,PC2*%
%TO.N,unconnected-(U1-Pad10)*%
X147642500Y-78905000D03*
%TO.P,U1,11,PC3*%
%TO.N,unconnected-(U1-Pad11)*%
X147642500Y-79405000D03*
%TO.P,U1,12,VSSA*%
%TO.N,GND*%
X147642500Y-79905000D03*
%TO.P,U1,13,VDDA*%
%TO.N,+3.3V*%
X147642500Y-80405000D03*
%TO.P,U1,14,PA0*%
%TO.N,unconnected-(U1-Pad14)*%
X147642500Y-80905000D03*
%TO.P,U1,15,PA1*%
%TO.N,unconnected-(U1-Pad15)*%
X147642500Y-81405000D03*
%TO.P,U1,16,PA2*%
%TO.N,unconnected-(U1-Pad16)*%
X147642500Y-81905000D03*
D33*
%TO.P,U1,17,PA3*%
%TO.N,unconnected-(U1-Pad17)*%
X149567500Y-83830000D03*
%TO.P,U1,18,VSS*%
%TO.N,GND*%
X150067500Y-83830000D03*
%TO.P,U1,19,VDD*%
%TO.N,+3.3V*%
X150567500Y-83830000D03*
%TO.P,U1,20,PA4*%
%TO.N,unconnected-(U1-Pad20)*%
X151067500Y-83830000D03*
%TO.P,U1,21,PA5*%
%TO.N,unconnected-(U1-Pad21)*%
X151567500Y-83830000D03*
%TO.P,U1,22,PA6*%
%TO.N,unconnected-(U1-Pad22)*%
X152067500Y-83830000D03*
%TO.P,U1,23,PA7*%
%TO.N,LED*%
X152567500Y-83830000D03*
%TO.P,U1,24,PC4*%
%TO.N,unconnected-(U1-Pad24)*%
X153067500Y-83830000D03*
%TO.P,U1,25,PC5*%
%TO.N,BAT_V*%
X153567500Y-83830000D03*
%TO.P,U1,26,PB0*%
%TO.N,unconnected-(U1-Pad26)*%
X154067500Y-83830000D03*
%TO.P,U1,27,PB1*%
%TO.N,unconnected-(U1-Pad27)*%
X154567500Y-83830000D03*
%TO.P,U1,28,PB2*%
%TO.N,unconnected-(U1-Pad28)*%
X155067500Y-83830000D03*
%TO.P,U1,29,PB10*%
%TO.N,OLED_SCL*%
X155567500Y-83830000D03*
%TO.P,U1,30,PB11*%
%TO.N,OLED_SDA*%
X156067500Y-83830000D03*
%TO.P,U1,31,VSS*%
%TO.N,GND*%
X156567500Y-83830000D03*
%TO.P,U1,32,VDD*%
%TO.N,+3.3V*%
X157067500Y-83830000D03*
D32*
%TO.P,U1,33,PB12*%
%TO.N,unconnected-(U1-Pad33)*%
X158992500Y-81905000D03*
%TO.P,U1,34,PB13*%
%TO.N,unconnected-(U1-Pad34)*%
X158992500Y-81405000D03*
%TO.P,U1,35,PB14*%
%TO.N,unconnected-(U1-Pad35)*%
X158992500Y-80905000D03*
%TO.P,U1,36,PB15*%
%TO.N,unconnected-(U1-Pad36)*%
X158992500Y-80405000D03*
%TO.P,U1,37,PC6*%
%TO.N,unconnected-(U1-Pad37)*%
X158992500Y-79905000D03*
%TO.P,U1,38,PC7*%
%TO.N,unconnected-(U1-Pad38)*%
X158992500Y-79405000D03*
%TO.P,U1,39,PC8*%
%TO.N,CAN_S*%
X158992500Y-78905000D03*
%TO.P,U1,40,PC9*%
%TO.N,unconnected-(U1-Pad40)*%
X158992500Y-78405000D03*
%TO.P,U1,41,PA8*%
%TO.N,LLine*%
X158992500Y-77905000D03*
%TO.P,U1,42,PA9*%
%TO.N,KLine_TX*%
X158992500Y-77405000D03*
%TO.P,U1,43,PA10*%
%TO.N,KLine_RX*%
X158992500Y-76905000D03*
%TO.P,U1,44,PA11*%
%TO.N,CAN_RX*%
X158992500Y-76405000D03*
%TO.P,U1,45,PA12*%
%TO.N,CAN_TX*%
X158992500Y-75905000D03*
%TO.P,U1,46,PA13*%
%TO.N,SWDIO*%
X158992500Y-75405000D03*
%TO.P,U1,47,VSS*%
%TO.N,GND*%
X158992500Y-74905000D03*
%TO.P,U1,48,VDD*%
%TO.N,+3.3V*%
X158992500Y-74405000D03*
D33*
%TO.P,U1,49,PA14*%
%TO.N,SWCLK*%
X157067500Y-72480000D03*
%TO.P,U1,50,PA15*%
%TO.N,unconnected-(U1-Pad50)*%
X156567500Y-72480000D03*
%TO.P,U1,51,PC10*%
%TO.N,unconnected-(U1-Pad51)*%
X156067500Y-72480000D03*
%TO.P,U1,52,PC11*%
%TO.N,unconnected-(U1-Pad52)*%
X155567500Y-72480000D03*
%TO.P,U1,53,PC12*%
%TO.N,unconnected-(U1-Pad53)*%
X155067500Y-72480000D03*
%TO.P,U1,54,PD2*%
%TO.N,unconnected-(U1-Pad54)*%
X154567500Y-72480000D03*
%TO.P,U1,55,PB3*%
%TO.N,SWO*%
X154067500Y-72480000D03*
%TO.P,U1,56,PB4*%
%TO.N,unconnected-(U1-Pad56)*%
X153567500Y-72480000D03*
%TO.P,U1,57,PB5*%
%TO.N,LCD_BTN*%
X153067500Y-72480000D03*
%TO.P,U1,58,PB6*%
%TO.N,MENU_BTN*%
X152567500Y-72480000D03*
%TO.P,U1,59,PB7*%
%TO.N,unconnected-(U1-Pad59)*%
X152067500Y-72480000D03*
%TO.P,U1,60,PH3*%
%TO.N,BOOT0*%
X151567500Y-72480000D03*
%TO.P,U1,61,PB8*%
%TO.N,unconnected-(U1-Pad61)*%
X151067500Y-72480000D03*
%TO.P,U1,62,PB9*%
%TO.N,unconnected-(U1-Pad62)*%
X150567500Y-72480000D03*
%TO.P,U1,63,VSS*%
%TO.N,GND*%
X150067500Y-72480000D03*
%TO.P,U1,64,VDD*%
%TO.N,+3.3V*%
X149567500Y-72480000D03*
%TD*%
D23*
%TO.P,R16,1*%
%TO.N,+12V*%
X163220000Y-87225000D03*
%TO.P,R16,2*%
%TO.N,ISO_L*%
X162200000Y-87225000D03*
%TD*%
D34*
%TO.P,SW2,*%
%TO.N,*%
X176107610Y-71892389D03*
X168307610Y-69592389D03*
X176107610Y-69592389D03*
X168307610Y-71892389D03*
D35*
%TO.P,SW2,1,A*%
%TO.N,GND*%
X174507610Y-72942389D03*
%TO.P,SW2,2,B*%
%TO.N,/B_0*%
X171407610Y-72942389D03*
%TO.P,SW2,3,C*%
%TO.N,+3.3V*%
X169907610Y-72942389D03*
%TD*%
D36*
%TO.P,J1,1,Pin_1*%
%TO.N,+3.3V*%
X151760000Y-94640000D03*
D37*
%TO.P,J1,2,Pin_2*%
%TO.N,/Connectors/SDA*%
X151760000Y-97180000D03*
%TO.P,J1,3,Pin_3*%
%TO.N,/Connectors/SCL*%
X151760000Y-99720000D03*
%TO.P,J1,4,Pin_4*%
%TO.N,GND*%
X151760000Y-102260000D03*
%TD*%
D29*
%TO.P,C19,1*%
%TO.N,+3.3V*%
X159930000Y-101700000D03*
%TO.P,C19,2*%
%TO.N,GND*%
X159930000Y-98750000D03*
%TD*%
D21*
%TO.P,C17,1*%
%TO.N,/Power Supply/BST*%
X158620000Y-95255000D03*
%TO.P,C17,2*%
%TO.N,/Power Supply/SW*%
X159580000Y-95255000D03*
%TD*%
D13*
%TO.P,R3,1*%
%TO.N,/HSE_O*%
X143647500Y-77555000D03*
%TO.P,R3,2*%
%TO.N,HSE_OUT*%
X144667500Y-77555000D03*
%TD*%
D14*
%TO.P,C11,1*%
%TO.N,+3.3V*%
X165505000Y-77245000D03*
%TO.P,C11,2*%
%TO.N,GND*%
X165505000Y-76285000D03*
%TD*%
D38*
%TO.P,C14,1*%
%TO.N,+12V*%
X166340000Y-91650000D03*
%TO.P,C14,2*%
%TO.N,GND*%
X166340000Y-93200000D03*
%TD*%
D39*
%TO.P,Q2,1,B*%
%TO.N,Net-(Q2-Pad1)*%
X167630000Y-82585000D03*
%TO.P,Q2,2,E*%
%TO.N,GND*%
X165730000Y-82585000D03*
%TO.P,Q2,3,C*%
%TO.N,ISO_K*%
X166680000Y-84460000D03*
%TD*%
D40*
%TO.P,C12,1*%
%TO.N,Net-(C12-Pad1)*%
X172657500Y-83567500D03*
%TO.P,C12,2*%
%TO.N,GND*%
X172657500Y-84702500D03*
%TD*%
D41*
%TO.P,R6,1*%
%TO.N,OLED_SCL*%
X148930000Y-98065000D03*
%TO.P,R6,2*%
%TO.N,/Connectors/SCL*%
X148930000Y-99715000D03*
%TD*%
D24*
%TO.P,C4,1*%
%TO.N,+3.3V*%
X161307500Y-73855000D03*
%TO.P,C4,2*%
%TO.N,GND*%
X161307500Y-74815000D03*
%TD*%
D30*
%TO.P,R18,1*%
%TO.N,LLine*%
X161217500Y-78805000D03*
%TO.P,R18,2*%
%TO.N,Net-(Q1-Pad1)*%
X161217500Y-79825000D03*
%TD*%
D39*
%TO.P,Q1,1,B*%
%TO.N,Net-(Q1-Pad1)*%
X163150000Y-82555000D03*
%TO.P,Q1,2,E*%
%TO.N,GND*%
X161250000Y-82555000D03*
%TO.P,Q1,3,C*%
%TO.N,ISO_L*%
X162200000Y-84430000D03*
%TD*%
D30*
%TO.P,R15,1*%
%TO.N,GND*%
X148277500Y-86735000D03*
%TO.P,R15,2*%
%TO.N,Net-(D2-Pad1)*%
X148277500Y-87755000D03*
%TD*%
D42*
%TO.P,U3,1,GND*%
%TO.N,GND*%
X161007500Y-93425000D03*
%TO.P,U3,2,SW*%
%TO.N,/Power Supply/SW*%
X161007500Y-92475000D03*
%TO.P,U3,3,VIN*%
%TO.N,+12V*%
X161007500Y-91525000D03*
%TO.P,U3,4,VFB*%
%TO.N,/Power Supply/FB*%
X158732500Y-91525000D03*
%TO.P,U3,5,EN*%
%TO.N,+12V*%
X158732500Y-92475000D03*
%TO.P,U3,6,VBST*%
%TO.N,/Power Supply/BST*%
X158732500Y-93425000D03*
%TD*%
D23*
%TO.P,R23,1*%
%TO.N,BAT_V*%
X158970000Y-89015000D03*
%TO.P,R23,2*%
%TO.N,GND*%
X157950000Y-89015000D03*
%TD*%
D24*
%TO.P,C10,1*%
%TO.N,NRST*%
X139850000Y-84560000D03*
%TO.P,C10,2*%
%TO.N,GND*%
X139850000Y-85520000D03*
%TD*%
D43*
%TO.P,R13,1*%
%TO.N,+3.3V*%
X156170000Y-96342500D03*
%TO.P,R13,2*%
%TO.N,/Power Supply/FB*%
X156170000Y-95147500D03*
%TD*%
D27*
%TO.P,R10,1*%
%TO.N,/Connectors/N_RST*%
X145220000Y-103360000D03*
%TO.P,R10,2*%
%TO.N,NRST*%
X145220000Y-101710000D03*
%TD*%
D23*
%TO.P,R1,1*%
%TO.N,CAN_L*%
X173680000Y-82335000D03*
%TO.P,R1,2*%
%TO.N,Net-(C12-Pad1)*%
X172660000Y-82335000D03*
%TD*%
D36*
%TO.P,J2,1,Pin_1*%
%TO.N,+3.3V*%
X139935000Y-92060000D03*
D37*
%TO.P,J2,2,Pin_2*%
%TO.N,/Connectors/SW_DIO*%
X142475000Y-92060000D03*
%TO.P,J2,3,Pin_3*%
%TO.N,GND*%
X139935000Y-94600000D03*
%TO.P,J2,4,Pin_4*%
%TO.N,/Connectors/SW_CLK*%
X142475000Y-94600000D03*
%TO.P,J2,5,Pin_5*%
%TO.N,GND*%
X139935000Y-97140000D03*
%TO.P,J2,6,Pin_6*%
%TO.N,/Connectors/SW_O*%
X142475000Y-97140000D03*
%TO.P,J2,7,Pin_7*%
%TO.N,unconnected-(J2-Pad7)*%
X139935000Y-99680000D03*
%TO.P,J2,8,Pin_8*%
%TO.N,unconnected-(J2-Pad8)*%
X142475000Y-99680000D03*
%TO.P,J2,9,Pin_9*%
%TO.N,GND*%
X139935000Y-102220000D03*
%TO.P,J2,10,Pin_10*%
%TO.N,/Connectors/N_RST*%
X142475000Y-102220000D03*
%TD*%
D44*
%TO.P,D1,1,C1*%
%TO.N,CAN_H*%
X176410000Y-84395000D03*
%TO.P,D1,2,C2*%
%TO.N,CAN_L*%
X174510000Y-84395000D03*
%TO.P,D1,3,C3*%
%TO.N,GND*%
X175460000Y-86495000D03*
%TD*%
D14*
%TO.P,C7,1*%
%TO.N,+3.3V*%
X145367500Y-80705000D03*
%TO.P,C7,2*%
%TO.N,GND*%
X145367500Y-79745000D03*
%TD*%
%TO.P,C6,1*%
%TO.N,+3.3V*%
X145737500Y-74385000D03*
%TO.P,C6,2*%
%TO.N,GND*%
X145737500Y-73425000D03*
%TD*%
D45*
%TO.P,U2,1,D*%
%TO.N,CAN_TX*%
X167480000Y-74880000D03*
%TO.P,U2,2,GND*%
%TO.N,GND*%
X167480000Y-76150000D03*
%TO.P,U2,3,VCC*%
%TO.N,+3.3V*%
X167480000Y-77420000D03*
%TO.P,U2,4,R*%
%TO.N,CAN_RX*%
X167480000Y-78690000D03*
%TO.P,U2,5,Vref*%
%TO.N,unconnected-(U2-Pad5)*%
X172430000Y-78690000D03*
%TO.P,U2,6,CANL*%
%TO.N,CAN_L*%
X172430000Y-77420000D03*
%TO.P,U2,7,CANH*%
%TO.N,CAN_H*%
X172430000Y-76150000D03*
%TO.P,U2,8,Rs*%
%TO.N,CAN_S*%
X172430000Y-74880000D03*
%TD*%
D38*
%TO.P,C15,1*%
%TO.N,+12V*%
X168160000Y-91660000D03*
%TO.P,C15,2*%
%TO.N,GND*%
X168160000Y-93210000D03*
%TD*%
D43*
%TO.P,R14,1*%
%TO.N,/Power Supply/FB*%
X156170000Y-92322500D03*
%TO.P,R14,2*%
%TO.N,GND*%
X156170000Y-91127500D03*
%TD*%
D41*
%TO.P,R5,1*%
%TO.N,OLED_SDA*%
X148930000Y-94755000D03*
%TO.P,R5,2*%
%TO.N,/Connectors/SDA*%
X148930000Y-96405000D03*
%TD*%
D16*
%TO.P,C2,1*%
%TO.N,+3.3V*%
X150847500Y-85915000D03*
%TO.P,C2,2*%
%TO.N,GND*%
X149887500Y-85915000D03*
%TD*%
D46*
%TO.N,BOOT0*%
X151400000Y-70770000D03*
X165000000Y-73280000D03*
%TO.N,+3.3V*%
X142960000Y-72990000D03*
%TO.N,MENU_BTN*%
X142950000Y-69660000D03*
X152300000Y-69100000D03*
%TO.N,+3.3V*%
X159970000Y-69440000D03*
X154590000Y-90800000D03*
X158757500Y-85905000D03*
X151807500Y-85905000D03*
X161307500Y-72885000D03*
X168627610Y-73022389D03*
X157840000Y-101155000D03*
X145357500Y-81655000D03*
X144787500Y-74405000D03*
X157840000Y-102055000D03*
X157860000Y-100175000D03*
X157860000Y-99275000D03*
X165505000Y-78085000D03*
X146890000Y-69370000D03*
X148407500Y-69305000D03*
X149960000Y-89750000D03*
%TO.N,GND*%
X175460000Y-87795000D03*
X164605000Y-76275000D03*
X175760000Y-77935000D03*
X156160000Y-90245000D03*
X145787500Y-72505000D03*
X161250000Y-80802500D03*
X139097500Y-79505000D03*
X161960000Y-97445000D03*
X164630000Y-94455000D03*
X162470000Y-94105000D03*
X168280000Y-94455000D03*
X141910000Y-86970000D03*
X141207500Y-72605000D03*
X149007500Y-85905000D03*
X162207500Y-74855000D03*
X182210000Y-86300000D03*
X156757500Y-86805000D03*
X145260000Y-86970000D03*
X167330000Y-94455000D03*
X162960000Y-97445000D03*
X159410000Y-97395000D03*
X142857500Y-75305000D03*
X166430000Y-94455000D03*
X156910000Y-89015000D03*
X178860000Y-86300000D03*
X183860000Y-86300000D03*
X144240000Y-70570000D03*
X173277610Y-72982389D03*
X144457500Y-79755000D03*
X160410000Y-97395000D03*
X180560000Y-86300000D03*
X169160000Y-82795000D03*
X138507500Y-77605000D03*
X150057500Y-69405000D03*
X165720000Y-81012499D03*
X165530000Y-94455000D03*
X172657500Y-85915000D03*
%TO.N,+12V*%
X172230000Y-92575000D03*
X172230000Y-91305000D03*
%TO.N,CAN_L*%
X175200000Y-89415000D03*
%TO.N,ISO_L*%
X161270000Y-87215000D03*
%TO.N,SWDIO*%
X157477500Y-75405000D03*
X146070000Y-89335000D03*
%TO.N,SWCLK*%
X145220000Y-90735000D03*
X157967500Y-72205000D03*
%TO.N,SWO*%
X154057500Y-73955000D03*
X145220000Y-95565000D03*
%TO.N,BAT_V*%
X153557500Y-82175000D03*
X159710000Y-87895000D03*
%TO.N,CAN_S*%
X170765000Y-74885000D03*
X157417500Y-78915000D03*
%TO.N,/Power Supply/SW*%
X162420000Y-92505000D03*
X169730000Y-96165000D03*
X160670000Y-95235000D03*
X163320000Y-92505000D03*
X169730000Y-95025000D03*
X170730000Y-96165000D03*
X170730000Y-95025000D03*
%TO.N,KLine_RX*%
X157307500Y-76905000D03*
X168330500Y-85985000D03*
%TD*%
D47*
%TO.N,ISO_K*%
X180440000Y-97300000D02*
X172055000Y-88915000D01*
X181760000Y-97300000D02*
X180440000Y-97300000D01*
%TO.N,CAN_H*%
X180090000Y-92900000D02*
X181760000Y-92900000D01*
X176410000Y-89220000D02*
X180090000Y-92900000D01*
D48*
%TO.N,MENU_BTN*%
X140460000Y-69660000D02*
X140450000Y-69650000D01*
%TO.N,/B_0*%
X167879793Y-71092389D02*
X169557610Y-71092389D01*
X167000000Y-71972182D02*
X167879793Y-71092389D01*
X169557610Y-71092389D02*
X171407610Y-72942389D01*
X167000000Y-73280000D02*
X167000000Y-71972182D01*
%TO.N,LCD_BTN*%
X153067500Y-71112500D02*
X153770000Y-70410000D01*
X153770000Y-70410000D02*
X161820000Y-70410000D01*
X153067500Y-72480000D02*
X153067500Y-71112500D01*
D47*
%TO.N,GND*%
X163899999Y-71370000D02*
X163910000Y-71380001D01*
X161820000Y-71370000D02*
X163899999Y-71370000D01*
%TO.N,LCD_BTN*%
X161820000Y-69440000D02*
X161820000Y-70410000D01*
X162119999Y-70110001D02*
X161820000Y-70410000D01*
X163910000Y-70110001D02*
X162119999Y-70110001D01*
D48*
%TO.N,MENU_BTN*%
X152300000Y-69100000D02*
X152567500Y-69367500D01*
X152567500Y-69367500D02*
X152567500Y-72480000D01*
%TO.N,BOOT0*%
X151567500Y-70937500D02*
X151400000Y-70770000D01*
X151567500Y-72480000D02*
X151567500Y-70937500D01*
D47*
X165980000Y-73280000D02*
X165000000Y-73280000D01*
%TO.N,+3.3V*%
X159970000Y-69440000D02*
X160800000Y-69440000D01*
D48*
%TO.N,MENU_BTN*%
X142950000Y-69660000D02*
X140460000Y-69660000D01*
X138630000Y-69650000D02*
X138590000Y-69690000D01*
X140450000Y-69650000D02*
X138630000Y-69650000D01*
D47*
%TO.N,GND*%
X138590000Y-70650000D02*
X140450000Y-70650000D01*
%TO.N,+3.3V*%
X142960000Y-72990000D02*
X142960000Y-72050000D01*
D48*
%TO.N,MENU_BTN*%
X142950000Y-69660000D02*
X142950000Y-71020000D01*
%TO.N,+3.3V*%
X148832500Y-70560000D02*
X149107500Y-70285000D01*
X146895000Y-70560000D02*
X148832500Y-70560000D01*
D47*
X145717500Y-74405000D02*
X145737500Y-74385000D01*
D48*
X157067500Y-84665000D02*
X157697500Y-85295000D01*
X167480000Y-77420000D02*
X166520000Y-77420000D01*
X166345000Y-77245000D02*
X165505000Y-77245000D01*
D47*
X146890000Y-69370000D02*
X146890000Y-70555000D01*
D48*
X157860000Y-97075000D02*
X157860000Y-99275000D01*
X150847500Y-85245000D02*
X150847500Y-85915000D01*
X150567500Y-83830000D02*
X150567500Y-84965000D01*
X147642500Y-80405000D02*
X146457500Y-80405000D01*
X157067500Y-83830000D02*
X157067500Y-84665000D01*
D47*
X149960000Y-89750000D02*
X149960000Y-90830000D01*
X168627610Y-73022389D02*
X169827610Y-73022389D01*
D48*
X160057500Y-74405000D02*
X160607500Y-73855000D01*
D47*
X149960000Y-90830000D02*
X149970000Y-90840000D01*
X154590000Y-90800000D02*
X153640000Y-90800000D01*
D48*
X149567500Y-72480000D02*
X149567500Y-71565000D01*
X149567500Y-71565000D02*
X149107500Y-71105000D01*
X157127500Y-96342500D02*
X157860000Y-97075000D01*
X146157500Y-80705000D02*
X145367500Y-80705000D01*
X166520000Y-77420000D02*
X166345000Y-77245000D01*
X147642500Y-74405000D02*
X145757500Y-74405000D01*
X150567500Y-84965000D02*
X150847500Y-85245000D01*
X156170000Y-96342500D02*
X157127500Y-96342500D01*
D47*
X151807500Y-85905000D02*
X150857500Y-85905000D01*
X161307500Y-72905000D02*
X161307500Y-73855000D01*
X165505000Y-78085000D02*
X165505000Y-77245000D01*
X145357500Y-80715000D02*
X145367500Y-80705000D01*
X145357500Y-81655000D02*
X145357500Y-80715000D01*
D48*
X146457500Y-80405000D02*
X146157500Y-80705000D01*
X149107500Y-71105000D02*
X149107500Y-70285000D01*
D47*
X148407500Y-69305000D02*
X148407500Y-69585000D01*
X153640000Y-90800000D02*
X153620000Y-90820000D01*
X158757500Y-85905000D02*
X157697500Y-85905000D01*
X148407500Y-69585000D02*
X149107500Y-70285000D01*
D48*
X158992500Y-74405000D02*
X160057500Y-74405000D01*
X145757500Y-74405000D02*
X145737500Y-74385000D01*
D47*
X144787500Y-74405000D02*
X145717500Y-74405000D01*
X150857500Y-85905000D02*
X150847500Y-85915000D01*
D48*
X160607500Y-73855000D02*
X161307500Y-73855000D01*
X157697500Y-85295000D02*
X157697500Y-85905000D01*
%TO.N,GND*%
X150067500Y-84945000D02*
X149887500Y-85125000D01*
D47*
X173277610Y-72982389D02*
X174467610Y-72982389D01*
D48*
X140277500Y-79175000D02*
X139847500Y-78745000D01*
X158992500Y-74905000D02*
X161217500Y-74905000D01*
X146347500Y-79745000D02*
X145367500Y-79745000D01*
D47*
X145260000Y-86970000D02*
X146575000Y-86970000D01*
X140585000Y-86970000D02*
X140580000Y-86975000D01*
D48*
X161217500Y-74905000D02*
X161307500Y-74815000D01*
D47*
X156757500Y-86805000D02*
X156757500Y-85925000D01*
X149007500Y-85905000D02*
X149877500Y-85905000D01*
X161250000Y-82555000D02*
X161250000Y-80802500D01*
X145787500Y-72505000D02*
X145787500Y-73375000D01*
X145787500Y-73375000D02*
X145737500Y-73425000D01*
X172657500Y-84702500D02*
X172657500Y-85915000D01*
X139850000Y-86245000D02*
X140580000Y-86975000D01*
X165730001Y-81022500D02*
X165720000Y-81012499D01*
X164605000Y-76285000D02*
X165505000Y-76285000D01*
D48*
X141187500Y-73505000D02*
X141187500Y-73835000D01*
D47*
X139097500Y-79505000D02*
X140277500Y-79505000D01*
X148597500Y-85905000D02*
X148277500Y-86225000D01*
D48*
X140277500Y-79505000D02*
X140277500Y-79175000D01*
X150067500Y-72480000D02*
X150067500Y-70285000D01*
D47*
X144240000Y-70570000D02*
X145335000Y-70570000D01*
D48*
X141547500Y-74195000D02*
X141547500Y-75355000D01*
X139847500Y-78745000D02*
X139847500Y-77555000D01*
X156567500Y-83830000D02*
X156567500Y-85735000D01*
X146507500Y-79905000D02*
X146347500Y-79745000D01*
D47*
X169170000Y-83915000D02*
X169170000Y-82805000D01*
X169170000Y-82805000D02*
X169160000Y-82795000D01*
X150057500Y-70275000D02*
X150067500Y-70285000D01*
X145357500Y-79755000D02*
X145367500Y-79745000D01*
X165730000Y-82585000D02*
X165730001Y-81022500D01*
X141910000Y-86970000D02*
X140585000Y-86970000D01*
X148277500Y-86225000D02*
X148277500Y-86735000D01*
X161347500Y-74855000D02*
X161307500Y-74815000D01*
D48*
X150067500Y-83830000D02*
X150067500Y-84945000D01*
X166315000Y-76285000D02*
X165505000Y-76285000D01*
D47*
X175760000Y-79017500D02*
X175760000Y-77935000D01*
X141207500Y-72605000D02*
X141207500Y-73485000D01*
D48*
X166450000Y-76150000D02*
X166315000Y-76285000D01*
D47*
X141207500Y-73485000D02*
X141187500Y-73505000D01*
X144457500Y-79755000D02*
X145357500Y-79755000D01*
X146575000Y-86970000D02*
X146580000Y-86975000D01*
D48*
X149887500Y-85125000D02*
X149887500Y-85915000D01*
D47*
X148287499Y-86715000D02*
X148297500Y-86725001D01*
D48*
X167480000Y-76150000D02*
X166450000Y-76150000D01*
D47*
X175460000Y-87795000D02*
X175460000Y-86495000D01*
X157950000Y-89015000D02*
X156910000Y-89015000D01*
X145335000Y-70570000D02*
X145345000Y-70560000D01*
X162207500Y-74855000D02*
X161347500Y-74855000D01*
X156757500Y-85925000D02*
X156737500Y-85905000D01*
X139850000Y-85520000D02*
X139850000Y-86245000D01*
X149007500Y-85905000D02*
X148597500Y-85905000D01*
X150057500Y-69405000D02*
X150057500Y-70275000D01*
D48*
X156567500Y-85735000D02*
X156737500Y-85905000D01*
X141187500Y-73835000D02*
X141547500Y-74195000D01*
X147642500Y-79905000D02*
X146507500Y-79905000D01*
D47*
X149877500Y-85905000D02*
X149887500Y-85915000D01*
X156160000Y-90245000D02*
X156160000Y-91205000D01*
D48*
%TO.N,HSE_IN*%
X139847500Y-75455000D02*
X139847500Y-75355000D01*
X147942500Y-76405000D02*
X140797500Y-76405000D01*
X140797500Y-76405000D02*
X139847500Y-75455000D01*
X140227500Y-73935000D02*
X139847500Y-74315000D01*
X139847500Y-74315000D02*
X139847500Y-75355000D01*
X140227500Y-73505000D02*
X140227500Y-73935000D01*
%TO.N,NRST*%
X146820000Y-100110000D02*
X146820000Y-88140000D01*
X145220000Y-101710000D02*
X146820000Y-100110000D01*
X148770000Y-77656459D02*
X148770000Y-82810000D01*
X147530000Y-87430000D02*
X147530000Y-84175000D01*
X140580000Y-83830000D02*
X139850000Y-84560000D01*
X148518541Y-77405000D02*
X148770000Y-77656459D01*
X146580000Y-83225000D02*
X140580000Y-83225000D01*
X147530000Y-84175000D02*
X146580000Y-83225000D01*
X146820000Y-88140000D02*
X147530000Y-87430000D01*
X147642500Y-77405000D02*
X148518541Y-77405000D01*
X140580000Y-83225000D02*
X140580000Y-83830000D01*
X148355000Y-83225000D02*
X146580000Y-83225000D01*
X148770000Y-82810000D02*
X148355000Y-83225000D01*
D47*
%TO.N,+12V*%
X163220000Y-87225000D02*
X163220000Y-88915000D01*
X163120000Y-89015000D02*
X163220000Y-88915000D01*
D48*
X159350000Y-92475000D02*
X160300000Y-91525000D01*
D47*
X165640000Y-87225000D02*
X163220000Y-87225000D01*
D48*
X160300000Y-91525000D02*
X161007500Y-91525000D01*
X158732500Y-92475000D02*
X159350000Y-92475000D01*
D47*
X163220000Y-88915000D02*
X163220000Y-90535000D01*
X161540000Y-89015000D02*
X163120000Y-89015000D01*
%TO.N,CAN_L*%
X174510000Y-88725000D02*
X175200000Y-89415000D01*
X173680000Y-82335000D02*
X174510000Y-82335000D01*
X174510000Y-77860000D02*
X174510000Y-82335000D01*
X174510000Y-84395000D02*
X174510000Y-82335000D01*
X174070000Y-77420000D02*
X174510000Y-77860000D01*
X172430000Y-77420000D02*
X174070000Y-77420000D01*
X174510000Y-84395000D02*
X174510000Y-88725000D01*
%TO.N,CAN_H*%
X177010000Y-77325000D02*
X177010000Y-83795000D01*
X176410000Y-89220000D02*
X176410000Y-84395000D01*
X177010000Y-83795000D02*
X176410000Y-84395000D01*
X175740000Y-82375000D02*
X176930000Y-82375000D01*
X172430000Y-76150000D02*
X175835000Y-76150000D01*
X175835000Y-76150000D02*
X177010000Y-77325000D01*
%TO.N,ISO_K*%
X166660000Y-88135000D02*
X167440000Y-88915000D01*
X166660000Y-87225000D02*
X166660000Y-84480000D01*
X167440000Y-88915000D02*
X172055000Y-88915000D01*
X166660000Y-87225000D02*
X166660000Y-88135000D01*
X168160000Y-87225000D02*
X166660000Y-87225000D01*
X166660000Y-84480000D02*
X166680000Y-84460000D01*
%TO.N,ISO_L*%
X162190000Y-87214999D02*
X162200001Y-87225000D01*
X162200000Y-84430000D02*
X162200000Y-87225000D01*
X161270000Y-87215000D02*
X162190000Y-87214999D01*
D48*
%TO.N,HSE_OUT*%
X144982500Y-77555000D02*
X145707500Y-77555000D01*
X146357500Y-76905000D02*
X147642500Y-76905000D01*
X145707500Y-77555000D02*
X146357500Y-76905000D01*
%TO.N,SWDIO*%
X157477500Y-75405000D02*
X158992500Y-75405000D01*
D47*
X144725000Y-89345000D02*
X146060000Y-89345000D01*
X146060000Y-89345000D02*
X146070000Y-89335000D01*
D48*
%TO.N,OLED_SDA*%
X156067500Y-85005000D02*
X152910000Y-88162500D01*
X148930000Y-94755000D02*
X148930000Y-93780000D01*
X152600000Y-89857106D02*
X152600000Y-90820000D01*
X149520000Y-93190000D02*
X150230000Y-93190000D01*
X152910000Y-89547106D02*
X152600000Y-89857106D01*
X150230000Y-93190000D02*
X152600000Y-90820000D01*
X156067500Y-83830000D02*
X156067500Y-85005000D01*
X152910000Y-88162500D02*
X152910000Y-89547106D01*
X148930000Y-93780000D02*
X149520000Y-93190000D01*
%TO.N,SWCLK*%
X157967500Y-72205000D02*
X157342500Y-72205000D01*
D47*
X145220000Y-91970000D02*
X145220000Y-90735000D01*
D48*
X157342500Y-72205000D02*
X157067500Y-72480000D01*
%TO.N,SWO*%
X154057500Y-73955000D02*
X154067500Y-73945000D01*
X154067500Y-73945000D02*
X154067500Y-72480000D01*
D47*
X145220000Y-96860000D02*
X145220000Y-95565000D01*
D48*
%TO.N,OLED_SCL*%
X155567500Y-84797894D02*
X152410000Y-87955394D01*
X148722893Y-92690000D02*
X149840000Y-92690000D01*
X148195000Y-98065000D02*
X147920000Y-97790000D01*
X155567500Y-83830000D02*
X155567500Y-84797894D01*
X152410000Y-87955394D02*
X152410000Y-89340000D01*
X147920000Y-93492893D02*
X148722893Y-92690000D01*
X149840000Y-92690000D02*
X150990000Y-91540000D01*
X148930000Y-98065000D02*
X148195000Y-98065000D01*
X150990000Y-90760000D02*
X150990000Y-90840000D01*
X152410000Y-89340000D02*
X150990000Y-90760000D01*
X150990000Y-91540000D02*
X150990000Y-90840000D01*
X147920000Y-97790000D02*
X147920000Y-93492893D01*
%TO.N,Net-(D2-Pad1)*%
X148287500Y-87745000D02*
X148277500Y-87755000D01*
X149810000Y-87745000D02*
X148287500Y-87745000D01*
%TO.N,BAT_V*%
X159710000Y-87895000D02*
X159710000Y-88915000D01*
D47*
X159810000Y-89015000D02*
X158970000Y-89015000D01*
X160520000Y-89015000D02*
X159810000Y-89015000D01*
D48*
X153567500Y-83830000D02*
X153567500Y-82185000D01*
%TO.N,CAN_S*%
X170765000Y-74885000D02*
X172425000Y-74885000D01*
X157427500Y-78905000D02*
X157417500Y-78915000D01*
X158992500Y-78905000D02*
X157427500Y-78905000D01*
%TO.N,Net-(Q1-Pad1)*%
X161217500Y-79825000D02*
X161375000Y-79825000D01*
X161375000Y-79825000D02*
X163150000Y-81600000D01*
X163150000Y-81600000D02*
X163150000Y-82555000D01*
%TO.N,Net-(Q2-Pad1)*%
X165740000Y-79930000D02*
X164180000Y-79930000D01*
X167630000Y-81820000D02*
X165740000Y-79930000D01*
X167630000Y-82585000D02*
X167630000Y-81820000D01*
%TO.N,LLine*%
X158992500Y-77905000D02*
X160317500Y-77905000D01*
X160317500Y-77905000D02*
X161217500Y-78805000D01*
%TO.N,CAN_RX*%
X162655000Y-76405000D02*
X158992500Y-76405000D01*
X166960000Y-79210000D02*
X165460000Y-79210000D01*
X167480000Y-78690000D02*
X166960000Y-79210000D01*
X165460000Y-79210000D02*
X162655000Y-76405000D01*
%TO.N,CAN_TX*%
X162635000Y-75905000D02*
X163660000Y-74880000D01*
X163660000Y-74880000D02*
X167480000Y-74880000D01*
X158992500Y-75905000D02*
X162635000Y-75905000D01*
%TO.N,/Power Supply/BST*%
X157370000Y-94855000D02*
X157590000Y-95075000D01*
X157600000Y-93425000D02*
X157370000Y-93655000D01*
X157590000Y-95075000D02*
X158620000Y-95075000D01*
X157600000Y-93425000D02*
X158732500Y-93425000D01*
X157370000Y-93655000D02*
X157370000Y-94855000D01*
%TO.N,/Power Supply/FB*%
X158732500Y-91525000D02*
X157580000Y-91525000D01*
X156170000Y-95235000D02*
X156170000Y-93535000D01*
X156170000Y-93535000D02*
X156170000Y-92235000D01*
X157060000Y-92645000D02*
X156170000Y-93535000D01*
X157580000Y-91525000D02*
X157060000Y-92045000D01*
X157060000Y-92045000D02*
X157060000Y-92645000D01*
%TO.N,LED*%
X152567500Y-83830000D02*
X152567500Y-86562500D01*
X152567500Y-86562500D02*
X151385000Y-87745000D01*
%TO.N,/HSE_O*%
X143632500Y-77555000D02*
X141547500Y-77555000D01*
X141237500Y-79175000D02*
X141557500Y-78855000D01*
X141237500Y-79505000D02*
X141237500Y-79175000D01*
X141547500Y-78845000D02*
X141547500Y-77555000D01*
X141557500Y-78855000D02*
X141547500Y-78845000D01*
D47*
%TO.N,Net-(C12-Pad1)*%
X172660000Y-83565000D02*
X172657500Y-83567500D01*
X172660000Y-82335000D02*
X172660000Y-83565000D01*
%TO.N,Net-(C13-Pad1)*%
X175740000Y-81355000D02*
X175740000Y-80152500D01*
D48*
%TO.N,KLine_TX*%
X162500000Y-78375000D02*
X161530000Y-77405000D01*
X162930000Y-79930000D02*
X162500000Y-79500000D01*
X162500000Y-79500000D02*
X162500000Y-78375000D01*
X161530000Y-77405000D02*
X158992500Y-77405000D01*
X163160000Y-79930000D02*
X162930000Y-79930000D01*
%TO.N,KLine_RX*%
X169130000Y-85985000D02*
X169180000Y-85935000D01*
D47*
X169180000Y-85935000D02*
X169180000Y-84945000D01*
X169180000Y-87225000D02*
X169180000Y-85935000D01*
D48*
X168330500Y-85985000D02*
X169130000Y-85985000D01*
D47*
X169180000Y-84945000D02*
X169170000Y-84935000D01*
D48*
X158992500Y-76905000D02*
X157307500Y-76905000D01*
%TO.N,/Connectors/SDA*%
X150660000Y-97180000D02*
X149885000Y-96405000D01*
X149885000Y-96405000D02*
X148930000Y-96405000D01*
X151760000Y-97180000D02*
X150660000Y-97180000D01*
%TO.N,/Connectors/SCL*%
X148935000Y-99720000D02*
X148930000Y-99715000D01*
X151760000Y-99720000D02*
X148935000Y-99720000D01*
D47*
%TO.N,/Connectors/SW_DIO*%
X142475000Y-89945000D02*
X143075000Y-89345000D01*
X142475000Y-92060000D02*
X142475000Y-89945000D01*
%TO.N,/Connectors/SW_CLK*%
X144240000Y-94600000D02*
X145220000Y-93620000D01*
X142475000Y-94600000D02*
X144240000Y-94600000D01*
%TO.N,/Connectors/SW_O*%
X142475000Y-97140000D02*
X143850000Y-97140000D01*
X143850000Y-97140000D02*
X145220000Y-98510000D01*
%TO.N,/Connectors/N_RST*%
X144080000Y-102220000D02*
X145220000Y-103360000D01*
X142475000Y-102220000D02*
X144080000Y-102220000D01*
%TD*%
%TA.AperFunction,Conductor*%
%TO.N,GND*%
G36*
X184966434Y-82540847D02*
G01*
X185076487Y-82555336D01*
X185101451Y-82562025D01*
X185197957Y-82601999D01*
X185220339Y-82614921D01*
X185303213Y-82678513D01*
X185321487Y-82696787D01*
X185385079Y-82779661D01*
X185398001Y-82802043D01*
X185437975Y-82898549D01*
X185444664Y-82923513D01*
X185459153Y-83033566D01*
X185460000Y-83046488D01*
X185460000Y-89543512D01*
X185459153Y-89556434D01*
X185444664Y-89666487D01*
X185437975Y-89691451D01*
X185398001Y-89787957D01*
X185385079Y-89810339D01*
X185321487Y-89893213D01*
X185303213Y-89911487D01*
X185220339Y-89975079D01*
X185197957Y-89988001D01*
X185101451Y-90027975D01*
X185076487Y-90034664D01*
X184966434Y-90049153D01*
X184953512Y-90050000D01*
X178436488Y-90050000D01*
X178423566Y-90049153D01*
X178313513Y-90034664D01*
X178288549Y-90027975D01*
X178192043Y-89988001D01*
X178169661Y-89975079D01*
X178086787Y-89911487D01*
X178068513Y-89893213D01*
X178004921Y-89810339D01*
X177991999Y-89787957D01*
X177952025Y-89691451D01*
X177945336Y-89666487D01*
X177930847Y-89556434D01*
X177930000Y-89543512D01*
X177930000Y-83046488D01*
X177930847Y-83033566D01*
X177945336Y-82923513D01*
X177952025Y-82898549D01*
X177991999Y-82802043D01*
X178004921Y-82779661D01*
X178068513Y-82696787D01*
X178086787Y-82678513D01*
X178169661Y-82614921D01*
X178192043Y-82601999D01*
X178288549Y-82562025D01*
X178313513Y-82555336D01*
X178423566Y-82540847D01*
X178436488Y-82540000D01*
X184953512Y-82540000D01*
X184966434Y-82540847D01*
G37*
%TD.AperFunction*%
%TD*%
%TA.AperFunction,Conductor*%
%TO.N,GND*%
G36*
X140367061Y-76706902D02*
G01*
X140433856Y-76720188D01*
X140469544Y-76734970D01*
X140517903Y-76767282D01*
X140545218Y-76794597D01*
X140577530Y-76842956D01*
X140592312Y-76878644D01*
X140605598Y-76945439D01*
X140607500Y-76964752D01*
X140607500Y-78245248D01*
X140605598Y-78264561D01*
X140592312Y-78331356D01*
X140577530Y-78367044D01*
X140545218Y-78415403D01*
X140517903Y-78442718D01*
X140469544Y-78475030D01*
X140433856Y-78489812D01*
X140367061Y-78503098D01*
X140347748Y-78505000D01*
X138267252Y-78505000D01*
X138247939Y-78503098D01*
X138181144Y-78489812D01*
X138145456Y-78475030D01*
X138097097Y-78442718D01*
X138069782Y-78415403D01*
X138037470Y-78367044D01*
X138022688Y-78331356D01*
X138009402Y-78264561D01*
X138007500Y-78245248D01*
X138007500Y-76964752D01*
X138009402Y-76945439D01*
X138022688Y-76878644D01*
X138037470Y-76842956D01*
X138069782Y-76794597D01*
X138097097Y-76767282D01*
X138145456Y-76734970D01*
X138181144Y-76720188D01*
X138247939Y-76706902D01*
X138267252Y-76705000D01*
X140347748Y-76705000D01*
X140367061Y-76706902D01*
G37*
%TD.AperFunction*%
%TD*%
%TA.AperFunction,Conductor*%
%TO.N,/Power Supply/SW*%
G36*
X171139561Y-94336902D02*
G01*
X171206356Y-94350188D01*
X171242044Y-94364970D01*
X171290403Y-94397282D01*
X171317718Y-94424597D01*
X171350030Y-94472956D01*
X171364812Y-94508644D01*
X171378098Y-94575439D01*
X171380000Y-94594752D01*
X171380000Y-102965248D01*
X171378098Y-102984561D01*
X171364812Y-103051356D01*
X171350030Y-103087044D01*
X171317718Y-103135403D01*
X171290403Y-103162718D01*
X171242044Y-103195030D01*
X171206356Y-103209812D01*
X171139561Y-103223098D01*
X171120248Y-103225000D01*
X169319752Y-103225000D01*
X169300439Y-103223098D01*
X169233644Y-103209812D01*
X169197956Y-103195030D01*
X169149597Y-103162718D01*
X169122282Y-103135403D01*
X169089970Y-103087044D01*
X169075188Y-103051356D01*
X169061902Y-102984561D01*
X169060000Y-102965248D01*
X169060000Y-94594752D01*
X169061902Y-94575439D01*
X169075188Y-94508644D01*
X169089970Y-94472956D01*
X169122282Y-94424597D01*
X169149597Y-94397282D01*
X169197956Y-94364970D01*
X169233644Y-94350188D01*
X169300439Y-94336902D01*
X169319752Y-94335000D01*
X171120248Y-94335000D01*
X171139561Y-94336902D01*
G37*
%TD.AperFunction*%
%TD*%
%TA.AperFunction,Conductor*%
%TO.N,/Power Supply/SW*%
G36*
X161012121Y-94755002D02*
G01*
X161058614Y-94808658D01*
X161070000Y-94861000D01*
X161070000Y-95609000D01*
X161049998Y-95677121D01*
X160996342Y-95723614D01*
X160944000Y-95735000D01*
X160472546Y-95735000D01*
X160404425Y-95714998D01*
X160357932Y-95661342D01*
X160347828Y-95591068D01*
X160351549Y-95573846D01*
X160363313Y-95533356D01*
X160364768Y-95525391D01*
X160361948Y-95511969D01*
X160350487Y-95509000D01*
X159534500Y-95509000D01*
X159466379Y-95488998D01*
X159419886Y-95435342D01*
X159408500Y-95383000D01*
X159408500Y-95127000D01*
X159428502Y-95058879D01*
X159482158Y-95012386D01*
X159534500Y-95001000D01*
X160348424Y-95001000D01*
X160363219Y-94996656D01*
X160365063Y-94986225D01*
X160363312Y-94976641D01*
X160339928Y-94896153D01*
X160340131Y-94825157D01*
X160378684Y-94765541D01*
X160443349Y-94736232D01*
X160460925Y-94735000D01*
X160944000Y-94735000D01*
X161012121Y-94755002D01*
G37*
%TD.AperFunction*%
%TD*%
%TA.AperFunction,Conductor*%
%TO.N,/Power Supply/SW*%
G36*
X163679191Y-92073907D02*
G01*
X163715155Y-92123407D01*
X163720000Y-92154000D01*
X163720000Y-92806000D01*
X163701093Y-92864191D01*
X163651593Y-92900155D01*
X163621000Y-92905000D01*
X160419000Y-92905000D01*
X160360809Y-92886093D01*
X160324845Y-92836593D01*
X160320000Y-92806000D01*
X160320000Y-92154000D01*
X160338907Y-92095809D01*
X160388407Y-92059845D01*
X160419000Y-92055000D01*
X163621000Y-92055000D01*
X163679191Y-92073907D01*
G37*
%TD.AperFunction*%
%TD*%
%TA.AperFunction,Conductor*%
%TO.N,GND*%
G36*
X143217061Y-74456902D02*
G01*
X143283856Y-74470188D01*
X143319544Y-74484970D01*
X143367903Y-74517282D01*
X143395218Y-74544597D01*
X143427530Y-74592956D01*
X143442312Y-74628644D01*
X143455598Y-74695439D01*
X143457500Y-74714752D01*
X143457500Y-75945248D01*
X143455598Y-75964560D01*
X143453559Y-75974812D01*
X143423664Y-76028196D01*
X143368100Y-76053814D01*
X143356461Y-76054500D01*
X140983690Y-76054500D01*
X140925499Y-76035593D01*
X140913686Y-76025504D01*
X140894705Y-76006523D01*
X140867611Y-75955832D01*
X140859402Y-75914561D01*
X140857500Y-75895248D01*
X140857500Y-74814752D01*
X140859402Y-74795439D01*
X140872688Y-74728644D01*
X140887470Y-74692956D01*
X140919782Y-74644597D01*
X140947097Y-74617282D01*
X140995456Y-74584970D01*
X141031144Y-74570188D01*
X141097939Y-74556902D01*
X141117252Y-74555000D01*
X142257500Y-74555000D01*
X142257500Y-74510724D01*
X142292636Y-74469587D01*
X142344361Y-74455000D01*
X143197748Y-74455000D01*
X143217061Y-74456902D01*
G37*
%TD.AperFunction*%
%TD*%
%TA.AperFunction,Conductor*%
%TO.N,+3.3V*%
G36*
X165292394Y-98057327D02*
G01*
X166612382Y-98061902D01*
X166636914Y-98064400D01*
X166695706Y-98076287D01*
X166741001Y-98095199D01*
X166780303Y-98121603D01*
X166814936Y-98156389D01*
X166841165Y-98195805D01*
X166859877Y-98241183D01*
X166871504Y-98300025D01*
X166873894Y-98324569D01*
X166870124Y-102312434D01*
X166867680Y-102337014D01*
X166855903Y-102395928D01*
X166837044Y-102441333D01*
X166810660Y-102480736D01*
X166775860Y-102515467D01*
X166736405Y-102541773D01*
X166690963Y-102560542D01*
X166632029Y-102572202D01*
X166607445Y-102574598D01*
X162048155Y-102569929D01*
X157392136Y-102565161D01*
X157367575Y-102562718D01*
X157308701Y-102550951D01*
X157263324Y-102532114D01*
X157223936Y-102505758D01*
X157189214Y-102470999D01*
X157162902Y-102431586D01*
X157144112Y-102386189D01*
X157134338Y-102337014D01*
X157132407Y-102327298D01*
X157129991Y-102302737D01*
X157130099Y-98987420D01*
X157132521Y-98962840D01*
X157144241Y-98903926D01*
X157163053Y-98858510D01*
X157189400Y-98819079D01*
X157224162Y-98784318D01*
X157263589Y-98757974D01*
X157309008Y-98739161D01*
X157367926Y-98727441D01*
X157392506Y-98725020D01*
X158106883Y-98725007D01*
X158227586Y-98725005D01*
X158252165Y-98727426D01*
X158311086Y-98739145D01*
X158356507Y-98757958D01*
X158395935Y-98784302D01*
X158430700Y-98819066D01*
X158457045Y-98858494D01*
X158475859Y-98903914D01*
X158487579Y-98962834D01*
X158490000Y-98987416D01*
X158490000Y-100835000D01*
X158746156Y-100835028D01*
X158746159Y-100835028D01*
X161192540Y-100835292D01*
X164161664Y-100835613D01*
X164162046Y-100578839D01*
X164165415Y-98316341D01*
X164167879Y-98291733D01*
X164179715Y-98232764D01*
X164198643Y-98187324D01*
X164225107Y-98147909D01*
X164259994Y-98113193D01*
X164299550Y-98086918D01*
X164345076Y-98068220D01*
X164400770Y-98057327D01*
X164404104Y-98056675D01*
X164428724Y-98054333D01*
X165292394Y-98057327D01*
G37*
%TD.AperFunction*%
%TD*%
%TA.AperFunction,Conductor*%
%TO.N,GND*%
G36*
X168578411Y-92556914D02*
G01*
X168645389Y-92570278D01*
X168681164Y-92585145D01*
X168729076Y-92617282D01*
X168729607Y-92617638D01*
X168756936Y-92645097D01*
X168789198Y-92693690D01*
X168803897Y-92729535D01*
X168816946Y-92796579D01*
X168818769Y-92815959D01*
X168801425Y-96492956D01*
X168801217Y-96536963D01*
X168799240Y-96556185D01*
X168787355Y-96614752D01*
X168785752Y-96622649D01*
X168770924Y-96658142D01*
X168738637Y-96706232D01*
X168711402Y-96733393D01*
X168663223Y-96765548D01*
X168627689Y-96780279D01*
X168561186Y-96793586D01*
X168541958Y-96795510D01*
X163994363Y-96804497D01*
X163994360Y-96804497D01*
X163740000Y-96805000D01*
X163740000Y-99247787D01*
X163738122Y-99266980D01*
X163725000Y-99333381D01*
X163710398Y-99368881D01*
X163678463Y-99417064D01*
X163651459Y-99444340D01*
X163603588Y-99476758D01*
X163568242Y-99491709D01*
X163501970Y-99505493D01*
X163482804Y-99507561D01*
X160688733Y-99535391D01*
X158982300Y-99552387D01*
X158962854Y-99550656D01*
X158895527Y-99537873D01*
X158859510Y-99523268D01*
X158810653Y-99491060D01*
X158783033Y-99463713D01*
X158750343Y-99415183D01*
X158735378Y-99379309D01*
X158721926Y-99312118D01*
X158720000Y-99292683D01*
X158720000Y-96614752D01*
X158721902Y-96595439D01*
X158735188Y-96528644D01*
X158749970Y-96492956D01*
X158782282Y-96444597D01*
X158809597Y-96417282D01*
X158857956Y-96384970D01*
X158893644Y-96370188D01*
X158960439Y-96356902D01*
X158979752Y-96355000D01*
X161970000Y-96355000D01*
X161970000Y-94155000D01*
X160729752Y-94155000D01*
X160710439Y-94153098D01*
X160643644Y-94139812D01*
X160607956Y-94125030D01*
X160559597Y-94092718D01*
X160532282Y-94065403D01*
X160499970Y-94017044D01*
X160485188Y-93981356D01*
X160471902Y-93914561D01*
X160470000Y-93895248D01*
X160470000Y-93414752D01*
X160471902Y-93395439D01*
X160485188Y-93328644D01*
X160499970Y-93292956D01*
X160532282Y-93244597D01*
X160559597Y-93217282D01*
X160607956Y-93184970D01*
X160643644Y-93170188D01*
X160710439Y-93156902D01*
X160729752Y-93155000D01*
X163970000Y-93155000D01*
X163970000Y-92814752D01*
X163971902Y-92795439D01*
X163985188Y-92728644D01*
X163999970Y-92692956D01*
X164032282Y-92644597D01*
X164059597Y-92617282D01*
X164107956Y-92584970D01*
X164143644Y-92570188D01*
X164210439Y-92556902D01*
X164229752Y-92555000D01*
X168559040Y-92555000D01*
X168578411Y-92556914D01*
G37*
%TD.AperFunction*%
%TD*%
%TA.AperFunction,Conductor*%
%TO.N,+12V*%
G36*
X172701674Y-90435716D02*
G01*
X172745894Y-90444487D01*
X172760482Y-90447380D01*
X172805829Y-90466114D01*
X172845218Y-90492357D01*
X172879972Y-90526991D01*
X172906349Y-90566286D01*
X172925239Y-90611566D01*
X172937108Y-90670334D01*
X172939601Y-90694858D01*
X172942535Y-91575000D01*
X172945356Y-92421187D01*
X172947852Y-93170121D01*
X172945504Y-93194756D01*
X172933938Y-93253817D01*
X172915212Y-93299364D01*
X172888912Y-93338920D01*
X172854155Y-93373811D01*
X172814692Y-93400268D01*
X172769217Y-93419166D01*
X172710207Y-93430955D01*
X172685584Y-93433397D01*
X171168930Y-93434115D01*
X169562533Y-93434876D01*
X169537942Y-93432465D01*
X169479002Y-93420766D01*
X169433562Y-93401963D01*
X169394113Y-93375621D01*
X169359331Y-93340855D01*
X169332974Y-93301424D01*
X169314150Y-93255993D01*
X169302423Y-93197056D01*
X169300000Y-93172467D01*
X169300000Y-92165000D01*
X164366591Y-92165000D01*
X164333981Y-92160707D01*
X164297611Y-92150962D01*
X164241126Y-92118350D01*
X164226650Y-92103874D01*
X164194038Y-92047390D01*
X164180000Y-91995000D01*
X164180000Y-91825000D01*
X160612410Y-91825000D01*
X160587830Y-91822579D01*
X160563927Y-91817825D01*
X160528909Y-91810859D01*
X160483490Y-91792046D01*
X160463671Y-91778804D01*
X160444061Y-91765700D01*
X160409300Y-91730939D01*
X160382955Y-91691512D01*
X160364140Y-91646089D01*
X160352421Y-91587170D01*
X160350000Y-91562590D01*
X160350000Y-90697373D01*
X160352421Y-90672794D01*
X160364138Y-90613883D01*
X160382948Y-90568466D01*
X160409290Y-90529038D01*
X160444049Y-90494275D01*
X160483471Y-90467930D01*
X160528883Y-90449114D01*
X160537595Y-90447380D01*
X160587800Y-90437388D01*
X160612372Y-90434964D01*
X164728063Y-90434399D01*
X172677143Y-90433308D01*
X172701674Y-90435716D01*
G37*
%TD.AperFunction*%
%TD*%
M02*
