%TF.GenerationSoftware,KiCad,Pcbnew,(6.0.8)*%
%TF.CreationDate,2022-10-27T10:51:24+02:00*%
%TF.ProjectId,stm_v3,73746d5f-7633-42e6-9b69-6361645f7063,rev?*%
%TF.SameCoordinates,Original*%
%TF.FileFunction,Copper,L3,Inr*%
%TF.FilePolarity,Positive*%
%FSLAX46Y46*%
G04 Gerber Fmt 4.6, Leading zero omitted, Abs format (unit mm)*
G04 Created by KiCad (PCBNEW (6.0.8)) date 2022-10-27 10:51:24*
%MOMM*%
%LPD*%
G01*
G04 APERTURE LIST*
%TA.AperFunction,ComponentPad*%
%ADD10O,1.000000X1.000000*%
%TD*%
%TA.AperFunction,ComponentPad*%
%ADD11R,1.000000X1.000000*%
%TD*%
%TA.AperFunction,ComponentPad*%
%ADD12R,1.700000X1.700000*%
%TD*%
%TA.AperFunction,ComponentPad*%
%ADD13O,1.700000X1.700000*%
%TD*%
%TA.AperFunction,ViaPad*%
%ADD14C,0.800000*%
%TD*%
G04 APERTURE END LIST*
D10*
%TO.N,GND*%
%TO.C,SW4*%
X140450000Y-70920000D03*
D11*
%TO.N,MENU_BTN*%
X140450000Y-69650000D03*
%TD*%
D10*
%TO.N,GND*%
%TO.C,SW3*%
X163910000Y-71380001D03*
D11*
%TO.N,LCD_BTN*%
X163910000Y-70110001D03*
%TD*%
D12*
%TO.N,+3.3V*%
%TO.C,J1*%
X151760000Y-94640000D03*
D13*
%TO.N,/Connectors/SDA*%
X151760000Y-97180000D03*
%TO.N,/Connectors/SCL*%
X151760000Y-99720000D03*
%TO.N,GND*%
X151760000Y-102260000D03*
%TD*%
D12*
%TO.N,+3.3V*%
%TO.C,J2*%
X139935000Y-92060000D03*
D13*
%TO.N,/Connectors/SW_DIO*%
X142475000Y-92060000D03*
%TO.N,GND*%
X139935000Y-94600000D03*
%TO.N,/Connectors/SW_CLK*%
X142475000Y-94600000D03*
%TO.N,GND*%
X139935000Y-97140000D03*
%TO.N,/Connectors/SW_O*%
X142475000Y-97140000D03*
%TO.N,unconnected-(J2-Pad7)*%
X139935000Y-99680000D03*
%TO.N,unconnected-(J2-Pad8)*%
X142475000Y-99680000D03*
%TO.N,GND*%
X139935000Y-102220000D03*
%TO.N,/Connectors/N_RST*%
X142475000Y-102220000D03*
%TD*%
D14*
%TO.N,BOOT0*%
X151400000Y-70770000D03*
X165000000Y-73280000D03*
%TO.N,+3.3V*%
X142960000Y-72990000D03*
%TO.N,MENU_BTN*%
X142950000Y-69660000D03*
X152300000Y-69100000D03*
%TO.N,+3.3V*%
X159970000Y-69440000D03*
X154590000Y-90800000D03*
X158757500Y-85905000D03*
X151807500Y-85905000D03*
X161307500Y-72885000D03*
X168627610Y-73022389D03*
X157840000Y-101155000D03*
X145357500Y-81655000D03*
X144787500Y-74405000D03*
X157840000Y-102055000D03*
X157860000Y-100175000D03*
X157860000Y-99275000D03*
X165505000Y-78085000D03*
X146890000Y-69370000D03*
X148407500Y-69305000D03*
X149960000Y-89750000D03*
%TO.N,GND*%
X175460000Y-87795000D03*
X164605000Y-76275000D03*
X175760000Y-77935000D03*
X156160000Y-90245000D03*
X145787500Y-72505000D03*
X161250000Y-80802500D03*
X139097500Y-79505000D03*
X161960000Y-97445000D03*
X164630000Y-94455000D03*
X162470000Y-94105000D03*
X168280000Y-94455000D03*
X141910000Y-86970000D03*
X141207500Y-72605000D03*
X149007500Y-85905000D03*
X162207500Y-74855000D03*
X182210000Y-86300000D03*
X156757500Y-86805000D03*
X145260000Y-86970000D03*
X167330000Y-94455000D03*
X162960000Y-97445000D03*
X159410000Y-97395000D03*
X142857500Y-75305000D03*
X166430000Y-94455000D03*
X156910000Y-89015000D03*
X178860000Y-86300000D03*
X183860000Y-86300000D03*
X144240000Y-70570000D03*
X173277610Y-72982389D03*
X144457500Y-79755000D03*
X160410000Y-97395000D03*
X180560000Y-86300000D03*
X169160000Y-82795000D03*
X138507500Y-77605000D03*
X150057500Y-69405000D03*
X165720000Y-81012499D03*
X165530000Y-94455000D03*
X172657500Y-85915000D03*
%TO.N,+12V*%
X172230000Y-92575000D03*
X172230000Y-91305000D03*
%TO.N,CAN_L*%
X175200000Y-89415000D03*
%TO.N,ISO_L*%
X161270000Y-87215000D03*
%TO.N,SWDIO*%
X157477500Y-75405000D03*
X146070000Y-89335000D03*
%TO.N,SWCLK*%
X145220000Y-90735000D03*
X157967500Y-72205000D03*
%TO.N,SWO*%
X154057500Y-73955000D03*
X145220000Y-95565000D03*
%TO.N,BAT_V*%
X153557500Y-82175000D03*
X159710000Y-87895000D03*
%TO.N,CAN_S*%
X170765000Y-74885000D03*
X157417500Y-78915000D03*
%TO.N,/Power Supply/SW*%
X162420000Y-92505000D03*
X169730000Y-96165000D03*
X160670000Y-95235000D03*
X163320000Y-92505000D03*
X169730000Y-95025000D03*
X170730000Y-96165000D03*
X170730000Y-95025000D03*
%TO.N,KLine_RX*%
X157307500Y-76905000D03*
X168330500Y-85985000D03*
%TD*%
%TA.AperFunction,Conductor*%
%TO.N,+3.3V*%
G36*
X184859561Y-67811902D02*
G01*
X184926356Y-67825188D01*
X184962044Y-67839970D01*
X185010403Y-67872282D01*
X185037718Y-67899597D01*
X185070030Y-67947956D01*
X185084812Y-67983644D01*
X185098098Y-68050439D01*
X185100000Y-68069752D01*
X185100000Y-104500248D01*
X185098098Y-104519561D01*
X185084812Y-104586356D01*
X185070030Y-104622044D01*
X185037718Y-104670403D01*
X185010403Y-104697718D01*
X184962044Y-104730030D01*
X184926356Y-104744812D01*
X184859561Y-104758098D01*
X184840248Y-104760000D01*
X136429752Y-104760000D01*
X136410439Y-104758098D01*
X136343644Y-104744812D01*
X136307956Y-104730030D01*
X136259597Y-104697718D01*
X136232282Y-104670403D01*
X136199970Y-104622044D01*
X136185188Y-104586356D01*
X136171902Y-104519561D01*
X136170000Y-104500248D01*
X136170000Y-102205262D01*
X138879520Y-102205262D01*
X138896759Y-102410553D01*
X138898092Y-102415201D01*
X138898092Y-102415202D01*
X138919271Y-102489060D01*
X138953544Y-102608586D01*
X139047712Y-102791818D01*
X139175677Y-102953270D01*
X139179357Y-102956402D01*
X139179359Y-102956404D01*
X139218227Y-102989483D01*
X139332564Y-103086791D01*
X139336787Y-103089151D01*
X139336791Y-103089154D01*
X139442578Y-103148276D01*
X139512398Y-103187297D01*
X139516996Y-103188791D01*
X139703724Y-103249463D01*
X139703726Y-103249464D01*
X139708329Y-103250959D01*
X139912894Y-103275351D01*
X139917716Y-103274980D01*
X139917719Y-103274980D01*
X139985541Y-103269761D01*
X140118300Y-103259546D01*
X140316725Y-103204145D01*
X140321038Y-103201966D01*
X140321044Y-103201964D01*
X140496289Y-103113441D01*
X140496291Y-103113440D01*
X140500610Y-103111258D01*
X140535943Y-103083653D01*
X140659135Y-102987406D01*
X140659139Y-102987402D01*
X140662951Y-102984424D01*
X140797564Y-102828472D01*
X140816231Y-102795613D01*
X140896934Y-102653550D01*
X140896935Y-102653547D01*
X140899323Y-102649344D01*
X140912882Y-102608586D01*
X140962824Y-102458454D01*
X140962824Y-102458452D01*
X140964351Y-102453863D01*
X140990171Y-102249474D01*
X140990583Y-102220000D01*
X140989138Y-102205262D01*
X141419520Y-102205262D01*
X141436759Y-102410553D01*
X141438092Y-102415201D01*
X141438092Y-102415202D01*
X141459271Y-102489060D01*
X141493544Y-102608586D01*
X141587712Y-102791818D01*
X141715677Y-102953270D01*
X141719357Y-102956402D01*
X141719359Y-102956404D01*
X141758227Y-102989483D01*
X141872564Y-103086791D01*
X141876787Y-103089151D01*
X141876791Y-103089154D01*
X141982578Y-103148276D01*
X142052398Y-103187297D01*
X142056996Y-103188791D01*
X142243724Y-103249463D01*
X142243726Y-103249464D01*
X142248329Y-103250959D01*
X142452894Y-103275351D01*
X142457716Y-103274980D01*
X142457719Y-103274980D01*
X142525541Y-103269761D01*
X142658300Y-103259546D01*
X142856725Y-103204145D01*
X142861038Y-103201966D01*
X142861044Y-103201964D01*
X143036289Y-103113441D01*
X143036291Y-103113440D01*
X143040610Y-103111258D01*
X143075943Y-103083653D01*
X143199135Y-102987406D01*
X143199139Y-102987402D01*
X143202951Y-102984424D01*
X143337564Y-102828472D01*
X143356231Y-102795613D01*
X143436934Y-102653550D01*
X143436935Y-102653547D01*
X143439323Y-102649344D01*
X143452882Y-102608586D01*
X143502824Y-102458454D01*
X143502824Y-102458452D01*
X143504351Y-102453863D01*
X143530171Y-102249474D01*
X143530230Y-102245262D01*
X150704520Y-102245262D01*
X150721759Y-102450553D01*
X150723092Y-102455201D01*
X150723092Y-102455202D01*
X150765739Y-102603928D01*
X150778544Y-102648586D01*
X150872712Y-102831818D01*
X151000677Y-102993270D01*
X151004357Y-102996402D01*
X151004359Y-102996404D01*
X151106877Y-103083653D01*
X151157564Y-103126791D01*
X151161787Y-103129151D01*
X151161791Y-103129154D01*
X151268500Y-103188791D01*
X151337398Y-103227297D01*
X151341996Y-103228791D01*
X151528724Y-103289463D01*
X151528726Y-103289464D01*
X151533329Y-103290959D01*
X151737894Y-103315351D01*
X151742716Y-103314980D01*
X151742719Y-103314980D01*
X151810541Y-103309761D01*
X151943300Y-103299546D01*
X152141725Y-103244145D01*
X152146038Y-103241966D01*
X152146044Y-103241964D01*
X152321289Y-103153441D01*
X152321291Y-103153440D01*
X152325610Y-103151258D01*
X152405100Y-103089154D01*
X152484135Y-103027406D01*
X152484139Y-103027402D01*
X152487951Y-103024424D01*
X152622564Y-102868472D01*
X152643205Y-102832138D01*
X152721934Y-102693550D01*
X152721935Y-102693547D01*
X152724323Y-102689344D01*
X152736231Y-102653550D01*
X152787824Y-102498454D01*
X152787824Y-102498452D01*
X152789351Y-102493863D01*
X152815171Y-102289474D01*
X152815583Y-102260000D01*
X152795480Y-102054970D01*
X152784856Y-102019780D01*
X152737333Y-101862380D01*
X152735935Y-101857749D01*
X152639218Y-101675849D01*
X152509011Y-101516200D01*
X152465195Y-101479952D01*
X152354002Y-101387965D01*
X152354000Y-101387964D01*
X152350275Y-101384882D01*
X152169055Y-101286897D01*
X152039836Y-101246897D01*
X151976875Y-101227407D01*
X151976871Y-101227406D01*
X151972254Y-101225977D01*
X151967446Y-101225472D01*
X151967443Y-101225471D01*
X151772185Y-101204949D01*
X151772183Y-101204949D01*
X151767369Y-101204443D01*
X151707354Y-101209905D01*
X151567022Y-101222675D01*
X151567017Y-101222676D01*
X151562203Y-101223114D01*
X151364572Y-101281280D01*
X151360288Y-101283519D01*
X151360287Y-101283520D01*
X151349428Y-101289197D01*
X151182002Y-101376726D01*
X151178231Y-101379758D01*
X151025220Y-101502781D01*
X151025217Y-101502783D01*
X151021447Y-101505815D01*
X151018333Y-101509526D01*
X151018332Y-101509527D01*
X150919023Y-101627879D01*
X150889024Y-101663630D01*
X150886689Y-101667878D01*
X150886688Y-101667879D01*
X150879955Y-101680126D01*
X150789776Y-101844162D01*
X150727484Y-102040532D01*
X150726944Y-102045344D01*
X150726944Y-102045345D01*
X150707354Y-102220000D01*
X150704520Y-102245262D01*
X143530230Y-102245262D01*
X143530583Y-102220000D01*
X143514402Y-102054970D01*
X143510952Y-102019780D01*
X143510951Y-102019776D01*
X143510480Y-102014970D01*
X143450935Y-101817749D01*
X143354218Y-101635849D01*
X143224011Y-101476200D01*
X143207790Y-101462781D01*
X143069002Y-101347965D01*
X143069000Y-101347964D01*
X143065275Y-101344882D01*
X142884055Y-101246897D01*
X142811641Y-101224481D01*
X142691875Y-101187407D01*
X142691871Y-101187406D01*
X142687254Y-101185977D01*
X142682446Y-101185472D01*
X142682443Y-101185471D01*
X142487185Y-101164949D01*
X142487183Y-101164949D01*
X142482369Y-101164443D01*
X142422354Y-101169905D01*
X142282022Y-101182675D01*
X142282017Y-101182676D01*
X142277203Y-101183114D01*
X142079572Y-101241280D01*
X142075288Y-101243519D01*
X142075287Y-101243520D01*
X142064428Y-101249197D01*
X141897002Y-101336726D01*
X141893231Y-101339758D01*
X141740220Y-101462781D01*
X141740217Y-101462783D01*
X141736447Y-101465815D01*
X141733333Y-101469526D01*
X141733332Y-101469527D01*
X141705429Y-101502781D01*
X141604024Y-101623630D01*
X141601689Y-101627878D01*
X141601688Y-101627879D01*
X141594955Y-101640126D01*
X141504776Y-101804162D01*
X141503313Y-101808775D01*
X141503311Y-101808779D01*
X141487777Y-101857749D01*
X141442484Y-102000532D01*
X141441944Y-102005344D01*
X141441944Y-102005345D01*
X141440865Y-102014970D01*
X141419520Y-102205262D01*
X140989138Y-102205262D01*
X140974402Y-102054970D01*
X140970952Y-102019780D01*
X140970951Y-102019776D01*
X140970480Y-102014970D01*
X140910935Y-101817749D01*
X140814218Y-101635849D01*
X140684011Y-101476200D01*
X140667790Y-101462781D01*
X140529002Y-101347965D01*
X140529000Y-101347964D01*
X140525275Y-101344882D01*
X140344055Y-101246897D01*
X140271641Y-101224481D01*
X140151875Y-101187407D01*
X140151871Y-101187406D01*
X140147254Y-101185977D01*
X140142446Y-101185472D01*
X140142443Y-101185471D01*
X139947185Y-101164949D01*
X139947183Y-101164949D01*
X139942369Y-101164443D01*
X139882354Y-101169905D01*
X139742022Y-101182675D01*
X139742017Y-101182676D01*
X139737203Y-101183114D01*
X139539572Y-101241280D01*
X139535288Y-101243519D01*
X139535287Y-101243520D01*
X139524428Y-101249197D01*
X139357002Y-101336726D01*
X139353231Y-101339758D01*
X139200220Y-101462781D01*
X139200217Y-101462783D01*
X139196447Y-101465815D01*
X139193333Y-101469526D01*
X139193332Y-101469527D01*
X139165429Y-101502781D01*
X139064024Y-101623630D01*
X139061689Y-101627878D01*
X139061688Y-101627879D01*
X139054955Y-101640126D01*
X138964776Y-101804162D01*
X138963313Y-101808775D01*
X138963311Y-101808779D01*
X138947777Y-101857749D01*
X138902484Y-102000532D01*
X138901944Y-102005344D01*
X138901944Y-102005345D01*
X138900865Y-102014970D01*
X138879520Y-102205262D01*
X136170000Y-102205262D01*
X136170000Y-99665262D01*
X138879520Y-99665262D01*
X138896759Y-99870553D01*
X138898092Y-99875201D01*
X138898092Y-99875202D01*
X138919271Y-99949060D01*
X138953544Y-100068586D01*
X139047712Y-100251818D01*
X139175677Y-100413270D01*
X139179357Y-100416402D01*
X139179359Y-100416404D01*
X139218227Y-100449483D01*
X139332564Y-100546791D01*
X139336787Y-100549151D01*
X139336791Y-100549154D01*
X139442578Y-100608276D01*
X139512398Y-100647297D01*
X139516996Y-100648791D01*
X139703724Y-100709463D01*
X139703726Y-100709464D01*
X139708329Y-100710959D01*
X139912894Y-100735351D01*
X139917716Y-100734980D01*
X139917719Y-100734980D01*
X139985541Y-100729761D01*
X140118300Y-100719546D01*
X140316725Y-100664145D01*
X140321038Y-100661966D01*
X140321044Y-100661964D01*
X140496289Y-100573441D01*
X140496291Y-100573440D01*
X140500610Y-100571258D01*
X140535943Y-100543653D01*
X140659135Y-100447406D01*
X140659139Y-100447402D01*
X140662951Y-100444424D01*
X140797564Y-100288472D01*
X140816231Y-100255613D01*
X140896934Y-100113550D01*
X140896935Y-100113547D01*
X140899323Y-100109344D01*
X140912882Y-100068586D01*
X140962824Y-99918454D01*
X140962824Y-99918452D01*
X140964351Y-99913863D01*
X140990171Y-99709474D01*
X140990583Y-99680000D01*
X140989138Y-99665262D01*
X141419520Y-99665262D01*
X141436759Y-99870553D01*
X141438092Y-99875201D01*
X141438092Y-99875202D01*
X141459271Y-99949060D01*
X141493544Y-100068586D01*
X141587712Y-100251818D01*
X141715677Y-100413270D01*
X141719357Y-100416402D01*
X141719359Y-100416404D01*
X141758227Y-100449483D01*
X141872564Y-100546791D01*
X141876787Y-100549151D01*
X141876791Y-100549154D01*
X141982578Y-100608276D01*
X142052398Y-100647297D01*
X142056996Y-100648791D01*
X142243724Y-100709463D01*
X142243726Y-100709464D01*
X142248329Y-100710959D01*
X142452894Y-100735351D01*
X142457716Y-100734980D01*
X142457719Y-100734980D01*
X142525541Y-100729761D01*
X142658300Y-100719546D01*
X142856725Y-100664145D01*
X142861038Y-100661966D01*
X142861044Y-100661964D01*
X143036289Y-100573441D01*
X143036291Y-100573440D01*
X143040610Y-100571258D01*
X143075943Y-100543653D01*
X143199135Y-100447406D01*
X143199139Y-100447402D01*
X143202951Y-100444424D01*
X143337564Y-100288472D01*
X143356231Y-100255613D01*
X143436934Y-100113550D01*
X143436935Y-100113547D01*
X143439323Y-100109344D01*
X143452882Y-100068586D01*
X143502824Y-99918454D01*
X143502824Y-99918452D01*
X143504351Y-99913863D01*
X143530171Y-99709474D01*
X143530230Y-99705262D01*
X150704520Y-99705262D01*
X150721759Y-99910553D01*
X150723092Y-99915201D01*
X150723092Y-99915202D01*
X150765739Y-100063928D01*
X150778544Y-100108586D01*
X150872712Y-100291818D01*
X151000677Y-100453270D01*
X151004357Y-100456402D01*
X151004359Y-100456404D01*
X151106877Y-100543653D01*
X151157564Y-100586791D01*
X151161787Y-100589151D01*
X151161791Y-100589154D01*
X151268500Y-100648791D01*
X151337398Y-100687297D01*
X151341996Y-100688791D01*
X151528724Y-100749463D01*
X151528726Y-100749464D01*
X151533329Y-100750959D01*
X151737894Y-100775351D01*
X151742716Y-100774980D01*
X151742719Y-100774980D01*
X151810541Y-100769761D01*
X151943300Y-100759546D01*
X152141725Y-100704145D01*
X152146038Y-100701966D01*
X152146044Y-100701964D01*
X152321289Y-100613441D01*
X152321291Y-100613440D01*
X152325610Y-100611258D01*
X152405100Y-100549154D01*
X152484135Y-100487406D01*
X152484139Y-100487402D01*
X152487951Y-100484424D01*
X152622564Y-100328472D01*
X152643205Y-100292138D01*
X152721934Y-100153550D01*
X152721935Y-100153547D01*
X152724323Y-100149344D01*
X152736231Y-100113550D01*
X152787824Y-99958454D01*
X152787824Y-99958452D01*
X152789351Y-99953863D01*
X152815171Y-99749474D01*
X152815583Y-99720000D01*
X152795480Y-99514970D01*
X152784856Y-99479780D01*
X152737333Y-99322380D01*
X152735935Y-99317749D01*
X152639218Y-99135849D01*
X152509011Y-98976200D01*
X152465195Y-98939952D01*
X152354002Y-98847965D01*
X152354000Y-98847964D01*
X152350275Y-98844882D01*
X152169055Y-98746897D01*
X152039836Y-98706897D01*
X151976875Y-98687407D01*
X151976871Y-98687406D01*
X151972254Y-98685977D01*
X151967446Y-98685472D01*
X151967443Y-98685471D01*
X151772185Y-98664949D01*
X151772183Y-98664949D01*
X151767369Y-98664443D01*
X151707354Y-98669905D01*
X151567022Y-98682675D01*
X151567017Y-98682676D01*
X151562203Y-98683114D01*
X151364572Y-98741280D01*
X151360288Y-98743519D01*
X151360287Y-98743520D01*
X151349428Y-98749197D01*
X151182002Y-98836726D01*
X151178231Y-98839758D01*
X151025220Y-98962781D01*
X151025217Y-98962783D01*
X151021447Y-98965815D01*
X151018333Y-98969526D01*
X151018332Y-98969527D01*
X150919023Y-99087879D01*
X150889024Y-99123630D01*
X150886689Y-99127878D01*
X150886688Y-99127879D01*
X150879955Y-99140126D01*
X150789776Y-99304162D01*
X150727484Y-99500532D01*
X150726944Y-99505344D01*
X150726944Y-99505345D01*
X150707354Y-99680000D01*
X150704520Y-99705262D01*
X143530230Y-99705262D01*
X143530583Y-99680000D01*
X143514402Y-99514970D01*
X143510952Y-99479780D01*
X143510951Y-99479776D01*
X143510480Y-99474970D01*
X143450935Y-99277749D01*
X143354218Y-99095849D01*
X143224011Y-98936200D01*
X143207790Y-98922781D01*
X143069002Y-98807965D01*
X143069000Y-98807964D01*
X143065275Y-98804882D01*
X142884055Y-98706897D01*
X142811641Y-98684481D01*
X142691875Y-98647407D01*
X142691871Y-98647406D01*
X142687254Y-98645977D01*
X142682446Y-98645472D01*
X142682443Y-98645471D01*
X142487185Y-98624949D01*
X142487183Y-98624949D01*
X142482369Y-98624443D01*
X142422354Y-98629905D01*
X142282022Y-98642675D01*
X142282017Y-98642676D01*
X142277203Y-98643114D01*
X142079572Y-98701280D01*
X142075288Y-98703519D01*
X142075287Y-98703520D01*
X142064428Y-98709197D01*
X141897002Y-98796726D01*
X141893231Y-98799758D01*
X141740220Y-98922781D01*
X141740217Y-98922783D01*
X141736447Y-98925815D01*
X141733333Y-98929526D01*
X141733332Y-98929527D01*
X141705429Y-98962781D01*
X141604024Y-99083630D01*
X141601689Y-99087878D01*
X141601688Y-99087879D01*
X141594955Y-99100126D01*
X141504776Y-99264162D01*
X141503313Y-99268775D01*
X141503311Y-99268779D01*
X141487777Y-99317749D01*
X141442484Y-99460532D01*
X141441944Y-99465344D01*
X141441944Y-99465345D01*
X141440865Y-99474970D01*
X141419520Y-99665262D01*
X140989138Y-99665262D01*
X140974402Y-99514970D01*
X140970952Y-99479780D01*
X140970951Y-99479776D01*
X140970480Y-99474970D01*
X140910935Y-99277749D01*
X140814218Y-99095849D01*
X140684011Y-98936200D01*
X140667790Y-98922781D01*
X140529002Y-98807965D01*
X140529000Y-98807964D01*
X140525275Y-98804882D01*
X140344055Y-98706897D01*
X140271641Y-98684481D01*
X140151875Y-98647407D01*
X140151871Y-98647406D01*
X140147254Y-98645977D01*
X140142446Y-98645472D01*
X140142443Y-98645471D01*
X139947185Y-98624949D01*
X139947183Y-98624949D01*
X139942369Y-98624443D01*
X139882354Y-98629905D01*
X139742022Y-98642675D01*
X139742017Y-98642676D01*
X139737203Y-98643114D01*
X139539572Y-98701280D01*
X139535288Y-98703519D01*
X139535287Y-98703520D01*
X139524428Y-98709197D01*
X139357002Y-98796726D01*
X139353231Y-98799758D01*
X139200220Y-98922781D01*
X139200217Y-98922783D01*
X139196447Y-98925815D01*
X139193333Y-98929526D01*
X139193332Y-98929527D01*
X139165429Y-98962781D01*
X139064024Y-99083630D01*
X139061689Y-99087878D01*
X139061688Y-99087879D01*
X139054955Y-99100126D01*
X138964776Y-99264162D01*
X138963313Y-99268775D01*
X138963311Y-99268779D01*
X138947777Y-99317749D01*
X138902484Y-99460532D01*
X138901944Y-99465344D01*
X138901944Y-99465345D01*
X138900865Y-99474970D01*
X138879520Y-99665262D01*
X136170000Y-99665262D01*
X136170000Y-97125262D01*
X138879520Y-97125262D01*
X138882475Y-97160454D01*
X138893206Y-97288238D01*
X138896759Y-97330553D01*
X138898092Y-97335201D01*
X138898092Y-97335202D01*
X138919271Y-97409060D01*
X138953544Y-97528586D01*
X139047712Y-97711818D01*
X139175677Y-97873270D01*
X139179357Y-97876402D01*
X139179359Y-97876404D01*
X139218227Y-97909483D01*
X139332564Y-98006791D01*
X139336787Y-98009151D01*
X139336791Y-98009154D01*
X139442578Y-98068276D01*
X139512398Y-98107297D01*
X139516996Y-98108791D01*
X139703724Y-98169463D01*
X139703726Y-98169464D01*
X139708329Y-98170959D01*
X139912894Y-98195351D01*
X139917716Y-98194980D01*
X139917719Y-98194980D01*
X139985541Y-98189761D01*
X140118300Y-98179546D01*
X140316725Y-98124145D01*
X140321038Y-98121966D01*
X140321044Y-98121964D01*
X140496289Y-98033441D01*
X140496291Y-98033440D01*
X140500610Y-98031258D01*
X140540830Y-97999835D01*
X140659135Y-97907406D01*
X140659139Y-97907402D01*
X140662951Y-97904424D01*
X140716323Y-97842592D01*
X140737438Y-97818129D01*
X140797564Y-97748472D01*
X140816231Y-97715613D01*
X140896934Y-97573550D01*
X140896935Y-97573547D01*
X140899323Y-97569344D01*
X140912882Y-97528586D01*
X140962824Y-97378454D01*
X140962824Y-97378452D01*
X140964351Y-97373863D01*
X140990171Y-97169474D01*
X140990583Y-97140000D01*
X140989138Y-97125262D01*
X141419520Y-97125262D01*
X141422475Y-97160454D01*
X141433206Y-97288238D01*
X141436759Y-97330553D01*
X141438092Y-97335201D01*
X141438092Y-97335202D01*
X141459271Y-97409060D01*
X141493544Y-97528586D01*
X141587712Y-97711818D01*
X141715677Y-97873270D01*
X141719357Y-97876402D01*
X141719359Y-97876404D01*
X141758227Y-97909483D01*
X141872564Y-98006791D01*
X141876787Y-98009151D01*
X141876791Y-98009154D01*
X141982578Y-98068276D01*
X142052398Y-98107297D01*
X142056996Y-98108791D01*
X142243724Y-98169463D01*
X142243726Y-98169464D01*
X142248329Y-98170959D01*
X142452894Y-98195351D01*
X142457716Y-98194980D01*
X142457719Y-98194980D01*
X142525541Y-98189761D01*
X142658300Y-98179546D01*
X142856725Y-98124145D01*
X142861038Y-98121966D01*
X142861044Y-98121964D01*
X143036289Y-98033441D01*
X143036291Y-98033440D01*
X143040610Y-98031258D01*
X143080830Y-97999835D01*
X143199135Y-97907406D01*
X143199139Y-97907402D01*
X143202951Y-97904424D01*
X143256323Y-97842592D01*
X143277438Y-97818129D01*
X143337564Y-97748472D01*
X143356231Y-97715613D01*
X143436934Y-97573550D01*
X143436935Y-97573547D01*
X143439323Y-97569344D01*
X143452882Y-97528586D01*
X143502824Y-97378454D01*
X143502824Y-97378452D01*
X143504351Y-97373863D01*
X143530171Y-97169474D01*
X143530230Y-97165262D01*
X150704520Y-97165262D01*
X150721759Y-97370553D01*
X150723092Y-97375201D01*
X150723092Y-97375202D01*
X150773720Y-97551762D01*
X150778544Y-97568586D01*
X150872712Y-97751818D01*
X151000677Y-97913270D01*
X151004357Y-97916402D01*
X151004359Y-97916404D01*
X151102391Y-97999835D01*
X151157564Y-98046791D01*
X151161787Y-98049151D01*
X151161791Y-98049154D01*
X151268500Y-98108791D01*
X151337398Y-98147297D01*
X151341996Y-98148791D01*
X151528724Y-98209463D01*
X151528726Y-98209464D01*
X151533329Y-98210959D01*
X151737894Y-98235351D01*
X151742716Y-98234980D01*
X151742719Y-98234980D01*
X151810541Y-98229761D01*
X151943300Y-98219546D01*
X152141725Y-98164145D01*
X152146038Y-98161966D01*
X152146044Y-98161964D01*
X152321289Y-98073441D01*
X152321291Y-98073440D01*
X152325610Y-98071258D01*
X152329427Y-98068276D01*
X152484135Y-97947406D01*
X152484139Y-97947402D01*
X152487951Y-97944424D01*
X152507291Y-97922019D01*
X152552638Y-97869483D01*
X152622564Y-97788472D01*
X152643205Y-97752138D01*
X152721934Y-97613550D01*
X152721935Y-97613547D01*
X152724323Y-97609344D01*
X152726846Y-97601762D01*
X152787824Y-97418454D01*
X152787824Y-97418452D01*
X152789351Y-97413863D01*
X152791734Y-97395000D01*
X158804318Y-97395000D01*
X158824956Y-97551762D01*
X158885464Y-97697841D01*
X158981718Y-97823282D01*
X159107159Y-97919536D01*
X159253238Y-97980044D01*
X159410000Y-98000682D01*
X159566762Y-97980044D01*
X159712841Y-97919536D01*
X159838282Y-97823282D01*
X159840852Y-97819933D01*
X159894513Y-97792592D01*
X159954945Y-97802163D01*
X159978826Y-97819513D01*
X159981718Y-97823282D01*
X160107159Y-97919536D01*
X160253238Y-97980044D01*
X160410000Y-98000682D01*
X160566762Y-97980044D01*
X160712841Y-97919536D01*
X160838282Y-97823282D01*
X160934536Y-97697841D01*
X160995044Y-97551762D01*
X161009099Y-97445000D01*
X161354318Y-97445000D01*
X161374956Y-97601762D01*
X161435464Y-97747841D01*
X161531718Y-97873282D01*
X161657159Y-97969536D01*
X161803238Y-98030044D01*
X161930445Y-98046791D01*
X161948394Y-98049154D01*
X161960000Y-98050682D01*
X161971607Y-98049154D01*
X161989555Y-98046791D01*
X162116762Y-98030044D01*
X162262841Y-97969536D01*
X162388282Y-97873282D01*
X162390852Y-97869933D01*
X162444513Y-97842592D01*
X162504945Y-97852163D01*
X162528826Y-97869513D01*
X162531718Y-97873282D01*
X162657159Y-97969536D01*
X162803238Y-98030044D01*
X162930445Y-98046791D01*
X162948394Y-98049154D01*
X162960000Y-98050682D01*
X162971607Y-98049154D01*
X162989555Y-98046791D01*
X163116762Y-98030044D01*
X163262841Y-97969536D01*
X163388282Y-97873282D01*
X163484536Y-97747841D01*
X163545044Y-97601762D01*
X163565682Y-97445000D01*
X163545044Y-97288238D01*
X163484536Y-97142159D01*
X163388282Y-97016718D01*
X163262841Y-96920464D01*
X163116762Y-96859956D01*
X162960000Y-96839318D01*
X162803238Y-96859956D01*
X162657159Y-96920464D01*
X162531718Y-97016718D01*
X162529148Y-97020067D01*
X162475487Y-97047408D01*
X162415055Y-97037837D01*
X162391174Y-97020487D01*
X162388282Y-97016718D01*
X162262841Y-96920464D01*
X162116762Y-96859956D01*
X161960000Y-96839318D01*
X161803238Y-96859956D01*
X161657159Y-96920464D01*
X161531718Y-97016718D01*
X161435464Y-97142159D01*
X161374956Y-97288238D01*
X161354318Y-97445000D01*
X161009099Y-97445000D01*
X161015682Y-97395000D01*
X160995044Y-97238238D01*
X160934536Y-97092159D01*
X160838282Y-96966718D01*
X160712841Y-96870464D01*
X160566762Y-96809956D01*
X160410000Y-96789318D01*
X160253238Y-96809956D01*
X160107159Y-96870464D01*
X159981718Y-96966718D01*
X159979148Y-96970067D01*
X159925487Y-96997408D01*
X159865055Y-96987837D01*
X159841174Y-96970487D01*
X159838282Y-96966718D01*
X159712841Y-96870464D01*
X159566762Y-96809956D01*
X159410000Y-96789318D01*
X159253238Y-96809956D01*
X159107159Y-96870464D01*
X158981718Y-96966718D01*
X158885464Y-97092159D01*
X158824956Y-97238238D01*
X158804318Y-97395000D01*
X152791734Y-97395000D01*
X152815171Y-97209474D01*
X152815583Y-97180000D01*
X152807558Y-97098154D01*
X152795952Y-96979780D01*
X152795951Y-96979776D01*
X152795480Y-96974970D01*
X152784856Y-96939780D01*
X152745403Y-96809109D01*
X152735935Y-96777749D01*
X152639218Y-96595849D01*
X152509011Y-96436200D01*
X152465195Y-96399952D01*
X152354002Y-96307965D01*
X152354000Y-96307964D01*
X152350275Y-96304882D01*
X152169055Y-96206897D01*
X152105855Y-96187333D01*
X152033709Y-96165000D01*
X169124318Y-96165000D01*
X169144956Y-96321762D01*
X169205464Y-96467841D01*
X169301718Y-96593282D01*
X169427159Y-96689536D01*
X169573238Y-96750044D01*
X169730000Y-96770682D01*
X169886762Y-96750044D01*
X170032841Y-96689536D01*
X170158282Y-96593282D01*
X170160852Y-96589933D01*
X170214513Y-96562592D01*
X170274945Y-96572163D01*
X170298826Y-96589513D01*
X170301718Y-96593282D01*
X170427159Y-96689536D01*
X170573238Y-96750044D01*
X170730000Y-96770682D01*
X170886762Y-96750044D01*
X171032841Y-96689536D01*
X171158282Y-96593282D01*
X171254536Y-96467841D01*
X171315044Y-96321762D01*
X171335682Y-96165000D01*
X171315044Y-96008238D01*
X171254536Y-95862159D01*
X171158282Y-95736718D01*
X171075949Y-95673542D01*
X171041293Y-95623118D01*
X171042894Y-95561953D01*
X171075949Y-95516458D01*
X171105946Y-95493441D01*
X171158282Y-95453282D01*
X171254536Y-95327841D01*
X171315044Y-95181762D01*
X171335682Y-95025000D01*
X171315044Y-94868238D01*
X171254536Y-94722159D01*
X171158282Y-94596718D01*
X171032841Y-94500464D01*
X170886762Y-94439956D01*
X170730000Y-94419318D01*
X170573238Y-94439956D01*
X170427159Y-94500464D01*
X170301718Y-94596718D01*
X170299148Y-94600067D01*
X170245487Y-94627408D01*
X170185055Y-94617837D01*
X170161174Y-94600487D01*
X170158282Y-94596718D01*
X170032841Y-94500464D01*
X169886762Y-94439956D01*
X169730000Y-94419318D01*
X169573238Y-94439956D01*
X169427159Y-94500464D01*
X169301718Y-94596718D01*
X169205464Y-94722159D01*
X169144956Y-94868238D01*
X169124318Y-95025000D01*
X169144956Y-95181762D01*
X169205464Y-95327841D01*
X169301718Y-95453282D01*
X169354055Y-95493441D01*
X169384051Y-95516458D01*
X169418707Y-95566882D01*
X169417106Y-95628047D01*
X169384051Y-95673542D01*
X169301718Y-95736718D01*
X169205464Y-95862159D01*
X169144956Y-96008238D01*
X169124318Y-96165000D01*
X152033709Y-96165000D01*
X151976875Y-96147407D01*
X151976871Y-96147406D01*
X151972254Y-96145977D01*
X151967446Y-96145472D01*
X151967443Y-96145471D01*
X151772185Y-96124949D01*
X151772183Y-96124949D01*
X151767369Y-96124443D01*
X151707354Y-96129905D01*
X151567022Y-96142675D01*
X151567017Y-96142676D01*
X151562203Y-96143114D01*
X151364572Y-96201280D01*
X151360288Y-96203519D01*
X151360287Y-96203520D01*
X151349428Y-96209197D01*
X151182002Y-96296726D01*
X151178231Y-96299758D01*
X151025220Y-96422781D01*
X151025217Y-96422783D01*
X151021447Y-96425815D01*
X151018333Y-96429526D01*
X151018332Y-96429527D01*
X150919023Y-96547879D01*
X150889024Y-96583630D01*
X150886689Y-96587878D01*
X150886688Y-96587879D01*
X150881544Y-96597236D01*
X150789776Y-96764162D01*
X150788313Y-96768775D01*
X150788311Y-96768779D01*
X150759657Y-96859109D01*
X150727484Y-96960532D01*
X150726944Y-96965344D01*
X150726944Y-96965345D01*
X150707354Y-97140000D01*
X150704520Y-97165262D01*
X143530230Y-97165262D01*
X143530583Y-97140000D01*
X143528667Y-97120454D01*
X143510952Y-96939780D01*
X143510951Y-96939776D01*
X143510480Y-96934970D01*
X143507294Y-96924415D01*
X143460622Y-96769835D01*
X143450935Y-96737749D01*
X143354218Y-96555849D01*
X143224011Y-96396200D01*
X143126251Y-96315326D01*
X143069002Y-96267965D01*
X143069000Y-96267964D01*
X143065275Y-96264882D01*
X142884055Y-96166897D01*
X142811641Y-96144481D01*
X142691875Y-96107407D01*
X142691871Y-96107406D01*
X142687254Y-96105977D01*
X142682446Y-96105472D01*
X142682443Y-96105471D01*
X142487185Y-96084949D01*
X142487183Y-96084949D01*
X142482369Y-96084443D01*
X142426405Y-96089536D01*
X142282022Y-96102675D01*
X142282017Y-96102676D01*
X142277203Y-96103114D01*
X142079572Y-96161280D01*
X142075288Y-96163519D01*
X142075287Y-96163520D01*
X142064428Y-96169197D01*
X141897002Y-96256726D01*
X141893231Y-96259758D01*
X141740220Y-96382781D01*
X141740217Y-96382783D01*
X141736447Y-96385815D01*
X141733333Y-96389526D01*
X141733332Y-96389527D01*
X141640788Y-96499817D01*
X141604024Y-96543630D01*
X141601689Y-96547878D01*
X141601688Y-96547879D01*
X141594955Y-96560126D01*
X141504776Y-96724162D01*
X141503313Y-96728775D01*
X141503311Y-96728779D01*
X141467978Y-96840165D01*
X141442484Y-96920532D01*
X141441944Y-96925344D01*
X141441944Y-96925345D01*
X141422561Y-97098154D01*
X141419520Y-97125262D01*
X140989138Y-97125262D01*
X140988667Y-97120454D01*
X140970952Y-96939780D01*
X140970951Y-96939776D01*
X140970480Y-96934970D01*
X140967294Y-96924415D01*
X140920622Y-96769835D01*
X140910935Y-96737749D01*
X140814218Y-96555849D01*
X140684011Y-96396200D01*
X140586251Y-96315326D01*
X140529002Y-96267965D01*
X140529000Y-96267964D01*
X140525275Y-96264882D01*
X140344055Y-96166897D01*
X140271641Y-96144481D01*
X140151875Y-96107407D01*
X140151871Y-96107406D01*
X140147254Y-96105977D01*
X140142446Y-96105472D01*
X140142443Y-96105471D01*
X139947185Y-96084949D01*
X139947183Y-96084949D01*
X139942369Y-96084443D01*
X139886405Y-96089536D01*
X139742022Y-96102675D01*
X139742017Y-96102676D01*
X139737203Y-96103114D01*
X139539572Y-96161280D01*
X139535288Y-96163519D01*
X139535287Y-96163520D01*
X139524428Y-96169197D01*
X139357002Y-96256726D01*
X139353231Y-96259758D01*
X139200220Y-96382781D01*
X139200217Y-96382783D01*
X139196447Y-96385815D01*
X139193333Y-96389526D01*
X139193332Y-96389527D01*
X139100788Y-96499817D01*
X139064024Y-96543630D01*
X139061689Y-96547878D01*
X139061688Y-96547879D01*
X139054955Y-96560126D01*
X138964776Y-96724162D01*
X138963313Y-96728775D01*
X138963311Y-96728779D01*
X138927978Y-96840165D01*
X138902484Y-96920532D01*
X138901944Y-96925344D01*
X138901944Y-96925345D01*
X138882561Y-97098154D01*
X138879520Y-97125262D01*
X136170000Y-97125262D01*
X136170000Y-94585262D01*
X138879520Y-94585262D01*
X138884953Y-94649956D01*
X138893509Y-94751846D01*
X138896759Y-94790553D01*
X138898092Y-94795201D01*
X138898092Y-94795202D01*
X138951782Y-94982440D01*
X138953544Y-94988586D01*
X139047712Y-95171818D01*
X139175677Y-95333270D01*
X139179357Y-95336402D01*
X139179359Y-95336404D01*
X139236843Y-95385326D01*
X139332564Y-95466791D01*
X139336787Y-95469151D01*
X139336791Y-95469154D01*
X139417861Y-95514462D01*
X139512398Y-95567297D01*
X139516996Y-95568791D01*
X139703724Y-95629463D01*
X139703726Y-95629464D01*
X139708329Y-95630959D01*
X139912894Y-95655351D01*
X139917716Y-95654980D01*
X139917719Y-95654980D01*
X139985541Y-95649761D01*
X140118300Y-95639546D01*
X140316725Y-95584145D01*
X140321038Y-95581966D01*
X140321044Y-95581964D01*
X140496289Y-95493441D01*
X140496291Y-95493440D01*
X140500610Y-95491258D01*
X140535943Y-95463653D01*
X140659135Y-95367406D01*
X140659139Y-95367402D01*
X140662951Y-95364424D01*
X140694529Y-95327841D01*
X140769112Y-95241434D01*
X140797564Y-95208472D01*
X140809331Y-95187759D01*
X140896934Y-95033550D01*
X140896935Y-95033547D01*
X140899323Y-95029344D01*
X140902909Y-95018566D01*
X140962824Y-94838454D01*
X140962824Y-94838452D01*
X140964351Y-94833863D01*
X140965800Y-94822398D01*
X140987270Y-94652440D01*
X140990171Y-94629474D01*
X140990226Y-94625585D01*
X140990419Y-94611762D01*
X140990583Y-94600000D01*
X140989138Y-94585262D01*
X141419520Y-94585262D01*
X141424953Y-94649956D01*
X141433509Y-94751846D01*
X141436759Y-94790553D01*
X141438092Y-94795201D01*
X141438092Y-94795202D01*
X141491782Y-94982440D01*
X141493544Y-94988586D01*
X141587712Y-95171818D01*
X141715677Y-95333270D01*
X141719357Y-95336402D01*
X141719359Y-95336404D01*
X141776843Y-95385326D01*
X141872564Y-95466791D01*
X141876787Y-95469151D01*
X141876791Y-95469154D01*
X141957861Y-95514462D01*
X142052398Y-95567297D01*
X142056996Y-95568791D01*
X142243724Y-95629463D01*
X142243726Y-95629464D01*
X142248329Y-95630959D01*
X142452894Y-95655351D01*
X142457716Y-95654980D01*
X142457719Y-95654980D01*
X142525541Y-95649761D01*
X142658300Y-95639546D01*
X142856725Y-95584145D01*
X142861038Y-95581966D01*
X142861044Y-95581964D01*
X142894627Y-95565000D01*
X144614318Y-95565000D01*
X144634956Y-95721762D01*
X144695464Y-95867841D01*
X144791718Y-95993282D01*
X144917159Y-96089536D01*
X145034954Y-96138329D01*
X145046508Y-96143114D01*
X145063238Y-96150044D01*
X145220000Y-96170682D01*
X145376762Y-96150044D01*
X145393493Y-96143114D01*
X145405046Y-96138329D01*
X145522841Y-96089536D01*
X145648282Y-95993282D01*
X145744536Y-95867841D01*
X145805044Y-95721762D01*
X145825682Y-95565000D01*
X145817762Y-95504840D01*
X150710000Y-95504840D01*
X150710948Y-95514462D01*
X150719702Y-95558474D01*
X150727021Y-95576142D01*
X150760389Y-95626082D01*
X150773918Y-95639611D01*
X150823858Y-95672979D01*
X150841526Y-95680298D01*
X150885538Y-95689052D01*
X150895160Y-95690000D01*
X151294320Y-95690000D01*
X151307005Y-95685878D01*
X151310000Y-95681757D01*
X151310000Y-95674320D01*
X152210000Y-95674320D01*
X152214122Y-95687005D01*
X152218243Y-95690000D01*
X152624840Y-95690000D01*
X152634462Y-95689052D01*
X152678474Y-95680298D01*
X152696142Y-95672979D01*
X152746082Y-95639611D01*
X152759611Y-95626082D01*
X152792979Y-95576142D01*
X152800298Y-95558474D01*
X152809052Y-95514462D01*
X152810000Y-95504840D01*
X152810000Y-95235000D01*
X160064318Y-95235000D01*
X160084956Y-95391762D01*
X160145464Y-95537841D01*
X160241718Y-95663282D01*
X160367159Y-95759536D01*
X160513238Y-95820044D01*
X160670000Y-95840682D01*
X160826762Y-95820044D01*
X160972841Y-95759536D01*
X161098282Y-95663282D01*
X161194536Y-95537841D01*
X161255044Y-95391762D01*
X161275682Y-95235000D01*
X161255044Y-95078238D01*
X161194536Y-94932159D01*
X161098282Y-94806718D01*
X160972841Y-94710464D01*
X160826762Y-94649956D01*
X160670000Y-94629318D01*
X160513238Y-94649956D01*
X160367159Y-94710464D01*
X160241718Y-94806718D01*
X160145464Y-94932159D01*
X160084956Y-95078238D01*
X160064318Y-95235000D01*
X152810000Y-95235000D01*
X152810000Y-95105680D01*
X152805878Y-95092995D01*
X152801757Y-95090000D01*
X152225680Y-95090000D01*
X152212995Y-95094122D01*
X152210000Y-95098243D01*
X152210000Y-95674320D01*
X151310000Y-95674320D01*
X151310000Y-95105680D01*
X151305878Y-95092995D01*
X151301757Y-95090000D01*
X150725680Y-95090000D01*
X150712995Y-95094122D01*
X150710000Y-95098243D01*
X150710000Y-95504840D01*
X145817762Y-95504840D01*
X145805044Y-95408238D01*
X145744536Y-95262159D01*
X145648282Y-95136718D01*
X145522841Y-95040464D01*
X145376762Y-94979956D01*
X145220000Y-94959318D01*
X145063238Y-94979956D01*
X144917159Y-95040464D01*
X144791718Y-95136718D01*
X144695464Y-95262159D01*
X144634956Y-95408238D01*
X144614318Y-95565000D01*
X142894627Y-95565000D01*
X143036289Y-95493441D01*
X143036291Y-95493440D01*
X143040610Y-95491258D01*
X143075943Y-95463653D01*
X143199135Y-95367406D01*
X143199139Y-95367402D01*
X143202951Y-95364424D01*
X143234529Y-95327841D01*
X143309112Y-95241434D01*
X143337564Y-95208472D01*
X143349331Y-95187759D01*
X143436934Y-95033550D01*
X143436935Y-95033547D01*
X143439323Y-95029344D01*
X143442909Y-95018566D01*
X143502824Y-94838454D01*
X143502824Y-94838452D01*
X143504351Y-94833863D01*
X143505800Y-94822398D01*
X143527270Y-94652440D01*
X143530171Y-94629474D01*
X143530226Y-94625585D01*
X143530419Y-94611762D01*
X143530583Y-94600000D01*
X143524429Y-94537236D01*
X143510952Y-94399780D01*
X143510951Y-94399776D01*
X143510480Y-94394970D01*
X143450935Y-94197749D01*
X143438478Y-94174320D01*
X150710000Y-94174320D01*
X150714122Y-94187005D01*
X150718243Y-94190000D01*
X151294320Y-94190000D01*
X151307005Y-94185878D01*
X151310000Y-94181757D01*
X151310000Y-94174320D01*
X152210000Y-94174320D01*
X152214122Y-94187005D01*
X152218243Y-94190000D01*
X152794320Y-94190000D01*
X152807005Y-94185878D01*
X152810000Y-94181757D01*
X152810000Y-94105000D01*
X161864318Y-94105000D01*
X161884956Y-94261762D01*
X161945464Y-94407841D01*
X162041718Y-94533282D01*
X162167159Y-94629536D01*
X162313238Y-94690044D01*
X162470000Y-94710682D01*
X162626762Y-94690044D01*
X162772841Y-94629536D01*
X162898282Y-94533282D01*
X162958350Y-94455000D01*
X164024318Y-94455000D01*
X164044956Y-94611762D01*
X164105464Y-94757841D01*
X164201718Y-94883282D01*
X164327159Y-94979536D01*
X164473238Y-95040044D01*
X164630000Y-95060682D01*
X164786762Y-95040044D01*
X164932841Y-94979536D01*
X164959190Y-94959318D01*
X165019733Y-94912862D01*
X165077409Y-94892438D01*
X165140267Y-94912862D01*
X165200810Y-94959318D01*
X165227159Y-94979536D01*
X165373238Y-95040044D01*
X165530000Y-95060682D01*
X165686762Y-95040044D01*
X165832841Y-94979536D01*
X165859190Y-94959318D01*
X165919733Y-94912862D01*
X165977409Y-94892438D01*
X166040267Y-94912862D01*
X166100810Y-94959318D01*
X166127159Y-94979536D01*
X166273238Y-95040044D01*
X166430000Y-95060682D01*
X166586762Y-95040044D01*
X166732841Y-94979536D01*
X166759190Y-94959318D01*
X166819733Y-94912862D01*
X166877409Y-94892438D01*
X166940267Y-94912862D01*
X167000810Y-94959318D01*
X167027159Y-94979536D01*
X167173238Y-95040044D01*
X167330000Y-95060682D01*
X167486762Y-95040044D01*
X167632841Y-94979536D01*
X167744734Y-94893678D01*
X167802408Y-94873254D01*
X167865266Y-94893678D01*
X167977159Y-94979536D01*
X168123238Y-95040044D01*
X168280000Y-95060682D01*
X168436762Y-95040044D01*
X168582841Y-94979536D01*
X168708282Y-94883282D01*
X168804536Y-94757841D01*
X168865044Y-94611762D01*
X168885682Y-94455000D01*
X168865044Y-94298238D01*
X168804536Y-94152159D01*
X168708282Y-94026718D01*
X168582841Y-93930464D01*
X168436762Y-93869956D01*
X168280000Y-93849318D01*
X168123238Y-93869956D01*
X167977159Y-93930464D01*
X167865266Y-94016322D01*
X167807592Y-94036746D01*
X167744734Y-94016322D01*
X167632841Y-93930464D01*
X167486762Y-93869956D01*
X167330000Y-93849318D01*
X167173238Y-93869956D01*
X167027159Y-93930464D01*
X167022010Y-93934415D01*
X166940267Y-93997138D01*
X166882591Y-94017562D01*
X166819733Y-93997138D01*
X166737990Y-93934415D01*
X166732841Y-93930464D01*
X166586762Y-93869956D01*
X166430000Y-93849318D01*
X166273238Y-93869956D01*
X166127159Y-93930464D01*
X166122010Y-93934415D01*
X166040267Y-93997138D01*
X165982591Y-94017562D01*
X165919733Y-93997138D01*
X165837990Y-93934415D01*
X165832841Y-93930464D01*
X165686762Y-93869956D01*
X165530000Y-93849318D01*
X165373238Y-93869956D01*
X165227159Y-93930464D01*
X165222010Y-93934415D01*
X165140267Y-93997138D01*
X165082591Y-94017562D01*
X165019733Y-93997138D01*
X164937990Y-93934415D01*
X164932841Y-93930464D01*
X164786762Y-93869956D01*
X164630000Y-93849318D01*
X164473238Y-93869956D01*
X164327159Y-93930464D01*
X164201718Y-94026718D01*
X164105464Y-94152159D01*
X164044956Y-94298238D01*
X164024318Y-94455000D01*
X162958350Y-94455000D01*
X162994536Y-94407841D01*
X163055044Y-94261762D01*
X163075682Y-94105000D01*
X163055044Y-93948238D01*
X162994536Y-93802159D01*
X162898282Y-93676718D01*
X162772841Y-93580464D01*
X162626762Y-93519956D01*
X162470000Y-93499318D01*
X162313238Y-93519956D01*
X162167159Y-93580464D01*
X162041718Y-93676718D01*
X161945464Y-93802159D01*
X161884956Y-93948238D01*
X161864318Y-94105000D01*
X152810000Y-94105000D01*
X152810000Y-93775160D01*
X152809052Y-93765538D01*
X152800298Y-93721526D01*
X152792979Y-93703858D01*
X152759611Y-93653918D01*
X152746082Y-93640389D01*
X152696142Y-93607021D01*
X152678474Y-93599702D01*
X152634462Y-93590948D01*
X152624840Y-93590000D01*
X152225680Y-93590000D01*
X152212995Y-93594122D01*
X152210000Y-93598243D01*
X152210000Y-94174320D01*
X151310000Y-94174320D01*
X151310000Y-93605680D01*
X151305878Y-93592995D01*
X151301757Y-93590000D01*
X150895160Y-93590000D01*
X150885538Y-93590948D01*
X150841526Y-93599702D01*
X150823858Y-93607021D01*
X150773918Y-93640389D01*
X150760389Y-93653918D01*
X150727021Y-93703858D01*
X150719702Y-93721526D01*
X150710948Y-93765538D01*
X150710000Y-93775160D01*
X150710000Y-94174320D01*
X143438478Y-94174320D01*
X143354218Y-94015849D01*
X143224011Y-93856200D01*
X143207790Y-93842781D01*
X143069002Y-93727965D01*
X143069000Y-93727964D01*
X143065275Y-93724882D01*
X142953123Y-93664242D01*
X142888309Y-93629197D01*
X142888308Y-93629197D01*
X142884055Y-93626897D01*
X142778176Y-93594122D01*
X142691875Y-93567407D01*
X142691871Y-93567406D01*
X142687254Y-93565977D01*
X142682446Y-93565472D01*
X142682443Y-93565471D01*
X142487185Y-93544949D01*
X142487183Y-93544949D01*
X142482369Y-93544443D01*
X142422354Y-93549905D01*
X142282022Y-93562675D01*
X142282017Y-93562676D01*
X142277203Y-93563114D01*
X142079572Y-93621280D01*
X142075288Y-93623519D01*
X142075287Y-93623520D01*
X142064428Y-93629197D01*
X141897002Y-93716726D01*
X141893231Y-93719758D01*
X141740220Y-93842781D01*
X141740217Y-93842783D01*
X141736447Y-93845815D01*
X141733333Y-93849526D01*
X141733332Y-93849527D01*
X141650504Y-93948238D01*
X141604024Y-94003630D01*
X141601689Y-94007878D01*
X141601688Y-94007879D01*
X141596365Y-94017562D01*
X141504776Y-94184162D01*
X141503313Y-94188775D01*
X141503311Y-94188779D01*
X141470491Y-94292241D01*
X141442484Y-94380532D01*
X141441944Y-94385344D01*
X141441944Y-94385345D01*
X141429032Y-94500464D01*
X141419520Y-94585262D01*
X140989138Y-94585262D01*
X140984429Y-94537236D01*
X140970952Y-94399780D01*
X140970951Y-94399776D01*
X140970480Y-94394970D01*
X140910935Y-94197749D01*
X140814218Y-94015849D01*
X140684011Y-93856200D01*
X140667790Y-93842781D01*
X140529002Y-93727965D01*
X140529000Y-93727964D01*
X140525275Y-93724882D01*
X140413123Y-93664242D01*
X140348309Y-93629197D01*
X140348308Y-93629197D01*
X140344055Y-93626897D01*
X140238176Y-93594122D01*
X140151875Y-93567407D01*
X140151871Y-93567406D01*
X140147254Y-93565977D01*
X140142446Y-93565472D01*
X140142443Y-93565471D01*
X139947185Y-93544949D01*
X139947183Y-93544949D01*
X139942369Y-93544443D01*
X139882354Y-93549905D01*
X139742022Y-93562675D01*
X139742017Y-93562676D01*
X139737203Y-93563114D01*
X139539572Y-93621280D01*
X139535288Y-93623519D01*
X139535287Y-93623520D01*
X139524428Y-93629197D01*
X139357002Y-93716726D01*
X139353231Y-93719758D01*
X139200220Y-93842781D01*
X139200217Y-93842783D01*
X139196447Y-93845815D01*
X139193333Y-93849526D01*
X139193332Y-93849527D01*
X139110504Y-93948238D01*
X139064024Y-94003630D01*
X139061689Y-94007878D01*
X139061688Y-94007879D01*
X139056365Y-94017562D01*
X138964776Y-94184162D01*
X138963313Y-94188775D01*
X138963311Y-94188779D01*
X138930491Y-94292241D01*
X138902484Y-94380532D01*
X138901944Y-94385344D01*
X138901944Y-94385345D01*
X138889032Y-94500464D01*
X138879520Y-94585262D01*
X136170000Y-94585262D01*
X136170000Y-92924840D01*
X138885000Y-92924840D01*
X138885948Y-92934462D01*
X138894702Y-92978474D01*
X138902021Y-92996142D01*
X138935389Y-93046082D01*
X138948918Y-93059611D01*
X138998858Y-93092979D01*
X139016526Y-93100298D01*
X139060538Y-93109052D01*
X139070160Y-93110000D01*
X139469320Y-93110000D01*
X139482005Y-93105878D01*
X139485000Y-93101757D01*
X139485000Y-93094320D01*
X140385000Y-93094320D01*
X140389122Y-93107005D01*
X140393243Y-93110000D01*
X140799840Y-93110000D01*
X140809462Y-93109052D01*
X140853474Y-93100298D01*
X140871142Y-93092979D01*
X140921082Y-93059611D01*
X140934611Y-93046082D01*
X140967979Y-92996142D01*
X140975298Y-92978474D01*
X140984052Y-92934462D01*
X140985000Y-92924840D01*
X140985000Y-92525680D01*
X140980878Y-92512995D01*
X140976757Y-92510000D01*
X140400680Y-92510000D01*
X140387995Y-92514122D01*
X140385000Y-92518243D01*
X140385000Y-93094320D01*
X139485000Y-93094320D01*
X139485000Y-92525680D01*
X139480878Y-92512995D01*
X139476757Y-92510000D01*
X138900680Y-92510000D01*
X138887995Y-92514122D01*
X138885000Y-92518243D01*
X138885000Y-92924840D01*
X136170000Y-92924840D01*
X136170000Y-92045262D01*
X141419520Y-92045262D01*
X141422594Y-92081871D01*
X141433199Y-92208154D01*
X141436759Y-92250553D01*
X141438092Y-92255201D01*
X141438092Y-92255202D01*
X141464770Y-92348238D01*
X141493544Y-92448586D01*
X141587712Y-92631818D01*
X141715677Y-92793270D01*
X141719357Y-92796402D01*
X141719359Y-92796404D01*
X141808004Y-92871846D01*
X141872564Y-92926791D01*
X141876787Y-92929151D01*
X141876791Y-92929154D01*
X141993702Y-92994493D01*
X142052398Y-93027297D01*
X142056996Y-93028791D01*
X142243724Y-93089463D01*
X142243726Y-93089464D01*
X142248329Y-93090959D01*
X142452894Y-93115351D01*
X142457716Y-93114980D01*
X142457719Y-93114980D01*
X142534757Y-93109052D01*
X142658300Y-93099546D01*
X142856725Y-93044145D01*
X142861038Y-93041966D01*
X142861044Y-93041964D01*
X143036289Y-92953441D01*
X143036291Y-92953440D01*
X143040610Y-92951258D01*
X143051899Y-92942438D01*
X143199135Y-92827406D01*
X143199139Y-92827402D01*
X143202951Y-92824424D01*
X143212821Y-92812990D01*
X143262313Y-92755651D01*
X143337564Y-92668472D01*
X143356231Y-92635613D01*
X143430429Y-92505000D01*
X161814318Y-92505000D01*
X161834956Y-92661762D01*
X161895464Y-92807841D01*
X161991718Y-92933282D01*
X162117159Y-93029536D01*
X162263238Y-93090044D01*
X162420000Y-93110682D01*
X162576762Y-93090044D01*
X162722841Y-93029536D01*
X162766361Y-92996142D01*
X162809733Y-92962862D01*
X162867409Y-92942438D01*
X162930267Y-92962862D01*
X162973639Y-92996142D01*
X163017159Y-93029536D01*
X163163238Y-93090044D01*
X163320000Y-93110682D01*
X163476762Y-93090044D01*
X163622841Y-93029536D01*
X163748282Y-92933282D01*
X163844536Y-92807841D01*
X163905044Y-92661762D01*
X163916466Y-92575000D01*
X171624318Y-92575000D01*
X171644956Y-92731762D01*
X171705464Y-92877841D01*
X171801718Y-93003282D01*
X171927159Y-93099536D01*
X172073238Y-93160044D01*
X172230000Y-93180682D01*
X172386762Y-93160044D01*
X172532841Y-93099536D01*
X172658282Y-93003282D01*
X172754536Y-92877841D01*
X172815044Y-92731762D01*
X172835682Y-92575000D01*
X172815044Y-92418238D01*
X172754536Y-92272159D01*
X172658282Y-92146718D01*
X172532841Y-92050464D01*
X172486971Y-92031464D01*
X172440446Y-91991727D01*
X172426162Y-91932233D01*
X172449577Y-91875705D01*
X172486971Y-91848536D01*
X172517436Y-91835917D01*
X172532841Y-91829536D01*
X172658282Y-91733282D01*
X172754536Y-91607841D01*
X172815044Y-91461762D01*
X172834028Y-91317560D01*
X172834835Y-91311434D01*
X172835682Y-91305000D01*
X172815044Y-91148238D01*
X172754536Y-91002159D01*
X172658282Y-90876718D01*
X172532841Y-90780464D01*
X172386762Y-90719956D01*
X172230000Y-90699318D01*
X172073238Y-90719956D01*
X171927159Y-90780464D01*
X171801718Y-90876718D01*
X171705464Y-91002159D01*
X171644956Y-91148238D01*
X171624318Y-91305000D01*
X171625165Y-91311434D01*
X171625972Y-91317560D01*
X171644956Y-91461762D01*
X171705464Y-91607841D01*
X171801718Y-91733282D01*
X171927159Y-91829536D01*
X171942564Y-91835917D01*
X171973029Y-91848536D01*
X172019554Y-91888273D01*
X172033838Y-91947767D01*
X172010423Y-92004295D01*
X171973029Y-92031464D01*
X171927159Y-92050464D01*
X171801718Y-92146718D01*
X171705464Y-92272159D01*
X171644956Y-92418238D01*
X171624318Y-92575000D01*
X163916466Y-92575000D01*
X163925682Y-92505000D01*
X163905044Y-92348238D01*
X163844536Y-92202159D01*
X163748282Y-92076718D01*
X163622841Y-91980464D01*
X163476762Y-91919956D01*
X163320000Y-91899318D01*
X163163238Y-91919956D01*
X163017159Y-91980464D01*
X163012010Y-91984415D01*
X162930267Y-92047138D01*
X162872591Y-92067562D01*
X162809733Y-92047138D01*
X162727990Y-91984415D01*
X162722841Y-91980464D01*
X162576762Y-91919956D01*
X162420000Y-91899318D01*
X162263238Y-91919956D01*
X162117159Y-91980464D01*
X161991718Y-92076718D01*
X161895464Y-92202159D01*
X161834956Y-92348238D01*
X161814318Y-92505000D01*
X143430429Y-92505000D01*
X143436934Y-92493550D01*
X143436935Y-92493547D01*
X143439323Y-92489344D01*
X143452882Y-92448586D01*
X143502824Y-92298454D01*
X143502824Y-92298452D01*
X143504351Y-92293863D01*
X143506336Y-92278154D01*
X143529823Y-92092228D01*
X143530171Y-92089474D01*
X143530583Y-92060000D01*
X143530313Y-92057244D01*
X143510952Y-91859780D01*
X143510951Y-91859776D01*
X143510480Y-91854970D01*
X143508538Y-91848536D01*
X143452333Y-91662380D01*
X143450935Y-91657749D01*
X143354218Y-91475849D01*
X143224011Y-91316200D01*
X143065275Y-91184882D01*
X142884055Y-91086897D01*
X142820855Y-91067333D01*
X142691875Y-91027407D01*
X142691871Y-91027406D01*
X142687254Y-91025977D01*
X142682446Y-91025472D01*
X142682443Y-91025471D01*
X142487185Y-91004949D01*
X142487183Y-91004949D01*
X142482369Y-91004443D01*
X142441591Y-91008154D01*
X142282022Y-91022675D01*
X142282017Y-91022676D01*
X142277203Y-91023114D01*
X142079572Y-91081280D01*
X142075288Y-91083519D01*
X142075287Y-91083520D01*
X142064428Y-91089197D01*
X141897002Y-91176726D01*
X141893231Y-91179758D01*
X141740220Y-91302781D01*
X141740217Y-91302783D01*
X141736447Y-91305815D01*
X141733333Y-91309526D01*
X141733332Y-91309527D01*
X141707901Y-91339835D01*
X141604024Y-91463630D01*
X141601689Y-91467878D01*
X141601688Y-91467879D01*
X141594955Y-91480126D01*
X141504776Y-91644162D01*
X141503313Y-91648775D01*
X141503311Y-91648779D01*
X141475251Y-91737236D01*
X141442484Y-91840532D01*
X141441944Y-91845344D01*
X141441944Y-91845345D01*
X141421068Y-92031464D01*
X141419520Y-92045262D01*
X136170000Y-92045262D01*
X136170000Y-91594320D01*
X138885000Y-91594320D01*
X138889122Y-91607005D01*
X138893243Y-91610000D01*
X139469320Y-91610000D01*
X139482005Y-91605878D01*
X139485000Y-91601757D01*
X139485000Y-91594320D01*
X140385000Y-91594320D01*
X140389122Y-91607005D01*
X140393243Y-91610000D01*
X140969320Y-91610000D01*
X140982005Y-91605878D01*
X140985000Y-91601757D01*
X140985000Y-91195160D01*
X140984052Y-91185538D01*
X140975298Y-91141526D01*
X140967979Y-91123858D01*
X140934611Y-91073918D01*
X140921082Y-91060389D01*
X140871142Y-91027021D01*
X140853474Y-91019702D01*
X140809462Y-91010948D01*
X140799840Y-91010000D01*
X140400680Y-91010000D01*
X140387995Y-91014122D01*
X140385000Y-91018243D01*
X140385000Y-91594320D01*
X139485000Y-91594320D01*
X139485000Y-91025680D01*
X139480878Y-91012995D01*
X139476757Y-91010000D01*
X139070160Y-91010000D01*
X139060538Y-91010948D01*
X139016526Y-91019702D01*
X138998858Y-91027021D01*
X138948918Y-91060389D01*
X138935389Y-91073918D01*
X138902021Y-91123858D01*
X138894702Y-91141526D01*
X138885948Y-91185538D01*
X138885000Y-91195160D01*
X138885000Y-91594320D01*
X136170000Y-91594320D01*
X136170000Y-90735000D01*
X144614318Y-90735000D01*
X144634956Y-90891762D01*
X144695464Y-91037841D01*
X144791718Y-91163282D01*
X144917159Y-91259536D01*
X145063238Y-91320044D01*
X145220000Y-91340682D01*
X145376762Y-91320044D01*
X145522841Y-91259536D01*
X145648282Y-91163282D01*
X145744536Y-91037841D01*
X145805044Y-90891762D01*
X145825682Y-90735000D01*
X145805044Y-90578238D01*
X145744536Y-90432159D01*
X145648282Y-90306718D01*
X145567849Y-90245000D01*
X155554318Y-90245000D01*
X155574956Y-90401762D01*
X155635464Y-90547841D01*
X155731718Y-90673282D01*
X155857159Y-90769536D01*
X156003238Y-90830044D01*
X156160000Y-90850682D01*
X156316762Y-90830044D01*
X156462841Y-90769536D01*
X156588282Y-90673282D01*
X156684536Y-90547841D01*
X156745044Y-90401762D01*
X156765682Y-90245000D01*
X156745044Y-90088238D01*
X156684536Y-89942159D01*
X156588282Y-89816718D01*
X156462841Y-89720464D01*
X156316762Y-89659956D01*
X156160000Y-89639318D01*
X156003238Y-89659956D01*
X155857159Y-89720464D01*
X155731718Y-89816718D01*
X155635464Y-89942159D01*
X155574956Y-90088238D01*
X155554318Y-90245000D01*
X145567849Y-90245000D01*
X145522841Y-90210464D01*
X145376762Y-90149956D01*
X145220000Y-90129318D01*
X145063238Y-90149956D01*
X144917159Y-90210464D01*
X144791718Y-90306718D01*
X144695464Y-90432159D01*
X144634956Y-90578238D01*
X144614318Y-90735000D01*
X136170000Y-90735000D01*
X136170000Y-89335000D01*
X145464318Y-89335000D01*
X145484956Y-89491762D01*
X145545464Y-89637841D01*
X145641718Y-89763282D01*
X145767159Y-89859536D01*
X145913238Y-89920044D01*
X146070000Y-89940682D01*
X146226762Y-89920044D01*
X146372841Y-89859536D01*
X146498282Y-89763282D01*
X146594536Y-89637841D01*
X146655044Y-89491762D01*
X146675682Y-89335000D01*
X146655044Y-89178238D01*
X146594536Y-89032159D01*
X146581369Y-89015000D01*
X156304318Y-89015000D01*
X156324956Y-89171762D01*
X156385464Y-89317841D01*
X156481718Y-89443282D01*
X156607159Y-89539536D01*
X156753238Y-89600044D01*
X156910000Y-89620682D01*
X157066762Y-89600044D01*
X157212841Y-89539536D01*
X157338282Y-89443282D01*
X157359983Y-89415000D01*
X174594318Y-89415000D01*
X174614956Y-89571762D01*
X174675464Y-89717841D01*
X174771718Y-89843282D01*
X174897159Y-89939536D01*
X175043238Y-90000044D01*
X175200000Y-90020682D01*
X175356762Y-90000044D01*
X175502841Y-89939536D01*
X175628282Y-89843282D01*
X175724536Y-89717841D01*
X175785044Y-89571762D01*
X175805682Y-89415000D01*
X175785044Y-89258238D01*
X175724536Y-89112159D01*
X175628282Y-88986718D01*
X175502841Y-88890464D01*
X175356762Y-88829956D01*
X175200000Y-88809318D01*
X175043238Y-88829956D01*
X174897159Y-88890464D01*
X174771718Y-88986718D01*
X174675464Y-89112159D01*
X174614956Y-89258238D01*
X174594318Y-89415000D01*
X157359983Y-89415000D01*
X157434536Y-89317841D01*
X157495044Y-89171762D01*
X157515682Y-89015000D01*
X157495044Y-88858238D01*
X157434536Y-88712159D01*
X157338282Y-88586718D01*
X157212841Y-88490464D01*
X157066762Y-88429956D01*
X156910000Y-88409318D01*
X156753238Y-88429956D01*
X156607159Y-88490464D01*
X156481718Y-88586718D01*
X156385464Y-88712159D01*
X156324956Y-88858238D01*
X156304318Y-89015000D01*
X146581369Y-89015000D01*
X146498282Y-88906718D01*
X146372841Y-88810464D01*
X146226762Y-88749956D01*
X146070000Y-88729318D01*
X145913238Y-88749956D01*
X145767159Y-88810464D01*
X145641718Y-88906718D01*
X145545464Y-89032159D01*
X145484956Y-89178238D01*
X145464318Y-89335000D01*
X136170000Y-89335000D01*
X136170000Y-87895000D01*
X159104318Y-87895000D01*
X159124956Y-88051762D01*
X159185464Y-88197841D01*
X159281718Y-88323282D01*
X159407159Y-88419536D01*
X159553238Y-88480044D01*
X159710000Y-88500682D01*
X159866762Y-88480044D01*
X160012841Y-88419536D01*
X160138282Y-88323282D01*
X160234536Y-88197841D01*
X160295044Y-88051762D01*
X160315682Y-87895000D01*
X160295044Y-87738238D01*
X160234536Y-87592159D01*
X160138282Y-87466718D01*
X160012841Y-87370464D01*
X159866762Y-87309956D01*
X159710000Y-87289318D01*
X159553238Y-87309956D01*
X159407159Y-87370464D01*
X159281718Y-87466718D01*
X159185464Y-87592159D01*
X159124956Y-87738238D01*
X159104318Y-87895000D01*
X136170000Y-87895000D01*
X136170000Y-86970000D01*
X141304318Y-86970000D01*
X141324956Y-87126762D01*
X141385464Y-87272841D01*
X141481718Y-87398282D01*
X141607159Y-87494536D01*
X141753238Y-87555044D01*
X141910000Y-87575682D01*
X142066762Y-87555044D01*
X142212841Y-87494536D01*
X142338282Y-87398282D01*
X142434536Y-87272841D01*
X142495044Y-87126762D01*
X142515682Y-86970000D01*
X144654318Y-86970000D01*
X144674956Y-87126762D01*
X144735464Y-87272841D01*
X144831718Y-87398282D01*
X144957159Y-87494536D01*
X145103238Y-87555044D01*
X145260000Y-87575682D01*
X145416762Y-87555044D01*
X145562841Y-87494536D01*
X145688282Y-87398282D01*
X145784536Y-87272841D01*
X145845044Y-87126762D01*
X145865682Y-86970000D01*
X145845044Y-86813238D01*
X145841632Y-86805000D01*
X156151818Y-86805000D01*
X156172456Y-86961762D01*
X156232964Y-87107841D01*
X156329218Y-87233282D01*
X156454659Y-87329536D01*
X156600738Y-87390044D01*
X156757500Y-87410682D01*
X156914262Y-87390044D01*
X157060341Y-87329536D01*
X157185782Y-87233282D01*
X157199810Y-87215000D01*
X160664318Y-87215000D01*
X160684956Y-87371762D01*
X160687440Y-87377759D01*
X160693807Y-87393129D01*
X160745464Y-87517841D01*
X160841718Y-87643282D01*
X160967159Y-87739536D01*
X161113238Y-87800044D01*
X161270000Y-87820682D01*
X161426762Y-87800044D01*
X161438939Y-87795000D01*
X174854318Y-87795000D01*
X174874956Y-87951762D01*
X174935464Y-88097841D01*
X175031718Y-88223282D01*
X175157159Y-88319536D01*
X175303238Y-88380044D01*
X175460000Y-88400682D01*
X175616762Y-88380044D01*
X175762841Y-88319536D01*
X175888282Y-88223282D01*
X175984536Y-88097841D01*
X176045044Y-87951762D01*
X176065682Y-87795000D01*
X176045044Y-87638238D01*
X175984536Y-87492159D01*
X175888282Y-87366718D01*
X175762841Y-87270464D01*
X175616762Y-87209956D01*
X175460000Y-87189318D01*
X175303238Y-87209956D01*
X175157159Y-87270464D01*
X175031718Y-87366718D01*
X174935464Y-87492159D01*
X174874956Y-87638238D01*
X174854318Y-87795000D01*
X161438939Y-87795000D01*
X161572841Y-87739536D01*
X161698282Y-87643282D01*
X161794536Y-87517841D01*
X161846193Y-87393129D01*
X161852560Y-87377759D01*
X161855044Y-87371762D01*
X161875682Y-87215000D01*
X161855044Y-87058238D01*
X161794536Y-86912159D01*
X161698282Y-86786718D01*
X161572841Y-86690464D01*
X161426762Y-86629956D01*
X161270000Y-86609318D01*
X161113238Y-86629956D01*
X160967159Y-86690464D01*
X160841718Y-86786718D01*
X160745464Y-86912159D01*
X160684956Y-87058238D01*
X160664318Y-87215000D01*
X157199810Y-87215000D01*
X157282036Y-87107841D01*
X157342544Y-86961762D01*
X157363182Y-86805000D01*
X157342544Y-86648238D01*
X157334621Y-86629109D01*
X157289708Y-86520682D01*
X157282036Y-86502159D01*
X157185782Y-86376718D01*
X157060341Y-86280464D01*
X156914262Y-86219956D01*
X156757500Y-86199318D01*
X156600738Y-86219956D01*
X156454659Y-86280464D01*
X156329218Y-86376718D01*
X156232964Y-86502159D01*
X156225292Y-86520682D01*
X156180380Y-86629109D01*
X156172456Y-86648238D01*
X156151818Y-86805000D01*
X145841632Y-86805000D01*
X145784536Y-86667159D01*
X145688282Y-86541718D01*
X145562841Y-86445464D01*
X145416762Y-86384956D01*
X145260000Y-86364318D01*
X145103238Y-86384956D01*
X144957159Y-86445464D01*
X144831718Y-86541718D01*
X144735464Y-86667159D01*
X144674956Y-86813238D01*
X144654318Y-86970000D01*
X142515682Y-86970000D01*
X142495044Y-86813238D01*
X142434536Y-86667159D01*
X142338282Y-86541718D01*
X142212841Y-86445464D01*
X142066762Y-86384956D01*
X141910000Y-86364318D01*
X141753238Y-86384956D01*
X141607159Y-86445464D01*
X141481718Y-86541718D01*
X141385464Y-86667159D01*
X141324956Y-86813238D01*
X141304318Y-86970000D01*
X136170000Y-86970000D01*
X136170000Y-85905000D01*
X148401818Y-85905000D01*
X148402665Y-85911434D01*
X148403982Y-85921434D01*
X148422456Y-86061762D01*
X148482964Y-86207841D01*
X148579218Y-86333282D01*
X148704659Y-86429536D01*
X148850738Y-86490044D01*
X149007500Y-86510682D01*
X149164262Y-86490044D01*
X149310341Y-86429536D01*
X149435782Y-86333282D01*
X149532036Y-86207841D01*
X149592544Y-86061762D01*
X149602650Y-85985000D01*
X167724818Y-85985000D01*
X167745456Y-86141762D01*
X167805964Y-86287841D01*
X167902218Y-86413282D01*
X168027659Y-86509536D01*
X168173738Y-86570044D01*
X168330500Y-86590682D01*
X168487262Y-86570044D01*
X168633341Y-86509536D01*
X168758782Y-86413282D01*
X168855036Y-86287841D01*
X168915544Y-86141762D01*
X168936182Y-85985000D01*
X168926966Y-85915000D01*
X172051818Y-85915000D01*
X172072456Y-86071762D01*
X172132964Y-86217841D01*
X172229218Y-86343282D01*
X172354659Y-86439536D01*
X172500738Y-86500044D01*
X172657500Y-86520682D01*
X172814262Y-86500044D01*
X172960341Y-86439536D01*
X173085782Y-86343282D01*
X173118993Y-86300000D01*
X178254318Y-86300000D01*
X178274956Y-86456762D01*
X178335464Y-86602841D01*
X178431718Y-86728282D01*
X178557159Y-86824536D01*
X178703238Y-86885044D01*
X178860000Y-86905682D01*
X179016762Y-86885044D01*
X179162841Y-86824536D01*
X179288282Y-86728282D01*
X179384536Y-86602841D01*
X179445044Y-86456762D01*
X179465682Y-86300000D01*
X179954318Y-86300000D01*
X179974956Y-86456762D01*
X180035464Y-86602841D01*
X180131718Y-86728282D01*
X180257159Y-86824536D01*
X180403238Y-86885044D01*
X180560000Y-86905682D01*
X180716762Y-86885044D01*
X180862841Y-86824536D01*
X180988282Y-86728282D01*
X181084536Y-86602841D01*
X181145044Y-86456762D01*
X181165682Y-86300000D01*
X181604318Y-86300000D01*
X181624956Y-86456762D01*
X181685464Y-86602841D01*
X181781718Y-86728282D01*
X181907159Y-86824536D01*
X182053238Y-86885044D01*
X182210000Y-86905682D01*
X182366762Y-86885044D01*
X182512841Y-86824536D01*
X182638282Y-86728282D01*
X182734536Y-86602841D01*
X182795044Y-86456762D01*
X182815682Y-86300000D01*
X183254318Y-86300000D01*
X183274956Y-86456762D01*
X183335464Y-86602841D01*
X183431718Y-86728282D01*
X183557159Y-86824536D01*
X183703238Y-86885044D01*
X183860000Y-86905682D01*
X184016762Y-86885044D01*
X184162841Y-86824536D01*
X184288282Y-86728282D01*
X184384536Y-86602841D01*
X184445044Y-86456762D01*
X184465682Y-86300000D01*
X184445044Y-86143238D01*
X184384536Y-85997159D01*
X184288282Y-85871718D01*
X184162841Y-85775464D01*
X184016762Y-85714956D01*
X183860000Y-85694318D01*
X183703238Y-85714956D01*
X183557159Y-85775464D01*
X183431718Y-85871718D01*
X183335464Y-85997159D01*
X183274956Y-86143238D01*
X183254318Y-86300000D01*
X182815682Y-86300000D01*
X182795044Y-86143238D01*
X182734536Y-85997159D01*
X182638282Y-85871718D01*
X182512841Y-85775464D01*
X182366762Y-85714956D01*
X182210000Y-85694318D01*
X182053238Y-85714956D01*
X181907159Y-85775464D01*
X181781718Y-85871718D01*
X181685464Y-85997159D01*
X181624956Y-86143238D01*
X181604318Y-86300000D01*
X181165682Y-86300000D01*
X181145044Y-86143238D01*
X181084536Y-85997159D01*
X180988282Y-85871718D01*
X180862841Y-85775464D01*
X180716762Y-85714956D01*
X180560000Y-85694318D01*
X180403238Y-85714956D01*
X180257159Y-85775464D01*
X180131718Y-85871718D01*
X180035464Y-85997159D01*
X179974956Y-86143238D01*
X179954318Y-86300000D01*
X179465682Y-86300000D01*
X179445044Y-86143238D01*
X179384536Y-85997159D01*
X179288282Y-85871718D01*
X179162841Y-85775464D01*
X179016762Y-85714956D01*
X178860000Y-85694318D01*
X178703238Y-85714956D01*
X178557159Y-85775464D01*
X178431718Y-85871718D01*
X178335464Y-85997159D01*
X178274956Y-86143238D01*
X178254318Y-86300000D01*
X173118993Y-86300000D01*
X173182036Y-86217841D01*
X173242544Y-86071762D01*
X173263182Y-85915000D01*
X173261866Y-85905000D01*
X173252607Y-85834674D01*
X173242544Y-85758238D01*
X173182036Y-85612159D01*
X173085782Y-85486718D01*
X172960341Y-85390464D01*
X172814262Y-85329956D01*
X172657500Y-85309318D01*
X172500738Y-85329956D01*
X172354659Y-85390464D01*
X172229218Y-85486718D01*
X172132964Y-85612159D01*
X172072456Y-85758238D01*
X172062393Y-85834674D01*
X172053135Y-85905000D01*
X172051818Y-85915000D01*
X168926966Y-85915000D01*
X168915544Y-85828238D01*
X168855036Y-85682159D01*
X168758782Y-85556718D01*
X168633341Y-85460464D01*
X168487262Y-85399956D01*
X168330500Y-85379318D01*
X168173738Y-85399956D01*
X168027659Y-85460464D01*
X167902218Y-85556718D01*
X167805964Y-85682159D01*
X167745456Y-85828238D01*
X167724818Y-85985000D01*
X149602650Y-85985000D01*
X149611018Y-85921434D01*
X149612335Y-85911434D01*
X149613182Y-85905000D01*
X149592544Y-85748238D01*
X149532036Y-85602159D01*
X149435782Y-85476718D01*
X149310341Y-85380464D01*
X149164262Y-85319956D01*
X149007500Y-85299318D01*
X148850738Y-85319956D01*
X148704659Y-85380464D01*
X148579218Y-85476718D01*
X148482964Y-85602159D01*
X148422456Y-85748238D01*
X148401818Y-85905000D01*
X136170000Y-85905000D01*
X136170000Y-82795000D01*
X168554318Y-82795000D01*
X168574956Y-82951762D01*
X168635464Y-83097841D01*
X168731718Y-83223282D01*
X168857159Y-83319536D01*
X169003238Y-83380044D01*
X169160000Y-83400682D01*
X169316762Y-83380044D01*
X169462841Y-83319536D01*
X169588282Y-83223282D01*
X169684536Y-83097841D01*
X169745044Y-82951762D01*
X169765682Y-82795000D01*
X169745044Y-82638238D01*
X169684536Y-82492159D01*
X169588282Y-82366718D01*
X169462841Y-82270464D01*
X169316762Y-82209956D01*
X169160000Y-82189318D01*
X169003238Y-82209956D01*
X168857159Y-82270464D01*
X168731718Y-82366718D01*
X168635464Y-82492159D01*
X168574956Y-82638238D01*
X168554318Y-82795000D01*
X136170000Y-82795000D01*
X136170000Y-82175000D01*
X152951818Y-82175000D01*
X152972456Y-82331762D01*
X153032964Y-82477841D01*
X153129218Y-82603282D01*
X153254659Y-82699536D01*
X153400738Y-82760044D01*
X153557500Y-82780682D01*
X153714262Y-82760044D01*
X153860341Y-82699536D01*
X153985782Y-82603282D01*
X154082036Y-82477841D01*
X154142544Y-82331762D01*
X154163182Y-82175000D01*
X154142544Y-82018238D01*
X154082036Y-81872159D01*
X153985782Y-81746718D01*
X153860341Y-81650464D01*
X153714262Y-81589956D01*
X153557500Y-81569318D01*
X153400738Y-81589956D01*
X153254659Y-81650464D01*
X153129218Y-81746718D01*
X153032964Y-81872159D01*
X152972456Y-82018238D01*
X152951818Y-82175000D01*
X136170000Y-82175000D01*
X136170000Y-80802500D01*
X160644318Y-80802500D01*
X160664956Y-80959262D01*
X160725464Y-81105341D01*
X160821718Y-81230782D01*
X160947159Y-81327036D01*
X161093238Y-81387544D01*
X161250000Y-81408182D01*
X161406762Y-81387544D01*
X161552841Y-81327036D01*
X161678282Y-81230782D01*
X161774536Y-81105341D01*
X161812992Y-81012499D01*
X165114318Y-81012499D01*
X165134956Y-81169261D01*
X165195464Y-81315340D01*
X165291718Y-81440781D01*
X165417159Y-81537035D01*
X165563238Y-81597543D01*
X165720000Y-81618181D01*
X165876762Y-81597543D01*
X166022841Y-81537035D01*
X166148282Y-81440781D01*
X166244536Y-81315340D01*
X166305044Y-81169261D01*
X166325682Y-81012499D01*
X166305044Y-80855737D01*
X166244536Y-80709658D01*
X166148282Y-80584217D01*
X166022841Y-80487963D01*
X165876762Y-80427455D01*
X165720000Y-80406817D01*
X165563238Y-80427455D01*
X165417159Y-80487963D01*
X165291718Y-80584217D01*
X165195464Y-80709658D01*
X165134956Y-80855737D01*
X165114318Y-81012499D01*
X161812992Y-81012499D01*
X161835044Y-80959262D01*
X161855682Y-80802500D01*
X161835044Y-80645738D01*
X161774536Y-80499659D01*
X161678282Y-80374218D01*
X161552841Y-80277964D01*
X161406762Y-80217456D01*
X161250000Y-80196818D01*
X161093238Y-80217456D01*
X160947159Y-80277964D01*
X160821718Y-80374218D01*
X160725464Y-80499659D01*
X160664956Y-80645738D01*
X160644318Y-80802500D01*
X136170000Y-80802500D01*
X136170000Y-79505000D01*
X138491818Y-79505000D01*
X138512456Y-79661762D01*
X138572964Y-79807841D01*
X138669218Y-79933282D01*
X138794659Y-80029536D01*
X138940738Y-80090044D01*
X139097500Y-80110682D01*
X139254262Y-80090044D01*
X139400341Y-80029536D01*
X139525782Y-79933282D01*
X139622036Y-79807841D01*
X139643923Y-79755000D01*
X143851818Y-79755000D01*
X143872456Y-79911762D01*
X143932964Y-80057841D01*
X144029218Y-80183282D01*
X144154659Y-80279536D01*
X144300738Y-80340044D01*
X144457500Y-80360682D01*
X144614262Y-80340044D01*
X144760341Y-80279536D01*
X144885782Y-80183282D01*
X144982036Y-80057841D01*
X145042544Y-79911762D01*
X145063182Y-79755000D01*
X145042544Y-79598238D01*
X144982036Y-79452159D01*
X144885782Y-79326718D01*
X144760341Y-79230464D01*
X144614262Y-79169956D01*
X144457500Y-79149318D01*
X144300738Y-79169956D01*
X144154659Y-79230464D01*
X144029218Y-79326718D01*
X143932964Y-79452159D01*
X143872456Y-79598238D01*
X143851818Y-79755000D01*
X139643923Y-79755000D01*
X139682544Y-79661762D01*
X139703182Y-79505000D01*
X139682544Y-79348238D01*
X139622036Y-79202159D01*
X139525782Y-79076718D01*
X139400341Y-78980464D01*
X139254262Y-78919956D01*
X139216617Y-78915000D01*
X156811818Y-78915000D01*
X156832456Y-79071762D01*
X156892964Y-79217841D01*
X156989218Y-79343282D01*
X157114659Y-79439536D01*
X157260738Y-79500044D01*
X157417500Y-79520682D01*
X157574262Y-79500044D01*
X157720341Y-79439536D01*
X157845782Y-79343282D01*
X157942036Y-79217841D01*
X158002544Y-79071762D01*
X158023182Y-78915000D01*
X158002544Y-78758238D01*
X157942036Y-78612159D01*
X157845782Y-78486718D01*
X157720341Y-78390464D01*
X157574262Y-78329956D01*
X157417500Y-78309318D01*
X157260738Y-78329956D01*
X157114659Y-78390464D01*
X156989218Y-78486718D01*
X156892964Y-78612159D01*
X156832456Y-78758238D01*
X156811818Y-78915000D01*
X139216617Y-78915000D01*
X139097500Y-78899318D01*
X138940738Y-78919956D01*
X138794659Y-78980464D01*
X138669218Y-79076718D01*
X138572964Y-79202159D01*
X138512456Y-79348238D01*
X138491818Y-79505000D01*
X136170000Y-79505000D01*
X136170000Y-77605000D01*
X137901818Y-77605000D01*
X137922456Y-77761762D01*
X137982964Y-77907841D01*
X138079218Y-78033282D01*
X138204659Y-78129536D01*
X138350738Y-78190044D01*
X138507500Y-78210682D01*
X138664262Y-78190044D01*
X138810341Y-78129536D01*
X138935782Y-78033282D01*
X139011196Y-77935000D01*
X175154318Y-77935000D01*
X175174956Y-78091762D01*
X175235464Y-78237841D01*
X175331718Y-78363282D01*
X175457159Y-78459536D01*
X175603238Y-78520044D01*
X175760000Y-78540682D01*
X175916762Y-78520044D01*
X176062841Y-78459536D01*
X176188282Y-78363282D01*
X176284536Y-78237841D01*
X176345044Y-78091762D01*
X176365682Y-77935000D01*
X176345044Y-77778238D01*
X176284536Y-77632159D01*
X176188282Y-77506718D01*
X176062841Y-77410464D01*
X175916762Y-77349956D01*
X175760000Y-77329318D01*
X175603238Y-77349956D01*
X175457159Y-77410464D01*
X175331718Y-77506718D01*
X175235464Y-77632159D01*
X175174956Y-77778238D01*
X175154318Y-77935000D01*
X139011196Y-77935000D01*
X139032036Y-77907841D01*
X139092544Y-77761762D01*
X139113182Y-77605000D01*
X139092544Y-77448238D01*
X139032036Y-77302159D01*
X138935782Y-77176718D01*
X138810341Y-77080464D01*
X138664262Y-77019956D01*
X138507500Y-76999318D01*
X138350738Y-77019956D01*
X138204659Y-77080464D01*
X138079218Y-77176718D01*
X137982964Y-77302159D01*
X137922456Y-77448238D01*
X137901818Y-77605000D01*
X136170000Y-77605000D01*
X136170000Y-76905000D01*
X156701818Y-76905000D01*
X156722456Y-77061762D01*
X156782964Y-77207841D01*
X156879218Y-77333282D01*
X157004659Y-77429536D01*
X157150738Y-77490044D01*
X157307500Y-77510682D01*
X157464262Y-77490044D01*
X157610341Y-77429536D01*
X157735782Y-77333282D01*
X157832036Y-77207841D01*
X157892544Y-77061762D01*
X157913182Y-76905000D01*
X157892544Y-76748238D01*
X157832036Y-76602159D01*
X157735782Y-76476718D01*
X157610341Y-76380464D01*
X157464262Y-76319956D01*
X157307500Y-76299318D01*
X157150738Y-76319956D01*
X157004659Y-76380464D01*
X156879218Y-76476718D01*
X156782964Y-76602159D01*
X156722456Y-76748238D01*
X156701818Y-76905000D01*
X136170000Y-76905000D01*
X136170000Y-76275000D01*
X163999318Y-76275000D01*
X164019956Y-76431762D01*
X164080464Y-76577841D01*
X164176718Y-76703282D01*
X164302159Y-76799536D01*
X164448238Y-76860044D01*
X164605000Y-76880682D01*
X164761762Y-76860044D01*
X164907841Y-76799536D01*
X165033282Y-76703282D01*
X165129536Y-76577841D01*
X165190044Y-76431762D01*
X165210682Y-76275000D01*
X165190044Y-76118238D01*
X165129536Y-75972159D01*
X165033282Y-75846718D01*
X164907841Y-75750464D01*
X164761762Y-75689956D01*
X164605000Y-75669318D01*
X164448238Y-75689956D01*
X164302159Y-75750464D01*
X164176718Y-75846718D01*
X164080464Y-75972159D01*
X164019956Y-76118238D01*
X163999318Y-76275000D01*
X136170000Y-76275000D01*
X136170000Y-75305000D01*
X142251818Y-75305000D01*
X142272456Y-75461762D01*
X142274940Y-75467759D01*
X142276237Y-75470891D01*
X142332964Y-75607841D01*
X142429218Y-75733282D01*
X142554659Y-75829536D01*
X142700738Y-75890044D01*
X142857500Y-75910682D01*
X143014262Y-75890044D01*
X143160341Y-75829536D01*
X143285782Y-75733282D01*
X143382036Y-75607841D01*
X143438763Y-75470891D01*
X143440060Y-75467759D01*
X143442544Y-75461762D01*
X143450017Y-75405000D01*
X156871818Y-75405000D01*
X156892456Y-75561762D01*
X156952964Y-75707841D01*
X157049218Y-75833282D01*
X157174659Y-75929536D01*
X157320738Y-75990044D01*
X157477500Y-76010682D01*
X157634262Y-75990044D01*
X157780341Y-75929536D01*
X157905782Y-75833282D01*
X158002036Y-75707841D01*
X158062544Y-75561762D01*
X158083182Y-75405000D01*
X158062544Y-75248238D01*
X158002036Y-75102159D01*
X157905782Y-74976718D01*
X157780341Y-74880464D01*
X157718866Y-74855000D01*
X161601818Y-74855000D01*
X161622456Y-75011762D01*
X161682964Y-75157841D01*
X161779218Y-75283282D01*
X161904659Y-75379536D01*
X162050738Y-75440044D01*
X162207500Y-75460682D01*
X162364262Y-75440044D01*
X162510341Y-75379536D01*
X162635782Y-75283282D01*
X162732036Y-75157841D01*
X162792544Y-75011762D01*
X162809232Y-74885000D01*
X170159318Y-74885000D01*
X170179956Y-75041762D01*
X170240464Y-75187841D01*
X170336718Y-75313282D01*
X170462159Y-75409536D01*
X170529815Y-75437560D01*
X170588244Y-75461762D01*
X170608238Y-75470044D01*
X170765000Y-75490682D01*
X170921762Y-75470044D01*
X170941757Y-75461762D01*
X171000185Y-75437560D01*
X171067841Y-75409536D01*
X171193282Y-75313282D01*
X171289536Y-75187841D01*
X171350044Y-75041762D01*
X171370682Y-74885000D01*
X171350044Y-74728238D01*
X171346614Y-74719956D01*
X171292019Y-74588154D01*
X171289536Y-74582159D01*
X171193282Y-74456718D01*
X171067841Y-74360464D01*
X170921762Y-74299956D01*
X170765000Y-74279318D01*
X170608238Y-74299956D01*
X170462159Y-74360464D01*
X170336718Y-74456718D01*
X170240464Y-74582159D01*
X170237981Y-74588154D01*
X170183387Y-74719956D01*
X170179956Y-74728238D01*
X170159318Y-74885000D01*
X162809232Y-74885000D01*
X162813182Y-74855000D01*
X162792544Y-74698238D01*
X162732036Y-74552159D01*
X162635782Y-74426718D01*
X162510341Y-74330464D01*
X162364262Y-74269956D01*
X162207500Y-74249318D01*
X162050738Y-74269956D01*
X161904659Y-74330464D01*
X161779218Y-74426718D01*
X161682964Y-74552159D01*
X161622456Y-74698238D01*
X161601818Y-74855000D01*
X157718866Y-74855000D01*
X157634262Y-74819956D01*
X157477500Y-74799318D01*
X157320738Y-74819956D01*
X157174659Y-74880464D01*
X157049218Y-74976718D01*
X156952964Y-75102159D01*
X156892456Y-75248238D01*
X156871818Y-75405000D01*
X143450017Y-75405000D01*
X143463182Y-75305000D01*
X143442544Y-75148238D01*
X143382036Y-75002159D01*
X143285782Y-74876718D01*
X143160341Y-74780464D01*
X143042546Y-74731671D01*
X143020259Y-74722440D01*
X143014262Y-74719956D01*
X142857500Y-74699318D01*
X142700738Y-74719956D01*
X142694741Y-74722440D01*
X142672454Y-74731671D01*
X142554659Y-74780464D01*
X142429218Y-74876718D01*
X142332964Y-75002159D01*
X142272456Y-75148238D01*
X142251818Y-75305000D01*
X136170000Y-75305000D01*
X136170000Y-73955000D01*
X153451818Y-73955000D01*
X153472456Y-74111762D01*
X153532964Y-74257841D01*
X153629218Y-74383282D01*
X153754659Y-74479536D01*
X153900738Y-74540044D01*
X154057500Y-74560682D01*
X154214262Y-74540044D01*
X154360341Y-74479536D01*
X154485782Y-74383282D01*
X154582036Y-74257841D01*
X154642544Y-74111762D01*
X154663182Y-73955000D01*
X154642544Y-73798238D01*
X154582036Y-73652159D01*
X154485782Y-73526718D01*
X154360341Y-73430464D01*
X154214262Y-73369956D01*
X154057500Y-73349318D01*
X153900738Y-73369956D01*
X153754659Y-73430464D01*
X153629218Y-73526718D01*
X153532964Y-73652159D01*
X153472456Y-73798238D01*
X153451818Y-73955000D01*
X136170000Y-73955000D01*
X136170000Y-73280000D01*
X164394318Y-73280000D01*
X164414956Y-73436762D01*
X164475464Y-73582841D01*
X164571718Y-73708282D01*
X164697159Y-73804536D01*
X164843238Y-73865044D01*
X165000000Y-73885682D01*
X165156762Y-73865044D01*
X165302841Y-73804536D01*
X165428282Y-73708282D01*
X165524536Y-73582841D01*
X165585044Y-73436762D01*
X165605682Y-73280000D01*
X165585044Y-73123238D01*
X165526702Y-72982389D01*
X172671928Y-72982389D01*
X172692566Y-73139151D01*
X172753074Y-73285230D01*
X172849328Y-73410671D01*
X172974769Y-73506925D01*
X173120848Y-73567433D01*
X173277610Y-73588071D01*
X173434372Y-73567433D01*
X173580451Y-73506925D01*
X173705892Y-73410671D01*
X173802146Y-73285230D01*
X173862654Y-73139151D01*
X173883292Y-72982389D01*
X173862654Y-72825627D01*
X173802146Y-72679548D01*
X173705892Y-72554107D01*
X173580451Y-72457853D01*
X173434372Y-72397345D01*
X173277610Y-72376707D01*
X173120848Y-72397345D01*
X172974769Y-72457853D01*
X172849328Y-72554107D01*
X172753074Y-72679548D01*
X172692566Y-72825627D01*
X172671928Y-72982389D01*
X165526702Y-72982389D01*
X165524536Y-72977159D01*
X165428282Y-72851718D01*
X165302841Y-72755464D01*
X165156762Y-72694956D01*
X165000000Y-72674318D01*
X164843238Y-72694956D01*
X164697159Y-72755464D01*
X164571718Y-72851718D01*
X164475464Y-72977159D01*
X164414956Y-73123238D01*
X164394318Y-73280000D01*
X136170000Y-73280000D01*
X136170000Y-72605000D01*
X140601818Y-72605000D01*
X140622456Y-72761762D01*
X140682964Y-72907841D01*
X140779218Y-73033282D01*
X140904659Y-73129536D01*
X141050738Y-73190044D01*
X141207500Y-73210682D01*
X141364262Y-73190044D01*
X141510341Y-73129536D01*
X141635782Y-73033282D01*
X141732036Y-72907841D01*
X141792544Y-72761762D01*
X141813182Y-72605000D01*
X141800017Y-72505000D01*
X145181818Y-72505000D01*
X145202456Y-72661762D01*
X145262964Y-72807841D01*
X145359218Y-72933282D01*
X145484659Y-73029536D01*
X145630738Y-73090044D01*
X145787500Y-73110682D01*
X145944262Y-73090044D01*
X146090341Y-73029536D01*
X146215782Y-72933282D01*
X146312036Y-72807841D01*
X146372544Y-72661762D01*
X146393182Y-72505000D01*
X146372544Y-72348238D01*
X146313213Y-72205000D01*
X157361818Y-72205000D01*
X157382456Y-72361762D01*
X157442964Y-72507841D01*
X157539218Y-72633282D01*
X157664659Y-72729536D01*
X157810738Y-72790044D01*
X157967500Y-72810682D01*
X158124262Y-72790044D01*
X158270341Y-72729536D01*
X158395782Y-72633282D01*
X158492036Y-72507841D01*
X158552544Y-72361762D01*
X158573182Y-72205000D01*
X158552544Y-72048238D01*
X158548141Y-72037607D01*
X158524471Y-71980464D01*
X158492036Y-71902159D01*
X158395782Y-71776718D01*
X158270341Y-71680464D01*
X158124262Y-71619956D01*
X157967500Y-71599318D01*
X157810738Y-71619956D01*
X157664659Y-71680464D01*
X157539218Y-71776718D01*
X157442964Y-71902159D01*
X157410529Y-71980464D01*
X157386860Y-72037607D01*
X157382456Y-72048238D01*
X157361818Y-72205000D01*
X146313213Y-72205000D01*
X146312036Y-72202159D01*
X146215782Y-72076718D01*
X146090341Y-71980464D01*
X145944262Y-71919956D01*
X145787500Y-71899318D01*
X145630738Y-71919956D01*
X145484659Y-71980464D01*
X145359218Y-72076718D01*
X145262964Y-72202159D01*
X145202456Y-72348238D01*
X145181818Y-72505000D01*
X141800017Y-72505000D01*
X141792544Y-72448238D01*
X141732036Y-72302159D01*
X141635782Y-72176718D01*
X141510341Y-72080464D01*
X141364262Y-72019956D01*
X141207500Y-71999318D01*
X141050738Y-72019956D01*
X140904659Y-72080464D01*
X140779218Y-72176718D01*
X140682964Y-72302159D01*
X140622456Y-72448238D01*
X140601818Y-72605000D01*
X136170000Y-72605000D01*
X136170000Y-70912611D01*
X139744394Y-70912611D01*
X139745049Y-70918544D01*
X139745049Y-70918548D01*
X139760518Y-71058660D01*
X139762999Y-71081135D01*
X139821266Y-71240356D01*
X139824591Y-71245305D01*
X139824592Y-71245306D01*
X139837689Y-71264796D01*
X139915830Y-71381083D01*
X140041233Y-71495191D01*
X140190235Y-71576092D01*
X140225189Y-71585262D01*
X140348464Y-71617603D01*
X140348468Y-71617604D01*
X140354233Y-71619116D01*
X140360194Y-71619210D01*
X140360197Y-71619210D01*
X140438965Y-71620447D01*
X140523760Y-71621779D01*
X140529575Y-71620447D01*
X140529577Y-71620447D01*
X140683206Y-71585262D01*
X140683209Y-71585261D01*
X140689029Y-71583928D01*
X140704610Y-71576092D01*
X140835165Y-71510429D01*
X140840498Y-71507747D01*
X140845035Y-71503872D01*
X140845038Y-71503870D01*
X140964888Y-71401508D01*
X140964891Y-71401505D01*
X140969423Y-71397634D01*
X140997952Y-71357932D01*
X141064877Y-71264796D01*
X141064878Y-71264794D01*
X141068361Y-71259947D01*
X141077004Y-71238449D01*
X141129377Y-71108167D01*
X141129378Y-71108165D01*
X141131601Y-71102634D01*
X141132442Y-71096727D01*
X141155034Y-70937985D01*
X141155034Y-70937979D01*
X141155490Y-70934778D01*
X141155645Y-70920000D01*
X141141236Y-70800927D01*
X141135993Y-70757602D01*
X141135992Y-70757599D01*
X141135276Y-70751680D01*
X141075345Y-70593077D01*
X141059485Y-70570000D01*
X143634318Y-70570000D01*
X143654956Y-70726762D01*
X143715464Y-70872841D01*
X143811718Y-70998282D01*
X143937159Y-71094536D01*
X144083238Y-71155044D01*
X144240000Y-71175682D01*
X144396762Y-71155044D01*
X144542841Y-71094536D01*
X144668282Y-70998282D01*
X144764536Y-70872841D01*
X144807134Y-70770000D01*
X150794318Y-70770000D01*
X150814956Y-70926762D01*
X150875464Y-71072841D01*
X150971718Y-71198282D01*
X151097159Y-71294536D01*
X151243238Y-71355044D01*
X151400000Y-71375682D01*
X151423319Y-71372612D01*
X163204394Y-71372612D01*
X163205049Y-71378545D01*
X163205049Y-71378549D01*
X163222344Y-71535205D01*
X163222999Y-71541136D01*
X163281266Y-71700357D01*
X163284591Y-71705306D01*
X163284592Y-71705307D01*
X163297689Y-71724797D01*
X163375830Y-71841084D01*
X163501233Y-71955192D01*
X163650235Y-72036093D01*
X163685189Y-72045263D01*
X163808464Y-72077604D01*
X163808468Y-72077605D01*
X163814233Y-72079117D01*
X163820194Y-72079211D01*
X163820197Y-72079211D01*
X163898996Y-72080448D01*
X163983760Y-72081780D01*
X163989575Y-72080448D01*
X163989577Y-72080448D01*
X164143206Y-72045263D01*
X164143209Y-72045262D01*
X164149029Y-72043929D01*
X164164610Y-72036093D01*
X164295165Y-71970430D01*
X164300498Y-71967748D01*
X164305035Y-71963873D01*
X164305038Y-71963871D01*
X164424888Y-71861509D01*
X164424891Y-71861506D01*
X164429423Y-71857635D01*
X164528361Y-71719948D01*
X164542646Y-71684415D01*
X164589377Y-71568168D01*
X164589378Y-71568166D01*
X164591601Y-71562635D01*
X164599413Y-71507747D01*
X164615034Y-71397986D01*
X164615034Y-71397980D01*
X164615490Y-71394779D01*
X164615645Y-71380001D01*
X164598746Y-71240356D01*
X164595993Y-71217603D01*
X164595992Y-71217600D01*
X164595276Y-71211681D01*
X164535345Y-71053078D01*
X164457051Y-70939160D01*
X164439673Y-70880495D01*
X164460097Y-70822819D01*
X164489275Y-70800430D01*
X164488231Y-70798868D01*
X164546442Y-70759972D01*
X164554552Y-70754553D01*
X164566344Y-70736906D01*
X169922190Y-70736906D01*
X169940494Y-70911051D01*
X169996924Y-71076813D01*
X169999822Y-71081523D01*
X169999824Y-71081528D01*
X170068482Y-71193129D01*
X170088676Y-71225954D01*
X170092543Y-71229903D01*
X170092544Y-71229904D01*
X170107627Y-71245306D01*
X170211190Y-71351061D01*
X170358376Y-71445916D01*
X170522920Y-71505805D01*
X170658157Y-71522889D01*
X170751641Y-71522889D01*
X170775624Y-71520199D01*
X170876126Y-71508926D01*
X170876130Y-71508925D01*
X170881623Y-71508309D01*
X170886844Y-71506491D01*
X170886848Y-71506490D01*
X170994377Y-71469044D01*
X171046987Y-71450723D01*
X171131384Y-71397986D01*
X171190794Y-71360863D01*
X171190796Y-71360861D01*
X171195484Y-71357932D01*
X171199407Y-71354037D01*
X171199410Y-71354034D01*
X171315804Y-71238449D01*
X171315805Y-71238447D01*
X171319732Y-71234548D01*
X171325186Y-71225954D01*
X171410592Y-71091377D01*
X171410593Y-71091375D01*
X171413558Y-71086703D01*
X171472297Y-70921745D01*
X171473387Y-70912611D01*
X171492375Y-70753368D01*
X171492375Y-70753365D01*
X171493030Y-70747872D01*
X171491877Y-70736906D01*
X172922190Y-70736906D01*
X172940494Y-70911051D01*
X172996924Y-71076813D01*
X172999822Y-71081523D01*
X172999824Y-71081528D01*
X173068482Y-71193129D01*
X173088676Y-71225954D01*
X173092543Y-71229903D01*
X173092544Y-71229904D01*
X173107627Y-71245306D01*
X173211190Y-71351061D01*
X173358376Y-71445916D01*
X173522920Y-71505805D01*
X173658157Y-71522889D01*
X173751641Y-71522889D01*
X173775624Y-71520199D01*
X173876126Y-71508926D01*
X173876130Y-71508925D01*
X173881623Y-71508309D01*
X173886844Y-71506491D01*
X173886848Y-71506490D01*
X173994377Y-71469044D01*
X174046987Y-71450723D01*
X174131384Y-71397986D01*
X174190794Y-71360863D01*
X174190796Y-71360861D01*
X174195484Y-71357932D01*
X174199407Y-71354037D01*
X174199410Y-71354034D01*
X174315804Y-71238449D01*
X174315805Y-71238447D01*
X174319732Y-71234548D01*
X174325186Y-71225954D01*
X174410592Y-71091377D01*
X174410593Y-71091375D01*
X174413558Y-71086703D01*
X174472297Y-70921745D01*
X174473387Y-70912611D01*
X174492375Y-70753368D01*
X174492375Y-70753365D01*
X174493030Y-70747872D01*
X174474726Y-70573727D01*
X174418296Y-70407965D01*
X174415398Y-70403255D01*
X174415396Y-70403250D01*
X174329441Y-70263533D01*
X174326544Y-70258824D01*
X174204030Y-70133717D01*
X174056844Y-70038862D01*
X173892300Y-69978973D01*
X173757063Y-69961889D01*
X173663579Y-69961889D01*
X173655092Y-69962841D01*
X173539094Y-69975852D01*
X173539090Y-69975853D01*
X173533597Y-69976469D01*
X173528376Y-69978287D01*
X173528372Y-69978288D01*
X173437783Y-70009835D01*
X173368233Y-70034055D01*
X173349975Y-70045464D01*
X173224426Y-70123915D01*
X173224424Y-70123917D01*
X173219736Y-70126846D01*
X173215813Y-70130741D01*
X173215810Y-70130744D01*
X173100710Y-70245044D01*
X173095488Y-70250230D01*
X173092522Y-70254904D01*
X173092521Y-70254905D01*
X173018490Y-70371559D01*
X173001662Y-70398075D01*
X172942923Y-70563033D01*
X172942269Y-70568520D01*
X172942268Y-70568523D01*
X172922845Y-70731410D01*
X172922190Y-70736906D01*
X171491877Y-70736906D01*
X171474726Y-70573727D01*
X171418296Y-70407965D01*
X171415398Y-70403255D01*
X171415396Y-70403250D01*
X171329441Y-70263533D01*
X171326544Y-70258824D01*
X171204030Y-70133717D01*
X171056844Y-70038862D01*
X170892300Y-69978973D01*
X170757063Y-69961889D01*
X170663579Y-69961889D01*
X170655092Y-69962841D01*
X170539094Y-69975852D01*
X170539090Y-69975853D01*
X170533597Y-69976469D01*
X170528376Y-69978287D01*
X170528372Y-69978288D01*
X170437783Y-70009835D01*
X170368233Y-70034055D01*
X170349975Y-70045464D01*
X170224426Y-70123915D01*
X170224424Y-70123917D01*
X170219736Y-70126846D01*
X170215813Y-70130741D01*
X170215810Y-70130744D01*
X170100710Y-70245044D01*
X170095488Y-70250230D01*
X170092522Y-70254904D01*
X170092521Y-70254905D01*
X170018490Y-70371559D01*
X170001662Y-70398075D01*
X169942923Y-70563033D01*
X169942269Y-70568520D01*
X169942268Y-70568523D01*
X169922845Y-70731410D01*
X169922190Y-70736906D01*
X164566344Y-70736906D01*
X164598867Y-70688232D01*
X164610500Y-70629749D01*
X164610500Y-69590253D01*
X164598867Y-69531770D01*
X164554552Y-69465449D01*
X164488231Y-69421134D01*
X164478668Y-69419232D01*
X164478666Y-69419231D01*
X164455995Y-69414722D01*
X164429748Y-69409501D01*
X163390252Y-69409501D01*
X163364005Y-69414722D01*
X163341334Y-69419231D01*
X163341332Y-69419232D01*
X163331769Y-69421134D01*
X163265448Y-69465449D01*
X163221133Y-69531770D01*
X163209500Y-69590253D01*
X163209500Y-70629749D01*
X163221133Y-70688232D01*
X163265448Y-70754553D01*
X163273558Y-70759972D01*
X163331769Y-70798868D01*
X163330393Y-70800927D01*
X163366260Y-70831560D01*
X163380544Y-70891055D01*
X163362846Y-70940213D01*
X163288113Y-71046548D01*
X163285945Y-71052109D01*
X163245482Y-71155891D01*
X163226524Y-71204514D01*
X163225745Y-71210429D01*
X163225745Y-71210430D01*
X163223181Y-71229904D01*
X163204394Y-71372612D01*
X151423319Y-71372612D01*
X151556762Y-71355044D01*
X151702841Y-71294536D01*
X151828282Y-71198282D01*
X151924536Y-71072841D01*
X151985044Y-70926762D01*
X152005682Y-70770000D01*
X151985044Y-70613238D01*
X151924536Y-70467159D01*
X151828282Y-70341718D01*
X151702841Y-70245464D01*
X151556762Y-70184956D01*
X151400000Y-70164318D01*
X151243238Y-70184956D01*
X151097159Y-70245464D01*
X150971718Y-70341718D01*
X150875464Y-70467159D01*
X150814956Y-70613238D01*
X150794318Y-70770000D01*
X144807134Y-70770000D01*
X144825044Y-70726762D01*
X144845682Y-70570000D01*
X144825044Y-70413238D01*
X144764536Y-70267159D01*
X144668282Y-70141718D01*
X144542841Y-70045464D01*
X144411090Y-69990891D01*
X144402759Y-69987440D01*
X144396762Y-69984956D01*
X144240000Y-69964318D01*
X144083238Y-69984956D01*
X144077241Y-69987440D01*
X144068910Y-69990891D01*
X143937159Y-70045464D01*
X143811718Y-70141718D01*
X143715464Y-70267159D01*
X143654956Y-70413238D01*
X143634318Y-70570000D01*
X141059485Y-70570000D01*
X141058470Y-70568523D01*
X140997051Y-70479159D01*
X140979673Y-70420494D01*
X141000097Y-70362818D01*
X141029275Y-70340429D01*
X141028231Y-70338867D01*
X141086442Y-70299971D01*
X141094552Y-70294552D01*
X141138867Y-70228231D01*
X141150500Y-70169748D01*
X141150500Y-69660000D01*
X142344318Y-69660000D01*
X142364956Y-69816762D01*
X142425464Y-69962841D01*
X142521718Y-70088282D01*
X142647159Y-70184536D01*
X142793238Y-70245044D01*
X142922108Y-70262010D01*
X142933677Y-70263533D01*
X142950000Y-70265682D01*
X142966324Y-70263533D01*
X142977892Y-70262010D01*
X143106762Y-70245044D01*
X143252841Y-70184536D01*
X143378282Y-70088282D01*
X143474536Y-69962841D01*
X143535044Y-69816762D01*
X143555682Y-69660000D01*
X143535044Y-69503238D01*
X143494352Y-69405000D01*
X149451818Y-69405000D01*
X149472456Y-69561762D01*
X149532964Y-69707841D01*
X149629218Y-69833282D01*
X149754659Y-69929536D01*
X149835064Y-69962841D01*
X149888455Y-69984956D01*
X149900738Y-69990044D01*
X150057500Y-70010682D01*
X150214262Y-69990044D01*
X150226546Y-69984956D01*
X150279936Y-69962841D01*
X150360341Y-69929536D01*
X150485782Y-69833282D01*
X150582036Y-69707841D01*
X150642544Y-69561762D01*
X150663182Y-69405000D01*
X150642544Y-69248238D01*
X150582036Y-69102159D01*
X150580379Y-69100000D01*
X151694318Y-69100000D01*
X151714956Y-69256762D01*
X151775464Y-69402841D01*
X151871718Y-69528282D01*
X151997159Y-69624536D01*
X152143238Y-69685044D01*
X152300000Y-69705682D01*
X152456762Y-69685044D01*
X152602841Y-69624536D01*
X152728282Y-69528282D01*
X152824536Y-69402841D01*
X152885044Y-69256762D01*
X152905682Y-69100000D01*
X152885044Y-68943238D01*
X152824536Y-68797159D01*
X152728282Y-68671718D01*
X152602841Y-68575464D01*
X152456762Y-68514956D01*
X152300000Y-68494318D01*
X152143238Y-68514956D01*
X151997159Y-68575464D01*
X151871718Y-68671718D01*
X151775464Y-68797159D01*
X151714956Y-68943238D01*
X151694318Y-69100000D01*
X150580379Y-69100000D01*
X150485782Y-68976718D01*
X150360341Y-68880464D01*
X150214262Y-68819956D01*
X150057500Y-68799318D01*
X149900738Y-68819956D01*
X149754659Y-68880464D01*
X149629218Y-68976718D01*
X149532964Y-69102159D01*
X149472456Y-69248238D01*
X149451818Y-69405000D01*
X143494352Y-69405000D01*
X143474536Y-69357159D01*
X143378282Y-69231718D01*
X143252841Y-69135464D01*
X143106762Y-69074956D01*
X142950000Y-69054318D01*
X142793238Y-69074956D01*
X142647159Y-69135464D01*
X142521718Y-69231718D01*
X142425464Y-69357159D01*
X142364956Y-69503238D01*
X142344318Y-69660000D01*
X141150500Y-69660000D01*
X141150500Y-69130252D01*
X141144912Y-69102159D01*
X141140770Y-69081334D01*
X141140769Y-69081332D01*
X141138867Y-69071769D01*
X141094552Y-69005448D01*
X141028231Y-68961133D01*
X141018668Y-68959231D01*
X141018666Y-68959230D01*
X140995995Y-68954721D01*
X140969748Y-68949500D01*
X139930252Y-68949500D01*
X139904005Y-68954721D01*
X139881334Y-68959230D01*
X139881332Y-68959231D01*
X139871769Y-68961133D01*
X139805448Y-69005448D01*
X139761133Y-69071769D01*
X139759231Y-69081332D01*
X139759230Y-69081334D01*
X139755088Y-69102159D01*
X139749500Y-69130252D01*
X139749500Y-70169748D01*
X139761133Y-70228231D01*
X139805448Y-70294552D01*
X139813558Y-70299971D01*
X139871769Y-70338867D01*
X139870393Y-70340926D01*
X139906260Y-70371559D01*
X139920544Y-70431054D01*
X139902846Y-70480212D01*
X139833255Y-70579231D01*
X139828113Y-70586547D01*
X139766524Y-70744513D01*
X139744394Y-70912611D01*
X136170000Y-70912611D01*
X136170000Y-68069752D01*
X136171902Y-68050439D01*
X136185188Y-67983644D01*
X136199970Y-67947956D01*
X136232282Y-67899597D01*
X136259597Y-67872282D01*
X136307956Y-67839970D01*
X136343644Y-67825188D01*
X136410439Y-67811902D01*
X136429752Y-67810000D01*
X184840248Y-67810000D01*
X184859561Y-67811902D01*
G37*
%TD.AperFunction*%
%TD*%
M02*
