M48
; DRILL file {KiCad (6.0.8)} date Sat Oct 15 22:51:15 2022
; FORMAT={-:-/ absolute / inch / decimal}
; #@! TF.CreationDate,2022-10-15T22:51:15+02:00
; #@! TF.GenerationSoftware,Kicad,Pcbnew,(6.0.8)
; #@! TF.FileFunction,Plated,1,4,PTH
FMAT,2
INCH
; #@! TA.AperFunction,Plated,PTH,ViaDrill
T1C0.0157
; #@! TA.AperFunction,Plated,PTH,ComponentDrill
T2C0.0394
%
G90
G05
T1
X5.002Y-3.3642
X5.0709Y-3.4764
X5.0768Y-3.7106
X5.1083Y-3.1673
X5.1091Y-2.7028
X5.1732Y-3.2736
X5.2323Y-3.8209
X5.2331Y-3.9346
X5.2402Y-3.0768
X5.2461Y-3.2323
X5.248Y-3.4488
X5.2835Y-3.5236
X5.2854Y-3.1575
X5.3445Y-3.0295
X5.4035Y-3.0374
X5.4217Y-2.7028
X5.4272Y-3.6909
X5.4311Y-3.3563
X5.4685Y-3.0413
X5.5374Y-3.6909
X5.5618Y-3.7969
X5.5878Y-3.0701
X5.7323Y-3.7264
X5.811Y-3.6909
X5.8157Y-3.7953
X5.878Y-3.4154
X5.9114Y-3.1791
X5.9469Y-3.2559
X5.9547Y-3.5965
X5.9587Y-4.0256
X5.9587Y-4.061
X5.9941Y-4.0256
X5.9941Y-4.061
X6.0453Y-3.5528
X6.0709Y-3.878
X6.0776Y-3.2161
X6.1102Y-3.878
X6.113Y-3.287
X6.1437Y-3.7925
X6.1713Y-3.8799
X6.2106Y-3.8799
X6.2126Y-3.685
X6.2146Y-3.748
X6.248Y-3.685
X6.3031Y-3.7618
X6.3378Y-3.5154
X6.3386Y-3.7618
X6.374Y-3.7618
X6.3953Y-3.5528
X6.4094Y-3.7618
X6.4469Y-3.7618
X6.4516Y-3.161
X6.4965Y-3.8287
X6.5004Y-3.3299
X6.5176Y-3.1382
X6.5236Y-3.4169
X6.5339Y-3.8287
X6.5732Y-3.8287
X6.6181Y-3.6398
X6.6732Y-3.6398
X6.765Y-3.4157
X6.8264Y-3.4154
X7.0079Y-3.3978
X7.0748Y-3.3978
X7.1398Y-3.3978
X7.2047Y-3.3978
T2
X5.439Y-4.0441
X5.539Y-4.0441
X5.639Y-4.0441
X5.7348Y-2.7557
X5.7348Y-2.8557
X5.739Y-4.0441
X5.8348Y-2.7557
X5.8348Y-2.8557
X5.9348Y-2.7557
X5.9348Y-2.8557
X6.0348Y-2.7557
X6.0348Y-2.8557
X6.1348Y-2.7557
X6.1348Y-2.8557
T0
M30
