%TF.GenerationSoftware,KiCad,Pcbnew,(6.0.8)*%
%TF.CreationDate,2022-10-15T22:51:14+02:00*%
%TF.ProjectId,stm_v3,73746d5f-7633-42e6-9b69-6361645f7063,rev?*%
%TF.SameCoordinates,Original*%
%TF.FileFunction,Copper,L4,Bot*%
%TF.FilePolarity,Positive*%
%FSLAX46Y46*%
G04 Gerber Fmt 4.6, Leading zero omitted, Abs format (unit mm)*
G04 Created by KiCad (PCBNEW (6.0.8)) date 2022-10-15 22:51:14*
%MOMM*%
%LPD*%
G01*
G04 APERTURE LIST*
G04 Aperture macros list*
%AMFreePoly0*
4,1,17,-0.950000,3.025000,-0.941586,3.114006,-0.894789,3.247267,-0.810876,3.360876,-0.697267,3.444789,-0.564006,3.491586,-0.475000,3.500000,0.475000,3.500000,0.564006,3.491586,0.697267,3.444789,0.810876,3.360876,0.894789,3.247267,0.941586,3.114006,0.950000,3.025000,0.950000,-3.500000,-0.950000,-3.500000,-0.950000,3.025000,-0.950000,3.025000,$1*%
G04 Aperture macros list end*
%TA.AperFunction,ConnectorPad*%
%ADD10FreePoly0,90.000000*%
%TD*%
%TA.AperFunction,ComponentPad*%
%ADD11R,1.700000X1.700000*%
%TD*%
%TA.AperFunction,ComponentPad*%
%ADD12O,1.700000X1.700000*%
%TD*%
%TA.AperFunction,ViaPad*%
%ADD13C,0.800000*%
%TD*%
%TA.AperFunction,Conductor*%
%ADD14C,0.300000*%
%TD*%
%TA.AperFunction,Conductor*%
%ADD15C,0.500000*%
%TD*%
%TA.AperFunction,Conductor*%
%ADD16C,1.000000*%
%TD*%
G04 APERTURE END LIST*
D10*
%TO.P,J3,9,NC*%
%TO.N,unconnected-(J3-Pad9)*%
X180900000Y-70905000D03*
%TO.P,J3,10,J1850_BUS-*%
%TO.N,unconnected-(J3-Pad10)*%
X180900000Y-75305000D03*
%TO.P,J3,11,NC*%
%TO.N,unconnected-(J3-Pad11)*%
X180900000Y-79705000D03*
%TO.P,J3,12,NC*%
%TO.N,unconnected-(J3-Pad12)*%
X180900000Y-84105000D03*
%TO.P,J3,13,NC*%
%TO.N,unconnected-(J3-Pad13)*%
X180900000Y-88505000D03*
%TO.P,J3,14,CAN_L*%
%TO.N,CAN_L*%
X180900000Y-92905000D03*
%TO.P,J3,15,L_Line*%
%TO.N,ISO_L*%
X180900000Y-97305000D03*
%TO.P,J3,16,+12*%
%TO.N,+12V*%
X180900000Y-101705000D03*
%TD*%
D11*
%TO.P,J2,1,Pin_1*%
%TO.N,/SDA*%
X145770000Y-102720000D03*
D12*
%TO.P,J2,2,Pin_2*%
%TO.N,/SCL*%
X143230000Y-102720000D03*
%TO.P,J2,3,Pin_3*%
%TO.N,+3.3V*%
X140690000Y-102720000D03*
%TO.P,J2,4,Pin_4*%
%TO.N,GND*%
X138150000Y-102720000D03*
%TD*%
%TO.P,J1,10,Pin_10*%
%TO.N,/N_RST*%
X145665000Y-72535000D03*
%TO.P,J1,9,Pin_9*%
%TO.N,GND*%
X145665000Y-69995000D03*
%TO.P,J1,8,Pin_8*%
%TO.N,unconnected-(J1-Pad8)*%
X148205000Y-72535000D03*
%TO.P,J1,7,Pin_7*%
%TO.N,unconnected-(J1-Pad7)*%
X148205000Y-69995000D03*
%TO.P,J1,6,Pin_6*%
%TO.N,/SW_O*%
X150745000Y-72535000D03*
%TO.P,J1,5,Pin_5*%
%TO.N,GND*%
X150745000Y-69995000D03*
%TO.P,J1,4,Pin_4*%
%TO.N,/SW_CLK*%
X153285000Y-72535000D03*
%TO.P,J1,3,Pin_3*%
%TO.N,GND*%
X153285000Y-69995000D03*
%TO.P,J1,2,Pin_2*%
%TO.N,/SW_DIO*%
X155825000Y-72535000D03*
D11*
%TO.P,J1,1,Pin_1*%
%TO.N,+3.3V*%
X155825000Y-69995000D03*
%TD*%
D13*
%TO.N,GND*%
X165700000Y-86790000D03*
X162440000Y-90240000D03*
%TO.N,ISO_L*%
X160980000Y-89290000D03*
%TO.N,GND*%
X153550000Y-90240000D03*
%TO.N,NRST*%
X141930000Y-77980000D03*
%TO.N,+3.3V*%
X147720000Y-96400000D03*
X147600000Y-93750000D03*
X140650000Y-93750000D03*
X150150000Y-80750000D03*
X129770000Y-68650000D03*
X152250000Y-102250000D03*
X134200000Y-89500000D03*
X133250000Y-82100000D03*
X152250000Y-103150000D03*
X151350000Y-103150000D03*
X151350000Y-102250000D03*
X155270000Y-83490000D03*
X135750000Y-76950000D03*
X137250000Y-77150000D03*
X141270000Y-96440000D03*
%TO.N,GND*%
X173390000Y-86750000D03*
X154370000Y-81690000D03*
X165546250Y-79710000D03*
X151250000Y-91350000D03*
X134250000Y-80200000D03*
X128800000Y-88300000D03*
X156750000Y-98550000D03*
X160100000Y-95550000D03*
X157850000Y-95200000D03*
X163750000Y-95550000D03*
X128950000Y-94250000D03*
X129750000Y-80450000D03*
X137850000Y-93750000D03*
X151050000Y-82700000D03*
X181350000Y-86305000D03*
X145600000Y-94650000D03*
X132900000Y-97050000D03*
X162800000Y-95550000D03*
X157750000Y-98550000D03*
X154200000Y-98500000D03*
X132920000Y-99940000D03*
X131400000Y-83150000D03*
X161900000Y-95550000D03*
X178000000Y-86305000D03*
X183000000Y-86305000D03*
X133100000Y-78150000D03*
X137710000Y-68650000D03*
X133300000Y-87600000D03*
X155200000Y-98500000D03*
X179700000Y-86305000D03*
X127050000Y-85450000D03*
X138900000Y-77250000D03*
X161000000Y-95550000D03*
X165110000Y-84580000D03*
%TO.N,NRST*%
X137950000Y-85250000D03*
%TO.N,+12V*%
X169500000Y-92450000D03*
X168100000Y-92450000D03*
%TO.N,CAN_L*%
X171830000Y-86760000D03*
%TO.N,CAN_S*%
X163870000Y-80290000D03*
X149300000Y-86750000D03*
%TO.N,/Power Supply/SW*%
X157800000Y-93600000D03*
X165010000Y-97250000D03*
X156050000Y-96330000D03*
X158700000Y-93600000D03*
X165960000Y-97250000D03*
X166960000Y-97250000D03*
%TD*%
D14*
%TO.N,CAN_S*%
X160070000Y-83100000D02*
X160070000Y-80640000D01*
X158340000Y-84830000D02*
X160070000Y-83100000D01*
X151220000Y-84830000D02*
X158340000Y-84830000D01*
X160070000Y-80640000D02*
X160420000Y-80290000D01*
X160420000Y-80290000D02*
X163870000Y-80290000D01*
X149300000Y-86750000D02*
X151220000Y-84830000D01*
D15*
%TO.N,CAN_L*%
X171830000Y-87840000D02*
X171830000Y-86760000D01*
X176895000Y-92905000D02*
X171830000Y-87840000D01*
X180900000Y-92905000D02*
X176895000Y-92905000D01*
%TO.N,ISO_L*%
X174720000Y-96190000D02*
X175835000Y-97305000D01*
X174720000Y-94370000D02*
X174720000Y-96190000D01*
X169640000Y-89290000D02*
X174720000Y-94370000D01*
X175835000Y-97305000D02*
X180900000Y-97305000D01*
X160980000Y-89290000D02*
X169640000Y-89290000D01*
D14*
%TO.N,NRST*%
X141930000Y-83320000D02*
X141930000Y-77980000D01*
X140000000Y-85250000D02*
X141930000Y-83320000D01*
D16*
%TO.N,+12V*%
X169500000Y-92450000D02*
X172450000Y-95400000D01*
X172450000Y-95400000D02*
X172450000Y-99000000D01*
X172450000Y-99000000D02*
X175155000Y-101705000D01*
X175155000Y-101705000D02*
X180900000Y-101705000D01*
D14*
%TO.N,NRST*%
X140000000Y-85250000D02*
X137950000Y-85250000D01*
D16*
%TO.N,+12V*%
X169500000Y-92450000D02*
X168100000Y-92450000D01*
D15*
%TO.N,/Power Supply/SW*%
X158220000Y-96330000D02*
X156050000Y-96330000D01*
X158700000Y-93600000D02*
X158700000Y-95850000D01*
X158700000Y-95850000D02*
X158220000Y-96330000D01*
%TD*%
%TA.AperFunction,Conductor*%
%TO.N,/Power Supply/SW*%
G36*
X167229561Y-93151902D02*
G01*
X167296356Y-93165188D01*
X167332044Y-93179970D01*
X167380403Y-93212282D01*
X167407718Y-93239597D01*
X167440030Y-93287956D01*
X167454812Y-93323644D01*
X167468098Y-93390439D01*
X167470000Y-93409752D01*
X167470000Y-97700248D01*
X167468098Y-97719561D01*
X167454812Y-97786356D01*
X167440030Y-97822044D01*
X167407718Y-97870403D01*
X167380403Y-97897718D01*
X167332044Y-97930030D01*
X167296356Y-97944812D01*
X167229561Y-97958098D01*
X167210248Y-97960000D01*
X164699752Y-97960000D01*
X164680439Y-97958098D01*
X164613644Y-97944812D01*
X164577956Y-97930030D01*
X164529597Y-97897718D01*
X164502282Y-97870403D01*
X164469970Y-97822044D01*
X164455188Y-97786356D01*
X164441902Y-97719561D01*
X164440000Y-97700248D01*
X164440000Y-94000000D01*
X157559752Y-94000000D01*
X157540439Y-93998098D01*
X157473644Y-93984812D01*
X157437956Y-93970030D01*
X157389597Y-93937718D01*
X157362282Y-93910403D01*
X157329970Y-93862044D01*
X157315188Y-93826356D01*
X157301902Y-93759561D01*
X157300000Y-93740248D01*
X157300000Y-93409752D01*
X157301902Y-93390439D01*
X157315188Y-93323644D01*
X157329970Y-93287956D01*
X157362282Y-93239597D01*
X157389597Y-93212282D01*
X157437956Y-93179970D01*
X157473644Y-93165188D01*
X157540439Y-93151902D01*
X157559752Y-93150000D01*
X167210248Y-93150000D01*
X167229561Y-93151902D01*
G37*
%TD.AperFunction*%
%TD*%
M02*
