M48
; DRILL file {KiCad (6.0.8)} date Mon Oct 31 19:22:45 2022
; FORMAT={-:-/ absolute / inch / decimal}
; #@! TF.CreationDate,2022-10-31T19:22:45+01:00
; #@! TF.GenerationSoftware,Kicad,Pcbnew,(6.0.8)
; #@! TF.FileFunction,Plated,1,4,PTH
FMAT,2
INCH
; #@! TA.AperFunction,Plated,PTH,ViaDrill
T1C0.0157
; #@! TA.AperFunction,Plated,PTH,ComponentDrill
T2C0.0256
; #@! TA.AperFunction,Plated,PTH,ComponentDrill
T3C0.0394
%
G90
G05
T1
X5.4531Y-3.0553
X5.4763Y-3.1301
X5.587Y-3.424
X5.6106Y-2.8941
X5.6243Y-2.9648
X5.628Y-2.7425
X5.6701Y-2.8362
X5.6862Y-2.7787
X5.6873Y-3.14
X5.7003Y-2.9293
X5.7173Y-3.5722
X5.7173Y-3.7624
X5.7189Y-3.424
X5.7227Y-3.2148
X5.7397Y-2.8545
X5.7508Y-3.5171
X5.7906Y-2.7315
X5.8428Y-2.7285
X5.8664Y-3.3821
X5.9039Y-3.5335
X5.9078Y-2.7325
X5.9606Y-2.7862
X5.9767Y-3.3821
X5.9961Y-2.7205
X6.0456Y-3.2352
X6.0653Y-2.9116
X6.0862Y-3.5748
X6.148Y-3.553
X6.1716Y-3.4175
X6.1776Y-3.5045
X6.1932Y-3.0278
X6.1975Y-3.1069
X6.1999Y-2.9687
X6.2142Y-3.9825
X6.2142Y-4.0179
X6.215Y-3.9085
X6.215Y-3.9439
X6.2192Y-2.8427
X6.2503Y-3.3821
X6.276Y-3.8344
X6.2878Y-3.4604
X6.2994Y-2.7453
X6.3154Y-3.8344
X6.3256Y-3.7494
X6.3484Y-3.1812
X6.3492Y-3.4337
X6.3507Y-2.8695
X6.3764Y-3.8364
X6.3861Y-2.947
X6.3945Y-3.6419
X6.3965Y-3.7049
X6.4157Y-3.8364
X6.4299Y-3.6419
X6.4728Y-3.0268
X6.4748Y-3.2504
X6.4815Y-3.7187
X6.4973Y-2.905
X6.5083Y-3.098
X6.5169Y-3.7187
X6.5524Y-3.7187
X6.5878Y-3.7187
X6.6252Y-3.7187
X6.6272Y-3.3852
X6.6401Y-2.8949
X6.6598Y-3.2596
X6.6823Y-3.7411
X6.6823Y-3.786
X6.7154Y-2.972
X6.7217Y-3.7411
X6.7217Y-3.786
X6.7807Y-3.5947
X6.7807Y-3.6447
X6.7975Y-3.3825
X6.8232Y-2.8933
X6.8976Y-3.5203
X6.9079Y-3.4565
X6.9197Y-3.0683
X7.0547Y-3.3976
X7.1059Y-3.3976
X7.1551Y-3.3976
T2
X5.5295Y-2.7421
X5.5295Y-2.7921
X6.4545Y-2.7717
X6.4545Y-2.8217
T3
X5.5093Y-3.6244
X5.5093Y-3.7244
X5.5093Y-3.8244
X5.5093Y-3.9244
X5.5093Y-4.0244
X5.6093Y-3.6244
X5.6093Y-3.7244
X5.6093Y-3.8244
X5.6093Y-3.9244
X5.6093Y-4.0244
X5.9748Y-3.726
X5.9748Y-3.826
X5.9748Y-3.926
X5.9748Y-4.026
T0
M30
