%TF.GenerationSoftware,KiCad,Pcbnew,(6.0.8)*%
%TF.CreationDate,2022-10-15T22:51:14+02:00*%
%TF.ProjectId,stm_v3,73746d5f-7633-42e6-9b69-6361645f7063,rev?*%
%TF.SameCoordinates,Original*%
%TF.FileFunction,Copper,L3,Inr*%
%TF.FilePolarity,Positive*%
%FSLAX46Y46*%
G04 Gerber Fmt 4.6, Leading zero omitted, Abs format (unit mm)*
G04 Created by KiCad (PCBNEW (6.0.8)) date 2022-10-15 22:51:14*
%MOMM*%
%LPD*%
G01*
G04 APERTURE LIST*
%TA.AperFunction,ComponentPad*%
%ADD10R,1.700000X1.700000*%
%TD*%
%TA.AperFunction,ComponentPad*%
%ADD11O,1.700000X1.700000*%
%TD*%
%TA.AperFunction,ViaPad*%
%ADD12C,0.800000*%
%TD*%
G04 APERTURE END LIST*
D10*
%TO.N,/SDA*%
%TO.C,J2*%
X145770000Y-102720000D03*
D11*
%TO.N,/SCL*%
X143230000Y-102720000D03*
%TO.N,+3.3V*%
X140690000Y-102720000D03*
%TO.N,GND*%
X138150000Y-102720000D03*
%TD*%
%TO.N,/N_RST*%
%TO.C,J1*%
X145665000Y-72535000D03*
%TO.N,GND*%
X145665000Y-69995000D03*
%TO.N,unconnected-(J1-Pad8)*%
X148205000Y-72535000D03*
%TO.N,unconnected-(J1-Pad7)*%
X148205000Y-69995000D03*
%TO.N,/SW_O*%
X150745000Y-72535000D03*
%TO.N,GND*%
X150745000Y-69995000D03*
%TO.N,/SW_CLK*%
X153285000Y-72535000D03*
%TO.N,GND*%
X153285000Y-69995000D03*
%TO.N,/SW_DIO*%
X155825000Y-72535000D03*
D10*
%TO.N,+3.3V*%
X155825000Y-69995000D03*
%TD*%
D12*
%TO.N,GND*%
X165700000Y-86790000D03*
X162440000Y-90240000D03*
%TO.N,ISO_L*%
X160980000Y-89290000D03*
%TO.N,GND*%
X153550000Y-90240000D03*
%TO.N,NRST*%
X141930000Y-77980000D03*
%TO.N,+3.3V*%
X147720000Y-96400000D03*
X147600000Y-93750000D03*
X140650000Y-93750000D03*
X150150000Y-80750000D03*
X129770000Y-68650000D03*
X152250000Y-102250000D03*
X134200000Y-89500000D03*
X133250000Y-82100000D03*
X152250000Y-103150000D03*
X151350000Y-103150000D03*
X151350000Y-102250000D03*
X155270000Y-83490000D03*
X135750000Y-76950000D03*
X137250000Y-77150000D03*
X141270000Y-96440000D03*
%TO.N,GND*%
X173390000Y-86750000D03*
X154370000Y-81690000D03*
X165546250Y-79710000D03*
X151250000Y-91350000D03*
X134250000Y-80200000D03*
X128800000Y-88300000D03*
X156750000Y-98550000D03*
X160100000Y-95550000D03*
X157850000Y-95200000D03*
X163750000Y-95550000D03*
X128950000Y-94250000D03*
X129750000Y-80450000D03*
X137850000Y-93750000D03*
X151050000Y-82700000D03*
X181350000Y-86305000D03*
X145600000Y-94650000D03*
X132900000Y-97050000D03*
X162800000Y-95550000D03*
X157750000Y-98550000D03*
X154200000Y-98500000D03*
X132920000Y-99940000D03*
X131400000Y-83150000D03*
X161900000Y-95550000D03*
X178000000Y-86305000D03*
X183000000Y-86305000D03*
X133100000Y-78150000D03*
X137710000Y-68650000D03*
X133300000Y-87600000D03*
X155200000Y-98500000D03*
X179700000Y-86305000D03*
X127050000Y-85450000D03*
X138900000Y-77250000D03*
X161000000Y-95550000D03*
X165110000Y-84580000D03*
%TO.N,NRST*%
X137950000Y-85250000D03*
%TO.N,+12V*%
X169500000Y-92450000D03*
X168100000Y-92450000D03*
%TO.N,CAN_L*%
X171830000Y-86760000D03*
%TO.N,CAN_S*%
X163870000Y-80290000D03*
X149300000Y-86750000D03*
%TO.N,/Power Supply/SW*%
X157800000Y-93600000D03*
X165010000Y-97250000D03*
X156050000Y-96330000D03*
X158700000Y-93600000D03*
X165960000Y-97250000D03*
X166960000Y-97250000D03*
%TD*%
%TA.AperFunction,Conductor*%
%TO.N,+3.3V*%
G36*
X184859561Y-66301902D02*
G01*
X184926356Y-66315188D01*
X184962044Y-66329970D01*
X185010403Y-66362282D01*
X185037718Y-66389597D01*
X185070030Y-66437956D01*
X185084812Y-66473644D01*
X185098098Y-66540439D01*
X185100000Y-66559752D01*
X185100000Y-106040248D01*
X185098098Y-106059561D01*
X185084812Y-106126356D01*
X185070030Y-106162044D01*
X185037718Y-106210403D01*
X185010403Y-106237718D01*
X184962044Y-106270030D01*
X184926356Y-106284812D01*
X184859561Y-106298098D01*
X184840248Y-106300000D01*
X126359752Y-106300000D01*
X126340439Y-106298098D01*
X126273644Y-106284812D01*
X126237956Y-106270030D01*
X126189597Y-106237718D01*
X126162282Y-106210403D01*
X126129970Y-106162044D01*
X126115188Y-106126356D01*
X126101902Y-106059561D01*
X126100000Y-106040248D01*
X126100000Y-102705262D01*
X137094520Y-102705262D01*
X137111759Y-102910553D01*
X137168544Y-103108586D01*
X137262712Y-103291818D01*
X137390677Y-103453270D01*
X137394357Y-103456402D01*
X137394359Y-103456404D01*
X137507017Y-103552283D01*
X137547564Y-103586791D01*
X137551787Y-103589151D01*
X137551791Y-103589154D01*
X137595248Y-103613441D01*
X137727398Y-103687297D01*
X137731996Y-103688791D01*
X137918724Y-103749463D01*
X137918726Y-103749464D01*
X137923329Y-103750959D01*
X138127894Y-103775351D01*
X138132716Y-103774980D01*
X138132719Y-103774980D01*
X138203259Y-103769552D01*
X138333300Y-103759546D01*
X138531725Y-103704145D01*
X138536038Y-103701966D01*
X138536044Y-103701964D01*
X138711289Y-103613441D01*
X138711291Y-103613440D01*
X138715610Y-103611258D01*
X138743902Y-103589154D01*
X138874135Y-103487406D01*
X138874139Y-103487402D01*
X138877951Y-103484424D01*
X138881433Y-103480391D01*
X138937313Y-103415651D01*
X139012564Y-103328472D01*
X139031385Y-103295341D01*
X139097234Y-103179427D01*
X139745513Y-103179427D01*
X139800919Y-103287236D01*
X139806142Y-103295341D01*
X139928037Y-103449134D01*
X139934720Y-103456055D01*
X140084164Y-103583241D01*
X140092078Y-103588742D01*
X140226313Y-103663763D01*
X140237488Y-103665976D01*
X140240000Y-103661481D01*
X140240000Y-103653417D01*
X141140000Y-103653417D01*
X141143521Y-103664252D01*
X141149591Y-103664252D01*
X141251020Y-103613017D01*
X141259155Y-103607854D01*
X141413787Y-103487042D01*
X141420771Y-103480391D01*
X141548990Y-103331848D01*
X141554546Y-103323973D01*
X141634269Y-103183634D01*
X141636560Y-103172474D01*
X141632205Y-103170000D01*
X141155680Y-103170000D01*
X141142995Y-103174122D01*
X141140000Y-103178243D01*
X141140000Y-103653417D01*
X140240000Y-103653417D01*
X140240000Y-103185680D01*
X140235878Y-103172995D01*
X140231757Y-103170000D01*
X139756348Y-103170000D01*
X139745513Y-103173521D01*
X139745513Y-103179427D01*
X139097234Y-103179427D01*
X139111934Y-103153550D01*
X139111935Y-103153547D01*
X139114323Y-103149344D01*
X139127882Y-103108586D01*
X139177824Y-102958454D01*
X139177824Y-102958452D01*
X139179351Y-102953863D01*
X139205171Y-102749474D01*
X139205583Y-102720000D01*
X139204138Y-102705262D01*
X142174520Y-102705262D01*
X142191759Y-102910553D01*
X142248544Y-103108586D01*
X142342712Y-103291818D01*
X142470677Y-103453270D01*
X142474357Y-103456402D01*
X142474359Y-103456404D01*
X142587017Y-103552283D01*
X142627564Y-103586791D01*
X142631787Y-103589151D01*
X142631791Y-103589154D01*
X142675248Y-103613441D01*
X142807398Y-103687297D01*
X142811996Y-103688791D01*
X142998724Y-103749463D01*
X142998726Y-103749464D01*
X143003329Y-103750959D01*
X143207894Y-103775351D01*
X143212716Y-103774980D01*
X143212719Y-103774980D01*
X143283259Y-103769552D01*
X143413300Y-103759546D01*
X143611725Y-103704145D01*
X143616038Y-103701966D01*
X143616044Y-103701964D01*
X143791289Y-103613441D01*
X143791291Y-103613440D01*
X143795610Y-103611258D01*
X143823142Y-103589748D01*
X144719500Y-103589748D01*
X144731133Y-103648231D01*
X144775448Y-103714552D01*
X144841769Y-103758867D01*
X144851332Y-103760769D01*
X144851334Y-103760770D01*
X144874005Y-103765279D01*
X144900252Y-103770500D01*
X146639748Y-103770500D01*
X146665995Y-103765279D01*
X146688666Y-103760770D01*
X146688668Y-103760769D01*
X146698231Y-103758867D01*
X146764552Y-103714552D01*
X146808867Y-103648231D01*
X146820500Y-103589748D01*
X146820500Y-101850252D01*
X146808867Y-101791769D01*
X146764552Y-101725448D01*
X146698231Y-101681133D01*
X146688668Y-101679231D01*
X146688666Y-101679230D01*
X146665995Y-101674721D01*
X146639748Y-101669500D01*
X144900252Y-101669500D01*
X144874005Y-101674721D01*
X144851334Y-101679230D01*
X144851332Y-101679231D01*
X144841769Y-101681133D01*
X144775448Y-101725448D01*
X144731133Y-101791769D01*
X144719500Y-101850252D01*
X144719500Y-103589748D01*
X143823142Y-103589748D01*
X143823902Y-103589154D01*
X143954135Y-103487406D01*
X143954139Y-103487402D01*
X143957951Y-103484424D01*
X143961433Y-103480391D01*
X144017313Y-103415651D01*
X144092564Y-103328472D01*
X144111385Y-103295341D01*
X144191934Y-103153550D01*
X144191935Y-103153547D01*
X144194323Y-103149344D01*
X144207882Y-103108586D01*
X144257824Y-102958454D01*
X144257824Y-102958452D01*
X144259351Y-102953863D01*
X144285171Y-102749474D01*
X144285583Y-102720000D01*
X144265480Y-102514970D01*
X144205935Y-102317749D01*
X144109218Y-102135849D01*
X143979011Y-101976200D01*
X143832639Y-101855110D01*
X143824002Y-101847965D01*
X143824000Y-101847964D01*
X143820275Y-101844882D01*
X143639055Y-101746897D01*
X143569764Y-101725448D01*
X143446875Y-101687407D01*
X143446871Y-101687406D01*
X143442254Y-101685977D01*
X143437446Y-101685472D01*
X143437443Y-101685471D01*
X143242185Y-101664949D01*
X143242183Y-101664949D01*
X143237369Y-101664443D01*
X143181800Y-101669500D01*
X143037022Y-101682675D01*
X143037017Y-101682676D01*
X143032203Y-101683114D01*
X142834572Y-101741280D01*
X142830288Y-101743519D01*
X142830287Y-101743520D01*
X142819428Y-101749197D01*
X142652002Y-101836726D01*
X142648231Y-101839758D01*
X142495220Y-101962781D01*
X142495217Y-101962783D01*
X142491447Y-101965815D01*
X142488333Y-101969526D01*
X142488332Y-101969527D01*
X142479287Y-101980307D01*
X142359024Y-102123630D01*
X142356689Y-102127878D01*
X142356688Y-102127879D01*
X142349955Y-102140126D01*
X142259776Y-102304162D01*
X142197484Y-102500532D01*
X142196944Y-102505344D01*
X142196944Y-102505345D01*
X142195865Y-102514970D01*
X142174520Y-102705262D01*
X139204138Y-102705262D01*
X139185480Y-102514970D01*
X139125935Y-102317749D01*
X139099191Y-102267450D01*
X139744546Y-102267450D01*
X139749184Y-102270000D01*
X140224320Y-102270000D01*
X140237005Y-102265878D01*
X140240000Y-102261757D01*
X140240000Y-102254320D01*
X141140000Y-102254320D01*
X141144122Y-102267005D01*
X141148243Y-102270000D01*
X141624301Y-102270000D01*
X141635136Y-102266479D01*
X141635136Y-102260888D01*
X141571072Y-102140401D01*
X141565740Y-102132376D01*
X141441716Y-101980307D01*
X141434922Y-101973466D01*
X141283721Y-101848381D01*
X141275738Y-101842997D01*
X141153795Y-101777063D01*
X141142588Y-101775006D01*
X141140000Y-101779791D01*
X141140000Y-102254320D01*
X140240000Y-102254320D01*
X140240000Y-101786054D01*
X140236479Y-101775219D01*
X140230732Y-101775219D01*
X140116573Y-101834900D01*
X140108497Y-101840184D01*
X139955571Y-101963140D01*
X139948687Y-101969881D01*
X139822551Y-102120205D01*
X139817104Y-102128159D01*
X139746681Y-102256259D01*
X139744546Y-102267450D01*
X139099191Y-102267450D01*
X139029218Y-102135849D01*
X138899011Y-101976200D01*
X138752639Y-101855110D01*
X138744002Y-101847965D01*
X138744000Y-101847964D01*
X138740275Y-101844882D01*
X138559055Y-101746897D01*
X138489764Y-101725448D01*
X138366875Y-101687407D01*
X138366871Y-101687406D01*
X138362254Y-101685977D01*
X138357446Y-101685472D01*
X138357443Y-101685471D01*
X138162185Y-101664949D01*
X138162183Y-101664949D01*
X138157369Y-101664443D01*
X138101800Y-101669500D01*
X137957022Y-101682675D01*
X137957017Y-101682676D01*
X137952203Y-101683114D01*
X137754572Y-101741280D01*
X137750288Y-101743519D01*
X137750287Y-101743520D01*
X137739428Y-101749197D01*
X137572002Y-101836726D01*
X137568231Y-101839758D01*
X137415220Y-101962781D01*
X137415217Y-101962783D01*
X137411447Y-101965815D01*
X137408333Y-101969526D01*
X137408332Y-101969527D01*
X137399287Y-101980307D01*
X137279024Y-102123630D01*
X137276689Y-102127878D01*
X137276688Y-102127879D01*
X137269955Y-102140126D01*
X137179776Y-102304162D01*
X137117484Y-102500532D01*
X137116944Y-102505344D01*
X137116944Y-102505345D01*
X137115865Y-102514970D01*
X137094520Y-102705262D01*
X126100000Y-102705262D01*
X126100000Y-99940000D01*
X132314318Y-99940000D01*
X132334956Y-100096762D01*
X132395464Y-100242841D01*
X132491718Y-100368282D01*
X132617159Y-100464536D01*
X132763238Y-100525044D01*
X132920000Y-100545682D01*
X133076762Y-100525044D01*
X133222841Y-100464536D01*
X133348282Y-100368282D01*
X133444536Y-100242841D01*
X133505044Y-100096762D01*
X133525682Y-99940000D01*
X133505044Y-99783238D01*
X133444536Y-99637159D01*
X133348282Y-99511718D01*
X133222841Y-99415464D01*
X133076762Y-99354956D01*
X132920000Y-99334318D01*
X132763238Y-99354956D01*
X132617159Y-99415464D01*
X132491718Y-99511718D01*
X132395464Y-99637159D01*
X132334956Y-99783238D01*
X132314318Y-99940000D01*
X126100000Y-99940000D01*
X126100000Y-98500000D01*
X153594318Y-98500000D01*
X153614956Y-98656762D01*
X153675464Y-98802841D01*
X153771718Y-98928282D01*
X153897159Y-99024536D01*
X154043238Y-99085044D01*
X154200000Y-99105682D01*
X154356762Y-99085044D01*
X154502841Y-99024536D01*
X154628282Y-98928282D01*
X154630852Y-98924933D01*
X154684513Y-98897592D01*
X154744945Y-98907163D01*
X154768826Y-98924513D01*
X154771718Y-98928282D01*
X154897159Y-99024536D01*
X155043238Y-99085044D01*
X155200000Y-99105682D01*
X155356762Y-99085044D01*
X155502841Y-99024536D01*
X155628282Y-98928282D01*
X155724536Y-98802841D01*
X155785044Y-98656762D01*
X155799099Y-98550000D01*
X156144318Y-98550000D01*
X156164956Y-98706762D01*
X156225464Y-98852841D01*
X156321718Y-98978282D01*
X156447159Y-99074536D01*
X156593238Y-99135044D01*
X156750000Y-99155682D01*
X156906762Y-99135044D01*
X157052841Y-99074536D01*
X157178282Y-98978282D01*
X157180852Y-98974933D01*
X157234513Y-98947592D01*
X157294945Y-98957163D01*
X157318826Y-98974513D01*
X157321718Y-98978282D01*
X157447159Y-99074536D01*
X157593238Y-99135044D01*
X157750000Y-99155682D01*
X157906762Y-99135044D01*
X158052841Y-99074536D01*
X158178282Y-98978282D01*
X158274536Y-98852841D01*
X158335044Y-98706762D01*
X158355682Y-98550000D01*
X158335044Y-98393238D01*
X158274536Y-98247159D01*
X158178282Y-98121718D01*
X158052841Y-98025464D01*
X157906762Y-97964956D01*
X157750000Y-97944318D01*
X157593238Y-97964956D01*
X157447159Y-98025464D01*
X157321718Y-98121718D01*
X157319148Y-98125067D01*
X157265487Y-98152408D01*
X157205055Y-98142837D01*
X157181174Y-98125487D01*
X157178282Y-98121718D01*
X157052841Y-98025464D01*
X156906762Y-97964956D01*
X156750000Y-97944318D01*
X156593238Y-97964956D01*
X156447159Y-98025464D01*
X156321718Y-98121718D01*
X156225464Y-98247159D01*
X156164956Y-98393238D01*
X156144318Y-98550000D01*
X155799099Y-98550000D01*
X155805682Y-98500000D01*
X155785044Y-98343238D01*
X155724536Y-98197159D01*
X155628282Y-98071718D01*
X155502841Y-97975464D01*
X155356762Y-97914956D01*
X155200000Y-97894318D01*
X155043238Y-97914956D01*
X154897159Y-97975464D01*
X154771718Y-98071718D01*
X154769148Y-98075067D01*
X154715487Y-98102408D01*
X154655055Y-98092837D01*
X154631174Y-98075487D01*
X154628282Y-98071718D01*
X154502841Y-97975464D01*
X154356762Y-97914956D01*
X154200000Y-97894318D01*
X154043238Y-97914956D01*
X153897159Y-97975464D01*
X153771718Y-98071718D01*
X153675464Y-98197159D01*
X153614956Y-98343238D01*
X153594318Y-98500000D01*
X126100000Y-98500000D01*
X126100000Y-97050000D01*
X132294318Y-97050000D01*
X132314956Y-97206762D01*
X132375464Y-97352841D01*
X132471718Y-97478282D01*
X132597159Y-97574536D01*
X132743238Y-97635044D01*
X132900000Y-97655682D01*
X133056762Y-97635044D01*
X133202841Y-97574536D01*
X133328282Y-97478282D01*
X133424536Y-97352841D01*
X133467134Y-97250000D01*
X164404318Y-97250000D01*
X164424956Y-97406762D01*
X164485464Y-97552841D01*
X164581718Y-97678282D01*
X164707159Y-97774536D01*
X164853238Y-97835044D01*
X165010000Y-97855682D01*
X165166762Y-97835044D01*
X165312841Y-97774536D01*
X165424734Y-97688678D01*
X165482408Y-97668254D01*
X165545266Y-97688678D01*
X165657159Y-97774536D01*
X165803238Y-97835044D01*
X165960000Y-97855682D01*
X166116762Y-97835044D01*
X166262841Y-97774536D01*
X166388282Y-97678282D01*
X166390852Y-97674933D01*
X166444513Y-97647592D01*
X166504945Y-97657163D01*
X166528826Y-97674513D01*
X166531718Y-97678282D01*
X166657159Y-97774536D01*
X166803238Y-97835044D01*
X166960000Y-97855682D01*
X167116762Y-97835044D01*
X167262841Y-97774536D01*
X167388282Y-97678282D01*
X167484536Y-97552841D01*
X167545044Y-97406762D01*
X167565682Y-97250000D01*
X167545044Y-97093238D01*
X167484536Y-96947159D01*
X167388282Y-96821718D01*
X167262841Y-96725464D01*
X167116762Y-96664956D01*
X166960000Y-96644318D01*
X166803238Y-96664956D01*
X166657159Y-96725464D01*
X166531718Y-96821718D01*
X166529148Y-96825067D01*
X166475487Y-96852408D01*
X166415055Y-96842837D01*
X166391174Y-96825487D01*
X166388282Y-96821718D01*
X166262841Y-96725464D01*
X166116762Y-96664956D01*
X165960000Y-96644318D01*
X165803238Y-96664956D01*
X165657159Y-96725464D01*
X165545266Y-96811322D01*
X165487592Y-96831746D01*
X165424734Y-96811322D01*
X165312841Y-96725464D01*
X165166762Y-96664956D01*
X165010000Y-96644318D01*
X164853238Y-96664956D01*
X164707159Y-96725464D01*
X164581718Y-96821718D01*
X164485464Y-96947159D01*
X164424956Y-97093238D01*
X164404318Y-97250000D01*
X133467134Y-97250000D01*
X133485044Y-97206762D01*
X133505682Y-97050000D01*
X133485044Y-96893238D01*
X133424536Y-96747159D01*
X133328282Y-96621718D01*
X133202841Y-96525464D01*
X133056762Y-96464956D01*
X132900000Y-96444318D01*
X132743238Y-96464956D01*
X132597159Y-96525464D01*
X132471718Y-96621718D01*
X132375464Y-96747159D01*
X132314956Y-96893238D01*
X132294318Y-97050000D01*
X126100000Y-97050000D01*
X126100000Y-96330000D01*
X155444318Y-96330000D01*
X155464956Y-96486762D01*
X155525464Y-96632841D01*
X155621718Y-96758282D01*
X155747159Y-96854536D01*
X155893238Y-96915044D01*
X156050000Y-96935682D01*
X156206762Y-96915044D01*
X156352841Y-96854536D01*
X156478282Y-96758282D01*
X156574536Y-96632841D01*
X156635044Y-96486762D01*
X156655682Y-96330000D01*
X156635044Y-96173238D01*
X156574536Y-96027159D01*
X156478282Y-95901718D01*
X156352841Y-95805464D01*
X156206762Y-95744956D01*
X156050000Y-95724318D01*
X155893238Y-95744956D01*
X155747159Y-95805464D01*
X155621718Y-95901718D01*
X155525464Y-96027159D01*
X155464956Y-96173238D01*
X155444318Y-96330000D01*
X126100000Y-96330000D01*
X126100000Y-94250000D01*
X128344318Y-94250000D01*
X128364956Y-94406762D01*
X128425464Y-94552841D01*
X128521718Y-94678282D01*
X128647159Y-94774536D01*
X128793238Y-94835044D01*
X128950000Y-94855682D01*
X129106762Y-94835044D01*
X129252841Y-94774536D01*
X129378282Y-94678282D01*
X129399983Y-94650000D01*
X144994318Y-94650000D01*
X145014956Y-94806762D01*
X145075464Y-94952841D01*
X145171718Y-95078282D01*
X145297159Y-95174536D01*
X145443238Y-95235044D01*
X145600000Y-95255682D01*
X145756762Y-95235044D01*
X145841366Y-95200000D01*
X157244318Y-95200000D01*
X157264956Y-95356762D01*
X157325464Y-95502841D01*
X157421718Y-95628282D01*
X157547159Y-95724536D01*
X157693238Y-95785044D01*
X157850000Y-95805682D01*
X158006762Y-95785044D01*
X158152841Y-95724536D01*
X158278282Y-95628282D01*
X158338350Y-95550000D01*
X159494318Y-95550000D01*
X159514956Y-95706762D01*
X159575464Y-95852841D01*
X159671718Y-95978282D01*
X159797159Y-96074536D01*
X159943238Y-96135044D01*
X160100000Y-96155682D01*
X160256762Y-96135044D01*
X160402841Y-96074536D01*
X160416249Y-96064247D01*
X160489733Y-96007862D01*
X160547409Y-95987438D01*
X160610267Y-96007862D01*
X160683751Y-96064247D01*
X160697159Y-96074536D01*
X160843238Y-96135044D01*
X161000000Y-96155682D01*
X161156762Y-96135044D01*
X161302841Y-96074536D01*
X161316249Y-96064247D01*
X161389733Y-96007862D01*
X161447409Y-95987438D01*
X161510267Y-96007862D01*
X161583751Y-96064247D01*
X161597159Y-96074536D01*
X161743238Y-96135044D01*
X161900000Y-96155682D01*
X162056762Y-96135044D01*
X162202841Y-96074536D01*
X162216249Y-96064247D01*
X162289733Y-96007862D01*
X162347409Y-95987438D01*
X162410267Y-96007862D01*
X162483751Y-96064247D01*
X162497159Y-96074536D01*
X162643238Y-96135044D01*
X162800000Y-96155682D01*
X162956762Y-96135044D01*
X163102841Y-96074536D01*
X163214734Y-95988678D01*
X163272408Y-95968254D01*
X163335266Y-95988678D01*
X163447159Y-96074536D01*
X163593238Y-96135044D01*
X163750000Y-96155682D01*
X163906762Y-96135044D01*
X164052841Y-96074536D01*
X164178282Y-95978282D01*
X164274536Y-95852841D01*
X164335044Y-95706762D01*
X164355682Y-95550000D01*
X164335044Y-95393238D01*
X164274536Y-95247159D01*
X164178282Y-95121718D01*
X164052841Y-95025464D01*
X163906762Y-94964956D01*
X163750000Y-94944318D01*
X163593238Y-94964956D01*
X163447159Y-95025464D01*
X163335266Y-95111322D01*
X163277592Y-95131746D01*
X163214734Y-95111322D01*
X163102841Y-95025464D01*
X162956762Y-94964956D01*
X162800000Y-94944318D01*
X162643238Y-94964956D01*
X162497159Y-95025464D01*
X162492010Y-95029415D01*
X162410267Y-95092138D01*
X162352591Y-95112562D01*
X162289733Y-95092138D01*
X162207990Y-95029415D01*
X162202841Y-95025464D01*
X162056762Y-94964956D01*
X161900000Y-94944318D01*
X161743238Y-94964956D01*
X161597159Y-95025464D01*
X161592010Y-95029415D01*
X161510267Y-95092138D01*
X161452591Y-95112562D01*
X161389733Y-95092138D01*
X161307990Y-95029415D01*
X161302841Y-95025464D01*
X161156762Y-94964956D01*
X161000000Y-94944318D01*
X160843238Y-94964956D01*
X160697159Y-95025464D01*
X160692010Y-95029415D01*
X160610267Y-95092138D01*
X160552591Y-95112562D01*
X160489733Y-95092138D01*
X160407990Y-95029415D01*
X160402841Y-95025464D01*
X160256762Y-94964956D01*
X160100000Y-94944318D01*
X159943238Y-94964956D01*
X159797159Y-95025464D01*
X159671718Y-95121718D01*
X159575464Y-95247159D01*
X159514956Y-95393238D01*
X159494318Y-95550000D01*
X158338350Y-95550000D01*
X158374536Y-95502841D01*
X158435044Y-95356762D01*
X158455682Y-95200000D01*
X158435044Y-95043238D01*
X158374536Y-94897159D01*
X158278282Y-94771718D01*
X158152841Y-94675464D01*
X158006762Y-94614956D01*
X157850000Y-94594318D01*
X157693238Y-94614956D01*
X157547159Y-94675464D01*
X157421718Y-94771718D01*
X157325464Y-94897159D01*
X157264956Y-95043238D01*
X157244318Y-95200000D01*
X145841366Y-95200000D01*
X145902841Y-95174536D01*
X146028282Y-95078282D01*
X146124536Y-94952841D01*
X146185044Y-94806762D01*
X146205682Y-94650000D01*
X146185044Y-94493238D01*
X146124536Y-94347159D01*
X146028282Y-94221718D01*
X145902841Y-94125464D01*
X145756762Y-94064956D01*
X145600000Y-94044318D01*
X145443238Y-94064956D01*
X145297159Y-94125464D01*
X145171718Y-94221718D01*
X145075464Y-94347159D01*
X145014956Y-94493238D01*
X144994318Y-94650000D01*
X129399983Y-94650000D01*
X129474536Y-94552841D01*
X129535044Y-94406762D01*
X129555682Y-94250000D01*
X129535044Y-94093238D01*
X129474536Y-93947159D01*
X129378282Y-93821718D01*
X129284817Y-93750000D01*
X137244318Y-93750000D01*
X137264956Y-93906762D01*
X137325464Y-94052841D01*
X137421718Y-94178282D01*
X137547159Y-94274536D01*
X137693238Y-94335044D01*
X137850000Y-94355682D01*
X138006762Y-94335044D01*
X138152841Y-94274536D01*
X138278282Y-94178282D01*
X138374536Y-94052841D01*
X138435044Y-93906762D01*
X138455682Y-93750000D01*
X138435934Y-93600000D01*
X157194318Y-93600000D01*
X157214956Y-93756762D01*
X157275464Y-93902841D01*
X157371718Y-94028282D01*
X157497159Y-94124536D01*
X157643238Y-94185044D01*
X157800000Y-94205682D01*
X157956762Y-94185044D01*
X158102841Y-94124536D01*
X158135242Y-94099674D01*
X158189733Y-94057862D01*
X158247409Y-94037438D01*
X158310267Y-94057862D01*
X158364758Y-94099674D01*
X158397159Y-94124536D01*
X158543238Y-94185044D01*
X158700000Y-94205682D01*
X158856762Y-94185044D01*
X159002841Y-94124536D01*
X159128282Y-94028282D01*
X159224536Y-93902841D01*
X159285044Y-93756762D01*
X159305682Y-93600000D01*
X159285044Y-93443238D01*
X159224536Y-93297159D01*
X159128282Y-93171718D01*
X159002841Y-93075464D01*
X158856762Y-93014956D01*
X158700000Y-92994318D01*
X158543238Y-93014956D01*
X158397159Y-93075464D01*
X158392010Y-93079415D01*
X158310267Y-93142138D01*
X158252591Y-93162562D01*
X158189733Y-93142138D01*
X158107990Y-93079415D01*
X158102841Y-93075464D01*
X157956762Y-93014956D01*
X157800000Y-92994318D01*
X157643238Y-93014956D01*
X157497159Y-93075464D01*
X157371718Y-93171718D01*
X157275464Y-93297159D01*
X157214956Y-93443238D01*
X157194318Y-93600000D01*
X138435934Y-93600000D01*
X138435044Y-93593238D01*
X138374536Y-93447159D01*
X138278282Y-93321718D01*
X138152841Y-93225464D01*
X138006762Y-93164956D01*
X137850000Y-93144318D01*
X137693238Y-93164956D01*
X137547159Y-93225464D01*
X137421718Y-93321718D01*
X137325464Y-93447159D01*
X137264956Y-93593238D01*
X137244318Y-93750000D01*
X129284817Y-93750000D01*
X129252841Y-93725464D01*
X129106762Y-93664956D01*
X128950000Y-93644318D01*
X128793238Y-93664956D01*
X128647159Y-93725464D01*
X128521718Y-93821718D01*
X128425464Y-93947159D01*
X128364956Y-94093238D01*
X128344318Y-94250000D01*
X126100000Y-94250000D01*
X126100000Y-92450000D01*
X167494318Y-92450000D01*
X167514956Y-92606762D01*
X167575464Y-92752841D01*
X167671718Y-92878282D01*
X167797159Y-92974536D01*
X167943238Y-93035044D01*
X168100000Y-93055682D01*
X168256762Y-93035044D01*
X168402841Y-92974536D01*
X168528282Y-92878282D01*
X168624536Y-92752841D01*
X168685044Y-92606762D01*
X168701847Y-92479130D01*
X168713183Y-92455364D01*
X168712997Y-92455187D01*
X168709569Y-92444636D01*
X168886817Y-92444636D01*
X168887003Y-92444813D01*
X168898153Y-92479130D01*
X168914956Y-92606762D01*
X168975464Y-92752841D01*
X169071718Y-92878282D01*
X169197159Y-92974536D01*
X169343238Y-93035044D01*
X169500000Y-93055682D01*
X169656762Y-93035044D01*
X169802841Y-92974536D01*
X169928282Y-92878282D01*
X170024536Y-92752841D01*
X170085044Y-92606762D01*
X170105682Y-92450000D01*
X170085044Y-92293238D01*
X170024536Y-92147159D01*
X169928282Y-92021718D01*
X169802841Y-91925464D01*
X169656762Y-91864956D01*
X169500000Y-91844318D01*
X169343238Y-91864956D01*
X169197159Y-91925464D01*
X169071718Y-92021718D01*
X168975464Y-92147159D01*
X168914956Y-92293238D01*
X168914109Y-92299674D01*
X168898153Y-92420870D01*
X168886817Y-92444636D01*
X168709569Y-92444636D01*
X168701847Y-92420870D01*
X168685891Y-92299674D01*
X168685044Y-92293238D01*
X168624536Y-92147159D01*
X168528282Y-92021718D01*
X168402841Y-91925464D01*
X168256762Y-91864956D01*
X168100000Y-91844318D01*
X167943238Y-91864956D01*
X167797159Y-91925464D01*
X167671718Y-92021718D01*
X167575464Y-92147159D01*
X167514956Y-92293238D01*
X167494318Y-92450000D01*
X126100000Y-92450000D01*
X126100000Y-91350000D01*
X150644318Y-91350000D01*
X150664956Y-91506762D01*
X150725464Y-91652841D01*
X150821718Y-91778282D01*
X150947159Y-91874536D01*
X151093238Y-91935044D01*
X151250000Y-91955682D01*
X151406762Y-91935044D01*
X151552841Y-91874536D01*
X151678282Y-91778282D01*
X151774536Y-91652841D01*
X151835044Y-91506762D01*
X151855682Y-91350000D01*
X151835044Y-91193238D01*
X151774536Y-91047159D01*
X151678282Y-90921718D01*
X151552841Y-90825464D01*
X151406762Y-90764956D01*
X151250000Y-90744318D01*
X151093238Y-90764956D01*
X150947159Y-90825464D01*
X150821718Y-90921718D01*
X150725464Y-91047159D01*
X150664956Y-91193238D01*
X150644318Y-91350000D01*
X126100000Y-91350000D01*
X126100000Y-90240000D01*
X152944318Y-90240000D01*
X152964956Y-90396762D01*
X153025464Y-90542841D01*
X153121718Y-90668282D01*
X153247159Y-90764536D01*
X153393238Y-90825044D01*
X153550000Y-90845682D01*
X153706762Y-90825044D01*
X153852841Y-90764536D01*
X153978282Y-90668282D01*
X154074536Y-90542841D01*
X154135044Y-90396762D01*
X154155682Y-90240000D01*
X161834318Y-90240000D01*
X161854956Y-90396762D01*
X161915464Y-90542841D01*
X162011718Y-90668282D01*
X162137159Y-90764536D01*
X162283238Y-90825044D01*
X162440000Y-90845682D01*
X162596762Y-90825044D01*
X162742841Y-90764536D01*
X162868282Y-90668282D01*
X162964536Y-90542841D01*
X163025044Y-90396762D01*
X163045682Y-90240000D01*
X163025044Y-90083238D01*
X162964536Y-89937159D01*
X162868282Y-89811718D01*
X162742841Y-89715464D01*
X162596762Y-89654956D01*
X162440000Y-89634318D01*
X162283238Y-89654956D01*
X162137159Y-89715464D01*
X162011718Y-89811718D01*
X161915464Y-89937159D01*
X161854956Y-90083238D01*
X161834318Y-90240000D01*
X154155682Y-90240000D01*
X154135044Y-90083238D01*
X154074536Y-89937159D01*
X153978282Y-89811718D01*
X153852841Y-89715464D01*
X153706762Y-89654956D01*
X153550000Y-89634318D01*
X153393238Y-89654956D01*
X153247159Y-89715464D01*
X153121718Y-89811718D01*
X153025464Y-89937159D01*
X152964956Y-90083238D01*
X152944318Y-90240000D01*
X126100000Y-90240000D01*
X126100000Y-89290000D01*
X160374318Y-89290000D01*
X160394956Y-89446762D01*
X160455464Y-89592841D01*
X160551718Y-89718282D01*
X160677159Y-89814536D01*
X160823238Y-89875044D01*
X160980000Y-89895682D01*
X161136762Y-89875044D01*
X161282841Y-89814536D01*
X161408282Y-89718282D01*
X161504536Y-89592841D01*
X161565044Y-89446762D01*
X161585682Y-89290000D01*
X161565044Y-89133238D01*
X161504536Y-88987159D01*
X161408282Y-88861718D01*
X161282841Y-88765464D01*
X161136762Y-88704956D01*
X160980000Y-88684318D01*
X160823238Y-88704956D01*
X160677159Y-88765464D01*
X160551718Y-88861718D01*
X160455464Y-88987159D01*
X160394956Y-89133238D01*
X160374318Y-89290000D01*
X126100000Y-89290000D01*
X126100000Y-88300000D01*
X128194318Y-88300000D01*
X128214956Y-88456762D01*
X128275464Y-88602841D01*
X128371718Y-88728282D01*
X128497159Y-88824536D01*
X128643238Y-88885044D01*
X128800000Y-88905682D01*
X128956762Y-88885044D01*
X129102841Y-88824536D01*
X129228282Y-88728282D01*
X129324536Y-88602841D01*
X129385044Y-88456762D01*
X129405682Y-88300000D01*
X129385044Y-88143238D01*
X129324536Y-87997159D01*
X129228282Y-87871718D01*
X129102841Y-87775464D01*
X128956762Y-87714956D01*
X128800000Y-87694318D01*
X128643238Y-87714956D01*
X128497159Y-87775464D01*
X128371718Y-87871718D01*
X128275464Y-87997159D01*
X128214956Y-88143238D01*
X128194318Y-88300000D01*
X126100000Y-88300000D01*
X126100000Y-87600000D01*
X132694318Y-87600000D01*
X132714956Y-87756762D01*
X132775464Y-87902841D01*
X132871718Y-88028282D01*
X132997159Y-88124536D01*
X133143238Y-88185044D01*
X133300000Y-88205682D01*
X133456762Y-88185044D01*
X133602841Y-88124536D01*
X133728282Y-88028282D01*
X133824536Y-87902841D01*
X133885044Y-87756762D01*
X133905682Y-87600000D01*
X133885044Y-87443238D01*
X133824536Y-87297159D01*
X133728282Y-87171718D01*
X133602841Y-87075464D01*
X133456762Y-87014956D01*
X133300000Y-86994318D01*
X133143238Y-87014956D01*
X132997159Y-87075464D01*
X132871718Y-87171718D01*
X132775464Y-87297159D01*
X132714956Y-87443238D01*
X132694318Y-87600000D01*
X126100000Y-87600000D01*
X126100000Y-86750000D01*
X148694318Y-86750000D01*
X148695165Y-86756434D01*
X148696482Y-86766434D01*
X148714956Y-86906762D01*
X148775464Y-87052841D01*
X148871718Y-87178282D01*
X148997159Y-87274536D01*
X149143238Y-87335044D01*
X149300000Y-87355682D01*
X149456762Y-87335044D01*
X149602841Y-87274536D01*
X149728282Y-87178282D01*
X149824536Y-87052841D01*
X149885044Y-86906762D01*
X149900416Y-86790000D01*
X165094318Y-86790000D01*
X165114956Y-86946762D01*
X165175464Y-87092841D01*
X165271718Y-87218282D01*
X165397159Y-87314536D01*
X165543238Y-87375044D01*
X165700000Y-87395682D01*
X165856762Y-87375044D01*
X166002841Y-87314536D01*
X166128282Y-87218282D01*
X166224536Y-87092841D01*
X166285044Y-86946762D01*
X166305682Y-86790000D01*
X166301732Y-86760000D01*
X171224318Y-86760000D01*
X171244956Y-86916762D01*
X171305464Y-87062841D01*
X171401718Y-87188282D01*
X171527159Y-87284536D01*
X171673238Y-87345044D01*
X171830000Y-87365682D01*
X171986762Y-87345044D01*
X172132841Y-87284536D01*
X172258282Y-87188282D01*
X172354536Y-87062841D01*
X172415044Y-86916762D01*
X172435682Y-86760000D01*
X172434366Y-86750000D01*
X172784318Y-86750000D01*
X172785165Y-86756434D01*
X172786482Y-86766434D01*
X172804956Y-86906762D01*
X172865464Y-87052841D01*
X172961718Y-87178282D01*
X173087159Y-87274536D01*
X173233238Y-87335044D01*
X173390000Y-87355682D01*
X173546762Y-87335044D01*
X173692841Y-87274536D01*
X173818282Y-87178282D01*
X173914536Y-87052841D01*
X173975044Y-86906762D01*
X173993518Y-86766434D01*
X173994835Y-86756434D01*
X173995682Y-86750000D01*
X173975044Y-86593238D01*
X173914536Y-86447159D01*
X173818282Y-86321718D01*
X173796495Y-86305000D01*
X177394318Y-86305000D01*
X177414956Y-86461762D01*
X177475464Y-86607841D01*
X177571718Y-86733282D01*
X177697159Y-86829536D01*
X177843238Y-86890044D01*
X178000000Y-86910682D01*
X178156762Y-86890044D01*
X178302841Y-86829536D01*
X178428282Y-86733282D01*
X178524536Y-86607841D01*
X178585044Y-86461762D01*
X178605682Y-86305000D01*
X179094318Y-86305000D01*
X179114956Y-86461762D01*
X179175464Y-86607841D01*
X179271718Y-86733282D01*
X179397159Y-86829536D01*
X179543238Y-86890044D01*
X179700000Y-86910682D01*
X179856762Y-86890044D01*
X180002841Y-86829536D01*
X180128282Y-86733282D01*
X180224536Y-86607841D01*
X180285044Y-86461762D01*
X180305682Y-86305000D01*
X180744318Y-86305000D01*
X180764956Y-86461762D01*
X180825464Y-86607841D01*
X180921718Y-86733282D01*
X181047159Y-86829536D01*
X181193238Y-86890044D01*
X181350000Y-86910682D01*
X181506762Y-86890044D01*
X181652841Y-86829536D01*
X181778282Y-86733282D01*
X181874536Y-86607841D01*
X181935044Y-86461762D01*
X181955682Y-86305000D01*
X182394318Y-86305000D01*
X182414956Y-86461762D01*
X182475464Y-86607841D01*
X182571718Y-86733282D01*
X182697159Y-86829536D01*
X182843238Y-86890044D01*
X183000000Y-86910682D01*
X183156762Y-86890044D01*
X183302841Y-86829536D01*
X183428282Y-86733282D01*
X183524536Y-86607841D01*
X183585044Y-86461762D01*
X183605682Y-86305000D01*
X183585044Y-86148238D01*
X183524536Y-86002159D01*
X183428282Y-85876718D01*
X183302841Y-85780464D01*
X183156762Y-85719956D01*
X183000000Y-85699318D01*
X182843238Y-85719956D01*
X182697159Y-85780464D01*
X182571718Y-85876718D01*
X182475464Y-86002159D01*
X182414956Y-86148238D01*
X182394318Y-86305000D01*
X181955682Y-86305000D01*
X181935044Y-86148238D01*
X181874536Y-86002159D01*
X181778282Y-85876718D01*
X181652841Y-85780464D01*
X181506762Y-85719956D01*
X181350000Y-85699318D01*
X181193238Y-85719956D01*
X181047159Y-85780464D01*
X180921718Y-85876718D01*
X180825464Y-86002159D01*
X180764956Y-86148238D01*
X180744318Y-86305000D01*
X180305682Y-86305000D01*
X180285044Y-86148238D01*
X180224536Y-86002159D01*
X180128282Y-85876718D01*
X180002841Y-85780464D01*
X179856762Y-85719956D01*
X179700000Y-85699318D01*
X179543238Y-85719956D01*
X179397159Y-85780464D01*
X179271718Y-85876718D01*
X179175464Y-86002159D01*
X179114956Y-86148238D01*
X179094318Y-86305000D01*
X178605682Y-86305000D01*
X178585044Y-86148238D01*
X178524536Y-86002159D01*
X178428282Y-85876718D01*
X178302841Y-85780464D01*
X178156762Y-85719956D01*
X178000000Y-85699318D01*
X177843238Y-85719956D01*
X177697159Y-85780464D01*
X177571718Y-85876718D01*
X177475464Y-86002159D01*
X177414956Y-86148238D01*
X177394318Y-86305000D01*
X173796495Y-86305000D01*
X173692841Y-86225464D01*
X173546762Y-86164956D01*
X173390000Y-86144318D01*
X173233238Y-86164956D01*
X173087159Y-86225464D01*
X172961718Y-86321718D01*
X172865464Y-86447159D01*
X172804956Y-86593238D01*
X172784318Y-86750000D01*
X172434366Y-86750000D01*
X172419841Y-86639674D01*
X172415044Y-86603238D01*
X172354536Y-86457159D01*
X172258282Y-86331718D01*
X172132841Y-86235464D01*
X171986762Y-86174956D01*
X171830000Y-86154318D01*
X171673238Y-86174956D01*
X171527159Y-86235464D01*
X171401718Y-86331718D01*
X171305464Y-86457159D01*
X171244956Y-86603238D01*
X171240159Y-86639674D01*
X171225635Y-86750000D01*
X171224318Y-86760000D01*
X166301732Y-86760000D01*
X166285044Y-86633238D01*
X166224536Y-86487159D01*
X166128282Y-86361718D01*
X166002841Y-86265464D01*
X165856762Y-86204956D01*
X165700000Y-86184318D01*
X165543238Y-86204956D01*
X165397159Y-86265464D01*
X165271718Y-86361718D01*
X165175464Y-86487159D01*
X165114956Y-86633238D01*
X165094318Y-86790000D01*
X149900416Y-86790000D01*
X149903518Y-86766434D01*
X149904835Y-86756434D01*
X149905682Y-86750000D01*
X149885044Y-86593238D01*
X149824536Y-86447159D01*
X149728282Y-86321718D01*
X149602841Y-86225464D01*
X149456762Y-86164956D01*
X149300000Y-86144318D01*
X149143238Y-86164956D01*
X148997159Y-86225464D01*
X148871718Y-86321718D01*
X148775464Y-86447159D01*
X148714956Y-86593238D01*
X148694318Y-86750000D01*
X126100000Y-86750000D01*
X126100000Y-85450000D01*
X126444318Y-85450000D01*
X126464956Y-85606762D01*
X126525464Y-85752841D01*
X126621718Y-85878282D01*
X126747159Y-85974536D01*
X126893238Y-86035044D01*
X127050000Y-86055682D01*
X127206762Y-86035044D01*
X127352841Y-85974536D01*
X127478282Y-85878282D01*
X127574536Y-85752841D01*
X127635044Y-85606762D01*
X127655682Y-85450000D01*
X127635044Y-85293238D01*
X127617134Y-85250000D01*
X137344318Y-85250000D01*
X137364956Y-85406762D01*
X137425464Y-85552841D01*
X137521718Y-85678282D01*
X137647159Y-85774536D01*
X137793238Y-85835044D01*
X137950000Y-85855682D01*
X138106762Y-85835044D01*
X138252841Y-85774536D01*
X138378282Y-85678282D01*
X138474536Y-85552841D01*
X138535044Y-85406762D01*
X138555682Y-85250000D01*
X138535044Y-85093238D01*
X138474536Y-84947159D01*
X138378282Y-84821718D01*
X138252841Y-84725464D01*
X138106762Y-84664956D01*
X137950000Y-84644318D01*
X137793238Y-84664956D01*
X137647159Y-84725464D01*
X137521718Y-84821718D01*
X137425464Y-84947159D01*
X137364956Y-85093238D01*
X137344318Y-85250000D01*
X127617134Y-85250000D01*
X127574536Y-85147159D01*
X127478282Y-85021718D01*
X127352841Y-84925464D01*
X127206762Y-84864956D01*
X127050000Y-84844318D01*
X126893238Y-84864956D01*
X126747159Y-84925464D01*
X126621718Y-85021718D01*
X126525464Y-85147159D01*
X126464956Y-85293238D01*
X126444318Y-85450000D01*
X126100000Y-85450000D01*
X126100000Y-84580000D01*
X164504318Y-84580000D01*
X164524956Y-84736762D01*
X164585464Y-84882841D01*
X164681718Y-85008282D01*
X164807159Y-85104536D01*
X164953238Y-85165044D01*
X165110000Y-85185682D01*
X165266762Y-85165044D01*
X165412841Y-85104536D01*
X165538282Y-85008282D01*
X165634536Y-84882841D01*
X165695044Y-84736762D01*
X165715682Y-84580000D01*
X165695044Y-84423238D01*
X165634536Y-84277159D01*
X165538282Y-84151718D01*
X165412841Y-84055464D01*
X165266762Y-83994956D01*
X165110000Y-83974318D01*
X164953238Y-83994956D01*
X164807159Y-84055464D01*
X164681718Y-84151718D01*
X164585464Y-84277159D01*
X164524956Y-84423238D01*
X164504318Y-84580000D01*
X126100000Y-84580000D01*
X126100000Y-83150000D01*
X130794318Y-83150000D01*
X130814956Y-83306762D01*
X130875464Y-83452841D01*
X130971718Y-83578282D01*
X131097159Y-83674536D01*
X131243238Y-83735044D01*
X131400000Y-83755682D01*
X131556762Y-83735044D01*
X131702841Y-83674536D01*
X131828282Y-83578282D01*
X131924536Y-83452841D01*
X131985044Y-83306762D01*
X132005682Y-83150000D01*
X131985044Y-82993238D01*
X131924536Y-82847159D01*
X131828282Y-82721718D01*
X131799978Y-82700000D01*
X150444318Y-82700000D01*
X150464956Y-82856762D01*
X150525464Y-83002841D01*
X150621718Y-83128282D01*
X150747159Y-83224536D01*
X150893238Y-83285044D01*
X151050000Y-83305682D01*
X151206762Y-83285044D01*
X151352841Y-83224536D01*
X151478282Y-83128282D01*
X151574536Y-83002841D01*
X151635044Y-82856762D01*
X151655682Y-82700000D01*
X151635044Y-82543238D01*
X151574536Y-82397159D01*
X151478282Y-82271718D01*
X151352841Y-82175464D01*
X151206762Y-82114956D01*
X151050000Y-82094318D01*
X150893238Y-82114956D01*
X150747159Y-82175464D01*
X150621718Y-82271718D01*
X150525464Y-82397159D01*
X150464956Y-82543238D01*
X150444318Y-82700000D01*
X131799978Y-82700000D01*
X131702841Y-82625464D01*
X131556762Y-82564956D01*
X131400000Y-82544318D01*
X131243238Y-82564956D01*
X131097159Y-82625464D01*
X130971718Y-82721718D01*
X130875464Y-82847159D01*
X130814956Y-82993238D01*
X130794318Y-83150000D01*
X126100000Y-83150000D01*
X126100000Y-81690000D01*
X153764318Y-81690000D01*
X153784956Y-81846762D01*
X153845464Y-81992841D01*
X153941718Y-82118282D01*
X154067159Y-82214536D01*
X154213238Y-82275044D01*
X154370000Y-82295682D01*
X154526762Y-82275044D01*
X154672841Y-82214536D01*
X154798282Y-82118282D01*
X154894536Y-81992841D01*
X154955044Y-81846762D01*
X154975682Y-81690000D01*
X154955044Y-81533238D01*
X154894536Y-81387159D01*
X154798282Y-81261718D01*
X154672841Y-81165464D01*
X154526762Y-81104956D01*
X154370000Y-81084318D01*
X154213238Y-81104956D01*
X154067159Y-81165464D01*
X153941718Y-81261718D01*
X153845464Y-81387159D01*
X153784956Y-81533238D01*
X153764318Y-81690000D01*
X126100000Y-81690000D01*
X126100000Y-80450000D01*
X129144318Y-80450000D01*
X129164956Y-80606762D01*
X129225464Y-80752841D01*
X129321718Y-80878282D01*
X129447159Y-80974536D01*
X129593238Y-81035044D01*
X129750000Y-81055682D01*
X129906762Y-81035044D01*
X130052841Y-80974536D01*
X130178282Y-80878282D01*
X130274536Y-80752841D01*
X130335044Y-80606762D01*
X130355682Y-80450000D01*
X130335044Y-80293238D01*
X130296423Y-80200000D01*
X133644318Y-80200000D01*
X133664956Y-80356762D01*
X133725464Y-80502841D01*
X133821718Y-80628282D01*
X133947159Y-80724536D01*
X134093238Y-80785044D01*
X134250000Y-80805682D01*
X134406762Y-80785044D01*
X134552841Y-80724536D01*
X134678282Y-80628282D01*
X134774536Y-80502841D01*
X134835044Y-80356762D01*
X134843833Y-80290000D01*
X163264318Y-80290000D01*
X163284956Y-80446762D01*
X163345464Y-80592841D01*
X163441718Y-80718282D01*
X163567159Y-80814536D01*
X163713238Y-80875044D01*
X163870000Y-80895682D01*
X164026762Y-80875044D01*
X164172841Y-80814536D01*
X164298282Y-80718282D01*
X164394536Y-80592841D01*
X164455044Y-80446762D01*
X164475682Y-80290000D01*
X164455044Y-80133238D01*
X164394536Y-79987159D01*
X164298282Y-79861718D01*
X164172841Y-79765464D01*
X164038939Y-79710000D01*
X164940568Y-79710000D01*
X164961206Y-79866762D01*
X165021714Y-80012841D01*
X165117968Y-80138282D01*
X165243409Y-80234536D01*
X165389488Y-80295044D01*
X165546250Y-80315682D01*
X165703012Y-80295044D01*
X165849091Y-80234536D01*
X165974532Y-80138282D01*
X166070786Y-80012841D01*
X166131294Y-79866762D01*
X166151932Y-79710000D01*
X166131294Y-79553238D01*
X166070786Y-79407159D01*
X165974532Y-79281718D01*
X165849091Y-79185464D01*
X165703012Y-79124956D01*
X165546250Y-79104318D01*
X165389488Y-79124956D01*
X165243409Y-79185464D01*
X165117968Y-79281718D01*
X165021714Y-79407159D01*
X164961206Y-79553238D01*
X164940568Y-79710000D01*
X164038939Y-79710000D01*
X164026762Y-79704956D01*
X163870000Y-79684318D01*
X163713238Y-79704956D01*
X163567159Y-79765464D01*
X163441718Y-79861718D01*
X163345464Y-79987159D01*
X163284956Y-80133238D01*
X163264318Y-80290000D01*
X134843833Y-80290000D01*
X134855682Y-80200000D01*
X134835044Y-80043238D01*
X134774536Y-79897159D01*
X134678282Y-79771718D01*
X134552841Y-79675464D01*
X134406762Y-79614956D01*
X134250000Y-79594318D01*
X134093238Y-79614956D01*
X133947159Y-79675464D01*
X133821718Y-79771718D01*
X133725464Y-79897159D01*
X133664956Y-80043238D01*
X133644318Y-80200000D01*
X130296423Y-80200000D01*
X130274536Y-80147159D01*
X130178282Y-80021718D01*
X130052841Y-79925464D01*
X129906762Y-79864956D01*
X129750000Y-79844318D01*
X129593238Y-79864956D01*
X129447159Y-79925464D01*
X129321718Y-80021718D01*
X129225464Y-80147159D01*
X129164956Y-80293238D01*
X129144318Y-80450000D01*
X126100000Y-80450000D01*
X126100000Y-78150000D01*
X132494318Y-78150000D01*
X132514956Y-78306762D01*
X132575464Y-78452841D01*
X132671718Y-78578282D01*
X132797159Y-78674536D01*
X132943238Y-78735044D01*
X133100000Y-78755682D01*
X133256762Y-78735044D01*
X133402841Y-78674536D01*
X133528282Y-78578282D01*
X133624536Y-78452841D01*
X133685044Y-78306762D01*
X133705682Y-78150000D01*
X133685044Y-77993238D01*
X133679561Y-77980000D01*
X141324318Y-77980000D01*
X141344956Y-78136762D01*
X141405464Y-78282841D01*
X141501718Y-78408282D01*
X141627159Y-78504536D01*
X141773238Y-78565044D01*
X141930000Y-78585682D01*
X142086762Y-78565044D01*
X142232841Y-78504536D01*
X142358282Y-78408282D01*
X142454536Y-78282841D01*
X142515044Y-78136762D01*
X142535682Y-77980000D01*
X142515044Y-77823238D01*
X142454536Y-77677159D01*
X142358282Y-77551718D01*
X142232841Y-77455464D01*
X142086762Y-77394956D01*
X141930000Y-77374318D01*
X141773238Y-77394956D01*
X141627159Y-77455464D01*
X141501718Y-77551718D01*
X141405464Y-77677159D01*
X141344956Y-77823238D01*
X141324318Y-77980000D01*
X133679561Y-77980000D01*
X133624536Y-77847159D01*
X133528282Y-77721718D01*
X133402841Y-77625464D01*
X133256762Y-77564956D01*
X133100000Y-77544318D01*
X132943238Y-77564956D01*
X132797159Y-77625464D01*
X132671718Y-77721718D01*
X132575464Y-77847159D01*
X132514956Y-77993238D01*
X132494318Y-78150000D01*
X126100000Y-78150000D01*
X126100000Y-77250000D01*
X138294318Y-77250000D01*
X138314956Y-77406762D01*
X138375464Y-77552841D01*
X138471718Y-77678282D01*
X138597159Y-77774536D01*
X138743238Y-77835044D01*
X138900000Y-77855682D01*
X139056762Y-77835044D01*
X139202841Y-77774536D01*
X139328282Y-77678282D01*
X139424536Y-77552841D01*
X139485044Y-77406762D01*
X139505682Y-77250000D01*
X139485044Y-77093238D01*
X139424536Y-76947159D01*
X139328282Y-76821718D01*
X139202841Y-76725464D01*
X139056762Y-76664956D01*
X138900000Y-76644318D01*
X138743238Y-76664956D01*
X138597159Y-76725464D01*
X138471718Y-76821718D01*
X138375464Y-76947159D01*
X138314956Y-77093238D01*
X138294318Y-77250000D01*
X126100000Y-77250000D01*
X126100000Y-72520262D01*
X144609520Y-72520262D01*
X144626759Y-72725553D01*
X144683544Y-72923586D01*
X144777712Y-73106818D01*
X144905677Y-73268270D01*
X144909357Y-73271402D01*
X144909359Y-73271404D01*
X145022017Y-73367283D01*
X145062564Y-73401791D01*
X145066787Y-73404151D01*
X145066791Y-73404154D01*
X145106342Y-73426258D01*
X145242398Y-73502297D01*
X145246996Y-73503791D01*
X145433724Y-73564463D01*
X145433726Y-73564464D01*
X145438329Y-73565959D01*
X145642894Y-73590351D01*
X145647716Y-73589980D01*
X145647719Y-73589980D01*
X145715541Y-73584761D01*
X145848300Y-73574546D01*
X146046725Y-73519145D01*
X146051038Y-73516966D01*
X146051044Y-73516964D01*
X146226289Y-73428441D01*
X146226291Y-73428440D01*
X146230610Y-73426258D01*
X146265943Y-73398653D01*
X146389135Y-73302406D01*
X146389139Y-73302402D01*
X146392951Y-73299424D01*
X146527564Y-73143472D01*
X146546231Y-73110613D01*
X146626934Y-72968550D01*
X146626935Y-72968547D01*
X146629323Y-72964344D01*
X146642882Y-72923586D01*
X146692824Y-72773454D01*
X146692824Y-72773452D01*
X146694351Y-72768863D01*
X146720171Y-72564474D01*
X146720583Y-72535000D01*
X146719138Y-72520262D01*
X147149520Y-72520262D01*
X147166759Y-72725553D01*
X147223544Y-72923586D01*
X147317712Y-73106818D01*
X147445677Y-73268270D01*
X147449357Y-73271402D01*
X147449359Y-73271404D01*
X147562017Y-73367283D01*
X147602564Y-73401791D01*
X147606787Y-73404151D01*
X147606791Y-73404154D01*
X147646342Y-73426258D01*
X147782398Y-73502297D01*
X147786996Y-73503791D01*
X147973724Y-73564463D01*
X147973726Y-73564464D01*
X147978329Y-73565959D01*
X148182894Y-73590351D01*
X148187716Y-73589980D01*
X148187719Y-73589980D01*
X148255541Y-73584761D01*
X148388300Y-73574546D01*
X148586725Y-73519145D01*
X148591038Y-73516966D01*
X148591044Y-73516964D01*
X148766289Y-73428441D01*
X148766291Y-73428440D01*
X148770610Y-73426258D01*
X148805943Y-73398653D01*
X148929135Y-73302406D01*
X148929139Y-73302402D01*
X148932951Y-73299424D01*
X149067564Y-73143472D01*
X149086231Y-73110613D01*
X149166934Y-72968550D01*
X149166935Y-72968547D01*
X149169323Y-72964344D01*
X149182882Y-72923586D01*
X149232824Y-72773454D01*
X149232824Y-72773452D01*
X149234351Y-72768863D01*
X149260171Y-72564474D01*
X149260583Y-72535000D01*
X149259138Y-72520262D01*
X149689520Y-72520262D01*
X149706759Y-72725553D01*
X149763544Y-72923586D01*
X149857712Y-73106818D01*
X149985677Y-73268270D01*
X149989357Y-73271402D01*
X149989359Y-73271404D01*
X150102017Y-73367283D01*
X150142564Y-73401791D01*
X150146787Y-73404151D01*
X150146791Y-73404154D01*
X150186342Y-73426258D01*
X150322398Y-73502297D01*
X150326996Y-73503791D01*
X150513724Y-73564463D01*
X150513726Y-73564464D01*
X150518329Y-73565959D01*
X150722894Y-73590351D01*
X150727716Y-73589980D01*
X150727719Y-73589980D01*
X150795541Y-73584761D01*
X150928300Y-73574546D01*
X151126725Y-73519145D01*
X151131038Y-73516966D01*
X151131044Y-73516964D01*
X151306289Y-73428441D01*
X151306291Y-73428440D01*
X151310610Y-73426258D01*
X151345943Y-73398653D01*
X151469135Y-73302406D01*
X151469139Y-73302402D01*
X151472951Y-73299424D01*
X151607564Y-73143472D01*
X151626231Y-73110613D01*
X151706934Y-72968550D01*
X151706935Y-72968547D01*
X151709323Y-72964344D01*
X151722882Y-72923586D01*
X151772824Y-72773454D01*
X151772824Y-72773452D01*
X151774351Y-72768863D01*
X151800171Y-72564474D01*
X151800583Y-72535000D01*
X151799138Y-72520262D01*
X152229520Y-72520262D01*
X152246759Y-72725553D01*
X152303544Y-72923586D01*
X152397712Y-73106818D01*
X152525677Y-73268270D01*
X152529357Y-73271402D01*
X152529359Y-73271404D01*
X152642017Y-73367283D01*
X152682564Y-73401791D01*
X152686787Y-73404151D01*
X152686791Y-73404154D01*
X152726342Y-73426258D01*
X152862398Y-73502297D01*
X152866996Y-73503791D01*
X153053724Y-73564463D01*
X153053726Y-73564464D01*
X153058329Y-73565959D01*
X153262894Y-73590351D01*
X153267716Y-73589980D01*
X153267719Y-73589980D01*
X153335541Y-73584761D01*
X153468300Y-73574546D01*
X153666725Y-73519145D01*
X153671038Y-73516966D01*
X153671044Y-73516964D01*
X153846289Y-73428441D01*
X153846291Y-73428440D01*
X153850610Y-73426258D01*
X153885943Y-73398653D01*
X154009135Y-73302406D01*
X154009139Y-73302402D01*
X154012951Y-73299424D01*
X154147564Y-73143472D01*
X154166231Y-73110613D01*
X154246934Y-72968550D01*
X154246935Y-72968547D01*
X154249323Y-72964344D01*
X154262882Y-72923586D01*
X154312824Y-72773454D01*
X154312824Y-72773452D01*
X154314351Y-72768863D01*
X154340171Y-72564474D01*
X154340583Y-72535000D01*
X154339138Y-72520262D01*
X154769520Y-72520262D01*
X154786759Y-72725553D01*
X154843544Y-72923586D01*
X154937712Y-73106818D01*
X155065677Y-73268270D01*
X155069357Y-73271402D01*
X155069359Y-73271404D01*
X155182017Y-73367283D01*
X155222564Y-73401791D01*
X155226787Y-73404151D01*
X155226791Y-73404154D01*
X155266342Y-73426258D01*
X155402398Y-73502297D01*
X155406996Y-73503791D01*
X155593724Y-73564463D01*
X155593726Y-73564464D01*
X155598329Y-73565959D01*
X155802894Y-73590351D01*
X155807716Y-73589980D01*
X155807719Y-73589980D01*
X155875541Y-73584761D01*
X156008300Y-73574546D01*
X156206725Y-73519145D01*
X156211038Y-73516966D01*
X156211044Y-73516964D01*
X156386289Y-73428441D01*
X156386291Y-73428440D01*
X156390610Y-73426258D01*
X156425943Y-73398653D01*
X156549135Y-73302406D01*
X156549139Y-73302402D01*
X156552951Y-73299424D01*
X156687564Y-73143472D01*
X156706231Y-73110613D01*
X156786934Y-72968550D01*
X156786935Y-72968547D01*
X156789323Y-72964344D01*
X156802882Y-72923586D01*
X156852824Y-72773454D01*
X156852824Y-72773452D01*
X156854351Y-72768863D01*
X156880171Y-72564474D01*
X156880583Y-72535000D01*
X156860480Y-72329970D01*
X156800935Y-72132749D01*
X156704218Y-71950849D01*
X156574011Y-71791200D01*
X156415275Y-71659882D01*
X156234055Y-71561897D01*
X156170855Y-71542333D01*
X156041875Y-71502407D01*
X156041871Y-71502406D01*
X156037254Y-71500977D01*
X156032446Y-71500472D01*
X156032443Y-71500471D01*
X155837185Y-71479949D01*
X155837183Y-71479949D01*
X155832369Y-71479443D01*
X155772354Y-71484905D01*
X155632022Y-71497675D01*
X155632017Y-71497676D01*
X155627203Y-71498114D01*
X155429572Y-71556280D01*
X155425288Y-71558519D01*
X155425287Y-71558520D01*
X155414428Y-71564197D01*
X155247002Y-71651726D01*
X155243231Y-71654758D01*
X155090220Y-71777781D01*
X155090217Y-71777783D01*
X155086447Y-71780815D01*
X155083333Y-71784526D01*
X155083332Y-71784527D01*
X155074585Y-71794952D01*
X154954024Y-71938630D01*
X154951689Y-71942878D01*
X154951688Y-71942879D01*
X154944955Y-71955126D01*
X154854776Y-72119162D01*
X154792484Y-72315532D01*
X154791944Y-72320344D01*
X154791944Y-72320345D01*
X154790865Y-72329970D01*
X154769520Y-72520262D01*
X154339138Y-72520262D01*
X154320480Y-72329970D01*
X154260935Y-72132749D01*
X154164218Y-71950849D01*
X154034011Y-71791200D01*
X153875275Y-71659882D01*
X153694055Y-71561897D01*
X153630855Y-71542333D01*
X153501875Y-71502407D01*
X153501871Y-71502406D01*
X153497254Y-71500977D01*
X153492446Y-71500472D01*
X153492443Y-71500471D01*
X153297185Y-71479949D01*
X153297183Y-71479949D01*
X153292369Y-71479443D01*
X153232354Y-71484905D01*
X153092022Y-71497675D01*
X153092017Y-71497676D01*
X153087203Y-71498114D01*
X152889572Y-71556280D01*
X152885288Y-71558519D01*
X152885287Y-71558520D01*
X152874428Y-71564197D01*
X152707002Y-71651726D01*
X152703231Y-71654758D01*
X152550220Y-71777781D01*
X152550217Y-71777783D01*
X152546447Y-71780815D01*
X152543333Y-71784526D01*
X152543332Y-71784527D01*
X152534585Y-71794952D01*
X152414024Y-71938630D01*
X152411689Y-71942878D01*
X152411688Y-71942879D01*
X152404955Y-71955126D01*
X152314776Y-72119162D01*
X152252484Y-72315532D01*
X152251944Y-72320344D01*
X152251944Y-72320345D01*
X152250865Y-72329970D01*
X152229520Y-72520262D01*
X151799138Y-72520262D01*
X151780480Y-72329970D01*
X151720935Y-72132749D01*
X151624218Y-71950849D01*
X151494011Y-71791200D01*
X151335275Y-71659882D01*
X151154055Y-71561897D01*
X151090855Y-71542333D01*
X150961875Y-71502407D01*
X150961871Y-71502406D01*
X150957254Y-71500977D01*
X150952446Y-71500472D01*
X150952443Y-71500471D01*
X150757185Y-71479949D01*
X150757183Y-71479949D01*
X150752369Y-71479443D01*
X150692354Y-71484905D01*
X150552022Y-71497675D01*
X150552017Y-71497676D01*
X150547203Y-71498114D01*
X150349572Y-71556280D01*
X150345288Y-71558519D01*
X150345287Y-71558520D01*
X150334428Y-71564197D01*
X150167002Y-71651726D01*
X150163231Y-71654758D01*
X150010220Y-71777781D01*
X150010217Y-71777783D01*
X150006447Y-71780815D01*
X150003333Y-71784526D01*
X150003332Y-71784527D01*
X149994585Y-71794952D01*
X149874024Y-71938630D01*
X149871689Y-71942878D01*
X149871688Y-71942879D01*
X149864955Y-71955126D01*
X149774776Y-72119162D01*
X149712484Y-72315532D01*
X149711944Y-72320344D01*
X149711944Y-72320345D01*
X149710865Y-72329970D01*
X149689520Y-72520262D01*
X149259138Y-72520262D01*
X149240480Y-72329970D01*
X149180935Y-72132749D01*
X149084218Y-71950849D01*
X148954011Y-71791200D01*
X148795275Y-71659882D01*
X148614055Y-71561897D01*
X148550855Y-71542333D01*
X148421875Y-71502407D01*
X148421871Y-71502406D01*
X148417254Y-71500977D01*
X148412446Y-71500472D01*
X148412443Y-71500471D01*
X148217185Y-71479949D01*
X148217183Y-71479949D01*
X148212369Y-71479443D01*
X148152354Y-71484905D01*
X148012022Y-71497675D01*
X148012017Y-71497676D01*
X148007203Y-71498114D01*
X147809572Y-71556280D01*
X147805288Y-71558519D01*
X147805287Y-71558520D01*
X147794428Y-71564197D01*
X147627002Y-71651726D01*
X147623231Y-71654758D01*
X147470220Y-71777781D01*
X147470217Y-71777783D01*
X147466447Y-71780815D01*
X147463333Y-71784526D01*
X147463332Y-71784527D01*
X147454585Y-71794952D01*
X147334024Y-71938630D01*
X147331689Y-71942878D01*
X147331688Y-71942879D01*
X147324955Y-71955126D01*
X147234776Y-72119162D01*
X147172484Y-72315532D01*
X147171944Y-72320344D01*
X147171944Y-72320345D01*
X147170865Y-72329970D01*
X147149520Y-72520262D01*
X146719138Y-72520262D01*
X146700480Y-72329970D01*
X146640935Y-72132749D01*
X146544218Y-71950849D01*
X146414011Y-71791200D01*
X146255275Y-71659882D01*
X146074055Y-71561897D01*
X146010855Y-71542333D01*
X145881875Y-71502407D01*
X145881871Y-71502406D01*
X145877254Y-71500977D01*
X145872446Y-71500472D01*
X145872443Y-71500471D01*
X145677185Y-71479949D01*
X145677183Y-71479949D01*
X145672369Y-71479443D01*
X145612354Y-71484905D01*
X145472022Y-71497675D01*
X145472017Y-71497676D01*
X145467203Y-71498114D01*
X145269572Y-71556280D01*
X145265288Y-71558519D01*
X145265287Y-71558520D01*
X145254428Y-71564197D01*
X145087002Y-71651726D01*
X145083231Y-71654758D01*
X144930220Y-71777781D01*
X144930217Y-71777783D01*
X144926447Y-71780815D01*
X144923333Y-71784526D01*
X144923332Y-71784527D01*
X144914585Y-71794952D01*
X144794024Y-71938630D01*
X144791689Y-71942878D01*
X144791688Y-71942879D01*
X144784955Y-71955126D01*
X144694776Y-72119162D01*
X144632484Y-72315532D01*
X144631944Y-72320344D01*
X144631944Y-72320345D01*
X144630865Y-72329970D01*
X144609520Y-72520262D01*
X126100000Y-72520262D01*
X126100000Y-69980262D01*
X144609520Y-69980262D01*
X144626759Y-70185553D01*
X144683544Y-70383586D01*
X144777712Y-70566818D01*
X144905677Y-70728270D01*
X144909357Y-70731402D01*
X144909359Y-70731404D01*
X145022017Y-70827283D01*
X145062564Y-70861791D01*
X145066787Y-70864151D01*
X145066791Y-70864154D01*
X145183702Y-70929493D01*
X145242398Y-70962297D01*
X145246996Y-70963791D01*
X145433724Y-71024463D01*
X145433726Y-71024464D01*
X145438329Y-71025959D01*
X145642894Y-71050351D01*
X145647716Y-71049980D01*
X145647719Y-71049980D01*
X145724757Y-71044052D01*
X145848300Y-71034546D01*
X146046725Y-70979145D01*
X146051038Y-70976966D01*
X146051044Y-70976964D01*
X146226289Y-70888441D01*
X146226291Y-70888440D01*
X146230610Y-70886258D01*
X146265943Y-70858653D01*
X146389135Y-70762406D01*
X146389139Y-70762402D01*
X146392951Y-70759424D01*
X146527564Y-70603472D01*
X146546231Y-70570613D01*
X146626934Y-70428550D01*
X146626935Y-70428547D01*
X146629323Y-70424344D01*
X146642882Y-70383586D01*
X146692824Y-70233454D01*
X146692824Y-70233452D01*
X146694351Y-70228863D01*
X146720171Y-70024474D01*
X146720583Y-69995000D01*
X146719138Y-69980262D01*
X147149520Y-69980262D01*
X147166759Y-70185553D01*
X147223544Y-70383586D01*
X147317712Y-70566818D01*
X147445677Y-70728270D01*
X147449357Y-70731402D01*
X147449359Y-70731404D01*
X147562017Y-70827283D01*
X147602564Y-70861791D01*
X147606787Y-70864151D01*
X147606791Y-70864154D01*
X147723702Y-70929493D01*
X147782398Y-70962297D01*
X147786996Y-70963791D01*
X147973724Y-71024463D01*
X147973726Y-71024464D01*
X147978329Y-71025959D01*
X148182894Y-71050351D01*
X148187716Y-71049980D01*
X148187719Y-71049980D01*
X148264757Y-71044052D01*
X148388300Y-71034546D01*
X148586725Y-70979145D01*
X148591038Y-70976966D01*
X148591044Y-70976964D01*
X148766289Y-70888441D01*
X148766291Y-70888440D01*
X148770610Y-70886258D01*
X148805943Y-70858653D01*
X148929135Y-70762406D01*
X148929139Y-70762402D01*
X148932951Y-70759424D01*
X149067564Y-70603472D01*
X149086231Y-70570613D01*
X149166934Y-70428550D01*
X149166935Y-70428547D01*
X149169323Y-70424344D01*
X149182882Y-70383586D01*
X149232824Y-70233454D01*
X149232824Y-70233452D01*
X149234351Y-70228863D01*
X149260171Y-70024474D01*
X149260583Y-69995000D01*
X149259138Y-69980262D01*
X149689520Y-69980262D01*
X149706759Y-70185553D01*
X149763544Y-70383586D01*
X149857712Y-70566818D01*
X149985677Y-70728270D01*
X149989357Y-70731402D01*
X149989359Y-70731404D01*
X150102017Y-70827283D01*
X150142564Y-70861791D01*
X150146787Y-70864151D01*
X150146791Y-70864154D01*
X150263702Y-70929493D01*
X150322398Y-70962297D01*
X150326996Y-70963791D01*
X150513724Y-71024463D01*
X150513726Y-71024464D01*
X150518329Y-71025959D01*
X150722894Y-71050351D01*
X150727716Y-71049980D01*
X150727719Y-71049980D01*
X150804757Y-71044052D01*
X150928300Y-71034546D01*
X151126725Y-70979145D01*
X151131038Y-70976966D01*
X151131044Y-70976964D01*
X151306289Y-70888441D01*
X151306291Y-70888440D01*
X151310610Y-70886258D01*
X151345943Y-70858653D01*
X151469135Y-70762406D01*
X151469139Y-70762402D01*
X151472951Y-70759424D01*
X151607564Y-70603472D01*
X151626231Y-70570613D01*
X151706934Y-70428550D01*
X151706935Y-70428547D01*
X151709323Y-70424344D01*
X151722882Y-70383586D01*
X151772824Y-70233454D01*
X151772824Y-70233452D01*
X151774351Y-70228863D01*
X151800171Y-70024474D01*
X151800583Y-69995000D01*
X151799138Y-69980262D01*
X152229520Y-69980262D01*
X152246759Y-70185553D01*
X152303544Y-70383586D01*
X152397712Y-70566818D01*
X152525677Y-70728270D01*
X152529357Y-70731402D01*
X152529359Y-70731404D01*
X152642017Y-70827283D01*
X152682564Y-70861791D01*
X152686787Y-70864151D01*
X152686791Y-70864154D01*
X152803702Y-70929493D01*
X152862398Y-70962297D01*
X152866996Y-70963791D01*
X153053724Y-71024463D01*
X153053726Y-71024464D01*
X153058329Y-71025959D01*
X153262894Y-71050351D01*
X153267716Y-71049980D01*
X153267719Y-71049980D01*
X153344757Y-71044052D01*
X153468300Y-71034546D01*
X153666725Y-70979145D01*
X153671038Y-70976966D01*
X153671044Y-70976964D01*
X153846289Y-70888441D01*
X153846291Y-70888440D01*
X153850610Y-70886258D01*
X153884424Y-70859840D01*
X154775000Y-70859840D01*
X154775948Y-70869462D01*
X154784702Y-70913474D01*
X154792021Y-70931142D01*
X154825389Y-70981082D01*
X154838918Y-70994611D01*
X154888858Y-71027979D01*
X154906526Y-71035298D01*
X154950538Y-71044052D01*
X154960160Y-71045000D01*
X155359320Y-71045000D01*
X155372005Y-71040878D01*
X155375000Y-71036757D01*
X155375000Y-71029320D01*
X156275000Y-71029320D01*
X156279122Y-71042005D01*
X156283243Y-71045000D01*
X156689840Y-71045000D01*
X156699462Y-71044052D01*
X156743474Y-71035298D01*
X156761142Y-71027979D01*
X156811082Y-70994611D01*
X156824611Y-70981082D01*
X156857979Y-70931142D01*
X156865298Y-70913474D01*
X156874052Y-70869462D01*
X156875000Y-70859840D01*
X156875000Y-70460680D01*
X156870878Y-70447995D01*
X156866757Y-70445000D01*
X156290680Y-70445000D01*
X156277995Y-70449122D01*
X156275000Y-70453243D01*
X156275000Y-71029320D01*
X155375000Y-71029320D01*
X155375000Y-70460680D01*
X155370878Y-70447995D01*
X155366757Y-70445000D01*
X154790680Y-70445000D01*
X154777995Y-70449122D01*
X154775000Y-70453243D01*
X154775000Y-70859840D01*
X153884424Y-70859840D01*
X153885943Y-70858653D01*
X154009135Y-70762406D01*
X154009139Y-70762402D01*
X154012951Y-70759424D01*
X154147564Y-70603472D01*
X154166231Y-70570613D01*
X154246934Y-70428550D01*
X154246935Y-70428547D01*
X154249323Y-70424344D01*
X154262882Y-70383586D01*
X154312824Y-70233454D01*
X154312824Y-70233452D01*
X154314351Y-70228863D01*
X154340171Y-70024474D01*
X154340583Y-69995000D01*
X154320480Y-69789970D01*
X154260935Y-69592749D01*
X154227210Y-69529320D01*
X154775000Y-69529320D01*
X154779122Y-69542005D01*
X154783243Y-69545000D01*
X155359320Y-69545000D01*
X155372005Y-69540878D01*
X155375000Y-69536757D01*
X155375000Y-69529320D01*
X156275000Y-69529320D01*
X156279122Y-69542005D01*
X156283243Y-69545000D01*
X156859320Y-69545000D01*
X156872005Y-69540878D01*
X156875000Y-69536757D01*
X156875000Y-69130160D01*
X156874052Y-69120538D01*
X156865298Y-69076526D01*
X156857979Y-69058858D01*
X156824611Y-69008918D01*
X156811082Y-68995389D01*
X156761142Y-68962021D01*
X156743474Y-68954702D01*
X156699462Y-68945948D01*
X156689840Y-68945000D01*
X156290680Y-68945000D01*
X156277995Y-68949122D01*
X156275000Y-68953243D01*
X156275000Y-69529320D01*
X155375000Y-69529320D01*
X155375000Y-68960680D01*
X155370878Y-68947995D01*
X155366757Y-68945000D01*
X154960160Y-68945000D01*
X154950538Y-68945948D01*
X154906526Y-68954702D01*
X154888858Y-68962021D01*
X154838918Y-68995389D01*
X154825389Y-69008918D01*
X154792021Y-69058858D01*
X154784702Y-69076526D01*
X154775948Y-69120538D01*
X154775000Y-69130160D01*
X154775000Y-69529320D01*
X154227210Y-69529320D01*
X154164218Y-69410849D01*
X154034011Y-69251200D01*
X153941340Y-69174536D01*
X153879002Y-69122965D01*
X153879000Y-69122964D01*
X153875275Y-69119882D01*
X153694055Y-69021897D01*
X153630855Y-69002333D01*
X153501875Y-68962407D01*
X153501871Y-68962406D01*
X153497254Y-68960977D01*
X153492446Y-68960472D01*
X153492443Y-68960471D01*
X153297185Y-68939949D01*
X153297183Y-68939949D01*
X153292369Y-68939443D01*
X153232354Y-68944905D01*
X153092022Y-68957675D01*
X153092017Y-68957676D01*
X153087203Y-68958114D01*
X152889572Y-69016280D01*
X152885288Y-69018519D01*
X152885287Y-69018520D01*
X152874428Y-69024197D01*
X152707002Y-69111726D01*
X152703231Y-69114758D01*
X152550220Y-69237781D01*
X152550217Y-69237783D01*
X152546447Y-69240815D01*
X152543333Y-69244526D01*
X152543332Y-69244527D01*
X152534585Y-69254952D01*
X152414024Y-69398630D01*
X152411689Y-69402878D01*
X152411688Y-69402879D01*
X152404955Y-69415126D01*
X152314776Y-69579162D01*
X152252484Y-69775532D01*
X152251944Y-69780344D01*
X152251944Y-69780345D01*
X152250865Y-69789970D01*
X152229520Y-69980262D01*
X151799138Y-69980262D01*
X151780480Y-69789970D01*
X151720935Y-69592749D01*
X151624218Y-69410849D01*
X151494011Y-69251200D01*
X151401340Y-69174536D01*
X151339002Y-69122965D01*
X151339000Y-69122964D01*
X151335275Y-69119882D01*
X151154055Y-69021897D01*
X151090855Y-69002333D01*
X150961875Y-68962407D01*
X150961871Y-68962406D01*
X150957254Y-68960977D01*
X150952446Y-68960472D01*
X150952443Y-68960471D01*
X150757185Y-68939949D01*
X150757183Y-68939949D01*
X150752369Y-68939443D01*
X150692354Y-68944905D01*
X150552022Y-68957675D01*
X150552017Y-68957676D01*
X150547203Y-68958114D01*
X150349572Y-69016280D01*
X150345288Y-69018519D01*
X150345287Y-69018520D01*
X150334428Y-69024197D01*
X150167002Y-69111726D01*
X150163231Y-69114758D01*
X150010220Y-69237781D01*
X150010217Y-69237783D01*
X150006447Y-69240815D01*
X150003333Y-69244526D01*
X150003332Y-69244527D01*
X149994585Y-69254952D01*
X149874024Y-69398630D01*
X149871689Y-69402878D01*
X149871688Y-69402879D01*
X149864955Y-69415126D01*
X149774776Y-69579162D01*
X149712484Y-69775532D01*
X149711944Y-69780344D01*
X149711944Y-69780345D01*
X149710865Y-69789970D01*
X149689520Y-69980262D01*
X149259138Y-69980262D01*
X149240480Y-69789970D01*
X149180935Y-69592749D01*
X149084218Y-69410849D01*
X148954011Y-69251200D01*
X148861340Y-69174536D01*
X148799002Y-69122965D01*
X148799000Y-69122964D01*
X148795275Y-69119882D01*
X148614055Y-69021897D01*
X148550855Y-69002333D01*
X148421875Y-68962407D01*
X148421871Y-68962406D01*
X148417254Y-68960977D01*
X148412446Y-68960472D01*
X148412443Y-68960471D01*
X148217185Y-68939949D01*
X148217183Y-68939949D01*
X148212369Y-68939443D01*
X148152354Y-68944905D01*
X148012022Y-68957675D01*
X148012017Y-68957676D01*
X148007203Y-68958114D01*
X147809572Y-69016280D01*
X147805288Y-69018519D01*
X147805287Y-69018520D01*
X147794428Y-69024197D01*
X147627002Y-69111726D01*
X147623231Y-69114758D01*
X147470220Y-69237781D01*
X147470217Y-69237783D01*
X147466447Y-69240815D01*
X147463333Y-69244526D01*
X147463332Y-69244527D01*
X147454585Y-69254952D01*
X147334024Y-69398630D01*
X147331689Y-69402878D01*
X147331688Y-69402879D01*
X147324955Y-69415126D01*
X147234776Y-69579162D01*
X147172484Y-69775532D01*
X147171944Y-69780344D01*
X147171944Y-69780345D01*
X147170865Y-69789970D01*
X147149520Y-69980262D01*
X146719138Y-69980262D01*
X146700480Y-69789970D01*
X146640935Y-69592749D01*
X146544218Y-69410849D01*
X146414011Y-69251200D01*
X146321340Y-69174536D01*
X146259002Y-69122965D01*
X146259000Y-69122964D01*
X146255275Y-69119882D01*
X146074055Y-69021897D01*
X146010855Y-69002333D01*
X145881875Y-68962407D01*
X145881871Y-68962406D01*
X145877254Y-68960977D01*
X145872446Y-68960472D01*
X145872443Y-68960471D01*
X145677185Y-68939949D01*
X145677183Y-68939949D01*
X145672369Y-68939443D01*
X145612354Y-68944905D01*
X145472022Y-68957675D01*
X145472017Y-68957676D01*
X145467203Y-68958114D01*
X145269572Y-69016280D01*
X145265288Y-69018519D01*
X145265287Y-69018520D01*
X145254428Y-69024197D01*
X145087002Y-69111726D01*
X145083231Y-69114758D01*
X144930220Y-69237781D01*
X144930217Y-69237783D01*
X144926447Y-69240815D01*
X144923333Y-69244526D01*
X144923332Y-69244527D01*
X144914585Y-69254952D01*
X144794024Y-69398630D01*
X144791689Y-69402878D01*
X144791688Y-69402879D01*
X144784955Y-69415126D01*
X144694776Y-69579162D01*
X144632484Y-69775532D01*
X144631944Y-69780344D01*
X144631944Y-69780345D01*
X144630865Y-69789970D01*
X144609520Y-69980262D01*
X126100000Y-69980262D01*
X126100000Y-68650000D01*
X137104318Y-68650000D01*
X137124956Y-68806762D01*
X137185464Y-68952841D01*
X137281718Y-69078282D01*
X137407159Y-69174536D01*
X137553238Y-69235044D01*
X137710000Y-69255682D01*
X137866762Y-69235044D01*
X138012841Y-69174536D01*
X138138282Y-69078282D01*
X138234536Y-68952841D01*
X138295044Y-68806762D01*
X138315682Y-68650000D01*
X138295044Y-68493238D01*
X138234536Y-68347159D01*
X138138282Y-68221718D01*
X138012841Y-68125464D01*
X137866762Y-68064956D01*
X137710000Y-68044318D01*
X137553238Y-68064956D01*
X137407159Y-68125464D01*
X137281718Y-68221718D01*
X137185464Y-68347159D01*
X137124956Y-68493238D01*
X137104318Y-68650000D01*
X126100000Y-68650000D01*
X126100000Y-66559752D01*
X126101902Y-66540439D01*
X126115188Y-66473644D01*
X126129970Y-66437956D01*
X126162282Y-66389597D01*
X126189597Y-66362282D01*
X126237956Y-66329970D01*
X126273644Y-66315188D01*
X126340439Y-66301902D01*
X126359752Y-66300000D01*
X184840248Y-66300000D01*
X184859561Y-66301902D01*
G37*
%TD.AperFunction*%
%TD*%
M02*
