%TF.GenerationSoftware,KiCad,Pcbnew,(6.0.8)*%
%TF.CreationDate,2022-10-25T21:38:08+02:00*%
%TF.ProjectId,stm_v3,73746d5f-7633-42e6-9b69-6361645f7063,rev?*%
%TF.SameCoordinates,Original*%
%TF.FileFunction,Legend,Top*%
%TF.FilePolarity,Positive*%
%FSLAX46Y46*%
G04 Gerber Fmt 4.6, Leading zero omitted, Abs format (unit mm)*
G04 Created by KiCad (PCBNEW (6.0.8)) date 2022-10-25 21:38:08*
%MOMM*%
%LPD*%
G01*
G04 APERTURE LIST*
G04 Aperture macros list*
%AMRoundRect*
0 Rectangle with rounded corners*
0 $1 Rounding radius*
0 $2 $3 $4 $5 $6 $7 $8 $9 X,Y pos of 4 corners*
0 Add a 4 corners polygon primitive as box body*
4,1,4,$2,$3,$4,$5,$6,$7,$8,$9,$2,$3,0*
0 Add four circle primitives for the rounded corners*
1,1,$1+$1,$2,$3*
1,1,$1+$1,$4,$5*
1,1,$1+$1,$6,$7*
1,1,$1+$1,$8,$9*
0 Add four rect primitives between the rounded corners*
20,1,$1+$1,$2,$3,$4,$5,0*
20,1,$1+$1,$4,$5,$6,$7,0*
20,1,$1+$1,$6,$7,$8,$9,0*
20,1,$1+$1,$8,$9,$2,$3,0*%
%AMFreePoly0*
4,1,35,0.480400,3.549708,0.582399,3.538627,0.594550,3.535737,0.720657,3.488462,0.733092,3.481655,0.840862,3.400887,0.850887,3.390862,0.931655,3.283092,0.938462,3.270657,0.985737,3.144550,0.988627,3.132399,0.999708,3.030400,1.000000,3.025000,1.000000,-3.500000,0.985355,-3.535355,0.950000,-3.550000,-0.950000,-3.550000,-0.985355,-3.535355,-1.000000,-3.500000,-1.000000,3.025000,
-0.999708,3.030400,-0.988627,3.132399,-0.985737,3.144550,-0.938462,3.270657,-0.931655,3.283092,-0.850887,3.390862,-0.840862,3.400887,-0.733092,3.481655,-0.720657,3.488462,-0.594550,3.535737,-0.582399,3.538627,-0.480400,3.549708,-0.475000,3.550000,0.475000,3.550000,0.480400,3.549708,0.480400,3.549708,$1*%
G04 Aperture macros list end*
%ADD10C,0.150000*%
%ADD11C,0.505116*%
%ADD12C,0.120000*%
%ADD13C,0.100000*%
%ADD14RoundRect,0.190000X-0.140000X-0.170000X0.140000X-0.170000X0.140000X0.170000X-0.140000X0.170000X0*%
%ADD15RoundRect,0.575000X-0.525000X-2.025000X0.525000X-2.025000X0.525000X2.025000X-0.525000X2.025000X0*%
%ADD16RoundRect,0.125000X-0.075000X-0.700000X0.075000X-0.700000X0.075000X0.700000X-0.075000X0.700000X0*%
%ADD17RoundRect,0.125000X-0.700000X-0.075000X0.700000X-0.075000X0.700000X0.075000X-0.700000X0.075000X0*%
%ADD18RoundRect,0.185000X0.135000X0.185000X-0.135000X0.185000X-0.135000X-0.185000X0.135000X-0.185000X0*%
%ADD19RoundRect,0.210000X0.160000X-0.197500X0.160000X0.197500X-0.160000X0.197500X-0.160000X-0.197500X0*%
%ADD20RoundRect,0.205000X0.212500X0.155000X-0.212500X0.155000X-0.212500X-0.155000X0.212500X-0.155000X0*%
%ADD21RoundRect,0.205000X-0.212500X-0.155000X0.212500X-0.155000X0.212500X0.155000X-0.212500X0.155000X0*%
%ADD22RoundRect,0.200000X-0.350000X0.600000X-0.350000X-0.600000X0.350000X-0.600000X0.350000X0.600000X0*%
%ADD23RoundRect,0.190000X0.140000X0.170000X-0.140000X0.170000X-0.140000X-0.170000X0.140000X-0.170000X0*%
%ADD24RoundRect,0.250000X-0.200000X-0.275000X0.200000X-0.275000X0.200000X0.275000X-0.200000X0.275000X0*%
%ADD25RoundRect,0.050000X-0.600000X0.700000X-0.600000X-0.700000X0.600000X-0.700000X0.600000X0.700000X0*%
%ADD26RoundRect,0.268750X-0.218750X-0.256250X0.218750X-0.256250X0.218750X0.256250X-0.218750X0.256250X0*%
%ADD27RoundRect,0.190000X-0.170000X0.140000X-0.170000X-0.140000X0.170000X-0.140000X0.170000X0.140000X0*%
%ADD28RoundRect,0.275000X0.225000X0.250000X-0.225000X0.250000X-0.225000X-0.250000X0.225000X-0.250000X0*%
%ADD29RoundRect,0.185000X-0.135000X-0.185000X0.135000X-0.185000X0.135000X0.185000X-0.135000X0.185000X0*%
%ADD30FreePoly0,90.000000*%
%ADD31RoundRect,0.250000X0.275000X-0.200000X0.275000X0.200000X-0.275000X0.200000X-0.275000X-0.200000X0*%
%ADD32RoundRect,0.185000X0.185000X-0.135000X0.185000X0.135000X-0.185000X0.135000X-0.185000X-0.135000X0*%
%ADD33RoundRect,0.205000X0.155000X-0.212500X0.155000X0.212500X-0.155000X0.212500X-0.155000X-0.212500X0*%
%ADD34RoundRect,0.300000X0.650000X-0.325000X0.650000X0.325000X-0.650000X0.325000X-0.650000X-0.325000X0*%
%ADD35RoundRect,0.185000X-0.185000X0.135000X-0.185000X-0.135000X0.185000X-0.135000X0.185000X0.135000X0*%
%ADD36RoundRect,0.230000X0.420000X0.620000X-0.420000X0.620000X-0.420000X-0.620000X0.420000X-0.620000X0*%
%ADD37RoundRect,0.050000X-0.850000X-0.850000X0.850000X-0.850000X0.850000X0.850000X-0.850000X0.850000X0*%
%ADD38O,1.800000X1.800000*%
%ADD39RoundRect,0.190000X0.170000X-0.140000X0.170000X0.140000X-0.170000X0.140000X-0.170000X-0.140000X0*%
%ADD40RoundRect,0.275000X-0.250000X0.225000X-0.250000X-0.225000X0.250000X-0.225000X0.250000X0.225000X0*%
%ADD41RoundRect,0.200000X-0.150000X0.587500X-0.150000X-0.587500X0.150000X-0.587500X0.150000X0.587500X0*%
%ADD42RoundRect,0.205000X-0.155000X0.212500X-0.155000X-0.212500X0.155000X-0.212500X0.155000X0.212500X0*%
%ADD43RoundRect,0.250000X-0.275000X0.200000X-0.275000X-0.200000X0.275000X-0.200000X0.275000X0.200000X0*%
%ADD44RoundRect,0.200000X0.512500X0.150000X-0.512500X0.150000X-0.512500X-0.150000X0.512500X-0.150000X0*%
%ADD45RoundRect,0.070000X-0.300000X0.650000X-0.300000X-0.650000X0.300000X-0.650000X0.300000X0.650000X0*%
%ADD46RoundRect,0.200000X-0.825000X-0.150000X0.825000X-0.150000X0.825000X0.150000X-0.825000X0.150000X0*%
G04 APERTURE END LIST*
D10*
X146505714Y-96012857D02*
X146477142Y-95984285D01*
X146448571Y-95898571D01*
X146448571Y-95841428D01*
X146477142Y-95755714D01*
X146534285Y-95698571D01*
X146591428Y-95670000D01*
X146705714Y-95641428D01*
X146791428Y-95641428D01*
X146905714Y-95670000D01*
X146962857Y-95698571D01*
X147020000Y-95755714D01*
X147048571Y-95841428D01*
X147048571Y-95898571D01*
X147020000Y-95984285D01*
X146991428Y-96012857D01*
X146448571Y-96555714D02*
X146448571Y-96270000D01*
X147048571Y-96270000D01*
X146448571Y-96755714D02*
X147048571Y-96755714D01*
X146448571Y-97098571D02*
X146791428Y-96841428D01*
X147048571Y-97098571D02*
X146705714Y-96755714D01*
D11*
X147870058Y-73510000D02*
G75*
G03*
X147870058Y-73510000I-252558J0D01*
G01*
D10*
X146477142Y-98011428D02*
X146448571Y-98097142D01*
X146448571Y-98240000D01*
X146477142Y-98297142D01*
X146505714Y-98325714D01*
X146562857Y-98354285D01*
X146620000Y-98354285D01*
X146677142Y-98325714D01*
X146705714Y-98297142D01*
X146734285Y-98240000D01*
X146762857Y-98125714D01*
X146791428Y-98068571D01*
X146820000Y-98040000D01*
X146877142Y-98011428D01*
X146934285Y-98011428D01*
X146991428Y-98040000D01*
X147020000Y-98068571D01*
X147048571Y-98125714D01*
X147048571Y-98268571D01*
X147020000Y-98354285D01*
X147048571Y-98554285D02*
X146448571Y-98697142D01*
X146877142Y-98811428D01*
X146448571Y-98925714D01*
X147048571Y-99068571D01*
X147048571Y-99411428D02*
X147048571Y-99525714D01*
X147020000Y-99582857D01*
X146962857Y-99640000D01*
X146848571Y-99668571D01*
X146648571Y-99668571D01*
X146534285Y-99640000D01*
X146477142Y-99582857D01*
X146448571Y-99525714D01*
X146448571Y-99411428D01*
X146477142Y-99354285D01*
X146534285Y-99297142D01*
X146648571Y-99268571D01*
X146848571Y-99268571D01*
X146962857Y-99297142D01*
X147020000Y-99354285D01*
X147048571Y-99411428D01*
X154770000Y-103700476D02*
X154808095Y-103624285D01*
X154808095Y-103510000D01*
X154770000Y-103395714D01*
X154693809Y-103319523D01*
X154617619Y-103281428D01*
X154465238Y-103243333D01*
X154350952Y-103243333D01*
X154198571Y-103281428D01*
X154122380Y-103319523D01*
X154046190Y-103395714D01*
X154008095Y-103510000D01*
X154008095Y-103586190D01*
X154046190Y-103700476D01*
X154084285Y-103738571D01*
X154350952Y-103738571D01*
X154350952Y-103586190D01*
X154008095Y-104081428D02*
X154808095Y-104081428D01*
X154008095Y-104538571D01*
X154808095Y-104538571D01*
X154008095Y-104919523D02*
X154808095Y-104919523D01*
X154808095Y-105110000D01*
X154770000Y-105224285D01*
X154693809Y-105300476D01*
X154617619Y-105338571D01*
X154465238Y-105376666D01*
X154350952Y-105376666D01*
X154198571Y-105338571D01*
X154122380Y-105300476D01*
X154046190Y-105224285D01*
X154008095Y-105110000D01*
X154008095Y-104919523D01*
X146448571Y-103044285D02*
X147048571Y-103044285D01*
X146448571Y-103387142D01*
X147048571Y-103387142D01*
X146448571Y-104015714D02*
X146734285Y-103815714D01*
X146448571Y-103672857D02*
X147048571Y-103672857D01*
X147048571Y-103901428D01*
X147020000Y-103958571D01*
X146991428Y-103987142D01*
X146934285Y-104015714D01*
X146848571Y-104015714D01*
X146791428Y-103987142D01*
X146762857Y-103958571D01*
X146734285Y-103901428D01*
X146734285Y-103672857D01*
X146477142Y-104244285D02*
X146448571Y-104330000D01*
X146448571Y-104472857D01*
X146477142Y-104530000D01*
X146505714Y-104558571D01*
X146562857Y-104587142D01*
X146620000Y-104587142D01*
X146677142Y-104558571D01*
X146705714Y-104530000D01*
X146734285Y-104472857D01*
X146762857Y-104358571D01*
X146791428Y-104301428D01*
X146820000Y-104272857D01*
X146877142Y-104244285D01*
X146934285Y-104244285D01*
X146991428Y-104272857D01*
X147020000Y-104301428D01*
X147048571Y-104358571D01*
X147048571Y-104501428D01*
X147020000Y-104587142D01*
X147048571Y-104758571D02*
X147048571Y-105101428D01*
X146448571Y-104930000D02*
X147048571Y-104930000D01*
X161227142Y-69514285D02*
X161189047Y-69628571D01*
X161150952Y-69666666D01*
X161074761Y-69704761D01*
X160960476Y-69704761D01*
X160884285Y-69666666D01*
X160846190Y-69628571D01*
X160808095Y-69552380D01*
X160808095Y-69247619D01*
X161608095Y-69247619D01*
X161608095Y-69514285D01*
X161570000Y-69590476D01*
X161531904Y-69628571D01*
X161455714Y-69666666D01*
X161379523Y-69666666D01*
X161303333Y-69628571D01*
X161265238Y-69590476D01*
X161227142Y-69514285D01*
X161227142Y-69247619D01*
X161608095Y-70200000D02*
X161608095Y-70352380D01*
X161570000Y-70428571D01*
X161493809Y-70504761D01*
X161341428Y-70542857D01*
X161074761Y-70542857D01*
X160922380Y-70504761D01*
X160846190Y-70428571D01*
X160808095Y-70352380D01*
X160808095Y-70200000D01*
X160846190Y-70123809D01*
X160922380Y-70047619D01*
X161074761Y-70009523D01*
X161341428Y-70009523D01*
X161493809Y-70047619D01*
X161570000Y-70123809D01*
X161608095Y-70200000D01*
X161608095Y-71038095D02*
X161608095Y-71190476D01*
X161570000Y-71266666D01*
X161493809Y-71342857D01*
X161341428Y-71380952D01*
X161074761Y-71380952D01*
X160922380Y-71342857D01*
X160846190Y-71266666D01*
X160808095Y-71190476D01*
X160808095Y-71038095D01*
X160846190Y-70961904D01*
X160922380Y-70885714D01*
X161074761Y-70847619D01*
X161341428Y-70847619D01*
X161493809Y-70885714D01*
X161570000Y-70961904D01*
X161608095Y-71038095D01*
X161608095Y-71609523D02*
X161608095Y-72066666D01*
X160808095Y-71838095D02*
X161608095Y-71838095D01*
X149594114Y-82308934D02*
X150099191Y-82814011D01*
X150166534Y-82948698D01*
X150166534Y-83083385D01*
X150099191Y-83218072D01*
X150031847Y-83285415D01*
X150974656Y-82342606D02*
X150637939Y-82679324D01*
X149930832Y-81972217D01*
X151547076Y-81635499D02*
X151547076Y-81702843D01*
X151479733Y-81837530D01*
X151412389Y-81904873D01*
X151277702Y-81972217D01*
X151143015Y-81972217D01*
X151042000Y-81938545D01*
X150873641Y-81837530D01*
X150772626Y-81736514D01*
X150671611Y-81568156D01*
X150637939Y-81467140D01*
X150637939Y-81332453D01*
X150705282Y-81197766D01*
X150772626Y-81130423D01*
X150907313Y-81063079D01*
X150974656Y-81063079D01*
X151412389Y-80490660D02*
X151917465Y-80995736D01*
X151984809Y-81130423D01*
X151984809Y-81265110D01*
X151917465Y-81399797D01*
X151850122Y-81467140D01*
X152792931Y-80524331D02*
X152456213Y-80861049D01*
X151749107Y-80153942D01*
X153365351Y-79817225D02*
X153365351Y-79884568D01*
X153298007Y-80019255D01*
X153230664Y-80086599D01*
X153095977Y-80153942D01*
X152961290Y-80153942D01*
X152860274Y-80120270D01*
X152691916Y-80019255D01*
X152590900Y-79918240D01*
X152489885Y-79749881D01*
X152456213Y-79648866D01*
X152456213Y-79514179D01*
X152523557Y-79379492D01*
X152590900Y-79312148D01*
X152725587Y-79244805D01*
X152792931Y-79244805D01*
X153230664Y-78672385D02*
X153735740Y-79177461D01*
X153803083Y-79312148D01*
X153803083Y-79446835D01*
X153735740Y-79581522D01*
X153668396Y-79648866D01*
X154611205Y-78706057D02*
X154274488Y-79042774D01*
X153567381Y-78335668D01*
X155183625Y-77998950D02*
X155183625Y-78066294D01*
X155116282Y-78200981D01*
X155048938Y-78268324D01*
X154914251Y-78335668D01*
X154779564Y-78335668D01*
X154678549Y-78301996D01*
X154510190Y-78200981D01*
X154409175Y-78099965D01*
X154308160Y-77931607D01*
X154274488Y-77830591D01*
X154274488Y-77695904D01*
X154341831Y-77561217D01*
X154409175Y-77493874D01*
X154543862Y-77426530D01*
X154611205Y-77426530D01*
X155048938Y-76854111D02*
X155554014Y-77359187D01*
X155621358Y-77493874D01*
X155621358Y-77628561D01*
X155554014Y-77763248D01*
X155486671Y-77830591D01*
X156429480Y-76887782D02*
X156092763Y-77224500D01*
X155385656Y-76517393D01*
X157001900Y-76180675D02*
X157001900Y-76248019D01*
X156934556Y-76382706D01*
X156867213Y-76450049D01*
X156732526Y-76517393D01*
X156597839Y-76517393D01*
X156496824Y-76483721D01*
X156328465Y-76382706D01*
X156227450Y-76281691D01*
X156126434Y-76113332D01*
X156092763Y-76012317D01*
X156092763Y-75877630D01*
X156160106Y-75742943D01*
X156227450Y-75675599D01*
X156362137Y-75608256D01*
X156429480Y-75608256D01*
X146477142Y-92428571D02*
X146448571Y-92514285D01*
X146448571Y-92657142D01*
X146477142Y-92714285D01*
X146505714Y-92742857D01*
X146562857Y-92771428D01*
X146620000Y-92771428D01*
X146677142Y-92742857D01*
X146705714Y-92714285D01*
X146734285Y-92657142D01*
X146762857Y-92542857D01*
X146791428Y-92485714D01*
X146820000Y-92457142D01*
X146877142Y-92428571D01*
X146934285Y-92428571D01*
X146991428Y-92457142D01*
X147020000Y-92485714D01*
X147048571Y-92542857D01*
X147048571Y-92685714D01*
X147020000Y-92771428D01*
X147048571Y-92971428D02*
X146448571Y-93114285D01*
X146877142Y-93228571D01*
X146448571Y-93342857D01*
X147048571Y-93485714D01*
X146448571Y-93714285D02*
X147048571Y-93714285D01*
X147048571Y-93857142D01*
X147020000Y-93942857D01*
X146962857Y-94000000D01*
X146905714Y-94028571D01*
X146791428Y-94057142D01*
X146705714Y-94057142D01*
X146591428Y-94028571D01*
X146534285Y-94000000D01*
X146477142Y-93942857D01*
X146448571Y-93857142D01*
X146448571Y-93714285D01*
X146448571Y-94314285D02*
X147048571Y-94314285D01*
X147048571Y-94714285D02*
X147048571Y-94828571D01*
X147020000Y-94885714D01*
X146962857Y-94942857D01*
X146848571Y-94971428D01*
X146648571Y-94971428D01*
X146534285Y-94942857D01*
X146477142Y-94885714D01*
X146448571Y-94828571D01*
X146448571Y-94714285D01*
X146477142Y-94657142D01*
X146534285Y-94600000D01*
X146648571Y-94571428D01*
X146848571Y-94571428D01*
X146962857Y-94600000D01*
X147020000Y-94657142D01*
X147048571Y-94714285D01*
X154046190Y-98078571D02*
X154008095Y-98192857D01*
X154008095Y-98383333D01*
X154046190Y-98459523D01*
X154084285Y-98497619D01*
X154160476Y-98535714D01*
X154236666Y-98535714D01*
X154312857Y-98497619D01*
X154350952Y-98459523D01*
X154389047Y-98383333D01*
X154427142Y-98230952D01*
X154465238Y-98154761D01*
X154503333Y-98116666D01*
X154579523Y-98078571D01*
X154655714Y-98078571D01*
X154731904Y-98116666D01*
X154770000Y-98154761D01*
X154808095Y-98230952D01*
X154808095Y-98421428D01*
X154770000Y-98535714D01*
X154008095Y-98878571D02*
X154808095Y-98878571D01*
X154808095Y-99069047D01*
X154770000Y-99183333D01*
X154693809Y-99259523D01*
X154617619Y-99297619D01*
X154465238Y-99335714D01*
X154350952Y-99335714D01*
X154198571Y-99297619D01*
X154122380Y-99259523D01*
X154046190Y-99183333D01*
X154008095Y-99069047D01*
X154008095Y-98878571D01*
X154236666Y-99640476D02*
X154236666Y-100021428D01*
X154008095Y-99564285D02*
X154808095Y-99830952D01*
X154008095Y-100097619D01*
X139888095Y-84198095D02*
X140269047Y-83931428D01*
X139888095Y-83740952D02*
X140688095Y-83740952D01*
X140688095Y-84045714D01*
X140650000Y-84121904D01*
X140611904Y-84160000D01*
X140535714Y-84198095D01*
X140421428Y-84198095D01*
X140345238Y-84160000D01*
X140307142Y-84121904D01*
X140269047Y-84045714D01*
X140269047Y-83740952D01*
X140307142Y-84540952D02*
X140307142Y-84807619D01*
X139888095Y-84921904D02*
X139888095Y-84540952D01*
X140688095Y-84540952D01*
X140688095Y-84921904D01*
X139926190Y-85226666D02*
X139888095Y-85340952D01*
X139888095Y-85531428D01*
X139926190Y-85607619D01*
X139964285Y-85645714D01*
X140040476Y-85683809D01*
X140116666Y-85683809D01*
X140192857Y-85645714D01*
X140230952Y-85607619D01*
X140269047Y-85531428D01*
X140307142Y-85379047D01*
X140345238Y-85302857D01*
X140383333Y-85264761D01*
X140459523Y-85226666D01*
X140535714Y-85226666D01*
X140611904Y-85264761D01*
X140650000Y-85302857D01*
X140688095Y-85379047D01*
X140688095Y-85569523D01*
X140650000Y-85683809D01*
X140307142Y-86026666D02*
X140307142Y-86293333D01*
X139888095Y-86407619D02*
X139888095Y-86026666D01*
X140688095Y-86026666D01*
X140688095Y-86407619D01*
X140688095Y-86636190D02*
X140688095Y-87093333D01*
X139888095Y-86864761D02*
X140688095Y-86864761D01*
X154046190Y-100677618D02*
X154008095Y-100791903D01*
X154008095Y-100982379D01*
X154046190Y-101058570D01*
X154084285Y-101096665D01*
X154160476Y-101134760D01*
X154236666Y-101134760D01*
X154312857Y-101096665D01*
X154350952Y-101058570D01*
X154389047Y-100982379D01*
X154427142Y-100829999D01*
X154465238Y-100753808D01*
X154503333Y-100715713D01*
X154579523Y-100677618D01*
X154655714Y-100677618D01*
X154731904Y-100715713D01*
X154770000Y-100753808D01*
X154808095Y-100829999D01*
X154808095Y-101020475D01*
X154770000Y-101134760D01*
X154084285Y-101934760D02*
X154046190Y-101896665D01*
X154008095Y-101782379D01*
X154008095Y-101706189D01*
X154046190Y-101591903D01*
X154122380Y-101515713D01*
X154198571Y-101477618D01*
X154350952Y-101439522D01*
X154465238Y-101439522D01*
X154617619Y-101477618D01*
X154693809Y-101515713D01*
X154770000Y-101591903D01*
X154808095Y-101706189D01*
X154808095Y-101782379D01*
X154770000Y-101896665D01*
X154731904Y-101934760D01*
X154008095Y-102658570D02*
X154008095Y-102277618D01*
X154808095Y-102277618D01*
X154808095Y-95343333D02*
X154008095Y-95610000D01*
X154808095Y-95876666D01*
X154084285Y-96600476D02*
X154046190Y-96562380D01*
X154008095Y-96448095D01*
X154008095Y-96371904D01*
X154046190Y-96257619D01*
X154122380Y-96181428D01*
X154198571Y-96143333D01*
X154350952Y-96105238D01*
X154465238Y-96105238D01*
X154617619Y-96143333D01*
X154693809Y-96181428D01*
X154770000Y-96257619D01*
X154808095Y-96371904D01*
X154808095Y-96448095D01*
X154770000Y-96562380D01*
X154731904Y-96600476D01*
X154084285Y-97400476D02*
X154046190Y-97362380D01*
X154008095Y-97248095D01*
X154008095Y-97171904D01*
X154046190Y-97057619D01*
X154122380Y-96981428D01*
X154198571Y-96943333D01*
X154350952Y-96905238D01*
X154465238Y-96905238D01*
X154617619Y-96943333D01*
X154693809Y-96981428D01*
X154770000Y-97057619D01*
X154808095Y-97171904D01*
X154808095Y-97248095D01*
X154770000Y-97362380D01*
X154731904Y-97400476D01*
D12*
%TO.C,C10*%
X146279664Y-83950000D02*
X146495336Y-83950000D01*
X146279664Y-84670000D02*
X146495336Y-84670000D01*
%TO.C,L1*%
X164670000Y-98480000D02*
X171370000Y-98480000D01*
X171370000Y-98480000D02*
X171370000Y-105180000D01*
X171370000Y-105180000D02*
X164670000Y-105180000D01*
X164670000Y-105180000D02*
X164670000Y-98480000D01*
%TO.C,U1*%
X157537500Y-84420000D02*
X158487500Y-84420000D01*
X158487500Y-84420000D02*
X158487500Y-83470000D01*
X148267500Y-84420000D02*
X148267500Y-83470000D01*
X158487500Y-74200000D02*
X158487500Y-75150000D01*
X149217500Y-74200000D02*
X148267500Y-74200000D01*
X148267500Y-74200000D02*
X148267500Y-75150000D01*
X149217500Y-84420000D02*
X148267500Y-84420000D01*
X148267500Y-75150000D02*
X146927500Y-75150000D01*
X157537500Y-74200000D02*
X158487500Y-74200000D01*
%TO.C,R23*%
X158673641Y-90550000D02*
X158366359Y-90550000D01*
X158673641Y-89790000D02*
X158366359Y-89790000D01*
%TO.C,R22*%
X161243641Y-90550000D02*
X160936359Y-90550000D01*
X161243641Y-89790000D02*
X160936359Y-89790000D01*
%TO.C,R14*%
X156610000Y-93047621D02*
X156610000Y-92712379D01*
X155850000Y-93047621D02*
X155850000Y-92712379D01*
%TO.C,R13*%
X156610000Y-97067621D02*
X156610000Y-96732379D01*
X155850000Y-97067621D02*
X155850000Y-96732379D01*
%TO.C,C9*%
X140933335Y-81020000D02*
X140701665Y-81020000D01*
X140933335Y-80300000D02*
X140701665Y-80300000D01*
%TO.C,C8*%
X140651665Y-74300000D02*
X140883335Y-74300000D01*
X140651665Y-75020000D02*
X140883335Y-75020000D01*
%TO.C,SW1*%
X144760000Y-82340000D02*
X141160000Y-82340000D01*
X141160000Y-82340000D02*
X141160000Y-88340000D01*
X141160000Y-88340000D02*
X144760000Y-88340000D01*
X144760000Y-88340000D02*
X144760000Y-82340000D01*
%TO.C,C3*%
X157385336Y-87420000D02*
X157169664Y-87420000D01*
X157385336Y-86700000D02*
X157169664Y-86700000D01*
%TO.C,R7*%
X143732742Y-91702500D02*
X144207258Y-91702500D01*
X143732742Y-90657500D02*
X144207258Y-90657500D01*
%TO.C,Y1*%
X142407500Y-75610000D02*
X139107500Y-75610000D01*
X139107500Y-75610000D02*
X139107500Y-79610000D01*
%TO.C,C5*%
X149539664Y-71080000D02*
X149755336Y-71080000D01*
X149539664Y-71800000D02*
X149755336Y-71800000D01*
%TO.C,D2*%
X149172500Y-89635000D02*
X151457500Y-89635000D01*
X149172500Y-88165000D02*
X149172500Y-89635000D01*
X151457500Y-88165000D02*
X149172500Y-88165000D01*
%TO.C,C16*%
X164550000Y-93412164D02*
X164550000Y-93627836D01*
X165270000Y-93412164D02*
X165270000Y-93627836D01*
%TO.C,C1*%
X146338080Y-70940000D02*
X146056920Y-70940000D01*
X146338080Y-71960000D02*
X146056920Y-71960000D01*
%TO.C,R4*%
X164366359Y-73840000D02*
X164673641Y-73840000D01*
X164366359Y-73080000D02*
X164673641Y-73080000D01*
%TO.C,R8*%
X145812500Y-94867258D02*
X145812500Y-94392742D01*
X144767500Y-94867258D02*
X144767500Y-94392742D01*
%TO.C,R2*%
X176180000Y-83173641D02*
X176180000Y-82866359D01*
X175420000Y-83173641D02*
X175420000Y-82866359D01*
%TO.C,R9*%
X145812500Y-99757258D02*
X145812500Y-99282742D01*
X144767500Y-99757258D02*
X144767500Y-99282742D01*
%TO.C,R11*%
X150396359Y-92400000D02*
X150703641Y-92400000D01*
X150396359Y-93160000D02*
X150703641Y-93160000D01*
%TO.C,R19*%
X163946359Y-80700000D02*
X164253641Y-80700000D01*
X163946359Y-81460000D02*
X164253641Y-81460000D01*
%TO.C,C13*%
X175440000Y-80855835D02*
X175440000Y-80624165D01*
X176160000Y-80855835D02*
X176160000Y-80624165D01*
%TO.C,C18*%
X161720000Y-102081252D02*
X161720000Y-100658748D01*
X163540000Y-102081252D02*
X163540000Y-100658748D01*
%TO.C,R20*%
X168576359Y-88000000D02*
X168883641Y-88000000D01*
X168576359Y-88760000D02*
X168883641Y-88760000D01*
%TO.C,R21*%
X169610000Y-85426359D02*
X169610000Y-85733641D01*
X168850000Y-85426359D02*
X168850000Y-85733641D01*
%TO.C,R17*%
X166056359Y-88000000D02*
X166363641Y-88000000D01*
X166056359Y-88760000D02*
X166363641Y-88760000D01*
%TO.C,R12*%
X153333641Y-93140000D02*
X153026359Y-93140000D01*
X153333641Y-92380000D02*
X153026359Y-92380000D01*
%TO.C,R16*%
X162923641Y-88760000D02*
X162616359Y-88760000D01*
X162923641Y-88000000D02*
X162616359Y-88000000D01*
%TO.C,SW2*%
X171255000Y-72350000D02*
X162205000Y-72350000D01*
X162205000Y-72350000D02*
X162205000Y-68850000D01*
X162205000Y-68850000D02*
X171255000Y-68850000D01*
X171255000Y-68850000D02*
X171255000Y-72350000D01*
%TO.C,J1*%
X150500000Y-96580000D02*
X150500000Y-95250000D01*
X150500000Y-105530000D02*
X153160000Y-105530000D01*
X150500000Y-97850000D02*
X150500000Y-105530000D01*
X150500000Y-97850000D02*
X153160000Y-97850000D01*
X153160000Y-97850000D02*
X153160000Y-105530000D01*
X150500000Y-95250000D02*
X151830000Y-95250000D01*
%TO.C,C19*%
X160900000Y-102091252D02*
X160900000Y-100668748D01*
X159080000Y-102091252D02*
X159080000Y-100668748D01*
%TO.C,C17*%
X159052164Y-96770000D02*
X159267836Y-96770000D01*
X159052164Y-96050000D02*
X159267836Y-96050000D01*
%TO.C,R3*%
X144063859Y-79090000D02*
X144371141Y-79090000D01*
X144063859Y-78330000D02*
X144371141Y-78330000D01*
%TO.C,C11*%
X164620000Y-77597836D02*
X164620000Y-77382164D01*
X165340000Y-77597836D02*
X165340000Y-77382164D01*
%TO.C,C14*%
X165890000Y-93439420D02*
X165890000Y-93720580D01*
X166910000Y-93439420D02*
X166910000Y-93720580D01*
%TO.C,Q2*%
X165180000Y-84677500D02*
X165180000Y-84027500D01*
X165180000Y-84677500D02*
X165180000Y-85327500D01*
X168300000Y-84677500D02*
X168300000Y-83002500D01*
X168300000Y-84677500D02*
X168300000Y-85327500D01*
%TO.C,C12*%
X171840000Y-83944165D02*
X171840000Y-84175835D01*
X171120000Y-83944165D02*
X171120000Y-84175835D01*
%TO.C,R6*%
X148477500Y-100592742D02*
X148477500Y-101067258D01*
X149522500Y-100592742D02*
X149522500Y-101067258D01*
%TO.C,C4*%
X161727500Y-75382164D02*
X161727500Y-75597836D01*
X161007500Y-75382164D02*
X161007500Y-75597836D01*
%TO.C,R18*%
X161657500Y-80316359D02*
X161657500Y-80623641D01*
X160897500Y-80316359D02*
X160897500Y-80623641D01*
%TO.C,Q1*%
X163820000Y-84647500D02*
X163820000Y-82972500D01*
X163820000Y-84647500D02*
X163820000Y-85297500D01*
X160700000Y-84647500D02*
X160700000Y-85297500D01*
X160700000Y-84647500D02*
X160700000Y-83997500D01*
%TO.C,R15*%
X148717500Y-88246359D02*
X148717500Y-88553641D01*
X147957500Y-88246359D02*
X147957500Y-88553641D01*
%TO.C,U3*%
X159930000Y-92070000D02*
X159130000Y-92070000D01*
X159930000Y-95190000D02*
X159130000Y-95190000D01*
X159930000Y-92070000D02*
X160730000Y-92070000D01*
X159930000Y-95190000D02*
X161730000Y-95190000D01*
%TO.C,G\u002A\u002A\u002A*%
G36*
X177144226Y-68912414D02*
G01*
X177144226Y-73895906D01*
X172144095Y-73895906D01*
X172144095Y-70235244D01*
X172951104Y-70235244D01*
X174490246Y-70235244D01*
X174490246Y-71648204D01*
X174490279Y-71800282D01*
X174490375Y-71947866D01*
X174490530Y-72090098D01*
X174490742Y-72226117D01*
X174491007Y-72355065D01*
X174491322Y-72476082D01*
X174491682Y-72588310D01*
X174492086Y-72690888D01*
X174492528Y-72782958D01*
X174493006Y-72863660D01*
X174493517Y-72932136D01*
X174494057Y-72987525D01*
X174494622Y-73028968D01*
X174495209Y-73055607D01*
X174495815Y-73066582D01*
X174495898Y-73066817D01*
X174505262Y-73068081D01*
X174529319Y-73069122D01*
X174566126Y-73069918D01*
X174613739Y-73070444D01*
X174670213Y-73070679D01*
X174733605Y-73070598D01*
X174789167Y-73070283D01*
X175076784Y-73068097D01*
X175080944Y-72044597D01*
X175085103Y-71021096D01*
X175112785Y-70964871D01*
X175133388Y-70929310D01*
X175159278Y-70893086D01*
X175181307Y-70867805D01*
X175223117Y-70833446D01*
X175275070Y-70801794D01*
X175330682Y-70776254D01*
X175383470Y-70760227D01*
X175387827Y-70759374D01*
X175405778Y-70757617D01*
X175438981Y-70756019D01*
X175486051Y-70754602D01*
X175545602Y-70753390D01*
X175616248Y-70752408D01*
X175696603Y-70751677D01*
X175785282Y-70751221D01*
X175880769Y-70751065D01*
X176328896Y-70751065D01*
X176328896Y-70235244D01*
X174498787Y-70235244D01*
X174496596Y-69954455D01*
X174494406Y-69673665D01*
X172951104Y-69669419D01*
X172951104Y-70235244D01*
X172144095Y-70235244D01*
X172144095Y-68912414D01*
X177144226Y-68912414D01*
G37*
%TO.C,R10*%
X144767500Y-104607258D02*
X144767500Y-104132742D01*
X145812500Y-104607258D02*
X145812500Y-104132742D01*
%TO.C,R1*%
X173383641Y-83870000D02*
X173076359Y-83870000D01*
X173383641Y-83110000D02*
X173076359Y-83110000D01*
%TO.C,J2*%
X141275000Y-95165000D02*
X141275000Y-92565000D01*
X138675000Y-105385000D02*
X143875000Y-105385000D01*
X141275000Y-92565000D02*
X143875000Y-92565000D01*
X138675000Y-92565000D02*
X140005000Y-92565000D01*
X138675000Y-93895000D02*
X138675000Y-92565000D01*
X138675000Y-95165000D02*
X138675000Y-105385000D01*
X138675000Y-95165000D02*
X141275000Y-95165000D01*
X143875000Y-92565000D02*
X143875000Y-105385000D01*
D13*
%TO.C,D1*%
X176845000Y-85775000D02*
X176845000Y-85000000D01*
X176895000Y-85775000D02*
X176845000Y-85775000D01*
X173870000Y-87425000D02*
X173870000Y-86975000D01*
X177170000Y-86425000D02*
X177170000Y-86150000D01*
X174095000Y-87425000D02*
X174220000Y-87425000D01*
X173870000Y-85775000D02*
X174220000Y-85775000D01*
X173870000Y-86250000D02*
X173870000Y-85775000D01*
X174170000Y-87425000D02*
X173870000Y-87425000D01*
X177170000Y-86150000D02*
X176895000Y-85775000D01*
X177170000Y-87050000D02*
X177170000Y-87425000D01*
X177170000Y-87425000D02*
X176870000Y-87425000D01*
D12*
%TO.C,C7*%
X145067500Y-81487836D02*
X145067500Y-81272164D01*
X145787500Y-81487836D02*
X145787500Y-81272164D01*
%TO.C,C6*%
X145437500Y-75167836D02*
X145437500Y-74952164D01*
X146157500Y-75167836D02*
X146157500Y-74952164D01*
%TO.C,U2*%
X169430000Y-80070000D02*
X171380000Y-80070000D01*
X169430000Y-80070000D02*
X167480000Y-80070000D01*
X169430000Y-74950000D02*
X171380000Y-74950000D01*
X169430000Y-74950000D02*
X165980000Y-74950000D01*
%TO.C,C15*%
X167710000Y-93449420D02*
X167710000Y-93730580D01*
X168730000Y-93449420D02*
X168730000Y-93730580D01*
%TO.C,R5*%
X148477500Y-97282742D02*
X148477500Y-97757258D01*
X149522500Y-97282742D02*
X149522500Y-97757258D01*
%TO.C,C2*%
X150535336Y-87430000D02*
X150319664Y-87430000D01*
X150535336Y-86710000D02*
X150319664Y-86710000D01*
%TD*%
%LPC*%
D14*
%TO.C,C10*%
X145907500Y-84310000D03*
X146867500Y-84310000D03*
%TD*%
D15*
%TO.C,L1*%
X170220000Y-101830000D03*
X165820000Y-101830000D03*
%TD*%
D16*
%TO.C,U1*%
X149627500Y-73635000D03*
X150127500Y-73635000D03*
X150627500Y-73635000D03*
X151127500Y-73635000D03*
X151627500Y-73635000D03*
X152127500Y-73635000D03*
X152627500Y-73635000D03*
X153127500Y-73635000D03*
X153627500Y-73635000D03*
X154127500Y-73635000D03*
X154627500Y-73635000D03*
X155127500Y-73635000D03*
X155627500Y-73635000D03*
X156127500Y-73635000D03*
X156627500Y-73635000D03*
X157127500Y-73635000D03*
D17*
X159052500Y-75560000D03*
X159052500Y-76060000D03*
X159052500Y-76560000D03*
X159052500Y-77060000D03*
X159052500Y-77560000D03*
X159052500Y-78060000D03*
X159052500Y-78560000D03*
X159052500Y-79060000D03*
X159052500Y-79560000D03*
X159052500Y-80060000D03*
X159052500Y-80560000D03*
X159052500Y-81060000D03*
X159052500Y-81560000D03*
X159052500Y-82060000D03*
X159052500Y-82560000D03*
X159052500Y-83060000D03*
D16*
X157127500Y-84985000D03*
X156627500Y-84985000D03*
X156127500Y-84985000D03*
X155627500Y-84985000D03*
X155127500Y-84985000D03*
X154627500Y-84985000D03*
X154127500Y-84985000D03*
X153627500Y-84985000D03*
X153127500Y-84985000D03*
X152627500Y-84985000D03*
X152127500Y-84985000D03*
X151627500Y-84985000D03*
X151127500Y-84985000D03*
X150627500Y-84985000D03*
X150127500Y-84985000D03*
X149627500Y-84985000D03*
D17*
X147702500Y-83060000D03*
X147702500Y-82560000D03*
X147702500Y-82060000D03*
X147702500Y-81560000D03*
X147702500Y-81060000D03*
X147702500Y-80560000D03*
X147702500Y-80060000D03*
X147702500Y-79560000D03*
X147702500Y-79060000D03*
X147702500Y-78560000D03*
X147702500Y-78060000D03*
X147702500Y-77560000D03*
X147702500Y-77060000D03*
X147702500Y-76560000D03*
X147702500Y-76060000D03*
X147702500Y-75560000D03*
%TD*%
D18*
%TO.C,R23*%
X159030000Y-90170000D03*
X158010000Y-90170000D03*
%TD*%
%TO.C,R22*%
X161600000Y-90170000D03*
X160580000Y-90170000D03*
%TD*%
D19*
%TO.C,R14*%
X156230000Y-92282500D03*
X156230000Y-93477500D03*
%TD*%
%TO.C,R13*%
X156230000Y-96302500D03*
X156230000Y-97497500D03*
%TD*%
D20*
%TO.C,C9*%
X141385000Y-80660000D03*
X140250000Y-80660000D03*
%TD*%
D21*
%TO.C,C8*%
X140200000Y-74660000D03*
X141335000Y-74660000D03*
%TD*%
D22*
%TO.C,SW1*%
X142960000Y-89290000D03*
X142960000Y-81390000D03*
%TD*%
D23*
%TO.C,C3*%
X156797500Y-87060000D03*
X157757500Y-87060000D03*
%TD*%
D24*
%TO.C,R7*%
X143145000Y-91180000D03*
X144795000Y-91180000D03*
%TD*%
D25*
%TO.C,Y1*%
X139907500Y-76510000D03*
X139907500Y-78710000D03*
X141607500Y-78710000D03*
X141607500Y-76510000D03*
%TD*%
D14*
%TO.C,C5*%
X150127500Y-71440000D03*
X149167500Y-71440000D03*
%TD*%
D26*
%TO.C,D2*%
X151445000Y-88900000D03*
X149870000Y-88900000D03*
%TD*%
D27*
%TO.C,C16*%
X164910000Y-93040000D03*
X164910000Y-94000000D03*
%TD*%
D28*
%TO.C,C1*%
X145422500Y-71450000D03*
X146972500Y-71450000D03*
%TD*%
D29*
%TO.C,R4*%
X164010000Y-73460000D03*
X165030000Y-73460000D03*
%TD*%
D30*
%TO.C,J3*%
X181760000Y-70900000D03*
X181760000Y-75300000D03*
X181760000Y-79700000D03*
X181760000Y-84100000D03*
X181760000Y-88500000D03*
X181760000Y-92900000D03*
X181760000Y-97300000D03*
X181760000Y-101700000D03*
%TD*%
D31*
%TO.C,R8*%
X145290000Y-95455000D03*
X145290000Y-93805000D03*
%TD*%
D32*
%TO.C,R2*%
X175800000Y-83530000D03*
X175800000Y-82510000D03*
%TD*%
D31*
%TO.C,R9*%
X145290000Y-100345000D03*
X145290000Y-98695000D03*
%TD*%
D29*
%TO.C,R11*%
X151060000Y-92780000D03*
X150040000Y-92780000D03*
%TD*%
%TO.C,R19*%
X163590000Y-81080000D03*
X164610000Y-81080000D03*
%TD*%
D33*
%TO.C,C13*%
X175800000Y-80172500D03*
X175800000Y-81307500D03*
%TD*%
D34*
%TO.C,C18*%
X162630000Y-102845000D03*
X162630000Y-99895000D03*
%TD*%
D29*
%TO.C,R20*%
X169240000Y-88380000D03*
X168220000Y-88380000D03*
%TD*%
D35*
%TO.C,R21*%
X169230000Y-86090000D03*
X169230000Y-85070000D03*
%TD*%
D29*
%TO.C,R17*%
X166720000Y-88380000D03*
X165700000Y-88380000D03*
%TD*%
D18*
%TO.C,R12*%
X152670000Y-92760000D03*
X153690000Y-92760000D03*
%TD*%
%TO.C,R16*%
X162260000Y-88380000D03*
X163280000Y-88380000D03*
%TD*%
D36*
%TO.C,SW2*%
X164230000Y-67750000D03*
X166730000Y-73450000D03*
X169230000Y-67750000D03*
%TD*%
D37*
%TO.C,J1*%
X151830000Y-96580000D03*
D38*
X151830000Y-99120000D03*
X151830000Y-101660000D03*
X151830000Y-104200000D03*
%TD*%
D34*
%TO.C,C19*%
X159990000Y-102855000D03*
X159990000Y-99905000D03*
%TD*%
D14*
%TO.C,C17*%
X158680000Y-96410000D03*
X159640000Y-96410000D03*
%TD*%
D29*
%TO.C,R3*%
X144727500Y-78710000D03*
X143707500Y-78710000D03*
%TD*%
D39*
%TO.C,C11*%
X164980000Y-77970000D03*
X164980000Y-77010000D03*
%TD*%
D40*
%TO.C,C14*%
X166400000Y-92805000D03*
X166400000Y-94355000D03*
%TD*%
D41*
%TO.C,Q2*%
X167690000Y-83740000D03*
X165790000Y-83740000D03*
X166740000Y-85615000D03*
%TD*%
D42*
%TO.C,C12*%
X171480000Y-83492500D03*
X171480000Y-84627500D03*
%TD*%
D43*
%TO.C,R6*%
X149000000Y-100005000D03*
X149000000Y-101655000D03*
%TD*%
D27*
%TO.C,C4*%
X161367500Y-75970000D03*
X161367500Y-75010000D03*
%TD*%
D35*
%TO.C,R18*%
X161277500Y-79960000D03*
X161277500Y-80980000D03*
%TD*%
D41*
%TO.C,Q1*%
X162260000Y-85585000D03*
X161310000Y-83710000D03*
X163210000Y-83710000D03*
%TD*%
D35*
%TO.C,R15*%
X148337500Y-88910000D03*
X148337500Y-87890000D03*
%TD*%
D44*
%TO.C,U3*%
X161067500Y-94580000D03*
X161067500Y-93630000D03*
X161067500Y-92680000D03*
X158792500Y-92680000D03*
X158792500Y-93630000D03*
X158792500Y-94580000D03*
%TD*%
D31*
%TO.C,R10*%
X145290000Y-105195000D03*
X145290000Y-103545000D03*
%TD*%
D18*
%TO.C,R1*%
X173740000Y-83490000D03*
X172720000Y-83490000D03*
%TD*%
D37*
%TO.C,J2*%
X140005000Y-93895000D03*
D38*
X142545000Y-93895000D03*
X140005000Y-96435000D03*
X142545000Y-96435000D03*
X140005000Y-98975000D03*
X142545000Y-98975000D03*
X140005000Y-101515000D03*
X142545000Y-101515000D03*
X140005000Y-104055000D03*
X142545000Y-104055000D03*
%TD*%
D45*
%TO.C,D1*%
X176470000Y-85550000D03*
X174570000Y-85550000D03*
X175520000Y-87650000D03*
%TD*%
D39*
%TO.C,C7*%
X145427500Y-80900000D03*
X145427500Y-81860000D03*
%TD*%
%TO.C,C6*%
X145797500Y-74580000D03*
X145797500Y-75540000D03*
%TD*%
D46*
%TO.C,U2*%
X166955000Y-75605000D03*
X166955000Y-76875000D03*
X166955000Y-78145000D03*
X166955000Y-79415000D03*
X171905000Y-79415000D03*
X171905000Y-78145000D03*
X171905000Y-76875000D03*
X171905000Y-75605000D03*
%TD*%
D40*
%TO.C,C15*%
X168220000Y-92815000D03*
X168220000Y-94365000D03*
%TD*%
D43*
%TO.C,R5*%
X149000000Y-96695000D03*
X149000000Y-98345000D03*
%TD*%
D23*
%TO.C,C2*%
X149947500Y-87070000D03*
X150907500Y-87070000D03*
%TD*%
M02*
