%TF.GenerationSoftware,KiCad,Pcbnew,(6.0.8)*%
%TF.CreationDate,2022-10-27T10:51:24+02:00*%
%TF.ProjectId,stm_v3,73746d5f-7633-42e6-9b69-6361645f7063,rev?*%
%TF.SameCoordinates,Original*%
%TF.FileFunction,Copper,L4,Bot*%
%TF.FilePolarity,Positive*%
%FSLAX46Y46*%
G04 Gerber Fmt 4.6, Leading zero omitted, Abs format (unit mm)*
G04 Created by KiCad (PCBNEW (6.0.8)) date 2022-10-27 10:51:24*
%MOMM*%
%LPD*%
G01*
G04 APERTURE LIST*
G04 Aperture macros list*
%AMFreePoly0*
4,1,17,-0.950000,3.025000,-0.941586,3.114006,-0.894789,3.247267,-0.810876,3.360876,-0.697267,3.444789,-0.564006,3.491586,-0.475000,3.500000,0.475000,3.500000,0.564006,3.491586,0.697267,3.444789,0.810876,3.360876,0.894789,3.247267,0.941586,3.114006,0.950000,3.025000,0.950000,-3.500000,-0.950000,-3.500000,-0.950000,3.025000,-0.950000,3.025000,$1*%
G04 Aperture macros list end*
%TA.AperFunction,ComponentPad*%
%ADD10O,1.000000X1.000000*%
%TD*%
%TA.AperFunction,ComponentPad*%
%ADD11R,1.000000X1.000000*%
%TD*%
%TA.AperFunction,ConnectorPad*%
%ADD12FreePoly0,90.000000*%
%TD*%
%TA.AperFunction,ComponentPad*%
%ADD13R,1.700000X1.700000*%
%TD*%
%TA.AperFunction,ComponentPad*%
%ADD14O,1.700000X1.700000*%
%TD*%
%TA.AperFunction,ViaPad*%
%ADD15C,0.800000*%
%TD*%
%TA.AperFunction,Conductor*%
%ADD16C,0.500000*%
%TD*%
%TA.AperFunction,Conductor*%
%ADD17C,1.250000*%
%TD*%
%TA.AperFunction,Conductor*%
%ADD18C,0.300000*%
%TD*%
G04 APERTURE END LIST*
D10*
%TO.P,SW4,2,2*%
%TO.N,GND*%
X140450000Y-70920000D03*
D11*
%TO.P,SW4,1,1*%
%TO.N,MENU_BTN*%
X140450000Y-69650000D03*
%TD*%
D10*
%TO.P,SW3,2,2*%
%TO.N,GND*%
X163910000Y-71380001D03*
D11*
%TO.P,SW3,1,1*%
%TO.N,LCD_BTN*%
X163910000Y-70110001D03*
%TD*%
D12*
%TO.P,J3,9,NC*%
%TO.N,unconnected-(J3-Pad9)*%
X181760000Y-70900000D03*
%TO.P,J3,10,J1850_BUS-*%
%TO.N,unconnected-(J3-Pad10)*%
X181760000Y-75300000D03*
%TO.P,J3,11,NC*%
%TO.N,unconnected-(J3-Pad11)*%
X181760000Y-79700000D03*
%TO.P,J3,12,NC*%
%TO.N,unconnected-(J3-Pad12)*%
X181760000Y-84100000D03*
%TO.P,J3,13,NC*%
%TO.N,unconnected-(J3-Pad13)*%
X181760000Y-88500000D03*
%TO.P,J3,14,CAN_L*%
%TO.N,CAN_L*%
X181760000Y-92900000D03*
%TO.P,J3,15,L_Line*%
%TO.N,ISO_L*%
X181760000Y-97300000D03*
%TO.P,J3,16,+12*%
%TO.N,+12V*%
X181760000Y-101700000D03*
%TD*%
D13*
%TO.P,J1,1,Pin_1*%
%TO.N,+3.3V*%
X151760000Y-94640000D03*
D14*
%TO.P,J1,2,Pin_2*%
%TO.N,/Connectors/SDA*%
X151760000Y-97180000D03*
%TO.P,J1,3,Pin_3*%
%TO.N,/Connectors/SCL*%
X151760000Y-99720000D03*
%TO.P,J1,4,Pin_4*%
%TO.N,GND*%
X151760000Y-102260000D03*
%TD*%
D13*
%TO.P,J2,1,Pin_1*%
%TO.N,+3.3V*%
X139935000Y-92060000D03*
D14*
%TO.P,J2,2,Pin_2*%
%TO.N,/Connectors/SW_DIO*%
X142475000Y-92060000D03*
%TO.P,J2,3,Pin_3*%
%TO.N,GND*%
X139935000Y-94600000D03*
%TO.P,J2,4,Pin_4*%
%TO.N,/Connectors/SW_CLK*%
X142475000Y-94600000D03*
%TO.P,J2,5,Pin_5*%
%TO.N,GND*%
X139935000Y-97140000D03*
%TO.P,J2,6,Pin_6*%
%TO.N,/Connectors/SW_O*%
X142475000Y-97140000D03*
%TO.P,J2,7,Pin_7*%
%TO.N,unconnected-(J2-Pad7)*%
X139935000Y-99680000D03*
%TO.P,J2,8,Pin_8*%
%TO.N,unconnected-(J2-Pad8)*%
X142475000Y-99680000D03*
%TO.P,J2,9,Pin_9*%
%TO.N,GND*%
X139935000Y-102220000D03*
%TO.P,J2,10,Pin_10*%
%TO.N,/Connectors/N_RST*%
X142475000Y-102220000D03*
%TD*%
D15*
%TO.N,BOOT0*%
X151400000Y-70770000D03*
X165000000Y-73280000D03*
%TO.N,+3.3V*%
X142960000Y-72990000D03*
%TO.N,MENU_BTN*%
X142950000Y-69660000D03*
X152300000Y-69100000D03*
%TO.N,+3.3V*%
X159970000Y-69440000D03*
X154590000Y-90800000D03*
X158757500Y-85905000D03*
X151807500Y-85905000D03*
X161307500Y-72885000D03*
X168627610Y-73022389D03*
X157840000Y-101155000D03*
X145357500Y-81655000D03*
X144787500Y-74405000D03*
X157840000Y-102055000D03*
X157860000Y-100175000D03*
X157860000Y-99275000D03*
X165505000Y-78085000D03*
X146890000Y-69370000D03*
X148407500Y-69305000D03*
X149960000Y-89750000D03*
%TO.N,GND*%
X175460000Y-87795000D03*
X164605000Y-76275000D03*
X175760000Y-77935000D03*
X156160000Y-90245000D03*
X145787500Y-72505000D03*
X161250000Y-80802500D03*
X139097500Y-79505000D03*
X161960000Y-97445000D03*
X164630000Y-94455000D03*
X162470000Y-94105000D03*
X168280000Y-94455000D03*
X141910000Y-86970000D03*
X141207500Y-72605000D03*
X149007500Y-85905000D03*
X162207500Y-74855000D03*
X182210000Y-86300000D03*
X156757500Y-86805000D03*
X145260000Y-86970000D03*
X167330000Y-94455000D03*
X162960000Y-97445000D03*
X159410000Y-97395000D03*
X142857500Y-75305000D03*
X166430000Y-94455000D03*
X156910000Y-89015000D03*
X178860000Y-86300000D03*
X183860000Y-86300000D03*
X144240000Y-70570000D03*
X173277610Y-72982389D03*
X144457500Y-79755000D03*
X160410000Y-97395000D03*
X180560000Y-86300000D03*
X169160000Y-82795000D03*
X138507500Y-77605000D03*
X150057500Y-69405000D03*
X165720000Y-81012499D03*
X165530000Y-94455000D03*
X172657500Y-85915000D03*
%TO.N,+12V*%
X172230000Y-92575000D03*
X172230000Y-91305000D03*
%TO.N,CAN_L*%
X175200000Y-89415000D03*
%TO.N,ISO_L*%
X161270000Y-87215000D03*
%TO.N,SWDIO*%
X157477500Y-75405000D03*
X146070000Y-89335000D03*
%TO.N,SWCLK*%
X145220000Y-90735000D03*
X157967500Y-72205000D03*
%TO.N,SWO*%
X154057500Y-73955000D03*
X145220000Y-95565000D03*
%TO.N,BAT_V*%
X153557500Y-82175000D03*
X159710000Y-87895000D03*
%TO.N,CAN_S*%
X170765000Y-74885000D03*
X157417500Y-78915000D03*
%TO.N,/Power Supply/SW*%
X162420000Y-92505000D03*
X169730000Y-96165000D03*
X160670000Y-95235000D03*
X163320000Y-92505000D03*
X169730000Y-95025000D03*
X170730000Y-96165000D03*
X170730000Y-95025000D03*
%TO.N,KLine_RX*%
X157307500Y-76905000D03*
X168330500Y-85985000D03*
%TD*%
D16*
%TO.N,ISO_L*%
X180430000Y-97300000D02*
X181760000Y-97300000D01*
X170345000Y-87215000D02*
X180430000Y-97300000D01*
D17*
%TO.N,+12V*%
X174610000Y-95290000D02*
X172230000Y-92910000D01*
X176140000Y-101700000D02*
X174610000Y-100170000D01*
X172230000Y-92910000D02*
X172230000Y-92575000D01*
X181760000Y-101700000D02*
X176140000Y-101700000D01*
X174610000Y-100170000D02*
X174610000Y-95290000D01*
D16*
%TO.N,CAN_L*%
X178685000Y-92900000D02*
X181760000Y-92900000D01*
X175200000Y-89415000D02*
X178685000Y-92900000D01*
D18*
%TO.N,MENU_BTN*%
X151755000Y-68555000D02*
X144055000Y-68555000D01*
X144055000Y-68555000D02*
X142950000Y-69660000D01*
X152300000Y-69100000D02*
X151755000Y-68555000D01*
%TO.N,BOOT0*%
X163410000Y-73280000D02*
X165000000Y-73280000D01*
X161730000Y-71600000D02*
X163410000Y-73280000D01*
X158300267Y-70770000D02*
X159130267Y-71600000D01*
X159130267Y-71600000D02*
X161730000Y-71600000D01*
X151400000Y-70770000D02*
X158300267Y-70770000D01*
D17*
%TO.N,+12V*%
X172230000Y-91305000D02*
X172230000Y-92575000D01*
D16*
%TO.N,ISO_L*%
X170345000Y-87215000D02*
X161270000Y-87215000D01*
D18*
%TO.N,SWDIO*%
X152892894Y-71305000D02*
X158128161Y-71305000D01*
X158128161Y-71305000D02*
X158717500Y-71894339D01*
X158717500Y-71894339D02*
X158717500Y-74165000D01*
X150010000Y-86570000D02*
X150010000Y-74187894D01*
X146070000Y-89335000D02*
X147245000Y-89335000D01*
X158717500Y-74165000D02*
X157477500Y-75405000D01*
X147245000Y-89335000D02*
X150010000Y-86570000D01*
X150010000Y-74187894D02*
X152892894Y-71305000D01*
%TO.N,SWCLK*%
X152730000Y-72175000D02*
X150510000Y-74395000D01*
X150510000Y-86912106D02*
X146687106Y-90735000D01*
X146687106Y-90735000D02*
X145220000Y-90735000D01*
X157937500Y-72175000D02*
X152730000Y-72175000D01*
X157967500Y-72205000D02*
X157937500Y-72175000D01*
X150510000Y-74395000D02*
X150510000Y-86912106D01*
%TO.N,SWO*%
X151010000Y-74602106D02*
X151010000Y-87119212D01*
X145230000Y-95555000D02*
X145220000Y-95565000D01*
X151010000Y-87119212D02*
X145230000Y-92899212D01*
X154057500Y-73955000D02*
X151657106Y-73955000D01*
X145230000Y-92899212D02*
X145230000Y-95555000D01*
X151657106Y-73955000D02*
X151010000Y-74602106D01*
%TO.N,BAT_V*%
X153557500Y-82175000D02*
X157152894Y-82175000D01*
X157152894Y-82175000D02*
X159710000Y-84732106D01*
X159710000Y-84732106D02*
X159710000Y-87895000D01*
%TO.N,CAN_S*%
X166735000Y-78915000D02*
X170765000Y-74885000D01*
X157417500Y-78915000D02*
X166735000Y-78915000D01*
D16*
%TO.N,/Power Supply/SW*%
X162840000Y-95235000D02*
X160670000Y-95235000D01*
X163320000Y-92505000D02*
X163320000Y-94755000D01*
X163320000Y-94755000D02*
X162840000Y-95235000D01*
D18*
%TO.N,KLine_RX*%
X156470000Y-77135000D02*
X156700000Y-76905000D01*
X156470000Y-80785000D02*
X156470000Y-77135000D01*
X156700000Y-76905000D02*
X157307500Y-76905000D01*
X168330500Y-85985000D02*
X161670000Y-85985000D01*
X161670000Y-85985000D02*
X156470000Y-80785000D01*
%TD*%
%TA.AperFunction,Conductor*%
%TO.N,/Power Supply/SW*%
G36*
X171139561Y-91886902D02*
G01*
X171206356Y-91900188D01*
X171242044Y-91914970D01*
X171290403Y-91947282D01*
X171317718Y-91974597D01*
X171350030Y-92022956D01*
X171364812Y-92058644D01*
X171378098Y-92125439D01*
X171380000Y-92144752D01*
X171380000Y-96605248D01*
X171378098Y-96624561D01*
X171364812Y-96691356D01*
X171350030Y-96727044D01*
X171317718Y-96775403D01*
X171290403Y-96802718D01*
X171242044Y-96835030D01*
X171206356Y-96849812D01*
X171139561Y-96863098D01*
X171120248Y-96865000D01*
X169319752Y-96865000D01*
X169300439Y-96863098D01*
X169233644Y-96849812D01*
X169197956Y-96835030D01*
X169149597Y-96802718D01*
X169122282Y-96775403D01*
X169089970Y-96727044D01*
X169075188Y-96691356D01*
X169061902Y-96624561D01*
X169060000Y-96605248D01*
X169060000Y-93105000D01*
X162179752Y-93105000D01*
X162160439Y-93103098D01*
X162093644Y-93089812D01*
X162057956Y-93075030D01*
X162009597Y-93042718D01*
X161982282Y-93015403D01*
X161949970Y-92967044D01*
X161935188Y-92931356D01*
X161921902Y-92864561D01*
X161920000Y-92845248D01*
X161920000Y-92144752D01*
X161921902Y-92125439D01*
X161935188Y-92058644D01*
X161949970Y-92022956D01*
X161982282Y-91974597D01*
X162009597Y-91947282D01*
X162057956Y-91914970D01*
X162093644Y-91900188D01*
X162160439Y-91886902D01*
X162179752Y-91885000D01*
X171120248Y-91885000D01*
X171139561Y-91886902D01*
G37*
%TD.AperFunction*%
%TD*%
M02*
