%TF.GenerationSoftware,KiCad,Pcbnew,(6.0.8)*%
%TF.CreationDate,2022-10-31T19:22:44+01:00*%
%TF.ProjectId,stm_v3,73746d5f-7633-42e6-9b69-6361645f7063,rev?*%
%TF.SameCoordinates,Original*%
%TF.FileFunction,Legend,Bot*%
%TF.FilePolarity,Positive*%
%FSLAX46Y46*%
G04 Gerber Fmt 4.6, Leading zero omitted, Abs format (unit mm)*
G04 Created by KiCad (PCBNEW (6.0.8)) date 2022-10-31 19:22:44*
%MOMM*%
%LPD*%
G01*
G04 APERTURE LIST*
G04 Aperture macros list*
%AMRoundRect*
0 Rectangle with rounded corners*
0 $1 Rounding radius*
0 $2 $3 $4 $5 $6 $7 $8 $9 X,Y pos of 4 corners*
0 Add a 4 corners polygon primitive as box body*
4,1,4,$2,$3,$4,$5,$6,$7,$8,$9,$2,$3,0*
0 Add four circle primitives for the rounded corners*
1,1,$1+$1,$2,$3*
1,1,$1+$1,$4,$5*
1,1,$1+$1,$6,$7*
1,1,$1+$1,$8,$9*
0 Add four rect primitives between the rounded corners*
20,1,$1+$1,$2,$3,$4,$5,0*
20,1,$1+$1,$4,$5,$6,$7,0*
20,1,$1+$1,$6,$7,$8,$9,0*
20,1,$1+$1,$8,$9,$2,$3,0*%
%AMFreePoly0*
4,1,31,0.382218,2.049476,0.489351,2.033847,0.504091,2.029292,0.614722,1.975214,0.628088,1.965679,0.715237,1.878682,0.724795,1.865332,0.779065,1.754796,0.783653,1.740021,0.799470,1.632261,0.800000,1.625000,0.800000,-2.000000,0.785355,-2.035355,0.750000,-2.050000,-0.750000,-2.050000,-0.785355,-2.035355,-0.800000,-2.000000,-0.800000,1.625000,-0.799476,1.632218,-0.783847,1.739351,
-0.779292,1.754091,-0.725214,1.864722,-0.715679,1.878088,-0.628682,1.965237,-0.615332,1.974795,-0.504796,2.029065,-0.490021,2.033653,-0.382261,2.049470,-0.375000,2.050000,0.375000,2.050000,0.382218,2.049476,0.382218,2.049476,$1*%
G04 Aperture macros list end*
%ADD10C,0.150000*%
%ADD11RoundRect,0.050000X-0.500000X-0.500000X0.500000X-0.500000X0.500000X0.500000X-0.500000X0.500000X0*%
%ADD12O,1.100000X1.100000*%
%ADD13FreePoly0,90.000000*%
%ADD14C,0.900000*%
%ADD15RoundRect,0.050000X-0.850000X-0.850000X0.850000X-0.850000X0.850000X0.850000X-0.850000X0.850000X0*%
%ADD16O,1.800000X1.800000*%
G04 APERTURE END LIST*
D10*
X132312380Y-90956666D02*
X132312380Y-90337619D01*
X132693333Y-90670952D01*
X132693333Y-90528095D01*
X132740952Y-90432857D01*
X132788571Y-90385238D01*
X132883809Y-90337619D01*
X133121904Y-90337619D01*
X133217142Y-90385238D01*
X133264761Y-90432857D01*
X133312380Y-90528095D01*
X133312380Y-90813809D01*
X133264761Y-90909047D01*
X133217142Y-90956666D01*
X132312380Y-90004285D02*
X132312380Y-89337619D01*
X133312380Y-89766190D01*
X133217142Y-88956666D02*
X133264761Y-88909047D01*
X133312380Y-88956666D01*
X133264761Y-89004285D01*
X133217142Y-88956666D01*
X133312380Y-88956666D01*
X132740952Y-88337619D02*
X132693333Y-88432857D01*
X132645714Y-88480476D01*
X132550476Y-88528095D01*
X132502857Y-88528095D01*
X132407619Y-88480476D01*
X132360000Y-88432857D01*
X132312380Y-88337619D01*
X132312380Y-88147142D01*
X132360000Y-88051904D01*
X132407619Y-88004285D01*
X132502857Y-87956666D01*
X132550476Y-87956666D01*
X132645714Y-88004285D01*
X132693333Y-88051904D01*
X132740952Y-88147142D01*
X132740952Y-88337619D01*
X132788571Y-88432857D01*
X132836190Y-88480476D01*
X132931428Y-88528095D01*
X133121904Y-88528095D01*
X133217142Y-88480476D01*
X133264761Y-88432857D01*
X133312380Y-88337619D01*
X133312380Y-88147142D01*
X133264761Y-88051904D01*
X133217142Y-88004285D01*
X133121904Y-87956666D01*
X132931428Y-87956666D01*
X132836190Y-88004285D01*
X132788571Y-88051904D01*
X132740952Y-88147142D01*
X132312380Y-87337619D02*
X132312380Y-87242380D01*
X132360000Y-87147142D01*
X132407619Y-87099523D01*
X132502857Y-87051904D01*
X132693333Y-87004285D01*
X132931428Y-87004285D01*
X133121904Y-87051904D01*
X133217142Y-87099523D01*
X133264761Y-87147142D01*
X133312380Y-87242380D01*
X133312380Y-87337619D01*
X133264761Y-87432857D01*
X133217142Y-87480476D01*
X133121904Y-87528095D01*
X132931428Y-87575714D01*
X132693333Y-87575714D01*
X132502857Y-87528095D01*
X132407619Y-87480476D01*
X132360000Y-87432857D01*
X132312380Y-87337619D01*
X132312380Y-86385238D02*
X132312380Y-86290000D01*
X132360000Y-86194761D01*
X132407619Y-86147142D01*
X132502857Y-86099523D01*
X132693333Y-86051904D01*
X132931428Y-86051904D01*
X133121904Y-86099523D01*
X133217142Y-86147142D01*
X133264761Y-86194761D01*
X133312380Y-86290000D01*
X133312380Y-86385238D01*
X133264761Y-86480476D01*
X133217142Y-86528095D01*
X133121904Y-86575714D01*
X132931428Y-86623333D01*
X132693333Y-86623333D01*
X132502857Y-86575714D01*
X132407619Y-86528095D01*
X132360000Y-86480476D01*
X132312380Y-86385238D01*
X132312380Y-85432857D02*
X132312380Y-85337619D01*
X132360000Y-85242380D01*
X132407619Y-85194761D01*
X132502857Y-85147142D01*
X132693333Y-85099523D01*
X132931428Y-85099523D01*
X133121904Y-85147142D01*
X133217142Y-85194761D01*
X133264761Y-85242380D01*
X133312380Y-85337619D01*
X133312380Y-85432857D01*
X133264761Y-85528095D01*
X133217142Y-85575714D01*
X133121904Y-85623333D01*
X132931428Y-85670952D01*
X132693333Y-85670952D01*
X132502857Y-85623333D01*
X132407619Y-85575714D01*
X132360000Y-85528095D01*
X132312380Y-85432857D01*
X133312380Y-83909047D02*
X132645714Y-83909047D01*
X132740952Y-83909047D02*
X132693333Y-83861428D01*
X132645714Y-83766190D01*
X132645714Y-83623333D01*
X132693333Y-83528095D01*
X132788571Y-83480476D01*
X133312380Y-83480476D01*
X132788571Y-83480476D02*
X132693333Y-83432857D01*
X132645714Y-83337619D01*
X132645714Y-83194761D01*
X132693333Y-83099523D01*
X132788571Y-83051904D01*
X133312380Y-83051904D01*
X133312380Y-82575714D02*
X132645714Y-82575714D01*
X132740952Y-82575714D02*
X132693333Y-82528095D01*
X132645714Y-82432857D01*
X132645714Y-82290000D01*
X132693333Y-82194761D01*
X132788571Y-82147142D01*
X133312380Y-82147142D01*
X132788571Y-82147142D02*
X132693333Y-82099523D01*
X132645714Y-82004285D01*
X132645714Y-81861428D01*
X132693333Y-81766190D01*
X132788571Y-81718571D01*
X133312380Y-81718571D01*
X133510000Y-105190000D02*
X133423580Y-105190000D01*
X133510000Y-67390000D02*
X133423580Y-67390000D01*
X134010000Y-105190000D02*
X134010000Y-67390000D01*
X134010000Y-105190000D02*
X134010000Y-67390000D01*
X134010000Y-105190000D02*
X134596421Y-104063496D01*
X134010000Y-105190000D02*
X133423579Y-104063496D01*
X134010000Y-67390000D02*
X133423579Y-68516504D01*
X134010000Y-67390000D02*
X134596421Y-68516504D01*
%LPC*%
D11*
%TO.C,SW3*%
X163945000Y-70400000D03*
D12*
X163945000Y-71670000D03*
%TD*%
D13*
%TO.C,J3*%
X181050000Y-72300000D03*
X181050000Y-76300000D03*
X181050000Y-80300000D03*
X181050000Y-84300000D03*
X181050000Y-88300000D03*
X181050000Y-92300000D03*
X181050000Y-96300000D03*
X181050000Y-100300000D03*
%TD*%
D14*
%TO.C,SW2*%
X170738908Y-71250000D03*
X173738908Y-71250000D03*
%TD*%
D15*
%TO.C,J1*%
X151760000Y-94640000D03*
D16*
X151760000Y-97180000D03*
X151760000Y-99720000D03*
X151760000Y-102260000D03*
%TD*%
D15*
%TO.C,J2*%
X139935000Y-92060000D03*
D16*
X142475000Y-92060000D03*
X139935000Y-94600000D03*
X142475000Y-94600000D03*
X139935000Y-97140000D03*
X142475000Y-97140000D03*
X139935000Y-99680000D03*
X142475000Y-99680000D03*
X139935000Y-102220000D03*
X142475000Y-102220000D03*
%TD*%
D11*
%TO.C,SW4*%
X140450000Y-69650000D03*
D12*
X140450000Y-70920000D03*
%TD*%
M02*
