%TF.GenerationSoftware,KiCad,Pcbnew,(6.0.8)*%
%TF.CreationDate,2022-10-31T19:22:44+01:00*%
%TF.ProjectId,stm_v3,73746d5f-7633-42e6-9b69-6361645f7063,rev?*%
%TF.SameCoordinates,Original*%
%TF.FileFunction,Soldermask,Bot*%
%TF.FilePolarity,Negative*%
%FSLAX46Y46*%
G04 Gerber Fmt 4.6, Leading zero omitted, Abs format (unit mm)*
G04 Created by KiCad (PCBNEW (6.0.8)) date 2022-10-31 19:22:44*
%MOMM*%
%LPD*%
G01*
G04 APERTURE LIST*
G04 Aperture macros list*
%AMRoundRect*
0 Rectangle with rounded corners*
0 $1 Rounding radius*
0 $2 $3 $4 $5 $6 $7 $8 $9 X,Y pos of 4 corners*
0 Add a 4 corners polygon primitive as box body*
4,1,4,$2,$3,$4,$5,$6,$7,$8,$9,$2,$3,0*
0 Add four circle primitives for the rounded corners*
1,1,$1+$1,$2,$3*
1,1,$1+$1,$4,$5*
1,1,$1+$1,$6,$7*
1,1,$1+$1,$8,$9*
0 Add four rect primitives between the rounded corners*
20,1,$1+$1,$2,$3,$4,$5,0*
20,1,$1+$1,$4,$5,$6,$7,0*
20,1,$1+$1,$6,$7,$8,$9,0*
20,1,$1+$1,$8,$9,$2,$3,0*%
%AMFreePoly0*
4,1,31,0.382218,2.049476,0.489351,2.033847,0.504091,2.029292,0.614722,1.975214,0.628088,1.965679,0.715237,1.878682,0.724795,1.865332,0.779065,1.754796,0.783653,1.740021,0.799470,1.632261,0.800000,1.625000,0.800000,-2.000000,0.785355,-2.035355,0.750000,-2.050000,-0.750000,-2.050000,-0.785355,-2.035355,-0.800000,-2.000000,-0.800000,1.625000,-0.799476,1.632218,-0.783847,1.739351,
-0.779292,1.754091,-0.725214,1.864722,-0.715679,1.878088,-0.628682,1.965237,-0.615332,1.974795,-0.504796,2.029065,-0.490021,2.033653,-0.382261,2.049470,-0.375000,2.050000,0.375000,2.050000,0.382218,2.049476,0.382218,2.049476,$1*%
G04 Aperture macros list end*
%ADD10RoundRect,0.050000X-0.500000X-0.500000X0.500000X-0.500000X0.500000X0.500000X-0.500000X0.500000X0*%
%ADD11O,1.100000X1.100000*%
%ADD12FreePoly0,90.000000*%
%ADD13C,0.900000*%
%ADD14RoundRect,0.050000X-0.850000X-0.850000X0.850000X-0.850000X0.850000X0.850000X-0.850000X0.850000X0*%
%ADD15O,1.800000X1.800000*%
G04 APERTURE END LIST*
D10*
%TO.C,SW3*%
X163945000Y-70400000D03*
D11*
X163945000Y-71670000D03*
%TD*%
D12*
%TO.C,J3*%
X181050000Y-72300000D03*
X181050000Y-76300000D03*
X181050000Y-80300000D03*
X181050000Y-84300000D03*
X181050000Y-88300000D03*
X181050000Y-92300000D03*
X181050000Y-96300000D03*
X181050000Y-100300000D03*
%TD*%
D13*
%TO.C,SW2*%
X170738908Y-71250000D03*
X173738908Y-71250000D03*
%TD*%
D14*
%TO.C,J1*%
X151760000Y-94640000D03*
D15*
X151760000Y-97180000D03*
X151760000Y-99720000D03*
X151760000Y-102260000D03*
%TD*%
D14*
%TO.C,J2*%
X139935000Y-92060000D03*
D15*
X142475000Y-92060000D03*
X139935000Y-94600000D03*
X142475000Y-94600000D03*
X139935000Y-97140000D03*
X142475000Y-97140000D03*
X139935000Y-99680000D03*
X142475000Y-99680000D03*
X139935000Y-102220000D03*
X142475000Y-102220000D03*
%TD*%
D10*
%TO.C,SW4*%
X140450000Y-69650000D03*
D11*
X140450000Y-70920000D03*
%TD*%
G36*
X164127214Y-70949000D02*
G01*
X164127214Y-70951000D01*
X164126100Y-70951902D01*
X164067944Y-70970798D01*
X164032380Y-71019747D01*
X164032380Y-71080249D01*
X164068022Y-71129306D01*
X164082818Y-71136221D01*
X164083964Y-71137860D01*
X164083117Y-71139672D01*
X164081710Y-71140016D01*
X163945000Y-71122017D01*
X163803172Y-71140690D01*
X163796753Y-71143349D01*
X163794771Y-71143088D01*
X163794005Y-71141240D01*
X163794943Y-71139796D01*
X163837727Y-71113578D01*
X163860880Y-71057680D01*
X163846756Y-70998849D01*
X163800652Y-70959472D01*
X163762896Y-70951962D01*
X163761392Y-70950643D01*
X163761782Y-70948681D01*
X163763286Y-70948000D01*
X164125482Y-70948000D01*
X164127214Y-70949000D01*
G37*
G36*
X140632214Y-70199000D02*
G01*
X140632214Y-70201000D01*
X140631100Y-70201902D01*
X140572944Y-70220798D01*
X140537380Y-70269747D01*
X140537380Y-70330249D01*
X140573022Y-70379306D01*
X140587818Y-70386221D01*
X140588964Y-70387860D01*
X140588117Y-70389672D01*
X140586710Y-70390016D01*
X140450000Y-70372017D01*
X140308172Y-70390690D01*
X140301753Y-70393349D01*
X140299771Y-70393088D01*
X140299005Y-70391240D01*
X140299943Y-70389796D01*
X140342727Y-70363578D01*
X140365880Y-70307680D01*
X140351756Y-70248849D01*
X140305652Y-70209472D01*
X140267896Y-70201962D01*
X140266392Y-70200643D01*
X140266782Y-70198681D01*
X140268286Y-70198000D01*
X140630482Y-70198000D01*
X140632214Y-70199000D01*
G37*
M02*
